<?xml version="1.0" encoding="utf-8" standalone="no"?>
<!DOCTYPE svg PUBLIC "-//W3C//DTD SVG 1.1//EN"
  "http://www.w3.org/Graphics/SVG/1.1/DTD/svg11.dtd">
<svg xmlns:xlink="http://www.w3.org/1999/xlink" width="144pt" height="144pt" viewBox="0 0 144 144" xmlns="http://www.w3.org/2000/svg" version="1.1">
 <metadata>
  <rdf:RDF xmlns:dc="http://purl.org/dc/elements/1.1/" xmlns:cc="http://creativecommons.org/ns#" xmlns:rdf="http://www.w3.org/1999/02/22-rdf-syntax-ns#">
   <cc:Work>
    <dc:type rdf:resource="http://purl.org/dc/dcmitype/StillImage"/>
    <dc:date>2023-04-21T15:01:25.310460</dc:date>
    <dc:format>image/svg+xml</dc:format>
    <dc:creator>
     <cc:Agent>
      <dc:title>Matplotlib v3.7.1, https://matplotlib.org/</dc:title>
     </cc:Agent>
    </dc:creator>
   </cc:Work>
  </rdf:RDF>
 </metadata>
 <defs>
  <style type="text/css">*{stroke-linejoin: round; stroke-linecap: butt}</style>
 </defs>
 <g id="figure_1">
  <g id="patch_1">
   <path d="M 0 144 
L 144 144 
L 144 0 
L 0 0 
L 0 144 
z
" style="fill: none"/>
  </g>
  <g id="axes_1">
   <g id="LineCollection_1">
    <path d="M 25.221894 74.719007 
L 25.665218 75.263846 
L 26.160898 75.678433 
L 26.701688 75.967741 
L 27.280342 76.136741 
L 27.889614 76.190404 
L 28.522256 76.133701 
L 29.171024 75.971604 
L 29.828671 75.709084 
L 30.48795 75.351113 
L 31.141616 74.90266 
L 31.782422 74.368699 
L 32.403123 73.7542 
L 32.996471 73.064134 
L 33.555221 72.303473 
L 34.072127 71.477189 
L 34.539943 70.590251 
L 34.951422 69.647632 
L 35.299317 68.654303 
L 35.576384 67.615235 
" clip-path="url(#pde6412d009)" style="fill: none; stroke: #000000; stroke-width: 0.717365"/>
    <path d="M 25.221894 74.719007 
L 25.692035 76.428792 
L 26.279451 78.058241 
L 26.972055 79.599536 
L 27.757758 81.044857 
L 28.624473 82.386387 
L 29.560111 83.616307 
L 30.552583 84.726798 
L 31.589803 85.710042 
L 32.659681 86.558221 
L 33.75013 87.263515 
L 34.849061 87.818107 
L 35.944387 88.214178 
L 37.024019 88.443909 
L 38.075869 88.499482 
L 39.08785 88.373078 
L 40.047872 88.056879 
L 40.943848 87.543067 
L 41.76369 86.823822 
L 42.495309 85.891327 
" clip-path="url(#pde6412d009)" style="fill: none; stroke: #000000; stroke-width: 1.111799"/>
    <path d="M 25.221894 74.719007 
L 25.342905 77.479189 
L 25.62067 80.337145 
L 26.043049 83.264032 
L 26.597907 86.231008 
L 27.273107 89.209231 
L 28.056511 92.169859 
L 28.935983 95.084048 
L 29.899385 97.922957 
L 30.934582 100.657744 
L 32.029435 103.259565 
L 33.171807 105.699579 
L 34.349563 107.948944 
L 35.550565 109.978816 
L 36.762676 111.760353 
L 37.973759 113.264714 
L 39.171677 114.463056 
L 40.344294 115.326536 
L 41.479471 115.826312 
L 42.565073 115.933542 
" clip-path="url(#pde6412d009)" style="fill: none; stroke: #000000; stroke-width: 0.151473"/>
    <path d="M 15.181067 64.620384 
L 15.412177 65.739642 
L 15.716144 66.833641 
L 16.085941 67.895314 
L 16.514543 68.917594 
L 16.994921 69.893414 
L 17.52005 70.815708 
L 18.082903 71.677406 
L 18.676454 72.471444 
L 19.293674 73.190753 
L 19.927539 73.828266 
L 20.571021 74.376917 
L 21.217093 74.829637 
L 21.85873 75.179361 
L 22.488903 75.419021 
L 23.100587 75.541549 
L 23.686754 75.539879 
L 24.240379 75.406943 
L 24.754435 75.135675 
L 25.221894 74.719007 
" clip-path="url(#pde6412d009)" style="fill: none; stroke: #000000; stroke-width: 2.060762"/>
    <path d="M 25.221894 74.719007 
L 26.24945 75.383889 
L 27.365738 75.71634 
L 28.55629 75.7348 
L 29.806635 75.457704 
L 31.102306 74.903492 
L 32.428831 74.0906 
L 33.771742 73.037467 
L 35.11657 71.76253 
L 36.448845 70.284227 
L 37.754098 68.620995 
L 39.01786 66.791272 
L 40.225661 64.813496 
L 41.363032 62.706105 
L 42.415503 60.487535 
L 43.368607 58.176226 
L 44.207872 55.790614 
L 44.918829 53.349137 
L 45.487011 50.870233 
L 45.897946 48.372339 
" clip-path="url(#pde6412d009)" style="fill: none; stroke: #000000; stroke-width: 0.127563"/>
    <path d="M 25.221894 74.719007 
L 26.394964 77.945903 
L 27.80396 80.919288 
L 29.422762 83.631674 
L 31.225252 86.075569 
L 33.185312 88.243485 
L 35.276822 90.12793 
L 37.473663 91.721415 
L 39.749718 93.01645 
L 42.078867 94.005545 
L 44.434992 94.68121 
L 46.791974 95.035954 
L 49.123694 95.062288 
L 51.404033 94.752721 
L 53.606874 94.099764 
L 55.706096 93.095927 
L 57.675582 91.733719 
L 59.489213 90.00565 
L 61.120869 87.90423 
L 62.544433 85.42197 
" clip-path="url(#pde6412d009)" style="fill: none; stroke: #000000; stroke-width: 0.13163"/>
    <path d="M 35.576384 67.615235 
L 35.603201 68.780182 
L 35.694937 69.995044 
L 35.846751 71.24703 
L 36.0538 72.523352 
L 36.311243 73.811219 
L 36.614239 75.097841 
L 36.957943 76.370429 
L 37.337516 77.616193 
L 37.748115 78.822344 
L 38.184898 79.97609 
L 38.643023 81.064643 
L 39.117649 82.075213 
L 39.603932 82.99501 
L 40.097032 83.811244 
L 40.592106 84.511125 
L 41.084313 85.081863 
L 41.568811 85.51067 
L 42.040756 85.784754 
L 42.495309 85.891327 
" clip-path="url(#pde6412d009)" style="fill: none; stroke: #000000; stroke-width: 9.847106"/>
    <path d="M 35.576384 67.615235 
L 35.254072 69.830579 
L 35.036156 72.273947 
L 34.917745 74.911526 
L 34.893949 77.709503 
L 34.959878 80.634063 
L 35.110639 83.651393 
L 35.341343 86.727679 
L 35.647099 89.829108 
L 36.023016 92.921867 
L 36.464203 95.97214 
L 36.96577 98.946116 
L 37.522825 101.809979 
L 38.130478 104.529917 
L 38.783839 107.072115 
L 39.478016 109.402761 
L 40.208119 111.48804 
L 40.969256 113.294139 
L 41.756538 114.787244 
L 42.565073 115.933542 
" clip-path="url(#pde6412d009)" style="fill: none; stroke: #000000; stroke-width: 0.324202"/>
    <path d="M 15.181067 64.620384 
L 15.855501 66.28448 
L 16.655148 67.793067 
L 17.565736 69.144048 
L 18.572991 70.335328 
L 19.662641 71.364811 
L 20.820413 72.230402 
L 22.032034 72.930003 
L 23.283231 73.461521 
L 24.559731 73.822858 
L 25.847261 74.011919 
L 27.13155 74.026608 
L 28.398322 73.86483 
L 29.633307 73.524488 
L 30.822231 73.003487 
L 31.950821 72.29973 
L 33.004804 71.411123 
L 33.969907 70.335568 
L 34.831858 69.070971 
L 35.576384 67.615235 
" clip-path="url(#pde6412d009)" style="fill: none; stroke: #000000; stroke-width: 0.128262"/>
    <path d="M 35.576384 67.615235 
L 36.160616 67.735278 
L 36.781224 67.653142 
L 37.430986 67.382294 
L 38.102677 66.936198 
L 38.789076 66.328323 
L 39.482959 65.572134 
L 40.177102 64.681098 
L 40.864284 63.668681 
L 41.537279 62.548349 
L 42.188867 61.33357 
L 42.811822 60.037808 
L 43.398922 58.674531 
L 43.942945 57.257206 
L 44.436666 55.799297 
L 44.872863 54.314272 
L 45.244313 52.815598 
L 45.543792 51.31674 
L 45.764077 49.831165 
L 45.897946 48.372339 
" clip-path="url(#pde6412d009)" style="fill: none; stroke: #000000; stroke-width: 0.782839"/>
    <path d="M 35.576384 67.615235 
L 36.30613 70.297292 
L 37.219446 72.85609 
L 38.297458 75.279168 
L 39.521294 77.554064 
L 40.872083 79.668316 
L 42.33095 81.609464 
L 43.879024 83.365046 
L 45.497432 84.922601 
L 47.167302 86.269668 
L 48.869761 87.393785 
L 50.585936 88.28249 
L 52.296955 88.923323 
L 53.983946 89.303822 
L 55.628036 89.411526 
L 57.210353 89.233973 
L 58.712023 88.758703 
L 60.114175 87.973253 
L 61.397936 86.865163 
L 62.544433 85.42197 
" clip-path="url(#pde6412d009)" style="fill: none; stroke: #000000; stroke-width: 0.293351"/>
    <path d="M 35.576384 67.615235 
L 36.679663 69.98732 
L 37.968672 72.087137 
L 39.421425 73.915306 
L 41.015935 75.472449 
L 42.730217 76.759186 
L 44.542284 77.776137 
L 46.43015 78.523924 
L 48.371829 79.003166 
L 50.345334 79.214485 
L 52.328679 79.1585 
L 54.299877 78.835834 
L 56.236944 78.247106 
L 58.117891 77.392936 
L 59.920734 76.273946 
L 61.623485 74.890756 
L 63.204159 73.243987 
L 64.640768 71.334259 
L 65.911328 69.162193 
L 66.993851 66.728409 
" clip-path="url(#pde6412d009)" style="fill: none; stroke: #000000; stroke-width: 0.116185"/>
    <path d="M 42.495309 85.891327 
L 42.14618 86.941724 
L 41.836528 88.17023 
L 41.566303 89.555823 
L 41.335458 91.077478 
L 41.143943 92.714171 
L 40.99171 94.444879 
L 40.878709 96.248577 
L 40.804892 98.104242 
L 40.77021 99.99085 
L 40.774614 101.887377 
L 40.818055 103.772799 
L 40.900485 105.626093 
L 41.021855 107.426234 
L 41.182116 109.152199 
L 41.381218 110.782963 
L 41.619114 112.297503 
L 41.895755 113.674796 
L 42.211091 114.893817 
L 42.565073 115.933542 
" clip-path="url(#pde6412d009)" style="fill: none; stroke: #000000; stroke-width: 1.135423"/>
    <path d="M 15.181067 64.620384 
L 15.882318 67.449427 
L 16.773701 70.172875 
L 17.836103 72.775843 
L 19.050407 75.243444 
L 20.3975 77.560794 
L 21.858267 79.713007 
L 23.413593 81.685197 
L 25.044363 83.462479 
L 26.731462 85.029966 
L 28.455775 86.372774 
L 30.198189 87.476016 
L 31.939587 88.324808 
L 33.660855 88.904262 
L 35.342879 89.199495 
L 36.966543 89.19562 
L 38.512733 88.877751 
L 39.962334 88.231003 
L 41.296231 87.24049 
L 42.495309 85.891327 
" clip-path="url(#pde6412d009)" style="fill: none; stroke: #000000; stroke-width: 0.173464"/>
    <path d="M 42.495309 85.891327 
L 42.174625 84.325929 
L 41.922964 82.566269 
L 41.737946 80.638605 
L 41.617189 78.569191 
L 41.558312 76.384285 
L 41.558933 74.110143 
L 41.616672 71.773021 
L 41.729147 69.399174 
L 41.893978 67.014859 
L 42.108782 64.646333 
L 42.371179 62.319851 
L 42.678787 60.06167 
L 43.029226 57.898046 
L 43.420113 55.855234 
L 43.849069 53.959492 
L 44.313711 52.237075 
L 44.811659 50.71424 
L 45.340531 49.417243 
L 45.897946 48.372339 
" clip-path="url(#pde6412d009)" style="fill: none; stroke: #000000; stroke-width: 0.888078"/>
    <path d="M 42.495309 85.891327 
L 44.550925 92.080336 
L 47.049115 97.852394 
L 49.942031 103.188195 
L 53.181825 108.068435 
L 56.720649 112.473808 
L 60.510656 116.38501 
L 64.503998 119.782735 
L 68.652828 122.647679 
L 72.909296 124.960537 
L 77.225557 126.702004 
L 81.553762 127.852774 
L 85.846064 128.393544 
L 90.054614 128.305007 
L 94.131566 127.56786 
L 98.02907 126.162796 
L 101.699281 124.070512 
L 105.09435 121.271702 
L 108.166429 117.747062 
L 110.867671 113.477285 
" clip-path="url(#pde6412d009)" style="fill: none; stroke: #000000; stroke-width: 0.106279"/>
    <path d="M 42.495309 85.891327 
L 44.217698 81.766567 
L 46.253038 78.045337 
L 48.565366 74.731542 
L 51.118716 71.829088 
L 53.877126 69.341883 
L 56.804632 67.273832 
L 59.865268 65.628841 
L 63.023073 64.410816 
L 66.242081 63.623665 
L 69.486328 63.271292 
L 72.719851 63.357604 
L 75.906686 63.886508 
L 79.010869 64.861909 
L 81.996435 66.287714 
L 84.827422 68.167829 
L 87.467864 70.50616 
L 89.881798 73.306614 
L 92.033261 76.573096 
L 93.886287 80.309514 
" clip-path="url(#pde6412d009)" style="fill: none; stroke: #000000; stroke-width: 0.113565"/>
    <path d="M 42.495309 85.891327 
L 43.334399 89.582218 
L 44.417675 93.162369 
L 45.721076 96.610433 
L 47.220539 99.905062 
L 48.892004 103.024908 
L 50.711409 105.948625 
L 52.654692 108.654864 
L 54.697792 111.122278 
L 56.816648 113.32952 
L 58.987197 115.255242 
L 61.185379 116.878097 
L 63.387131 118.176737 
L 65.568393 119.129814 
L 67.705102 119.715982 
L 69.773198 119.913892 
L 71.748618 119.702198 
L 73.607302 119.059551 
L 75.325187 117.964604 
L 76.878213 116.39601 
" clip-path="url(#pde6412d009)" style="fill: none; stroke: #000000; stroke-width: 0.212662"/>
    <path d="M 42.495309 85.891327 
L 43.198238 87.408437 
L 44.019818 88.752374 
L 44.946016 89.923465 
L 45.962803 90.922039 
L 47.056148 91.748424 
L 48.21202 92.40295 
L 49.416389 92.885944 
L 50.655224 93.197735 
L 51.914495 93.338651 
L 53.180171 93.309021 
L 54.438222 93.109174 
L 55.674616 92.739437 
L 56.875323 92.200139 
L 58.026313 91.491609 
L 59.113555 90.614175 
L 60.123019 89.568166 
L 61.040674 88.35391 
L 61.852489 86.971735 
L 62.544433 85.42197 
" clip-path="url(#pde6412d009)" style="fill: none; stroke: #000000; stroke-width: 0.673617"/>
    <path d="M 42.495309 85.891327 
L 43.571771 87.098465 
L 44.769044 87.98342 
L 46.069983 88.559603 
L 47.457444 88.840424 
L 48.914283 88.839294 
L 50.423355 88.569623 
L 51.967516 88.044821 
L 53.529621 87.278299 
L 55.092527 86.283468 
L 56.639089 85.073737 
L 58.152163 83.662518 
L 59.614604 82.063219 
L 61.009268 80.289253 
L 62.319011 78.354029 
L 63.526687 76.270958 
L 64.615154 74.05345 
L 65.567267 71.714916 
L 66.365881 69.268765 
L 66.993851 66.728409 
" clip-path="url(#pde6412d009)" style="fill: none; stroke: #000000; stroke-width: 0.17864"/>
    <path d="M 42.565073 115.933542 
L 41.890407 113.328418 
L 41.32341 110.349738 
L 40.861751 107.044781 
L 40.503098 103.460828 
L 40.245118 99.645157 
L 40.085479 95.64505 
L 40.021848 91.507787 
L 40.051894 87.280646 
L 40.173282 83.01091 
L 40.383682 78.745856 
L 40.680761 74.532766 
L 41.062187 70.41892 
L 41.525626 66.451597 
L 42.068747 62.678078 
L 42.689218 59.145643 
L 43.384705 55.901571 
L 44.152878 52.993144 
L 44.991402 50.467639 
L 45.897946 48.372339 
" clip-path="url(#pde6412d009)" style="fill: none; stroke: #000000; stroke-width: 0.122727"/>
    <path d="M 42.565073 115.933542 
L 44.912332 110.62404 
L 47.669075 105.880379 
L 50.787504 101.704277 
L 54.219819 98.097452 
L 57.918221 95.061624 
L 61.834912 92.598512 
L 65.922092 90.709834 
L 70.131964 89.39731 
L 74.416727 88.662659 
L 78.728584 88.507598 
L 83.019735 88.933848 
L 87.242381 89.943127 
L 91.348724 91.537154 
L 95.290964 93.717648 
L 99.021304 96.486328 
L 102.491943 99.844913 
L 105.655083 103.795121 
L 108.462925 108.338673 
L 110.867671 113.477285 
" clip-path="url(#pde6412d009)" style="fill: none; stroke: #000000; stroke-width: 0.121109"/>
    <path d="M 42.565073 115.933542 
L 44.767229 118.619562 
L 47.228343 120.657538 
L 49.912502 122.072399 
L 52.78379 122.889075 
L 55.806291 123.132497 
L 58.944091 122.827594 
L 62.161274 121.999297 
L 65.421926 120.672536 
L 68.690132 118.87224 
L 71.929975 116.62334 
L 75.105541 113.950766 
L 78.180916 110.879448 
L 81.120183 107.434316 
L 83.887428 103.6403 
L 86.446735 99.52233 
L 88.76219 95.105337 
L 90.797877 90.414249 
L 92.517881 85.473998 
L 93.886287 80.309514 
" clip-path="url(#pde6412d009)" style="fill: none; stroke: #000000; stroke-width: 0.111093"/>
    <path d="M 42.565073 115.933542 
L 43.764116 113.325222 
L 45.166666 111.011255 
L 46.748709 108.991316 
L 48.486233 107.265081 
L 50.355226 105.832226 
L 52.331675 104.692429 
L 54.391567 103.845366 
L 56.51089 103.290712 
L 58.66563 103.028145 
L 60.831775 103.05734 
L 62.985312 103.377974 
L 65.102229 103.989723 
L 67.158514 104.892264 
L 69.130152 106.085273 
L 70.993132 107.568426 
L 72.72344 109.3414 
L 74.297065 111.403871 
L 75.689994 113.755516 
L 76.878213 116.39601 
" clip-path="url(#pde6412d009)" style="fill: none; stroke: #000000; stroke-width: 0.171793"/>
    <path d="M 42.565073 115.933542 
L 42.903035 113.344052 
L 43.399514 110.742856 
L 44.040528 108.151308 
L 44.812096 105.590758 
L 45.700236 103.08256 
L 46.690965 100.648065 
L 47.770303 98.308626 
L 48.924267 96.085596 
L 50.138876 94.000326 
L 51.400148 92.074169 
L 52.6941 90.328477 
L 54.006753 88.784603 
L 55.324123 87.463899 
L 56.632228 86.387717 
L 57.917088 85.577409 
L 59.16472 85.054329 
L 60.361143 84.839827 
L 61.492375 84.955257 
L 62.544433 85.42197 
" clip-path="url(#pde6412d009)" style="fill: none; stroke: #000000; stroke-width: 0.390546"/>
    <path d="M 15.181067 64.620384 
L 16.059462 61.705823 
L 17.141698 58.955651 
L 18.406281 56.381238 
L 19.831713 53.993956 
L 21.3965 51.805175 
L 23.079145 49.826265 
L 24.858153 48.068597 
L 26.712026 46.543542 
L 28.61927 45.26247 
L 30.558387 44.236751 
L 32.507883 43.477757 
L 34.446261 42.996857 
L 36.352026 42.805423 
L 38.20368 42.914824 
L 39.979729 43.336432 
L 41.658676 44.081617 
L 43.219025 45.16175 
L 44.63928 46.5882 
L 45.897946 48.372339 
" clip-path="url(#pde6412d009)" style="fill: none; stroke: #000000; stroke-width: 0.138487"/>
    <path d="M 15.181067 64.620384 
L 16.585247 68.966537 
L 18.29821 73.033922 
L 20.28681 76.80798 
L 22.517901 80.274156 
L 24.958339 83.417892 
L 27.574979 86.22463 
L 30.334673 88.679814 
L 33.204278 90.768887 
L 36.150648 92.477291 
L 39.140638 93.790469 
L 42.141101 94.693863 
L 45.118894 95.172918 
L 48.040869 95.213075 
L 50.873883 94.799777 
L 53.584789 93.918468 
L 56.140443 92.55459 
L 58.507698 90.693586 
L 60.65341 88.320898 
L 62.544433 85.42197 
" clip-path="url(#pde6412d009)" style="fill: none; stroke: #000000; stroke-width: 0.154276"/>
    <path d="M 15.181067 64.620384 
L 16.95878 68.656565 
L 19.047436 72.264968 
L 21.410776 75.444119 
L 24.012542 78.192541 
L 26.816474 80.508761 
L 29.786313 82.391303 
L 32.8858 83.838692 
L 36.078675 84.849451 
L 39.32868 85.422107 
L 42.599556 85.555184 
L 45.855043 85.247207 
L 49.058882 84.4967 
L 52.174814 83.302189 
L 55.16658 81.662197 
L 57.997921 79.575251 
L 60.632578 77.039874 
L 63.034291 74.054592 
L 65.166802 70.617928 
L 66.993851 66.728409 
" clip-path="url(#pde6412d009)" style="fill: none; stroke: #000000; stroke-width: 0.106002"/>
    <path d="M 45.897946 48.372339 
L 47.771656 48.369143 
L 49.741201 49.033856 
L 51.784903 50.318873 
L 53.881081 52.176592 
L 56.008054 54.559408 
L 58.144142 57.419718 
L 60.267665 60.709918 
L 62.356942 64.382405 
L 64.390293 68.389574 
L 66.346038 72.683822 
L 68.202497 77.217546 
L 69.937989 81.943142 
L 71.530833 86.813005 
L 72.95935 91.779533 
L 74.20186 96.795122 
L 75.236681 101.812168 
L 76.042134 106.783067 
L 76.596538 111.660215 
L 76.878213 116.39601 
" clip-path="url(#pde6412d009)" style="fill: none; stroke: #000000; stroke-width: 0.140769"/>
    <path d="M 45.897946 48.372339 
L 46.910575 48.387973 
L 47.97405 48.765457 
L 49.076723 49.478865 
L 50.206944 50.502269 
L 51.353063 51.809741 
L 52.503432 53.375354 
L 53.6464 55.173179 
L 54.770319 57.177289 
L 55.863539 59.361755 
L 56.914411 61.700652 
L 57.911285 64.16805 
L 58.842512 66.738022 
L 59.696442 69.38464 
L 60.461427 72.081977 
L 61.125816 74.804105 
L 61.677961 77.525096 
L 62.106212 80.219022 
L 62.398919 82.859956 
L 62.544433 85.42197 
" clip-path="url(#pde6412d009)" style="fill: none; stroke: #000000; stroke-width: 0.266776"/>
    <path d="M 45.897946 48.372339 
L 46.416993 50.62438 
L 47.085394 52.806333 
L 47.888385 54.905351 
L 48.811204 56.908589 
L 49.839087 58.803201 
L 50.957271 60.576342 
L 52.150994 62.215164 
L 53.405491 63.706824 
L 54.706 65.038474 
L 56.037758 66.19727 
L 57.386001 67.170365 
L 58.735967 67.944913 
L 60.072892 68.508069 
L 61.382013 68.846988 
L 62.648568 68.948823 
L 63.857792 68.800728 
L 64.994922 68.389858 
L 66.045197 67.703367 
L 66.993851 66.728409 
" clip-path="url(#pde6412d009)" style="fill: none; stroke: #000000; stroke-width: 0.173793"/>
    <path d="M 93.886287 80.309514 
L 94.088877 82.762106 
L 94.435605 85.267681 
L 94.914586 87.803029 
L 95.513938 90.344937 
L 96.221776 92.870195 
L 97.026216 95.355592 
L 97.915376 97.777916 
L 98.87737 100.113956 
L 99.900316 102.340502 
L 100.972329 104.434341 
L 102.081526 106.372264 
L 103.216023 108.131058 
L 104.363937 109.687512 
L 105.513383 111.018416 
L 106.652478 112.100558 
L 107.769338 112.910727 
L 108.852079 113.425712 
L 109.888818 113.622302 
L 110.867671 113.477285 
" clip-path="url(#pde6412d009)" style="fill: none; stroke: #000000; stroke-width: 0.268849"/>
    <path d="M 76.878213 116.39601 
L 78.094739 118.894128 
L 79.509653 121.086035 
L 81.099168 122.973772 
L 82.839499 124.559383 
L 84.706858 125.84491 
L 86.67746 126.832395 
L 88.727519 127.523881 
L 90.833248 127.921411 
L 92.970862 128.027027 
L 95.116573 127.842771 
L 97.246597 127.370687 
L 99.337146 126.612817 
L 101.364434 125.571203 
L 103.304676 124.247888 
L 105.134086 122.644914 
L 106.828876 120.764324 
L 108.365261 118.608161 
L 109.719455 116.178467 
L 110.867671 113.477285 
" clip-path="url(#pde6412d009)" style="fill: none; stroke: #000000; stroke-width: 0.142451"/>
    <path d="M 62.544433 85.42197 
L 64.55373 82.701959 
L 66.813995 80.559493 
L 69.291409 78.974939 
L 71.952156 77.928664 
L 74.762418 77.401035 
L 77.68838 77.372417 
L 80.696223 77.823179 
L 83.75213 78.733685 
L 86.822285 80.084303 
L 89.87287 81.8554 
L 92.870068 84.027341 
L 95.780062 86.580494 
L 98.569035 89.495226 
L 101.203169 92.751902 
L 103.648649 96.330889 
L 105.871656 100.212555 
L 107.838373 104.377265 
L 109.514984 108.805386 
L 110.867671 113.477285 
" clip-path="url(#pde6412d009)" style="fill: none; stroke: #000000; stroke-width: 0.161024"/>
    <path d="M 76.878213 116.39601 
L 77.892149 116.441536 
L 78.960336 116.127867 
L 80.070869 115.480257 
L 81.211848 114.52396 
L 82.37137 113.284228 
L 83.537531 111.786317 
L 84.698431 110.055479 
L 85.842165 108.116968 
L 86.956833 105.996038 
L 88.030531 103.717943 
L 89.051358 101.307937 
L 90.00741 98.791273 
L 90.886785 96.193204 
L 91.677581 93.538985 
L 92.367895 90.85387 
L 92.945825 88.163111 
L 93.399469 85.491963 
L 93.716924 82.865679 
L 93.886287 80.309514 
" clip-path="url(#pde6412d009)" style="fill: none; stroke: #000000; stroke-width: 0.281924"/>
    <path d="M 93.886287 80.309514 
L 94.484705 75.804288 
L 95.359446 71.282416 
L 96.486062 66.78078 
L 97.840108 62.336264 
L 99.397137 57.985752 
L 101.132704 53.766128 
L 103.022362 49.714276 
L 105.041665 45.86708 
L 107.166166 42.261423 
L 109.37142 38.93419 
L 111.63298 35.922264 
L 113.9264 33.26253 
L 116.227233 30.991871 
L 118.511034 29.14717 
L 120.753356 27.765313 
L 122.929754 26.883182 
L 125.01578 26.537662 
L 126.986988 26.765637 
L 128.818933 27.60399 
" clip-path="url(#pde6412d009)" style="fill: none; stroke: #000000; stroke-width: 0.19514"/>
    <path d="M 62.544433 85.42197 
L 63.574878 82.846975 
L 64.798403 80.50792 
L 66.193076 78.408381 
L 67.736963 76.551937 
L 69.40813 74.942166 
L 71.184646 73.582644 
L 73.044575 72.476951 
L 74.965985 71.628663 
L 76.926943 71.041359 
L 78.905515 70.718616 
L 80.879767 70.664012 
L 82.827767 70.881125 
L 84.72758 71.373532 
L 86.557274 72.144812 
L 88.294916 73.198541 
L 89.918571 74.538298 
L 91.406307 76.167661 
L 92.73619 78.090207 
L 93.886287 80.309514 
" clip-path="url(#pde6412d009)" style="fill: none; stroke: #000000; stroke-width: 0.50646"/>
    <path d="M 76.878213 116.39601 
L 79.724094 117.279889 
L 82.763489 117.194195 
L 85.960048 116.201065 
L 89.277424 114.362637 
L 92.679268 111.741048 
L 96.129231 108.398436 
L 99.590964 104.396939 
L 103.028118 99.798694 
L 106.404346 94.665838 
L 109.683298 89.06051 
L 112.828625 83.044847 
L 115.80398 76.680987 
L 118.573013 70.031066 
L 121.099376 63.157223 
L 123.34672 56.121596 
L 125.278696 48.986321 
L 126.858956 41.813537 
L 128.051151 34.665381 
L 128.818933 27.60399 
" clip-path="url(#pde6412d009)" style="fill: none; stroke: #000000; stroke-width: 0.107352"/>
    <path d="M 62.544433 85.42197 
L 63.405514 85.403141 
L 64.311585 85.690369 
L 65.252614 86.261978 
L 66.218571 87.096293 
L 67.199424 88.171637 
L 68.185143 89.466335 
L 69.165698 90.95871 
L 70.131056 92.627087 
L 71.071187 94.449789 
L 71.976061 96.405141 
L 72.835645 98.471467 
L 73.63991 100.62709 
L 74.378824 102.850335 
L 75.042357 105.119526 
L 75.620477 107.412987 
L 76.103153 109.709042 
L 76.480355 111.986015 
L 76.742052 114.222229 
L 76.878213 116.39601 
" clip-path="url(#pde6412d009)" style="fill: none; stroke: #000000; stroke-width: 0.618866"/>
    <path d="M 66.993851 66.728409 
L 66.756479 69.212163 
L 66.642483 71.907359 
L 66.644944 74.779239 
L 66.756947 77.793047 
L 66.971573 80.914024 
L 67.281906 84.107411 
L 67.681028 87.338452 
L 68.162022 90.572388 
L 68.717972 93.774462 
L 69.341959 96.909914 
L 70.027067 99.943989 
L 70.766378 102.841927 
L 71.552976 105.568971 
L 72.379943 108.090362 
L 73.240362 110.371343 
L 74.127315 112.377157 
L 75.033886 114.073044 
L 75.953158 115.424248 
L 76.878213 116.39601 
" clip-path="url(#pde6412d009)" style="fill: none; stroke: #000000; stroke-width: 0.110678"/>
    <path d="M 62.544433 85.42197 
L 65.526475 88.47963 
L 68.827566 90.630151 
L 72.401328 91.913993 
L 76.201381 92.37162 
L 80.181345 92.043492 
L 84.29484 90.970071 
L 88.495487 89.191819 
L 92.736906 86.749197 
L 96.972718 83.682668 
L 101.156544 80.032692 
L 105.242003 75.839731 
L 109.182716 71.144247 
L 112.932303 65.986702 
L 116.444385 60.407557 
L 119.672583 54.447273 
L 122.570516 48.146313 
L 125.091805 41.545138 
L 127.19007 34.68421 
L 128.818933 27.60399 
" clip-path="url(#pde6412d009)" style="fill: none; stroke: #000000; stroke-width: 0.113715"/>
    <path d="M 62.544433 85.42197 
L 62.917966 85.111998 
L 63.293659 84.653017 
L 63.6684 84.058108 
L 64.039074 83.340356 
L 64.402568 82.51284 
L 64.755768 81.588643 
L 65.09556 80.580848 
L 65.41883 79.502535 
L 65.722465 78.366787 
L 66.003351 77.186686 
L 66.258375 75.975314 
L 66.484422 74.745753 
L 66.678378 73.511084 
L 66.837131 72.28439 
L 66.957565 71.078753 
L 67.036568 69.907254 
L 67.071026 68.782976 
L 67.057825 67.719001 
L 66.993851 66.728409 
" clip-path="url(#pde6412d009)" style="fill: none; stroke: #000000; stroke-width: 7.157927"/>
   </g>
   <g id="PathCollection_1">
    <path d="M 25.221894 82.733551 
C 27.347375 82.733551 29.386089 81.889088 30.889032 80.386146 
C 32.391975 78.883203 33.236437 76.844489 33.236437 74.719007 
C 33.236437 72.593525 32.391975 70.554812 30.889032 69.051869 
C 29.386089 67.548926 27.347375 66.704463 25.221894 66.704463 
C 23.096412 66.704463 21.057698 67.548926 19.554755 69.051869 
C 18.051813 70.554812 17.20735 72.593525 17.20735 74.719007 
C 17.20735 76.844489 18.051813 78.883203 19.554755 80.386146 
C 21.057698 81.889088 23.096412 82.733551 25.221894 82.733551 
z
" clip-path="url(#pde6412d009)" style="fill: #46039f; stroke: #000000; stroke-width: 0.55"/>
    <path d="M 35.576384 73.96359 
C 37.259988 73.96359 38.874862 73.294688 40.065349 72.1042 
C 41.255837 70.913713 41.924739 69.298839 41.924739 67.615235 
C 41.924739 65.931632 41.255837 64.316758 40.065349 63.12627 
C 38.874862 61.935783 37.259988 61.26688 35.576384 61.26688 
C 33.892781 61.26688 32.277907 61.935783 31.087419 63.12627 
C 29.896932 64.316758 29.228029 65.931632 29.228029 67.615235 
C 29.228029 69.298839 29.896932 70.913713 31.087419 72.1042 
C 32.277907 73.294688 33.892781 73.96359 35.576384 73.96359 
z
" clip-path="url(#pde6412d009)" style="fill: #46039f; stroke: #000000; stroke-width: 0.55"/>
    <path d="M 42.495309 92.197422 
C 44.167705 92.197422 45.771829 91.532972 46.954392 90.35041 
C 48.136954 89.167847 48.801404 87.563723 48.801404 85.891327 
C 48.801404 84.218931 48.136954 82.614807 46.954392 81.432244 
C 45.771829 80.249681 44.167705 79.585231 42.495309 79.585231 
C 40.822913 79.585231 39.218789 80.249681 38.036226 81.432244 
C 36.853664 82.614807 36.189214 84.218931 36.189214 85.891327 
C 36.189214 87.563723 36.853664 89.167847 38.036226 90.35041 
C 39.218789 91.532972 40.822913 92.197422 42.495309 92.197422 
z
" clip-path="url(#pde6412d009)" style="fill: #46039f; stroke: #000000; stroke-width: 0.55"/>
    <path d="M 42.565073 120.688092 
C 43.825995 120.688092 45.035442 120.187122 45.927048 119.295516 
C 46.818654 118.40391 47.319623 117.194463 47.319623 115.933542 
C 47.319623 114.67262 46.818654 113.463173 45.927048 112.571567 
C 45.035442 111.679961 43.825995 111.178991 42.565073 111.178991 
C 41.304152 111.178991 40.094705 111.679961 39.203099 112.571567 
C 38.311493 113.463173 37.810523 114.67262 37.810523 115.933542 
C 37.810523 117.194463 38.311493 118.40391 39.203099 119.295516 
C 40.094705 120.187122 41.304152 120.688092 42.565073 120.688092 
z
" clip-path="url(#pde6412d009)" style="fill: #7201a8; stroke: #000000; stroke-width: 0.55"/>
    <path d="M 15.181067 69.374934 
C 16.441989 69.374934 17.651436 68.873965 18.543042 67.982359 
C 19.434648 67.090753 19.935617 65.881306 19.935617 64.620384 
C 19.935617 63.359463 19.434648 62.150016 18.543042 61.25841 
C 17.651436 60.366804 16.441989 59.865834 15.181067 59.865834 
C 13.920146 59.865834 12.710699 60.366804 11.819093 61.25841 
C 10.927487 62.150016 10.426517 63.359463 10.426517 64.620384 
C 10.426517 65.881306 10.927487 67.090753 11.819093 67.982359 
C 12.710699 68.873965 13.920146 69.374934 15.181067 69.374934 
z
" clip-path="url(#pde6412d009)" style="fill: #7201a8; stroke: #000000; stroke-width: 0.55"/>
    <path d="M 45.897946 53.126889 
C 47.158867 53.126889 48.368314 52.62592 49.259921 51.734314 
C 50.151527 50.842708 50.652496 49.63326 50.652496 48.372339 
C 50.652496 47.111418 50.151527 45.90197 49.259921 45.010364 
C 48.368314 44.118758 47.158867 43.617789 45.897946 43.617789 
C 44.637024 43.617789 43.427577 44.118758 42.535971 45.010364 
C 41.644365 45.90197 41.143396 47.111418 41.143396 48.372339 
C 41.143396 49.63326 41.644365 50.842708 42.535971 51.734314 
C 43.427577 52.62592 44.637024 53.126889 45.897946 53.126889 
z
" clip-path="url(#pde6412d009)" style="fill: #9c179e; stroke: #000000; stroke-width: 0.55"/>
    <path d="M 110.867671 118.231835 
C 112.128592 118.231835 113.338039 117.730866 114.229645 116.83926 
C 115.121252 115.947654 115.622221 114.738207 115.622221 113.477285 
C 115.622221 112.216364 115.121252 111.006917 114.229645 110.115311 
C 113.338039 109.223704 112.128592 108.722735 110.867671 108.722735 
C 109.606749 108.722735 108.397302 109.223704 107.505696 110.115311 
C 106.61409 111.006917 106.113121 112.216364 106.113121 113.477285 
C 106.113121 114.738207 106.61409 115.947654 107.505696 116.83926 
C 108.397302 117.730866 109.606749 118.231835 110.867671 118.231835 
z
" clip-path="url(#pde6412d009)" style="fill: #bd3786; stroke: #000000; stroke-width: 0.55"/>
    <path d="M 93.886287 85.064064 
C 95.147209 85.064064 96.356656 84.563094 97.248262 83.671488 
C 98.139868 82.779882 98.640837 81.570435 98.640837 80.309514 
C 98.640837 79.048592 98.139868 77.839145 97.248262 76.947539 
C 96.356656 76.055933 95.147209 75.554963 93.886287 75.554963 
C 92.625366 75.554963 91.415919 76.055933 90.524313 76.947539 
C 89.632706 77.839145 89.131737 79.048592 89.131737 80.309514 
C 89.131737 81.570435 89.632706 82.779882 90.524313 83.671488 
C 91.415919 84.563094 92.625366 85.064064 93.886287 85.064064 
z
" clip-path="url(#pde6412d009)" style="fill: #bd3786; stroke: #000000; stroke-width: 0.55"/>
    <path d="M 76.878213 121.15056 
C 78.139134 121.15056 79.348581 120.649591 80.240188 119.757985 
C 81.131794 118.866379 81.632763 117.656931 81.632763 116.39601 
C 81.632763 115.135089 81.131794 113.925641 80.240188 113.034035 
C 79.348581 112.142429 78.139134 111.64146 76.878213 111.64146 
C 75.617292 111.64146 74.407844 112.142429 73.516238 113.034035 
C 72.624632 113.925641 72.123663 115.135089 72.123663 116.39601 
C 72.123663 117.656931 72.624632 118.866379 73.516238 119.757985 
C 74.407844 120.649591 75.617292 121.15056 76.878213 121.15056 
z
" clip-path="url(#pde6412d009)" style="fill: #bd3786; stroke: #000000; stroke-width: 0.55"/>
    <path d="M 128.818933 32.35854 
C 130.079854 32.35854 131.289301 31.857571 132.180907 30.965965 
C 133.072513 30.074359 133.573483 28.864911 133.573483 27.60399 
C 133.573483 26.343069 133.072513 25.133621 132.180907 24.242015 
C 131.289301 23.350409 130.079854 22.84944 128.818933 22.84944 
C 127.558011 22.84944 126.348564 23.350409 125.456958 24.242015 
C 124.565352 25.133621 124.064383 26.343069 124.064383 27.60399 
C 124.064383 28.864911 124.565352 30.074359 125.456958 30.965965 
C 126.348564 31.857571 127.558011 32.35854 128.818933 32.35854 
z
" clip-path="url(#pde6412d009)" style="fill: #d8576b; stroke: #000000; stroke-width: 0.55"/>
    <path d="M 62.544433 92.225025 
C 64.348624 92.225025 66.079163 91.508212 67.354919 90.232456 
C 68.630675 88.956701 69.347488 87.226162 69.347488 85.42197 
C 69.347488 83.617779 68.630675 81.88724 67.354919 80.611484 
C 66.079163 79.335729 64.348624 78.618916 62.544433 78.618916 
C 60.740242 78.618916 59.009703 79.335729 57.733947 80.611484 
C 56.458191 81.88724 55.741379 83.617779 55.741379 85.42197 
C 55.741379 87.226162 56.458191 88.956701 57.733947 90.232456 
C 59.009703 91.508212 60.740242 92.225025 62.544433 92.225025 
z
" clip-path="url(#pde6412d009)" style="fill: #ed7953; stroke: #000000; stroke-width: 0.55"/>
    <path d="M 66.993851 71.482959 
C 68.254773 71.482959 69.46422 70.98199 70.355826 70.090384 
C 71.247432 69.198778 71.748401 67.989331 71.748401 66.728409 
C 71.748401 65.467488 71.247432 64.258041 70.355826 63.366435 
C 69.46422 62.474829 68.254773 61.973859 66.993851 61.973859 
C 65.73293 61.973859 64.523483 62.474829 63.631877 63.366435 
C 62.740271 64.258041 62.239301 65.467488 62.239301 66.728409 
C 62.239301 67.989331 62.740271 69.198778 63.631877 70.090384 
C 64.523483 70.98199 65.73293 71.482959 66.993851 71.482959 
z
" clip-path="url(#pde6412d009)" style="fill: #fdca26; stroke: #000000; stroke-width: 0.55"/>
   </g>
   <g id="text_1">
    <!-- 1 -->
    <g style="fill: #ffffff" transform="translate(22.731234 77.181932) scale(0.1 -0.1)">
     <defs>
      <path id="LMRoman17-Regular-31" d="M 2458 0 
L 2458 160 
L 2266 160 
C 1715 160 1702 230 1702 458 
L 1702 4058 
C 1702 4192 1696 4192 1606 4192 
C 1357 3916 979 3827 621 3827 
C 602 3827 570 3827 563 3808 
C 557 3795 557 3782 557 3648 
C 755 3648 1088 3686 1344 3839 
L 1344 461 
C 1344 236 1331 160 781 160 
L 589 160 
L 589 0 
L 1523 0 
L 2458 0 
z
" transform="scale(0.015625)"/>
     </defs>
     <use xlink:href="#LMRoman17-Regular-31" transform="scale(0.996264)"/>
    </g>
   </g>
   <g id="text_2">
    <!-- 2 -->
    <g style="fill: #ffffff" transform="translate(33.085724 70.07816) scale(0.1 -0.1)">
     <defs>
      <path id="LMRoman17-Regular-32" d="M 2669 989 
L 2554 989 
C 2490 536 2438 459 2413 420 
C 2381 369 1920 369 1830 369 
L 602 369 
L 1824 1597 
C 2214 1967 2669 2402 2669 3035 
C 2669 3790 2067 4224 1395 4224 
C 691 4224 262 3604 262 3030 
C 262 2780 448 2748 525 2748 
C 589 2748 781 2787 781 3010 
C 781 3207 614 3264 525 3264 
C 486 3264 448 3258 422 3245 
C 544 3790 915 4058 1306 4058 
C 1862 4058 2227 3617 2227 3035 
C 2227 2479 1901 2000 1536 1584 
L 262 146 
L 262 0 
L 2515 0 
L 2669 989 
z
" transform="scale(0.015625)"/>
     </defs>
     <use xlink:href="#LMRoman17-Regular-32" transform="scale(0.996264)"/>
    </g>
   </g>
   <g id="text_3">
    <!-- 3 -->
    <g style="fill: #ffffff" transform="translate(40.004649 88.354251) scale(0.1 -0.1)">
     <defs>
      <path id="LMRoman17-Regular-33" d="M 2720 1085 
C 2720 1707 2208 2157 1600 2227 
C 2086 2328 2554 2756 2554 3329 
C 2554 3820 2048 4179 1472 4179 
C 890 4179 378 3829 378 3329 
C 378 3110 544 3072 627 3072 
C 762 3072 877 3155 877 3321 
C 877 3486 762 3569 627 3569 
C 602 3569 570 3569 544 3557 
C 730 3959 1235 4032 1459 4032 
C 1683 4032 2106 3925 2106 3320 
C 2106 3143 2080 2828 1862 2550 
C 1670 2304 1453 2304 1242 2284 
C 1210 2284 1062 2269 1037 2269 
C 992 2263 966 2257 966 2208 
C 966 2163 973 2157 1101 2157 
L 1414 2157 
C 1984 2157 2234 1662 2234 1090 
C 2234 320 1824 25 1453 25 
C 1114 25 563 194 390 693 
C 422 680 454 680 486 680 
C 640 680 755 782 755 948 
C 755 1133 614 1216 486 1216 
C 378 1216 211 1165 211 926 
C 211 335 787 -128 1466 -128 
C 2176 -128 2720 430 2720 1085 
z
" transform="scale(0.015625)"/>
     </defs>
     <use xlink:href="#LMRoman17-Regular-33" transform="scale(0.996264)"/>
    </g>
   </g>
   <g id="text_4">
    <!-- 4 -->
    <g style="fill: #ffffff" transform="translate(40.074413 118.396466) scale(0.1 -0.1)">
     <defs>
      <path id="LMRoman17-Regular-34" d="M 2803 1114 
L 2803 1280 
L 2150 1280 
L 2150 4154 
C 2150 4288 2144 4288 2029 4288 
L 128 1280 
L 128 1114 
L 1779 1114 
L 1779 487 
C 1779 255 1766 192 1318 192 
L 1197 192 
L 1197 32 
C 1402 32 1747 32 1965 32 
C 2182 32 2528 32 2733 32 
L 2733 192 
L 2611 192 
C 2163 192 2150 255 2150 487 
L 2150 1114 
L 2803 1114 
z
M 1798 1280 
L 256 1280 
L 1798 3734 
L 1798 1280 
z
" transform="scale(0.015625)"/>
     </defs>
     <use xlink:href="#LMRoman17-Regular-34" transform="scale(0.996264)"/>
    </g>
   </g>
   <g id="text_5">
    <!-- 5 -->
    <g style="fill: #ffffff" transform="translate(12.690407 67.083309) scale(0.1 -0.1)">
     <defs>
      <path id="LMRoman17-Regular-35" d="M 2669 1264 
C 2669 2030 2170 2624 1549 2624 
C 1222 2624 947 2503 730 2274 
L 730 3692 
C 794 3666 1056 3584 1325 3584 
C 1920 3584 2246 3911 2432 4100 
C 2432 4157 2432 4192 2394 4192 
C 2394 4192 2374 4192 2323 4163 
C 2099 4058 1837 3973 1517 3973 
C 1325 3973 1037 3999 723 4139 
C 653 4171 634 4171 634 4171 
C 602 4171 595 4164 595 4037 
L 595 2203 
C 595 2089 595 2057 659 2057 
C 691 2057 704 2070 736 2114 
C 941 2401 1222 2522 1542 2522 
C 1766 2522 2246 2382 2246 1289 
C 2246 1085 2246 715 2054 421 
C 1894 159 1645 25 1370 25 
C 947 25 518 320 403 814 
C 429 807 480 795 506 795 
C 589 795 749 840 749 1038 
C 749 1210 627 1280 506 1280 
C 358 1280 262 1190 262 1011 
C 262 454 704 -128 1382 -128 
C 2042 -128 2669 440 2669 1264 
z
" transform="scale(0.015625)"/>
     </defs>
     <use xlink:href="#LMRoman17-Regular-35" transform="scale(0.996264)"/>
    </g>
   </g>
   <g id="text_6">
    <!-- 6 -->
    <g style="fill: #ffffff" transform="translate(43.407286 50.835263) scale(0.1 -0.1)">
     <defs>
      <path id="LMRoman17-Regular-36" d="M 2688 1283 
C 2688 2081 2170 2662 1517 2662 
C 1126 2662 838 2407 678 1960 
L 678 2176 
C 678 3690 1395 4032 1811 4032 
C 1946 4032 2272 4009 2400 3776 
C 2298 3776 2106 3776 2106 3553 
C 2106 3381 2246 3323 2336 3323 
C 2394 3323 2566 3348 2566 3560 
C 2566 3954 2246 4179 1805 4179 
C 1043 4179 243 3390 243 1984 
C 243 253 966 -128 1478 -128 
C 2099 -128 2688 427 2688 1283 
z
M 2253 1289 
C 2253 944 2253 690 2118 434 
C 1978 171 1773 25 1478 25 
C 691 25 691 1200 691 1436 
C 691 1896 909 2560 1504 2560 
C 1613 2560 1926 2560 2138 2120 
C 2253 1870 2253 1609 2253 1289 
z
" transform="scale(0.015625)"/>
     </defs>
     <use xlink:href="#LMRoman17-Regular-36" transform="scale(0.996264)"/>
    </g>
   </g>
   <g id="text_7">
    <!-- 7 -->
    <g style="fill: #ffffff" transform="translate(108.377011 115.94021) scale(0.1 -0.1)">
     <defs>
      <path id="LMRoman17-Regular-37" d="M 2886 3941 
L 2886 4081 
L 1382 4081 
C 634 4081 621 4165 595 4288 
L 480 4288 
L 294 3094 
L 410 3094 
C 429 3215 474 3540 550 3661 
C 589 3712 1062 3712 1171 3712 
L 2579 3712 
L 1869 2661 
C 1395 1954 1069 999 1069 165 
C 1069 89 1069 -128 1299 -128 
C 1530 -128 1530 89 1530 171 
L 1530 465 
C 1530 1508 1709 2196 2003 2636 
L 2886 3941 
z
" transform="scale(0.015625)"/>
     </defs>
     <use xlink:href="#LMRoman17-Regular-37" transform="scale(0.996264)"/>
    </g>
   </g>
   <g id="text_8">
    <!-- 8 -->
    <g style="fill: #ffffff" transform="translate(91.395627 82.772438) scale(0.1 -0.1)">
     <defs>
      <path id="LMRoman17-Regular-38" d="M 2720 1011 
C 2720 1590 2330 1858 2074 2029 
C 1984 2092 1933 2124 1741 2264 
C 2144 2468 2554 2773 2554 3263 
C 2554 3842 1990 4179 1472 4179 
C 890 4179 378 3759 378 3180 
C 378 3021 416 2747 666 2505 
C 730 2442 998 2251 1171 2130 
C 883 1983 211 1634 211 934 
C 211 279 838 -128 1459 -128 
C 2144 -128 2720 362 2720 1011 
z
M 2336 3262 
C 2336 2669 1670 2331 1638 2331 
C 1638 2331 1626 2331 1574 2370 
L 902 2822 
C 851 2854 595 3051 595 3351 
C 595 3739 998 4032 1459 4032 
C 1965 4032 2336 3676 2336 3262 
z
M 2483 851 
C 2483 381 2010 25 1472 25 
C 890 25 448 438 448 940 
C 448 1443 838 1862 1280 2060 
L 2080 1519 
C 2176 1449 2483 1240 2483 851 
z
" transform="scale(0.015625)"/>
     </defs>
     <use xlink:href="#LMRoman17-Regular-38" transform="scale(0.996264)"/>
    </g>
   </g>
   <g id="text_9">
    <!-- 9 -->
    <g style="fill: #ffffff" transform="translate(74.387553 118.858934) scale(0.1 -0.1)">
     <defs>
      <path id="LMRoman17-Regular-39" d="M 2688 2073 
C 2688 3817 1971 4179 1485 4179 
C 851 4179 243 3628 243 2778 
C 243 1991 762 1408 1414 1408 
C 1952 1408 2189 1903 2253 2112 
L 2253 1864 
C 2253 464 1670 31 1190 31 
C 1043 31 685 31 538 294 
C 704 268 826 357 826 518 
C 826 692 685 749 595 749 
C 538 749 365 723 365 506 
C 365 71 742 -128 1203 -128 
C 1939 -128 2688 674 2688 2073 
z
M 2240 2632 
C 2240 2182 2035 1510 1427 1510 
C 1254 1510 1011 1542 813 1922 
C 678 2169 678 2461 678 2771 
C 678 3146 678 3405 858 3684 
C 947 3817 1114 4032 1485 4032 
C 2240 4032 2240 2885 2240 2632 
z
" transform="scale(0.015625)"/>
     </defs>
     <use xlink:href="#LMRoman17-Regular-39" transform="scale(0.996264)"/>
    </g>
   </g>
   <g id="text_10">
    <!-- 10 -->
    <g style="fill: #ffffff" transform="translate(123.837613 30.066914) scale(0.1 -0.1)">
     <defs>
      <path id="LMRoman17-Regular-30" d="M 2688 2025 
C 2688 2416 2682 3080 2413 3591 
C 2176 4039 1798 4198 1466 4198 
C 1158 4198 768 4058 525 3597 
C 269 3118 243 2524 243 2025 
C 243 1661 250 1106 448 619 
C 723 -39 1216 -128 1466 -128 
C 1760 -128 2208 -7 2470 600 
C 2662 1042 2688 1559 2688 2025 
z
M 2278 2096 
C 2278 1680 2278 1169 2202 792 
C 2067 95 1690 -26 1466 -26 
C 1056 -26 813 325 723 812 
C 653 1188 653 1738 653 2096 
C 653 2588 653 2997 736 3387 
C 858 3929 1216 4096 1466 4096 
C 1728 4096 2067 3923 2189 3400 
C 2272 3036 2278 2607 2278 2096 
z
" transform="scale(0.015625)"/>
     </defs>
     <use xlink:href="#LMRoman17-Regular-31" transform="scale(0.996264)"/>
     <use xlink:href="#LMRoman17-Regular-30" transform="translate(45.690948 0) scale(0.996264)"/>
    </g>
   </g>
   <g id="text_11">
    <!-- 11 -->
    <g transform="translate(57.563113 87.884895) scale(0.1 -0.1)">
     <use xlink:href="#LMRoman17-Regular-31" transform="scale(0.996264)"/>
     <use xlink:href="#LMRoman17-Regular-31" transform="translate(45.690948 0) scale(0.996264)"/>
    </g>
   </g>
   <g id="text_12">
    <!-- 12 -->
    <g transform="translate(62.012531 69.191334) scale(0.1 -0.1)">
     <use xlink:href="#LMRoman17-Regular-31" transform="scale(0.996264)"/>
     <use xlink:href="#LMRoman17-Regular-32" transform="translate(45.690948 0) scale(0.996264)"/>
    </g>
   </g>
  </g>
 </g>
 <defs>
  <clipPath id="pde6412d009">
   <rect x="7.2" y="7.2" width="129.6" height="129.6"/>
  </clipPath>
 </defs>
</svg>
