<?xml version="1.0" encoding="utf-8" standalone="no"?>
<!DOCTYPE svg PUBLIC "-//W3C//DTD SVG 1.1//EN"
  "http://www.w3.org/Graphics/SVG/1.1/DTD/svg11.dtd">
<svg xmlns:xlink="http://www.w3.org/1999/xlink" width="144pt" height="144pt" viewBox="0 0 144 144" xmlns="http://www.w3.org/2000/svg" version="1.1">
 <metadata>
  <rdf:RDF xmlns:dc="http://purl.org/dc/elements/1.1/" xmlns:cc="http://creativecommons.org/ns#" xmlns:rdf="http://www.w3.org/1999/02/22-rdf-syntax-ns#">
   <cc:Work>
    <dc:type rdf:resource="http://purl.org/dc/dcmitype/StillImage"/>
    <dc:date>2023-03-09T16:43:51.819933</dc:date>
    <dc:format>image/svg+xml</dc:format>
    <dc:creator>
     <cc:Agent>
      <dc:title>Matplotlib v3.6.0, https://matplotlib.org/</dc:title>
     </cc:Agent>
    </dc:creator>
   </cc:Work>
  </rdf:RDF>
 </metadata>
 <defs>
  <style type="text/css">*{stroke-linejoin: round; stroke-linecap: butt}</style>
 </defs>
 <g id="figure_1">
  <g id="patch_1">
   <path d="M 0 144 
L 144 144 
L 144 0 
L 0 0 
L 0 144 
z
" style="fill: none"/>
  </g>
  <g id="axes_1">
   <g id="LineCollection_1">
    <path d="M 33.486794 98.462345 
L 33.253502 97.667212 
L 33.109896 96.795969 
L 33.051427 95.860344 
L 33.073548 94.872065 
L 33.171714 93.84286 
L 33.341376 92.784455 
L 33.577988 91.708579 
L 33.877003 90.626959 
L 34.233873 89.551323 
L 34.644052 88.493399 
L 35.102992 87.464913 
L 35.606148 86.477593 
L 36.14897 85.543167 
L 36.726914 84.673363 
L 37.335431 83.879908 
L 37.969974 83.17453 
L 38.625997 82.568956 
L 39.298952 82.074914 
L 39.984293 81.704132 
" clip-path="url(#p24e8f4ad54)" style="fill: none; stroke: #000000; stroke-width: 12.95052"/>
    <path d="M 26.785287 85.666382 
L 27.369126 85.89267 
L 27.953859 86.219389 
L 28.534797 86.637584 
L 29.10725 87.1383 
L 29.666528 87.712582 
L 30.207942 88.351476 
L 30.726801 89.046027 
L 31.218416 89.78728 
L 31.678098 90.56628 
L 32.101155 91.374073 
L 32.4829 92.201704 
L 32.81864 93.040218 
L 33.103688 93.880661 
L 33.333353 94.714077 
L 33.502946 95.531512 
L 33.607776 96.324011 
L 33.643154 97.082619 
L 33.60439 97.798382 
L 33.486794 98.462345 
" clip-path="url(#p24e8f4ad54)" style="fill: none; stroke: #000000; stroke-width: 4.097046"/>
    <path d="M 22.279069 120.215443 
L 22.072728 119.092743 
L 21.9993 117.881312 
L 22.050944 116.596374 
L 22.219816 115.253152 
L 22.498072 113.866868 
L 22.877869 112.452745 
L 23.351365 111.026008 
L 23.910715 109.601878 
L 24.548076 108.195578 
L 25.255606 106.822333 
L 26.02546 105.497364 
L 26.849796 104.235895 
L 27.72077 103.053149 
L 28.630539 101.964349 
L 29.57126 100.984718 
L 30.535089 100.129479 
L 31.514183 99.413856 
L 32.500699 98.85307 
L 33.486794 98.462345 
" clip-path="url(#p24e8f4ad54)" style="fill: none; stroke: #000000; stroke-width: 1.345804"/>
    <path d="M 33.486794 98.462345 
L 34.229125 99.089488 
L 34.929224 99.861653 
L 35.584222 100.763531 
L 36.191248 101.779811 
L 36.747432 102.895182 
L 37.249904 104.094333 
L 37.695793 105.361953 
L 38.082229 106.682732 
L 38.406342 108.041359 
L 38.665262 109.422522 
L 38.856118 110.810911 
L 38.976041 112.191216 
L 39.02216 113.548125 
L 38.991604 114.866327 
L 38.881504 116.130512 
L 38.688989 117.32537 
L 38.411189 118.435588 
L 38.045234 119.445857 
L 37.588253 120.340865 
" clip-path="url(#p24e8f4ad54)" style="fill: none; stroke: #000000; stroke-width: 1.480437"/>
    <path d="M 33.486794 98.462345 
L 33.231852 94.174917 
L 33.511705 89.629784 
L 34.290238 84.879296 
L 35.531332 79.9758 
L 37.198872 74.971645 
L 39.256741 69.919178 
L 41.668822 64.870748 
L 44.398999 59.878702 
L 47.411156 54.995389 
L 50.669174 50.273157 
L 54.136939 45.764354 
L 57.778333 41.521328 
L 61.55724 37.596426 
L 65.437543 34.041998 
L 69.383125 30.910391 
L 73.35787 28.253953 
L 77.325662 26.125032 
L 81.250383 24.575977 
L 85.095918 23.659135 
" clip-path="url(#p24e8f4ad54)" style="fill: none; stroke: #000000; stroke-width: 0.176317"/>
    <path d="M 33.486794 98.462345 
L 34.683715 94.570629 
L 36.438995 90.662429 
L 38.703334 86.769755 
L 41.42743 82.92462 
L 44.561984 79.159034 
L 48.057695 75.505008 
L 51.865261 71.994554 
L 55.935383 68.659682 
L 60.21876 65.532405 
L 64.66609 62.644732 
L 69.228074 60.028676 
L 73.85541 57.716246 
L 78.498798 55.739456 
L 83.108938 54.130314 
L 87.636528 52.920834 
L 92.032268 52.143026 
L 96.246858 51.8289 
L 100.230996 52.010469 
L 103.935382 52.719743 
" clip-path="url(#p24e8f4ad54)" style="fill: none; stroke: #000000; stroke-width: 0.182682"/>
    <path d="M 33.486794 98.462345 
L 35.478497 94.236267 
L 38.111859 90.097623 
L 41.325341 86.073663 
L 45.057405 82.191638 
L 49.246514 78.478797 
L 53.831129 74.962389 
L 58.749711 71.669666 
L 63.940723 68.627877 
L 69.342626 65.864272 
L 74.893883 63.4061 
L 80.532955 61.280612 
L 86.198304 59.515058 
L 91.828391 58.136688 
L 97.361679 57.172751 
L 102.736629 56.650498 
L 107.891703 56.597178 
L 112.765364 57.040042 
L 117.296072 58.006339 
L 121.42229 59.523319 
" clip-path="url(#p24e8f4ad54)" style="fill: none; stroke: #000000; stroke-width: 0.149581"/>
    <path d="M 33.486794 98.462345 
L 35.669104 99.90647 
L 38.147349 101.092113 
L 40.883135 102.026263 
L 43.838068 102.715911 
L 46.973752 103.168047 
L 50.251793 103.389661 
L 53.633796 103.387743 
L 57.081367 103.169284 
L 60.55611 102.741273 
L 64.019631 102.110701 
L 67.433536 101.284558 
L 70.759429 100.269835 
L 73.958917 99.07352 
L 76.993603 97.702606 
L 79.825095 96.164081 
L 82.414996 94.464935 
L 84.724912 92.61216 
L 86.716449 90.612745 
L 88.351212 88.47368 
" clip-path="url(#p24e8f4ad54)" style="fill: none; stroke: #000000; stroke-width: 0.219436"/>
    <path d="M 33.486794 98.462345 
L 35.614141 96.286869 
L 38.128064 94.32417 
L 40.98414 92.576311 
L 44.137945 91.045357 
L 47.545058 89.733371 
L 51.161054 88.642418 
L 54.941512 87.774561 
L 58.842009 87.131864 
L 62.818122 86.716392 
L 66.825427 86.530208 
L 70.819503 86.575375 
L 74.755927 86.853959 
L 78.590275 87.368023 
L 82.278125 88.119631 
L 85.775054 89.110846 
L 89.03664 90.343734 
L 92.018459 91.820357 
L 94.676089 93.542779 
L 96.965106 95.513066 
" clip-path="url(#p24e8f4ad54)" style="fill: none; stroke: #000000; stroke-width: 0.150673"/>
    <path d="M 33.486794 98.462345 
L 35.942434 96.672296 
L 38.752165 95.164676 
L 41.871277 93.933531 
L 45.255065 92.972901 
L 48.85882 92.276831 
L 52.637835 91.839364 
L 56.547403 91.654542 
L 60.542817 91.716408 
L 64.579368 92.019006 
L 68.612349 92.556378 
L 72.597054 93.322567 
L 76.488774 94.311617 
L 80.242803 95.51757 
L 83.814432 96.934469 
L 87.158955 98.556358 
L 90.231663 100.377279 
L 92.98785 102.391275 
L 95.382809 104.59239 
L 97.371831 106.974665 
" clip-path="url(#p24e8f4ad54)" style="fill: none; stroke: #000000; stroke-width: 0.107009"/>
    <path d="M 26.785287 85.666382 
L 27.353032 85.959562 
L 27.987224 86.181283 
L 28.678625 86.334318 
L 29.417998 86.421439 
L 30.196107 86.445419 
L 31.003716 86.409031 
L 31.831586 86.315048 
L 32.670482 86.166242 
L 33.511167 85.965387 
L 34.344404 85.715255 
L 35.160955 85.41862 
L 35.951585 85.078253 
L 36.707056 84.696928 
L 37.418132 84.277417 
L 38.075576 83.822494 
L 38.670151 83.334931 
L 39.19262 82.817501 
L 39.633746 82.272977 
L 39.984293 81.704132 
" clip-path="url(#p24e8f4ad54)" style="fill: none; stroke: #000000; stroke-width: 1.579323"/>
    <path d="M 22.279069 120.215443 
L 21.839436 118.297609 
L 21.622402 116.214936 
L 21.615577 113.994373 
L 21.80657 111.662872 
L 22.182992 109.247382 
L 22.732452 106.774855 
L 23.442559 104.272242 
L 24.300924 101.766492 
L 25.295155 99.284556 
L 26.412864 96.853386 
L 27.641658 94.499931 
L 28.969149 92.251143 
L 30.382946 90.133971 
L 31.870659 88.175367 
L 33.419896 86.402281 
L 35.018269 84.841664 
L 36.653386 83.520467 
L 38.312858 82.465639 
L 39.984293 81.704132 
" clip-path="url(#p24e8f4ad54)" style="fill: none; stroke: #000000; stroke-width: 0.295869"/>
    <path d="M 37.588253 120.340865 
L 36.612631 118.918589 
L 35.768924 117.27518 
L 35.055458 115.437677 
L 34.470553 113.433119 
L 34.012535 111.288542 
L 33.679725 109.030987 
L 33.470448 106.687491 
L 33.383027 104.285092 
L 33.415784 101.850829 
L 33.567043 99.411741 
L 33.835127 96.994866 
L 34.218359 94.627242 
L 34.715064 92.335907 
L 35.323563 90.147901 
L 36.04218 88.090261 
L 36.869238 86.190025 
L 37.803061 84.474233 
L 38.841972 82.969923 
L 39.984293 81.704132 
" clip-path="url(#p24e8f4ad54)" style="fill: none; stroke: #000000; stroke-width: 0.295501"/>
    <path d="M 39.984293 81.704132 
L 43.003339 82.784189 
L 46.314521 83.459799 
L 49.873088 83.751248 
L 53.634285 83.678818 
L 57.553358 83.262792 
L 61.585555 82.523455 
L 65.68612 81.48109 
L 69.810301 80.15598 
L 73.913344 78.56841 
L 77.950496 76.738662 
L 81.877002 74.68702 
L 85.648109 72.433769 
L 89.219064 69.99919 
L 92.545112 67.403569 
L 95.5815 64.667188 
L 98.283475 61.810332 
L 100.606283 58.853283 
L 102.50517 55.816326 
L 103.935382 52.719743 
" clip-path="url(#p24e8f4ad54)" style="fill: none; stroke: #000000; stroke-width: 0.117469"/>
    <path d="M 39.984293 81.704132 
L 42.209288 78.273187 
L 44.986256 75.005786 
L 48.258207 71.917451 
L 51.96815 69.023705 
L 56.059093 66.340069 
L 60.474046 63.882066 
L 65.156016 61.665219 
L 70.048014 59.705049 
L 75.093047 58.01708 
L 80.234125 56.616833 
L 85.414256 55.519832 
L 90.576449 54.741597 
L 95.663714 54.297652 
L 100.619058 54.203519 
L 105.385492 54.474721 
L 109.906023 55.12678 
L 114.12366 56.175217 
L 117.981413 57.635556 
L 121.42229 59.523319 
" clip-path="url(#p24e8f4ad54)" style="fill: none; stroke: #000000; stroke-width: 0.107636"/>
    <path d="M 39.984293 81.704132 
L 41.481262 83.519039 
L 43.286552 85.198724 
L 45.366316 86.738448 
L 47.686705 88.133474 
L 50.213872 89.379065 
L 52.91397 90.470483 
L 55.75315 91.40299 
L 58.697565 92.171851 
L 61.713368 92.772326 
L 64.76671 93.199679 
L 67.823745 93.449173 
L 70.850624 93.516069 
L 73.813499 93.39563 
L 76.678523 93.08312 
L 79.411849 92.5738 
L 81.979629 91.862934 
L 84.348014 90.945783 
L 86.483157 89.817611 
L 88.351212 88.47368 
" clip-path="url(#p24e8f4ad54)" style="fill: none; stroke: #000000; stroke-width: 0.152351"/>
    <path d="M 39.984293 81.704132 
L 41.58797 84.045201 
L 43.572645 86.261665 
L 45.898441 88.343862 
L 48.525483 90.282128 
L 51.413895 92.066798 
L 54.523802 93.68821 
L 57.815327 95.136699 
L 61.248595 96.402603 
L 64.783731 97.476257 
L 68.380858 98.347997 
L 72.0001 99.008161 
L 75.601582 99.447084 
L 79.145428 99.655103 
L 82.591762 99.622554 
L 85.900709 99.339774 
L 89.032393 98.797098 
L 91.946937 97.984864 
L 94.604467 96.893408 
L 96.965106 95.513066 
" clip-path="url(#p24e8f4ad54)" style="fill: none; stroke: #000000; stroke-width: 0.116204"/>
    <path d="M 39.984293 81.704132 
L 41.287974 84.45719 
L 43.009977 87.152347 
L 45.110141 89.771917 
L 47.548306 92.298216 
L 50.284312 94.71356 
L 53.277998 97.000263 
L 56.489204 99.140641 
L 59.877769 101.117011 
L 63.403533 102.911686 
L 67.026336 104.506983 
L 70.706017 105.885217 
L 74.402415 107.028703 
L 78.075371 107.919757 
L 81.684724 108.540694 
L 85.190314 108.873829 
L 88.55198 108.901479 
L 91.729561 108.605958 
L 94.682898 107.969581 
L 97.371831 106.974665 
" clip-path="url(#p24e8f4ad54)" style="fill: none; stroke: #000000; stroke-width: 0.109853"/>
    <path d="M 22.279069 120.215443 
L 21.488889 118.866455 
L 20.830729 117.328305 
L 20.301435 115.625172 
L 19.897853 113.781234 
L 19.616831 111.820668 
L 19.455215 109.767651 
L 19.409851 107.646363 
L 19.477586 105.48098 
L 19.655266 103.29568 
L 19.939738 101.114641 
L 20.327848 98.962042 
L 20.816443 96.862059 
L 21.402369 94.83887 
L 22.082473 92.916654 
L 22.853601 91.119589 
L 23.7126 89.47185 
L 24.656317 87.997618 
L 25.681597 86.721069 
L 26.785287 85.666382 
" clip-path="url(#p24e8f4ad54)" style="fill: none; stroke: #000000; stroke-width: 0.211687"/>
    <path d="M 26.785287 85.666382 
L 28.111457 86.519812 
L 29.396289 87.618697 
L 30.632225 88.93877 
L 31.811704 90.455766 
L 32.927166 92.145419 
L 33.971052 93.983464 
L 34.9358 95.945635 
L 35.813852 98.007667 
L 36.597646 100.145294 
L 37.279624 102.33425 
L 37.852224 104.55027 
L 38.307888 106.769089 
L 38.639054 108.96644 
L 38.838164 111.118059 
L 38.897656 113.199679 
L 38.809971 115.187035 
L 38.567549 117.055862 
L 38.162829 118.781894 
L 37.588253 120.340865 
" clip-path="url(#p24e8f4ad54)" style="fill: none; stroke: #000000; stroke-width: 0.215021"/>
    <path d="M 26.785287 85.666382 
L 30.513226 85.413503 
L 34.399183 84.580211 
L 38.402353 83.209899 
L 42.481928 81.34596 
L 46.597103 79.031788 
L 50.707071 76.310775 
L 54.771025 73.226316 
L 58.74816 69.821804 
L 62.597669 66.140632 
L 66.278746 62.226193 
L 69.750583 58.12188 
L 72.972375 53.871088 
L 75.903316 49.517208 
L 78.502599 45.103635 
L 80.729417 40.673762 
L 82.542964 36.270982 
L 83.902434 31.938689 
L 84.767021 27.720276 
L 85.095918 23.659135 
" clip-path="url(#p24e8f4ad54)" style="fill: none; stroke: #000000; stroke-width: 0.119077"/>
    <path d="M 26.785287 85.666382 
L 28.566047 82.000954 
L 30.90606 78.419472 
L 33.751337 74.944994 
L 37.047887 71.600574 
L 40.741719 68.409271 
L 44.778843 65.394139 
L 49.105269 62.578235 
L 53.667006 59.984617 
L 58.410064 57.63634 
L 63.280452 55.55646 
L 68.224179 53.768034 
L 73.187257 52.294119 
L 78.115693 51.157771 
L 82.955497 50.382046 
L 87.65268 49.99 
L 92.15325 50.004691 
L 96.403218 50.449174 
L 100.348592 51.346506 
L 103.935382 52.719743 
" clip-path="url(#p24e8f4ad54)" style="fill: none; stroke: #000000; stroke-width: 0.113259"/>
    <path d="M 26.785287 85.666382 
L 29.360829 81.666592 
L 32.578924 77.854667 
L 36.373344 74.248902 
L 40.677861 70.867592 
L 45.426248 67.729033 
L 50.552277 64.85152 
L 55.989718 62.253348 
L 61.672346 59.952811 
L 67.53393 57.968206 
L 73.508245 56.317828 
L 79.529061 55.019971 
L 85.53015 54.092931 
L 91.445285 53.555003 
L 97.208238 53.424482 
L 102.752781 53.719664 
L 108.012685 54.458843 
L 112.921724 55.660315 
L 117.413668 57.342376 
L 121.42229 59.523319 
" clip-path="url(#p24e8f4ad54)" style="fill: none; stroke: #000000; stroke-width: 0.113489"/>
    <path d="M 26.785287 85.666382 
L 28.850001 87.77447 
L 31.289483 89.675875 
L 34.060647 91.368634 
L 37.12041 92.850781 
L 40.425686 94.120352 
L 43.933392 95.175382 
L 47.600443 96.013906 
L 51.383754 96.633961 
L 55.240242 97.033582 
L 59.126821 97.210803 
L 63.000407 97.16366 
L 66.817916 96.89019 
L 70.536262 96.388426 
L 74.112363 95.656405 
L 77.503132 94.692163 
L 80.665486 93.493733 
L 83.55634 92.059153 
L 86.13261 90.386457 
L 88.351212 88.47368 
" clip-path="url(#p24e8f4ad54)" style="fill: none; stroke: #000000; stroke-width: 0.110085"/>
    <path d="M 22.279069 120.215443 
L 22.815058 119.719885 
L 23.441731 119.28062 
L 24.148372 118.89756 
L 24.92427 118.570618 
L 25.75871 118.299705 
L 26.640979 118.084733 
L 27.560364 117.925616 
L 28.50615 117.822265 
L 29.467624 117.774592 
L 30.434074 117.782509 
L 31.394785 117.84593 
L 32.339043 117.964766 
L 33.256136 118.138929 
L 34.135349 118.368331 
L 34.96597 118.652885 
L 35.737284 118.992504 
L 36.438578 119.387098 
L 37.059139 119.836581 
L 37.588253 120.340865 
" clip-path="url(#p24e8f4ad54)" style="fill: none; stroke: #000000; stroke-width: 0.759869"/>
    <path d="M 22.279069 120.215443 
L 24.064431 114.866665 
L 26.624365 109.51659 
L 29.889491 104.207692 
L 33.790427 98.982444 
L 38.257792 93.883319 
L 43.222204 88.952789 
L 48.614282 84.233329 
L 54.364644 79.767409 
L 60.403909 75.597505 
L 66.662695 71.766087 
L 73.071621 68.315631 
L 79.561305 65.288608 
L 86.062367 62.727492 
L 92.505424 60.674755 
L 98.821095 59.172871 
L 104.939998 58.264312 
L 110.792753 57.991552 
L 116.309977 58.397063 
L 121.42229 59.523319 
" clip-path="url(#p24e8f4ad54)" style="fill: none; stroke: #000000; stroke-width: 0.11946"/>
    <path d="M 22.279069 120.215443 
L 23.70749 116.953678 
L 25.6256 113.742833 
L 27.98716 110.605119 
L 30.745933 107.562752 
L 33.85568 104.637943 
L 37.270164 101.852905 
L 40.943147 99.229853 
L 44.82839 96.791 
L 48.879657 94.558557 
L 53.050707 92.55474 
L 57.295305 90.801761 
L 61.567211 89.321833 
L 65.820188 88.137169 
L 70.007998 87.269983 
L 74.084403 86.742488 
L 78.003165 86.576897 
L 81.718046 86.795423 
L 85.182807 87.42028 
L 88.351212 88.47368 
" clip-path="url(#p24e8f4ad54)" style="fill: none; stroke: #000000; stroke-width: 0.127234"/>
    <path d="M 22.279069 120.215443 
L 24.200075 116.917267 
L 26.640571 113.743137 
L 29.54829 110.71034 
L 32.870967 107.836163 
L 36.556336 105.137894 
L 40.55213 102.632818 
L 44.806083 100.338223 
L 49.26593 98.271397 
L 53.879404 96.449625 
L 58.594239 94.890195 
L 63.358169 93.610394 
L 68.118929 92.627509 
L 72.824251 91.958827 
L 77.42187 91.621635 
L 81.85952 91.633219 
L 86.084935 92.010868 
L 90.045848 92.771867 
L 93.689994 93.933504 
L 96.965106 95.513066 
" clip-path="url(#p24e8f4ad54)" style="fill: none; stroke: #000000; stroke-width: 0.161037"/>
    <path d="M 37.588253 120.340865 
L 38.837625 115.487644 
L 40.770887 110.576835 
L 43.329372 105.650997 
L 46.45441 100.752691 
L 50.087335 95.924479 
L 54.169478 91.208921 
L 58.642171 86.648577 
L 63.446747 82.286009 
L 68.524537 78.163778 
L 73.816874 74.324443 
L 79.265089 70.810566 
L 84.810515 67.664707 
L 90.394484 64.929428 
L 95.958328 62.647289 
L 101.443378 60.86085 
L 106.790967 59.612673 
L 111.942428 58.945318 
L 116.839091 58.901347 
L 121.42229 59.523319 
" clip-path="url(#p24e8f4ad54)" style="fill: none; stroke: #000000; stroke-width: 0.13096"/>
    <path d="M 37.588253 120.340865 
L 40.227543 120.889982 
L 43.071744 121.065356 
L 46.08533 120.889287 
L 49.232778 120.384078 
L 52.478562 119.572029 
L 55.787159 118.47544 
L 59.123043 117.116613 
L 62.450691 115.51785 
L 65.734578 113.70145 
L 68.93918 111.689715 
L 72.028971 109.504945 
L 74.968428 107.169443 
L 77.722027 104.705508 
L 80.254242 102.135443 
L 82.529549 99.481547 
L 84.512424 96.766121 
L 86.167342 94.011468 
L 87.45878 91.239887 
L 88.351212 88.47368 
" clip-path="url(#p24e8f4ad54)" style="fill: none; stroke: #000000; stroke-width: 0.132903"/>
    <path d="M 37.588253 120.340865 
L 40.334251 121.416143 
L 43.357837 122.128297 
L 46.617456 122.494702 
L 50.071556 122.532732 
L 53.678586 122.259762 
L 57.396991 121.693167 
L 61.185221 120.850322 
L 65.001722 119.748602 
L 68.804941 118.40538 
L 72.553327 116.838032 
L 76.205326 115.063934 
L 79.719387 113.100458 
L 83.053956 110.964981 
L 86.167481 108.674877 
L 89.018409 106.24752 
L 91.565188 103.700286 
L 93.766266 101.050549 
L 95.58009 98.315684 
L 96.965106 95.513066 
" clip-path="url(#p24e8f4ad54)" style="fill: none; stroke: #000000; stroke-width: 0.209962"/>
    <path d="M 37.588253 120.340865 
L 39.301563 117.923673 
L 41.411193 115.643888 
L 43.875308 113.510864 
L 46.65207 111.533955 
L 49.699641 109.722514 
L 52.976185 108.085896 
L 56.439864 106.633453 
L 60.048841 105.374541 
L 63.761279 104.318512 
L 67.53534 103.474721 
L 71.329188 102.852521 
L 75.100986 102.461266 
L 78.808896 102.31031 
L 82.411081 102.409007 
L 85.865704 102.76671 
L 89.130927 103.392774 
L 92.164914 104.296552 
L 94.925828 105.487398 
L 97.371831 106.974665 
" clip-path="url(#p24e8f4ad54)" style="fill: none; stroke: #000000; stroke-width: 0.175288"/>
    <path d="M 85.095918 23.659135 
L 86.547781 24.054848 
L 88.023207 24.69178 
L 89.509014 25.549594 
L 90.992016 26.607955 
L 92.45903 27.846524 
L 93.896872 29.244965 
L 95.292357 30.782941 
L 96.632302 32.440115 
L 97.903522 34.196151 
L 99.092833 36.03071 
L 100.187052 37.923457 
L 101.172995 39.854054 
L 102.037476 41.802164 
L 102.767313 43.747452 
L 103.349321 45.669578 
L 103.770316 47.548208 
L 104.017114 49.363003 
L 104.076531 51.093627 
L 103.935382 52.719743 
" clip-path="url(#p24e8f4ad54)" style="fill: none; stroke: #000000; stroke-width: 0.229715"/>
    <path d="M 85.095918 23.659135 
L 87.342563 23.720486 
L 89.696071 24.126974 
L 92.131021 24.853503 
L 94.621991 25.874973 
L 97.14356 27.166287 
L 99.670305 28.702346 
L 102.176806 30.458053 
L 104.637641 32.40831 
L 107.027389 34.528017 
L 109.320627 36.792078 
L 111.491934 39.175393 
L 113.515888 41.652866 
L 115.367069 44.199397 
L 117.020054 46.789888 
L 118.449422 49.399242 
L 119.629751 52.00236 
L 120.535619 54.574144 
L 121.141606 57.089497 
L 121.42229 59.523319 
" clip-path="url(#p24e8f4ad54)" style="fill: none; stroke: #000000; stroke-width: 0.196832"/>
    <path d="M 85.095918 23.659135 
L 86.985622 25.807499 
L 88.697306 28.353217 
L 90.22869 31.25093 
L 91.577497 34.45528 
L 92.741448 37.92091 
L 93.718265 41.602462 
L 94.505672 45.454578 
L 95.101388 49.4319 
L 95.503136 53.48907 
L 95.708639 57.580731 
L 95.715618 61.661523 
L 95.521794 65.68609 
L 95.12489 69.609074 
L 94.522628 73.385116 
L 93.71273 76.968859 
L 92.692917 80.314945 
L 91.460912 83.378016 
L 90.014436 86.112713 
L 88.351212 88.47368 
" clip-path="url(#p24e8f4ad54)" style="fill: none; stroke: #000000; stroke-width: 0.116626"/>
    <path d="M 85.095918 23.659135 
L 83.539401 26.546263 
L 82.27231 29.817741 
L 81.286337 33.423285 
L 80.573177 37.31261 
L 80.124524 41.435433 
L 79.932071 45.741469 
L 79.987513 50.180434 
L 80.282542 54.702044 
L 80.808853 59.256015 
L 81.55814 63.792063 
L 82.522097 68.259904 
L 83.692416 72.609252 
L 85.060793 76.789826 
L 86.618921 80.751339 
L 88.358493 84.443509 
L 90.271204 87.81605 
L 92.348747 90.81868 
L 94.582817 93.401113 
L 96.965106 95.513066 
" clip-path="url(#p24e8f4ad54)" style="fill: none; stroke: #000000; stroke-width: 0.110734"/>
    <path d="M 103.935382 52.719743 
L 104.357214 53.527449 
L 104.903784 54.312177 
L 105.562855 55.069166 
L 106.322189 55.793655 
L 107.169549 56.480882 
L 108.092697 57.126087 
L 109.079396 57.724507 
L 110.117408 58.271382 
L 111.194496 58.761951 
L 112.298423 59.191452 
L 113.41695 59.555124 
L 114.53784 59.848207 
L 115.648856 60.065938 
L 116.73776 60.203556 
L 117.792315 60.256301 
L 118.800283 60.219411 
L 119.749426 60.088125 
L 120.627508 59.857681 
L 121.42229 59.523319 
" clip-path="url(#p24e8f4ad54)" style="fill: none; stroke: #000000; stroke-width: 0.603995"/>
    <path d="M 88.351212 88.47368 
L 89.873288 87.738829 
L 91.379181 86.734756 
L 92.857984 85.48648 
L 94.298792 84.019024 
L 95.690698 82.357408 
L 97.022797 80.526653 
L 98.284182 78.55178 
L 99.463948 76.45781 
L 100.551188 74.269764 
L 101.534997 72.012663 
L 102.404469 69.711528 
L 103.148697 67.39138 
L 103.756776 65.07724 
L 104.2178 62.794129 
L 104.520863 60.567068 
L 104.655058 58.421078 
L 104.609481 56.38118 
L 104.373224 54.472395 
L 103.935382 52.719743 
" clip-path="url(#p24e8f4ad54)" style="fill: none; stroke: #000000; stroke-width: 0.233984"/>
    <path d="M 96.965106 95.513066 
L 96.03468 93.796825 
L 95.276037 91.851324 
L 94.6843 89.70651 
L 94.254591 87.392328 
L 93.982033 84.938728 
L 93.861747 82.375656 
L 93.888855 79.733058 
L 94.05848 77.040884 
L 94.365744 74.329078 
L 94.805769 71.62759 
L 95.373677 68.966366 
L 96.06459 66.375353 
L 96.87363 63.884498 
L 97.795919 61.523749 
L 98.82658 59.323053 
L 99.960735 57.312358 
L 101.193506 55.521609 
L 102.520014 53.980755 
L 103.935382 52.719743 
" clip-path="url(#p24e8f4ad54)" style="fill: none; stroke: #000000; stroke-width: 0.135077"/>
    <path d="M 88.351212 88.47368 
L 88.708152 86.386667 
L 89.349977 84.247438 
L 90.253543 82.076253 
L 91.395706 79.893373 
L 92.753324 77.719057 
L 94.303252 75.573564 
L 96.022347 73.477156 
L 97.887465 71.45009 
L 99.875464 69.512627 
L 101.963199 67.685028 
L 104.127528 65.987551 
L 106.345306 64.440456 
L 108.59339 63.064003 
L 110.848637 61.878452 
L 113.087903 60.904063 
L 115.288045 60.161096 
L 117.425919 59.669809 
L 119.478382 59.450464 
L 121.42229 59.523319 
" clip-path="url(#p24e8f4ad54)" style="fill: none; stroke: #000000; stroke-width: 0.28564"/>
    <path d="M 96.965106 95.513066 
L 96.829462 93.462463 
L 96.9489 91.286519 
L 97.306307 89.010418 
L 97.884566 86.659347 
L 98.666563 84.258491 
L 99.635181 81.833037 
L 100.773305 79.408171 
L 102.06382 77.009078 
L 103.489611 74.660945 
L 105.033562 72.388958 
L 106.678558 70.218303 
L 108.407483 68.174165 
L 110.203222 66.28173 
L 112.04866 64.566186 
L 113.926681 63.052717 
L 115.82017 61.76651 
L 117.712011 60.732751 
L 119.58509 59.976625 
L 121.42229 59.523319 
" clip-path="url(#p24e8f4ad54)" style="fill: none; stroke: #000000; stroke-width: 0.380358"/>
    <path d="M 121.42229 59.523319 
L 119.935449 61.433334 
L 118.616744 63.667207 
L 117.465965 66.186708 
L 116.482903 68.953609 
L 115.66735 71.929682 
L 115.019095 75.076698 
L 114.537931 78.35643 
L 114.223648 81.730649 
L 114.076038 85.161127 
L 114.094891 88.609635 
L 114.279998 92.037946 
L 114.63115 95.407831 
L 115.148139 98.681061 
L 115.830755 101.819409 
L 116.67879 104.784646 
L 117.692033 107.538544 
L 118.870278 110.042875 
L 120.213313 112.259411 
L 121.720931 114.149922 
" clip-path="url(#p24e8f4ad54)" style="fill: none; stroke: #000000; stroke-width: 0.152443"/>
    <path d="M 97.371831 106.974665 
L 96.907893 104.538637 
L 96.731524 101.907612 
L 96.825894 99.114798 
L 97.174171 96.193402 
L 97.759524 93.17663 
L 98.565124 90.097691 
L 99.574138 86.98979 
L 100.769737 83.886134 
L 102.135089 80.819931 
L 103.653364 77.824388 
L 105.307731 74.93271 
L 107.08136 72.178107 
L 108.957419 69.593783 
L 110.919077 67.212947 
L 112.949505 65.068805 
L 115.031871 63.194565 
L 117.149344 61.623432 
L 119.285094 60.388614 
L 121.42229 59.523319 
" clip-path="url(#p24e8f4ad54)" style="fill: none; stroke: #000000; stroke-width: 0.12511"/>
    <path d="M 88.351212 88.47368 
L 88.45792 88.999842 
L 88.637304 89.536622 
L 88.883337 90.079095 
L 89.18999 90.622334 
L 89.551235 91.161414 
L 89.961044 91.691408 
L 90.413389 92.207389 
L 90.902242 92.704432 
L 91.421575 93.177611 
L 91.965359 93.621998 
L 92.527567 94.032669 
L 93.10217 94.404696 
L 93.683141 94.733153 
L 94.264451 95.013114 
L 94.840072 95.239654 
L 95.403976 95.407845 
L 95.950135 95.512761 
L 96.472521 95.549477 
L 96.965106 95.513066 
" clip-path="url(#p24e8f4ad54)" style="fill: none; stroke: #000000; stroke-width: 4.577906"/>
    <path d="M 88.351212 88.47368 
L 90.21577 88.277178 
L 92.20063 88.354484 
L 94.28244 88.687631 
L 96.437847 89.258649 
L 98.643499 90.04957 
L 100.876043 91.042425 
L 103.112127 92.219247 
L 105.328398 93.562066 
L 107.501504 95.052914 
L 109.608092 96.673823 
L 111.62481 98.406824 
L 113.528305 100.233948 
L 115.295226 102.137227 
L 116.902218 104.098693 
L 118.325931 106.100377 
L 119.543011 108.12431 
L 120.530106 110.152524 
L 121.263863 112.167051 
L 121.720931 114.149922 
" clip-path="url(#p24e8f4ad54)" style="fill: none; stroke: #000000; stroke-width: 0.317263"/>
    <path d="M 88.351212 88.47368 
L 89.17209 88.822695 
L 89.990283 89.314491 
L 90.799479 89.936121 
L 91.593366 90.674637 
L 92.36563 91.517092 
L 93.109958 92.450539 
L 93.820039 93.462031 
L 94.489559 94.538621 
L 95.112205 95.667362 
L 95.681666 96.835305 
L 96.191627 98.029505 
L 96.635777 99.237014 
L 97.007802 100.444885 
L 97.30139 101.64017 
L 97.510229 102.809923 
L 97.628005 103.941196 
L 97.648406 105.021043 
L 97.565118 106.036515 
L 97.371831 106.974665 
" clip-path="url(#p24e8f4ad54)" style="fill: none; stroke: #000000; stroke-width: 0.717986"/>
    <path d="M 96.965106 95.513066 
L 97.315466 96.969775 
L 97.869839 98.447522 
L 98.610901 99.933263 
L 99.521328 101.413957 
L 100.583796 102.876561 
L 101.780979 104.308033 
L 103.095554 105.695331 
L 104.510197 107.025412 
L 106.007582 108.285234 
L 107.570386 109.461755 
L 109.181284 110.541933 
L 110.822952 111.512725 
L 112.478065 112.36109 
L 114.129299 113.073984 
L 115.75933 113.638365 
L 117.350833 114.041192 
L 118.886483 114.269422 
L 120.348958 114.310013 
L 121.720931 114.149922 
" clip-path="url(#p24e8f4ad54)" style="fill: none; stroke: #000000; stroke-width: 0.444053"/>
    <path d="M 96.965106 95.513066 
L 96.66511 95.925055 
L 96.402439 96.403747 
L 96.176807 96.94112 
L 95.98793 97.529154 
L 95.835523 98.159827 
L 95.719303 98.825118 
L 95.638983 99.517008 
L 95.59428 100.227474 
L 95.584908 100.948495 
L 95.610584 101.672051 
L 95.671023 102.390121 
L 95.76594 103.094684 
L 95.89505 103.777719 
L 96.058068 104.431205 
L 96.254711 105.047121 
L 96.484693 105.617446 
L 96.74773 106.134159 
L 97.043538 106.589239 
L 97.371831 106.974665 
" clip-path="url(#p24e8f4ad54)" style="fill: none; stroke: #000000; stroke-width: 2.43319"/>
    <path d="M 97.371831 106.974665 
L 98.022186 108.019385 
L 98.839231 109.01844 
L 99.805925 109.966808 
L 100.905229 110.859469 
L 102.120103 111.6914 
L 103.433507 112.45758 
L 104.828402 113.152989 
L 106.287748 113.772604 
L 107.794504 114.311405 
L 109.331632 114.764369 
L 110.882092 115.126477 
L 112.428843 115.392706 
L 113.954846 115.558036 
L 115.443061 115.617444 
L 116.876449 115.56591 
L 118.23797 115.398412 
L 119.510584 115.109929 
L 120.67725 114.695439 
L 121.720931 114.149922 
" clip-path="url(#p24e8f4ad54)" style="fill: none; stroke: #000000; stroke-width: 0.157921"/>
   </g>
   <g id="PathCollection_1">
    <path d="M 33.486794 107.290913 
C 35.828157 107.290913 38.07394 106.360679 39.729534 104.705085 
C 41.385128 103.049491 42.315361 100.803709 42.315361 98.462345 
C 42.315361 96.120982 41.385128 93.875199 39.729534 92.219605 
C 38.07394 90.564011 35.828157 89.633778 33.486794 89.633778 
C 31.14543 89.633778 28.899648 90.564011 27.244054 92.219605 
C 25.58846 93.875199 24.658226 96.120982 24.658226 98.462345 
C 24.658226 100.803709 25.58846 103.049491 27.244054 104.705085 
C 28.899648 106.360679 31.14543 107.290913 33.486794 107.290913 
z
" clip-path="url(#p24e8f4ad54)" style="fill: #46039f; stroke: #000000; stroke-width: 0.55"/>
    <path d="M 39.984293 88.257603 
C 41.722294 88.257603 43.389345 87.567088 44.618298 86.338136 
C 45.84725 85.109184 46.537765 83.442133 46.537765 81.704132 
C 46.537765 79.966131 45.84725 78.29908 44.618298 77.070128 
C 43.389345 75.841175 41.722294 75.15066 39.984293 75.15066 
C 38.246292 75.15066 36.579241 75.841175 35.350289 77.070128 
C 34.121337 78.29908 33.430822 79.966131 33.430822 81.704132 
C 33.430822 83.442133 34.121337 85.109184 35.350289 86.338136 
C 36.579241 87.567088 38.246292 88.257603 39.984293 88.257603 
z
" clip-path="url(#p24e8f4ad54)" style="fill: #46039f; stroke: #000000; stroke-width: 0.55"/>
    <path d="M 26.785287 90.93997 
C 28.183859 90.93997 29.525338 90.384312 30.514278 89.395372 
C 31.503217 88.406432 32.058876 87.064954 32.058876 85.666382 
C 32.058876 84.26781 31.503217 82.926331 30.514278 81.937392 
C 29.525338 80.948452 28.183859 80.392793 26.785287 80.392793 
C 25.386715 80.392793 24.045237 80.948452 23.056297 81.937392 
C 22.067357 82.926331 21.511699 84.26781 21.511699 85.666382 
C 21.511699 87.064954 22.067357 88.406432 23.056297 89.395372 
C 24.045237 90.384312 25.386715 90.93997 26.785287 90.93997 
z
" clip-path="url(#p24e8f4ad54)" style="fill: #46039f; stroke: #000000; stroke-width: 0.55"/>
    <path d="M 22.279069 125.489031 
C 23.677641 125.489031 25.01912 124.933373 26.00806 123.944433 
C 26.996999 122.955493 27.552658 121.614015 27.552658 120.215443 
C 27.552658 118.816871 26.996999 117.475392 26.00806 116.486452 
C 25.01912 115.497513 23.677641 114.941854 22.279069 114.941854 
C 20.880497 114.941854 19.539019 115.497513 18.550079 116.486452 
C 17.561139 117.475392 17.005481 118.816871 17.005481 120.215443 
C 17.005481 121.614015 17.561139 122.955493 18.550079 123.944433 
C 19.539019 124.933373 20.880497 125.489031 22.279069 125.489031 
z
" clip-path="url(#p24e8f4ad54)" style="fill: #7201a8; stroke: #000000; stroke-width: 0.55"/>
    <path d="M 37.588253 125.614453 
C 38.986825 125.614453 40.328303 125.058795 41.317243 124.069855 
C 42.306183 123.080915 42.861842 121.739437 42.861842 120.340865 
C 42.861842 118.942293 42.306183 117.600814 41.317243 116.611874 
C 40.328303 115.622935 38.986825 115.067276 37.588253 115.067276 
C 36.189681 115.067276 34.848202 115.622935 33.859263 116.611874 
C 32.870323 117.600814 32.314664 118.942293 32.314664 120.340865 
C 32.314664 121.739437 32.870323 123.080915 33.859263 124.069855 
C 34.848202 125.058795 36.189681 125.614453 37.588253 125.614453 
z
" clip-path="url(#p24e8f4ad54)" style="fill: #9c179e; stroke: #000000; stroke-width: 0.55"/>
    <path d="M 85.095918 28.932724 
C 86.49449 28.932724 87.835968 28.377065 88.824908 27.388126 
C 89.813848 26.399186 90.369506 25.057707 90.369506 23.659135 
C 90.369506 22.260563 89.813848 20.919085 88.824908 19.930145 
C 87.835968 18.941205 86.49449 18.385547 85.095918 18.385547 
C 83.697346 18.385547 82.355867 18.941205 81.366927 19.930145 
C 80.377988 20.919085 79.822329 22.260563 79.822329 23.659135 
C 79.822329 25.057707 80.377988 26.399186 81.366927 27.388126 
C 82.355867 28.377065 83.697346 28.932724 85.095918 28.932724 
z
" clip-path="url(#p24e8f4ad54)" style="fill: #9c179e; stroke: #000000; stroke-width: 0.55"/>
    <path d="M 103.935382 57.993332 
C 105.333955 57.993332 106.675433 57.437673 107.664373 56.448733 
C 108.653313 55.459794 109.208971 54.118315 109.208971 52.719743 
C 109.208971 51.321171 108.653313 49.979693 107.664373 48.990753 
C 106.675433 48.001813 105.333955 47.446155 103.935382 47.446155 
C 102.53681 47.446155 101.195332 48.001813 100.206392 48.990753 
C 99.217452 49.979693 98.661794 51.321171 98.661794 52.719743 
C 98.661794 54.118315 99.217452 55.459794 100.206392 56.448733 
C 101.195332 57.437673 102.53681 57.993332 103.935382 57.993332 
z
" clip-path="url(#p24e8f4ad54)" style="fill: #bd3786; stroke: #000000; stroke-width: 0.55"/>
    <path d="M 121.42229 64.796908 
C 122.820862 64.796908 124.16234 64.241249 125.15128 63.252309 
C 126.14022 62.263369 126.695878 60.921891 126.695878 59.523319 
C 126.695878 58.124747 126.14022 56.783268 125.15128 55.794329 
C 124.16234 54.805389 122.820862 54.24973 121.42229 54.24973 
C 120.023718 54.24973 118.682239 54.805389 117.693299 55.794329 
C 116.70436 56.783268 116.148701 58.124747 116.148701 59.523319 
C 116.148701 60.921891 116.70436 62.263369 117.693299 63.252309 
C 118.682239 64.241249 120.023718 64.796908 121.42229 64.796908 
z
" clip-path="url(#p24e8f4ad54)" style="fill: #d8576b; stroke: #000000; stroke-width: 0.55"/>
    <path d="M 88.351212 93.747269 
C 89.749784 93.747269 91.091262 93.19161 92.080202 92.202671 
C 93.069142 91.213731 93.6248 89.872252 93.6248 88.47368 
C 93.6248 87.075108 93.069142 85.73363 92.080202 84.74469 
C 91.091262 83.75575 89.749784 83.200092 88.351212 83.200092 
C 86.95264 83.200092 85.611161 83.75575 84.622221 84.74469 
C 83.633282 85.73363 83.077623 87.075108 83.077623 88.47368 
C 83.077623 89.872252 83.633282 91.213731 84.622221 92.202671 
C 85.611161 93.19161 86.95264 93.747269 88.351212 93.747269 
z
" clip-path="url(#p24e8f4ad54)" style="fill: #ed7953; stroke: #000000; stroke-width: 0.55"/>
    <path d="M 96.965106 100.786654 
C 98.363678 100.786654 99.705157 100.230996 100.694097 99.242056 
C 101.683036 98.253116 102.238695 96.911638 102.238695 95.513066 
C 102.238695 94.114494 101.683036 92.773015 100.694097 91.784075 
C 99.705157 90.795136 98.363678 90.239477 96.965106 90.239477 
C 95.566534 90.239477 94.225056 90.795136 93.236116 91.784075 
C 92.247176 92.773015 91.691518 94.114494 91.691518 95.513066 
C 91.691518 96.911638 92.247176 98.253116 93.236116 99.242056 
C 94.225056 100.230996 95.566534 100.786654 96.965106 100.786654 
z
" clip-path="url(#p24e8f4ad54)" style="fill: #ed7953; stroke: #000000; stroke-width: 0.55"/>
    <path d="M 121.720931 119.423511 
C 123.119503 119.423511 124.460981 118.867852 125.449921 117.878912 
C 126.438861 116.889972 126.994519 115.548494 126.994519 114.149922 
C 126.994519 112.75135 126.438861 111.409871 125.449921 110.420932 
C 124.460981 109.431992 123.119503 108.876333 121.720931 108.876333 
C 120.322359 108.876333 118.98088 109.431992 117.99194 110.420932 
C 117.003001 111.409871 116.447342 112.75135 116.447342 114.149922 
C 116.447342 115.548494 117.003001 116.889972 117.99194 117.878912 
C 118.98088 118.867852 120.322359 119.423511 121.720931 119.423511 
z
" clip-path="url(#p24e8f4ad54)" style="fill: #ed7953; stroke: #000000; stroke-width: 0.55"/>
    <path d="M 97.371831 112.248254 
C 98.770403 112.248254 100.111881 111.692595 101.100821 110.703656 
C 102.089761 109.714716 102.645419 108.373237 102.645419 106.974665 
C 102.645419 105.576093 102.089761 104.234615 101.100821 103.245675 
C 100.111881 102.256735 98.770403 101.701077 97.371831 101.701077 
C 95.973258 101.701077 94.63178 102.256735 93.64284 103.245675 
C 92.6539 104.234615 92.098242 105.576093 92.098242 106.974665 
C 92.098242 108.373237 92.6539 109.714716 93.64284 110.703656 
C 94.63178 111.692595 95.973258 112.248254 97.371831 112.248254 
z
" clip-path="url(#p24e8f4ad54)" style="fill: #fdca26; stroke: #000000; stroke-width: 0.55"/>
   </g>
   <g id="text_1">
    <!-- 1 -->
    <g style="fill: #ffffff" transform="translate(30.996134 100.92527) scale(0.1 -0.1)">
     <defs>
      <path id="LMRoman17-Regular-31" d="M 2458 0 
L 2458 166 
L 2266 166 
C 1715 166 1702 236 1702 467 
L 1702 4085 
C 1702 4217 1696 4224 1606 4224 
C 1357 3927 979 3833 621 3820 
C 602 3820 570 3820 563 3808 
C 557 3795 557 3782 557 3648 
C 755 3648 1088 3686 1344 3839 
L 1344 467 
C 1344 243 1331 166 781 166 
L 589 166 
L 589 0 
L 1523 12 
L 2458 0 
z
" transform="scale(0.015625)"/>
     </defs>
     <use xlink:href="#LMRoman17-Regular-31" transform="scale(0.996264)"/>
    </g>
   </g>
   <g id="text_2">
    <!-- 2 -->
    <g style="fill: #ffffff" transform="translate(37.493633 84.167056) scale(0.1 -0.1)">
     <defs>
      <path id="LMRoman17-Regular-32" d="M 2669 990 
L 2554 990 
C 2490 537 2438 460 2413 422 
C 2381 371 1920 371 1830 371 
L 602 371 
L 1824 1596 
C 2214 1966 2669 2400 2669 3033 
C 2669 3788 2067 4224 1395 4224 
C 691 4224 262 3603 262 3027 
C 262 2777 448 2745 525 2745 
C 589 2745 781 2783 781 3007 
C 781 3206 614 3264 525 3264 
C 486 3264 448 3257 422 3244 
C 544 3788 915 4057 1306 4057 
C 1862 4057 2227 3616 2227 3033 
C 2227 2477 1901 1998 1536 1583 
L 262 147 
L 262 0 
L 2515 0 
L 2669 990 
z
" transform="scale(0.015625)"/>
     </defs>
     <use xlink:href="#LMRoman17-Regular-32" transform="scale(0.996264)"/>
    </g>
   </g>
   <g id="text_3">
    <!-- 3 -->
    <g style="fill: #ffffff" transform="translate(24.294627 88.129306) scale(0.1 -0.1)">
     <defs>
      <path id="LMRoman17-Regular-33" d="M 2720 1094 
C 2720 1715 2208 2163 1600 2233 
C 2086 2335 2554 2771 2554 3353 
C 2554 3856 2048 4224 1472 4224 
C 890 4224 378 3862 378 3347 
C 378 3123 544 3084 627 3084 
C 762 3084 877 3167 877 3334 
C 877 3500 762 3584 627 3584 
C 602 3596 570 3596 544 3584 
C 730 4006 1235 4083 1459 4083 
C 1683 4083 2106 3974 2106 3360 
C 2106 3180 2080 2860 1862 2579 
C 1670 2329 1453 2316 1242 2297 
C 1210 2297 1062 2284 1037 2284 
C 992 2278 966 2272 966 2227 
C 966 2182 973 2176 1101 2176 
L 1414 2176 
C 1984 2176 2234 1673 2234 1094 
C 2234 322 1824 25 1453 25 
C 1114 25 563 193 390 691 
C 422 678 454 678 486 678 
C 640 671 755 774 755 940 
C 755 1132 614 1216 486 1216 
C 378 1216 211 1164 211 926 
C 211 334 787 -128 1466 -128 
C 2176 -128 2720 431 2720 1087 
L 2720 1094 
z
" transform="scale(0.015625)"/>
     </defs>
     <use xlink:href="#LMRoman17-Regular-33" transform="scale(0.996264)"/>
    </g>
   </g>
   <g id="text_4">
    <!-- 4 -->
    <g style="fill: #ffffff" transform="translate(19.788409 122.678367) scale(0.1 -0.1)">
     <defs>
      <path id="LMRoman17-Regular-34" d="M 2803 1088 
L 2803 1254 
L 2150 1254 
L 2150 4146 
C 2150 4281 2144 4288 2029 4288 
L 128 1254 
L 128 1088 
L 1779 1088 
L 1779 460 
C 1779 230 1766 166 1318 166 
L 1197 166 
L 1197 0 
C 1402 12 1747 12 1965 12 
C 2182 12 2528 12 2733 0 
L 2733 166 
L 2611 166 
C 2163 166 2150 230 2150 460 
L 2150 1088 
L 2803 1088 
z
M 1798 1254 
L 256 1254 
L 1798 3723 
L 1798 1254 
z
" transform="scale(0.015625)"/>
     </defs>
     <use xlink:href="#LMRoman17-Regular-34" transform="scale(0.996264)"/>
    </g>
   </g>
   <g id="text_5">
    <!-- 5 -->
    <g style="fill: #ffffff" transform="translate(35.097593 122.803789) scale(0.1 -0.1)">
     <defs>
      <path id="LMRoman17-Regular-35" d="M 2669 1260 
C 2669 2028 2170 2624 1549 2624 
C 1222 2624 947 2502 730 2271 
L 730 3692 
C 794 3667 1056 3584 1325 3584 
C 1920 3584 2246 3904 2432 4119 
C 2432 4183 2432 4224 2394 4224 
C 2394 4224 2374 4224 2323 4191 
C 2099 4071 1837 3974 1517 3974 
C 1325 3993 1037 4019 723 4160 
C 653 4224 634 4224 634 4224 
C 602 4192 595 4185 595 4057 
L 595 2206 
C 595 2092 595 2061 659 2061 
C 691 2061 704 2074 736 2118 
C 941 2401 1222 2521 1542 2521 
C 1766 2521 2246 2382 2246 1304 
C 2246 1103 2246 735 2054 441 
C 1894 166 1645 25 1370 25 
C 947 25 518 334 403 832 
C 429 806 480 793 506 793 
C 589 793 749 838 749 1036 
C 749 1209 627 1280 506 1280 
C 358 1280 262 1190 262 1011 
C 262 454 704 -128 1382 -128 
C 2042 -128 2669 441 2669 1267 
L 2669 1260 
z
" transform="scale(0.015625)"/>
     </defs>
     <use xlink:href="#LMRoman17-Regular-35" transform="scale(0.996264)"/>
    </g>
   </g>
   <g id="text_6">
    <!-- 6 -->
    <g style="fill: #ffffff" transform="translate(82.605258 26.12206) scale(0.1 -0.1)">
     <defs>
      <path id="LMRoman17-Regular-36" d="M 2688 1305 
C 2688 2105 2170 2688 1517 2688 
C 1126 2688 838 2431 678 1983 
L 678 2201 
C 678 3712 1395 4076 1811 4076 
C 1946 4076 2272 4049 2400 3782 
C 2298 3782 2106 3782 2106 3558 
C 2106 3385 2246 3328 2336 3328 
C 2394 3328 2566 3353 2566 3571 
C 2566 3993 2246 4224 1805 4224 
C 1043 4224 243 3427 243 2006 
C 243 257 966 -128 1478 -128 
C 2099 -135 2688 422 2688 1280 
L 2688 1305 
z
M 2253 1286 
C 2253 937 2253 684 2118 431 
C 1978 171 1773 25 1478 25 
C 691 25 691 1191 691 1427 
C 691 1901 909 2585 1504 2585 
C 1613 2585 1926 2585 2138 2131 
C 2253 1862 2253 1600 2253 1280 
L 2253 1286 
z
" transform="scale(0.015625)"/>
     </defs>
     <use xlink:href="#LMRoman17-Regular-36" transform="scale(0.996264)"/>
    </g>
   </g>
   <g id="text_7">
    <!-- 7 -->
    <g style="fill: #ffffff" transform="translate(101.444722 55.182668) scale(0.1 -0.1)">
     <defs>
      <path id="LMRoman17-Regular-37" d="M 2886 4006 
L 2886 4147 
L 1382 4147 
C 634 4147 621 4230 595 4352 
L 480 4352 
L 294 3148 
L 410 3148 
C 429 3271 474 3601 550 3724 
C 589 3776 1062 3776 1171 3776 
L 2579 3776 
L 1869 2707 
C 1395 1989 1069 1018 1069 169 
C 1069 92 1069 -128 1299 -128 
C 1530 -128 1530 92 1530 176 
L 1530 474 
C 1530 1535 1709 2235 2003 2681 
L 2886 4006 
z
" transform="scale(0.015625)"/>
     </defs>
     <use xlink:href="#LMRoman17-Regular-37" transform="scale(0.996264)"/>
    </g>
   </g>
   <g id="text_8">
    <!-- 8 -->
    <g style="fill: #ffffff" transform="translate(118.93163 61.986243) scale(0.1 -0.1)">
     <defs>
      <path id="LMRoman17-Regular-38" d="M 2720 1022 
C 2720 1607 2330 1877 2074 2051 
C 1984 2115 1933 2147 1741 2289 
C 2144 2494 2554 2803 2554 3298 
C 2554 3884 1990 4224 1472 4224 
C 890 4224 378 3800 378 3215 
C 378 3054 416 2777 666 2533 
C 730 2469 998 2276 1171 2154 
C 883 2006 211 1652 211 945 
C 211 282 838 -128 1459 -128 
C 2144 -128 2720 366 2720 1022 
z
M 2336 3298 
C 2336 2700 1670 2359 1638 2359 
C 1638 2359 1626 2359 1574 2398 
L 902 2855 
C 851 2887 595 3086 595 3388 
C 595 3781 998 4076 1459 4076 
C 1965 4076 2336 3716 2336 3298 
z
M 2483 861 
C 2483 385 2010 25 1472 25 
C 890 25 448 443 448 951 
C 448 1459 838 1884 1280 2083 
L 2080 1536 
C 2176 1466 2483 1253 2483 861 
z
" transform="scale(0.015625)"/>
     </defs>
     <use xlink:href="#LMRoman17-Regular-38" transform="scale(0.996264)"/>
    </g>
   </g>
   <g id="text_9">
    <!-- 9 -->
    <g transform="translate(85.860552 90.936605) scale(0.1 -0.1)">
     <defs>
      <path id="LMRoman17-Regular-39" d="M 2688 2112 
C 2688 3860 1971 4224 1485 4224 
C 851 4224 243 3669 243 2816 
C 243 2022 762 1433 1414 1433 
C 1952 1433 2189 1932 2253 2144 
L 2253 1894 
C 2253 479 1670 25 1190 25 
C 1043 25 685 46 538 313 
C 704 287 826 377 826 537 
C 826 710 685 768 595 768 
C 538 762 365 736 365 514 
C 365 71 742 -128 1203 -128 
C 1939 -128 2688 690 2688 2112 
z
M 2240 2668 
C 2240 2214 2035 1536 1427 1536 
C 1254 1536 1011 1568 813 1952 
C 678 2201 678 2495 678 2809 
C 678 3185 678 3446 858 3726 
C 947 3860 1114 4076 1485 4076 
C 2240 4076 2240 2924 2240 2668 
L 2240 2668 
z
" transform="scale(0.015625)"/>
     </defs>
     <use xlink:href="#LMRoman17-Regular-39" transform="scale(0.996264)"/>
    </g>
   </g>
   <g id="text_10">
    <!-- 10 -->
    <g transform="translate(91.983786 97.97599) scale(0.1 -0.1)">
     <defs>
      <path id="LMRoman17-Regular-30" d="M 2688 2038 
C 2688 2430 2682 3099 2413 3613 
C 2176 4063 1798 4224 1466 4224 
C 1158 4224 768 4082 525 3620 
C 269 3137 243 2539 243 2038 
C 243 1671 250 1112 448 623 
C 723 -39 1216 -128 1466 -128 
C 1760 -128 2208 -7 2470 604 
C 2662 1048 2688 1568 2688 2038 
z
M 2278 2109 
C 2278 1691 2278 1176 2202 797 
C 2067 96 1690 -26 1466 -26 
C 1056 -26 813 328 723 816 
C 653 1196 653 1749 653 2109 
C 653 2604 653 3015 736 3407 
C 858 3954 1216 4121 1466 4121 
C 1728 4121 2067 3947 2189 3420 
C 2272 3054 2278 2623 2278 2109 
z
" transform="scale(0.015625)"/>
     </defs>
     <use xlink:href="#LMRoman17-Regular-31" transform="scale(0.996264)"/>
     <use xlink:href="#LMRoman17-Regular-30" transform="translate(45.690948 0) scale(0.996264)"/>
    </g>
   </g>
   <g id="text_11">
    <!-- 11 -->
    <g transform="translate(116.739611 116.612846) scale(0.1 -0.1)">
     <use xlink:href="#LMRoman17-Regular-31" transform="scale(0.996264)"/>
     <use xlink:href="#LMRoman17-Regular-31" transform="translate(45.690948 0) scale(0.996264)"/>
    </g>
   </g>
   <g id="text_12">
    <!-- 12 -->
    <g transform="translate(92.39051 109.43759) scale(0.1 -0.1)">
     <use xlink:href="#LMRoman17-Regular-31" transform="scale(0.996264)"/>
     <use xlink:href="#LMRoman17-Regular-32" transform="translate(45.690948 0) scale(0.996264)"/>
    </g>
   </g>
  </g>
 </g>
 <defs>
  <clipPath id="p24e8f4ad54">
   <rect x="7.2" y="7.2" width="129.6" height="129.6"/>
  </clipPath>
 </defs>
</svg>
