<?xml version="1.0" encoding="utf-8" standalone="no"?>
<!DOCTYPE svg PUBLIC "-//W3C//DTD SVG 1.1//EN"
  "http://www.w3.org/Graphics/SVG/1.1/DTD/svg11.dtd">
<svg xmlns:xlink="http://www.w3.org/1999/xlink" width="254.284266pt" height="151.38796pt" viewBox="0 0 254.284266 151.38796" xmlns="http://www.w3.org/2000/svg" version="1.1">
 <metadata>
  <rdf:RDF xmlns:dc="http://purl.org/dc/elements/1.1/" xmlns:cc="http://creativecommons.org/ns#" xmlns:rdf="http://www.w3.org/1999/02/22-rdf-syntax-ns#">
   <cc:Work>
    <dc:type rdf:resource="http://purl.org/dc/dcmitype/StillImage"/>
    <dc:date>2023-04-21T14:59:09.336283</dc:date>
    <dc:format>image/svg+xml</dc:format>
    <dc:creator>
     <cc:Agent>
      <dc:title>Matplotlib v3.7.1, https://matplotlib.org/</dc:title>
     </cc:Agent>
    </dc:creator>
   </cc:Work>
  </rdf:RDF>
 </metadata>
 <defs>
  <style type="text/css">*{stroke-linejoin: round; stroke-linecap: butt}</style>
 </defs>
 <g id="figure_1">
  <g id="patch_1">
   <path d="M 0 151.38796 
L 254.284266 151.38796 
L 254.284266 0 
L 0 0 
L 0 151.38796 
z
" style="fill: none"/>
  </g>
  <g id="axes_1">
   <g id="patch_2">
    <path d="M 41.228 114.426082 
L 199.628 114.426082 
L 199.628 16.529498 
L 41.228 16.529498 
L 41.228 114.426082 
z
" style="fill: none"/>
   </g>
   <g id="matplotlib.axis_1">
    <g id="xtick_1">
     <g id="line2d_1">
      <path d="M 41.228 114.426082 
L 41.228 16.529498 
" clip-path="url(#pc40a20867c)" style="fill: none; stroke-dasharray: 2.96,1.28; stroke-dashoffset: 0; stroke: #dddfe5; stroke-width: 0.8"/>
     </g>
     <g id="line2d_2">
      <defs>
       <path id="m2fc59c02dc" d="M 0 0 
L 0 3.5 
" style="stroke: #000000; stroke-width: 0.8"/>
      </defs>
      <g>
       <use xlink:href="#m2fc59c02dc" x="41.228" y="114.426082" style="stroke: #000000; stroke-width: 0.8"/>
      </g>
     </g>
     <g id="text_1">
      <!-- 0 -->
      <g transform="translate(38.578019 127.755581) scale(0.0833 -0.0833)">
       <defs>
        <path id="DejaVuSans-30" d="M 2034 4250 
Q 1547 4250 1301 3770 
Q 1056 3291 1056 2328 
Q 1056 1369 1301 889 
Q 1547 409 2034 409 
Q 2525 409 2770 889 
Q 3016 1369 3016 2328 
Q 3016 3291 2770 3770 
Q 2525 4250 2034 4250 
z
M 2034 4750 
Q 2819 4750 3233 4129 
Q 3647 3509 3647 2328 
Q 3647 1150 3233 529 
Q 2819 -91 2034 -91 
Q 1250 -91 836 529 
Q 422 1150 422 2328 
Q 422 3509 836 4129 
Q 1250 4750 2034 4750 
z
" transform="scale(0.015625)"/>
       </defs>
       <use xlink:href="#DejaVuSans-30"/>
      </g>
     </g>
    </g>
    <g id="xtick_2">
     <g id="line2d_3">
      <path d="M 81.411464 114.426082 
L 81.411464 16.529498 
" clip-path="url(#pc40a20867c)" style="fill: none; stroke-dasharray: 2.96,1.28; stroke-dashoffset: 0; stroke: #dddfe5; stroke-width: 0.8"/>
     </g>
     <g id="line2d_4">
      <g>
       <use xlink:href="#m2fc59c02dc" x="81.411464" y="114.426082" style="stroke: #000000; stroke-width: 0.8"/>
      </g>
     </g>
     <g id="text_2">
      <!-- 5000 -->
      <g transform="translate(70.811539 127.755581) scale(0.0833 -0.0833)">
       <defs>
        <path id="DejaVuSans-35" d="M 691 4666 
L 3169 4666 
L 3169 4134 
L 1269 4134 
L 1269 2991 
Q 1406 3038 1543 3061 
Q 1681 3084 1819 3084 
Q 2600 3084 3056 2656 
Q 3513 2228 3513 1497 
Q 3513 744 3044 326 
Q 2575 -91 1722 -91 
Q 1428 -91 1123 -41 
Q 819 9 494 109 
L 494 744 
Q 775 591 1075 516 
Q 1375 441 1709 441 
Q 2250 441 2565 725 
Q 2881 1009 2881 1497 
Q 2881 1984 2565 2268 
Q 2250 2553 1709 2553 
Q 1456 2553 1204 2497 
Q 953 2441 691 2322 
L 691 4666 
z
" transform="scale(0.015625)"/>
       </defs>
       <use xlink:href="#DejaVuSans-35"/>
       <use xlink:href="#DejaVuSans-30" x="63.623047"/>
       <use xlink:href="#DejaVuSans-30" x="127.246094"/>
       <use xlink:href="#DejaVuSans-30" x="190.869141"/>
      </g>
     </g>
    </g>
    <g id="xtick_3">
     <g id="line2d_5">
      <path d="M 121.594928 114.426082 
L 121.594928 16.529498 
" clip-path="url(#pc40a20867c)" style="fill: none; stroke-dasharray: 2.96,1.28; stroke-dashoffset: 0; stroke: #dddfe5; stroke-width: 0.8"/>
     </g>
     <g id="line2d_6">
      <g>
       <use xlink:href="#m2fc59c02dc" x="121.594928" y="114.426082" style="stroke: #000000; stroke-width: 0.8"/>
      </g>
     </g>
     <g id="text_3">
      <!-- 10000 -->
      <g transform="translate(108.345022 127.755581) scale(0.0833 -0.0833)">
       <defs>
        <path id="DejaVuSans-31" d="M 794 531 
L 1825 531 
L 1825 4091 
L 703 3866 
L 703 4441 
L 1819 4666 
L 2450 4666 
L 2450 531 
L 3481 531 
L 3481 0 
L 794 0 
L 794 531 
z
" transform="scale(0.015625)"/>
       </defs>
       <use xlink:href="#DejaVuSans-31"/>
       <use xlink:href="#DejaVuSans-30" x="63.623047"/>
       <use xlink:href="#DejaVuSans-30" x="127.246094"/>
       <use xlink:href="#DejaVuSans-30" x="190.869141"/>
       <use xlink:href="#DejaVuSans-30" x="254.492188"/>
      </g>
     </g>
    </g>
    <g id="xtick_4">
     <g id="line2d_7">
      <path d="M 161.778392 114.426082 
L 161.778392 16.529498 
" clip-path="url(#pc40a20867c)" style="fill: none; stroke-dasharray: 2.96,1.28; stroke-dashoffset: 0; stroke: #dddfe5; stroke-width: 0.8"/>
     </g>
     <g id="line2d_8">
      <g>
       <use xlink:href="#m2fc59c02dc" x="161.778392" y="114.426082" style="stroke: #000000; stroke-width: 0.8"/>
      </g>
     </g>
     <g id="text_4">
      <!-- 15000 -->
      <g transform="translate(148.528485 127.755581) scale(0.0833 -0.0833)">
       <use xlink:href="#DejaVuSans-31"/>
       <use xlink:href="#DejaVuSans-35" x="63.623047"/>
       <use xlink:href="#DejaVuSans-30" x="127.246094"/>
       <use xlink:href="#DejaVuSans-30" x="190.869141"/>
       <use xlink:href="#DejaVuSans-30" x="254.492188"/>
      </g>
     </g>
    </g>
    <g id="text_5">
     <!-- $\tau_\mathrm{lag}$ [ns] -->
     <g transform="translate(100.628 141.08796) scale(0.1 -0.1)">
      <defs>
       <path id="DejaVuSans-Oblique-3c4" d="M 2103 638 
Q 2188 488 2525 488 
L 2800 488 
L 2706 0 
L 2363 0 
Q 1800 0 1600 300 
Q 1403 606 1534 1269 
L 1856 2925 
L 541 2925 
L 653 3500 
L 3881 3500 
L 3769 2925 
L 2444 2925 
L 2113 1234 
Q 2025 781 2103 638 
z
" transform="scale(0.015625)"/>
       <path id="DejaVuSans-6c" d="M 603 4863 
L 1178 4863 
L 1178 0 
L 603 0 
L 603 4863 
z
" transform="scale(0.015625)"/>
       <path id="DejaVuSans-61" d="M 2194 1759 
Q 1497 1759 1228 1600 
Q 959 1441 959 1056 
Q 959 750 1161 570 
Q 1363 391 1709 391 
Q 2188 391 2477 730 
Q 2766 1069 2766 1631 
L 2766 1759 
L 2194 1759 
z
M 3341 1997 
L 3341 0 
L 2766 0 
L 2766 531 
Q 2569 213 2275 61 
Q 1981 -91 1556 -91 
Q 1019 -91 701 211 
Q 384 513 384 1019 
Q 384 1609 779 1909 
Q 1175 2209 1959 2209 
L 2766 2209 
L 2766 2266 
Q 2766 2663 2505 2880 
Q 2244 3097 1772 3097 
Q 1472 3097 1187 3025 
Q 903 2953 641 2809 
L 641 3341 
Q 956 3463 1253 3523 
Q 1550 3584 1831 3584 
Q 2591 3584 2966 3190 
Q 3341 2797 3341 1997 
z
" transform="scale(0.015625)"/>
       <path id="DejaVuSans-67" d="M 2906 1791 
Q 2906 2416 2648 2759 
Q 2391 3103 1925 3103 
Q 1463 3103 1205 2759 
Q 947 2416 947 1791 
Q 947 1169 1205 825 
Q 1463 481 1925 481 
Q 2391 481 2648 825 
Q 2906 1169 2906 1791 
z
M 3481 434 
Q 3481 -459 3084 -895 
Q 2688 -1331 1869 -1331 
Q 1566 -1331 1297 -1286 
Q 1028 -1241 775 -1147 
L 775 -588 
Q 1028 -725 1275 -790 
Q 1522 -856 1778 -856 
Q 2344 -856 2625 -561 
Q 2906 -266 2906 331 
L 2906 616 
Q 2728 306 2450 153 
Q 2172 0 1784 0 
Q 1141 0 747 490 
Q 353 981 353 1791 
Q 353 2603 747 3093 
Q 1141 3584 1784 3584 
Q 2172 3584 2450 3431 
Q 2728 3278 2906 2969 
L 2906 3500 
L 3481 3500 
L 3481 434 
z
" transform="scale(0.015625)"/>
       <path id="DejaVuSans-20" transform="scale(0.015625)"/>
       <path id="DejaVuSans-5b" d="M 550 4863 
L 1875 4863 
L 1875 4416 
L 1125 4416 
L 1125 -397 
L 1875 -397 
L 1875 -844 
L 550 -844 
L 550 4863 
z
" transform="scale(0.015625)"/>
       <path id="DejaVuSans-6e" d="M 3513 2113 
L 3513 0 
L 2938 0 
L 2938 2094 
Q 2938 2591 2744 2837 
Q 2550 3084 2163 3084 
Q 1697 3084 1428 2787 
Q 1159 2491 1159 1978 
L 1159 0 
L 581 0 
L 581 3500 
L 1159 3500 
L 1159 2956 
Q 1366 3272 1645 3428 
Q 1925 3584 2291 3584 
Q 2894 3584 3203 3211 
Q 3513 2838 3513 2113 
z
" transform="scale(0.015625)"/>
       <path id="DejaVuSans-73" d="M 2834 3397 
L 2834 2853 
Q 2591 2978 2328 3040 
Q 2066 3103 1784 3103 
Q 1356 3103 1142 2972 
Q 928 2841 928 2578 
Q 928 2378 1081 2264 
Q 1234 2150 1697 2047 
L 1894 2003 
Q 2506 1872 2764 1633 
Q 3022 1394 3022 966 
Q 3022 478 2636 193 
Q 2250 -91 1575 -91 
Q 1294 -91 989 -36 
Q 684 19 347 128 
L 347 722 
Q 666 556 975 473 
Q 1284 391 1588 391 
Q 1994 391 2212 530 
Q 2431 669 2431 922 
Q 2431 1156 2273 1281 
Q 2116 1406 1581 1522 
L 1381 1569 
Q 847 1681 609 1914 
Q 372 2147 372 2553 
Q 372 3047 722 3315 
Q 1072 3584 1716 3584 
Q 2034 3584 2315 3537 
Q 2597 3491 2834 3397 
z
" transform="scale(0.015625)"/>
       <path id="DejaVuSans-5d" d="M 1947 4863 
L 1947 -844 
L 622 -844 
L 622 -397 
L 1369 -397 
L 1369 4416 
L 622 4416 
L 622 4863 
L 1947 4863 
z
" transform="scale(0.015625)"/>
      </defs>
      <use xlink:href="#DejaVuSans-Oblique-3c4" transform="translate(0 0.015625)"/>
      <use xlink:href="#DejaVuSans-6c" transform="translate(60.205078 -16.390625) scale(0.7)"/>
      <use xlink:href="#DejaVuSans-61" transform="translate(79.65332 -16.390625) scale(0.7)"/>
      <use xlink:href="#DejaVuSans-67" transform="translate(122.548828 -16.390625) scale(0.7)"/>
      <use xlink:href="#DejaVuSans-20" transform="translate(169.716797 0.015625)"/>
      <use xlink:href="#DejaVuSans-5b" transform="translate(201.503906 0.015625)"/>
      <use xlink:href="#DejaVuSans-6e" transform="translate(240.517578 0.015625)"/>
      <use xlink:href="#DejaVuSans-73" transform="translate(303.896484 0.015625)"/>
      <use xlink:href="#DejaVuSans-5d" transform="translate(355.996094 0.015625)"/>
     </g>
    </g>
   </g>
   <g id="matplotlib.axis_2">
    <g id="ytick_1">
     <g id="line2d_9">
      <path d="M 41.228 114.426082 
L 199.628 114.426082 
" clip-path="url(#pc40a20867c)" style="fill: none; stroke-dasharray: 2.96,1.28; stroke-dashoffset: 0; stroke: #dddfe5; stroke-width: 0.8"/>
     </g>
     <g id="line2d_10">
      <defs>
       <path id="m4c0e76bb65" d="M 0 0 
L -3.5 0 
" style="stroke: #000000; stroke-width: 0.8"/>
      </defs>
      <g>
       <use xlink:href="#m4c0e76bb65" x="41.228" y="114.426082" style="stroke: #000000; stroke-width: 0.8"/>
      </g>
     </g>
     <g id="text_6">
      <!-- $\mathdefault{0.0}$ -->
      <g transform="translate(20.9 117.590831) scale(0.0833 -0.0833)">
       <defs>
        <path id="DejaVuSans-2e" d="M 684 794 
L 1344 794 
L 1344 0 
L 684 0 
L 684 794 
z
" transform="scale(0.015625)"/>
       </defs>
       <use xlink:href="#DejaVuSans-30" transform="translate(0 0.78125)"/>
       <use xlink:href="#DejaVuSans-2e" transform="translate(63.623047 0.78125)"/>
       <use xlink:href="#DejaVuSans-30" transform="translate(95.410156 0.78125)"/>
      </g>
     </g>
    </g>
    <g id="ytick_2">
     <g id="line2d_11">
      <path d="M 41.228 81.9006 
L 199.628 81.9006 
" clip-path="url(#pc40a20867c)" style="fill: none; stroke-dasharray: 2.96,1.28; stroke-dashoffset: 0; stroke: #dddfe5; stroke-width: 0.8"/>
     </g>
     <g id="line2d_12">
      <g>
       <use xlink:href="#m4c0e76bb65" x="41.228" y="81.9006" style="stroke: #000000; stroke-width: 0.8"/>
      </g>
     </g>
     <g id="text_7">
      <!-- $\mathdefault{0.5}$ -->
      <g transform="translate(20.9 85.06535) scale(0.0833 -0.0833)">
       <use xlink:href="#DejaVuSans-30" transform="translate(0 0.78125)"/>
       <use xlink:href="#DejaVuSans-2e" transform="translate(63.623047 0.78125)"/>
       <use xlink:href="#DejaVuSans-35" transform="translate(95.410156 0.78125)"/>
      </g>
     </g>
    </g>
    <g id="ytick_3">
     <g id="line2d_13">
      <path d="M 41.228 49.375119 
L 199.628 49.375119 
" clip-path="url(#pc40a20867c)" style="fill: none; stroke-dasharray: 2.96,1.28; stroke-dashoffset: 0; stroke: #dddfe5; stroke-width: 0.8"/>
     </g>
     <g id="line2d_14">
      <g>
       <use xlink:href="#m4c0e76bb65" x="41.228" y="49.375119" style="stroke: #000000; stroke-width: 0.8"/>
      </g>
     </g>
     <g id="text_8">
      <!-- $\mathdefault{1.0}$ -->
      <g transform="translate(20.9 52.539868) scale(0.0833 -0.0833)">
       <use xlink:href="#DejaVuSans-31" transform="translate(0 0.78125)"/>
       <use xlink:href="#DejaVuSans-2e" transform="translate(63.623047 0.78125)"/>
       <use xlink:href="#DejaVuSans-30" transform="translate(95.410156 0.78125)"/>
      </g>
     </g>
    </g>
    <g id="ytick_4">
     <g id="line2d_15">
      <path d="M 41.228 16.849637 
L 199.628 16.849637 
" clip-path="url(#pc40a20867c)" style="fill: none; stroke-dasharray: 2.96,1.28; stroke-dashoffset: 0; stroke: #dddfe5; stroke-width: 0.8"/>
     </g>
     <g id="line2d_16">
      <g>
       <use xlink:href="#m4c0e76bb65" x="41.228" y="16.849637" style="stroke: #000000; stroke-width: 0.8"/>
      </g>
     </g>
     <g id="text_9">
      <!-- $\mathdefault{1.5}$ -->
      <g transform="translate(20.9 20.014386) scale(0.0833 -0.0833)">
       <use xlink:href="#DejaVuSans-31" transform="translate(0 0.09375)"/>
       <use xlink:href="#DejaVuSans-2e" transform="translate(63.623047 0.09375)"/>
       <use xlink:href="#DejaVuSans-35" transform="translate(95.410156 0.09375)"/>
      </g>
     </g>
    </g>
    <g id="text_10">
     <!-- probability $P$ -->
     <g transform="translate(14.8 96.87779) rotate(-90) scale(0.1 -0.1)">
      <defs>
       <path id="DejaVuSans-70" d="M 1159 525 
L 1159 -1331 
L 581 -1331 
L 581 3500 
L 1159 3500 
L 1159 2969 
Q 1341 3281 1617 3432 
Q 1894 3584 2278 3584 
Q 2916 3584 3314 3078 
Q 3713 2572 3713 1747 
Q 3713 922 3314 415 
Q 2916 -91 2278 -91 
Q 1894 -91 1617 61 
Q 1341 213 1159 525 
z
M 3116 1747 
Q 3116 2381 2855 2742 
Q 2594 3103 2138 3103 
Q 1681 3103 1420 2742 
Q 1159 2381 1159 1747 
Q 1159 1113 1420 752 
Q 1681 391 2138 391 
Q 2594 391 2855 752 
Q 3116 1113 3116 1747 
z
" transform="scale(0.015625)"/>
       <path id="DejaVuSans-72" d="M 2631 2963 
Q 2534 3019 2420 3045 
Q 2306 3072 2169 3072 
Q 1681 3072 1420 2755 
Q 1159 2438 1159 1844 
L 1159 0 
L 581 0 
L 581 3500 
L 1159 3500 
L 1159 2956 
Q 1341 3275 1631 3429 
Q 1922 3584 2338 3584 
Q 2397 3584 2469 3576 
Q 2541 3569 2628 3553 
L 2631 2963 
z
" transform="scale(0.015625)"/>
       <path id="DejaVuSans-6f" d="M 1959 3097 
Q 1497 3097 1228 2736 
Q 959 2375 959 1747 
Q 959 1119 1226 758 
Q 1494 397 1959 397 
Q 2419 397 2687 759 
Q 2956 1122 2956 1747 
Q 2956 2369 2687 2733 
Q 2419 3097 1959 3097 
z
M 1959 3584 
Q 2709 3584 3137 3096 
Q 3566 2609 3566 1747 
Q 3566 888 3137 398 
Q 2709 -91 1959 -91 
Q 1206 -91 779 398 
Q 353 888 353 1747 
Q 353 2609 779 3096 
Q 1206 3584 1959 3584 
z
" transform="scale(0.015625)"/>
       <path id="DejaVuSans-62" d="M 3116 1747 
Q 3116 2381 2855 2742 
Q 2594 3103 2138 3103 
Q 1681 3103 1420 2742 
Q 1159 2381 1159 1747 
Q 1159 1113 1420 752 
Q 1681 391 2138 391 
Q 2594 391 2855 752 
Q 3116 1113 3116 1747 
z
M 1159 2969 
Q 1341 3281 1617 3432 
Q 1894 3584 2278 3584 
Q 2916 3584 3314 3078 
Q 3713 2572 3713 1747 
Q 3713 922 3314 415 
Q 2916 -91 2278 -91 
Q 1894 -91 1617 61 
Q 1341 213 1159 525 
L 1159 0 
L 581 0 
L 581 4863 
L 1159 4863 
L 1159 2969 
z
" transform="scale(0.015625)"/>
       <path id="DejaVuSans-69" d="M 603 3500 
L 1178 3500 
L 1178 0 
L 603 0 
L 603 3500 
z
M 603 4863 
L 1178 4863 
L 1178 4134 
L 603 4134 
L 603 4863 
z
" transform="scale(0.015625)"/>
       <path id="DejaVuSans-74" d="M 1172 4494 
L 1172 3500 
L 2356 3500 
L 2356 3053 
L 1172 3053 
L 1172 1153 
Q 1172 725 1289 603 
Q 1406 481 1766 481 
L 2356 481 
L 2356 0 
L 1766 0 
Q 1100 0 847 248 
Q 594 497 594 1153 
L 594 3053 
L 172 3053 
L 172 3500 
L 594 3500 
L 594 4494 
L 1172 4494 
z
" transform="scale(0.015625)"/>
       <path id="DejaVuSans-79" d="M 2059 -325 
Q 1816 -950 1584 -1140 
Q 1353 -1331 966 -1331 
L 506 -1331 
L 506 -850 
L 844 -850 
Q 1081 -850 1212 -737 
Q 1344 -625 1503 -206 
L 1606 56 
L 191 3500 
L 800 3500 
L 1894 763 
L 2988 3500 
L 3597 3500 
L 2059 -325 
z
" transform="scale(0.015625)"/>
       <path id="DejaVuSans-Oblique-50" d="M 1081 4666 
L 2541 4666 
Q 3178 4666 3512 4369 
Q 3847 4072 3847 3500 
Q 3847 2731 3353 2303 
Q 2859 1875 1966 1875 
L 1172 1875 
L 806 0 
L 172 0 
L 1081 4666 
z
M 1613 4147 
L 1275 2394 
L 2069 2394 
Q 2606 2394 2893 2669 
Q 3181 2944 3181 3456 
Q 3181 3784 2986 3965 
Q 2791 4147 2438 4147 
L 1613 4147 
z
" transform="scale(0.015625)"/>
      </defs>
      <use xlink:href="#DejaVuSans-70" transform="translate(0 0.015625)"/>
      <use xlink:href="#DejaVuSans-72" transform="translate(63.476562 0.015625)"/>
      <use xlink:href="#DejaVuSans-6f" transform="translate(104.589844 0.015625)"/>
      <use xlink:href="#DejaVuSans-62" transform="translate(165.771484 0.015625)"/>
      <use xlink:href="#DejaVuSans-61" transform="translate(229.248047 0.015625)"/>
      <use xlink:href="#DejaVuSans-62" transform="translate(290.527344 0.015625)"/>
      <use xlink:href="#DejaVuSans-69" transform="translate(354.003906 0.015625)"/>
      <use xlink:href="#DejaVuSans-6c" transform="translate(381.787109 0.015625)"/>
      <use xlink:href="#DejaVuSans-69" transform="translate(409.570312 0.015625)"/>
      <use xlink:href="#DejaVuSans-74" transform="translate(437.353516 0.015625)"/>
      <use xlink:href="#DejaVuSans-79" transform="translate(476.5625 0.015625)"/>
      <use xlink:href="#DejaVuSans-20" transform="translate(535.742188 0.015625)"/>
      <use xlink:href="#DejaVuSans-Oblique-50" transform="translate(567.529297 0.015625)"/>
     </g>
    </g>
    <g id="text_11">
     <!-- $\times\mathdefault{10^{−4}}\mathdefault{}$ -->
     <g transform="translate(14.7386 13.529498) scale(0.0833 -0.0833)">
      <defs>
       <path id="DejaVuSans-d7" d="M 4488 3438 
L 3059 2003 
L 4488 575 
L 4116 197 
L 2681 1631 
L 1247 197 
L 878 575 
L 2303 2003 
L 878 3438 
L 1247 3816 
L 2681 2381 
L 4116 3816 
L 4488 3438 
z
" transform="scale(0.015625)"/>
       <path id="DejaVuSans-2212" d="M 678 2272 
L 4684 2272 
L 4684 1741 
L 678 1741 
L 678 2272 
z
" transform="scale(0.015625)"/>
       <path id="DejaVuSans-34" d="M 2419 4116 
L 825 1625 
L 2419 1625 
L 2419 4116 
z
M 2253 4666 
L 3047 4666 
L 3047 1625 
L 3713 1625 
L 3713 1100 
L 3047 1100 
L 3047 0 
L 2419 0 
L 2419 1100 
L 313 1100 
L 313 1709 
L 2253 4666 
z
" transform="scale(0.015625)"/>
      </defs>
      <use xlink:href="#DejaVuSans-d7" transform="translate(0 0.684375)"/>
      <use xlink:href="#DejaVuSans-31" transform="translate(83.789062 0.684375)"/>
      <use xlink:href="#DejaVuSans-30" transform="translate(147.412109 0.684375)"/>
      <use xlink:href="#DejaVuSans-2212" transform="translate(211.992188 38.965625) scale(0.7)"/>
      <use xlink:href="#DejaVuSans-34" transform="translate(270.644531 38.965625) scale(0.7)"/>
     </g>
    </g>
   </g>
   <g id="patch_3">
    <path d="M 41.228 114.426082 
L 41.228 58.424908 
L 45.188482 58.424908 
L 45.188482 74.425244 
L 49.148964 74.425244 
L 49.148964 98.425747 
L 53.109447 98.425747 
L 53.109447 82.425411 
L 57.069929 82.425411 
L 57.069929 106.425915 
L 61.030411 106.425915 
L 61.030411 90.425579 
L 64.990893 90.425579 
L 64.990893 82.425411 
L 68.951375 82.425411 
L 68.951375 106.425915 
L 72.911858 106.425915 
L 72.911858 106.425915 
L 76.87234 106.425915 
L 76.87234 90.425579 
L 80.832822 90.425579 
L 80.832822 114.426082 
L 84.793304 114.426082 
L 84.793304 114.426082 
L 88.753786 114.426082 
L 88.753786 114.426082 
L 92.714269 114.426082 
L 92.714269 106.425915 
L 96.674751 106.425915 
L 96.674751 114.426082 
L 100.635233 114.426082 
L 100.635233 114.426082 
L 104.595715 114.426082 
L 104.595715 114.426082 
L 108.556197 114.426082 
L 108.556197 114.426082 
L 112.51668 114.426082 
L 112.51668 106.425915 
L 116.477162 106.425915 
L 116.477162 114.426082 
" clip-path="url(#pc40a20867c)"/>
   </g>
   <g id="patch_4">
    <path d="M 41.228 114.426082 
L 41.308367 114.426082 
L 41.469101 91.852804 
L 41.549468 91.852804 
L 41.710202 70.780409 
L 41.790568 70.780409 
L 41.951302 56.732146 
L 42.031669 56.732146 
L 42.192403 44.064695 
L 42.27277 44.064695 
L 42.433504 33.798656 
L 42.513871 33.798656 
L 42.513871 30.196538 
L 42.674605 31.517314 
L 42.754972 31.517314 
L 42.835339 31.817491 
L 42.915705 24.493183 
L 42.996072 24.493183 
L 43.156806 29.296008 
L 43.237173 29.296008 
L 43.397907 21.191241 
L 43.478274 21.191241 
L 43.639008 30.136502 
L 43.719375 30.136502 
L 43.799742 24.673289 
L 43.880109 29.416078 
L 43.960476 29.416078 
L 43.960476 26.714489 
L 44.121209 28.515549 
L 44.201576 28.515549 
L 44.36231 32.838091 
L 44.442677 32.838091 
L 44.442677 28.75569 
L 44.603411 36.860457 
L 44.683778 36.860457 
L 44.764145 33.738621 
L 44.844512 35.299539 
L 44.924879 35.299539 
L 44.924879 32.357809 
L 45.085613 39.021729 
L 45.165979 39.021729 
L 45.165979 32.778056 
L 45.326713 39.742152 
L 45.40708 39.742152 
L 45.40708 41.903424 
L 45.487447 36.860457 
L 45.567814 37.46081 
L 45.648181 37.46081 
L 45.728548 46.04586 
L 45.808915 43.10413 
L 45.889282 43.10413 
L 45.969649 44.364872 
L 45.969649 37.220669 
L 46.050016 43.464342 
L 46.130383 43.464342 
L 46.21075 46.586178 
L 46.291116 44.965225 
L 46.371483 44.965225 
L 46.371483 43.404306 
L 46.45185 45.385472 
L 46.532217 44.965225 
L 46.612584 44.965225 
L 46.773318 48.627379 
L 46.853685 48.627379 
L 46.853685 45.92579 
L 46.934052 50.188297 
L 47.014419 46.94639 
L 47.094786 46.94639 
L 47.25552 50.728615 
L 47.335887 50.728615 
L 47.335887 52.829851 
L 47.49662 51.749215 
L 47.576987 51.749215 
L 47.657354 51.088827 
L 47.737721 54.210663 
L 47.818088 54.210663 
L 47.898455 52.949921 
L 47.978822 57.752746 
L 48.059189 57.752746 
L 48.219923 55.771581 
L 48.30029 55.771581 
L 48.30029 54.390769 
L 48.461024 63.636207 
L 48.54139 63.636207 
L 48.702124 59.133559 
L 48.782491 59.133559 
L 48.862858 61.835148 
L 48.943225 60.27423 
L 49.023592 60.27423 
L 49.184326 62.735677 
L 49.264693 62.735677 
L 49.264693 62.19536 
L 49.425427 65.557337 
L 49.505794 65.557337 
L 49.505794 63.155925 
L 49.58616 65.977584 
L 49.666527 64.296596 
L 49.746894 64.296596 
L 49.746894 67.838679 
L 49.907628 66.517902 
L 49.987995 66.517902 
L 49.987995 63.456101 
L 50.148729 69.819844 
L 50.229096 69.819844 
L 50.229096 67.478467 
L 50.309463 71.92108 
L 50.38983 68.739209 
L 50.470197 68.739209 
L 50.550564 70.660339 
L 50.630931 68.018785 
L 50.711297 68.018785 
L 50.872031 70.240092 
L 50.952398 70.240092 
L 50.952398 68.07882 
L 51.113132 74.502599 
L 51.193499 74.502599 
L 51.193499 71.380763 
L 51.354233 77.264223 
L 51.4346 77.264223 
L 51.514967 73.181822 
L 51.595334 75.463164 
L 51.675701 75.463164 
L 51.675701 74.802775 
L 51.836434 78.885177 
L 51.916801 78.885177 
L 51.997168 73.902246 
L 52.077535 76.423729 
L 52.157902 76.423729 
L 52.238269 73.902246 
L 52.318636 77.264223 
L 52.399003 77.264223 
L 52.399003 74.082352 
L 52.47937 78.585 
L 52.559737 78.164753 
L 52.640104 78.164753 
L 52.640104 80.38606 
L 52.800838 76.243623 
L 52.881205 76.243623 
L 52.881205 80.866342 
L 53.041938 80.566165 
L 53.202672 80.566165 
L 53.363406 79.365459 
L 53.443773 79.365459 
L 53.52414 82.247154 
L 53.604507 81.286589 
L 53.684874 81.286589 
L 53.765241 82.667401 
L 53.845608 82.667401 
L 53.925975 82.667401 
L 53.925975 83.988178 
L 54.006342 82.067048 
L 54.086708 82.30719 
L 54.167075 82.30719 
L 54.327809 88.19065 
L 54.408176 88.19065 
L 54.408176 85.128849 
L 54.56891 85.24892 
L 54.649277 85.24892 
L 54.729644 88.19065 
L 54.810011 83.868108 
L 54.890378 83.868108 
L 55.051112 87.710368 
L 55.131479 87.710368 
L 55.131479 89.09118 
L 55.211845 86.089414 
L 55.292212 88.010544 
L 55.372579 88.010544 
L 55.372579 86.209485 
L 55.452946 88.19065 
L 55.533313 87.290121 
L 55.61368 87.290121 
L 55.694047 88.130615 
L 55.774414 87.710368 
L 55.854781 87.710368 
L 55.854781 90.652098 
L 55.935148 86.629732 
L 56.015515 88.430792 
L 56.095882 88.430792 
L 56.095882 89.031145 
L 56.176249 86.809838 
L 56.256615 88.310721 
L 56.336982 88.310721 
L 56.417349 89.99171 
L 56.497716 87.17005 
L 56.578083 87.17005 
L 56.65845 90.712133 
L 56.738817 90.351922 
L 56.819184 90.351922 
L 56.819184 86.329556 
L 56.899551 93.173581 
L 56.979918 92.152981 
L 57.060285 92.152981 
L 57.060285 93.173581 
L 57.140652 91.072345 
L 57.221019 91.672698 
L 57.301386 91.672698 
L 57.381752 92.513193 
L 57.462119 90.11178 
L 57.542486 90.11178 
L 57.622853 93.83397 
L 57.70322 93.773934 
L 57.863954 93.593829 
L 57.944321 95.334853 
L 58.024688 93.533793 
L 58.105055 93.533793 
L 58.105055 93.053511 
L 58.185422 93.773934 
L 58.265789 93.593829 
L 58.346156 93.593829 
L 58.426523 94.734499 
L 58.506889 94.674464 
L 58.587256 94.674464 
L 58.587256 94.914605 
L 58.667623 94.554394 
L 58.74799 94.734499 
L 58.828357 94.734499 
L 58.828357 93.653864 
L 58.989091 95.815135 
L 59.149825 95.815135 
L 59.310559 96.535559 
L 59.390926 96.535559 
L 59.471293 97.376053 
L 59.55166 95.695064 
L 59.632026 95.695064 
L 59.712393 98.276583 
L 59.79276 97.856336 
L 59.873127 97.856336 
L 59.873127 99.057042 
L 60.033861 94.734499 
L 60.114228 94.734499 
L 60.114228 98.997007 
L 60.274962 98.516724 
L 60.355329 98.516724 
L 60.355329 97.075877 
L 60.516063 97.436089 
L 60.59643 97.436089 
L 60.676797 98.57676 
L 60.757163 98.276583 
L 60.83753 98.276583 
L 60.998264 100.677995 
L 61.078631 100.677995 
L 61.158998 99.117077 
L 61.239365 99.477289 
L 61.319732 99.477289 
L 61.319732 98.936971 
L 61.400099 100.738031 
L 61.480466 99.237148 
L 61.560833 99.237148 
L 61.560833 100.738031 
L 61.721567 99.897536 
L 61.8823 100.077642 
L 61.962667 101.458455 
L 62.043034 100.137678 
L 62.123401 100.137678 
L 62.284135 101.218313 
L 62.364502 101.218313 
L 62.364502 99.957572 
L 62.444869 102.719196 
L 62.525236 101.51849 
L 62.605603 101.51849 
L 62.605603 101.878702 
L 62.766337 101.338384 
L 62.927071 101.278349 
L 63.007437 100.61796 
L 63.087804 102.659161 
L 63.168171 102.659161 
L 63.248538 101.818666 
L 63.328905 103.019373 
L 63.409272 103.019373 
L 63.409272 102.53909 
L 63.489639 103.799832 
L 63.570006 103.619726 
L 63.650373 103.619726 
L 63.73074 102.118843 
L 63.811107 103.739796 
L 63.971841 103.559691 
L 63.971841 102.839267 
L 64.052207 104.100008 
L 64.132574 103.559691 
L 64.212941 103.559691 
L 64.293308 104.760397 
L 64.373675 104.220079 
L 64.454042 104.220079 
L 64.534409 103.079408 
L 64.614776 104.820432 
L 64.695143 104.820432 
L 64.855877 103.019373 
L 64.936244 103.019373 
L 65.096978 105.720962 
L 65.177344 105.720962 
L 65.338078 104.400185 
L 65.418445 104.400185 
L 65.579179 105.060573 
L 65.659546 105.060573 
L 65.739913 104.100008 
L 65.82028 105.060573 
L 65.900647 105.060573 
L 65.900647 104.520256 
L 65.981014 105.36075 
L 66.061381 104.520256 
L 66.141748 104.520256 
L 66.141748 104.160044 
L 66.302481 105.36075 
L 66.382848 105.36075 
L 66.382848 104.640326 
L 66.543582 106.321315 
L 66.623949 106.321315 
L 66.623949 105.120609 
L 66.784683 105.300715 
L 66.945417 105.480821 
L 66.945417 106.861633 
L 67.106151 105.540856 
L 67.186518 105.540856 
L 67.266885 106.681527 
L 67.347252 105.300715 
L 67.427618 105.300715 
L 67.588352 107.522021 
L 67.668719 107.522021 
L 67.749086 106.26128 
L 67.829453 106.321315 
L 67.90982 106.321315 
L 67.990187 107.341915 
L 68.070554 106.801597 
L 68.150921 106.801597 
L 68.231288 106.26128 
L 68.311655 107.522021 
L 68.392022 107.522021 
L 68.472389 106.921668 
L 68.552755 108.30248 
L 68.633122 108.30248 
L 68.633122 107.942268 
L 68.793856 108.842798 
L 68.874223 108.842798 
L 68.95459 106.801597 
L 69.034957 107.341915 
L 69.115324 107.341915 
L 69.195691 106.501421 
L 69.276058 108.662692 
L 69.356425 108.662692 
L 69.356425 108.902833 
L 69.436792 107.822198 
L 69.517159 108.18241 
L 69.597526 108.18241 
L 69.677892 107.341915 
L 69.758259 108.602657 
L 69.838626 108.602657 
L 69.838626 107.642092 
L 69.918993 109.623257 
L 69.99936 108.602657 
L 70.079727 108.602657 
L 70.079727 109.082939 
L 70.160094 108.362516 
L 70.240461 108.902833 
L 70.401195 109.082939 
L 70.401195 109.443151 
L 70.481562 108.062339 
L 70.561929 109.20301 
L 70.642296 109.20301 
L 70.803029 108.242445 
L 70.883396 108.242445 
L 71.04413 109.563222 
L 71.124497 109.563222 
L 71.204864 107.822198 
L 71.285231 110.523787 
L 71.365598 110.523787 
L 71.526332 109.022904 
L 71.606699 109.022904 
L 71.687066 109.863398 
L 71.767433 109.563222 
L 71.847799 109.563222 
L 71.847799 108.542622 
L 72.008533 109.263045 
L 72.169267 109.383116 
L 72.249634 109.082939 
L 72.330001 110.343681 
L 72.410368 110.343681 
L 72.490735 109.20301 
L 72.571102 110.343681 
L 72.651469 110.343681 
L 72.812203 109.022904 
L 72.89257 109.022904 
L 73.053303 110.283646 
L 73.214037 110.10354 
L 73.294404 109.263045 
L 73.294404 110.403716 
L 73.374771 110.163575 
L 73.455138 110.163575 
L 73.535505 109.743328 
L 73.615872 110.463752 
L 73.696239 110.463752 
L 73.696239 110.763928 
L 73.776606 109.20301 
L 73.856973 110.043504 
L 73.93734 110.043504 
L 74.017707 111.12414 
L 74.098073 110.403716 
L 74.258807 110.523787 
L 74.339174 110.043504 
L 74.419541 110.643858 
L 74.499908 110.643858 
L 74.580275 110.343681 
L 74.660642 111.244211 
L 74.741009 111.244211 
L 74.901743 110.10354 
L 74.98211 110.10354 
L 75.142844 111.784528 
L 75.22321 111.784528 
L 75.22321 110.643858 
L 75.383944 110.883999 
L 75.464311 110.883999 
L 75.625045 111.304246 
L 75.705412 111.304246 
L 75.705412 111.004069 
L 75.785779 111.664458 
L 75.866146 111.424317 
L 75.946513 111.424317 
L 75.946513 110.463752 
L 76.107247 111.184175 
L 76.187614 111.184175 
L 76.187614 110.763928 
L 76.348347 111.064105 
L 76.428714 111.064105 
L 76.589448 111.904599 
L 76.669815 111.904599 
L 76.669815 111.12414 
L 76.830549 111.544387 
L 76.991283 111.604423 
L 77.07165 112.084705 
L 77.152017 111.12414 
L 77.232384 111.12414 
L 77.232384 112.02467 
L 77.393118 111.364281 
L 77.473484 111.364281 
L 77.473484 112.264811 
L 77.553851 110.403716 
L 77.634218 112.264811 
L 77.714585 112.264811 
L 77.714585 111.664458 
L 77.875319 111.784528 
L 77.955686 111.784528 
L 77.955686 111.484352 
L 78.11642 111.664458 
L 78.357521 111.724493 
L 78.437888 111.604423 
L 78.518254 113.04527 
L 78.598621 113.04527 
L 78.598621 111.844564 
L 78.759355 111.904599 
L 78.839722 111.904599 
L 78.920089 112.264811 
L 79.000456 111.844564 
L 79.080823 111.844564 
L 79.16119 111.784528 
L 79.241557 112.324846 
L 79.321924 112.324846 
L 79.402291 113.105305 
L 79.482658 111.484352 
L 79.563025 111.484352 
L 79.723758 112.14474 
L 79.884492 112.324846 
L 80.045226 113.225376 
L 80.125593 113.225376 
L 80.20596 111.904599 
L 80.286327 112.204776 
L 80.447061 112.204776 
L 80.447061 112.625023 
L 80.607795 112.564988 
L 80.688162 112.564988 
L 80.688162 112.925199 
L 80.768528 112.084705 
L 80.848895 112.504952 
L 80.929262 112.504952 
L 80.929262 112.745093 
L 81.089996 112.444917 
L 81.170363 112.444917 
L 81.25073 112.865164 
L 81.331097 112.685058 
L 81.411464 112.685058 
L 81.411464 112.14474 
L 81.491831 113.285411 
L 81.572198 112.805129 
L 81.652565 112.805129 
L 81.652565 113.105305 
L 81.732932 111.904599 
L 81.813299 111.964634 
L 81.893665 111.964634 
L 82.054399 112.685058 
L 82.2955 112.685058 
L 82.2955 112.324846 
L 82.375867 112.805129 
L 82.456234 112.745093 
L 82.616968 112.625023 
L 82.616968 112.444917 
L 82.777702 112.625023 
L 82.858069 112.625023 
L 82.858069 112.985235 
L 83.018802 112.985235 
L 83.179536 113.105305 
L 83.179536 112.504952 
L 83.259903 113.225376 
L 83.34027 112.685058 
L 83.420637 112.685058 
L 83.420637 113.165341 
L 83.581371 112.985235 
L 83.661738 112.985235 
L 83.742105 113.165341 
L 83.822472 112.444917 
L 83.902839 112.444917 
L 83.983206 113.285411 
L 84.063573 112.865164 
L 84.143939 112.865164 
L 84.224306 113.345447 
L 84.304673 112.625023 
L 84.465407 112.625023 
L 84.626141 113.345447 
L 85.027976 113.285411 
L 85.027976 113.04527 
L 85.18871 113.04527 
L 85.349443 113.225376 
L 85.349443 113.405482 
L 85.42981 112.805129 
L 85.510177 112.985235 
L 85.590544 112.985235 
L 85.670911 113.285411 
L 85.751278 113.285411 
L 86.072746 113.285411 
L 86.153113 112.865164 
L 86.23348 113.525553 
L 86.313846 113.525553 
L 86.313846 112.985235 
L 86.47458 113.405482 
L 87.27825 113.525553 
L 87.27825 113.04527 
L 87.358617 113.645623 
L 87.438983 113.285411 
L 87.599717 113.345447 
L 87.599717 113.885764 
L 87.760451 113.705658 
L 87.840818 113.705658 
L 87.840818 113.345447 
L 88.001552 113.765694 
L 88.081919 113.765694 
L 88.242653 113.345447 
L 88.32302 113.345447 
L 88.32302 113.585588 
L 88.483754 113.04527 
L 88.56412 113.04527 
L 88.644487 113.705658 
L 88.724854 113.405482 
L 88.885588 113.405482 
L 88.885588 113.825729 
L 88.965955 113.285411 
L 89.046322 113.525553 
L 89.126689 113.525553 
L 89.126689 113.885764 
L 89.207056 113.465517 
L 89.287423 113.765694 
L 89.36779 113.765694 
L 89.36779 113.405482 
L 89.528524 113.525553 
L 89.608891 113.525553 
L 89.608891 113.765694 
L 89.769624 113.585588 
L 89.849991 113.585588 
L 89.849991 113.9458 
L 90.010725 113.585588 
L 90.41256 113.705658 
L 90.41256 113.825729 
L 90.573294 113.405482 
L 90.653661 113.405482 
L 90.734028 114.06587 
L 90.814394 113.585588 
L 91.135862 113.645623 
L 91.135862 113.885764 
L 91.216229 113.525553 
L 91.296596 113.885764 
L 91.45733 113.885764 
L 91.45733 113.525553 
L 91.618064 114.005835 
L 91.698431 114.005835 
L 91.698431 113.645623 
L 91.859165 113.705658 
L 91.939531 113.705658 
L 91.939531 114.005835 
L 92.100265 113.765694 
L 92.180632 113.765694 
L 92.180632 114.06587 
L 92.341366 113.585588 
L 92.421733 113.585588 
L 92.582467 113.885764 
L 92.743201 113.825729 
L 92.743201 113.525553 
L 92.903935 113.765694 
L 93.064668 113.645623 
L 93.145035 114.06587 
L 93.225402 113.825729 
L 93.386136 113.645623 
L 93.466503 114.06587 
L 93.54687 113.825729 
L 94.270172 113.705658 
L 94.270172 114.06587 
L 94.430906 114.005835 
L 94.672007 113.885764 
L 94.672007 113.585588 
L 94.832741 114.06587 
L 94.913108 114.06587 
L 94.913108 113.465517 
L 95.073842 113.885764 
L 95.234575 113.885764 
L 95.234575 114.185941 
L 95.314942 113.705658 
L 95.395309 114.06587 
L 95.63641 113.9458 
L 95.63641 113.825729 
L 95.716777 114.005835 
L 95.797144 113.9458 
L 96.118612 114.125906 
L 96.198979 113.705658 
L 96.198979 114.185941 
L 96.279346 114.005835 
L 96.841914 113.885764 
L 96.841914 114.245976 
L 97.002648 114.245976 
L 97.72595 114.125906 
L 97.72595 114.005835 
L 97.806317 114.245976 
L 97.886684 114.125906 
L 98.208152 114.306012 
L 98.288519 113.885764 
L 98.368886 114.005835 
L 98.690353 114.185941 
L 98.690353 114.245976 
L 98.851087 114.125906 
L 99.976224 113.9458 
L 99.976224 113.885764 
L 100.056591 114.185941 
L 100.136958 113.885764 
L 100.297692 114.005835 
L 100.297692 114.185941 
L 100.378059 113.9458 
L 100.458426 114.125906 
L 100.538793 114.125906 
L 100.538793 114.426082 
L 100.61916 114.005835 
L 100.699527 114.245976 
L 100.779893 114.245976 
L 100.779893 113.9458 
L 100.940627 114.185941 
L 103.030167 114.306012 
L 103.030167 114.426082 
L 103.190901 114.245976 
L 103.75347 114.125906 
L 103.75347 114.005835 
L 103.914204 114.426082 
L 104.074938 114.306012 
L 104.155304 114.125906 
L 104.235671 114.366047 
L 104.476772 114.185941 
L 104.476772 114.06587 
L 104.637506 114.245976 
L 143.936934 114.366047 
L 143.936934 114.426082 
" clip-path="url(#pc40a20867c)" style="fill: none; stroke: #2a9d8f; stroke-linejoin: miter"/>
   </g>
   <g id="patch_5">
    <path d="M 41.228 114.426082 
L 41.388734 114.426082 
L 41.549468 99.175447 
L 41.710202 99.175447 
L 41.870935 82.563147 
L 42.031669 82.563147 
L 42.192403 71.669836 
L 42.353137 71.669836 
L 42.513871 61.009953 
L 42.674605 61.009953 
L 42.835339 53.870944 
L 42.996072 53.870944 
L 43.156806 49.552524 
L 43.31754 49.552524 
L 43.478274 46.070555 
L 43.639008 46.070555 
L 43.799742 45.097938 
L 43.960476 45.097938 
L 43.960476 45.856579 
L 44.121209 44.922867 
L 44.281943 44.922867 
L 44.281943 44.475463 
L 44.442677 45.973293 
L 44.603411 45.973293 
L 44.603411 46.342888 
L 44.764145 46.148364 
L 44.924879 46.148364 
L 45.085613 47.821266 
L 45.40708 47.976884 
L 45.567814 49.338548 
L 45.889282 49.182929 
L 46.050016 51.575567 
L 46.21075 51.575567 
L 46.371483 54.3378 
L 46.532217 54.3378 
L 46.532217 52.625994 
L 46.692951 53.540254 
L 46.853685 53.540254 
L 47.014419 57.002771 
L 47.175153 57.002771 
L 47.175153 59.123076 
L 47.335887 58.169911 
L 47.49662 58.169911 
L 47.49662 56.360843 
L 47.657354 58.617315 
L 47.978822 58.558958 
L 48.139556 59.978979 
L 48.30029 59.978979 
L 48.30029 58.753481 
L 48.461024 62.838473 
L 48.782491 62.857925 
L 48.943225 63.791638 
L 49.103959 63.791638 
L 49.264693 66.184276 
L 49.425427 66.184276 
L 49.58616 66.728941 
L 49.746894 66.728941 
L 49.907628 68.226772 
L 50.068362 68.226772 
L 50.068362 68.576914 
L 50.229096 68.4602 
L 50.38983 68.4602 
L 50.38983 70.794481 
L 50.550564 69.996935 
L 50.711297 69.996935 
L 50.711297 71.164075 
L 50.872031 70.502696 
L 51.032765 70.502696 
L 51.193499 74.218093 
L 51.354233 74.218093 
L 51.354233 71.494765 
L 51.514967 74.043022 
L 51.675701 74.043022 
L 51.675701 74.86002 
L 51.836434 73.36219 
L 51.997168 73.36219 
L 52.157902 76.921968 
L 52.318636 76.921968 
L 52.318636 77.27211 
L 52.47937 76.824706 
L 52.640104 76.824706 
L 52.800838 78.750488 
L 53.122305 78.711584 
L 53.122305 78.478155 
L 53.283039 79.450773 
L 53.443773 79.450773 
L 53.604507 80.34558 
L 53.765241 80.34558 
L 53.925975 80.987508 
L 54.086708 80.987508 
L 54.247442 82.446433 
L 54.56891 82.485338 
L 54.56891 83.866454 
L 54.729644 83.710835 
L 54.890378 83.710835 
L 54.890378 84.138787 
L 55.051112 83.652478 
L 55.211845 83.652478 
L 55.372579 85.539355 
L 55.533313 85.539355 
L 55.533313 84.839071 
L 55.694047 85.792236 
L 55.854781 85.792236 
L 55.854781 86.336901 
L 56.015515 85.656069 
L 56.176249 85.656069 
L 56.176249 87.445685 
L 56.336982 87.114995 
L 56.497716 87.114995 
L 56.65845 88.437754 
L 56.819184 88.437754 
L 56.819184 87.640208 
L 56.979918 88.98242 
L 57.140652 88.98242 
L 57.140652 89.741061 
L 57.301386 88.535016 
L 57.622853 88.593373 
L 57.783587 90.986011 
L 57.944321 90.986011 
L 58.105055 90.596964 
L 58.265789 90.596964 
L 58.426523 91.861366 
L 58.587256 91.861366 
L 58.587256 91.413962 
L 58.74799 91.764105 
L 58.908724 91.764105 
L 59.069458 92.620008 
L 59.230192 92.620008 
L 59.390926 93.748243 
L 59.55166 93.748243 
L 59.55166 94.117838 
L 59.712393 93.923314 
L 59.873127 93.923314 
L 59.873127 93.689886 
L 60.033861 95.187717 
L 60.194595 95.187717 
L 60.194595 93.22303 
L 60.355329 94.818122 
L 60.516063 94.818122 
L 60.516063 95.732382 
L 60.676797 95.362788 
L 60.83753 95.362788 
L 60.83753 94.234552 
L 60.998264 96.004715 
L 61.319732 96.140881 
L 61.319732 95.732382 
L 61.480466 95.829644 
L 61.6412 95.829644 
L 61.6412 97.171855 
L 61.801934 96.666095 
L 61.962667 96.666095 
L 61.962667 97.716521 
L 62.123401 97.502545 
L 62.284135 97.502545 
L 62.444869 97.969401 
L 62.605603 97.969401 
L 62.605603 98.319544 
L 62.766337 97.87214 
L 63.248538 98.047211 
L 63.409272 99.525589 
L 63.570006 99.525589 
L 63.570006 98.494615 
L 63.73074 99.914636 
L 63.891474 99.914636 
L 63.891474 98.475162 
L 64.052207 100.245325 
L 64.212941 100.245325 
L 64.212941 99.525589 
L 64.373675 100.109159 
L 64.534409 100.109159 
L 64.534409 99.759017 
L 64.695143 100.517658 
L 64.855877 100.517658 
L 65.016611 101.626442 
L 65.177344 101.626442 
L 65.338078 100.887253 
L 65.498812 100.887253 
L 65.498812 102.171107 
L 65.659546 101.762608 
L 66.141748 101.665346 
L 66.302481 102.210012 
L 66.463215 102.210012 
L 66.463215 102.968653 
L 66.623949 101.996036 
L 66.784683 101.996036 
L 66.945417 103.3577 
L 67.106151 103.3577 
L 67.266885 102.988106 
L 67.588352 103.085367 
L 67.749086 104.699912 
L 67.90982 104.699912 
L 68.070554 103.960723 
L 68.231288 103.960723 
L 68.231288 104.505388 
L 68.392022 104.310865 
L 68.552755 104.310865 
L 68.552755 105.011149 
L 68.713489 104.874983 
L 68.874223 104.874983 
L 69.034957 104.583198 
L 69.195691 104.583198 
L 69.195691 104.991697 
L 69.356425 104.816626 
L 69.677892 104.93334 
L 69.677892 105.575267 
L 69.838626 105.088958 
L 70.160094 105.283482 
L 70.320828 105.905957 
L 70.642296 106.003218 
L 70.642296 106.411718 
L 70.803029 105.750338 
L 70.963763 105.750338 
L 71.124497 106.742407 
L 71.445965 106.606241 
L 71.445965 106.956383 
L 71.606699 106.781312 
L 71.767433 106.781312 
L 71.767433 105.750338 
L 71.928166 107.403787 
L 72.0889 107.403787 
L 72.249634 106.800764 
L 72.410368 106.800764 
L 72.571102 107.695572 
L 72.731836 107.695572 
L 72.731836 107.364882 
L 72.89257 107.812286 
L 73.053303 107.812286 
L 73.053303 107.267621 
L 73.214037 107.306525 
L 73.374771 107.306525 
L 73.535505 108.337499 
L 73.696239 108.337499 
L 73.696239 107.423239 
L 73.856973 108.142976 
L 74.017707 108.142976 
L 74.017707 108.570928 
L 74.17844 108.104071 
L 74.499908 108.162428 
L 74.499908 108.745999 
L 74.660642 107.734477 
L 74.821376 107.734477 
L 74.98211 108.298595 
L 75.142844 108.298595 
L 75.303577 108.92107 
L 75.464311 108.92107 
L 75.464311 108.51257 
L 75.625045 108.784903 
L 75.785779 108.784903 
L 75.785779 108.570928 
L 75.946513 108.629285 
L 76.267981 108.609832 
L 76.267981 109.037784 
L 76.428714 108.804356 
L 76.750182 108.959974 
L 76.750182 109.310116 
L 76.910916 109.212855 
L 77.393118 109.407378 
L 77.393118 108.765451 
L 77.553851 110.535614 
L 77.714585 110.535614 
L 77.875319 109.310116 
L 78.036053 109.310116 
L 78.036053 109.660259 
L 78.196787 109.446283 
L 78.518254 109.543545 
L 78.518254 109.932591 
L 78.678988 109.660259 
L 78.839722 109.660259 
L 78.839722 110.049305 
L 79.000456 110.010401 
L 79.321924 110.049305 
L 79.482658 110.302186 
L 79.804125 110.185472 
L 79.804125 109.83533 
L 79.964859 110.769042 
L 80.125593 110.769042 
L 80.125593 110.107662 
L 80.286327 110.302186 
L 80.447061 110.302186 
L 80.607795 110.67178 
L 81.572198 110.807947 
L 81.572198 110.983018 
L 81.732932 110.963565 
L 82.054399 110.944113 
L 82.054399 110.632876 
L 82.215133 111.00247 
L 82.375867 111.00247 
L 82.375867 111.430422 
L 82.536601 110.555066 
L 82.697335 110.555066 
L 82.858069 111.313708 
L 83.179536 111.274803 
L 83.179536 111.605493 
L 83.34027 111.060827 
L 83.501004 111.060827 
L 83.501004 111.722207 
L 83.661738 111.527683 
L 84.143939 111.722207 
L 84.143939 111.761111 
L 84.304673 111.294255 
L 84.465407 111.294255 
L 84.465407 111.508231 
L 84.626141 111.255351 
L 84.786875 111.255351 
L 84.947609 111.858373 
L 85.108343 111.858373 
L 85.108343 111.488779 
L 85.269076 111.741659 
L 85.42981 111.741659 
L 85.42981 112.227968 
L 85.590544 111.858373 
L 85.751278 111.858373 
L 85.912012 112.130706 
L 86.072746 112.130706 
L 86.072746 111.780564 
L 86.23348 112.169611 
L 86.394213 112.169611 
L 86.394213 111.936183 
L 86.554947 111.936183 
L 86.876415 112.091801 
L 87.037149 112.344682 
L 87.51935 112.227968 
L 87.51935 112.714276 
L 87.680084 112.325229 
L 87.840818 112.325229 
L 87.840818 111.800016 
L 88.001552 112.305777 
L 88.162286 112.305777 
L 88.162286 112.714276 
L 88.32302 112.461396 
L 88.805221 112.441943 
L 88.805221 112.772633 
L 88.965955 112.422491 
L 89.448157 112.539205 
L 89.608891 112.675372 
L 89.769624 112.675372 
L 89.769624 112.441943 
L 89.930358 112.947704 
L 90.091092 112.947704 
L 90.091092 112.325229 
L 90.251826 112.597562 
L 90.41256 112.597562 
L 90.573294 112.869895 
L 91.376963 112.928252 
L 91.376963 112.636467 
L 91.537697 112.811538 
L 91.859165 112.753181 
L 91.859165 112.558657 
L 92.019898 112.889347 
L 92.5021 112.986609 
L 92.5021 113.200585 
L 92.662834 112.947704 
L 92.823568 112.947704 
L 92.823568 113.297846 
L 92.984301 113.064418 
L 93.145035 113.064418 
L 93.145035 112.811538 
L 93.305769 113.317299 
L 93.787971 113.181132 
L 93.787971 112.986609 
L 93.948705 113.258942 
L 94.59164 113.258942 
L 94.59164 113.025514 
L 94.752374 113.511822 
L 94.913108 113.511822 
L 94.913108 113.044966 
L 95.073842 113.395108 
L 97.324116 113.434013 
L 97.324116 113.628536 
L 97.484849 113.434013 
L 98.288519 113.531275 
L 98.288519 113.686893 
L 98.449253 113.589632 
L 99.57439 113.628536 
L 99.57439 113.842512 
L 99.735123 113.803607 
L 99.895857 113.803607 
L 100.056591 113.550727 
L 101.020994 113.74525 
L 101.020994 113.861964 
L 101.181728 113.725798 
L 103.271268 113.881417 
L 103.271268 113.978678 
L 103.432002 113.920321 
L 103.592736 113.920321 
L 103.592736 113.609084 
L 103.75347 113.784155 
L 105.200075 113.842512 
L 105.200075 113.998131 
L 105.360808 113.939774 
L 108.414752 113.82306 
L 108.414752 114.192654 
L 108.575485 114.153749 
L 108.736219 114.153749 
L 108.736219 113.784155 
L 108.896953 114.056488 
L 113.718969 114.231559 
L 113.718969 114.270464 
L 113.879703 114.192654 
L 124.488137 114.251011 
L 124.488137 114.40663 
L 124.648871 114.348273 
L 209.998548 114.40663 
L 209.998548 114.426082 
" clip-path="url(#pc40a20867c)" style="fill: none; stroke: #e9c46a; stroke-linejoin: miter"/>
   </g>
   <g id="patch_6">
    <path d="M 41.228 114.426082 
L 41.549468 114.426082 
L 41.549468 107.743098 
L 41.870935 107.743098 
L 41.870935 97.574125 
L 42.192403 97.574125 
L 42.192403 87.579752 
L 42.513871 87.579752 
L 42.513871 77.814166 
L 42.835339 77.814166 
L 42.835339 73.274554 
L 43.156806 73.274554 
L 43.156806 67.205682 
L 43.478274 67.205682 
L 43.478274 64.080935 
L 43.799742 64.080935 
L 43.799742 61.714797 
L 44.121209 61.714797 
L 44.121209 60.733422 
L 44.442677 60.733422 
L 44.442677 58.999459 
L 45.085613 58.873024 
L 45.085613 58.523823 
L 45.40708 58.523823 
L 45.40708 58.24085 
L 45.728548 58.24085 
L 45.728548 58.782713 
L 46.050016 58.782713 
L 46.050016 59.366722 
L 46.692951 59.360701 
L 46.692951 60.305952 
L 47.014419 60.305952 
L 47.014419 62.50351 
L 47.335887 62.50351 
L 47.335887 62.967104 
L 47.657354 62.967104 
L 47.657354 63.551113 
L 47.978822 63.551113 
L 47.978822 64.622798 
L 48.30029 64.622798 
L 48.30029 66.140017 
L 48.943225 66.17012 
L 48.943225 67.374261 
L 49.264693 67.374261 
L 49.264693 68.433906 
L 49.58616 68.433906 
L 49.58616 69.361094 
L 50.229096 69.427322 
L 50.229096 71.871729 
L 50.550564 71.871729 
L 50.550564 72.365427 
L 50.872031 72.365427 
L 50.872031 73.942852 
L 51.193499 73.942852 
L 51.193499 74.280012 
L 52.157902 74.442571 
L 52.157902 76.188576 
L 52.47937 76.188576 
L 52.47937 77.218116 
L 52.800838 77.218116 
L 52.800838 77.729876 
L 53.122305 77.729876 
L 53.122305 78.572775 
L 53.443773 78.572775 
L 53.443773 79.770896 
L 53.765241 79.770896 
L 53.765241 80.752271 
L 54.408176 80.716147 
L 54.408176 82.215303 
L 54.729644 82.215303 
L 54.729644 83.877018 
L 55.051112 83.877018 
L 55.051112 83.178616 
L 55.372579 83.178616 
L 55.372579 83.588024 
L 55.694047 83.588024 
L 55.694047 85.099221 
L 56.015515 85.099221 
L 56.015515 84.762062 
L 56.336982 84.762062 
L 56.336982 85.761499 
L 56.65845 85.761499 
L 56.65845 86.766957 
L 56.979918 86.766957 
L 56.979918 87.098096 
L 57.301386 87.098096 
L 57.301386 87.591794 
L 57.622853 87.591794 
L 57.622853 88.531024 
L 57.944321 88.531024 
L 57.944321 89.458213 
L 58.265789 89.458213 
L 58.265789 88.482858 
L 58.587256 88.482858 
L 58.587256 89.391985 
L 58.908724 89.391985 
L 58.908724 90.174677 
L 59.230192 90.174677 
L 59.230192 91.162073 
L 59.55166 91.162073 
L 59.55166 92.023034 
L 59.873127 92.023034 
L 59.873127 92.354172 
L 60.194595 92.354172 
L 60.194595 92.619083 
L 60.83753 92.619083 
L 60.83753 93.281361 
L 61.158998 93.281361 
L 61.158998 94.341006 
L 61.480466 94.341006 
L 61.480466 94.009867 
L 61.801934 94.009867 
L 61.801934 94.660103 
L 62.123401 94.660103 
L 62.123401 95.189925 
L 62.444869 95.189925 
L 62.444869 96.014762 
L 62.766337 96.014762 
L 62.766337 95.641478 
L 63.087804 95.641478 
L 63.087804 96.671019 
L 64.052207 96.646936 
L 64.052207 98.013636 
L 64.373675 98.013636 
L 64.373675 98.278548 
L 65.016611 98.134051 
L 65.016611 98.730101 
L 65.338078 98.730101 
L 65.338078 99.007053 
L 65.981014 99.127467 
L 65.981014 99.464627 
L 66.302481 99.464627 
L 66.302481 100.253339 
L 66.945417 100.247319 
L 66.945417 100.488147 
L 67.266885 100.488147 
L 67.266885 100.981845 
L 67.588352 100.981845 
L 67.588352 101.361149 
L 68.231288 101.421356 
L 68.231288 101.842806 
L 68.874223 101.915054 
L 68.874223 102.372628 
L 69.195691 102.372628 
L 69.195691 102.691725 
L 69.838626 102.739891 
L 69.838626 103.173382 
L 70.803029 103.034906 
L 70.803029 103.624935 
L 71.124497 103.624935 
L 71.124497 104.299254 
L 72.0889 104.473854 
L 72.0889 104.895304 
L 72.731836 104.937449 
L 72.731836 105.413085 
L 73.374771 105.497375 
L 73.374771 105.834534 
L 73.696239 105.834534 
L 73.696239 105.521457 
L 74.660642 105.702079 
L 74.660642 105.948928 
L 74.98211 105.948928 
L 74.98211 106.460688 
L 75.946513 106.611205 
L 75.946513 107.104903 
L 76.910916 107.201235 
L 76.910916 107.598601 
L 78.196787 107.749119 
L 78.196787 107.911678 
L 78.839722 108.080258 
L 78.839722 108.309045 
L 79.16119 108.309045 
L 79.16119 108.634163 
L 79.804125 108.682328 
L 79.804125 108.862949 
L 81.411464 108.881012 
L 81.411464 109.332565 
L 82.375867 109.440937 
L 82.375867 109.71789 
L 83.661738 109.832283 
L 83.661738 110.127298 
L 84.947609 110.193526 
L 84.947609 110.566809 
L 86.876415 110.753451 
L 86.876415 110.837741 
L 87.197883 110.837741 
L 87.197883 111.138777 
L 89.126689 111.223066 
L 89.126689 111.487978 
L 90.41256 111.572267 
L 90.41256 111.716764 
L 91.376963 111.728806 
L 91.376963 111.93953 
L 93.627237 112.114131 
L 93.627237 112.234545 
L 95.234575 112.330876 
L 95.234575 112.553643 
L 95.556043 112.553643 
L 95.556043 112.324856 
L 96.520446 112.439249 
L 96.520446 112.655995 
L 96.841914 112.655995 
L 96.841914 112.397104 
L 97.163382 112.397104 
L 97.163382 112.818554 
L 99.735123 113.011216 
L 99.735123 113.023258 
L 101.342462 113.059382 
L 101.342462 113.282148 
L 101.66393 113.282148 
L 101.66393 112.987133 
L 102.306865 113.179796 
L 102.306865 113.252044 
L 102.949801 113.227962 
L 102.949801 113.04734 
L 103.271268 113.04734 
L 103.271268 113.348376 
L 107.450349 113.528997 
L 107.450349 113.607266 
L 110.665026 113.781867 
L 110.665026 113.817991 
L 118.058783 114.010654 
L 118.058783 114.070861 
L 129.953088 114.191275 
L 129.953088 114.281585 
L 239.573578 114.420062 
L 239.573578 114.426082 
" clip-path="url(#pc40a20867c)" style="fill: none; stroke: #f4a261; stroke-linejoin: miter"/>
   </g>
   <g id="patch_7">
    <path d="M 41.228 114.426082 
L 41.228 16.529498 
" style="fill: none; stroke: #000000; stroke-width: 0.8; stroke-linejoin: miter; stroke-linecap: square"/>
   </g>
   <g id="patch_8">
    <path d="M 199.628 114.426082 
L 199.628 16.529498 
" style="fill: none; stroke: #000000; stroke-width: 0.8; stroke-linejoin: miter; stroke-linecap: square"/>
   </g>
   <g id="patch_9">
    <path d="M 41.228 114.426082 
L 199.628 114.426082 
" style="fill: none; stroke: #000000; stroke-width: 0.8; stroke-linejoin: miter; stroke-linecap: square"/>
   </g>
   <g id="patch_10">
    <path d="M 41.228 16.529498 
L 199.628 16.529498 
" style="fill: none; stroke: #000000; stroke-width: 0.8; stroke-linejoin: miter; stroke-linecap: square"/>
   </g>
   <g id="legend_1">
    <g id="text_12">
     <!-- $\tau_\mathrm{lag}$ [ns] -->
     <g transform="translate(209.238733 44.564284) scale(0.0833 -0.0833)">
      <use xlink:href="#DejaVuSans-Oblique-3c4" transform="translate(0 0.015625)"/>
      <use xlink:href="#DejaVuSans-6c" transform="translate(60.205078 -16.390625) scale(0.7)"/>
      <use xlink:href="#DejaVuSans-61" transform="translate(79.65332 -16.390625) scale(0.7)"/>
      <use xlink:href="#DejaVuSans-67" transform="translate(122.548828 -16.390625) scale(0.7)"/>
      <use xlink:href="#DejaVuSans-20" transform="translate(169.716797 0.015625)"/>
      <use xlink:href="#DejaVuSans-5b" transform="translate(201.503906 0.015625)"/>
      <use xlink:href="#DejaVuSans-6e" transform="translate(240.517578 0.015625)"/>
      <use xlink:href="#DejaVuSans-73" transform="translate(303.896484 0.015625)"/>
      <use xlink:href="#DejaVuSans-5d" transform="translate(355.996094 0.015625)"/>
     </g>
    </g>
    <g id="patch_11">
     <path d="M 208.545 56.808083 
L 220.207 56.808083 
L 220.207 50.977083 
L 208.545 50.977083 
z
"/>
    </g>
    <g id="text_13">
     <!-- MD -->
     <g transform="translate(224.372 56.808083) scale(0.0833 -0.0833)">
      <defs>
       <path id="DejaVuSans-4d" d="M 628 4666 
L 1569 4666 
L 2759 1491 
L 3956 4666 
L 4897 4666 
L 4897 0 
L 4281 0 
L 4281 4097 
L 3078 897 
L 2444 897 
L 1241 4097 
L 1241 0 
L 628 0 
L 628 4666 
z
" transform="scale(0.015625)"/>
       <path id="DejaVuSans-44" d="M 1259 4147 
L 1259 519 
L 2022 519 
Q 2988 519 3436 956 
Q 3884 1394 3884 2338 
Q 3884 3275 3436 3711 
Q 2988 4147 2022 4147 
L 1259 4147 
z
M 628 4666 
L 1925 4666 
Q 3281 4666 3915 4102 
Q 4550 3538 4550 2338 
Q 4550 1131 3912 565 
Q 3275 0 1925 0 
L 628 0 
L 628 4666 
z
" transform="scale(0.015625)"/>
      </defs>
      <use xlink:href="#DejaVuSans-4d"/>
      <use xlink:href="#DejaVuSans-44" x="86.279297"/>
     </g>
    </g>
    <g id="line2d_17">
     <path d="M 208.545 65.286461 
L 220.207 65.286461 
" style="fill: none; stroke: #2a9d8f; stroke-linecap: square"/>
    </g>
    <g id="text_14">
     <!-- 10.0 -->
     <g transform="translate(224.372 68.201961) scale(0.0833 -0.0833)">
      <use xlink:href="#DejaVuSans-31"/>
      <use xlink:href="#DejaVuSans-30" x="63.623047"/>
      <use xlink:href="#DejaVuSans-2e" x="127.246094"/>
      <use xlink:href="#DejaVuSans-30" x="159.033203"/>
     </g>
    </g>
    <g id="line2d_18">
     <path d="M 208.545 76.680339 
L 220.207 76.680339 
" style="fill: none; stroke: #e9c46a; stroke-linecap: square"/>
    </g>
    <g id="text_15">
     <!-- 20.0 -->
     <g transform="translate(224.372 79.595839) scale(0.0833 -0.0833)">
      <defs>
       <path id="DejaVuSans-32" d="M 1228 531 
L 3431 531 
L 3431 0 
L 469 0 
L 469 531 
Q 828 903 1448 1529 
Q 2069 2156 2228 2338 
Q 2531 2678 2651 2914 
Q 2772 3150 2772 3378 
Q 2772 3750 2511 3984 
Q 2250 4219 1831 4219 
Q 1534 4219 1204 4116 
Q 875 4013 500 3803 
L 500 4441 
Q 881 4594 1212 4672 
Q 1544 4750 1819 4750 
Q 2544 4750 2975 4387 
Q 3406 4025 3406 3419 
Q 3406 3131 3298 2873 
Q 3191 2616 2906 2266 
Q 2828 2175 2409 1742 
Q 1991 1309 1228 531 
z
" transform="scale(0.015625)"/>
      </defs>
      <use xlink:href="#DejaVuSans-32"/>
      <use xlink:href="#DejaVuSans-30" x="63.623047"/>
      <use xlink:href="#DejaVuSans-2e" x="127.246094"/>
      <use xlink:href="#DejaVuSans-30" x="159.033203"/>
     </g>
    </g>
    <g id="line2d_19">
     <path d="M 208.545 88.074217 
L 220.207 88.074217 
" style="fill: none; stroke: #f4a261; stroke-linecap: square"/>
    </g>
    <g id="text_16">
     <!-- 40.0 -->
     <g transform="translate(224.372 90.989717) scale(0.0833 -0.0833)">
      <use xlink:href="#DejaVuSans-34"/>
      <use xlink:href="#DejaVuSans-30" x="63.623047"/>
      <use xlink:href="#DejaVuSans-2e" x="127.246094"/>
      <use xlink:href="#DejaVuSans-30" x="159.033203"/>
     </g>
    </g>
   </g>
  </g>
 </g>
 <defs>
  <clipPath id="pc40a20867c">
   <rect x="41.228" y="16.529498" width="158.4" height="97.896584"/>
  </clipPath>
 </defs>
</svg>
