<?xml version="1.0" encoding="utf-8" standalone="no"?>
<!DOCTYPE svg PUBLIC "-//W3C//DTD SVG 1.1//EN"
  "http://www.w3.org/Graphics/SVG/1.1/DTD/svg11.dtd">
<svg xmlns:xlink="http://www.w3.org/1999/xlink" width="144pt" height="144pt" viewBox="0 0 144 144" xmlns="http://www.w3.org/2000/svg" version="1.1">
 <metadata>
  <rdf:RDF xmlns:dc="http://purl.org/dc/elements/1.1/" xmlns:cc="http://creativecommons.org/ns#" xmlns:rdf="http://www.w3.org/1999/02/22-rdf-syntax-ns#">
   <cc:Work>
    <dc:type rdf:resource="http://purl.org/dc/dcmitype/StillImage"/>
    <dc:date>2023-04-21T15:06:59.748291</dc:date>
    <dc:format>image/svg+xml</dc:format>
    <dc:creator>
     <cc:Agent>
      <dc:title>Matplotlib v3.7.1, https://matplotlib.org/</dc:title>
     </cc:Agent>
    </dc:creator>
   </cc:Work>
  </rdf:RDF>
 </metadata>
 <defs>
  <style type="text/css">*{stroke-linejoin: round; stroke-linecap: butt}</style>
 </defs>
 <g id="figure_1">
  <g id="patch_1">
   <path d="M 0 144 
L 144 144 
L 144 0 
L 0 0 
L 0 144 
z
" style="fill: none"/>
  </g>
  <g id="axes_1">
   <g id="LineCollection_1">
    <path d="M 21.044236 44.847852 
L 21.862292 44.627794 
L 22.693233 44.275258 
L 23.52966 43.801436 
L 24.364171 43.217517 
L 25.189365 42.534692 
L 25.997842 41.764153 
L 26.782202 40.917089 
L 27.535043 40.004692 
L 28.248965 39.038152 
L 28.916568 38.02866 
L 29.53045 36.987406 
L 30.083211 35.925582 
L 30.56745 34.854377 
L 30.975767 33.784983 
L 31.30076 32.72859 
L 31.53503 31.696388 
L 31.671176 30.69957 
L 31.701796 29.749324 
L 31.61949 28.856842 
" clip-path="url(#p3bed76f877)" style="fill: none; stroke: #000000; stroke-width: 12.949813"/>
    <path d="M 21.568413 31.503557 
L 21.992565 31.731034 
L 22.468225 31.907262 
L 22.98836 32.034094 
L 23.545937 32.113381 
L 24.13392 32.146976 
L 24.745277 32.136731 
L 25.372973 32.084498 
L 26.009975 31.992129 
L 26.649249 31.861477 
L 27.283761 31.694393 
L 27.906477 31.49273 
L 28.510363 31.25834 
L 29.088385 30.993076 
L 29.633511 30.698789 
L 30.138705 30.377331 
L 30.596933 30.030556 
L 31.001163 29.660314 
L 31.34436 29.268459 
L 31.61949 28.856842 
" clip-path="url(#p3bed76f877)" style="fill: none; stroke: #000000; stroke-width: 4.096827"/>
    <path d="M 31.61949 28.856842 
L 32.540551 29.011657 
L 33.48832 29.310884 
L 34.453592 29.743 
L 35.427167 30.296478 
L 36.399841 30.959795 
L 37.362413 31.721426 
L 38.30568 32.569845 
L 39.220439 33.493528 
L 40.097488 34.48095 
L 40.927624 35.520586 
L 41.701646 36.600911 
L 42.41035 37.710401 
L 43.044535 38.837531 
L 43.594997 39.970775 
L 44.052535 41.098609 
L 44.407945 42.209509 
L 44.652026 43.291949 
L 44.775575 44.334404 
L 44.76939 45.325351 
" clip-path="url(#p3bed76f877)" style="fill: none; stroke: #000000; stroke-width: 1.345639"/>
    <path d="M 31.61949 28.856842 
L 32.036587 28.055381 
L 32.580161 27.274819 
L 33.237888 26.520015 
L 33.997445 25.79583 
L 34.846507 25.107124 
L 35.77275 24.458756 
L 36.76385 23.855587 
L 37.807484 23.302477 
L 38.891327 22.804285 
L 40.003055 22.365873 
L 41.130344 21.992099 
L 42.260871 21.687823 
L 43.382311 21.457906 
L 44.48234 21.307208 
L 45.548634 21.240589 
L 46.56887 21.262909 
L 47.530722 21.379027 
L 48.421868 21.593804 
L 49.229983 21.9121 
" clip-path="url(#p3bed76f877)" style="fill: none; stroke: #000000; stroke-width: 1.477988"/>
    <path d="M 31.61949 28.856842 
L 34.320879 32.029884 
L 36.743761 35.765292 
L 38.886594 39.997824 
L 40.747833 44.662234 
L 42.325935 49.693279 
L 43.619356 55.025716 
L 44.626553 60.594298 
L 45.34598 66.333784 
L 45.776096 72.178928 
L 45.915356 78.064487 
L 45.762216 83.925217 
L 45.315132 89.695872 
L 44.572562 95.31121 
L 43.53296 100.705987 
L 42.194783 105.814957 
L 40.556488 110.572878 
L 38.616531 114.914505 
L 36.373368 118.774594 
L 33.825455 122.0879 
" clip-path="url(#p3bed76f877)" style="fill: none; stroke: #000000; stroke-width: 0.176315"/>
    <path d="M 31.61949 28.856842 
L 34.585119 30.025802 
L 37.548744 31.693973 
L 40.487012 33.816494 
L 43.376567 36.348504 
L 46.194054 39.245142 
L 48.916119 42.461546 
L 51.519405 45.952856 
L 53.980558 49.67421 
L 56.276223 53.580747 
L 58.383045 57.627605 
L 60.277669 61.769923 
L 61.936739 65.962841 
L 63.336901 70.161497 
L 64.454799 74.321029 
L 65.267079 78.396576 
L 65.750386 82.343277 
L 65.881363 86.116272 
L 65.636657 89.670698 
L 64.992912 92.961694 
" clip-path="url(#p3bed76f877)" style="fill: none; stroke: #000000; stroke-width: 0.18268"/>
    <path d="M 31.61949 28.856842 
L 32.094635 32.197495 
L 33.03246 35.638283 
L 34.396206 39.145598 
L 36.149115 42.685829 
L 38.254429 46.225365 
L 40.675387 49.730597 
L 43.375231 53.167915 
L 46.317203 56.503708 
L 49.464544 59.704367 
L 52.780495 62.73628 
L 56.228297 65.565839 
L 59.771191 68.159433 
L 63.372419 70.483451 
L 66.995221 72.504284 
L 70.602839 74.188322 
L 74.158514 75.501954 
L 77.625488 76.41157 
L 80.967001 76.883561 
L 84.146294 76.884315 
" clip-path="url(#p3bed76f877)" style="fill: none; stroke: #000000; stroke-width: 0.14958"/>
    <path d="M 31.61949 28.856842 
L 33.413963 31.004799 
L 35.581947 32.996464 
L 38.082587 34.825963 
L 40.875032 36.487422 
L 43.918427 37.974968 
L 47.171917 39.282726 
L 50.594651 40.404823 
L 54.145774 41.335386 
L 57.784432 42.068539 
L 61.469772 42.598409 
L 65.16094 42.919123 
L 68.817082 43.024806 
L 72.397346 42.909585 
L 75.860876 42.567586 
L 79.16682 41.992935 
L 82.274324 41.179758 
L 85.142534 40.122181 
L 87.730596 38.81433 
L 89.997658 37.250332 
" clip-path="url(#p3bed76f877)" style="fill: none; stroke: #000000; stroke-width: 0.221504"/>
    <path d="M 31.61949 28.856842 
L 34.069616 26.852177 
L 36.907921 25.108293 
L 40.087311 23.622477 
L 43.560692 22.392017 
L 47.280969 21.414199 
L 51.201046 20.686311 
L 55.27383 20.205641 
L 59.452226 19.969475 
L 63.689139 19.975102 
L 67.937473 20.219808 
L 72.150136 20.700881 
L 76.280031 21.415608 
L 80.280064 22.361276 
L 84.103141 23.535173 
L 87.702166 24.934586 
L 91.030046 26.556802 
L 94.039684 28.399109 
L 96.683988 30.458794 
L 98.915861 32.733144 
" clip-path="url(#p3bed76f877)" style="fill: none; stroke: #000000; stroke-width: 0.149981"/>
    <path d="M 31.61949 28.856842 
L 34.081874 30.704645 
L 36.912476 32.281841 
L 40.06553 33.593088 
L 43.495265 34.64304 
L 47.155915 35.436355 
L 51.001711 35.977689 
L 54.986883 36.271698 
L 59.065665 36.323038 
L 63.192286 36.136365 
L 67.32098 35.716336 
L 71.405977 35.067607 
L 75.401509 34.194833 
L 79.261807 33.102672 
L 82.941104 31.795779 
L 86.393631 30.278811 
L 89.573618 28.556423 
L 92.435299 26.633273 
L 94.932904 24.514016 
L 97.020666 22.203308 
" clip-path="url(#p3bed76f877)" style="fill: none; stroke: #000000; stroke-width: 0.107302"/>
    <path d="M 21.044236 44.847852 
L 21.438141 44.400316 
L 21.793422 43.871552 
L 22.109713 43.270898 
L 22.386647 42.607692 
L 22.623858 41.891273 
L 22.820979 41.130979 
L 22.977642 40.336148 
L 23.093481 39.51612 
L 23.16813 38.680232 
L 23.20122 37.837824 
L 23.192386 36.998233 
L 23.141261 36.170798 
L 23.047478 35.364858 
L 22.910669 34.589751 
L 22.730469 33.854815 
L 22.50651 33.169389 
L 22.238426 32.542812 
L 21.925849 31.984422 
L 21.568413 31.503557 
" clip-path="url(#p3bed76f877)" style="fill: none; stroke: #000000; stroke-width: 1.579242"/>
    <path d="M 21.044236 44.847852 
L 21.882992 44.110184 
L 22.86138 43.459166 
L 23.962798 42.894463 
L 25.170643 42.41574 
L 26.468311 42.022664 
L 27.8392 41.7149 
L 29.266706 41.492114 
L 30.734226 41.353973 
L 32.225157 41.300141 
L 33.722896 41.330285 
L 35.210839 41.44407 
L 36.672385 41.641163 
L 38.090929 41.921229 
L 39.449868 42.283934 
L 40.7326 42.728944 
L 41.922522 43.255925 
L 43.003029 43.864543 
L 43.957519 44.554462 
L 44.76939 45.325351 
" clip-path="url(#p3bed76f877)" style="fill: none; stroke: #000000; stroke-width: 0.295859"/>
    <path d="M 21.044236 44.847852 
L 22.670407 44.946089 
L 24.392494 44.808331 
L 26.190773 44.450626 
L 28.045519 43.889027 
L 29.937008 43.139583 
L 31.845514 42.218346 
L 33.751314 41.141366 
L 35.634682 39.924693 
L 37.475893 38.584379 
L 39.255224 37.136474 
L 40.952949 35.597029 
L 42.549343 33.982094 
L 44.024683 32.307721 
L 45.359243 30.589959 
L 46.533298 28.844859 
L 47.527125 27.088473 
L 48.320997 25.33685 
L 48.895192 23.606042 
L 49.229983 21.9121 
" clip-path="url(#p3bed76f877)" style="fill: none; stroke: #000000; stroke-width: 0.29549"/>
    <path d="M 21.044236 44.847852 
L 23.927559 45.124329 
L 26.921805 45.842255 
L 29.996218 46.967957 
L 33.120043 48.467766 
L 36.262524 50.308011 
L 39.392905 52.455021 
L 42.480431 54.875126 
L 45.494345 57.534655 
L 48.403892 60.399938 
L 51.178316 63.437304 
L 53.786862 66.613083 
L 56.198774 69.893603 
L 58.383295 73.245195 
L 60.309671 76.634188 
L 61.947145 80.026911 
L 63.264962 83.389693 
L 64.232366 86.688865 
L 64.818601 89.890756 
L 64.992912 92.961694 
" clip-path="url(#p3bed76f877)" style="fill: none; stroke: #000000; stroke-width: 0.117469"/>
    <path d="M 21.044236 44.847852 
L 24.141224 43.956125 
L 27.513358 43.47787 
L 31.116477 43.390667 
L 34.906422 43.672098 
L 38.839034 44.299742 
L 42.870153 45.251181 
L 46.95562 46.503995 
L 51.051275 48.035764 
L 55.112958 49.824069 
L 59.096512 51.846491 
L 62.957775 54.080609 
L 66.652588 56.504005 
L 70.136792 59.094259 
L 73.366228 61.828952 
L 76.296735 64.685664 
L 78.884155 67.641976 
L 81.084328 70.675468 
L 82.853094 73.763721 
L 84.146294 76.884315 
" clip-path="url(#p3bed76f877)" style="fill: none; stroke: #000000; stroke-width: 0.107637"/>
    <path d="M 21.044236 44.847852 
L 23.228992 42.391372 
L 25.847675 40.133276 
L 28.852031 38.07888 
L 32.193804 36.233502 
L 35.824742 34.602458 
L 39.696589 33.191064 
L 43.761091 32.004638 
L 47.969995 31.048497 
L 52.275045 30.327957 
L 56.627987 29.848335 
L 60.980568 29.614948 
L 65.284531 29.633113 
L 69.491625 29.908147 
L 73.553593 30.445366 
L 77.422182 31.250088 
L 81.049137 32.327628 
L 84.386204 33.683304 
L 87.385129 35.322434 
L 89.997658 37.250332 
" clip-path="url(#p3bed76f877)" style="fill: none; stroke: #000000; stroke-width: 0.153818"/>
    <path d="M 21.044236 44.847852 
L 24.094165 46.902144 
L 27.56941 48.609293 
L 31.415475 49.977778 
L 35.577865 51.016075 
L 40.002085 51.732664 
L 44.633639 52.136021 
L 49.418032 52.234626 
L 54.300768 52.036956 
L 59.227353 51.551489 
L 64.14329 50.786703 
L 68.994084 49.751075 
L 73.725241 48.453085 
L 78.282264 46.90121 
L 82.610659 45.103928 
L 86.655929 43.069718 
L 90.36358 40.807056 
L 93.679115 38.324421 
L 96.548041 35.630291 
L 98.915861 32.733144 
" clip-path="url(#p3bed76f877)" style="fill: none; stroke: #000000; stroke-width: 0.114732"/>
    <path d="M 21.044236 44.847852 
L 24.324675 46.475596 
L 27.986219 47.700257 
L 31.975699 48.537681 
L 36.239946 49.003714 
L 40.72579 49.114205 
L 45.380062 48.885 
L 50.149595 48.331945 
L 54.981217 47.470888 
L 59.821761 46.317675 
L 64.618057 44.888154 
L 69.316936 43.198171 
L 73.865229 41.263573 
L 78.209767 39.100207 
L 82.29738 36.723919 
L 86.0749 34.150558 
L 89.489158 31.395969 
L 92.486984 28.476 
L 95.01521 25.406498 
L 97.020666 22.203308 
" clip-path="url(#p3bed76f877)" style="fill: none; stroke: #000000; stroke-width: 0.109855"/>
    <path d="M 21.568413 31.503557 
L 22.764605 31.246754 
L 24.05557 31.154127 
L 25.425072 31.216 
L 26.856876 31.422704 
L 28.334744 31.764563 
L 29.842441 32.231906 
L 31.36373 32.815061 
L 32.882376 33.504354 
L 34.38214 34.290113 
L 35.846789 35.162666 
L 37.260084 36.112339 
L 38.60579 37.12946 
L 39.867671 38.204356 
L 41.02949 39.327355 
L 42.075011 40.488785 
L 42.987998 41.678972 
L 43.752214 42.888243 
L 44.351424 44.106927 
L 44.76939 45.325351 
" clip-path="url(#p3bed76f877)" style="fill: none; stroke: #000000; stroke-width: 0.211681"/>
    <path d="M 21.568413 31.503557 
L 22.80068 32.04933 
L 24.167486 32.440335 
L 25.649474 32.683285 
L 27.227285 32.784892 
L 28.881563 32.751867 
L 30.592949 32.590924 
L 32.342085 32.308774 
L 34.109614 31.91213 
L 35.876177 31.407704 
L 37.622417 30.802207 
L 39.328976 30.102353 
L 40.976495 29.314853 
L 42.545618 28.446419 
L 44.016987 27.503764 
L 45.371242 26.493601 
L 46.589028 25.42264 
L 47.650985 24.297595 
L 48.537756 23.125177 
L 49.229983 21.9121 
" clip-path="url(#p3bed76f877)" style="fill: none; stroke: #000000; stroke-width: 0.215014"/>
    <path d="M 21.568413 31.503557 
L 24.544932 34.264981 
L 27.311011 37.608534 
L 29.858074 41.470824 
L 32.177542 45.788459 
L 34.260838 50.498047 
L 36.099384 55.536196 
L 37.684603 60.839515 
L 39.007917 66.344611 
L 40.060749 71.988092 
L 40.83452 77.706567 
L 41.320654 83.436644 
L 41.510573 89.114931 
L 41.395698 94.678036 
L 40.967453 100.062567 
L 40.21726 105.205133 
L 39.136541 110.042341 
L 37.716719 114.510799 
L 35.949216 118.547116 
L 33.825455 122.0879 
" clip-path="url(#p3bed76f877)" style="fill: none; stroke: #000000; stroke-width: 0.119077"/>
    <path d="M 21.568413 31.503557 
L 21.34882 35.02203 
L 21.579774 38.752685 
L 22.230887 42.652511 
L 23.271769 46.678499 
L 24.672032 50.787641 
L 26.401288 54.936928 
L 28.429146 59.083351 
L 30.725218 63.183899 
L 33.259116 67.195565 
L 36.000449 71.07534 
L 38.91883 74.780214 
L 41.98387 78.267178 
L 45.165179 81.493223 
L 48.432368 84.415341 
L 51.755049 86.990521 
L 55.102833 89.175756 
L 58.445331 90.928036 
L 61.752153 92.204351 
L 64.992912 92.961694 
" clip-path="url(#p3bed76f877)" style="fill: none; stroke: #000000; stroke-width: 0.113259"/>
    <path d="M 21.568413 31.503557 
L 25.022837 31.092694 
L 28.707547 31.17283 
L 32.578751 31.712205 
L 36.592655 32.679061 
L 40.705467 34.041642 
L 44.873394 35.768188 
L 49.052644 37.826942 
L 53.199425 40.186145 
L 57.269942 42.814041 
L 61.220405 45.678871 
L 65.00702 48.748877 
L 68.585994 51.992302 
L 71.913535 55.377386 
L 74.94585 58.872373 
L 77.639146 62.445504 
L 79.949632 66.065022 
L 81.833513 69.699169 
L 83.246998 73.316186 
L 84.146294 76.884315 
" clip-path="url(#p3bed76f877)" style="fill: none; stroke: #000000; stroke-width: 0.113489"/>
    <path d="M 21.568413 31.503557 
L 24.110605 29.527942 
L 27.041865 27.828236 
L 30.314304 26.400418 
L 33.880037 25.240465 
L 37.691175 24.344357 
L 41.69983 23.70807 
L 45.858116 23.327585 
L 50.118145 23.198878 
L 54.432029 23.317929 
L 58.751881 23.680716 
L 63.029812 24.283217 
L 67.217937 25.12141 
L 71.268367 26.191274 
L 75.133215 27.488787 
L 78.764593 29.009928 
L 82.114614 30.750674 
L 85.13539 32.707005 
L 87.779034 34.874898 
L 89.997658 37.250332 
" clip-path="url(#p3bed76f877)" style="fill: none; stroke: #000000; stroke-width: 0.108621"/>
    <path d="M 44.76939 45.325351 
L 44.265425 44.369075 
L 43.861231 43.289285 
L 43.553686 42.102366 
L 43.339668 40.824703 
L 43.216055 39.472679 
L 43.179727 38.062681 
L 43.22756 36.611093 
L 43.356435 35.1343 
L 43.563229 33.648687 
L 43.84482 32.170638 
L 44.198088 30.716538 
L 44.619911 29.302773 
L 45.107166 27.945726 
L 45.656733 26.661784 
L 46.265489 25.46733 
L 46.930314 24.37875 
L 47.648086 23.412428 
L 48.415683 22.58475 
L 49.229983 21.9121 
" clip-path="url(#p3bed76f877)" style="fill: none; stroke: #000000; stroke-width: 0.758944"/>
    <path d="M 44.76939 45.325351 
L 45.25072 47.675057 
L 46.064995 50.07339 
L 47.184661 52.498265 
L 48.58216 54.927596 
L 50.229935 57.339298 
L 52.100431 59.711285 
L 54.166091 62.021473 
L 56.399359 64.247777 
L 58.772678 66.36811 
L 61.258492 68.360387 
L 63.829245 70.202524 
L 66.45738 71.872435 
L 69.115341 73.348034 
L 71.775572 74.607237 
L 74.410515 75.627958 
L 76.992616 76.388111 
L 79.494317 76.865612 
L 81.888062 77.038375 
L 84.146294 76.884315 
" clip-path="url(#p3bed76f877)" style="fill: none; stroke: #000000; stroke-width: 0.119262"/>
    <path d="M 44.76939 45.325351 
L 46.570048 46.482361 
L 48.614482 47.43157 
L 50.871042 48.178629 
L 53.308076 48.729189 
L 55.893933 49.0889 
L 58.596962 49.263414 
L 61.385511 49.258382 
L 64.227929 49.079454 
L 67.092566 48.732282 
L 69.947769 48.222516 
L 72.761888 47.555808 
L 75.503272 46.737808 
L 78.140268 45.774168 
L 80.641227 44.670539 
L 82.974496 43.43257 
L 85.108425 42.065915 
L 87.011363 40.576223 
L 88.651657 38.969145 
L 89.997658 37.250332 
" clip-path="url(#p3bed76f877)" style="fill: none; stroke: #000000; stroke-width: 0.129582"/>
    <path d="M 44.76939 45.325351 
L 46.298454 43.165871 
L 48.188991 41.122759 
L 50.403109 39.204828 
L 52.902915 37.420889 
L 55.650517 35.779754 
L 58.608023 34.290236 
L 61.73754 32.961147 
L 65.001177 31.801298 
L 68.36104 30.819503 
L 71.779239 30.024573 
L 75.217879 29.42532 
L 78.63907 29.030557 
L 82.004919 28.849096 
L 85.277533 28.889748 
L 88.419021 29.161327 
L 91.39149 29.672644 
L 94.157048 30.432511 
L 96.677802 31.44974 
L 98.915861 32.733144 
" clip-path="url(#p3bed76f877)" style="fill: none; stroke: #000000; stroke-width: 0.159281"/>
    <path d="M 49.229983 21.9121 
L 48.897013 24.934456 
L 48.943692 28.160468 
L 49.345585 31.551664 
L 50.078259 35.069575 
L 51.117278 38.675731 
L 52.438207 42.331661 
L 54.016612 45.998896 
L 55.828057 49.638964 
L 57.848109 53.213397 
L 60.052331 56.683723 
L 62.41629 60.011474 
L 64.915551 63.158177 
L 67.525678 66.085365 
L 70.222237 68.754566 
L 72.980794 71.12731 
L 75.776912 73.165127 
L 78.586158 74.829547 
L 81.384097 76.0821 
L 84.146294 76.884315 
" clip-path="url(#p3bed76f877)" style="fill: none; stroke: #000000; stroke-width: 0.130466"/>
    <path d="M 49.229983 21.9121 
L 50.216341 23.741761 
L 51.493178 25.518648 
L 53.031967 27.232029 
L 54.804176 28.871169 
L 56.781276 30.425334 
L 58.934738 31.88379 
L 61.236032 33.235804 
L 63.656628 34.470642 
L 66.167997 35.577569 
L 68.741608 36.545852 
L 71.348933 37.364757 
L 73.961442 38.023551 
L 76.550605 38.511499 
L 79.087892 38.817867 
L 81.544775 38.931922 
L 83.892722 38.84293 
L 86.103204 38.540157 
L 88.147693 38.012869 
L 89.997658 37.250332 
" clip-path="url(#p3bed76f877)" style="fill: none; stroke: #000000; stroke-width: 0.136043"/>
    <path d="M 49.229983 21.9121 
L 51.263012 20.708896 
L 53.557743 19.745574 
L 56.079406 19.014562 
L 58.79323 18.508286 
L 61.664445 18.219175 
L 64.658279 18.139655 
L 67.739963 18.262153 
L 70.874725 18.579098 
L 74.027795 19.082916 
L 77.164401 19.766035 
L 80.249774 20.620882 
L 83.249143 21.639884 
L 86.127736 22.815469 
L 88.850784 24.140064 
L 91.383515 25.606096 
L 93.691159 27.205993 
L 95.738945 28.932182 
L 97.492103 30.77709 
L 98.915861 32.733144 
" clip-path="url(#p3bed76f877)" style="fill: none; stroke: #000000; stroke-width: 0.203117"/>
    <path d="M 49.229983 21.9121 
L 50.900648 20.402853 
L 52.854679 19.064158 
L 55.058632 17.895812 
L 57.479063 16.89761 
L 60.082528 16.069348 
L 62.835582 15.410822 
L 65.70478 14.92183 
L 68.656678 14.602167 
L 71.657832 14.451629 
L 74.674798 14.470013 
L 77.67413 14.657114 
L 80.622385 15.012729 
L 83.486117 15.536655 
L 86.231884 16.228687 
L 88.826239 17.088621 
L 91.23574 18.116254 
L 93.426941 19.311382 
L 95.366397 20.673802 
L 97.020666 22.203308 
" clip-path="url(#p3bed76f877)" style="fill: none; stroke: #000000; stroke-width: 0.181536"/>
    <path d="M 33.825455 122.0879 
L 34.089694 120.083818 
L 34.630438 118.016581 
L 35.425873 115.906571 
L 36.454189 113.77417 
L 37.693574 111.639763 
L 39.122217 109.523731 
L 40.718307 107.446458 
L 42.460032 105.428326 
L 44.325582 103.489719 
L 46.293144 101.651018 
L 48.340908 99.932607 
L 50.447061 98.354869 
L 52.589794 96.938186 
L 54.747294 95.702942 
L 56.897751 94.669519 
L 59.019352 93.8583 
L 61.090287 93.289667 
L 63.088744 92.984004 
L 64.992912 92.961694 
" clip-path="url(#p3bed76f877)" style="fill: none; stroke: #000000; stroke-width: 0.230303"/>
    <path d="M 33.825455 122.0879 
L 36.848512 122.115246 
L 40.0295 121.695946 
L 43.333204 120.861634 
L 46.724408 119.643944 
L 50.167898 118.074509 
L 53.628458 116.184965 
L 57.070873 114.006945 
L 60.459929 111.572082 
L 63.76041 108.912011 
L 66.937101 106.058366 
L 69.954787 103.042781 
L 72.778253 99.896889 
L 75.372284 96.652324 
L 77.701665 93.340721 
L 79.731182 89.993713 
L 81.425618 86.642935 
L 82.749758 83.32002 
L 83.668389 80.056602 
L 84.146294 76.884315 
" clip-path="url(#p3bed76f877)" style="fill: none; stroke: #000000; stroke-width: 0.196245"/>
    <path d="M 33.825455 122.0879 
L 38.16784 120.92255 
L 42.578987 119.054126 
L 47.019585 116.541998 
L 51.450325 113.445537 
L 55.831896 109.824112 
L 60.124989 105.737094 
L 64.290293 101.243853 
L 68.288499 96.40376 
L 72.080297 91.276183 
L 75.626378 85.920495 
L 78.88743 80.396065 
L 81.824144 74.762262 
L 84.397211 69.078458 
L 86.567321 63.404023 
L 88.295162 57.798326 
L 89.541427 52.320739 
L 90.266804 47.03063 
L 90.431984 41.987371 
L 89.997658 37.250332 
" clip-path="url(#p3bed76f877)" style="fill: none; stroke: #000000; stroke-width: 0.114069"/>
    <path d="M 33.825455 122.0879 
L 33.574192 116.910194 
L 33.989614 111.430901 
L 35.026172 105.712554 
L 36.638314 99.817683 
L 38.780488 93.80882 
L 41.407145 87.748496 
L 44.472732 81.699243 
L 47.9317 75.723592 
L 51.738497 69.884074 
L 55.847572 64.243221 
L 60.213374 58.863565 
L 64.790353 53.807636 
L 69.532957 49.137966 
L 74.395635 44.917086 
L 79.332837 41.207529 
L 84.299012 38.071824 
L 89.248608 35.572505 
L 94.136074 33.772101 
L 98.915861 32.733144 
" clip-path="url(#p3bed76f877)" style="fill: none; stroke: #000000; stroke-width: 0.109468"/>
    <path d="M 33.825455 122.0879 
L 39.074494 122.266726 
L 44.614992 121.67673 
L 50.384572 120.371322 
L 56.320862 118.40391 
L 62.361487 115.827901 
L 68.444072 112.696704 
L 74.506244 109.063727 
L 80.485627 104.982379 
L 86.319847 100.506067 
L 91.946531 95.688201 
L 97.303304 90.582187 
L 102.327791 85.241435 
L 106.957618 79.719352 
L 111.130411 74.069347 
L 114.783796 68.344828 
L 117.855398 62.599203 
L 120.282843 56.88588 
L 122.003756 51.258269 
L 122.955764 45.769776 
" clip-path="url(#p3bed76f877)" style="fill: none; stroke: #000000; stroke-width: 0.107726"/>
    <path d="M 64.992912 92.961694 
L 66.111801 93.01135 
L 67.294332 92.897713 
L 68.527101 92.632033 
L 69.796704 92.225562 
L 71.089738 91.689551 
L 72.392797 91.035251 
L 73.69248 90.273914 
L 74.975382 89.416789 
L 76.228099 88.475129 
L 77.437228 87.460184 
L 78.589365 86.383207 
L 79.671105 85.255446 
L 80.669047 84.088155 
L 81.569785 82.892584 
L 82.359916 81.679983 
L 83.026036 80.461605 
L 83.554741 79.2487 
L 83.932629 78.05252 
L 84.146294 76.884315 
" clip-path="url(#p3bed76f877)" style="fill: none; stroke: #000000; stroke-width: 0.604101"/>
    <path d="M 64.992912 92.961694 
L 67.431129 91.818654 
L 69.843819 90.255893 
L 72.213483 88.312398 
L 74.522621 86.027156 
L 76.753736 83.439154 
L 78.889328 80.58738 
L 80.9119 77.510822 
L 82.803952 74.248467 
L 84.547987 70.839301 
L 86.126505 67.322313 
L 87.522008 63.73649 
L 88.716997 60.12082 
L 89.693974 56.514289 
L 90.43544 52.955885 
L 90.923897 49.484596 
L 91.141845 46.139409 
L 91.071787 42.959311 
L 90.696224 39.983289 
L 89.997658 37.250332 
" clip-path="url(#p3bed76f877)" style="fill: none; stroke: #000000; stroke-width: 0.2328"/>
    <path d="M 64.992912 92.961694 
L 64.477409 89.788069 
L 64.352089 86.376014 
L 64.593211 82.767677 
L 65.177037 79.005206 
L 66.079826 75.130751 
L 67.27784 71.186459 
L 68.747337 67.214478 
L 70.46458 63.256959 
L 72.405827 59.356049 
L 74.54734 55.553897 
L 76.865379 51.892651 
L 79.336204 48.41446 
L 81.936075 45.161473 
L 84.641253 42.175838 
L 87.427999 39.499704 
L 90.272572 37.175219 
L 93.151233 35.244531 
L 96.040243 33.74979 
L 98.915861 32.733144 
" clip-path="url(#p3bed76f877)" style="fill: none; stroke: #000000; stroke-width: 0.132538"/>
    <path d="M 64.992912 92.961694 
L 68.337783 93.16283 
L 71.879824 92.878497 
L 75.57847 92.141722 
L 79.393158 90.985528 
L 83.283327 89.442943 
L 87.208412 87.54699 
L 91.12785 85.330696 
L 95.00108 82.827086 
L 98.787537 80.069185 
L 102.446658 77.090019 
L 105.937881 73.922613 
L 109.220643 70.599992 
L 112.25438 67.155183 
L 114.99853 63.621209 
L 117.41253 60.031098 
L 119.455816 56.417873 
L 121.087826 52.814561 
L 122.267996 49.254187 
L 122.955764 45.769776 
" clip-path="url(#p3bed76f877)" style="fill: none; stroke: #000000; stroke-width: 0.108897"/>
    <path d="M 84.146294 76.884315 
L 85.465622 75.69162 
L 86.695781 74.242496 
L 87.832675 72.56468 
L 88.872211 70.685909 
L 89.810292 68.633918 
L 90.642825 66.436444 
L 91.365714 64.121224 
L 91.974865 61.715993 
L 92.466182 59.248488 
L 92.835571 56.746444 
L 93.078937 54.237599 
L 93.192186 51.749689 
L 93.171221 49.310449 
L 93.011949 46.947617 
L 92.710275 44.688928 
L 92.262104 42.562119 
L 91.66334 40.594926 
L 90.90989 38.815085 
L 89.997658 37.250332 
" clip-path="url(#p3bed76f877)" style="fill: none; stroke: #000000; stroke-width: 0.316475"/>
    <path d="M 84.146294 76.884315 
L 85.903023 75.818013 
L 87.609501 74.43691 
L 89.255394 72.771902 
L 90.830364 70.853888 
L 92.324076 68.713764 
L 93.726195 66.382429 
L 95.026383 63.89078 
L 96.214306 61.269713 
L 97.279628 58.550128 
L 98.212012 55.76292 
L 99.001123 52.938988 
L 99.636624 50.109229 
L 100.108181 47.30454 
L 100.405456 44.555819 
L 100.518114 41.893964 
L 100.43582 39.349871 
L 100.148237 36.954439 
L 99.645029 34.738564 
L 98.915861 32.733144 
" clip-path="url(#p3bed76f877)" style="fill: none; stroke: #000000; stroke-width: 0.338502"/>
    <path d="M 84.146294 76.884315 
L 84.620397 74.568109 
L 85.422679 72.203915 
L 86.525983 69.813508 
L 87.903149 67.418661 
L 89.527018 65.04115 
L 91.37043 62.702748 
L 93.406226 60.42523 
L 95.607247 58.230369 
L 97.946333 56.139941 
L 100.396326 54.17572 
L 102.930066 52.359479 
L 105.520393 50.712993 
L 108.140149 49.258037 
L 110.762174 48.016384 
L 113.35931 47.00981 
L 115.904395 46.260087 
L 118.370272 45.788991 
L 120.729782 45.618296 
L 122.955764 45.769776 
" clip-path="url(#p3bed76f877)" style="fill: none; stroke: #000000; stroke-width: 0.153327"/>
    <path d="M 84.146294 76.884315 
L 86.133533 75.391465 
L 88.026311 73.527873 
L 89.815618 71.331805 
L 91.492444 68.841527 
L 93.047781 66.095306 
L 94.472618 63.131407 
L 95.757946 59.988098 
L 96.894755 56.703645 
L 97.874036 53.316314 
L 98.686779 49.864371 
L 99.323974 46.386083 
L 99.776612 42.919716 
L 100.035683 39.503536 
L 100.092178 36.17581 
L 99.937086 32.974804 
L 99.561398 29.938785 
L 98.956106 27.106018 
L 98.112198 24.514771 
L 97.020666 22.203308 
" clip-path="url(#p3bed76f877)" style="fill: none; stroke: #000000; stroke-width: 0.127261"/>
    <path d="M 89.997658 37.250332 
L 90.435058 37.376726 
L 90.911378 37.444746 
L 91.420376 37.457554 
L 91.955811 37.418311 
L 92.511441 37.330178 
L 93.081027 37.196317 
L 93.658327 37.019888 
L 94.237099 36.804053 
L 94.811103 36.551972 
L 95.374098 36.266808 
L 95.919843 35.951721 
L 96.442096 35.609872 
L 96.934617 35.244423 
L 97.391164 34.858534 
L 97.805497 34.455368 
L 98.171374 34.038084 
L 98.482554 33.609845 
L 98.732797 33.173812 
L 98.915861 32.733144 
" clip-path="url(#p3bed76f877)" style="fill: none; stroke: #000000; stroke-width: 4.621142"/>
    <path d="M 89.997658 37.250332 
L 91.383992 36.498879 
L 92.939725 35.914526 
L 94.641793 35.491311 
L 96.46713 35.223274 
L 98.392673 35.104452 
L 100.395357 35.128882 
L 102.452117 35.290603 
L 104.53989 35.583653 
L 106.63561 36.00207 
L 108.716214 36.539892 
L 110.758636 37.191156 
L 112.739813 37.949902 
L 114.63668 38.810166 
L 116.426172 39.765987 
L 118.085226 40.811403 
L 119.590776 41.940452 
L 120.919759 43.147172 
L 122.04911 44.4256 
L 122.955764 45.769776 
" clip-path="url(#p3bed76f877)" style="fill: none; stroke: #000000; stroke-width: 0.379459"/>
    <path d="M 89.997658 37.250332 
L 90.665568 36.950178 
L 91.328187 36.53571 
L 91.9806 36.017457 
L 92.617891 35.40595 
L 93.235146 34.71172 
L 93.827451 33.945295 
L 94.38989 33.117207 
L 94.917548 32.237985 
L 95.405512 31.318159 
L 95.848865 30.368259 
L 96.242694 29.398816 
L 96.582084 28.420359 
L 96.862119 27.443419 
L 97.077886 26.478525 
L 97.224468 25.536208 
L 97.296952 24.626998 
L 97.290423 23.761425 
L 97.199966 22.950018 
L 97.020666 22.203308 
" clip-path="url(#p3bed76f877)" style="fill: none; stroke: #000000; stroke-width: 1.595206"/>
    <path d="M 98.915861 32.733144 
L 100.119131 32.422358 
L 101.424622 32.274039 
L 102.815509 32.279064 
L 104.274969 32.42831 
L 105.78618 32.712654 
L 107.332316 33.122973 
L 108.896556 33.650143 
L 110.462075 34.285042 
L 112.012051 35.018546 
L 113.52966 35.841532 
L 114.998078 36.744877 
L 116.400482 37.719457 
L 117.72005 38.756151 
L 118.939956 39.845833 
L 120.043379 40.979382 
L 121.013495 42.147674 
L 121.83348 43.341585 
L 122.48651 44.551994 
L 122.955764 45.769776 
" clip-path="url(#p3bed76f877)" style="fill: none; stroke: #000000; stroke-width: 0.353318"/>
    <path d="M 97.020666 22.203308 
L 97.38303 22.509351 
L 97.72373 22.884724 
L 98.041439 23.322058 
L 98.334832 23.813985 
L 98.602582 24.353135 
L 98.843363 24.932141 
L 99.055849 25.543632 
L 99.238712 26.18024 
L 99.390628 26.834596 
L 99.510269 27.499331 
L 99.59631 28.167076 
L 99.647424 28.830463 
L 99.662284 29.482123 
L 99.639566 30.114686 
L 99.577941 30.720784 
L 99.476085 31.293047 
L 99.33267 31.824108 
L 99.146371 32.306597 
L 98.915861 32.733144 
" clip-path="url(#p3bed76f877)" style="fill: none; stroke: #000000; stroke-width: 1.679209"/>
    <path d="M 97.020666 22.203308 
L 98.5863 22.198564 
L 100.232491 22.425618 
L 101.941088 22.867977 
L 103.693941 23.50915 
L 105.472901 24.332645 
L 107.259819 25.321969 
L 109.036544 26.46063 
L 110.784927 27.732137 
L 112.486818 29.119997 
L 114.124068 30.607718 
L 115.678527 32.178809 
L 117.132045 33.816776 
L 118.466473 35.505129 
L 119.663661 37.227374 
L 120.70546 38.967021 
L 121.573719 40.707577 
L 122.250289 42.432549 
L 122.71702 44.125446 
L 122.955764 45.769776 
" clip-path="url(#p3bed76f877)" style="fill: none; stroke: #000000; stroke-width: 0.202734"/>
   </g>
   <g id="PathCollection_1">
    <path d="M 31.61949 37.685201 
C 33.960798 37.685201 36.206528 36.754989 37.862083 35.099435 
C 39.517637 33.44388 40.447849 31.19815 40.447849 28.856842 
C 40.447849 26.515534 39.517637 24.269805 37.862083 22.61425 
C 36.206528 20.958696 33.960798 20.028484 31.61949 20.028484 
C 29.278182 20.028484 27.032453 20.958696 25.376898 22.61425 
C 23.721344 24.269805 22.791132 26.515534 22.791132 28.856842 
C 22.791132 31.19815 23.721344 33.44388 25.376898 35.099435 
C 27.032453 36.754989 29.278182 37.685201 31.61949 37.685201 
z
" clip-path="url(#p3bed76f877)" style="fill: #46039f; stroke: #000000; stroke-width: 0.55"/>
    <path d="M 21.044236 51.401158 
C 22.782194 51.401158 24.449203 50.710661 25.678124 49.481739 
C 26.907045 48.252818 27.597543 46.585809 27.597543 44.847852 
C 27.597543 43.109894 26.907045 41.442885 25.678124 40.213964 
C 24.449203 38.985043 22.782194 38.294545 21.044236 38.294545 
C 19.306279 38.294545 17.63927 38.985043 16.410349 40.213964 
C 15.181427 41.442885 14.49093 43.109894 14.49093 44.847852 
C 14.49093 46.585809 15.181427 48.252818 16.410349 49.481739 
C 17.63927 50.710661 19.306279 51.401158 21.044236 51.401158 
z
" clip-path="url(#p3bed76f877)" style="fill: #46039f; stroke: #000000; stroke-width: 0.55"/>
    <path d="M 21.568413 36.777023 
C 22.966953 36.777023 24.3084 36.221377 25.297317 35.23246 
C 26.286234 34.243543 26.841879 32.902096 26.841879 31.503557 
C 26.841879 30.105017 26.286234 28.76357 25.297317 27.774653 
C 24.3084 26.785736 22.966953 26.230091 21.568413 26.230091 
C 20.169874 26.230091 18.828427 26.785736 17.83951 27.774653 
C 16.850593 28.76357 16.294947 30.105017 16.294947 31.503557 
C 16.294947 32.902096 16.850593 34.243543 17.83951 35.23246 
C 18.828427 36.221377 20.169874 36.777023 21.568413 36.777023 
z
" clip-path="url(#p3bed76f877)" style="fill: #46039f; stroke: #000000; stroke-width: 0.55"/>
    <path d="M 44.76939 50.598817 
C 46.167929 50.598817 47.509377 50.043171 48.498293 49.054254 
C 49.48721 48.065337 50.042856 46.72389 50.042856 45.325351 
C 50.042856 43.926811 49.48721 42.585364 48.498293 41.596447 
C 47.509377 40.60753 46.167929 40.051884 44.76939 40.051884 
C 43.37085 40.051884 42.029403 40.60753 41.040486 41.596447 
C 40.051569 42.585364 39.495924 43.926811 39.495924 45.325351 
C 39.495924 46.72389 40.051569 48.065337 41.040486 49.054254 
C 42.029403 50.043171 43.37085 50.598817 44.76939 50.598817 
z
" clip-path="url(#p3bed76f877)" style="fill: #7201a8; stroke: #000000; stroke-width: 0.55"/>
    <path d="M 49.229983 27.185566 
C 50.628523 27.185566 51.96997 26.62992 52.958887 25.641003 
C 53.947803 24.652086 54.503449 23.310639 54.503449 21.9121 
C 54.503449 20.51356 53.947803 19.172113 52.958887 18.183196 
C 51.96997 17.194279 50.628523 16.638634 49.229983 16.638634 
C 47.831443 16.638634 46.489996 17.194279 45.501079 18.183196 
C 44.512163 19.172113 43.956517 20.51356 43.956517 21.9121 
C 43.956517 23.310639 44.512163 24.652086 45.501079 25.641003 
C 46.489996 26.62992 47.831443 27.185566 49.229983 27.185566 
z
" clip-path="url(#p3bed76f877)" style="fill: #9c179e; stroke: #000000; stroke-width: 0.55"/>
    <path d="M 33.825455 127.361366 
C 35.223994 127.361366 36.565441 126.805721 37.554358 125.816804 
C 38.543275 124.827887 39.098921 123.48644 39.098921 122.0879 
C 39.098921 120.689361 38.543275 119.347914 37.554358 118.358997 
C 36.565441 117.37008 35.223994 116.814434 33.825455 116.814434 
C 32.426915 116.814434 31.085468 117.37008 30.096551 118.358997 
C 29.107634 119.347914 28.551988 120.689361 28.551988 122.0879 
C 28.551988 123.48644 29.107634 124.827887 30.096551 125.816804 
C 31.085468 126.805721 32.426915 127.361366 33.825455 127.361366 
z
" clip-path="url(#p3bed76f877)" style="fill: #9c179e; stroke: #000000; stroke-width: 0.55"/>
    <path d="M 64.992912 98.23516 
C 66.391451 98.23516 67.732899 97.679514 68.721816 96.690597 
C 69.710732 95.701681 70.266378 94.360233 70.266378 92.961694 
C 70.266378 91.563154 69.710732 90.221707 68.721816 89.23279 
C 67.732899 88.243873 66.391451 87.688228 64.992912 87.688228 
C 63.594372 87.688228 62.252925 88.243873 61.264008 89.23279 
C 60.275091 90.221707 59.719446 91.563154 59.719446 92.961694 
C 59.719446 94.360233 60.275091 95.701681 61.264008 96.690597 
C 62.252925 97.679514 63.594372 98.23516 64.992912 98.23516 
z
" clip-path="url(#p3bed76f877)" style="fill: #bd3786; stroke: #000000; stroke-width: 0.55"/>
    <path d="M 84.146294 82.157782 
C 85.544834 82.157782 86.886281 81.602136 87.875198 80.613219 
C 88.864115 79.624302 89.41976 78.282855 89.41976 76.884315 
C 89.41976 75.485776 88.864115 74.144329 87.875198 73.155412 
C 86.886281 72.166495 85.544834 71.610849 84.146294 71.610849 
C 82.747755 71.610849 81.406307 72.166495 80.417391 73.155412 
C 79.428474 74.144329 78.872828 75.485776 78.872828 76.884315 
C 78.872828 78.282855 79.428474 79.624302 80.417391 80.613219 
C 81.406307 81.602136 82.747755 82.157782 84.146294 82.157782 
z
" clip-path="url(#p3bed76f877)" style="fill: #d8576b; stroke: #000000; stroke-width: 0.55"/>
    <path d="M 89.997658 42.523798 
C 91.396197 42.523798 92.737644 41.968153 93.726561 40.979236 
C 94.715478 39.990319 95.271124 38.648872 95.271124 37.250332 
C 95.271124 35.851793 94.715478 34.510345 93.726561 33.521429 
C 92.737644 32.532512 91.396197 31.976866 89.997658 31.976866 
C 88.599118 31.976866 87.257671 32.532512 86.268754 33.521429 
C 85.279837 34.510345 84.724191 35.851793 84.724191 37.250332 
C 84.724191 38.648872 85.279837 39.990319 86.268754 40.979236 
C 87.257671 41.968153 88.599118 42.523798 89.997658 42.523798 
z
" clip-path="url(#p3bed76f877)" style="fill: #ed7953; stroke: #000000; stroke-width: 0.55"/>
    <path d="M 98.915861 38.006611 
C 100.3144 38.006611 101.655848 37.450965 102.644764 36.462048 
C 103.633681 35.473131 104.189327 34.131684 104.189327 32.733144 
C 104.189327 31.334605 103.633681 29.993158 102.644764 29.004241 
C 101.655848 28.015324 100.3144 27.459678 98.915861 27.459678 
C 97.517321 27.459678 96.175874 28.015324 95.186957 29.004241 
C 94.19804 29.993158 93.642395 31.334605 93.642395 32.733144 
C 93.642395 34.131684 94.19804 35.473131 95.186957 36.462048 
C 96.175874 37.450965 97.517321 38.006611 98.915861 38.006611 
z
" clip-path="url(#p3bed76f877)" style="fill: #ed7953; stroke: #000000; stroke-width: 0.55"/>
    <path d="M 122.955764 51.043242 
C 124.354303 51.043242 125.69575 50.487596 126.684667 49.498679 
C 127.673584 48.509762 128.22923 47.168315 128.22923 45.769776 
C 128.22923 44.371236 127.673584 43.029789 126.684667 42.040872 
C 125.69575 41.051955 124.354303 40.49631 122.955764 40.49631 
C 121.557224 40.49631 120.215777 41.051955 119.22686 42.040872 
C 118.237943 43.029789 117.682298 44.371236 117.682298 45.769776 
C 117.682298 47.168315 118.237943 48.509762 119.22686 49.498679 
C 120.215777 50.487596 121.557224 51.043242 122.955764 51.043242 
z
" clip-path="url(#p3bed76f877)" style="fill: #ed7953; stroke: #000000; stroke-width: 0.55"/>
    <path d="M 97.020666 27.476775 
C 98.419205 27.476775 99.760652 26.921129 100.749569 25.932212 
C 101.738486 24.943295 102.294132 23.601848 102.294132 22.203308 
C 102.294132 20.804769 101.738486 19.463322 100.749569 18.474405 
C 99.760652 17.485488 98.419205 16.929842 97.020666 16.929842 
C 95.622126 16.929842 94.280679 17.485488 93.291762 18.474405 
C 92.302845 19.463322 91.747199 20.804769 91.747199 22.203308 
C 91.747199 23.601848 92.302845 24.943295 93.291762 25.932212 
C 94.280679 26.921129 95.622126 27.476775 97.020666 27.476775 
z
" clip-path="url(#p3bed76f877)" style="fill: #fdca26; stroke: #000000; stroke-width: 0.55"/>
   </g>
   <g id="text_1">
    <!-- 1 -->
    <g style="fill: #ffffff" transform="translate(29.12883 31.319767) scale(0.1 -0.1)">
     <defs>
      <path id="LMRoman17-Regular-31" d="M 2458 0 
L 2458 160 
L 2266 160 
C 1715 160 1702 230 1702 458 
L 1702 4058 
C 1702 4192 1696 4192 1606 4192 
C 1357 3916 979 3827 621 3827 
C 602 3827 570 3827 563 3808 
C 557 3795 557 3782 557 3648 
C 755 3648 1088 3686 1344 3839 
L 1344 461 
C 1344 236 1331 160 781 160 
L 589 160 
L 589 0 
L 1523 0 
L 2458 0 
z
" transform="scale(0.015625)"/>
     </defs>
     <use xlink:href="#LMRoman17-Regular-31" transform="scale(0.996264)"/>
    </g>
   </g>
   <g id="text_2">
    <!-- 2 -->
    <g style="fill: #ffffff" transform="translate(18.553576 47.310776) scale(0.1 -0.1)">
     <defs>
      <path id="LMRoman17-Regular-32" d="M 2669 989 
L 2554 989 
C 2490 536 2438 459 2413 420 
C 2381 369 1920 369 1830 369 
L 602 369 
L 1824 1597 
C 2214 1967 2669 2402 2669 3035 
C 2669 3790 2067 4224 1395 4224 
C 691 4224 262 3604 262 3030 
C 262 2780 448 2748 525 2748 
C 589 2748 781 2787 781 3010 
C 781 3207 614 3264 525 3264 
C 486 3264 448 3258 422 3245 
C 544 3790 915 4058 1306 4058 
C 1862 4058 2227 3617 2227 3035 
C 2227 2479 1901 2000 1536 1584 
L 262 146 
L 262 0 
L 2515 0 
L 2669 989 
z
" transform="scale(0.015625)"/>
     </defs>
     <use xlink:href="#LMRoman17-Regular-32" transform="scale(0.996264)"/>
    </g>
   </g>
   <g id="text_3">
    <!-- 3 -->
    <g style="fill: #ffffff" transform="translate(19.077753 33.966481) scale(0.1 -0.1)">
     <defs>
      <path id="LMRoman17-Regular-33" d="M 2720 1085 
C 2720 1707 2208 2157 1600 2227 
C 2086 2328 2554 2756 2554 3329 
C 2554 3820 2048 4179 1472 4179 
C 890 4179 378 3829 378 3329 
C 378 3110 544 3072 627 3072 
C 762 3072 877 3155 877 3321 
C 877 3486 762 3569 627 3569 
C 602 3569 570 3569 544 3557 
C 730 3959 1235 4032 1459 4032 
C 1683 4032 2106 3925 2106 3320 
C 2106 3143 2080 2828 1862 2550 
C 1670 2304 1453 2304 1242 2284 
C 1210 2284 1062 2269 1037 2269 
C 992 2263 966 2257 966 2208 
C 966 2163 973 2157 1101 2157 
L 1414 2157 
C 1984 2157 2234 1662 2234 1090 
C 2234 320 1824 25 1453 25 
C 1114 25 563 194 390 693 
C 422 680 454 680 486 680 
C 640 680 755 782 755 948 
C 755 1133 614 1216 486 1216 
C 378 1216 211 1165 211 926 
C 211 335 787 -128 1466 -128 
C 2176 -128 2720 430 2720 1085 
z
" transform="scale(0.015625)"/>
     </defs>
     <use xlink:href="#LMRoman17-Regular-33" transform="scale(0.996264)"/>
    </g>
   </g>
   <g id="text_4">
    <!-- 4 -->
    <g style="fill: #ffffff" transform="translate(42.27873 47.788275) scale(0.1 -0.1)">
     <defs>
      <path id="LMRoman17-Regular-34" d="M 2803 1114 
L 2803 1280 
L 2150 1280 
L 2150 4154 
C 2150 4288 2144 4288 2029 4288 
L 128 1280 
L 128 1114 
L 1779 1114 
L 1779 487 
C 1779 255 1766 192 1318 192 
L 1197 192 
L 1197 32 
C 1402 32 1747 32 1965 32 
C 2182 32 2528 32 2733 32 
L 2733 192 
L 2611 192 
C 2163 192 2150 255 2150 487 
L 2150 1114 
L 2803 1114 
z
M 1798 1280 
L 256 1280 
L 1798 3734 
L 1798 1280 
z
" transform="scale(0.015625)"/>
     </defs>
     <use xlink:href="#LMRoman17-Regular-34" transform="scale(0.996264)"/>
    </g>
   </g>
   <g id="text_5">
    <!-- 5 -->
    <g style="fill: #ffffff" transform="translate(46.739323 24.375024) scale(0.1 -0.1)">
     <defs>
      <path id="LMRoman17-Regular-35" d="M 2669 1264 
C 2669 2030 2170 2624 1549 2624 
C 1222 2624 947 2503 730 2274 
L 730 3692 
C 794 3666 1056 3584 1325 3584 
C 1920 3584 2246 3911 2432 4100 
C 2432 4157 2432 4192 2394 4192 
C 2394 4192 2374 4192 2323 4163 
C 2099 4058 1837 3973 1517 3973 
C 1325 3973 1037 3999 723 4139 
C 653 4171 634 4171 634 4171 
C 602 4171 595 4164 595 4037 
L 595 2203 
C 595 2089 595 2057 659 2057 
C 691 2057 704 2070 736 2114 
C 941 2401 1222 2522 1542 2522 
C 1766 2522 2246 2382 2246 1289 
C 2246 1085 2246 715 2054 421 
C 1894 159 1645 25 1370 25 
C 947 25 518 320 403 814 
C 429 807 480 795 506 795 
C 589 795 749 840 749 1038 
C 749 1210 627 1280 506 1280 
C 358 1280 262 1190 262 1011 
C 262 454 704 -128 1382 -128 
C 2042 -128 2669 440 2669 1264 
z
" transform="scale(0.015625)"/>
     </defs>
     <use xlink:href="#LMRoman17-Regular-35" transform="scale(0.996264)"/>
    </g>
   </g>
   <g id="text_6">
    <!-- 6 -->
    <g style="fill: #ffffff" transform="translate(31.334795 124.550825) scale(0.1 -0.1)">
     <defs>
      <path id="LMRoman17-Regular-36" d="M 2688 1283 
C 2688 2081 2170 2662 1517 2662 
C 1126 2662 838 2407 678 1960 
L 678 2176 
C 678 3690 1395 4032 1811 4032 
C 1946 4032 2272 4009 2400 3776 
C 2298 3776 2106 3776 2106 3553 
C 2106 3381 2246 3323 2336 3323 
C 2394 3323 2566 3348 2566 3560 
C 2566 3954 2246 4179 1805 4179 
C 1043 4179 243 3390 243 1984 
C 243 253 966 -128 1478 -128 
C 2099 -128 2688 427 2688 1283 
z
M 2253 1289 
C 2253 944 2253 690 2118 434 
C 1978 171 1773 25 1478 25 
C 691 25 691 1200 691 1436 
C 691 1896 909 2560 1504 2560 
C 1613 2560 1926 2560 2138 2120 
C 2253 1870 2253 1609 2253 1289 
z
" transform="scale(0.015625)"/>
     </defs>
     <use xlink:href="#LMRoman17-Regular-36" transform="scale(0.996264)"/>
    </g>
   </g>
   <g id="text_7">
    <!-- 7 -->
    <g style="fill: #ffffff" transform="translate(62.502252 95.424618) scale(0.1 -0.1)">
     <defs>
      <path id="LMRoman17-Regular-37" d="M 2886 3941 
L 2886 4081 
L 1382 4081 
C 634 4081 621 4165 595 4288 
L 480 4288 
L 294 3094 
L 410 3094 
C 429 3215 474 3540 550 3661 
C 589 3712 1062 3712 1171 3712 
L 2579 3712 
L 1869 2661 
C 1395 1954 1069 999 1069 165 
C 1069 89 1069 -128 1299 -128 
C 1530 -128 1530 89 1530 171 
L 1530 465 
C 1530 1508 1709 2196 2003 2636 
L 2886 3941 
z
" transform="scale(0.015625)"/>
     </defs>
     <use xlink:href="#LMRoman17-Regular-37" transform="scale(0.996264)"/>
    </g>
   </g>
   <g id="text_8">
    <!-- 8 -->
    <g style="fill: #ffffff" transform="translate(81.655634 79.34724) scale(0.1 -0.1)">
     <defs>
      <path id="LMRoman17-Regular-38" d="M 2720 1011 
C 2720 1590 2330 1858 2074 2029 
C 1984 2092 1933 2124 1741 2264 
C 2144 2468 2554 2773 2554 3263 
C 2554 3842 1990 4179 1472 4179 
C 890 4179 378 3759 378 3180 
C 378 3021 416 2747 666 2505 
C 730 2442 998 2251 1171 2130 
C 883 1983 211 1634 211 934 
C 211 279 838 -128 1459 -128 
C 2144 -128 2720 362 2720 1011 
z
M 2336 3262 
C 2336 2669 1670 2331 1638 2331 
C 1638 2331 1626 2331 1574 2370 
L 902 2822 
C 851 2854 595 3051 595 3351 
C 595 3739 998 4032 1459 4032 
C 1965 4032 2336 3676 2336 3262 
z
M 2483 851 
C 2483 381 2010 25 1472 25 
C 890 25 448 438 448 940 
C 448 1443 838 1862 1280 2060 
L 2080 1519 
C 2176 1449 2483 1240 2483 851 
z
" transform="scale(0.015625)"/>
     </defs>
     <use xlink:href="#LMRoman17-Regular-38" transform="scale(0.996264)"/>
    </g>
   </g>
   <g id="text_9">
    <!-- 9 -->
    <g transform="translate(87.506998 39.713257) scale(0.1 -0.1)">
     <defs>
      <path id="LMRoman17-Regular-39" d="M 2688 2073 
C 2688 3817 1971 4179 1485 4179 
C 851 4179 243 3628 243 2778 
C 243 1991 762 1408 1414 1408 
C 1952 1408 2189 1903 2253 2112 
L 2253 1864 
C 2253 464 1670 31 1190 31 
C 1043 31 685 31 538 294 
C 704 268 826 357 826 518 
C 826 692 685 749 595 749 
C 538 749 365 723 365 506 
C 365 71 742 -128 1203 -128 
C 1939 -128 2688 674 2688 2073 
z
M 2240 2632 
C 2240 2182 2035 1510 1427 1510 
C 1254 1510 1011 1542 813 1922 
C 678 2169 678 2461 678 2771 
C 678 3146 678 3405 858 3684 
C 947 3817 1114 4032 1485 4032 
C 2240 4032 2240 2885 2240 2632 
z
" transform="scale(0.015625)"/>
     </defs>
     <use xlink:href="#LMRoman17-Regular-39" transform="scale(0.996264)"/>
    </g>
   </g>
   <g id="text_10">
    <!-- 10 -->
    <g transform="translate(93.934541 35.196069) scale(0.1 -0.1)">
     <defs>
      <path id="LMRoman17-Regular-30" d="M 2688 2025 
C 2688 2416 2682 3080 2413 3591 
C 2176 4039 1798 4198 1466 4198 
C 1158 4198 768 4058 525 3597 
C 269 3118 243 2524 243 2025 
C 243 1661 250 1106 448 619 
C 723 -39 1216 -128 1466 -128 
C 1760 -128 2208 -7 2470 600 
C 2662 1042 2688 1559 2688 2025 
z
M 2278 2096 
C 2278 1680 2278 1169 2202 792 
C 2067 95 1690 -26 1466 -26 
C 1056 -26 813 325 723 812 
C 653 1188 653 1738 653 2096 
C 653 2588 653 2997 736 3387 
C 858 3929 1216 4096 1466 4096 
C 1728 4096 2067 3923 2189 3400 
C 2272 3036 2278 2607 2278 2096 
z
" transform="scale(0.015625)"/>
     </defs>
     <use xlink:href="#LMRoman17-Regular-31" transform="scale(0.996264)"/>
     <use xlink:href="#LMRoman17-Regular-30" transform="translate(45.690948 0) scale(0.996264)"/>
    </g>
   </g>
   <g id="text_11">
    <!-- 11 -->
    <g transform="translate(117.974444 48.2327) scale(0.1 -0.1)">
     <use xlink:href="#LMRoman17-Regular-31" transform="scale(0.996264)"/>
     <use xlink:href="#LMRoman17-Regular-31" transform="translate(45.690948 0) scale(0.996264)"/>
    </g>
   </g>
   <g id="text_12">
    <!-- 12 -->
    <g transform="translate(92.039346 24.666233) scale(0.1 -0.1)">
     <use xlink:href="#LMRoman17-Regular-31" transform="scale(0.996264)"/>
     <use xlink:href="#LMRoman17-Regular-32" transform="translate(45.690948 0) scale(0.996264)"/>
    </g>
   </g>
  </g>
 </g>
 <defs>
  <clipPath id="p3bed76f877">
   <rect x="7.2" y="7.2" width="129.6" height="129.6"/>
  </clipPath>
 </defs>
</svg>
