<?xml version="1.0" encoding="utf-8" standalone="no"?>
<!DOCTYPE svg PUBLIC "-//W3C//DTD SVG 1.1//EN"
  "http://www.w3.org/Graphics/SVG/1.1/DTD/svg11.dtd">
<svg xmlns:xlink="http://www.w3.org/1999/xlink" width="259.532166pt" height="151.38796pt" viewBox="0 0 259.532166 151.38796" xmlns="http://www.w3.org/2000/svg" version="1.1">
 <metadata>
  <rdf:RDF xmlns:dc="http://purl.org/dc/elements/1.1/" xmlns:cc="http://creativecommons.org/ns#" xmlns:rdf="http://www.w3.org/1999/02/22-rdf-syntax-ns#">
   <cc:Work>
    <dc:type rdf:resource="http://purl.org/dc/dcmitype/StillImage"/>
    <dc:date>2023-04-21T14:59:47.420554</dc:date>
    <dc:format>image/svg+xml</dc:format>
    <dc:creator>
     <cc:Agent>
      <dc:title>Matplotlib v3.7.1, https://matplotlib.org/</dc:title>
     </cc:Agent>
    </dc:creator>
   </cc:Work>
  </rdf:RDF>
 </metadata>
 <defs>
  <style type="text/css">*{stroke-linejoin: round; stroke-linecap: butt}</style>
 </defs>
 <g id="figure_1">
  <g id="patch_1">
   <path d="M 0 151.38796 
L 259.532166 151.38796 
L 259.532166 0 
L 0 0 
L 0 151.38796 
z
" style="fill: none"/>
  </g>
  <g id="axes_1">
   <g id="patch_2">
    <path d="M 46.4759 114.426082 
L 204.8759 114.426082 
L 204.8759 16.529498 
L 46.4759 16.529498 
L 46.4759 114.426082 
z
" style="fill: none"/>
   </g>
   <g id="matplotlib.axis_1">
    <g id="xtick_1">
     <g id="line2d_1">
      <path d="M 46.4759 114.426082 
L 46.4759 16.529498 
" clip-path="url(#p0b75c78357)" style="fill: none; stroke-dasharray: 2.96,1.28; stroke-dashoffset: 0; stroke: #dddfe5; stroke-width: 0.8"/>
     </g>
     <g id="line2d_2">
      <defs>
       <path id="m2cc2cb5d6b" d="M 0 0 
L 0 3.5 
" style="stroke: #000000; stroke-width: 0.8"/>
      </defs>
      <g>
       <use xlink:href="#m2cc2cb5d6b" x="46.4759" y="114.426082" style="stroke: #000000; stroke-width: 0.8"/>
      </g>
     </g>
     <g id="text_1">
      <!-- 0 -->
      <g transform="translate(43.825919 127.755581) scale(0.0833 -0.0833)">
       <defs>
        <path id="DejaVuSans-30" d="M 2034 4250 
Q 1547 4250 1301 3770 
Q 1056 3291 1056 2328 
Q 1056 1369 1301 889 
Q 1547 409 2034 409 
Q 2525 409 2770 889 
Q 3016 1369 3016 2328 
Q 3016 3291 2770 3770 
Q 2525 4250 2034 4250 
z
M 2034 4750 
Q 2819 4750 3233 4129 
Q 3647 3509 3647 2328 
Q 3647 1150 3233 529 
Q 2819 -91 2034 -91 
Q 1250 -91 836 529 
Q 422 1150 422 2328 
Q 422 3509 836 4129 
Q 1250 4750 2034 4750 
z
" transform="scale(0.015625)"/>
       </defs>
       <use xlink:href="#DejaVuSans-30"/>
      </g>
     </g>
    </g>
    <g id="xtick_2">
     <g id="line2d_3">
      <path d="M 86.659364 114.426082 
L 86.659364 16.529498 
" clip-path="url(#p0b75c78357)" style="fill: none; stroke-dasharray: 2.96,1.28; stroke-dashoffset: 0; stroke: #dddfe5; stroke-width: 0.8"/>
     </g>
     <g id="line2d_4">
      <g>
       <use xlink:href="#m2cc2cb5d6b" x="86.659364" y="114.426082" style="stroke: #000000; stroke-width: 0.8"/>
      </g>
     </g>
     <g id="text_2">
      <!-- 5000 -->
      <g transform="translate(76.059439 127.755581) scale(0.0833 -0.0833)">
       <defs>
        <path id="DejaVuSans-35" d="M 691 4666 
L 3169 4666 
L 3169 4134 
L 1269 4134 
L 1269 2991 
Q 1406 3038 1543 3061 
Q 1681 3084 1819 3084 
Q 2600 3084 3056 2656 
Q 3513 2228 3513 1497 
Q 3513 744 3044 326 
Q 2575 -91 1722 -91 
Q 1428 -91 1123 -41 
Q 819 9 494 109 
L 494 744 
Q 775 591 1075 516 
Q 1375 441 1709 441 
Q 2250 441 2565 725 
Q 2881 1009 2881 1497 
Q 2881 1984 2565 2268 
Q 2250 2553 1709 2553 
Q 1456 2553 1204 2497 
Q 953 2441 691 2322 
L 691 4666 
z
" transform="scale(0.015625)"/>
       </defs>
       <use xlink:href="#DejaVuSans-35"/>
       <use xlink:href="#DejaVuSans-30" x="63.623047"/>
       <use xlink:href="#DejaVuSans-30" x="127.246094"/>
       <use xlink:href="#DejaVuSans-30" x="190.869141"/>
      </g>
     </g>
    </g>
    <g id="xtick_3">
     <g id="line2d_5">
      <path d="M 126.842828 114.426082 
L 126.842828 16.529498 
" clip-path="url(#p0b75c78357)" style="fill: none; stroke-dasharray: 2.96,1.28; stroke-dashoffset: 0; stroke: #dddfe5; stroke-width: 0.8"/>
     </g>
     <g id="line2d_6">
      <g>
       <use xlink:href="#m2cc2cb5d6b" x="126.842828" y="114.426082" style="stroke: #000000; stroke-width: 0.8"/>
      </g>
     </g>
     <g id="text_3">
      <!-- 10000 -->
      <g transform="translate(113.592922 127.755581) scale(0.0833 -0.0833)">
       <defs>
        <path id="DejaVuSans-31" d="M 794 531 
L 1825 531 
L 1825 4091 
L 703 3866 
L 703 4441 
L 1819 4666 
L 2450 4666 
L 2450 531 
L 3481 531 
L 3481 0 
L 794 0 
L 794 531 
z
" transform="scale(0.015625)"/>
       </defs>
       <use xlink:href="#DejaVuSans-31"/>
       <use xlink:href="#DejaVuSans-30" x="63.623047"/>
       <use xlink:href="#DejaVuSans-30" x="127.246094"/>
       <use xlink:href="#DejaVuSans-30" x="190.869141"/>
       <use xlink:href="#DejaVuSans-30" x="254.492188"/>
      </g>
     </g>
    </g>
    <g id="xtick_4">
     <g id="line2d_7">
      <path d="M 167.026292 114.426082 
L 167.026292 16.529498 
" clip-path="url(#p0b75c78357)" style="fill: none; stroke-dasharray: 2.96,1.28; stroke-dashoffset: 0; stroke: #dddfe5; stroke-width: 0.8"/>
     </g>
     <g id="line2d_8">
      <g>
       <use xlink:href="#m2cc2cb5d6b" x="167.026292" y="114.426082" style="stroke: #000000; stroke-width: 0.8"/>
      </g>
     </g>
     <g id="text_4">
      <!-- 15000 -->
      <g transform="translate(153.776385 127.755581) scale(0.0833 -0.0833)">
       <use xlink:href="#DejaVuSans-31"/>
       <use xlink:href="#DejaVuSans-35" x="63.623047"/>
       <use xlink:href="#DejaVuSans-30" x="127.246094"/>
       <use xlink:href="#DejaVuSans-30" x="190.869141"/>
       <use xlink:href="#DejaVuSans-30" x="254.492188"/>
      </g>
     </g>
    </g>
    <g id="text_5">
     <!-- $\tau_\mathrm{lag}$ [ns] -->
     <g transform="translate(105.8759 141.08796) scale(0.1 -0.1)">
      <defs>
       <path id="DejaVuSans-Oblique-3c4" d="M 2103 638 
Q 2188 488 2525 488 
L 2800 488 
L 2706 0 
L 2363 0 
Q 1800 0 1600 300 
Q 1403 606 1534 1269 
L 1856 2925 
L 541 2925 
L 653 3500 
L 3881 3500 
L 3769 2925 
L 2444 2925 
L 2113 1234 
Q 2025 781 2103 638 
z
" transform="scale(0.015625)"/>
       <path id="DejaVuSans-6c" d="M 603 4863 
L 1178 4863 
L 1178 0 
L 603 0 
L 603 4863 
z
" transform="scale(0.015625)"/>
       <path id="DejaVuSans-61" d="M 2194 1759 
Q 1497 1759 1228 1600 
Q 959 1441 959 1056 
Q 959 750 1161 570 
Q 1363 391 1709 391 
Q 2188 391 2477 730 
Q 2766 1069 2766 1631 
L 2766 1759 
L 2194 1759 
z
M 3341 1997 
L 3341 0 
L 2766 0 
L 2766 531 
Q 2569 213 2275 61 
Q 1981 -91 1556 -91 
Q 1019 -91 701 211 
Q 384 513 384 1019 
Q 384 1609 779 1909 
Q 1175 2209 1959 2209 
L 2766 2209 
L 2766 2266 
Q 2766 2663 2505 2880 
Q 2244 3097 1772 3097 
Q 1472 3097 1187 3025 
Q 903 2953 641 2809 
L 641 3341 
Q 956 3463 1253 3523 
Q 1550 3584 1831 3584 
Q 2591 3584 2966 3190 
Q 3341 2797 3341 1997 
z
" transform="scale(0.015625)"/>
       <path id="DejaVuSans-67" d="M 2906 1791 
Q 2906 2416 2648 2759 
Q 2391 3103 1925 3103 
Q 1463 3103 1205 2759 
Q 947 2416 947 1791 
Q 947 1169 1205 825 
Q 1463 481 1925 481 
Q 2391 481 2648 825 
Q 2906 1169 2906 1791 
z
M 3481 434 
Q 3481 -459 3084 -895 
Q 2688 -1331 1869 -1331 
Q 1566 -1331 1297 -1286 
Q 1028 -1241 775 -1147 
L 775 -588 
Q 1028 -725 1275 -790 
Q 1522 -856 1778 -856 
Q 2344 -856 2625 -561 
Q 2906 -266 2906 331 
L 2906 616 
Q 2728 306 2450 153 
Q 2172 0 1784 0 
Q 1141 0 747 490 
Q 353 981 353 1791 
Q 353 2603 747 3093 
Q 1141 3584 1784 3584 
Q 2172 3584 2450 3431 
Q 2728 3278 2906 2969 
L 2906 3500 
L 3481 3500 
L 3481 434 
z
" transform="scale(0.015625)"/>
       <path id="DejaVuSans-20" transform="scale(0.015625)"/>
       <path id="DejaVuSans-5b" d="M 550 4863 
L 1875 4863 
L 1875 4416 
L 1125 4416 
L 1125 -397 
L 1875 -397 
L 1875 -844 
L 550 -844 
L 550 4863 
z
" transform="scale(0.015625)"/>
       <path id="DejaVuSans-6e" d="M 3513 2113 
L 3513 0 
L 2938 0 
L 2938 2094 
Q 2938 2591 2744 2837 
Q 2550 3084 2163 3084 
Q 1697 3084 1428 2787 
Q 1159 2491 1159 1978 
L 1159 0 
L 581 0 
L 581 3500 
L 1159 3500 
L 1159 2956 
Q 1366 3272 1645 3428 
Q 1925 3584 2291 3584 
Q 2894 3584 3203 3211 
Q 3513 2838 3513 2113 
z
" transform="scale(0.015625)"/>
       <path id="DejaVuSans-73" d="M 2834 3397 
L 2834 2853 
Q 2591 2978 2328 3040 
Q 2066 3103 1784 3103 
Q 1356 3103 1142 2972 
Q 928 2841 928 2578 
Q 928 2378 1081 2264 
Q 1234 2150 1697 2047 
L 1894 2003 
Q 2506 1872 2764 1633 
Q 3022 1394 3022 966 
Q 3022 478 2636 193 
Q 2250 -91 1575 -91 
Q 1294 -91 989 -36 
Q 684 19 347 128 
L 347 722 
Q 666 556 975 473 
Q 1284 391 1588 391 
Q 1994 391 2212 530 
Q 2431 669 2431 922 
Q 2431 1156 2273 1281 
Q 2116 1406 1581 1522 
L 1381 1569 
Q 847 1681 609 1914 
Q 372 2147 372 2553 
Q 372 3047 722 3315 
Q 1072 3584 1716 3584 
Q 2034 3584 2315 3537 
Q 2597 3491 2834 3397 
z
" transform="scale(0.015625)"/>
       <path id="DejaVuSans-5d" d="M 1947 4863 
L 1947 -844 
L 622 -844 
L 622 -397 
L 1369 -397 
L 1369 4416 
L 622 4416 
L 622 4863 
L 1947 4863 
z
" transform="scale(0.015625)"/>
      </defs>
      <use xlink:href="#DejaVuSans-Oblique-3c4" transform="translate(0 0.015625)"/>
      <use xlink:href="#DejaVuSans-6c" transform="translate(60.205078 -16.390625) scale(0.7)"/>
      <use xlink:href="#DejaVuSans-61" transform="translate(79.65332 -16.390625) scale(0.7)"/>
      <use xlink:href="#DejaVuSans-67" transform="translate(122.548828 -16.390625) scale(0.7)"/>
      <use xlink:href="#DejaVuSans-20" transform="translate(169.716797 0.015625)"/>
      <use xlink:href="#DejaVuSans-5b" transform="translate(201.503906 0.015625)"/>
      <use xlink:href="#DejaVuSans-6e" transform="translate(240.517578 0.015625)"/>
      <use xlink:href="#DejaVuSans-73" transform="translate(303.896484 0.015625)"/>
      <use xlink:href="#DejaVuSans-5d" transform="translate(355.996094 0.015625)"/>
     </g>
    </g>
   </g>
   <g id="matplotlib.axis_2">
    <g id="ytick_1">
     <g id="line2d_9">
      <path d="M 46.4759 114.426082 
L 204.8759 114.426082 
" clip-path="url(#p0b75c78357)" style="fill: none; stroke-dasharray: 2.96,1.28; stroke-dashoffset: 0; stroke: #dddfe5; stroke-width: 0.8"/>
     </g>
     <g id="line2d_10">
      <defs>
       <path id="m1d8ec86a18" d="M 0 0 
L -3.5 0 
" style="stroke: #000000; stroke-width: 0.8"/>
      </defs>
      <g>
       <use xlink:href="#m1d8ec86a18" x="46.4759" y="114.426082" style="stroke: #000000; stroke-width: 0.8"/>
      </g>
     </g>
     <g id="text_6">
      <!-- $\mathdefault{0.00}$ -->
      <g transform="translate(20.9 117.590831) scale(0.0833 -0.0833)">
       <defs>
        <path id="DejaVuSans-2e" d="M 684 794 
L 1344 794 
L 1344 0 
L 684 0 
L 684 794 
z
" transform="scale(0.015625)"/>
       </defs>
       <use xlink:href="#DejaVuSans-30" transform="translate(0 0.78125)"/>
       <use xlink:href="#DejaVuSans-2e" transform="translate(63.623047 0.78125)"/>
       <use xlink:href="#DejaVuSans-30" transform="translate(95.410156 0.78125)"/>
       <use xlink:href="#DejaVuSans-30" transform="translate(159.033203 0.78125)"/>
      </g>
     </g>
    </g>
    <g id="ytick_2">
     <g id="line2d_11">
      <path d="M 46.4759 93.848593 
L 204.8759 93.848593 
" clip-path="url(#p0b75c78357)" style="fill: none; stroke-dasharray: 2.96,1.28; stroke-dashoffset: 0; stroke: #dddfe5; stroke-width: 0.8"/>
     </g>
     <g id="line2d_12">
      <g>
       <use xlink:href="#m1d8ec86a18" x="46.4759" y="93.848593" style="stroke: #000000; stroke-width: 0.8"/>
      </g>
     </g>
     <g id="text_7">
      <!-- $\mathdefault{0.25}$ -->
      <g transform="translate(21.3165 97.013342) scale(0.0833 -0.0833)">
       <defs>
        <path id="DejaVuSans-32" d="M 1228 531 
L 3431 531 
L 3431 0 
L 469 0 
L 469 531 
Q 828 903 1448 1529 
Q 2069 2156 2228 2338 
Q 2531 2678 2651 2914 
Q 2772 3150 2772 3378 
Q 2772 3750 2511 3984 
Q 2250 4219 1831 4219 
Q 1534 4219 1204 4116 
Q 875 4013 500 3803 
L 500 4441 
Q 881 4594 1212 4672 
Q 1544 4750 1819 4750 
Q 2544 4750 2975 4387 
Q 3406 4025 3406 3419 
Q 3406 3131 3298 2873 
Q 3191 2616 2906 2266 
Q 2828 2175 2409 1742 
Q 1991 1309 1228 531 
z
" transform="scale(0.015625)"/>
       </defs>
       <use xlink:href="#DejaVuSans-30" transform="translate(0 0.78125)"/>
       <use xlink:href="#DejaVuSans-2e" transform="translate(63.623047 0.78125)"/>
       <use xlink:href="#DejaVuSans-32" transform="translate(89.910156 0.78125)"/>
       <use xlink:href="#DejaVuSans-35" transform="translate(153.533203 0.78125)"/>
      </g>
     </g>
    </g>
    <g id="ytick_3">
     <g id="line2d_13">
      <path d="M 46.4759 73.271103 
L 204.8759 73.271103 
" clip-path="url(#p0b75c78357)" style="fill: none; stroke-dasharray: 2.96,1.28; stroke-dashoffset: 0; stroke: #dddfe5; stroke-width: 0.8"/>
     </g>
     <g id="line2d_14">
      <g>
       <use xlink:href="#m1d8ec86a18" x="46.4759" y="73.271103" style="stroke: #000000; stroke-width: 0.8"/>
      </g>
     </g>
     <g id="text_8">
      <!-- $\mathdefault{0.50}$ -->
      <g transform="translate(20.9 76.435852) scale(0.0833 -0.0833)">
       <use xlink:href="#DejaVuSans-30" transform="translate(0 0.78125)"/>
       <use xlink:href="#DejaVuSans-2e" transform="translate(63.623047 0.78125)"/>
       <use xlink:href="#DejaVuSans-35" transform="translate(95.410156 0.78125)"/>
       <use xlink:href="#DejaVuSans-30" transform="translate(159.033203 0.78125)"/>
      </g>
     </g>
    </g>
    <g id="ytick_4">
     <g id="line2d_15">
      <path d="M 46.4759 52.693614 
L 204.8759 52.693614 
" clip-path="url(#p0b75c78357)" style="fill: none; stroke-dasharray: 2.96,1.28; stroke-dashoffset: 0; stroke: #dddfe5; stroke-width: 0.8"/>
     </g>
     <g id="line2d_16">
      <g>
       <use xlink:href="#m1d8ec86a18" x="46.4759" y="52.693614" style="stroke: #000000; stroke-width: 0.8"/>
      </g>
     </g>
     <g id="text_9">
      <!-- $\mathdefault{0.75}$ -->
      <g transform="translate(21.5664 55.858363) scale(0.0833 -0.0833)">
       <defs>
        <path id="DejaVuSans-37" d="M 525 4666 
L 3525 4666 
L 3525 4397 
L 1831 0 
L 1172 0 
L 2766 4134 
L 525 4134 
L 525 4666 
z
" transform="scale(0.015625)"/>
       </defs>
       <use xlink:href="#DejaVuSans-30" transform="translate(0 0.78125)"/>
       <use xlink:href="#DejaVuSans-2e" transform="translate(63.623047 0.78125)"/>
       <use xlink:href="#DejaVuSans-37" transform="translate(87.660156 0.78125)"/>
       <use xlink:href="#DejaVuSans-35" transform="translate(151.283203 0.78125)"/>
      </g>
     </g>
    </g>
    <g id="ytick_5">
     <g id="line2d_17">
      <path d="M 46.4759 32.116124 
L 204.8759 32.116124 
" clip-path="url(#p0b75c78357)" style="fill: none; stroke-dasharray: 2.96,1.28; stroke-dashoffset: 0; stroke: #dddfe5; stroke-width: 0.8"/>
     </g>
     <g id="line2d_18">
      <g>
       <use xlink:href="#m1d8ec86a18" x="46.4759" y="32.116124" style="stroke: #000000; stroke-width: 0.8"/>
      </g>
     </g>
     <g id="text_10">
      <!-- $\mathdefault{1.00}$ -->
      <g transform="translate(20.9 35.280873) scale(0.0833 -0.0833)">
       <use xlink:href="#DejaVuSans-31" transform="translate(0 0.78125)"/>
       <use xlink:href="#DejaVuSans-2e" transform="translate(63.623047 0.78125)"/>
       <use xlink:href="#DejaVuSans-30" transform="translate(95.410156 0.78125)"/>
       <use xlink:href="#DejaVuSans-30" transform="translate(159.033203 0.78125)"/>
      </g>
     </g>
    </g>
    <g id="text_11">
     <!-- probability $P$ -->
     <g transform="translate(14.8 96.87779) rotate(-90) scale(0.1 -0.1)">
      <defs>
       <path id="DejaVuSans-70" d="M 1159 525 
L 1159 -1331 
L 581 -1331 
L 581 3500 
L 1159 3500 
L 1159 2969 
Q 1341 3281 1617 3432 
Q 1894 3584 2278 3584 
Q 2916 3584 3314 3078 
Q 3713 2572 3713 1747 
Q 3713 922 3314 415 
Q 2916 -91 2278 -91 
Q 1894 -91 1617 61 
Q 1341 213 1159 525 
z
M 3116 1747 
Q 3116 2381 2855 2742 
Q 2594 3103 2138 3103 
Q 1681 3103 1420 2742 
Q 1159 2381 1159 1747 
Q 1159 1113 1420 752 
Q 1681 391 2138 391 
Q 2594 391 2855 752 
Q 3116 1113 3116 1747 
z
" transform="scale(0.015625)"/>
       <path id="DejaVuSans-72" d="M 2631 2963 
Q 2534 3019 2420 3045 
Q 2306 3072 2169 3072 
Q 1681 3072 1420 2755 
Q 1159 2438 1159 1844 
L 1159 0 
L 581 0 
L 581 3500 
L 1159 3500 
L 1159 2956 
Q 1341 3275 1631 3429 
Q 1922 3584 2338 3584 
Q 2397 3584 2469 3576 
Q 2541 3569 2628 3553 
L 2631 2963 
z
" transform="scale(0.015625)"/>
       <path id="DejaVuSans-6f" d="M 1959 3097 
Q 1497 3097 1228 2736 
Q 959 2375 959 1747 
Q 959 1119 1226 758 
Q 1494 397 1959 397 
Q 2419 397 2687 759 
Q 2956 1122 2956 1747 
Q 2956 2369 2687 2733 
Q 2419 3097 1959 3097 
z
M 1959 3584 
Q 2709 3584 3137 3096 
Q 3566 2609 3566 1747 
Q 3566 888 3137 398 
Q 2709 -91 1959 -91 
Q 1206 -91 779 398 
Q 353 888 353 1747 
Q 353 2609 779 3096 
Q 1206 3584 1959 3584 
z
" transform="scale(0.015625)"/>
       <path id="DejaVuSans-62" d="M 3116 1747 
Q 3116 2381 2855 2742 
Q 2594 3103 2138 3103 
Q 1681 3103 1420 2742 
Q 1159 2381 1159 1747 
Q 1159 1113 1420 752 
Q 1681 391 2138 391 
Q 2594 391 2855 752 
Q 3116 1113 3116 1747 
z
M 1159 2969 
Q 1341 3281 1617 3432 
Q 1894 3584 2278 3584 
Q 2916 3584 3314 3078 
Q 3713 2572 3713 1747 
Q 3713 922 3314 415 
Q 2916 -91 2278 -91 
Q 1894 -91 1617 61 
Q 1341 213 1159 525 
L 1159 0 
L 581 0 
L 581 4863 
L 1159 4863 
L 1159 2969 
z
" transform="scale(0.015625)"/>
       <path id="DejaVuSans-69" d="M 603 3500 
L 1178 3500 
L 1178 0 
L 603 0 
L 603 3500 
z
M 603 4863 
L 1178 4863 
L 1178 4134 
L 603 4134 
L 603 4863 
z
" transform="scale(0.015625)"/>
       <path id="DejaVuSans-74" d="M 1172 4494 
L 1172 3500 
L 2356 3500 
L 2356 3053 
L 1172 3053 
L 1172 1153 
Q 1172 725 1289 603 
Q 1406 481 1766 481 
L 2356 481 
L 2356 0 
L 1766 0 
Q 1100 0 847 248 
Q 594 497 594 1153 
L 594 3053 
L 172 3053 
L 172 3500 
L 594 3500 
L 594 4494 
L 1172 4494 
z
" transform="scale(0.015625)"/>
       <path id="DejaVuSans-79" d="M 2059 -325 
Q 1816 -950 1584 -1140 
Q 1353 -1331 966 -1331 
L 506 -1331 
L 506 -850 
L 844 -850 
Q 1081 -850 1212 -737 
Q 1344 -625 1503 -206 
L 1606 56 
L 191 3500 
L 800 3500 
L 1894 763 
L 2988 3500 
L 3597 3500 
L 2059 -325 
z
" transform="scale(0.015625)"/>
       <path id="DejaVuSans-Oblique-50" d="M 1081 4666 
L 2541 4666 
Q 3178 4666 3512 4369 
Q 3847 4072 3847 3500 
Q 3847 2731 3353 2303 
Q 2859 1875 1966 1875 
L 1172 1875 
L 806 0 
L 172 0 
L 1081 4666 
z
M 1613 4147 
L 1275 2394 
L 2069 2394 
Q 2606 2394 2893 2669 
Q 3181 2944 3181 3456 
Q 3181 3784 2986 3965 
Q 2791 4147 2438 4147 
L 1613 4147 
z
" transform="scale(0.015625)"/>
      </defs>
      <use xlink:href="#DejaVuSans-70" transform="translate(0 0.015625)"/>
      <use xlink:href="#DejaVuSans-72" transform="translate(63.476562 0.015625)"/>
      <use xlink:href="#DejaVuSans-6f" transform="translate(104.589844 0.015625)"/>
      <use xlink:href="#DejaVuSans-62" transform="translate(165.771484 0.015625)"/>
      <use xlink:href="#DejaVuSans-61" transform="translate(229.248047 0.015625)"/>
      <use xlink:href="#DejaVuSans-62" transform="translate(290.527344 0.015625)"/>
      <use xlink:href="#DejaVuSans-69" transform="translate(354.003906 0.015625)"/>
      <use xlink:href="#DejaVuSans-6c" transform="translate(381.787109 0.015625)"/>
      <use xlink:href="#DejaVuSans-69" transform="translate(409.570312 0.015625)"/>
      <use xlink:href="#DejaVuSans-74" transform="translate(437.353516 0.015625)"/>
      <use xlink:href="#DejaVuSans-79" transform="translate(476.5625 0.015625)"/>
      <use xlink:href="#DejaVuSans-20" transform="translate(535.742188 0.015625)"/>
      <use xlink:href="#DejaVuSans-Oblique-50" transform="translate(567.529297 0.015625)"/>
     </g>
    </g>
    <g id="text_12">
     <!-- $\times\mathdefault{10^{−4}}\mathdefault{}$ -->
     <g transform="translate(19.9865 13.529498) scale(0.0833 -0.0833)">
      <defs>
       <path id="DejaVuSans-d7" d="M 4488 3438 
L 3059 2003 
L 4488 575 
L 4116 197 
L 2681 1631 
L 1247 197 
L 878 575 
L 2303 2003 
L 878 3438 
L 1247 3816 
L 2681 2381 
L 4116 3816 
L 4488 3438 
z
" transform="scale(0.015625)"/>
       <path id="DejaVuSans-2212" d="M 678 2272 
L 4684 2272 
L 4684 1741 
L 678 1741 
L 678 2272 
z
" transform="scale(0.015625)"/>
       <path id="DejaVuSans-34" d="M 2419 4116 
L 825 1625 
L 2419 1625 
L 2419 4116 
z
M 2253 4666 
L 3047 4666 
L 3047 1625 
L 3713 1625 
L 3713 1100 
L 3047 1100 
L 3047 0 
L 2419 0 
L 2419 1100 
L 313 1100 
L 313 1709 
L 2253 4666 
z
" transform="scale(0.015625)"/>
      </defs>
      <use xlink:href="#DejaVuSans-d7" transform="translate(0 0.684375)"/>
      <use xlink:href="#DejaVuSans-31" transform="translate(83.789062 0.684375)"/>
      <use xlink:href="#DejaVuSans-30" transform="translate(147.412109 0.684375)"/>
      <use xlink:href="#DejaVuSans-2212" transform="translate(211.992188 38.965625) scale(0.7)"/>
      <use xlink:href="#DejaVuSans-34" transform="translate(270.644531 38.965625) scale(0.7)"/>
     </g>
    </g>
   </g>
   <g id="patch_3">
    <path d="M 46.4759 114.426082 
L 46.4759 43.566958 
L 50.436382 43.566958 
L 50.436382 63.812422 
L 54.396864 63.812422 
L 54.396864 94.180618 
L 58.357347 94.180618 
L 58.357347 73.935154 
L 62.317829 73.935154 
L 62.317829 104.30335 
L 66.278311 104.30335 
L 66.278311 84.057886 
L 70.238793 84.057886 
L 70.238793 73.935154 
L 74.199275 73.935154 
L 74.199275 104.30335 
L 78.159758 104.30335 
L 78.159758 104.30335 
L 82.12024 104.30335 
L 82.12024 84.057886 
L 86.080722 84.057886 
L 86.080722 114.426082 
L 90.041204 114.426082 
L 90.041204 114.426082 
L 94.001686 114.426082 
L 94.001686 114.426082 
L 97.962169 114.426082 
L 97.962169 104.30335 
L 101.922651 104.30335 
L 101.922651 114.426082 
L 105.883133 114.426082 
L 105.883133 114.426082 
L 109.843615 114.426082 
L 109.843615 114.426082 
L 113.804097 114.426082 
L 113.804097 114.426082 
L 117.76458 114.426082 
L 117.76458 104.30335 
L 121.725062 104.30335 
L 121.725062 114.426082 
" clip-path="url(#p0b75c78357)"/>
   </g>
   <g id="patch_4">
    <path d="M 46.4759 114.426082 
L 46.636634 114.426082 
L 46.797368 87.6051 
L 46.877735 87.6051 
L 47.038468 70.90339 
L 47.118835 70.90339 
L 47.279569 56.95255 
L 47.359936 56.95255 
L 47.440303 46.636787 
L 47.52067 48.601695 
L 47.601037 48.601695 
L 47.761771 38.384178 
L 47.842138 38.384178 
L 48.002872 34.94559 
L 48.083239 34.94559 
L 48.163605 33.177174 
L 48.243972 33.47191 
L 48.324339 33.47191 
L 48.324339 28.952624 
L 48.485073 28.952624 
L 48.56544 28.952624 
L 48.56544 30.426304 
L 48.726174 21.191241 
L 48.806541 21.191241 
L 48.886908 32.685947 
L 48.967275 30.819285 
L 49.047642 30.819285 
L 49.128009 24.138601 
L 49.208376 30.622795 
L 49.288742 30.622795 
L 49.369109 25.808772 
L 49.449476 29.640341 
L 49.529843 29.640341 
L 49.529843 24.629828 
L 49.690577 24.728073 
L 49.770944 24.728073 
L 49.851311 30.622795 
L 49.931678 26.005263 
L 50.012045 26.005263 
L 50.092412 24.924564 
L 50.172779 30.033322 
L 50.253146 30.033322 
L 50.253146 32.489456 
L 50.413879 31.310512 
L 50.494246 31.310512 
L 50.494246 26.791226 
L 50.574613 34.847345 
L 50.65498 28.264906 
L 50.735347 28.264906 
L 50.815714 35.043836 
L 50.896081 29.738586 
L 50.976448 29.738586 
L 50.976448 34.749099 
L 51.137182 31.899984 
L 51.217549 31.899984 
L 51.378283 37.794705 
L 51.45865 37.794705 
L 51.539016 39.17014 
L 51.619383 38.97365 
L 51.69975 38.97365 
L 51.780117 39.759613 
L 51.860484 34.847345 
L 51.940851 34.847345 
L 51.940851 40.840311 
L 52.101585 38.187687 
L 52.181952 38.187687 
L 52.181952 40.545575 
L 52.262319 34.94559 
L 52.342686 38.285932 
L 52.423053 38.285932 
L 52.50342 44.573635 
L 52.583787 42.510483 
L 52.824887 42.313992 
L 52.824887 35.928044 
L 52.985621 48.012222 
L 53.065988 48.012222 
L 53.226722 43.492936 
L 53.387456 43.296445 
L 53.387456 48.405204 
L 53.54819 44.47539 
L 53.628557 44.47539 
L 53.78929 51.254319 
L 53.869657 51.254319 
L 53.869657 46.931523 
L 54.030391 49.682393 
L 54.110758 49.682393 
L 54.191125 48.994676 
L 54.271492 60.292892 
L 54.351859 60.292892 
L 54.351859 50.959583 
L 54.512593 55.478869 
L 54.59296 55.478869 
L 54.59296 50.763092 
L 54.753694 55.970096 
L 54.83406 55.970096 
L 54.83406 54.692907 
L 54.994794 55.085888 
L 55.075161 55.085888 
L 55.155528 58.819211 
L 55.235895 56.657814 
L 55.316262 56.657814 
L 55.316262 62.257799 
L 55.396629 51.843791 
L 55.476996 58.524475 
L 55.557363 58.524475 
L 55.557363 55.773605 
L 55.718097 61.078855 
L 55.798464 61.078855 
L 55.878831 57.542022 
L 55.959197 65.205159 
L 56.039564 65.205159 
L 56.200298 58.327985 
L 56.280665 58.327985 
L 56.361032 64.713933 
L 56.441399 63.436743 
L 56.521766 63.436743 
L 56.602133 64.812178 
L 56.6825 58.42623 
L 56.762867 58.42623 
L 56.843234 66.089368 
L 56.923601 62.159553 
L 57.003968 62.159553 
L 57.084334 66.875331 
L 57.164701 63.338498 
L 57.245068 63.338498 
L 57.245068 70.215673 
L 57.405802 68.840238 
L 57.486169 68.840238 
L 57.486169 65.696386 
L 57.566536 71.394617 
L 57.646903 69.920937 
L 57.72727 69.920937 
L 57.72727 67.661293 
L 57.888004 69.134974 
L 58.048738 69.036728 
L 58.129105 68.054275 
L 58.209471 72.671806 
L 58.289838 72.671806 
L 58.289838 68.054275 
L 58.450572 69.527955 
L 58.530939 69.527955 
L 58.530939 71.885844 
L 58.691673 71.198126 
L 58.77204 71.198126 
L 58.852407 68.741992 
L 58.932774 70.117427 
L 59.013141 70.117427 
L 59.093508 74.047241 
L 59.173875 70.117427 
L 59.254242 70.117427 
L 59.414975 75.226186 
L 59.495342 75.226186 
L 59.575709 73.850751 
L 59.656076 74.341977 
L 59.736443 74.341977 
L 59.81681 73.65426 
L 59.81681 75.029695 
L 59.897177 74.341977 
L 59.977544 74.341977 
L 60.057911 76.208639 
L 60.138278 75.324431 
L 60.218645 75.324431 
L 60.299012 74.636714 
L 60.379379 80.531435 
L 60.459745 80.531435 
L 60.540112 76.896357 
L 60.620479 80.040208 
L 60.700846 80.040208 
L 60.700846 76.896357 
L 60.86158 77.387583 
L 60.941947 77.387583 
L 61.022314 75.029695 
L 61.102681 79.352491 
L 61.183048 79.352491 
L 61.343782 76.503375 
L 61.424149 76.503375 
L 61.584882 80.433189 
L 61.665249 80.433189 
L 61.745616 82.398097 
L 61.825983 82.103361 
L 61.90635 82.103361 
L 61.986717 81.120907 
L 62.067084 81.415643 
L 62.147451 81.415643 
L 62.227818 83.871777 
L 62.308185 81.710379 
L 62.388552 81.710379 
L 62.388552 81.120907 
L 62.468919 84.755985 
L 62.549286 82.987569 
L 62.629652 82.987569 
L 62.629652 82.496342 
L 62.790386 84.461249 
L 62.870753 84.461249 
L 62.870753 83.970022 
L 62.95112 86.819138 
L 63.031487 86.327911 
L 63.111854 86.327911 
L 63.272588 83.085814 
L 63.352955 83.085814 
L 63.433322 86.622647 
L 63.513689 85.738439 
L 63.594056 85.738439 
L 63.754789 89.078781 
L 63.835156 89.078781 
L 63.915523 86.327911 
L 63.99589 86.426156 
L 64.076257 86.426156 
L 64.076257 85.934929 
L 64.236991 88.096327 
L 64.317358 88.096327 
L 64.478092 85.541948 
L 64.558459 85.541948 
L 64.719193 90.847197 
L 64.79956 90.847197 
L 64.879926 87.310364 
L 64.879926 91.043688 
L 64.960293 88.980535 
L 65.04066 88.980535 
L 65.121027 86.524401 
L 65.201394 91.240179 
L 65.281761 91.240179 
L 65.362128 88.194573 
L 65.442495 89.373517 
L 65.522862 89.373517 
L 65.603229 90.847197 
L 65.683596 90.454216 
L 65.763963 90.454216 
L 65.84433 91.927896 
L 65.924697 91.240179 
L 66.005063 91.240179 
L 66.08543 89.864744 
L 66.165797 90.552461 
L 66.246164 90.552461 
L 66.246164 88.391063 
L 66.326531 92.713859 
L 66.406898 91.436669 
L 66.487265 91.436669 
L 66.487265 94.580521 
L 66.567632 91.141933 
L 66.647999 93.991048 
L 66.728366 93.991048 
L 66.808733 90.650706 
L 66.8891 91.829651 
L 66.969467 91.829651 
L 66.969467 90.552461 
L 67.1302 93.892803 
L 67.210567 93.892803 
L 67.371301 91.436669 
L 67.451668 91.436669 
L 67.532035 92.320877 
L 67.612402 92.124387 
L 67.692769 92.124387 
L 67.773136 94.482275 
L 67.853503 93.205086 
L 67.93387 93.205086 
L 68.094604 97.626127 
L 68.174971 97.626127 
L 68.335704 93.008595 
L 68.416071 93.008595 
L 68.576805 96.348937 
L 68.657172 96.348937 
L 68.657172 94.777011 
L 68.817906 95.366483 
L 68.97864 95.268238 
L 68.97864 94.38403 
L 69.139374 99.099807 
L 69.219741 99.099807 
L 69.219741 94.580521 
L 69.380474 96.054201 
L 69.460841 96.054201 
L 69.541208 97.920863 
L 69.621575 93.991048 
L 69.701942 93.991048 
L 69.701942 97.626127 
L 69.862676 97.036654 
L 69.943043 97.036654 
L 70.02341 94.777011 
L 70.103777 96.348937 
L 70.264511 96.152446 
L 70.264511 97.429636 
L 70.344878 96.054201 
L 70.425244 96.840164 
L 70.505611 96.840164 
L 70.666345 99.88577 
L 70.746712 99.88577 
L 70.827079 97.1349 
L 70.827079 101.35945 
L 70.907446 99.198052 
L 71.148547 99.394543 
L 71.148547 100.180506 
L 71.309281 97.429636 
L 71.389648 97.429636 
L 71.470015 100.671733 
L 71.550381 98.313844 
L 71.630748 98.313844 
L 71.791482 102.243658 
L 71.871849 102.243658 
L 71.871849 99.394543 
L 72.032583 100.868223 
L 72.11295 100.868223 
L 72.193317 98.903316 
L 72.273684 99.001562 
L 72.354051 99.001562 
L 72.434418 101.752431 
L 72.514785 100.769978 
L 72.595152 100.769978 
L 72.595152 101.35945 
L 72.755885 100.278751 
L 72.836252 100.278751 
L 72.916619 101.850677 
L 72.996986 101.555941 
L 73.077353 101.555941 
L 73.15772 102.047168 
L 73.238087 99.787524 
L 73.318454 99.787524 
L 73.398821 103.913829 
L 73.479188 102.341904 
L 73.559555 102.341904 
L 73.639922 102.83313 
L 73.720289 100.376997 
L 73.800655 100.376997 
L 73.800655 100.08226 
L 73.961389 102.145413 
L 74.041756 102.145413 
L 74.041756 100.475242 
L 74.20249 101.850677 
L 74.282857 101.850677 
L 74.282857 103.029621 
L 74.363224 100.671733 
L 74.443591 102.440149 
L 74.523958 102.440149 
L 74.684692 103.815584 
L 74.765059 103.815584 
L 74.925792 101.457695 
L 75.006159 101.457695 
L 75.166893 104.503301 
L 75.24726 104.503301 
L 75.407994 102.538394 
L 75.488361 102.538394 
L 75.649095 104.208565 
L 75.729462 104.208565 
L 75.809829 104.798037 
L 75.890196 104.11032 
L 75.970562 104.11032 
L 76.050929 102.63664 
L 76.131296 103.226112 
L 76.211663 103.226112 
L 76.29203 104.699792 
L 76.372397 102.538394 
L 76.452764 102.538394 
L 76.452764 103.815584 
L 76.613498 103.520848 
L 76.693865 103.520848 
L 76.854599 105.289264 
L 76.934966 105.289264 
L 77.015333 103.815584 
L 77.095699 105.289264 
L 77.176066 105.289264 
L 77.176066 105.682246 
L 77.256433 104.601547 
L 77.3368 105.092774 
L 77.417167 105.092774 
L 77.417167 103.127866 
L 77.497534 106.468209 
L 77.577901 103.815584 
L 77.658268 103.815584 
L 77.658268 105.976982 
L 77.819002 105.878736 
L 77.899369 105.878736 
L 77.979736 103.913829 
L 78.060103 105.976982 
L 78.14047 105.976982 
L 78.14047 104.306811 
L 78.301203 105.092774 
L 78.38157 105.092774 
L 78.461937 105.780491 
L 78.542304 105.485755 
L 78.703038 105.289264 
L 78.783405 104.503301 
L 78.863772 106.369963 
L 78.944139 106.369963 
L 79.104873 104.699792 
L 79.18524 104.699792 
L 79.345973 107.548907 
L 79.42634 107.548907 
L 79.42634 105.878736 
L 79.587074 106.075227 
L 79.667441 106.075227 
L 79.667441 104.503301 
L 79.747808 107.057681 
L 79.828175 106.762945 
L 79.908542 106.762945 
L 79.908542 105.289264 
L 80.069276 107.254171 
L 80.149643 107.254171 
L 80.149643 107.647153 
L 80.310377 106.86119 
L 80.390744 106.86119 
L 80.47111 106.369963 
L 80.551477 107.352417 
L 80.631844 107.352417 
L 80.712211 109.120833 
L 80.792578 107.254171 
L 80.872945 107.254171 
L 80.872945 107.745398 
L 81.033679 106.173472 
L 81.114046 106.173472 
L 81.114046 108.040134 
L 81.27478 107.843643 
L 81.355147 107.843643 
L 81.435514 108.33487 
L 81.515881 106.664699 
L 81.596247 106.664699 
L 81.596247 106.173472 
L 81.756981 108.236625 
L 81.837348 108.236625 
L 81.917715 105.976982 
L 81.998082 108.236625 
L 82.078449 108.236625 
L 82.078449 106.762945 
L 82.158816 109.022588 
L 82.239183 108.924342 
L 82.31955 108.924342 
L 82.31955 108.33487 
L 82.480284 109.219078 
L 82.641018 109.415569 
L 82.641018 108.13838 
L 82.801751 108.826097 
L 82.882118 108.826097 
L 82.882118 107.745398 
L 82.962485 109.022588 
L 83.042852 108.236625 
L 83.203586 108.13838 
L 83.203586 106.86119 
L 83.36432 109.219078 
L 83.444687 109.219078 
L 83.444687 107.352417 
L 83.605421 108.33487 
L 83.685788 108.33487 
L 83.685788 109.808551 
L 83.846521 109.120833 
L 83.926888 109.120833 
L 84.007255 109.022588 
L 84.087622 109.808551 
L 84.167989 109.808551 
L 84.167989 108.924342 
L 84.328723 109.120833 
L 84.489457 109.022588 
L 84.569824 109.710305 
L 84.650191 108.040134 
L 84.730558 108.040134 
L 84.810925 110.103287 
L 84.891291 109.710305 
L 84.971658 109.710305 
L 84.971658 108.629606 
L 85.132392 109.906796 
L 85.212759 109.906796 
L 85.293126 110.398023 
L 85.373493 108.727852 
L 85.45386 108.727852 
L 85.614594 110.889249 
L 85.694961 110.889249 
L 85.694961 109.317324 
L 85.855695 109.61206 
L 85.936062 109.61206 
L 85.936062 110.791004 
L 86.096795 109.022588 
L 86.177162 109.022588 
L 86.257529 111.08574 
L 86.337896 109.317324 
L 86.418263 109.317324 
L 86.49863 108.433116 
L 86.578997 110.201532 
L 86.659364 110.201532 
L 86.659364 110.496268 
L 86.820098 109.317324 
L 86.900465 109.317324 
L 86.980832 111.183986 
L 87.061199 110.692759 
L 87.141565 110.692759 
L 87.302299 109.710305 
L 87.382666 109.710305 
L 87.382666 109.219078 
L 87.5434 111.183986 
L 87.623767 111.183986 
L 87.623767 109.906796 
L 87.784501 111.675212 
L 87.864868 111.675212 
L 87.864868 111.183986 
L 88.025602 111.675212 
L 88.105969 111.675212 
L 88.105969 109.808551 
L 88.266702 110.496268 
L 88.347069 110.496268 
L 88.507803 111.183986 
L 88.58817 111.183986 
L 88.668537 110.594513 
L 88.748904 110.889249 
L 88.990005 110.889249 
L 89.150739 110.299777 
L 89.231106 110.299777 
L 89.391839 111.675212 
L 89.472206 111.675212 
L 89.63294 110.398023 
L 89.713307 110.398023 
L 89.793674 111.773458 
L 89.874041 111.576967 
L 90.034775 111.380476 
L 90.034775 111.871703 
L 90.195509 111.282231 
L 90.275876 111.282231 
L 90.275876 110.496268 
L 90.43661 111.576967 
L 90.597343 111.478722 
L 90.597343 111.08574 
L 90.758077 111.380476 
L 90.918811 111.380476 
L 90.999178 111.969948 
L 91.079545 111.380476 
L 91.159912 111.380476 
L 91.159912 110.791004 
L 91.320646 112.068194 
L 91.401013 112.068194 
L 91.48138 110.594513 
L 91.561746 111.282231 
L 91.642113 111.282231 
L 91.72248 110.987495 
L 91.802847 111.773458 
L 91.883214 111.773458 
L 91.963581 111.08574 
L 92.043948 112.36293 
L 92.124315 112.36293 
L 92.124315 111.183986 
L 92.285049 111.576967 
L 92.365416 111.576967 
L 92.445783 112.264684 
L 92.52615 111.969948 
L 92.76725 112.068194 
L 92.76725 111.478722 
L 92.927984 111.576967 
L 93.008351 111.576967 
L 93.088718 112.952402 
L 93.088718 111.478722 
L 93.169085 112.461175 
L 93.249452 112.461175 
L 93.249452 110.889249 
L 93.410186 111.576967 
L 93.490553 111.576967 
L 93.57092 111.969948 
L 93.651287 110.791004 
L 93.731654 110.791004 
L 93.731654 112.657666 
L 93.892387 112.166439 
L 93.972754 112.166439 
L 93.972754 111.871703 
L 94.133488 112.166439 
L 94.213855 112.166439 
L 94.294222 111.478722 
L 94.374589 112.166439 
L 94.535323 112.068194 
L 94.535323 112.854157 
L 94.61569 111.969948 
L 94.696057 112.068194 
L 94.856791 112.068194 
L 94.856791 111.675212 
L 94.937157 112.264684 
L 95.017524 112.068194 
L 95.097891 112.068194 
L 95.178258 111.871703 
L 95.258625 112.952402 
L 95.338992 112.952402 
L 95.419359 112.264684 
L 95.499726 112.657666 
L 95.66046 112.657666 
L 95.66046 112.36293 
L 95.740827 112.755911 
L 95.821194 112.755911 
L 95.901561 112.755911 
L 95.981928 112.36293 
L 96.062294 112.755911 
L 96.142661 112.755911 
L 96.223028 112.166439 
L 96.303395 112.461175 
L 96.383762 112.461175 
L 96.383762 112.068194 
L 96.464129 112.657666 
L 96.544496 112.559421 
L 96.624863 112.559421 
L 96.624863 112.166439 
L 96.785597 112.952402 
L 96.865964 112.952402 
L 96.865964 111.969948 
L 97.026698 113.247138 
L 97.107065 113.247138 
L 97.267798 112.068194 
L 97.428532 112.166439 
L 97.428532 112.657666 
L 97.589266 112.461175 
L 97.669633 112.461175 
L 97.669633 112.755911 
L 97.830367 112.166439 
L 97.910734 112.166439 
L 97.910734 112.755911 
L 98.071468 111.871703 
L 98.151835 111.871703 
L 98.151835 113.148893 
L 98.312568 112.854157 
L 98.392935 112.854157 
L 98.392935 112.264684 
L 98.473302 113.541874 
L 98.553669 113.050647 
L 98.634036 113.050647 
L 98.634036 112.461175 
L 98.79477 112.657666 
L 98.955504 112.559421 
L 98.955504 113.148893 
L 99.116238 112.264684 
L 99.196605 112.264684 
L 99.196605 113.050647 
L 99.357338 112.952402 
L 99.518072 113.148893 
L 99.518072 112.166439 
L 99.678806 113.345383 
L 100.161008 113.247138 
L 100.161008 113.050647 
L 100.241375 113.640119 
L 100.321742 113.247138 
L 100.402109 113.247138 
L 100.402109 113.541874 
L 100.562842 111.773458 
L 100.643209 111.773458 
L 100.803943 113.345383 
L 101.125411 113.148893 
L 101.205778 112.36293 
L 101.286145 113.148893 
L 101.366512 113.148893 
L 101.527246 112.36293 
L 101.607612 112.36293 
L 101.607612 113.345383 
L 101.768346 112.952402 
L 101.848713 112.952402 
L 101.848713 112.559421 
L 102.009447 113.640119 
L 102.089814 113.640119 
L 102.089814 112.559421 
L 102.170181 113.83661 
L 102.250548 112.952402 
L 102.411282 113.050647 
L 102.491649 113.541874 
L 102.572016 113.345383 
L 102.652383 113.345383 
L 102.732749 113.640119 
L 102.813116 112.755911 
L 102.893483 112.755911 
L 102.97385 113.443629 
L 103.054217 113.247138 
L 103.214951 113.247138 
L 103.214951 112.166439 
L 103.375685 113.247138 
L 103.616786 113.443629 
L 103.616786 112.952402 
L 103.77752 113.247138 
L 103.857886 113.247138 
L 104.01862 113.83661 
L 104.098987 113.83661 
L 104.259721 113.148893 
L 104.500822 113.148893 
L 104.500822 113.640119 
L 104.661556 113.640119 
L 104.82229 113.541874 
L 104.902657 113.247138 
L 104.983023 113.345383 
L 105.06339 113.345383 
L 105.143757 113.83661 
L 105.224124 113.050647 
L 105.304491 113.050647 
L 105.465225 114.033101 
L 105.545592 114.033101 
L 105.625959 113.247138 
L 105.706326 113.345383 
L 105.86706 113.148893 
L 105.947427 113.738365 
L 106.027793 113.640119 
L 106.188527 113.738365 
L 106.188527 114.131346 
L 106.268894 113.443629 
L 106.349261 113.83661 
L 106.429628 113.83661 
L 106.509995 112.854157 
L 106.590362 113.640119 
L 106.831463 113.640119 
L 106.91183 113.247138 
L 106.992197 113.738365 
L 107.313664 113.83661 
L 107.313664 113.345383 
L 107.474398 113.640119 
L 107.554765 113.640119 
L 107.554765 114.033101 
L 107.635132 113.345383 
L 107.715499 113.738365 
L 107.795866 113.738365 
L 107.795866 114.033101 
L 107.9566 113.345383 
L 108.117334 113.247138 
L 108.197701 113.934855 
L 108.278067 113.640119 
L 108.760269 113.640119 
L 108.840636 114.131346 
L 108.921003 113.541874 
L 109.242471 113.640119 
L 109.242471 113.934855 
L 109.403204 113.148893 
L 109.483571 113.148893 
L 109.483571 113.640119 
L 109.644305 113.640119 
L 110.126507 113.83661 
L 110.287241 114.131346 
L 110.367608 114.131346 
L 110.528341 113.345383 
L 110.689075 113.541874 
L 110.769442 114.131346 
L 110.849809 113.640119 
L 110.930176 113.640119 
L 110.930176 114.131346 
L 111.09091 113.640119 
L 111.171277 113.640119 
L 111.251644 114.327837 
L 111.332011 113.541874 
L 111.412378 113.541874 
L 111.573112 114.229592 
L 111.733845 114.033101 
L 111.814212 113.541874 
L 111.894579 113.738365 
L 111.974946 113.738365 
L 111.974946 114.131346 
L 112.055313 113.443629 
L 112.13568 113.541874 
L 112.216047 113.541874 
L 112.376781 114.033101 
L 112.457148 114.033101 
L 112.457148 113.541874 
L 112.537515 114.131346 
L 112.617882 113.541874 
L 112.698249 113.541874 
L 112.698249 113.83661 
L 112.858982 113.83661 
L 112.939349 113.83661 
L 112.939349 114.131346 
L 113.100083 113.83661 
L 113.662652 114.033101 
L 113.662652 114.131346 
L 113.823385 113.83661 
L 114.546688 113.934855 
L 114.546688 114.131346 
L 114.707422 113.738365 
L 114.868156 113.83661 
L 114.868156 113.443629 
L 115.028889 114.131346 
L 115.189623 113.934855 
L 115.189623 113.738365 
L 115.26999 114.131346 
L 115.350357 114.033101 
L 116.073659 114.033101 
L 116.073659 114.327837 
L 116.154026 113.640119 
L 116.234393 114.033101 
L 116.31476 114.033101 
L 116.31476 113.541874 
L 116.395127 114.131346 
L 116.475494 114.131346 
L 116.555861 114.131346 
L 116.555861 113.541874 
L 116.716595 113.738365 
L 116.796962 113.738365 
L 116.957696 114.131346 
L 117.038063 114.131346 
L 117.038063 114.426082 
L 117.198796 114.327837 
L 117.35953 114.229592 
L 117.35953 113.83661 
L 117.520264 113.934855 
L 117.761365 113.83661 
L 117.761365 114.229592 
L 117.922099 114.131346 
L 119.20797 113.934855 
L 119.20797 113.83661 
L 119.288337 114.327837 
L 119.368704 114.131346 
L 120.172373 114.131346 
L 120.172373 114.426082 
L 120.333107 114.033101 
L 121.056409 114.131346 
L 121.056409 114.327837 
L 121.217143 114.327837 
L 121.29751 114.327837 
L 121.29751 114.033101 
L 121.458244 114.229592 
L 121.779711 114.426082 
L 121.779711 113.934855 
L 121.940445 114.229592 
L 122.904848 114.327837 
L 122.904848 113.83661 
L 123.065582 113.83661 
L 123.145949 113.83661 
L 123.226316 114.426082 
L 123.306683 114.229592 
L 123.467417 114.327837 
L 123.467417 113.934855 
L 123.628151 113.934855 
L 123.708518 113.934855 
L 123.708518 114.229592 
L 123.869251 114.131346 
L 124.190719 113.934855 
L 124.190719 114.426082 
L 124.351453 114.327837 
L 125.396223 114.327837 
L 125.396223 114.033101 
L 125.556957 114.327837 
L 128.048332 114.229592 
L 128.048332 114.033101 
L 128.128699 114.327837 
L 128.209066 114.229592 
L 128.691267 114.033101 
L 128.691267 113.934855 
L 128.852001 114.229592 
L 188.00206 114.327837 
L 188.00206 114.426082 
" clip-path="url(#p0b75c78357)" style="fill: none; stroke: #2a9d8f; stroke-linejoin: miter"/>
   </g>
   <g id="patch_5">
    <path d="M 46.4759 114.426082 
L 46.797368 114.426082 
L 46.958102 94.855601 
L 47.118835 94.855601 
L 47.279569 78.802395 
L 47.440303 78.802395 
L 47.601037 67.649324 
L 47.761771 67.649324 
L 47.922505 59.502473 
L 48.083239 59.502473 
L 48.243972 54.031155 
L 48.404706 54.031155 
L 48.404706 51.415745 
L 48.56544 52.137238 
L 48.726174 52.137238 
L 48.886908 46.064677 
L 49.047642 46.064677 
L 49.047642 46.906418 
L 49.208376 44.982438 
L 49.369109 44.982438 
L 49.369109 42.727774 
L 49.529843 44.501443 
L 49.690577 44.501443 
L 49.690577 46.816231 
L 49.851311 41.615473 
L 50.012045 41.615473 
L 50.172779 44.952376 
L 50.333513 44.952376 
L 50.333513 44.291008 
L 50.494246 44.351132 
L 50.65498 44.351132 
L 50.65498 41.70566 
L 50.815714 43.62964 
L 51.137182 43.719826 
L 51.297916 44.711878 
L 51.619383 44.862189 
L 51.619383 46.575734 
L 51.780117 46.305174 
L 51.940851 46.305174 
L 51.940851 49.702201 
L 52.101585 48.950646 
L 52.262319 48.950646 
L 52.262319 49.672139 
L 52.423053 49.581952 
L 52.583787 49.581952 
L 52.583787 49.792387 
L 52.74452 49.191144 
L 52.905254 49.191144 
L 53.065988 56.105446 
L 53.226722 56.105446 
L 53.226722 56.857001 
L 53.387456 53.670409 
L 53.54819 53.670409 
L 53.54819 55.955135 
L 53.708924 52.467922 
L 53.869657 52.467922 
L 53.869657 56.195632 
L 54.030391 55.714638 
L 54.191125 55.714638 
L 54.191125 56.315881 
L 54.351859 54.993145 
L 54.512593 54.993145 
L 54.673327 58.209799 
L 54.83406 58.209799 
L 54.83406 59.893281 
L 54.994794 56.616503 
L 55.155528 56.616503 
L 55.155528 61.095768 
L 55.316262 59.863219 
L 55.476996 59.863219 
L 55.63773 63.440619 
L 55.798464 63.440619 
L 55.798464 63.711178 
L 55.959197 62.839375 
L 56.119931 62.839375 
L 56.119931 60.674898 
L 56.280665 63.380494 
L 56.762867 63.380494 
L 56.923601 65.394661 
L 57.245068 65.514909 
L 57.405802 69.573304 
L 57.566536 69.573304 
L 57.72727 67.649324 
L 57.888004 67.649324 
L 57.888004 70.354921 
L 58.048738 67.919884 
L 58.209471 67.919884 
L 58.370205 69.843864 
L 58.530939 69.843864 
L 58.691673 72.308963 
L 58.852407 72.308963 
L 58.852407 73.180766 
L 59.013141 71.797906 
L 59.173875 71.797906 
L 59.334608 74.172818 
L 59.495342 74.172818 
L 59.656076 73.331077 
L 59.81681 73.331077 
L 59.81681 75.044622 
L 59.977544 74.683875 
L 60.299012 74.683875 
L 60.299012 75.074684 
L 60.459745 74.383254 
L 60.620479 74.383254 
L 60.781213 77.539783 
L 60.941947 77.539783 
L 60.941947 79.403638 
L 61.102681 77.35941 
L 61.263415 77.35941 
L 61.424149 78.952706 
L 61.584882 78.952706 
L 61.584882 79.523887 
L 61.745616 79.133079 
L 61.90635 79.133079 
L 62.067084 80.546001 
L 62.227818 80.546001 
L 62.227818 81.447867 
L 62.388552 81.087121 
L 62.549286 81.087121 
L 62.710019 80.546001 
L 62.870753 80.546001 
L 62.870753 81.958924 
L 63.031487 81.748489 
L 63.192221 81.748489 
L 63.352955 83.672468 
L 63.513689 83.672468 
L 63.674423 84.153463 
L 63.835156 84.153463 
L 63.835156 85.386013 
L 63.99589 83.041163 
L 64.156624 83.041163 
L 64.317358 85.115453 
L 64.478092 85.115453 
L 64.638826 86.137567 
L 64.960293 85.987257 
L 64.960293 85.596448 
L 65.121027 87.309993 
L 65.281761 87.309993 
L 65.281761 86.708749 
L 65.442495 87.580552 
L 65.603229 87.580552 
L 65.763963 85.686635 
L 65.924697 85.686635 
L 65.924697 89.143786 
L 66.08543 87.039433 
L 66.246164 87.039433 
L 66.246164 89.534594 
L 66.406898 89.384283 
L 66.567632 89.384283 
L 66.728366 90.256087 
L 66.8891 90.256087 
L 66.8891 89.47447 
L 67.049834 90.346273 
L 67.371301 90.466522 
L 67.371301 91.879445 
L 67.532035 90.43646 
L 67.692769 90.43646 
L 67.853503 90.767144 
L 67.853503 90.737082 
L 68.014237 90.737082 
L 68.014237 90.1659 
L 68.174971 92.08988 
L 68.335704 92.08988 
L 68.335704 90.556708 
L 68.496438 93.322429 
L 68.657172 93.322429 
L 68.817906 90.797206 
L 68.97864 90.797206 
L 68.97864 94.735352 
L 69.139374 92.931621 
L 69.300107 92.931621 
L 69.460841 94.254357 
L 69.621575 94.254357 
L 69.621575 92.540813 
L 69.782309 94.585041 
L 69.943043 94.585041 
L 69.943043 93.713238 
L 70.103777 93.923673 
L 70.264511 93.923673 
L 70.425244 95.907777 
L 70.585978 95.907777 
L 70.746712 94.16417 
L 70.907446 94.16417 
L 70.907446 95.096098 
L 71.06818 94.70529 
L 71.228914 94.70529 
L 71.228914 96.418834 
L 71.389648 95.276471 
L 71.550381 95.276471 
L 71.711115 96.539083 
L 71.871849 96.539083 
L 71.871849 96.899829 
L 72.032583 96.328648 
L 72.193317 96.328648 
L 72.354051 97.561197 
L 72.514785 97.561197 
L 72.514785 96.418834 
L 72.675518 97.891881 
L 72.996986 98.072254 
L 72.996986 97.380824 
L 73.15772 98.402938 
L 73.318454 98.402938 
L 73.318454 97.921943 
L 73.479188 98.132379 
L 73.639922 98.132379 
L 73.639922 98.763685 
L 73.800655 98.312752 
L 73.961389 98.312752 
L 73.961389 99.064306 
L 74.122123 98.493125 
L 74.282857 98.493125 
L 74.443591 99.755737 
L 74.604325 99.755737 
L 74.765059 97.200451 
L 74.765059 100.026296 
L 74.925792 100.026296 
L 74.925792 100.567416 
L 75.086526 99.545301 
L 75.24726 99.545301 
L 75.24726 101.018348 
L 75.407994 101.018348 
L 75.568728 101.018348 
L 75.568728 99.785799 
L 75.729462 100.747789 
L 75.890196 100.747789 
L 75.890196 101.830027 
L 76.050929 101.830027 
L 76.211663 101.830027 
L 76.372397 100.387042 
L 76.693865 100.417105 
L 76.854599 102.0104 
L 77.176066 101.920214 
L 77.176066 101.198721 
L 77.3368 102.100587 
L 77.497534 102.100587 
L 77.658268 102.852142 
L 77.819002 102.852142 
L 77.819002 102.55152 
L 77.979736 103.93438 
L 78.14047 103.93438 
L 78.301203 102.671768 
L 78.622671 102.761955 
L 78.783405 103.784069 
L 78.944139 103.784069 
L 78.944139 103.393261 
L 79.104873 103.423323 
L 79.265607 103.423323 
L 79.265607 103.633758 
L 79.42634 103.423323 
L 79.587074 103.423323 
L 79.587074 102.641706 
L 79.747808 104.144815 
L 79.908542 104.144815 
L 79.908542 104.535624 
L 80.069276 104.445437 
L 80.23001 104.445437 
L 80.23001 104.89637 
L 80.390744 104.445437 
L 80.551477 104.445437 
L 80.551477 103.964442 
L 80.712211 104.956494 
L 80.872945 104.956494 
L 80.872945 103.844194 
L 81.033679 104.084691 
L 81.194413 104.084691 
L 81.194413 104.89637 
L 81.355147 104.715997 
L 81.515881 104.715997 
L 81.676614 105.16693 
L 81.837348 105.16693 
L 81.837348 104.445437 
L 81.998082 104.806183 
L 82.158816 104.806183 
L 82.31955 106.429541 
L 82.641018 106.519728 
L 82.641018 105.377365 
L 82.801751 105.828298 
L 82.962485 105.828298 
L 82.962485 106.489666 
L 83.123219 105.798236 
L 83.283953 105.798236 
L 83.283953 106.158982 
L 83.444687 105.617862 
L 83.605421 105.617862 
L 83.766154 106.609915 
L 84.40909 106.730163 
L 84.40909 107.030785 
L 84.569824 106.880474 
L 84.730558 106.880474 
L 84.891291 107.391531 
L 85.052025 107.391531 
L 85.052025 106.519728 
L 85.212759 107.361469 
L 85.373493 107.361469 
L 85.373493 107.932651 
L 85.534227 107.211158 
L 85.694961 107.211158 
L 85.694961 107.541842 
L 85.855695 107.301345 
L 86.016428 107.301345 
L 86.177162 108.443708 
L 86.337896 108.443708 
L 86.49863 106.790288 
L 86.659364 106.790288 
L 86.659364 108.594019 
L 86.820098 107.271283 
L 86.980832 107.271283 
L 86.980832 108.052899 
L 87.141565 107.692153 
L 87.784501 107.692153 
L 87.945235 108.113024 
L 88.266702 108.143086 
L 88.266702 109.255387 
L 88.427436 108.684205 
L 88.58817 108.684205 
L 88.58817 108.143086 
L 88.748904 109.044951 
L 88.909638 109.044951 
L 88.909638 109.525946 
L 89.070372 109.1652 
L 89.391839 109.105076 
L 89.391839 108.113024 
L 89.552573 108.954765 
L 89.874041 108.954765 
L 89.874041 108.714267 
L 90.034775 109.556009 
L 90.195509 109.556009 
L 90.195509 108.47377 
L 90.356243 109.616133 
L 90.516976 109.616133 
L 90.516976 108.89464 
L 90.67771 109.375635 
L 90.838444 109.375635 
L 90.999178 109.85663 
L 91.159912 109.85663 
L 91.159912 108.89464 
L 91.320646 109.766444 
L 91.642113 109.886693 
L 91.642113 110.067066 
L 91.802847 109.916755 
L 91.963581 109.916755 
L 91.963581 109.1652 
L 92.124315 109.976879 
L 92.285049 109.976879 
L 92.285049 110.217377 
L 92.445783 109.916755 
L 92.606517 109.916755 
L 92.76725 110.217377 
L 92.927984 110.217377 
L 92.927984 109.976879 
L 93.088718 110.457874 
L 93.410186 110.307563 
L 93.410186 111.119242 
L 93.57092 109.706319 
L 93.731654 109.706319 
L 93.892387 110.487936 
L 94.053121 110.487936 
L 94.053121 109.706319 
L 94.213855 110.39775 
L 94.535323 110.427812 
L 94.535323 110.608185 
L 94.696057 110.277501 
L 94.856791 110.277501 
L 94.856791 110.758496 
L 95.017524 110.728434 
L 95.338992 110.638247 
L 95.338992 111.329677 
L 95.499726 110.968931 
L 95.821194 110.788558 
L 95.821194 110.39775 
L 95.981928 110.788558 
L 96.142661 110.788558 
L 96.142661 111.269553 
L 96.303395 110.608185 
L 96.464129 110.608185 
L 96.624863 111.479988 
L 96.946331 111.299615 
L 96.946331 110.848682 
L 97.107065 111.51005 
L 97.267798 111.51005 
L 97.267798 111.750548 
L 97.428532 111.389802 
L 97.589266 111.389802 
L 97.75 110.81862 
L 98.071468 110.728434 
L 98.071468 111.479988 
L 98.232201 111.209429 
L 98.714403 111.179366 
L 98.875137 111.930921 
L 99.035871 111.930921 
L 99.035871 111.239491 
L 99.196605 111.51005 
L 99.357338 111.51005 
L 99.357338 112.321729 
L 99.518072 111.78061 
L 100.000274 111.720486 
L 100.000274 111.209429 
L 100.161008 111.630299 
L 100.482475 111.630299 
L 100.482475 111.239491 
L 100.643209 111.660361 
L 100.803943 111.660361 
L 100.803943 112.351792 
L 100.964677 111.900859 
L 101.125411 111.900859 
L 101.125411 112.231543 
L 101.286145 112.111294 
L 101.446879 112.111294 
L 101.446879 111.900859 
L 101.607612 112.171418 
L 101.768346 112.171418 
L 101.768346 112.532165 
L 101.92908 112.171418 
L 102.089814 112.171418 
L 102.089814 111.78061 
L 102.250548 112.532165 
L 102.411282 112.532165 
L 102.572016 111.690424 
L 102.732749 111.690424 
L 102.893483 112.47204 
L 103.214951 112.411916 
L 103.214951 111.960983 
L 103.375685 112.021108 
L 103.536419 112.021108 
L 103.697153 112.532165 
L 103.857886 112.532165 
L 103.857886 112.021108 
L 104.01862 112.231543 
L 104.500822 112.351792 
L 104.500822 112.622351 
L 104.661556 112.592289 
L 105.143757 112.502103 
L 105.143757 112.321729 
L 105.304491 112.772662 
L 105.465225 112.772662 
L 105.465225 112.141356 
L 105.625959 112.381854 
L 106.10816 112.231543 
L 106.10816 112.682476 
L 106.268894 112.592289 
L 106.590362 112.502103 
L 106.590362 112.351792 
L 106.751096 112.682476 
L 107.394031 112.862849 
L 107.394031 112.892911 
L 107.554765 112.832787 
L 107.876233 112.892911 
L 107.876233 113.073284 
L 108.036967 112.7426 
L 108.197701 112.7426 
L 108.358434 113.01316 
L 109.162104 113.133408 
L 109.162104 113.403968 
L 109.322838 113.103346 
L 109.483571 113.103346 
L 109.644305 112.712538 
L 109.805039 112.712538 
L 109.805039 112.983097 
L 109.965773 112.862849 
L 110.287241 112.892911 
L 110.287241 113.073284 
L 110.447975 113.01316 
L 110.769442 113.073284 
L 110.769442 113.223595 
L 110.930176 112.953035 
L 111.573112 113.133408 
L 111.573112 113.253657 
L 111.733845 112.983097 
L 112.055313 113.163471 
L 112.055313 113.464092 
L 112.216047 113.103346 
L 112.698249 113.043222 
L 112.698249 113.313781 
L 112.858982 113.103346 
L 113.18045 113.283719 
L 113.18045 113.674528 
L 113.341184 113.43403 
L 114.144853 113.464092 
L 114.144853 113.223595 
L 114.305587 113.403968 
L 116.073659 113.313781 
L 116.073659 113.644465 
L 116.234393 113.464092 
L 117.038063 113.343844 
L 117.038063 113.734652 
L 117.198796 113.343844 
L 117.35953 113.343844 
L 117.520264 113.734652 
L 117.680998 113.734652 
L 117.680998 113.373906 
L 117.841732 113.464092 
L 119.44907 113.614403 
L 119.44907 113.854901 
L 119.609804 113.584341 
L 119.770538 113.584341 
L 119.770538 113.97515 
L 119.931272 113.524217 
L 120.092006 113.524217 
L 120.092006 113.884963 
L 120.25274 113.644465 
L 120.734941 113.494155 
L 120.734941 113.854901 
L 120.895675 113.584341 
L 121.217143 113.674528 
L 121.217143 113.824839 
L 121.377877 113.43403 
L 121.538611 113.43403 
L 121.538611 113.824839 
L 121.699344 113.794776 
L 122.181546 113.794776 
L 122.181546 114.005212 
L 122.34228 113.945087 
L 122.824481 113.794776 
L 122.985215 113.734652 
L 122.985215 113.915025 
L 123.145949 113.915025 
L 123.145949 113.524217 
L 123.306683 113.794776 
L 123.467417 113.794776 
L 123.467417 114.095398 
L 123.628151 113.734652 
L 123.949618 113.764714 
L 123.949618 114.035274 
L 124.110352 113.794776 
L 124.914022 113.945087 
L 124.914022 114.065336 
L 125.074755 113.854901 
L 125.878425 114.005212 
L 125.878425 114.065336 
L 126.039159 113.824839 
L 126.842828 113.97515 
L 126.842828 114.065336 
L 127.003562 114.065336 
L 129.253836 114.005212 
L 129.253836 113.794776 
L 129.414569 114.065336 
L 137.129795 114.185585 
L 137.129795 114.275771 
L 137.290528 114.185585 
L 147.738229 114.335896 
L 147.898963 114.39602 
L 147.898963 114.365958 
L 231.1591 114.39602 
L 231.1591 114.426082 
" clip-path="url(#p0b75c78357)" style="fill: none; stroke: #e9c46a; stroke-linejoin: miter"/>
   </g>
   <g id="patch_6">
    <path d="M 46.4759 114.426082 
L 47.118835 114.426082 
L 47.118835 102.530077 
L 47.440303 102.530077 
L 47.440303 92.927836 
L 47.761771 92.927836 
L 47.761771 83.492753 
L 48.083239 83.492753 
L 48.083239 76.267856 
L 48.404706 76.267856 
L 48.404706 69.470139 
L 48.726174 69.470139 
L 48.726174 66.526319 
L 49.047642 66.526319 
L 49.047642 63.666077 
L 49.369109 63.666077 
L 49.369109 60.137207 
L 49.690577 60.137207 
L 49.690577 58.131323 
L 50.012045 58.131323 
L 50.012045 56.989084 
L 50.333513 56.989084 
L 50.333513 56.691916 
L 50.976448 56.8405 
L 50.976448 56.125439 
L 51.297916 56.125439 
L 51.297916 55.707547 
L 51.940851 55.893277 
L 51.940851 57.481268 
L 52.262319 57.481268 
L 52.262319 58.122037 
L 52.905254 58.196329 
L 52.905254 58.391345 
L 53.226722 58.391345 
L 53.226722 57.044803 
L 53.54819 57.044803 
L 53.54819 59.737888 
L 53.869657 59.737888 
L 53.869657 61.093717 
L 54.191125 61.093717 
L 54.191125 61.82735 
L 54.512593 61.82735 
L 54.512593 62.486691 
L 54.83406 62.486691 
L 54.83406 62.737427 
L 55.155528 62.737427 
L 55.155528 64.696878 
L 55.798464 64.631873 
L 55.798464 65.523377 
L 56.119931 65.523377 
L 56.119931 66.28487 
L 56.441399 66.28487 
L 56.441399 67.055649 
L 56.762867 67.055649 
L 56.762867 69.163684 
L 57.405802 69.0151 
L 57.405802 70.955979 
L 58.048738 70.788822 
L 58.048738 71.522455 
L 58.370205 71.522455 
L 58.370205 71.958921 
L 59.013141 71.996067 
L 59.013141 73.277604 
L 59.334608 73.277604 
L 59.334608 74.224827 
L 59.656076 74.224827 
L 59.656076 73.769788 
L 59.977544 73.769788 
L 59.977544 75.17205 
L 60.620479 75.181336 
L 60.620479 77.057209 
L 61.263415 77.224366 
L 61.263415 78.543049 
L 61.90635 78.589481 
L 61.90635 80.493214 
L 62.227818 80.493214 
L 62.227818 79.78744 
L 62.870753 79.824586 
L 62.870753 81.876902 
L 63.513689 81.886189 
L 63.513689 82.331941 
L 64.156624 82.424806 
L 64.156624 83.622764 
L 64.478092 83.622764 
L 64.478092 84.272819 
L 65.121027 84.152094 
L 65.121027 85.452204 
L 65.442495 85.452204 
L 65.442495 85.749372 
L 65.763963 85.749372 
L 65.763963 86.473719 
L 66.08543 86.473719 
L 66.08543 86.863752 
L 66.406898 86.863752 
L 66.406898 87.309504 
L 67.049834 87.16092 
L 67.049834 87.588099 
L 67.371301 87.588099 
L 67.371301 88.340306 
L 67.692769 88.340306 
L 67.692769 89.20395 
L 68.335704 89.120372 
L 68.335704 88.943928 
L 68.657172 88.943928 
L 68.657172 90.336903 
L 68.97864 90.336903 
L 68.97864 91.209834 
L 69.621575 91.116969 
L 69.621575 91.581294 
L 69.943043 91.581294 
L 69.943043 91.924894 
L 70.264511 91.924894 
L 70.264511 92.500657 
L 70.907446 92.593522 
L 70.907446 93.401448 
L 71.228914 93.401448 
L 71.228914 93.642897 
L 71.871849 93.828627 
L 71.871849 93.912205 
L 72.193317 93.912205 
L 72.193317 95.295894 
L 72.514785 95.295894 
L 72.514785 95.026585 
L 72.836252 95.026585 
L 72.836252 95.537343 
L 73.15772 95.537343 
L 73.15772 96.289549 
L 73.479188 96.289549 
L 73.479188 95.880943 
L 73.800655 95.880943 
L 73.800655 96.63315 
L 74.765059 96.512425 
L 74.765059 97.710383 
L 75.407994 97.9054 
L 75.407994 97.181053 
L 75.729462 97.181053 
L 75.729462 97.886827 
L 76.050929 97.886827 
L 76.050929 98.518309 
L 76.372397 98.518309 
L 76.372397 99.01978 
L 76.693865 99.01978 
L 76.693865 99.54911 
L 77.015333 99.54911 
L 77.015333 99.985576 
L 77.3368 99.985576 
L 77.3368 99.7627 
L 78.301203 99.809132 
L 78.301203 101.174248 
L 78.622671 101.174248 
L 78.622671 101.610713 
L 78.944139 101.610713 
L 78.944139 100.979231 
L 79.587074 100.988518 
L 79.587074 101.294972 
L 79.908542 101.294972 
L 79.908542 101.685005 
L 80.23001 101.685005 
L 80.23001 101.907881 
L 80.551477 101.907881 
L 80.551477 102.167903 
L 80.872945 102.167903 
L 80.872945 102.372206 
L 81.194413 102.372206 
L 81.194413 102.697234 
L 81.515881 102.697234 
L 81.515881 103.087267 
L 82.158816 102.92011 
L 82.158816 103.328716 
L 82.480284 103.328716 
L 82.480284 102.873677 
L 82.801751 102.873677 
L 82.801751 103.551592 
L 83.123219 103.551592 
L 83.123219 103.755895 
L 84.087622 103.625884 
L 84.087622 104.647398 
L 84.40909 104.647398 
L 84.40909 104.340944 
L 85.373493 104.433809 
L 85.373493 105.316026 
L 85.694961 105.316026 
L 85.694961 105.046718 
L 86.337896 105.232448 
L 86.337896 105.603908 
L 86.980832 105.455324 
L 86.980832 106.142525 
L 87.302299 106.142525 
L 87.302299 105.938222 
L 87.623767 105.938222 
L 87.623767 106.486125 
L 87.945235 106.486125 
L 87.945235 106.272536 
L 88.266702 106.272536 
L 88.266702 106.671855 
L 89.231106 106.662569 
L 89.231106 107.266191 
L 89.552573 107.266191 
L 89.552573 107.034029 
L 90.195509 107.210472 
L 90.195509 107.405489 
L 91.159912 107.5355 
L 91.159912 107.702657 
L 92.124315 107.581932 
L 92.124315 107.953392 
L 92.445783 107.953392 
L 92.445783 108.343425 
L 92.76725 108.343425 
L 92.76725 107.990538 
L 93.088718 107.990538 
L 93.088718 108.547728 
L 94.374589 108.742745 
L 94.374589 109.02134 
L 95.338992 109.17921 
L 95.338992 108.779891 
L 95.66046 108.779891 
L 95.66046 109.244216 
L 97.267798 109.420659 
L 97.267798 109.884984 
L 97.589266 109.884984 
L 97.589266 109.309221 
L 97.910734 109.309221 
L 97.910734 109.652822 
L 98.232201 109.652822 
L 98.232201 110.014995 
L 99.196605 110.182152 
L 99.196605 109.615676 
L 99.518072 109.615676 
L 99.518072 109.884984 
L 100.161008 109.959276 
L 100.161008 110.395742 
L 102.411282 110.544326 
L 102.411282 110.655764 
L 102.732749 110.655764 
L 102.732749 111.129375 
L 103.054217 111.129375 
L 103.054217 110.600045 
L 103.375685 110.600045 
L 103.375685 111.110802 
L 103.697153 111.110802 
L 103.697153 110.711483 
L 104.01862 110.711483 
L 104.01862 111.212953 
L 105.304491 111.082942 
L 105.304491 111.482262 
L 106.91183 111.575127 
L 106.91183 111.695851 
L 108.840636 111.835149 
L 108.840636 111.928014 
L 110.769442 111.75157 
L 110.769442 112.243755 
L 112.376781 112.271614 
L 112.376781 112.578069 
L 112.698249 112.578069 
L 112.698249 112.299474 
L 113.341184 112.225182 
L 113.341184 112.661647 
L 113.662652 112.661647 
L 113.662652 112.448058 
L 114.627055 112.49449 
L 114.627055 112.689507 
L 114.948522 112.689507 
L 114.948522 112.485204 
L 116.234393 112.578069 
L 116.234393 112.838091 
L 117.198796 112.828804 
L 117.198796 112.605928 
L 117.841732 112.643074 
L 117.841732 112.930956 
L 120.734941 113.023821 
L 120.734941 113.153832 
L 121.699344 112.977388 
L 121.699344 113.376708 
L 122.020812 113.376708 
L 122.020812 113.116686 
L 124.592554 113.274556 
L 124.592554 113.478859 
L 128.771634 113.590297 
L 128.771634 113.738881 
L 135.843924 113.738881 
L 135.843924 113.952471 
L 145.487955 114.073195 
L 145.487955 114.19392 
L 172.491243 114.35179 
L 172.491243 114.407509 
L 260.532166 114.426082 
L 260.532166 114.426082 
" clip-path="url(#p0b75c78357)" style="fill: none; stroke: #f4a261; stroke-linejoin: miter"/>
   </g>
   <g id="patch_7">
    <path d="M 46.4759 114.426082 
L 46.4759 16.529498 
" style="fill: none; stroke: #000000; stroke-width: 0.8; stroke-linejoin: miter; stroke-linecap: square"/>
   </g>
   <g id="patch_8">
    <path d="M 204.8759 114.426082 
L 204.8759 16.529498 
" style="fill: none; stroke: #000000; stroke-width: 0.8; stroke-linejoin: miter; stroke-linecap: square"/>
   </g>
   <g id="patch_9">
    <path d="M 46.4759 114.426082 
L 204.8759 114.426082 
" style="fill: none; stroke: #000000; stroke-width: 0.8; stroke-linejoin: miter; stroke-linecap: square"/>
   </g>
   <g id="patch_10">
    <path d="M 46.4759 16.529498 
L 204.8759 16.529498 
" style="fill: none; stroke: #000000; stroke-width: 0.8; stroke-linejoin: miter; stroke-linecap: square"/>
   </g>
   <g id="legend_1">
    <g id="text_13">
     <!-- $\tau_\mathrm{lag}$ [ns] -->
     <g transform="translate(214.486633 44.564284) scale(0.0833 -0.0833)">
      <use xlink:href="#DejaVuSans-Oblique-3c4" transform="translate(0 0.015625)"/>
      <use xlink:href="#DejaVuSans-6c" transform="translate(60.205078 -16.390625) scale(0.7)"/>
      <use xlink:href="#DejaVuSans-61" transform="translate(79.65332 -16.390625) scale(0.7)"/>
      <use xlink:href="#DejaVuSans-67" transform="translate(122.548828 -16.390625) scale(0.7)"/>
      <use xlink:href="#DejaVuSans-20" transform="translate(169.716797 0.015625)"/>
      <use xlink:href="#DejaVuSans-5b" transform="translate(201.503906 0.015625)"/>
      <use xlink:href="#DejaVuSans-6e" transform="translate(240.517578 0.015625)"/>
      <use xlink:href="#DejaVuSans-73" transform="translate(303.896484 0.015625)"/>
      <use xlink:href="#DejaVuSans-5d" transform="translate(355.996094 0.015625)"/>
     </g>
    </g>
    <g id="patch_11">
     <path d="M 213.7929 56.808083 
L 225.4549 56.808083 
L 225.4549 50.977083 
L 213.7929 50.977083 
z
"/>
    </g>
    <g id="text_14">
     <!-- MD -->
     <g transform="translate(229.6199 56.808083) scale(0.0833 -0.0833)">
      <defs>
       <path id="DejaVuSans-4d" d="M 628 4666 
L 1569 4666 
L 2759 1491 
L 3956 4666 
L 4897 4666 
L 4897 0 
L 4281 0 
L 4281 4097 
L 3078 897 
L 2444 897 
L 1241 4097 
L 1241 0 
L 628 0 
L 628 4666 
z
" transform="scale(0.015625)"/>
       <path id="DejaVuSans-44" d="M 1259 4147 
L 1259 519 
L 2022 519 
Q 2988 519 3436 956 
Q 3884 1394 3884 2338 
Q 3884 3275 3436 3711 
Q 2988 4147 2022 4147 
L 1259 4147 
z
M 628 4666 
L 1925 4666 
Q 3281 4666 3915 4102 
Q 4550 3538 4550 2338 
Q 4550 1131 3912 565 
Q 3275 0 1925 0 
L 628 0 
L 628 4666 
z
" transform="scale(0.015625)"/>
      </defs>
      <use xlink:href="#DejaVuSans-4d"/>
      <use xlink:href="#DejaVuSans-44" x="86.279297"/>
     </g>
    </g>
    <g id="line2d_19">
     <path d="M 213.7929 65.286461 
L 225.4549 65.286461 
" style="fill: none; stroke: #2a9d8f; stroke-linecap: square"/>
    </g>
    <g id="text_15">
     <!-- 10.0 -->
     <g transform="translate(229.6199 68.201961) scale(0.0833 -0.0833)">
      <use xlink:href="#DejaVuSans-31"/>
      <use xlink:href="#DejaVuSans-30" x="63.623047"/>
      <use xlink:href="#DejaVuSans-2e" x="127.246094"/>
      <use xlink:href="#DejaVuSans-30" x="159.033203"/>
     </g>
    </g>
    <g id="line2d_20">
     <path d="M 213.7929 76.680339 
L 225.4549 76.680339 
" style="fill: none; stroke: #e9c46a; stroke-linecap: square"/>
    </g>
    <g id="text_16">
     <!-- 20.0 -->
     <g transform="translate(229.6199 79.595839) scale(0.0833 -0.0833)">
      <use xlink:href="#DejaVuSans-32"/>
      <use xlink:href="#DejaVuSans-30" x="63.623047"/>
      <use xlink:href="#DejaVuSans-2e" x="127.246094"/>
      <use xlink:href="#DejaVuSans-30" x="159.033203"/>
     </g>
    </g>
    <g id="line2d_21">
     <path d="M 213.7929 88.074217 
L 225.4549 88.074217 
" style="fill: none; stroke: #f4a261; stroke-linecap: square"/>
    </g>
    <g id="text_17">
     <!-- 40.0 -->
     <g transform="translate(229.6199 90.989717) scale(0.0833 -0.0833)">
      <use xlink:href="#DejaVuSans-34"/>
      <use xlink:href="#DejaVuSans-30" x="63.623047"/>
      <use xlink:href="#DejaVuSans-2e" x="127.246094"/>
      <use xlink:href="#DejaVuSans-30" x="159.033203"/>
     </g>
    </g>
   </g>
  </g>
 </g>
 <defs>
  <clipPath id="p0b75c78357">
   <rect x="46.4759" y="16.529498" width="158.4" height="97.896584"/>
  </clipPath>
 </defs>
</svg>
