<?xml version="1.0" encoding="utf-8" standalone="no"?>
<!DOCTYPE svg PUBLIC "-//W3C//DTD SVG 1.1//EN"
  "http://www.w3.org/Graphics/SVG/1.1/DTD/svg11.dtd">
<svg xmlns:xlink="http://www.w3.org/1999/xlink" width="259.532166pt" height="151.38796pt" viewBox="0 0 259.532166 151.38796" xmlns="http://www.w3.org/2000/svg" version="1.1">
 <metadata>
  <rdf:RDF xmlns:dc="http://purl.org/dc/elements/1.1/" xmlns:cc="http://creativecommons.org/ns#" xmlns:rdf="http://www.w3.org/1999/02/22-rdf-syntax-ns#">
   <cc:Work>
    <dc:type rdf:resource="http://purl.org/dc/dcmitype/StillImage"/>
    <dc:date>2023-04-21T14:59:27.466618</dc:date>
    <dc:format>image/svg+xml</dc:format>
    <dc:creator>
     <cc:Agent>
      <dc:title>Matplotlib v3.7.1, https://matplotlib.org/</dc:title>
     </cc:Agent>
    </dc:creator>
   </cc:Work>
  </rdf:RDF>
 </metadata>
 <defs>
  <style type="text/css">*{stroke-linejoin: round; stroke-linecap: butt}</style>
 </defs>
 <g id="figure_1">
  <g id="patch_1">
   <path d="M 0 151.38796 
L 259.532166 151.38796 
L 259.532166 0 
L 0 0 
L 0 151.38796 
z
" style="fill: none"/>
  </g>
  <g id="axes_1">
   <g id="patch_2">
    <path d="M 46.4759 114.426082 
L 204.8759 114.426082 
L 204.8759 16.529498 
L 46.4759 16.529498 
L 46.4759 114.426082 
z
" style="fill: none"/>
   </g>
   <g id="matplotlib.axis_1">
    <g id="xtick_1">
     <g id="line2d_1">
      <path d="M 46.4759 114.426082 
L 46.4759 16.529498 
" clip-path="url(#pf414f33d1c)" style="fill: none; stroke-dasharray: 2.96,1.28; stroke-dashoffset: 0; stroke: #dddfe5; stroke-width: 0.8"/>
     </g>
     <g id="line2d_2">
      <defs>
       <path id="m1b19423724" d="M 0 0 
L 0 3.5 
" style="stroke: #000000; stroke-width: 0.8"/>
      </defs>
      <g>
       <use xlink:href="#m1b19423724" x="46.4759" y="114.426082" style="stroke: #000000; stroke-width: 0.8"/>
      </g>
     </g>
     <g id="text_1">
      <!-- 0 -->
      <g transform="translate(43.825919 127.755581) scale(0.0833 -0.0833)">
       <defs>
        <path id="DejaVuSans-30" d="M 2034 4250 
Q 1547 4250 1301 3770 
Q 1056 3291 1056 2328 
Q 1056 1369 1301 889 
Q 1547 409 2034 409 
Q 2525 409 2770 889 
Q 3016 1369 3016 2328 
Q 3016 3291 2770 3770 
Q 2525 4250 2034 4250 
z
M 2034 4750 
Q 2819 4750 3233 4129 
Q 3647 3509 3647 2328 
Q 3647 1150 3233 529 
Q 2819 -91 2034 -91 
Q 1250 -91 836 529 
Q 422 1150 422 2328 
Q 422 3509 836 4129 
Q 1250 4750 2034 4750 
z
" transform="scale(0.015625)"/>
       </defs>
       <use xlink:href="#DejaVuSans-30"/>
      </g>
     </g>
    </g>
    <g id="xtick_2">
     <g id="line2d_3">
      <path d="M 90.766743 114.426082 
L 90.766743 16.529498 
" clip-path="url(#pf414f33d1c)" style="fill: none; stroke-dasharray: 2.96,1.28; stroke-dashoffset: 0; stroke: #dddfe5; stroke-width: 0.8"/>
     </g>
     <g id="line2d_4">
      <g>
       <use xlink:href="#m1b19423724" x="90.766743" y="114.426082" style="stroke: #000000; stroke-width: 0.8"/>
      </g>
     </g>
     <g id="text_2">
      <!-- 10000 -->
      <g transform="translate(77.516837 127.755581) scale(0.0833 -0.0833)">
       <defs>
        <path id="DejaVuSans-31" d="M 794 531 
L 1825 531 
L 1825 4091 
L 703 3866 
L 703 4441 
L 1819 4666 
L 2450 4666 
L 2450 531 
L 3481 531 
L 3481 0 
L 794 0 
L 794 531 
z
" transform="scale(0.015625)"/>
       </defs>
       <use xlink:href="#DejaVuSans-31"/>
       <use xlink:href="#DejaVuSans-30" x="63.623047"/>
       <use xlink:href="#DejaVuSans-30" x="127.246094"/>
       <use xlink:href="#DejaVuSans-30" x="190.869141"/>
       <use xlink:href="#DejaVuSans-30" x="254.492188"/>
      </g>
     </g>
    </g>
    <g id="xtick_3">
     <g id="line2d_5">
      <path d="M 135.057586 114.426082 
L 135.057586 16.529498 
" clip-path="url(#pf414f33d1c)" style="fill: none; stroke-dasharray: 2.96,1.28; stroke-dashoffset: 0; stroke: #dddfe5; stroke-width: 0.8"/>
     </g>
     <g id="line2d_6">
      <g>
       <use xlink:href="#m1b19423724" x="135.057586" y="114.426082" style="stroke: #000000; stroke-width: 0.8"/>
      </g>
     </g>
     <g id="text_3">
      <!-- 20000 -->
      <g transform="translate(121.80768 127.755581) scale(0.0833 -0.0833)">
       <defs>
        <path id="DejaVuSans-32" d="M 1228 531 
L 3431 531 
L 3431 0 
L 469 0 
L 469 531 
Q 828 903 1448 1529 
Q 2069 2156 2228 2338 
Q 2531 2678 2651 2914 
Q 2772 3150 2772 3378 
Q 2772 3750 2511 3984 
Q 2250 4219 1831 4219 
Q 1534 4219 1204 4116 
Q 875 4013 500 3803 
L 500 4441 
Q 881 4594 1212 4672 
Q 1544 4750 1819 4750 
Q 2544 4750 2975 4387 
Q 3406 4025 3406 3419 
Q 3406 3131 3298 2873 
Q 3191 2616 2906 2266 
Q 2828 2175 2409 1742 
Q 1991 1309 1228 531 
z
" transform="scale(0.015625)"/>
       </defs>
       <use xlink:href="#DejaVuSans-32"/>
       <use xlink:href="#DejaVuSans-30" x="63.623047"/>
       <use xlink:href="#DejaVuSans-30" x="127.246094"/>
       <use xlink:href="#DejaVuSans-30" x="190.869141"/>
       <use xlink:href="#DejaVuSans-30" x="254.492188"/>
      </g>
     </g>
    </g>
    <g id="xtick_4">
     <g id="line2d_7">
      <path d="M 179.34843 114.426082 
L 179.34843 16.529498 
" clip-path="url(#pf414f33d1c)" style="fill: none; stroke-dasharray: 2.96,1.28; stroke-dashoffset: 0; stroke: #dddfe5; stroke-width: 0.8"/>
     </g>
     <g id="line2d_8">
      <g>
       <use xlink:href="#m1b19423724" x="179.34843" y="114.426082" style="stroke: #000000; stroke-width: 0.8"/>
      </g>
     </g>
     <g id="text_4">
      <!-- 30000 -->
      <g transform="translate(166.098523 127.755581) scale(0.0833 -0.0833)">
       <defs>
        <path id="DejaVuSans-33" d="M 2597 2516 
Q 3050 2419 3304 2112 
Q 3559 1806 3559 1356 
Q 3559 666 3084 287 
Q 2609 -91 1734 -91 
Q 1441 -91 1130 -33 
Q 819 25 488 141 
L 488 750 
Q 750 597 1062 519 
Q 1375 441 1716 441 
Q 2309 441 2620 675 
Q 2931 909 2931 1356 
Q 2931 1769 2642 2001 
Q 2353 2234 1838 2234 
L 1294 2234 
L 1294 2753 
L 1863 2753 
Q 2328 2753 2575 2939 
Q 2822 3125 2822 3475 
Q 2822 3834 2567 4026 
Q 2313 4219 1838 4219 
Q 1578 4219 1281 4162 
Q 984 4106 628 3988 
L 628 4550 
Q 988 4650 1302 4700 
Q 1616 4750 1894 4750 
Q 2613 4750 3031 4423 
Q 3450 4097 3450 3541 
Q 3450 3153 3228 2886 
Q 3006 2619 2597 2516 
z
" transform="scale(0.015625)"/>
       </defs>
       <use xlink:href="#DejaVuSans-33"/>
       <use xlink:href="#DejaVuSans-30" x="63.623047"/>
       <use xlink:href="#DejaVuSans-30" x="127.246094"/>
       <use xlink:href="#DejaVuSans-30" x="190.869141"/>
       <use xlink:href="#DejaVuSans-30" x="254.492188"/>
      </g>
     </g>
    </g>
    <g id="text_5">
     <!-- $\tau_\mathrm{lag}$ [ns] -->
     <g transform="translate(105.8759 141.08796) scale(0.1 -0.1)">
      <defs>
       <path id="DejaVuSans-Oblique-3c4" d="M 2103 638 
Q 2188 488 2525 488 
L 2800 488 
L 2706 0 
L 2363 0 
Q 1800 0 1600 300 
Q 1403 606 1534 1269 
L 1856 2925 
L 541 2925 
L 653 3500 
L 3881 3500 
L 3769 2925 
L 2444 2925 
L 2113 1234 
Q 2025 781 2103 638 
z
" transform="scale(0.015625)"/>
       <path id="DejaVuSans-6c" d="M 603 4863 
L 1178 4863 
L 1178 0 
L 603 0 
L 603 4863 
z
" transform="scale(0.015625)"/>
       <path id="DejaVuSans-61" d="M 2194 1759 
Q 1497 1759 1228 1600 
Q 959 1441 959 1056 
Q 959 750 1161 570 
Q 1363 391 1709 391 
Q 2188 391 2477 730 
Q 2766 1069 2766 1631 
L 2766 1759 
L 2194 1759 
z
M 3341 1997 
L 3341 0 
L 2766 0 
L 2766 531 
Q 2569 213 2275 61 
Q 1981 -91 1556 -91 
Q 1019 -91 701 211 
Q 384 513 384 1019 
Q 384 1609 779 1909 
Q 1175 2209 1959 2209 
L 2766 2209 
L 2766 2266 
Q 2766 2663 2505 2880 
Q 2244 3097 1772 3097 
Q 1472 3097 1187 3025 
Q 903 2953 641 2809 
L 641 3341 
Q 956 3463 1253 3523 
Q 1550 3584 1831 3584 
Q 2591 3584 2966 3190 
Q 3341 2797 3341 1997 
z
" transform="scale(0.015625)"/>
       <path id="DejaVuSans-67" d="M 2906 1791 
Q 2906 2416 2648 2759 
Q 2391 3103 1925 3103 
Q 1463 3103 1205 2759 
Q 947 2416 947 1791 
Q 947 1169 1205 825 
Q 1463 481 1925 481 
Q 2391 481 2648 825 
Q 2906 1169 2906 1791 
z
M 3481 434 
Q 3481 -459 3084 -895 
Q 2688 -1331 1869 -1331 
Q 1566 -1331 1297 -1286 
Q 1028 -1241 775 -1147 
L 775 -588 
Q 1028 -725 1275 -790 
Q 1522 -856 1778 -856 
Q 2344 -856 2625 -561 
Q 2906 -266 2906 331 
L 2906 616 
Q 2728 306 2450 153 
Q 2172 0 1784 0 
Q 1141 0 747 490 
Q 353 981 353 1791 
Q 353 2603 747 3093 
Q 1141 3584 1784 3584 
Q 2172 3584 2450 3431 
Q 2728 3278 2906 2969 
L 2906 3500 
L 3481 3500 
L 3481 434 
z
" transform="scale(0.015625)"/>
       <path id="DejaVuSans-20" transform="scale(0.015625)"/>
       <path id="DejaVuSans-5b" d="M 550 4863 
L 1875 4863 
L 1875 4416 
L 1125 4416 
L 1125 -397 
L 1875 -397 
L 1875 -844 
L 550 -844 
L 550 4863 
z
" transform="scale(0.015625)"/>
       <path id="DejaVuSans-6e" d="M 3513 2113 
L 3513 0 
L 2938 0 
L 2938 2094 
Q 2938 2591 2744 2837 
Q 2550 3084 2163 3084 
Q 1697 3084 1428 2787 
Q 1159 2491 1159 1978 
L 1159 0 
L 581 0 
L 581 3500 
L 1159 3500 
L 1159 2956 
Q 1366 3272 1645 3428 
Q 1925 3584 2291 3584 
Q 2894 3584 3203 3211 
Q 3513 2838 3513 2113 
z
" transform="scale(0.015625)"/>
       <path id="DejaVuSans-73" d="M 2834 3397 
L 2834 2853 
Q 2591 2978 2328 3040 
Q 2066 3103 1784 3103 
Q 1356 3103 1142 2972 
Q 928 2841 928 2578 
Q 928 2378 1081 2264 
Q 1234 2150 1697 2047 
L 1894 2003 
Q 2506 1872 2764 1633 
Q 3022 1394 3022 966 
Q 3022 478 2636 193 
Q 2250 -91 1575 -91 
Q 1294 -91 989 -36 
Q 684 19 347 128 
L 347 722 
Q 666 556 975 473 
Q 1284 391 1588 391 
Q 1994 391 2212 530 
Q 2431 669 2431 922 
Q 2431 1156 2273 1281 
Q 2116 1406 1581 1522 
L 1381 1569 
Q 847 1681 609 1914 
Q 372 2147 372 2553 
Q 372 3047 722 3315 
Q 1072 3584 1716 3584 
Q 2034 3584 2315 3537 
Q 2597 3491 2834 3397 
z
" transform="scale(0.015625)"/>
       <path id="DejaVuSans-5d" d="M 1947 4863 
L 1947 -844 
L 622 -844 
L 622 -397 
L 1369 -397 
L 1369 4416 
L 622 4416 
L 622 4863 
L 1947 4863 
z
" transform="scale(0.015625)"/>
      </defs>
      <use xlink:href="#DejaVuSans-Oblique-3c4" transform="translate(0 0.015625)"/>
      <use xlink:href="#DejaVuSans-6c" transform="translate(60.205078 -16.390625) scale(0.7)"/>
      <use xlink:href="#DejaVuSans-61" transform="translate(79.65332 -16.390625) scale(0.7)"/>
      <use xlink:href="#DejaVuSans-67" transform="translate(122.548828 -16.390625) scale(0.7)"/>
      <use xlink:href="#DejaVuSans-20" transform="translate(169.716797 0.015625)"/>
      <use xlink:href="#DejaVuSans-5b" transform="translate(201.503906 0.015625)"/>
      <use xlink:href="#DejaVuSans-6e" transform="translate(240.517578 0.015625)"/>
      <use xlink:href="#DejaVuSans-73" transform="translate(303.896484 0.015625)"/>
      <use xlink:href="#DejaVuSans-5d" transform="translate(355.996094 0.015625)"/>
     </g>
    </g>
   </g>
   <g id="matplotlib.axis_2">
    <g id="ytick_1">
     <g id="line2d_9">
      <path d="M 46.4759 114.426082 
L 204.8759 114.426082 
" clip-path="url(#pf414f33d1c)" style="fill: none; stroke-dasharray: 2.96,1.28; stroke-dashoffset: 0; stroke: #dddfe5; stroke-width: 0.8"/>
     </g>
     <g id="line2d_10">
      <defs>
       <path id="m7fc9fdad4d" d="M 0 0 
L -3.5 0 
" style="stroke: #000000; stroke-width: 0.8"/>
      </defs>
      <g>
       <use xlink:href="#m7fc9fdad4d" x="46.4759" y="114.426082" style="stroke: #000000; stroke-width: 0.8"/>
      </g>
     </g>
     <g id="text_6">
      <!-- $\mathdefault{0.00}$ -->
      <g transform="translate(20.9 117.590831) scale(0.0833 -0.0833)">
       <defs>
        <path id="DejaVuSans-2e" d="M 684 794 
L 1344 794 
L 1344 0 
L 684 0 
L 684 794 
z
" transform="scale(0.015625)"/>
       </defs>
       <use xlink:href="#DejaVuSans-30" transform="translate(0 0.78125)"/>
       <use xlink:href="#DejaVuSans-2e" transform="translate(63.623047 0.78125)"/>
       <use xlink:href="#DejaVuSans-30" transform="translate(95.410156 0.78125)"/>
       <use xlink:href="#DejaVuSans-30" transform="translate(159.033203 0.78125)"/>
      </g>
     </g>
    </g>
    <g id="ytick_2">
     <g id="line2d_11">
      <path d="M 46.4759 90.255292 
L 204.8759 90.255292 
" clip-path="url(#pf414f33d1c)" style="fill: none; stroke-dasharray: 2.96,1.28; stroke-dashoffset: 0; stroke: #dddfe5; stroke-width: 0.8"/>
     </g>
     <g id="line2d_12">
      <g>
       <use xlink:href="#m7fc9fdad4d" x="46.4759" y="90.255292" style="stroke: #000000; stroke-width: 0.8"/>
      </g>
     </g>
     <g id="text_7">
      <!-- $\mathdefault{0.25}$ -->
      <g transform="translate(21.3165 93.420042) scale(0.0833 -0.0833)">
       <defs>
        <path id="DejaVuSans-35" d="M 691 4666 
L 3169 4666 
L 3169 4134 
L 1269 4134 
L 1269 2991 
Q 1406 3038 1543 3061 
Q 1681 3084 1819 3084 
Q 2600 3084 3056 2656 
Q 3513 2228 3513 1497 
Q 3513 744 3044 326 
Q 2575 -91 1722 -91 
Q 1428 -91 1123 -41 
Q 819 9 494 109 
L 494 744 
Q 775 591 1075 516 
Q 1375 441 1709 441 
Q 2250 441 2565 725 
Q 2881 1009 2881 1497 
Q 2881 1984 2565 2268 
Q 2250 2553 1709 2553 
Q 1456 2553 1204 2497 
Q 953 2441 691 2322 
L 691 4666 
z
" transform="scale(0.015625)"/>
       </defs>
       <use xlink:href="#DejaVuSans-30" transform="translate(0 0.78125)"/>
       <use xlink:href="#DejaVuSans-2e" transform="translate(63.623047 0.78125)"/>
       <use xlink:href="#DejaVuSans-32" transform="translate(89.910156 0.78125)"/>
       <use xlink:href="#DejaVuSans-35" transform="translate(153.533203 0.78125)"/>
      </g>
     </g>
    </g>
    <g id="ytick_3">
     <g id="line2d_13">
      <path d="M 46.4759 66.084502 
L 204.8759 66.084502 
" clip-path="url(#pf414f33d1c)" style="fill: none; stroke-dasharray: 2.96,1.28; stroke-dashoffset: 0; stroke: #dddfe5; stroke-width: 0.8"/>
     </g>
     <g id="line2d_14">
      <g>
       <use xlink:href="#m7fc9fdad4d" x="46.4759" y="66.084502" style="stroke: #000000; stroke-width: 0.8"/>
      </g>
     </g>
     <g id="text_8">
      <!-- $\mathdefault{0.50}$ -->
      <g transform="translate(20.9 69.249252) scale(0.0833 -0.0833)">
       <use xlink:href="#DejaVuSans-30" transform="translate(0 0.78125)"/>
       <use xlink:href="#DejaVuSans-2e" transform="translate(63.623047 0.78125)"/>
       <use xlink:href="#DejaVuSans-35" transform="translate(95.410156 0.78125)"/>
       <use xlink:href="#DejaVuSans-30" transform="translate(159.033203 0.78125)"/>
      </g>
     </g>
    </g>
    <g id="ytick_4">
     <g id="line2d_15">
      <path d="M 46.4759 41.913712 
L 204.8759 41.913712 
" clip-path="url(#pf414f33d1c)" style="fill: none; stroke-dasharray: 2.96,1.28; stroke-dashoffset: 0; stroke: #dddfe5; stroke-width: 0.8"/>
     </g>
     <g id="line2d_16">
      <g>
       <use xlink:href="#m7fc9fdad4d" x="46.4759" y="41.913712" style="stroke: #000000; stroke-width: 0.8"/>
      </g>
     </g>
     <g id="text_9">
      <!-- $\mathdefault{0.75}$ -->
      <g transform="translate(21.5664 45.078462) scale(0.0833 -0.0833)">
       <defs>
        <path id="DejaVuSans-37" d="M 525 4666 
L 3525 4666 
L 3525 4397 
L 1831 0 
L 1172 0 
L 2766 4134 
L 525 4134 
L 525 4666 
z
" transform="scale(0.015625)"/>
       </defs>
       <use xlink:href="#DejaVuSans-30" transform="translate(0 0.78125)"/>
       <use xlink:href="#DejaVuSans-2e" transform="translate(63.623047 0.78125)"/>
       <use xlink:href="#DejaVuSans-37" transform="translate(87.660156 0.78125)"/>
       <use xlink:href="#DejaVuSans-35" transform="translate(151.283203 0.78125)"/>
      </g>
     </g>
    </g>
    <g id="ytick_5">
     <g id="line2d_17">
      <path d="M 46.4759 17.742922 
L 204.8759 17.742922 
" clip-path="url(#pf414f33d1c)" style="fill: none; stroke-dasharray: 2.96,1.28; stroke-dashoffset: 0; stroke: #dddfe5; stroke-width: 0.8"/>
     </g>
     <g id="line2d_18">
      <g>
       <use xlink:href="#m7fc9fdad4d" x="46.4759" y="17.742922" style="stroke: #000000; stroke-width: 0.8"/>
      </g>
     </g>
     <g id="text_10">
      <!-- $\mathdefault{1.00}$ -->
      <g transform="translate(20.9 20.907672) scale(0.0833 -0.0833)">
       <use xlink:href="#DejaVuSans-31" transform="translate(0 0.78125)"/>
       <use xlink:href="#DejaVuSans-2e" transform="translate(63.623047 0.78125)"/>
       <use xlink:href="#DejaVuSans-30" transform="translate(95.410156 0.78125)"/>
       <use xlink:href="#DejaVuSans-30" transform="translate(159.033203 0.78125)"/>
      </g>
     </g>
    </g>
    <g id="text_11">
     <!-- probability $P$ -->
     <g transform="translate(14.8 96.87779) rotate(-90) scale(0.1 -0.1)">
      <defs>
       <path id="DejaVuSans-70" d="M 1159 525 
L 1159 -1331 
L 581 -1331 
L 581 3500 
L 1159 3500 
L 1159 2969 
Q 1341 3281 1617 3432 
Q 1894 3584 2278 3584 
Q 2916 3584 3314 3078 
Q 3713 2572 3713 1747 
Q 3713 922 3314 415 
Q 2916 -91 2278 -91 
Q 1894 -91 1617 61 
Q 1341 213 1159 525 
z
M 3116 1747 
Q 3116 2381 2855 2742 
Q 2594 3103 2138 3103 
Q 1681 3103 1420 2742 
Q 1159 2381 1159 1747 
Q 1159 1113 1420 752 
Q 1681 391 2138 391 
Q 2594 391 2855 752 
Q 3116 1113 3116 1747 
z
" transform="scale(0.015625)"/>
       <path id="DejaVuSans-72" d="M 2631 2963 
Q 2534 3019 2420 3045 
Q 2306 3072 2169 3072 
Q 1681 3072 1420 2755 
Q 1159 2438 1159 1844 
L 1159 0 
L 581 0 
L 581 3500 
L 1159 3500 
L 1159 2956 
Q 1341 3275 1631 3429 
Q 1922 3584 2338 3584 
Q 2397 3584 2469 3576 
Q 2541 3569 2628 3553 
L 2631 2963 
z
" transform="scale(0.015625)"/>
       <path id="DejaVuSans-6f" d="M 1959 3097 
Q 1497 3097 1228 2736 
Q 959 2375 959 1747 
Q 959 1119 1226 758 
Q 1494 397 1959 397 
Q 2419 397 2687 759 
Q 2956 1122 2956 1747 
Q 2956 2369 2687 2733 
Q 2419 3097 1959 3097 
z
M 1959 3584 
Q 2709 3584 3137 3096 
Q 3566 2609 3566 1747 
Q 3566 888 3137 398 
Q 2709 -91 1959 -91 
Q 1206 -91 779 398 
Q 353 888 353 1747 
Q 353 2609 779 3096 
Q 1206 3584 1959 3584 
z
" transform="scale(0.015625)"/>
       <path id="DejaVuSans-62" d="M 3116 1747 
Q 3116 2381 2855 2742 
Q 2594 3103 2138 3103 
Q 1681 3103 1420 2742 
Q 1159 2381 1159 1747 
Q 1159 1113 1420 752 
Q 1681 391 2138 391 
Q 2594 391 2855 752 
Q 3116 1113 3116 1747 
z
M 1159 2969 
Q 1341 3281 1617 3432 
Q 1894 3584 2278 3584 
Q 2916 3584 3314 3078 
Q 3713 2572 3713 1747 
Q 3713 922 3314 415 
Q 2916 -91 2278 -91 
Q 1894 -91 1617 61 
Q 1341 213 1159 525 
L 1159 0 
L 581 0 
L 581 4863 
L 1159 4863 
L 1159 2969 
z
" transform="scale(0.015625)"/>
       <path id="DejaVuSans-69" d="M 603 3500 
L 1178 3500 
L 1178 0 
L 603 0 
L 603 3500 
z
M 603 4863 
L 1178 4863 
L 1178 4134 
L 603 4134 
L 603 4863 
z
" transform="scale(0.015625)"/>
       <path id="DejaVuSans-74" d="M 1172 4494 
L 1172 3500 
L 2356 3500 
L 2356 3053 
L 1172 3053 
L 1172 1153 
Q 1172 725 1289 603 
Q 1406 481 1766 481 
L 2356 481 
L 2356 0 
L 1766 0 
Q 1100 0 847 248 
Q 594 497 594 1153 
L 594 3053 
L 172 3053 
L 172 3500 
L 594 3500 
L 594 4494 
L 1172 4494 
z
" transform="scale(0.015625)"/>
       <path id="DejaVuSans-79" d="M 2059 -325 
Q 1816 -950 1584 -1140 
Q 1353 -1331 966 -1331 
L 506 -1331 
L 506 -850 
L 844 -850 
Q 1081 -850 1212 -737 
Q 1344 -625 1503 -206 
L 1606 56 
L 191 3500 
L 800 3500 
L 1894 763 
L 2988 3500 
L 3597 3500 
L 2059 -325 
z
" transform="scale(0.015625)"/>
       <path id="DejaVuSans-Oblique-50" d="M 1081 4666 
L 2541 4666 
Q 3178 4666 3512 4369 
Q 3847 4072 3847 3500 
Q 3847 2731 3353 2303 
Q 2859 1875 1966 1875 
L 1172 1875 
L 806 0 
L 172 0 
L 1081 4666 
z
M 1613 4147 
L 1275 2394 
L 2069 2394 
Q 2606 2394 2893 2669 
Q 3181 2944 3181 3456 
Q 3181 3784 2986 3965 
Q 2791 4147 2438 4147 
L 1613 4147 
z
" transform="scale(0.015625)"/>
      </defs>
      <use xlink:href="#DejaVuSans-70" transform="translate(0 0.015625)"/>
      <use xlink:href="#DejaVuSans-72" transform="translate(63.476562 0.015625)"/>
      <use xlink:href="#DejaVuSans-6f" transform="translate(104.589844 0.015625)"/>
      <use xlink:href="#DejaVuSans-62" transform="translate(165.771484 0.015625)"/>
      <use xlink:href="#DejaVuSans-61" transform="translate(229.248047 0.015625)"/>
      <use xlink:href="#DejaVuSans-62" transform="translate(290.527344 0.015625)"/>
      <use xlink:href="#DejaVuSans-69" transform="translate(354.003906 0.015625)"/>
      <use xlink:href="#DejaVuSans-6c" transform="translate(381.787109 0.015625)"/>
      <use xlink:href="#DejaVuSans-69" transform="translate(409.570312 0.015625)"/>
      <use xlink:href="#DejaVuSans-74" transform="translate(437.353516 0.015625)"/>
      <use xlink:href="#DejaVuSans-79" transform="translate(476.5625 0.015625)"/>
      <use xlink:href="#DejaVuSans-20" transform="translate(535.742188 0.015625)"/>
      <use xlink:href="#DejaVuSans-Oblique-50" transform="translate(567.529297 0.015625)"/>
     </g>
    </g>
    <g id="text_12">
     <!-- $\times\mathdefault{10^{−4}}\mathdefault{}$ -->
     <g transform="translate(19.9865 13.529498) scale(0.0833 -0.0833)">
      <defs>
       <path id="DejaVuSans-d7" d="M 4488 3438 
L 3059 2003 
L 4488 575 
L 4116 197 
L 2681 1631 
L 1247 197 
L 878 575 
L 2303 2003 
L 878 3438 
L 1247 3816 
L 2681 2381 
L 4116 3816 
L 4488 3438 
z
" transform="scale(0.015625)"/>
       <path id="DejaVuSans-2212" d="M 678 2272 
L 4684 2272 
L 4684 1741 
L 678 1741 
L 678 2272 
z
" transform="scale(0.015625)"/>
       <path id="DejaVuSans-34" d="M 2419 4116 
L 825 1625 
L 2419 1625 
L 2419 4116 
z
M 2253 4666 
L 3047 4666 
L 3047 1625 
L 3713 1625 
L 3713 1100 
L 3047 1100 
L 3047 0 
L 2419 0 
L 2419 1100 
L 313 1100 
L 313 1709 
L 2253 4666 
z
" transform="scale(0.015625)"/>
      </defs>
      <use xlink:href="#DejaVuSans-d7" transform="translate(0 0.684375)"/>
      <use xlink:href="#DejaVuSans-31" transform="translate(83.789062 0.684375)"/>
      <use xlink:href="#DejaVuSans-30" transform="translate(147.412109 0.684375)"/>
      <use xlink:href="#DejaVuSans-2212" transform="translate(211.992188 38.965625) scale(0.7)"/>
      <use xlink:href="#DejaVuSans-34" transform="translate(270.644531 38.965625) scale(0.7)"/>
     </g>
    </g>
   </g>
   <g id="patch_3">
    <path d="M 46.4759 114.426082 
L 46.4759 46.463354 
L 50.436387 46.463354 
L 50.436387 71.177073 
L 54.396874 71.177073 
L 54.396874 77.355503 
L 58.357362 77.355503 
L 58.357362 108.247652 
L 62.317849 108.247652 
L 62.317849 89.712363 
L 66.278336 89.712363 
L 66.278336 95.890793 
L 70.238823 95.890793 
L 70.238823 114.426082 
L 74.19931 114.426082 
L 74.19931 108.247652 
L 78.159798 108.247652 
L 78.159798 114.426082 
L 82.120285 114.426082 
L 82.120285 108.247652 
L 86.080772 108.247652 
L 86.080772 114.426082 
L 90.041259 114.426082 
L 90.041259 114.426082 
L 94.001746 114.426082 
L 94.001746 114.426082 
L 97.962234 114.426082 
L 97.962234 108.247652 
L 101.922721 108.247652 
L 101.922721 114.426082 
L 105.883208 114.426082 
L 105.883208 114.426082 
L 109.843695 114.426082 
L 109.843695 114.426082 
L 113.804182 114.426082 
L 113.804182 114.426082 
L 117.76467 114.426082 
L 117.76467 114.426082 
L 121.725157 114.426082 
L 121.725157 114.426082 
" clip-path="url(#pf414f33d1c)"/>
   </g>
   <g id="patch_4">
    <path d="M 46.4759 114.426082 
L 46.520191 114.426082 
L 46.697354 97.373018 
L 46.741645 97.373018 
L 46.918808 80.405648 
L 46.963099 80.405648 
L 47.095972 72.264738 
L 47.140263 72.350432 
L 47.184553 72.350432 
L 47.317426 57.696794 
L 47.361717 58.896507 
L 47.406008 58.896507 
L 47.53888 52.212392 
L 47.583171 53.497799 
L 47.627462 53.497799 
L 47.716044 44.585645 
L 47.804625 44.92842 
L 47.848916 44.92842 
L 47.937498 37.730142 
L 48.02608 41.157893 
L 48.07037 41.157893 
L 48.07037 33.959615 
L 48.203243 42.100525 
L 48.247534 41.586362 
L 48.291825 41.586362 
L 48.468988 31.388801 
L 48.513279 31.388801 
L 48.60186 34.045309 
L 48.646151 27.275499 
L 48.690442 27.618275 
L 48.734733 27.618275 
L 48.867606 32.331433 
L 48.911896 31.217414 
L 48.956187 31.217414 
L 48.956187 27.96105 
L 49.133351 34.30239 
L 49.177641 34.30239 
L 49.266223 21.191241 
L 49.354805 31.988658 
L 49.443386 32.160045 
L 49.487677 27.618275 
L 49.576259 37.387367 
L 49.62055 29.589232 
L 49.664841 29.589232 
L 49.664841 26.332868 
L 49.709132 31.731576 
L 49.842004 27.789662 
L 49.886295 27.789662 
L 49.886295 27.018418 
L 49.974877 32.93129 
L 50.063458 31.13172 
L 50.107749 31.13172 
L 50.15204 34.388084 
L 50.240622 30.274782 
L 50.284913 31.560189 
L 50.329203 31.560189 
L 50.462076 36.10196 
L 50.506367 34.902247 
L 50.550658 34.902247 
L 50.550658 39.615405 
L 50.639239 31.13172 
L 50.727821 37.215979 
L 50.772112 37.215979 
L 50.772112 41.75775 
L 50.949275 35.759185 
L 50.993566 35.759185 
L 51.126439 42.186219 
L 51.170729 41.329281 
L 51.21502 41.329281 
L 51.303602 39.186936 
L 51.392184 46.213827 
L 51.436474 46.213827 
L 51.436474 38.672773 
L 51.613638 40.986506 
L 51.657929 40.986506 
L 51.790801 47.756315 
L 51.835092 47.584927 
L 51.879383 47.584927 
L 51.923674 42.614688 
L 52.056546 46.813683 
L 52.100837 46.813683 
L 52.189419 45.956745 
L 52.278 53.926268 
L 52.322291 53.926268 
L 52.455164 45.528276 
L 52.499455 48.698947 
L 52.588036 48.78464 
L 52.632327 55.55445 
L 52.7652 52.640861 
L 52.809491 52.640861 
L 52.898072 56.839856 
L 52.942363 50.755598 
L 52.986654 53.840574 
L 53.030945 53.840574 
L 53.030945 53.583493 
L 53.208108 59.839139 
L 53.252399 59.839139 
L 53.340981 56.154306 
L 53.429562 56.754163 
L 53.473853 56.754163 
L 53.473853 54.783206 
L 53.518144 60.610383 
L 53.651017 59.582058 
L 53.695307 59.582058 
L 53.872471 63.866747 
L 53.916762 63.866747 
L 54.093925 58.896507 
L 54.138216 58.896507 
L 54.315379 67.637274 
L 54.35967 67.637274 
L 54.448252 68.408518 
L 54.536833 63.523972 
L 54.581124 63.523972 
L 54.669706 70.0367 
L 54.758288 64.723685 
L 54.802579 64.723685 
L 54.846869 71.579188 
L 54.979742 69.179762 
L 55.024033 69.179762 
L 55.024033 70.0367 
L 55.156905 68.665599 
L 55.201196 69.693925 
L 55.245487 69.693925 
L 55.334069 68.922681 
L 55.42265 76.635122 
L 55.466941 76.635122 
L 55.555523 68.494212 
L 55.644105 77.234978 
L 55.688395 77.234978 
L 55.776977 71.750576 
L 55.865559 76.806509 
L 55.90985 76.806509 
L 55.95414 74.664164 
L 56.087013 75.264021 
L 56.131304 75.264021 
L 56.264176 78.091916 
L 56.308467 77.234978 
L 56.352758 77.234978 
L 56.352758 75.00694 
L 56.44134 79.034548 
L 56.529921 76.463734 
L 56.574212 76.463734 
L 56.707085 81.776749 
L 56.751376 77.663447 
L 56.795666 77.663447 
L 56.97283 83.14785 
L 57.017121 83.14785 
L 57.105702 79.377323 
L 57.194284 82.462299 
L 57.238575 82.462299 
L 57.282866 79.720098 
L 57.415738 86.832682 
L 57.460029 86.832682 
L 57.50432 81.262586 
L 57.637192 81.862443 
L 57.681483 81.862443 
L 57.858647 85.375888 
L 57.947228 85.461582 
L 57.991519 83.662012 
L 58.03581 87.175458 
L 58.124392 84.176175 
L 58.168683 84.176175 
L 58.301555 88.717946 
L 58.345846 87.68962 
L 58.390137 87.68962 
L 58.434428 86.746989 
L 58.478719 88.717946 
L 58.5673 87.261151 
L 58.611591 87.261151 
L 58.611591 86.232826 
L 58.700173 91.031678 
L 58.788754 89.574884 
L 58.833045 89.574884 
L 58.921627 91.374453 
L 59.010209 88.717946 
L 59.054499 88.717946 
L 59.187372 93.431104 
L 59.09879 84.947419 
L 59.231663 88.889333 
L 59.275954 88.889333 
L 59.408826 92.060003 
L 59.453117 90.688903 
L 59.497408 90.688903 
L 59.58599 93.259717 
L 59.541699 89.660577 
L 59.674571 92.231391 
L 59.763153 92.402779 
L 59.763153 89.403496 
L 59.851735 96.087612 
L 59.940316 91.888616 
L 59.984607 91.888616 
L 60.11748 94.973592 
L 60.161771 93.088329 
L 60.206061 93.088329 
L 60.206061 91.717228 
L 60.338934 94.545123 
L 60.383225 93.859573 
L 60.427516 93.859573 
L 60.427516 93.174023 
L 60.604679 97.115937 
L 60.64897 97.115937 
L 60.693261 92.916941 
L 60.826133 94.45943 
L 60.870424 94.45943 
L 61.003297 97.201631 
L 60.914715 93.859573 
L 61.047587 96.51608 
L 61.091878 96.51608 
L 61.091878 97.458712 
L 61.18046 96.173305 
L 61.269042 96.173305 
L 61.357623 96.173305 
L 61.490496 99.0012 
L 61.401914 95.14498 
L 61.534787 97.287325 
L 61.579078 97.287325 
L 61.667659 98.915507 
L 61.623368 95.487755 
L 61.756241 97.458712 
L 61.800532 97.458712 
L 61.933404 101.057851 
L 61.889113 96.51608 
L 61.977695 98.144262 
L 62.021986 98.144262 
L 62.154858 98.829813 
L 62.199149 96.601774 
L 62.24344 96.601774 
L 62.24344 100.80077 
L 62.420604 99.515363 
L 62.464894 99.515363 
L 62.509185 99.429669 
L 62.642058 100.629382 
L 62.686349 100.629382 
L 62.730639 101.48632 
L 62.863512 99.0012 
L 62.907803 99.0012 
L 62.907803 101.48632 
L 63.084966 100.286607 
L 63.129257 100.286607 
L 63.217839 101.572014 
L 63.26213 99.515363 
L 63.30642 100.11522 
L 63.350711 100.11522 
L 63.350711 102.857421 
L 63.527875 101.829095 
L 63.616456 101.829095 
L 63.705038 103.628665 
L 63.749329 100.715076 
L 63.79362 101.314933 
L 63.837911 101.314933 
L 63.926492 102.857421 
L 64.015074 102.000483 
L 64.059365 102.000483 
L 64.059365 99.858138 
L 64.192237 103.714359 
L 64.236528 100.715076 
L 64.280819 100.715076 
L 64.369401 104.485603 
L 64.457982 104.399909 
L 64.546564 104.571297 
L 64.546564 102.857421 
L 64.590855 105.77101 
L 64.723727 104.399909 
L 64.768018 104.399909 
L 64.768018 103.371584 
L 64.945182 104.828378 
L 64.989472 104.828378 
L 64.989472 105.171153 
L 65.078054 103.028808 
L 65.166636 104.828378 
L 65.210927 104.828378 
L 65.210927 105.428234 
L 65.38809 102.771727 
L 65.432381 102.771727 
L 65.609544 105.942397 
L 65.653835 105.942397 
L 65.698126 104.742684 
L 65.830998 106.370866 
L 65.875289 106.370866 
L 66.052453 104.485603 
L 66.096744 104.485603 
L 66.229616 107.913354 
L 66.141034 104.228521 
L 66.273907 105.599622 
L 66.318198 105.599622 
L 66.45107 107.827661 
L 66.495361 106.627948 
L 66.539652 106.627948 
L 66.539652 105.085459 
L 66.583943 106.970723 
L 66.716815 106.627948 
L 66.805397 106.627948 
L 66.805397 107.484885 
L 66.849688 106.45656 
L 66.98256 106.627948 
L 67.026851 106.627948 
L 67.204015 107.570579 
L 67.248305 107.570579 
L 67.248305 105.171153 
L 67.425469 107.056416 
L 67.514051 107.14211 
L 67.602632 108.084742 
L 67.691214 106.885029 
L 67.779796 106.970723 
L 67.912668 108.513211 
L 67.956959 108.513211 
L 68.00125 108.513211 
L 68.00125 107.399192 
L 68.178413 107.656273 
L 68.222704 107.656273 
L 68.222704 109.027374 
L 68.266995 107.484885 
L 68.399867 109.027374 
L 68.444158 109.027374 
L 68.444158 107.656273 
L 68.621322 108.770292 
L 68.665612 108.770292 
L 68.798485 107.741967 
L 68.842776 109.798618 
L 68.887067 109.798618 
L 68.887067 107.827661 
L 69.06423 107.999048 
L 69.108521 107.999048 
L 69.285684 110.31278 
L 69.329975 110.31278 
L 69.462848 108.598905 
L 69.507138 110.227087 
L 69.551429 110.227087 
L 69.551429 108.855986 
L 69.59572 110.998331 
L 69.728593 109.541536 
L 69.772884 109.541536 
L 69.950047 110.055699 
L 70.038629 109.970005 
L 70.082919 110.826943 
L 70.12721 109.113067 
L 70.215792 109.455843 
L 70.260083 109.455843 
L 70.392955 110.569862 
L 70.437246 109.970005 
L 70.481537 109.970005 
L 70.570119 109.113067 
L 70.6587 110.484168 
L 70.747282 110.398474 
L 70.835864 110.655556 
L 70.924445 108.855986 
L 70.968736 108.855986 
L 71.101609 111.855269 
L 71.1459 110.227087 
L 71.190191 110.227087 
L 71.323063 111.512493 
L 71.234481 109.198761 
L 71.367354 110.912637 
L 71.411645 110.912637 
L 71.500226 109.712924 
L 71.588808 111.940962 
L 71.633099 111.940962 
L 71.633099 109.798618 
L 71.810262 111.169718 
L 71.943135 111.255412 
L 72.076007 109.62723 
L 72.120298 111.169718 
L 72.20888 110.998331 
L 72.297462 110.227087 
L 72.341752 111.341106 
L 72.386043 111.341106 
L 72.430334 111.341106 
L 72.430334 111.940962 
L 72.474625 111.255412 
L 72.607497 111.4268 
L 72.696079 111.512493 
L 72.696079 109.712924 
L 72.74037 111.683881 
L 72.873243 110.998331 
L 72.917533 110.998331 
L 72.917533 112.026656 
L 72.961824 110.826943 
L 73.094697 111.084025 
L 73.138988 111.084025 
L 73.138988 112.283738 
L 73.316151 111.341106 
L 73.360442 111.341106 
L 73.449024 112.455125 
L 73.537605 111.769575 
L 73.581896 111.769575 
L 73.626187 110.998331 
L 73.759059 112.283738 
L 73.80335 112.283738 
L 73.980514 111.512493 
L 74.024804 111.512493 
L 74.024804 110.826943 
L 74.157677 112.369431 
L 74.201968 112.283738 
L 74.29055 112.283738 
L 74.379131 112.626513 
L 74.423422 111.769575 
L 74.467713 111.940962 
L 74.512004 111.940962 
L 74.512004 112.198044 
L 74.556295 111.769575 
L 74.689167 112.11235 
L 74.733458 112.11235 
L 74.86633 111.598187 
L 74.910621 112.11235 
L 74.954912 112.11235 
L 74.954912 112.369431 
L 74.999203 111.683881 
L 75.132076 112.026656 
L 75.176366 112.026656 
L 75.220657 112.883594 
L 75.264948 111.169718 
L 75.35353 112.11235 
L 75.397821 112.11235 
L 75.397821 112.7979 
L 75.486402 111.255412 
L 75.574984 112.026656 
L 75.619275 112.026656 
L 75.752147 112.626513 
L 75.707857 111.4268 
L 75.796438 112.455125 
L 75.88502 112.540819 
L 75.88502 113.054982 
L 76.062183 112.283738 
L 76.150765 112.455125 
L 76.150765 111.598187 
L 76.327928 112.7979 
L 76.372219 112.7979 
L 76.41651 111.769575 
L 76.549383 113.312063 
L 76.637964 113.312063 
L 76.770837 112.026656 
L 76.815128 112.026656 
L 76.859418 112.026656 
L 76.992291 113.140675 
L 77.036582 112.198044 
L 77.125163 112.11235 
L 77.169454 113.397757 
L 77.302327 112.540819 
L 77.390909 112.712206 
L 77.47949 112.969288 
L 77.568072 112.369431 
L 77.612363 112.369431 
L 77.745235 113.569144 
L 77.789526 112.969288 
L 77.922399 113.054982 
L 77.922399 113.312063 
L 78.055271 112.7979 
L 78.099562 113.140675 
L 78.143853 113.140675 
L 78.232435 112.026656 
L 78.321016 113.312063 
L 78.409598 113.397757 
L 78.54247 111.940962 
L 78.586761 113.91192 
L 78.631052 113.91192 
L 78.675343 113.054982 
L 78.808216 113.483451 
L 78.852506 113.483451 
L 78.941088 113.654838 
L 79.02967 112.883594 
L 79.073961 112.883594 
L 79.251124 113.91192 
L 79.295415 113.91192 
L 79.428287 113.054982 
L 79.472578 113.226369 
L 79.56116 113.397757 
L 79.56116 112.7979 
L 79.738323 113.91192 
L 79.782614 113.91192 
L 79.959777 112.969288 
L 80.004068 112.969288 
L 80.181232 113.91192 
L 80.225523 113.91192 
L 80.269813 113.054982 
L 80.358395 114.169001 
L 80.402686 113.826226 
L 80.446977 113.826226 
L 80.535558 112.969288 
L 80.62414 113.654838 
L 80.668431 113.654838 
L 80.801303 112.969288 
L 80.845594 113.654838 
L 80.889885 113.654838 
L 80.889885 113.397757 
L 81.067049 113.654838 
L 81.111339 113.654838 
L 81.15563 113.312063 
L 81.288503 113.654838 
L 81.377084 113.826226 
L 81.377084 113.997613 
L 81.421375 113.054982 
L 81.554248 113.654838 
L 81.64283 113.826226 
L 81.68712 113.140675 
L 81.819993 113.312063 
L 81.908575 113.483451 
L 81.952865 113.826226 
L 82.085738 113.483451 
L 82.17432 113.569144 
L 82.17432 113.91192 
L 82.262901 113.226369 
L 82.351483 113.483451 
L 82.395774 113.483451 
L 82.395774 113.140675 
L 82.484356 113.826226 
L 82.572937 113.483451 
L 82.617228 113.483451 
L 82.661519 113.91192 
L 82.794391 113.054982 
L 82.838682 113.054982 
L 82.971555 113.826226 
L 83.015846 113.740532 
L 83.060136 113.740532 
L 83.060136 114.083307 
L 83.2373 113.140675 
L 83.281591 113.140675 
L 83.370172 114.083307 
L 83.458754 113.740532 
L 83.724499 113.826226 
L 83.724499 114.169001 
L 83.901663 113.397757 
L 83.945953 113.397757 
L 83.945953 113.91192 
L 84.123117 113.91192 
L 84.167408 113.91192 
L 84.255989 114.254695 
L 84.344571 113.826226 
L 84.521734 113.826226 
L 84.566025 114.254695 
L 84.610316 113.654838 
L 84.698898 113.997613 
L 84.743189 113.997613 
L 84.743189 113.483451 
L 84.920352 113.740532 
L 84.964643 113.740532 
L 85.008934 114.169001 
L 85.097515 113.654838 
L 85.141806 113.997613 
L 85.186097 113.997613 
L 85.186097 113.740532 
L 85.274679 114.169001 
L 85.36326 113.91192 
L 85.407551 113.91192 
L 85.451842 113.483451 
L 85.584715 113.826226 
L 85.673296 113.997613 
L 85.673296 114.169001 
L 85.806169 113.654838 
L 85.85046 113.997613 
L 85.983332 114.083307 
L 85.983332 114.340388 
L 86.027623 113.826226 
L 86.160496 113.997613 
L 86.559113 113.997613 
L 86.559113 114.340388 
L 86.691986 113.826226 
L 86.736276 113.91192 
L 86.780567 113.91192 
L 86.780567 114.340388 
L 86.957731 113.997613 
L 87.223476 113.997613 
L 87.223476 114.340388 
L 87.267767 113.826226 
L 87.400639 114.169001 
L 87.44493 114.169001 
L 87.44493 114.426082 
L 87.533512 114.083307 
L 87.622093 114.083307 
L 87.799257 114.169001 
L 87.799257 113.826226 
L 87.932129 114.254695 
L 87.97642 114.254695 
L 88.020711 114.254695 
L 88.065002 113.826226 
L 88.197874 114.340388 
L 88.242165 114.340388 
L 88.242165 113.91192 
L 88.419329 114.254695 
L 88.463619 114.254695 
L 88.50791 113.740532 
L 88.640783 114.254695 
L 88.685074 114.254695 
L 88.685074 113.997613 
L 88.862237 114.083307 
L 88.906528 114.083307 
L 88.906528 114.426082 
L 89.083691 113.997613 
L 89.127982 113.997613 
L 89.127982 114.340388 
L 89.260855 113.826226 
L 89.305145 113.91192 
L 89.349436 113.91192 
L 89.349436 114.340388 
L 89.5266 114.340388 
L 89.57089 114.340388 
L 89.57089 113.826226 
L 89.748054 114.254695 
L 90.05809 114.340388 
L 90.235253 113.91192 
L 90.323835 114.083307 
L 90.368126 114.254695 
L 90.500998 113.91192 
L 90.633871 113.91192 
L 90.722452 114.340388 
L 90.811034 114.254695 
L 90.899616 114.169001 
L 90.899616 113.91192 
L 90.943907 114.340388 
L 91.076779 114.254695 
L 92.18405 114.254695 
L 92.18405 113.997613 
L 92.316923 114.426082 
L 92.361214 114.169001 
L 92.626959 114.254695 
L 92.626959 114.426082 
L 92.671249 114.169001 
L 92.804122 114.340388 
L 93.158449 114.169001 
L 93.158449 114.083307 
L 93.291321 114.426082 
L 93.335612 114.254695 
L 93.468485 114.340388 
L 93.468485 113.826226 
L 93.645648 114.169001 
L 93.822811 114.083307 
L 93.822811 114.426082 
L 93.999975 113.997613 
L 94.044266 113.997613 
L 94.221429 114.426082 
L 94.398592 114.340388 
L 94.398592 114.083307 
L 94.575756 114.254695 
L 95.372991 114.254695 
L 95.372991 113.997613 
L 95.417282 114.426082 
L 95.550154 114.340388 
L 137.006384 114.340388 
L 137.006384 114.426082 
" clip-path="url(#pf414f33d1c)" style="fill: none; stroke: #2a9d8f; stroke-linejoin: miter"/>
   </g>
   <g id="patch_5">
    <path d="M 46.4759 114.426082 
L 46.564482 114.426082 
L 46.741645 103.396746 
L 46.830227 103.396746 
L 47.00739 89.692796 
L 47.095972 89.692796 
L 47.273135 76.953913 
L 47.361717 76.953913 
L 47.450299 69.646978 
L 47.53888 70.226018 
L 47.627462 70.226018 
L 47.804625 63.05695 
L 47.893207 63.05695 
L 48.07037 58.121322 
L 48.158952 58.121322 
L 48.336115 51.421 
L 48.513279 51.531293 
L 48.690442 47.698599 
L 48.779024 47.698599 
L 48.867606 47.726173 
L 48.956187 46.981692 
L 49.044769 46.981692 
L 49.133351 43.066278 
L 49.221932 45.189425 
L 49.310514 45.189425 
L 49.399096 42.294225 
L 49.487677 45.933905 
L 49.576259 45.933905 
L 49.664841 43.148998 
L 49.753422 45.410012 
L 49.842004 45.410012 
L 49.930586 41.467024 
L 50.019167 41.935771 
L 50.107749 41.935771 
L 50.107749 41.191291 
L 50.196331 44.610385 
L 50.284913 42.542385 
L 50.373494 42.542385 
L 50.373494 41.191291 
L 50.462076 43.342011 
L 50.550658 42.266651 
L 50.639239 42.266651 
L 50.816403 46.871399 
L 50.904984 46.871399 
L 50.904984 45.244572 
L 50.993566 46.954119 
L 51.082148 46.182065 
L 51.170729 46.182065 
L 51.170729 47.367719 
L 51.347893 46.926546 
L 51.436474 46.926546 
L 51.436474 49.353 
L 51.613638 47.974333 
L 51.702219 47.974333 
L 51.702219 51.33828 
L 51.879383 48.553373 
L 51.967965 48.553373 
L 52.056546 53.764734 
L 52.145128 48.580946 
L 52.23371 48.580946 
L 52.23371 53.489001 
L 52.410873 52.854814 
L 52.499455 52.854814 
L 52.499455 55.584574 
L 52.676618 55.308841 
L 52.7652 55.308841 
L 52.7652 54.564361 
L 52.853781 56.549641 
L 52.942363 55.033108 
L 53.030945 55.033108 
L 53.208108 59.058815 
L 53.385272 59.113962 
L 53.385272 60.106602 
L 53.562435 59.996309 
L 53.739598 59.803295 
L 53.82818 64.13231 
L 53.916762 59.141535 
L 54.005343 59.141535 
L 54.182507 64.077163 
L 54.271088 64.077163 
L 54.271088 65.20767 
L 54.448252 64.601057 
L 54.536833 64.601057 
L 54.713997 67.358391 
L 54.802579 67.358391 
L 54.802579 68.378604 
L 54.979742 66.145164 
L 55.068324 66.145164 
L 55.068324 70.805058 
L 55.245487 67.551404 
L 55.334069 67.551404 
L 55.334069 67.082657 
L 55.511232 70.860205 
L 55.599814 70.860205 
L 55.599814 71.935565 
L 55.688395 68.819778 
L 55.776977 71.301378 
L 55.865559 71.301378 
L 55.95414 74.169006 
L 56.042722 72.762765 
L 56.131304 72.762765 
L 56.308467 75.492526 
L 56.397049 75.492526 
L 56.574212 77.284793 
L 56.662794 77.284793 
L 56.751376 75.823406 
L 56.839957 78.08442 
L 56.928539 78.08442 
L 57.105702 76.43002 
L 57.194284 76.43002 
L 57.282866 79.463087 
L 57.371447 79.270074 
L 57.460029 79.270074 
L 57.548611 80.235141 
L 57.637192 79.518234 
L 57.725774 79.518234 
L 57.902938 83.654235 
L 57.991519 83.654235 
L 58.080101 81.034767 
L 58.168683 83.102768 
L 58.345846 83.130341 
L 58.345846 82.578874 
L 58.434428 83.709381 
L 58.523009 83.599088 
L 58.611591 83.599088 
L 58.700173 86.466715 
L 58.788754 84.757168 
L 58.965918 84.895035 
L 58.965918 88.121116 
L 59.143081 85.336208 
L 59.231663 85.336208 
L 59.408826 88.479569 
L 59.497408 88.479569 
L 59.58599 85.474075 
L 59.674571 88.148689 
L 59.763153 88.148689 
L 59.940316 90.988743 
L 60.11748 91.099037 
L 60.206061 88.920743 
L 60.294643 89.665223 
L 60.383225 89.665223 
L 60.383225 90.685436 
L 60.471806 89.003463 
L 60.560388 90.46485 
L 60.64897 90.46485 
L 60.826133 92.69829 
L 61.003297 92.670717 
L 61.003297 91.650503 
L 61.18046 93.02917 
L 61.357623 93.056744 
L 61.357623 92.725864 
L 61.446205 94.187251 
L 61.534787 93.966664 
L 61.623368 93.966664 
L 61.71195 93.11189 
L 61.800532 94.793864 
L 61.977695 94.600851 
L 61.977695 97.054878 
L 62.154858 94.766291 
L 62.24344 94.766291 
L 62.332022 96.503411 
L 62.420604 96.062238 
L 62.509185 96.062238 
L 62.509185 97.468478 
L 62.686349 94.931731 
L 62.77493 94.931731 
L 62.77493 97.330611 
L 62.952094 96.779145 
L 63.040675 96.779145 
L 63.040675 97.468478 
L 63.217839 96.393118 
L 63.30642 96.393118 
L 63.395002 97.578771 
L 63.483584 97.496051 
L 63.572165 97.496051 
L 63.660747 98.571412 
L 63.749329 98.185385 
L 63.837911 98.185385 
L 63.837911 100.087945 
L 64.015074 99.426185 
L 64.280819 99.481332 
L 64.280819 100.198239 
L 64.457982 99.674345 
L 64.635146 99.619199 
L 64.723727 100.915146 
L 64.812309 100.473972 
L 64.989472 100.308532 
L 65.078054 101.163306 
L 65.166636 101.163306 
L 65.255218 101.163306 
L 65.255218 100.611839 
L 65.432381 102.707413 
L 65.520963 102.707413 
L 65.609544 102.293813 
L 65.698126 102.679839 
L 65.786708 102.679839 
L 65.786708 101.962933 
L 65.875289 103.534613 
L 65.963871 102.652266 
L 66.052453 102.652266 
L 66.052453 101.990506 
L 66.229616 102.155946 
L 66.318198 102.155946 
L 66.495361 103.479466 
L 66.672525 103.42432 
L 66.761106 103.093439 
L 66.849688 103.727626 
L 66.93827 103.727626 
L 67.026851 104.692693 
L 67.115433 104.444533 
L 67.204015 104.444533 
L 67.204015 103.893066 
L 67.381178 104.91328 
L 67.558341 105.106293 
L 67.558341 104.444533 
L 67.735505 105.878347 
L 67.824086 105.878347 
L 67.824086 104.637547 
L 68.00125 105.16144 
L 68.178413 105.189013 
L 68.178413 106.07136 
L 68.355577 105.795627 
L 68.444158 105.795627 
L 68.444158 106.15408 
L 68.53274 105.464747 
L 68.621322 105.961067 
L 68.709903 105.961067 
L 68.798485 105.519893 
L 68.887067 106.40224 
L 68.975648 106.40224 
L 68.975648 105.768053 
L 69.06423 107.064 
L 69.152812 106.843414 
L 69.329975 106.6504 
L 69.329975 106.457387 
L 69.418557 106.760694 
L 69.507138 106.677974 
L 69.59572 106.677974 
L 69.59572 106.347094 
L 69.684302 107.615467 
L 69.772884 107.312161 
L 69.861465 107.312161 
L 69.861465 107.863627 
L 70.038629 107.064 
L 70.12721 107.064 
L 70.215792 108.194507 
L 70.304374 107.918774 
L 70.392955 107.918774 
L 70.392955 107.367307 
L 70.570119 108.415094 
L 70.747282 108.470241 
L 70.835864 107.753334 
L 70.924445 108.084214 
L 71.013027 108.084214 
L 71.013027 109.352588 
L 71.190191 108.801121 
L 71.278772 108.801121 
L 71.367354 108.359947 
L 71.455936 108.552961 
L 71.544517 108.552961 
L 71.544517 107.918774 
L 71.721681 109.159574 
L 71.810262 109.159574 
L 71.898844 108.745974 
L 71.987426 108.883841 
L 72.076007 108.883841 
L 72.076007 108.470241 
L 72.164589 109.214721 
L 72.253171 108.690828 
L 72.341752 108.690828 
L 72.430334 110.014348 
L 72.518916 109.462881 
L 72.607497 109.462881 
L 72.607497 109.848908 
L 72.784661 109.021708 
L 72.873243 109.021708 
L 73.050406 109.848908 
L 73.138988 109.848908 
L 73.316151 109.462881 
L 73.404733 109.462881 
L 73.404733 110.427948 
L 73.581896 110.234935 
L 73.759059 110.097068 
L 73.759059 109.462881 
L 73.936223 110.097068 
L 74.024804 110.097068 
L 74.024804 109.876481 
L 74.113386 110.869121 
L 74.201968 110.152215 
L 74.379131 109.959201 
L 74.379131 110.731255 
L 74.556295 110.372801 
L 74.644876 110.372801 
L 74.644876 110.041921 
L 74.733458 110.869121 
L 74.82204 110.262508 
L 74.910621 110.262508 
L 74.910621 110.731255 
L 75.087785 110.317655 
L 75.176366 110.317655 
L 75.176366 110.951841 
L 75.35353 110.813975 
L 75.442111 110.813975 
L 75.442111 110.565815 
L 75.530693 111.420588 
L 75.619275 111.117281 
L 75.707857 111.117281 
L 75.707857 110.510668 
L 75.796438 111.365442 
L 75.88502 110.979415 
L 75.973602 110.979415 
L 75.973602 111.475735 
L 76.150765 111.144855 
L 76.505092 111.337868 
L 76.593673 111.779042 
L 76.682255 111.751468 
L 76.770837 111.751468 
L 76.770837 111.337868 
L 76.859418 111.779042 
L 76.948 111.696322 
L 77.036582 111.696322 
L 77.036582 110.896695 
L 77.213745 111.558455 
L 77.302327 111.558455 
L 77.302327 111.834188 
L 77.390909 111.393015 
L 77.47949 111.751468 
L 77.568072 111.751468 
L 77.568072 111.420588 
L 77.656654 112.082348 
L 77.745235 111.806615 
L 77.922399 111.806615 
L 77.922399 111.530882 
L 78.01098 112.054775 
L 78.099562 111.668748 
L 78.188144 111.668748 
L 78.188144 111.448162 
L 78.276725 111.696322 
L 78.365307 111.448162 
L 78.453889 111.448162 
L 78.631052 112.054775 
L 78.719634 112.054775 
L 78.808216 112.385655 
L 78.896797 111.696322 
L 78.985379 111.696322 
L 79.073961 112.468375 
L 79.162542 112.054775 
L 79.428287 112.137495 
L 79.428287 112.468375 
L 79.605451 112.137495 
L 79.694032 112.137495 
L 79.694032 112.440802 
L 79.782614 111.944482 
L 79.871196 112.330508 
L 79.959777 112.330508 
L 79.959777 112.826829 
L 80.136941 112.165068 
L 80.225523 112.165068 
L 80.314104 112.799255 
L 80.402686 112.661388 
L 80.491268 112.661388 
L 80.491268 112.082348 
L 80.579849 112.881975 
L 80.668431 112.523522 
L 80.845594 112.578668 
L 81.022758 112.964695 
L 81.111339 112.964695 
L 81.111339 112.440802 
L 81.199921 112.992269 
L 81.288503 112.633815 
L 81.554248 112.716535 
L 81.554248 112.358082 
L 81.64283 113.102562 
L 81.731411 112.744109 
L 81.908575 112.633815 
L 81.908575 113.157709 
L 82.085738 112.937122 
L 82.17432 112.937122 
L 82.17432 112.551095 
L 82.262901 112.964695 
L 82.351483 112.799255 
L 82.440065 112.799255 
L 82.528646 113.212855 
L 82.617228 112.771682 
L 82.882973 112.771682 
L 82.882973 113.268002 
L 83.060136 113.102562 
L 83.148718 113.102562 
L 83.148718 112.633815 
L 83.2373 113.185282 
L 83.325882 112.881975 
L 83.503045 113.047415 
L 83.503045 113.378295 
L 83.680208 113.130135 
L 83.945953 113.240429 
L 83.945953 113.461015 
L 84.034535 113.185282 
L 84.123117 113.268002 
L 84.30028 113.295575 
L 84.30028 113.488589 
L 84.477443 113.212855 
L 84.566025 113.212855 
L 84.566025 112.964695 
L 84.743189 113.378295 
L 85.008934 113.268002 
L 85.008934 113.130135 
L 85.186097 113.516162 
L 86.160496 113.626455 
L 86.160496 113.240429 
L 86.337659 113.295575 
L 86.780567 113.433442 
L 86.780567 113.764322 
L 86.957731 113.461015 
L 87.223476 113.626455 
L 87.223476 113.764322 
L 87.312057 113.543735 
L 87.400639 113.681602 
L 87.754966 113.791895 
L 87.754966 113.902189 
L 87.843548 113.736749 
L 87.932129 113.736749 
L 88.906528 113.819469 
L 88.906528 113.957335 
L 89.083691 113.681602 
L 89.5266 113.847042 
L 89.5266 113.902189 
L 89.615181 113.681602 
L 89.703763 113.709175 
L 90.146671 113.847042 
L 90.146671 114.040055 
L 90.323835 114.012482 
L 90.678162 113.902189 
L 90.678162 113.791895 
L 90.855325 114.067629 
L 91.475397 114.150349 
L 91.475397 113.847042 
L 91.65256 113.847042 
L 91.918305 113.929762 
L 92.006887 114.260642 
L 92.095468 113.929762 
L 93.069867 114.040055 
L 93.069867 114.150349 
L 93.24703 114.095202 
L 93.689939 114.012482 
L 93.689939 113.874615 
L 93.867102 114.095202 
L 95.727318 114.150349 
L 95.727318 114.343362 
L 95.904481 114.150349 
L 98.296187 114.260642 
L 98.296187 114.398509 
L 98.47335 113.929762 
L 98.561932 113.929762 
L 98.739095 114.260642 
L 153.748322 114.398509 
L 153.748322 114.426082 
" clip-path="url(#pf414f33d1c)" style="fill: none; stroke: #e9c46a; stroke-linejoin: miter"/>
   </g>
   <g id="patch_6">
    <path d="M 46.4759 114.426082 
L 46.653063 114.426082 
L 46.830227 106.275249 
L 47.00739 106.275249 
L 47.184553 94.139363 
L 47.361717 94.139363 
L 47.53888 83.946303 
L 47.716044 83.946303 
L 47.893207 75.641851 
L 48.07037 75.641851 
L 48.247534 70.816413 
L 48.424697 70.816413 
L 48.60186 65.674702 
L 48.779024 65.674702 
L 48.956187 62.141469 
L 49.133351 62.141469 
L 49.310514 57.894361 
L 49.487677 57.894361 
L 49.487677 57.532905 
L 49.664841 58.057016 
L 49.842004 58.057016 
L 50.019167 55.463569 
L 50.196331 55.463569 
L 50.196331 54.867167 
L 50.373494 55.870207 
L 50.550658 55.870207 
L 50.550658 55.544897 
L 50.727821 55.752734 
L 50.904984 55.752734 
L 50.904984 55.355132 
L 51.082148 56.46661 
L 51.259311 56.46661 
L 51.259311 55.653333 
L 51.436474 55.815989 
L 51.613638 55.815989 
L 51.613638 58.011834 
L 51.790801 57.523868 
L 51.967965 57.523868 
L 51.967965 57.749778 
L 52.145128 56.177445 
L 52.322291 56.177445 
L 52.322291 59.520913 
L 52.499455 58.581127 
L 52.676618 58.581127 
L 52.853781 60.189607 
L 52.853781 58.707637 
L 53.030945 58.707637 
L 53.208108 62.34027 
L 53.385272 62.34027 
L 53.385272 62.864381 
L 53.562435 62.186651 
L 53.739598 62.186651 
L 53.916762 64.834316 
L 54.271088 64.69877 
L 54.448252 65.936757 
L 54.625415 65.936757 
L 54.625415 68.159712 
L 54.802579 68.015129 
L 54.979742 68.015129 
L 55.156905 69.7953 
L 55.334069 69.7953 
L 55.334069 69.370589 
L 55.511232 70.192902 
L 55.688395 70.192902 
L 55.865559 71.991146 
L 56.042722 71.991146 
L 56.042722 73.870717 
L 56.219886 73.40986 
L 56.397049 73.40986 
L 56.574212 75.605706 
L 56.751376 75.605706 
L 56.751376 75.940053 
L 56.928539 75.804507 
L 57.105702 75.804507 
L 57.282866 77.304549 
L 57.460029 77.304549 
L 57.637192 79.346776 
L 57.991519 79.428103 
L 58.168683 80.9914 
L 58.345846 80.9914 
L 58.523009 82.211315 
L 58.700173 82.211315 
L 58.877336 83.50352 
L 59.054499 83.50352 
L 59.231663 84.298723 
L 59.58599 84.398123 
L 59.763153 85.229472 
L 59.763153 85.048744 
L 59.940316 85.048744 
L 60.11748 87.199408 
L 60.294643 87.199408 
L 60.471806 87.533754 
L 60.64897 87.533754 
L 60.826133 88.464504 
L 61.003297 88.464504 
L 61.18046 88.889214 
L 61.357623 88.889214 
L 61.534787 91.338079 
L 61.71195 91.338079 
L 61.71195 90.678422 
L 61.889113 90.904332 
L 62.066277 90.904332 
L 62.066277 92.323047 
L 62.24344 91.952554 
L 62.420604 91.952554 
L 62.597767 94.030926 
L 62.77493 94.030926 
L 62.952094 93.289942 
L 63.129257 93.289942 
L 63.129257 94.591183 
L 63.30642 94.57311 
L 63.483584 94.57311 
L 63.660747 95.756879 
L 63.837911 95.756879 
L 64.015074 96.217735 
L 64.192237 96.217735 
L 64.369401 96.651482 
L 64.369401 96.344245 
L 64.546564 96.344245 
L 64.546564 97.365358 
L 64.723727 97.302103 
L 64.900891 97.302103 
L 65.078054 98.413581 
L 65.255218 98.413581 
L 65.255218 98.802146 
L 65.432381 98.278035 
L 65.786708 98.368399 
L 65.963871 99.226857 
L 66.141034 99.226857 
L 66.141034 99.615422 
L 66.318198 99.425657 
L 66.495361 99.425657 
L 66.672525 100.329297 
L 67.026851 100.275079 
L 67.204015 100.058205 
L 67.204015 101.395593 
L 67.381178 101.395593 
L 67.558341 100.988955 
L 67.558341 102.010068 
L 67.912668 102.001032 
L 68.089831 102.850453 
L 68.266995 102.850453 
L 68.444158 102.317306 
L 68.621322 102.317306 
L 68.798485 102.940817 
L 68.975648 102.940817 
L 69.152812 104.043258 
L 69.861465 104.097476 
L 69.861465 104.630624 
L 70.038629 104.522187 
L 70.215792 104.522187 
L 70.215792 105.001117 
L 70.392955 104.820389 
L 70.747282 104.901716 
L 70.747282 105.66981 
L 70.924445 105.597519 
L 71.278772 105.507155 
L 71.455936 106.139703 
L 71.810262 106.211994 
L 71.810262 106.519232 
L 71.987426 105.615592 
L 72.164589 105.615592 
L 72.341752 106.943943 
L 72.696079 106.817433 
L 72.696079 107.431908 
L 72.873243 107.178889 
L 73.050406 107.178889 
L 73.050406 107.675891 
L 73.227569 107.37769 
L 73.581896 107.314435 
L 73.581896 107.612636 
L 73.759059 107.513236 
L 73.936223 107.513236 
L 74.113386 108.416876 
L 74.29055 108.416876 
L 74.29055 107.703 
L 74.467713 108.290366 
L 74.999203 108.190966 
L 74.999203 108.986169 
L 75.176366 108.236148 
L 75.35353 108.236148 
L 75.530693 108.742186 
L 75.88502 108.850623 
L 76.062183 109.257261 
L 76.062183 108.995206 
L 76.41651 109.18497 
L 76.41651 109.555462 
L 76.593673 109.528353 
L 77.125163 109.63679 
L 77.125163 109.7633 
L 77.302327 109.53739 
L 77.47949 109.53739 
L 77.47949 110.016319 
L 77.656654 109.302443 
L 77.833817 109.302443 
L 78.01098 110.079574 
L 78.188144 110.079574 
L 78.188144 110.468139 
L 78.365307 110.368738 
L 79.073961 110.477175 
L 79.073961 110.99225 
L 79.251124 110.947068 
L 79.428287 110.947068 
L 79.605451 110.730194 
L 79.605451 110.89285 
L 80.491268 110.983214 
L 80.491268 111.425997 
L 80.668431 111.21816 
L 81.554248 111.380815 
L 81.554248 111.715162 
L 81.731411 111.516361 
L 82.617228 111.480216 
L 82.794391 111.850708 
L 83.148718 111.959145 
L 83.325882 112.094691 
L 83.503045 112.094691 
L 83.503045 111.769381 
L 83.680208 112.284455 
L 83.857372 112.284455 
L 83.857372 111.904927 
L 84.034535 112.401929 
L 84.566025 112.483256 
L 84.566025 112.139873 
L 84.743189 112.293492 
L 85.806169 112.420001 
L 85.806169 112.817603 
L 85.983332 112.673021 
L 86.514822 112.736275 
L 86.514822 112.338674 
L 86.691986 112.790494 
L 86.869149 112.790494 
L 87.046312 112.582657 
L 87.046312 112.609766 
L 87.223476 112.609766 
L 87.223476 112.889894 
L 87.400639 112.880858 
L 88.109293 112.889894 
L 88.286456 113.170023 
L 88.995109 113.106768 
L 88.995109 112.944113 
L 89.172273 113.160986 
L 89.349436 113.160986 
L 89.5266 112.935076 
L 89.5266 113.188095 
L 90.235253 113.124841 
L 90.235253 113.441115 
L 90.412416 113.305569 
L 92.006887 113.368823 
L 92.006887 113.558588 
L 92.18405 113.350751 
L 92.892704 113.486297 
L 92.892704 113.648952 
L 93.069867 113.486297 
L 94.664337 113.621843 
L 94.664337 113.70317 
L 94.841501 113.694134 
L 96.967461 113.748352 
L 97.144625 113.947153 
L 102.282362 114.073663 
L 102.282362 114.200172 
L 102.459526 114.046553 
L 106.88861 114.245354 
L 106.88861 114.263427 
L 107.065774 114.173063 
L 113.797982 114.299573 
L 113.797982 114.3809 
L 113.975145 114.335718 
L 180.588573 114.417046 
L 180.588573 114.426082 
" clip-path="url(#pf414f33d1c)" style="fill: none; stroke: #f4a261; stroke-linejoin: miter"/>
   </g>
   <g id="patch_7">
    <path d="M 46.4759 114.426082 
L 46.4759 16.529498 
" style="fill: none; stroke: #000000; stroke-width: 0.8; stroke-linejoin: miter; stroke-linecap: square"/>
   </g>
   <g id="patch_8">
    <path d="M 204.8759 114.426082 
L 204.8759 16.529498 
" style="fill: none; stroke: #000000; stroke-width: 0.8; stroke-linejoin: miter; stroke-linecap: square"/>
   </g>
   <g id="patch_9">
    <path d="M 46.4759 114.426082 
L 204.8759 114.426082 
" style="fill: none; stroke: #000000; stroke-width: 0.8; stroke-linejoin: miter; stroke-linecap: square"/>
   </g>
   <g id="patch_10">
    <path d="M 46.4759 16.529498 
L 204.8759 16.529498 
" style="fill: none; stroke: #000000; stroke-width: 0.8; stroke-linejoin: miter; stroke-linecap: square"/>
   </g>
   <g id="legend_1">
    <g id="text_13">
     <!-- $\tau_\mathrm{lag}$ [ns] -->
     <g transform="translate(214.486633 44.564284) scale(0.0833 -0.0833)">
      <use xlink:href="#DejaVuSans-Oblique-3c4" transform="translate(0 0.015625)"/>
      <use xlink:href="#DejaVuSans-6c" transform="translate(60.205078 -16.390625) scale(0.7)"/>
      <use xlink:href="#DejaVuSans-61" transform="translate(79.65332 -16.390625) scale(0.7)"/>
      <use xlink:href="#DejaVuSans-67" transform="translate(122.548828 -16.390625) scale(0.7)"/>
      <use xlink:href="#DejaVuSans-20" transform="translate(169.716797 0.015625)"/>
      <use xlink:href="#DejaVuSans-5b" transform="translate(201.503906 0.015625)"/>
      <use xlink:href="#DejaVuSans-6e" transform="translate(240.517578 0.015625)"/>
      <use xlink:href="#DejaVuSans-73" transform="translate(303.896484 0.015625)"/>
      <use xlink:href="#DejaVuSans-5d" transform="translate(355.996094 0.015625)"/>
     </g>
    </g>
    <g id="patch_11">
     <path d="M 213.7929 56.808083 
L 225.4549 56.808083 
L 225.4549 50.977083 
L 213.7929 50.977083 
z
"/>
    </g>
    <g id="text_14">
     <!-- MD -->
     <g transform="translate(229.6199 56.808083) scale(0.0833 -0.0833)">
      <defs>
       <path id="DejaVuSans-4d" d="M 628 4666 
L 1569 4666 
L 2759 1491 
L 3956 4666 
L 4897 4666 
L 4897 0 
L 4281 0 
L 4281 4097 
L 3078 897 
L 2444 897 
L 1241 4097 
L 1241 0 
L 628 0 
L 628 4666 
z
" transform="scale(0.015625)"/>
       <path id="DejaVuSans-44" d="M 1259 4147 
L 1259 519 
L 2022 519 
Q 2988 519 3436 956 
Q 3884 1394 3884 2338 
Q 3884 3275 3436 3711 
Q 2988 4147 2022 4147 
L 1259 4147 
z
M 628 4666 
L 1925 4666 
Q 3281 4666 3915 4102 
Q 4550 3538 4550 2338 
Q 4550 1131 3912 565 
Q 3275 0 1925 0 
L 628 0 
L 628 4666 
z
" transform="scale(0.015625)"/>
      </defs>
      <use xlink:href="#DejaVuSans-4d"/>
      <use xlink:href="#DejaVuSans-44" x="86.279297"/>
     </g>
    </g>
    <g id="line2d_19">
     <path d="M 213.7929 65.286461 
L 225.4549 65.286461 
" style="fill: none; stroke: #2a9d8f; stroke-linecap: square"/>
    </g>
    <g id="text_15">
     <!-- 10.0 -->
     <g transform="translate(229.6199 68.201961) scale(0.0833 -0.0833)">
      <use xlink:href="#DejaVuSans-31"/>
      <use xlink:href="#DejaVuSans-30" x="63.623047"/>
      <use xlink:href="#DejaVuSans-2e" x="127.246094"/>
      <use xlink:href="#DejaVuSans-30" x="159.033203"/>
     </g>
    </g>
    <g id="line2d_20">
     <path d="M 213.7929 76.680339 
L 225.4549 76.680339 
" style="fill: none; stroke: #e9c46a; stroke-linecap: square"/>
    </g>
    <g id="text_16">
     <!-- 20.0 -->
     <g transform="translate(229.6199 79.595839) scale(0.0833 -0.0833)">
      <use xlink:href="#DejaVuSans-32"/>
      <use xlink:href="#DejaVuSans-30" x="63.623047"/>
      <use xlink:href="#DejaVuSans-2e" x="127.246094"/>
      <use xlink:href="#DejaVuSans-30" x="159.033203"/>
     </g>
    </g>
    <g id="line2d_21">
     <path d="M 213.7929 88.074217 
L 225.4549 88.074217 
" style="fill: none; stroke: #f4a261; stroke-linecap: square"/>
    </g>
    <g id="text_17">
     <!-- 40.0 -->
     <g transform="translate(229.6199 90.989717) scale(0.0833 -0.0833)">
      <use xlink:href="#DejaVuSans-34"/>
      <use xlink:href="#DejaVuSans-30" x="63.623047"/>
      <use xlink:href="#DejaVuSans-2e" x="127.246094"/>
      <use xlink:href="#DejaVuSans-30" x="159.033203"/>
     </g>
    </g>
   </g>
  </g>
 </g>
 <defs>
  <clipPath id="pf414f33d1c">
   <rect x="46.4759" y="16.529498" width="158.4" height="97.896584"/>
  </clipPath>
 </defs>
</svg>
