<?xml version="1.0" encoding="utf-8" standalone="no"?>
<!DOCTYPE svg PUBLIC "-//W3C//DTD SVG 1.1//EN"
  "http://www.w3.org/Graphics/SVG/1.1/DTD/svg11.dtd">
<svg xmlns:xlink="http://www.w3.org/1999/xlink" width="213.209325pt" height="167.53355pt" viewBox="0 0 213.209325 167.53355" xmlns="http://www.w3.org/2000/svg" version="1.1">
 <metadata>
  <rdf:RDF xmlns:dc="http://purl.org/dc/elements/1.1/" xmlns:cc="http://creativecommons.org/ns#" xmlns:rdf="http://www.w3.org/1999/02/22-rdf-syntax-ns#">
   <cc:Work>
    <dc:type rdf:resource="http://purl.org/dc/dcmitype/StillImage"/>
    <dc:date>2023-04-21T14:58:38.405205</dc:date>
    <dc:format>image/svg+xml</dc:format>
    <dc:creator>
     <cc:Agent>
      <dc:title>Matplotlib v3.7.1, https://matplotlib.org/</dc:title>
     </cc:Agent>
    </dc:creator>
   </cc:Work>
  </rdf:RDF>
 </metadata>
 <defs>
  <style type="text/css">*{stroke-linejoin: round; stroke-linecap: butt}</style>
 </defs>
 <g id="figure_1">
  <g id="patch_1">
   <path d="M 0 167.53355 
L 213.209325 167.53355 
L 213.209325 0 
L 0 0 
L 0 167.53355 
z
" style="fill: none"/>
  </g>
  <g id="axes_1">
   <g id="patch_2">
    <path d="M 33.209325 130.571672 
L 206.009325 130.571672 
L 206.009325 23.775398 
L 33.209325 23.775398 
L 33.209325 130.571672 
z
" style="fill: none"/>
   </g>
   <g id="matplotlib.axis_1">
    <g id="xtick_1">
     <g id="line2d_1">
      <path d="M 33.209325 130.571672 
L 33.209325 23.775398 
" clip-path="url(#p2fe5484759)" style="fill: none; stroke-dasharray: 2.96,1.28; stroke-dashoffset: 0; stroke: #dddfe5; stroke-width: 0.8"/>
     </g>
     <g id="line2d_2">
      <defs>
       <path id="mb6156b06ca" d="M 0 0 
L 0 3.5 
" style="stroke: #000000; stroke-width: 0.8"/>
      </defs>
      <g>
       <use xlink:href="#mb6156b06ca" x="33.209325" y="130.571672" style="stroke: #000000; stroke-width: 0.8"/>
      </g>
     </g>
     <g id="text_1">
      <!-- 0 -->
      <g transform="translate(30.559344 143.90117) scale(0.0833 -0.0833)">
       <defs>
        <path id="DejaVuSans-30" d="M 2034 4250 
Q 1547 4250 1301 3770 
Q 1056 3291 1056 2328 
Q 1056 1369 1301 889 
Q 1547 409 2034 409 
Q 2525 409 2770 889 
Q 3016 1369 3016 2328 
Q 3016 3291 2770 3770 
Q 2525 4250 2034 4250 
z
M 2034 4750 
Q 2819 4750 3233 4129 
Q 3647 3509 3647 2328 
Q 3647 1150 3233 529 
Q 2819 -91 2034 -91 
Q 1250 -91 836 529 
Q 422 1150 422 2328 
Q 422 3509 836 4129 
Q 1250 4750 2034 4750 
z
" transform="scale(0.015625)"/>
       </defs>
       <use xlink:href="#DejaVuSans-30"/>
      </g>
     </g>
    </g>
    <g id="xtick_2">
     <g id="line2d_3">
      <path d="M 79.289325 130.571672 
L 79.289325 23.775398 
" clip-path="url(#p2fe5484759)" style="fill: none; stroke-dasharray: 2.96,1.28; stroke-dashoffset: 0; stroke: #dddfe5; stroke-width: 0.8"/>
     </g>
     <g id="line2d_4">
      <g>
       <use xlink:href="#mb6156b06ca" x="79.289325" y="130.571672" style="stroke: #000000; stroke-width: 0.8"/>
      </g>
     </g>
     <g id="text_2">
      <!-- 14 -->
      <g transform="translate(73.989362 143.90117) scale(0.0833 -0.0833)">
       <defs>
        <path id="DejaVuSans-31" d="M 794 531 
L 1825 531 
L 1825 4091 
L 703 3866 
L 703 4441 
L 1819 4666 
L 2450 4666 
L 2450 531 
L 3481 531 
L 3481 0 
L 794 0 
L 794 531 
z
" transform="scale(0.015625)"/>
        <path id="DejaVuSans-34" d="M 2419 4116 
L 825 1625 
L 2419 1625 
L 2419 4116 
z
M 2253 4666 
L 3047 4666 
L 3047 1625 
L 3713 1625 
L 3713 1100 
L 3047 1100 
L 3047 0 
L 2419 0 
L 2419 1100 
L 313 1100 
L 313 1709 
L 2253 4666 
z
" transform="scale(0.015625)"/>
       </defs>
       <use xlink:href="#DejaVuSans-31"/>
       <use xlink:href="#DejaVuSans-34" x="63.623047"/>
      </g>
     </g>
    </g>
    <g id="xtick_3">
     <g id="line2d_5">
      <path d="M 125.369325 130.571672 
L 125.369325 23.775398 
" clip-path="url(#p2fe5484759)" style="fill: none; stroke-dasharray: 2.96,1.28; stroke-dashoffset: 0; stroke: #dddfe5; stroke-width: 0.8"/>
     </g>
     <g id="line2d_6">
      <g>
       <use xlink:href="#mb6156b06ca" x="125.369325" y="130.571672" style="stroke: #000000; stroke-width: 0.8"/>
      </g>
     </g>
     <g id="text_3">
      <!-- 28 -->
      <g transform="translate(120.069362 143.90117) scale(0.0833 -0.0833)">
       <defs>
        <path id="DejaVuSans-32" d="M 1228 531 
L 3431 531 
L 3431 0 
L 469 0 
L 469 531 
Q 828 903 1448 1529 
Q 2069 2156 2228 2338 
Q 2531 2678 2651 2914 
Q 2772 3150 2772 3378 
Q 2772 3750 2511 3984 
Q 2250 4219 1831 4219 
Q 1534 4219 1204 4116 
Q 875 4013 500 3803 
L 500 4441 
Q 881 4594 1212 4672 
Q 1544 4750 1819 4750 
Q 2544 4750 2975 4387 
Q 3406 4025 3406 3419 
Q 3406 3131 3298 2873 
Q 3191 2616 2906 2266 
Q 2828 2175 2409 1742 
Q 1991 1309 1228 531 
z
" transform="scale(0.015625)"/>
        <path id="DejaVuSans-38" d="M 2034 2216 
Q 1584 2216 1326 1975 
Q 1069 1734 1069 1313 
Q 1069 891 1326 650 
Q 1584 409 2034 409 
Q 2484 409 2743 651 
Q 3003 894 3003 1313 
Q 3003 1734 2745 1975 
Q 2488 2216 2034 2216 
z
M 1403 2484 
Q 997 2584 770 2862 
Q 544 3141 544 3541 
Q 544 4100 942 4425 
Q 1341 4750 2034 4750 
Q 2731 4750 3128 4425 
Q 3525 4100 3525 3541 
Q 3525 3141 3298 2862 
Q 3072 2584 2669 2484 
Q 3125 2378 3379 2068 
Q 3634 1759 3634 1313 
Q 3634 634 3220 271 
Q 2806 -91 2034 -91 
Q 1263 -91 848 271 
Q 434 634 434 1313 
Q 434 1759 690 2068 
Q 947 2378 1403 2484 
z
M 1172 3481 
Q 1172 3119 1398 2916 
Q 1625 2713 2034 2713 
Q 2441 2713 2670 2916 
Q 2900 3119 2900 3481 
Q 2900 3844 2670 4047 
Q 2441 4250 2034 4250 
Q 1625 4250 1398 4047 
Q 1172 3844 1172 3481 
z
" transform="scale(0.015625)"/>
       </defs>
       <use xlink:href="#DejaVuSans-32"/>
       <use xlink:href="#DejaVuSans-38" x="63.623047"/>
      </g>
     </g>
    </g>
    <g id="xtick_4">
     <g id="line2d_7">
      <path d="M 171.449325 130.571672 
L 171.449325 23.775398 
" clip-path="url(#p2fe5484759)" style="fill: none; stroke-dasharray: 2.96,1.28; stroke-dashoffset: 0; stroke: #dddfe5; stroke-width: 0.8"/>
     </g>
     <g id="line2d_8">
      <g>
       <use xlink:href="#mb6156b06ca" x="171.449325" y="130.571672" style="stroke: #000000; stroke-width: 0.8"/>
      </g>
     </g>
     <g id="text_4">
      <!-- 42 -->
      <g transform="translate(166.149363 143.90117) scale(0.0833 -0.0833)">
       <use xlink:href="#DejaVuSans-34"/>
       <use xlink:href="#DejaVuSans-32" x="63.623047"/>
      </g>
     </g>
    </g>
    <g id="xtick_5">
     <g id="line2d_9">
      <path d="M 188.729325 130.571672 
L 188.729325 23.775398 
" clip-path="url(#p2fe5484759)" style="fill: none; stroke-dasharray: 2.96,1.28; stroke-dashoffset: 0; stroke: #dddfe5; stroke-width: 0.8"/>
     </g>
     <g id="line2d_10">
      <g>
       <use xlink:href="#mb6156b06ca" x="188.729325" y="130.571672" style="stroke: #000000; stroke-width: 0.8"/>
      </g>
     </g>
     <g id="text_5">
      <!-- MD -->
      <g transform="translate(181.928661 143.90117) scale(0.0833 -0.0833)">
       <defs>
        <path id="DejaVuSans-4d" d="M 628 4666 
L 1569 4666 
L 2759 1491 
L 3956 4666 
L 4897 4666 
L 4897 0 
L 4281 0 
L 4281 4097 
L 3078 897 
L 2444 897 
L 1241 4097 
L 1241 0 
L 628 0 
L 628 4666 
z
" transform="scale(0.015625)"/>
        <path id="DejaVuSans-44" d="M 1259 4147 
L 1259 519 
L 2022 519 
Q 2988 519 3436 956 
Q 3884 1394 3884 2338 
Q 3884 3275 3436 3711 
Q 2988 4147 2022 4147 
L 1259 4147 
z
M 628 4666 
L 1925 4666 
Q 3281 4666 3915 4102 
Q 4550 3538 4550 2338 
Q 4550 1131 3912 565 
Q 3275 0 1925 0 
L 628 0 
L 628 4666 
z
" transform="scale(0.015625)"/>
       </defs>
       <use xlink:href="#DejaVuSans-4d"/>
       <use xlink:href="#DejaVuSans-44" x="86.279297"/>
      </g>
     </g>
    </g>
    <g id="text_6">
     <!-- $\tau_\mathrm{lag}$ [ns] -->
     <g transform="translate(99.809325 157.23355) scale(0.1 -0.1)">
      <defs>
       <path id="DejaVuSans-Oblique-3c4" d="M 2103 638 
Q 2188 488 2525 488 
L 2800 488 
L 2706 0 
L 2363 0 
Q 1800 0 1600 300 
Q 1403 606 1534 1269 
L 1856 2925 
L 541 2925 
L 653 3500 
L 3881 3500 
L 3769 2925 
L 2444 2925 
L 2113 1234 
Q 2025 781 2103 638 
z
" transform="scale(0.015625)"/>
       <path id="DejaVuSans-6c" d="M 603 4863 
L 1178 4863 
L 1178 0 
L 603 0 
L 603 4863 
z
" transform="scale(0.015625)"/>
       <path id="DejaVuSans-61" d="M 2194 1759 
Q 1497 1759 1228 1600 
Q 959 1441 959 1056 
Q 959 750 1161 570 
Q 1363 391 1709 391 
Q 2188 391 2477 730 
Q 2766 1069 2766 1631 
L 2766 1759 
L 2194 1759 
z
M 3341 1997 
L 3341 0 
L 2766 0 
L 2766 531 
Q 2569 213 2275 61 
Q 1981 -91 1556 -91 
Q 1019 -91 701 211 
Q 384 513 384 1019 
Q 384 1609 779 1909 
Q 1175 2209 1959 2209 
L 2766 2209 
L 2766 2266 
Q 2766 2663 2505 2880 
Q 2244 3097 1772 3097 
Q 1472 3097 1187 3025 
Q 903 2953 641 2809 
L 641 3341 
Q 956 3463 1253 3523 
Q 1550 3584 1831 3584 
Q 2591 3584 2966 3190 
Q 3341 2797 3341 1997 
z
" transform="scale(0.015625)"/>
       <path id="DejaVuSans-67" d="M 2906 1791 
Q 2906 2416 2648 2759 
Q 2391 3103 1925 3103 
Q 1463 3103 1205 2759 
Q 947 2416 947 1791 
Q 947 1169 1205 825 
Q 1463 481 1925 481 
Q 2391 481 2648 825 
Q 2906 1169 2906 1791 
z
M 3481 434 
Q 3481 -459 3084 -895 
Q 2688 -1331 1869 -1331 
Q 1566 -1331 1297 -1286 
Q 1028 -1241 775 -1147 
L 775 -588 
Q 1028 -725 1275 -790 
Q 1522 -856 1778 -856 
Q 2344 -856 2625 -561 
Q 2906 -266 2906 331 
L 2906 616 
Q 2728 306 2450 153 
Q 2172 0 1784 0 
Q 1141 0 747 490 
Q 353 981 353 1791 
Q 353 2603 747 3093 
Q 1141 3584 1784 3584 
Q 2172 3584 2450 3431 
Q 2728 3278 2906 2969 
L 2906 3500 
L 3481 3500 
L 3481 434 
z
" transform="scale(0.015625)"/>
       <path id="DejaVuSans-20" transform="scale(0.015625)"/>
       <path id="DejaVuSans-5b" d="M 550 4863 
L 1875 4863 
L 1875 4416 
L 1125 4416 
L 1125 -397 
L 1875 -397 
L 1875 -844 
L 550 -844 
L 550 4863 
z
" transform="scale(0.015625)"/>
       <path id="DejaVuSans-6e" d="M 3513 2113 
L 3513 0 
L 2938 0 
L 2938 2094 
Q 2938 2591 2744 2837 
Q 2550 3084 2163 3084 
Q 1697 3084 1428 2787 
Q 1159 2491 1159 1978 
L 1159 0 
L 581 0 
L 581 3500 
L 1159 3500 
L 1159 2956 
Q 1366 3272 1645 3428 
Q 1925 3584 2291 3584 
Q 2894 3584 3203 3211 
Q 3513 2838 3513 2113 
z
" transform="scale(0.015625)"/>
       <path id="DejaVuSans-73" d="M 2834 3397 
L 2834 2853 
Q 2591 2978 2328 3040 
Q 2066 3103 1784 3103 
Q 1356 3103 1142 2972 
Q 928 2841 928 2578 
Q 928 2378 1081 2264 
Q 1234 2150 1697 2047 
L 1894 2003 
Q 2506 1872 2764 1633 
Q 3022 1394 3022 966 
Q 3022 478 2636 193 
Q 2250 -91 1575 -91 
Q 1294 -91 989 -36 
Q 684 19 347 128 
L 347 722 
Q 666 556 975 473 
Q 1284 391 1588 391 
Q 1994 391 2212 530 
Q 2431 669 2431 922 
Q 2431 1156 2273 1281 
Q 2116 1406 1581 1522 
L 1381 1569 
Q 847 1681 609 1914 
Q 372 2147 372 2553 
Q 372 3047 722 3315 
Q 1072 3584 1716 3584 
Q 2034 3584 2315 3537 
Q 2597 3491 2834 3397 
z
" transform="scale(0.015625)"/>
       <path id="DejaVuSans-5d" d="M 1947 4863 
L 1947 -844 
L 622 -844 
L 622 -397 
L 1369 -397 
L 1369 4416 
L 622 4416 
L 622 4863 
L 1947 4863 
z
" transform="scale(0.015625)"/>
      </defs>
      <use xlink:href="#DejaVuSans-Oblique-3c4" transform="translate(0 0.015625)"/>
      <use xlink:href="#DejaVuSans-6c" transform="translate(60.205078 -16.390625) scale(0.7)"/>
      <use xlink:href="#DejaVuSans-61" transform="translate(79.65332 -16.390625) scale(0.7)"/>
      <use xlink:href="#DejaVuSans-67" transform="translate(122.548828 -16.390625) scale(0.7)"/>
      <use xlink:href="#DejaVuSans-20" transform="translate(169.716797 0.015625)"/>
      <use xlink:href="#DejaVuSans-5b" transform="translate(201.503906 0.015625)"/>
      <use xlink:href="#DejaVuSans-6e" transform="translate(240.517578 0.015625)"/>
      <use xlink:href="#DejaVuSans-73" transform="translate(303.896484 0.015625)"/>
      <use xlink:href="#DejaVuSans-5d" transform="translate(355.996094 0.015625)"/>
     </g>
    </g>
   </g>
   <g id="matplotlib.axis_2">
    <g id="ytick_1">
     <g id="line2d_11">
      <path d="M 33.209325 125.758347 
L 206.009325 125.758347 
" clip-path="url(#p2fe5484759)" style="fill: none; stroke-dasharray: 2.96,1.28; stroke-dashoffset: 0; stroke: #dddfe5; stroke-width: 0.8"/>
     </g>
     <g id="line2d_12">
      <defs>
       <path id="m8a7640e123" d="M 0 0 
L -3.5 0 
" style="stroke: #000000; stroke-width: 0.8"/>
      </defs>
      <g>
       <use xlink:href="#m8a7640e123" x="33.209325" y="125.758347" style="stroke: #000000; stroke-width: 0.8"/>
      </g>
     </g>
     <g id="text_7">
      <!-- $\mathdefault{0}$ -->
      <g transform="translate(20.878125 128.923097) scale(0.0833 -0.0833)">
       <use xlink:href="#DejaVuSans-30" transform="translate(0 0.78125)"/>
      </g>
     </g>
    </g>
    <g id="ytick_2">
     <g id="line2d_13">
      <path d="M 33.209325 98.390477 
L 206.009325 98.390477 
" clip-path="url(#p2fe5484759)" style="fill: none; stroke-dasharray: 2.96,1.28; stroke-dashoffset: 0; stroke: #dddfe5; stroke-width: 0.8"/>
     </g>
     <g id="line2d_14">
      <g>
       <use xlink:href="#m8a7640e123" x="33.209325" y="98.390477" style="stroke: #000000; stroke-width: 0.8"/>
      </g>
     </g>
     <g id="text_8">
      <!-- $\mathdefault{2}$ -->
      <g transform="translate(20.878125 101.555226) scale(0.0833 -0.0833)">
       <use xlink:href="#DejaVuSans-32" transform="translate(0 0.78125)"/>
      </g>
     </g>
    </g>
    <g id="ytick_3">
     <g id="line2d_15">
      <path d="M 33.209325 71.022606 
L 206.009325 71.022606 
" clip-path="url(#p2fe5484759)" style="fill: none; stroke-dasharray: 2.96,1.28; stroke-dashoffset: 0; stroke: #dddfe5; stroke-width: 0.8"/>
     </g>
     <g id="line2d_16">
      <g>
       <use xlink:href="#m8a7640e123" x="33.209325" y="71.022606" style="stroke: #000000; stroke-width: 0.8"/>
      </g>
     </g>
     <g id="text_9">
      <!-- $\mathdefault{4}$ -->
      <g transform="translate(20.878125 74.187355) scale(0.0833 -0.0833)">
       <use xlink:href="#DejaVuSans-34" transform="translate(0 0.09375)"/>
      </g>
     </g>
    </g>
    <g id="ytick_4">
     <g id="line2d_17">
      <path d="M 33.209325 43.654735 
L 206.009325 43.654735 
" clip-path="url(#p2fe5484759)" style="fill: none; stroke-dasharray: 2.96,1.28; stroke-dashoffset: 0; stroke: #dddfe5; stroke-width: 0.8"/>
     </g>
     <g id="line2d_18">
      <g>
       <use xlink:href="#m8a7640e123" x="33.209325" y="43.654735" style="stroke: #000000; stroke-width: 0.8"/>
      </g>
     </g>
     <g id="text_10">
      <!-- $\mathdefault{6}$ -->
      <g transform="translate(20.878125 46.819485) scale(0.0833 -0.0833)">
       <defs>
        <path id="DejaVuSans-36" d="M 2113 2584 
Q 1688 2584 1439 2293 
Q 1191 2003 1191 1497 
Q 1191 994 1439 701 
Q 1688 409 2113 409 
Q 2538 409 2786 701 
Q 3034 994 3034 1497 
Q 3034 2003 2786 2293 
Q 2538 2584 2113 2584 
z
M 3366 4563 
L 3366 3988 
Q 3128 4100 2886 4159 
Q 2644 4219 2406 4219 
Q 1781 4219 1451 3797 
Q 1122 3375 1075 2522 
Q 1259 2794 1537 2939 
Q 1816 3084 2150 3084 
Q 2853 3084 3261 2657 
Q 3669 2231 3669 1497 
Q 3669 778 3244 343 
Q 2819 -91 2113 -91 
Q 1303 -91 875 529 
Q 447 1150 447 2328 
Q 447 3434 972 4092 
Q 1497 4750 2381 4750 
Q 2619 4750 2861 4703 
Q 3103 4656 3366 4563 
z
" transform="scale(0.015625)"/>
       </defs>
       <use xlink:href="#DejaVuSans-36" transform="translate(0 0.78125)"/>
      </g>
     </g>
    </g>
    <g id="text_11">
     <!-- time $t$ [ns] -->
     <g transform="translate(14.798438 103.323535) rotate(-90) scale(0.1 -0.1)">
      <defs>
       <path id="DejaVuSans-74" d="M 1172 4494 
L 1172 3500 
L 2356 3500 
L 2356 3053 
L 1172 3053 
L 1172 1153 
Q 1172 725 1289 603 
Q 1406 481 1766 481 
L 2356 481 
L 2356 0 
L 1766 0 
Q 1100 0 847 248 
Q 594 497 594 1153 
L 594 3053 
L 172 3053 
L 172 3500 
L 594 3500 
L 594 4494 
L 1172 4494 
z
" transform="scale(0.015625)"/>
       <path id="DejaVuSans-69" d="M 603 3500 
L 1178 3500 
L 1178 0 
L 603 0 
L 603 3500 
z
M 603 4863 
L 1178 4863 
L 1178 4134 
L 603 4134 
L 603 4863 
z
" transform="scale(0.015625)"/>
       <path id="DejaVuSans-6d" d="M 3328 2828 
Q 3544 3216 3844 3400 
Q 4144 3584 4550 3584 
Q 5097 3584 5394 3201 
Q 5691 2819 5691 2113 
L 5691 0 
L 5113 0 
L 5113 2094 
Q 5113 2597 4934 2840 
Q 4756 3084 4391 3084 
Q 3944 3084 3684 2787 
Q 3425 2491 3425 1978 
L 3425 0 
L 2847 0 
L 2847 2094 
Q 2847 2600 2669 2842 
Q 2491 3084 2119 3084 
Q 1678 3084 1418 2786 
Q 1159 2488 1159 1978 
L 1159 0 
L 581 0 
L 581 3500 
L 1159 3500 
L 1159 2956 
Q 1356 3278 1631 3431 
Q 1906 3584 2284 3584 
Q 2666 3584 2933 3390 
Q 3200 3197 3328 2828 
z
" transform="scale(0.015625)"/>
       <path id="DejaVuSans-65" d="M 3597 1894 
L 3597 1613 
L 953 1613 
Q 991 1019 1311 708 
Q 1631 397 2203 397 
Q 2534 397 2845 478 
Q 3156 559 3463 722 
L 3463 178 
Q 3153 47 2828 -22 
Q 2503 -91 2169 -91 
Q 1331 -91 842 396 
Q 353 884 353 1716 
Q 353 2575 817 3079 
Q 1281 3584 2069 3584 
Q 2775 3584 3186 3129 
Q 3597 2675 3597 1894 
z
M 3022 2063 
Q 3016 2534 2758 2815 
Q 2500 3097 2075 3097 
Q 1594 3097 1305 2825 
Q 1016 2553 972 2059 
L 3022 2063 
z
" transform="scale(0.015625)"/>
       <path id="DejaVuSans-Oblique-74" d="M 2706 3500 
L 2619 3053 
L 1472 3053 
L 1100 1153 
Q 1081 1047 1072 975 
Q 1063 903 1063 863 
Q 1063 663 1183 572 
Q 1303 481 1569 481 
L 2150 481 
L 2053 0 
L 1503 0 
Q 991 0 739 200 
Q 488 400 488 806 
Q 488 878 497 964 
Q 506 1050 525 1153 
L 897 3053 
L 409 3053 
L 500 3500 
L 978 3500 
L 1172 4494 
L 1747 4494 
L 1556 3500 
L 2706 3500 
z
" transform="scale(0.015625)"/>
      </defs>
      <use xlink:href="#DejaVuSans-74" transform="translate(0 0.015625)"/>
      <use xlink:href="#DejaVuSans-69" transform="translate(39.208984 0.015625)"/>
      <use xlink:href="#DejaVuSans-6d" transform="translate(66.992188 0.015625)"/>
      <use xlink:href="#DejaVuSans-65" transform="translate(164.404297 0.015625)"/>
      <use xlink:href="#DejaVuSans-20" transform="translate(225.927734 0.015625)"/>
      <use xlink:href="#DejaVuSans-Oblique-74" transform="translate(257.714844 0.015625)"/>
      <use xlink:href="#DejaVuSans-20" transform="translate(296.923828 0.015625)"/>
      <use xlink:href="#DejaVuSans-5b" transform="translate(328.710938 0.015625)"/>
      <use xlink:href="#DejaVuSans-6e" transform="translate(367.724609 0.015625)"/>
      <use xlink:href="#DejaVuSans-73" transform="translate(431.103516 0.015625)"/>
      <use xlink:href="#DejaVuSans-5d" transform="translate(483.203125 0.015625)"/>
     </g>
    </g>
    <g id="text_12">
     <!-- $\times\mathdefault{10^{3}}\mathdefault{}$ -->
     <g transform="translate(11.551325 20.775398) scale(0.0833 -0.0833)">
      <defs>
       <path id="DejaVuSans-d7" d="M 4488 3438 
L 3059 2003 
L 4488 575 
L 4116 197 
L 2681 1631 
L 1247 197 
L 878 575 
L 2303 2003 
L 878 3438 
L 1247 3816 
L 2681 2381 
L 4116 3816 
L 4488 3438 
z
" transform="scale(0.015625)"/>
       <path id="DejaVuSans-33" d="M 2597 2516 
Q 3050 2419 3304 2112 
Q 3559 1806 3559 1356 
Q 3559 666 3084 287 
Q 2609 -91 1734 -91 
Q 1441 -91 1130 -33 
Q 819 25 488 141 
L 488 750 
Q 750 597 1062 519 
Q 1375 441 1716 441 
Q 2309 441 2620 675 
Q 2931 909 2931 1356 
Q 2931 1769 2642 2001 
Q 2353 2234 1838 2234 
L 1294 2234 
L 1294 2753 
L 1863 2753 
Q 2328 2753 2575 2939 
Q 2822 3125 2822 3475 
Q 2822 3834 2567 4026 
Q 2313 4219 1838 4219 
Q 1578 4219 1281 4162 
Q 984 4106 628 3988 
L 628 4550 
Q 988 4650 1302 4700 
Q 1616 4750 1894 4750 
Q 2613 4750 3031 4423 
Q 3450 4097 3450 3541 
Q 3450 3153 3228 2886 
Q 3006 2619 2597 2516 
z
" transform="scale(0.015625)"/>
      </defs>
      <use xlink:href="#DejaVuSans-d7" transform="translate(0 0.765625)"/>
      <use xlink:href="#DejaVuSans-31" transform="translate(83.789062 0.765625)"/>
      <use xlink:href="#DejaVuSans-30" transform="translate(147.412109 0.765625)"/>
      <use xlink:href="#DejaVuSans-33" transform="translate(211.992188 39.046875) scale(0.7)"/>
     </g>
    </g>
   </g>
   <g id="PolyCollection_1">
    <defs>
     <path id="mde3fc3f1f4" d="M 33.867611 -76.817024 
L 33.867611 -41.829938 
L 36.500754 -41.816254 
L 39.133896 -41.849096 
L 41.767039 -41.846359 
L 45.058468 -41.873727 
L 47.691611 -41.895621 
L 50.324754 -41.917515 
L 52.957896 -41.93941 
L 56.249325 -41.966777 
L 58.882468 -41.988672 
L 61.515611 -42.010566 
L 64.148754 -42.03246 
L 67.440182 -42.059828 
L 70.073325 -42.081723 
L 72.706468 -42.103617 
L 75.339611 -42.125511 
L 78.631039 -42.152879 
L 81.264182 -42.174773 
L 83.897325 -42.196668 
L 87.188754 -42.224035 
L 89.821896 -42.24593 
L 92.455039 -42.267824 
L 95.088182 -42.289718 
L 98.379611 -42.317086 
L 101.012754 -42.338981 
L 103.645896 -42.360875 
L 106.279039 -42.382769 
L 109.570468 -42.410137 
L 112.203611 -42.432031 
L 114.836754 -42.453926 
L 117.469896 -42.47582 
L 120.761325 -42.503188 
L 123.394468 -42.525082 
L 126.027611 -42.546976 
L 129.319039 -42.574344 
L 131.952182 -42.596238 
L 134.585325 -42.618133 
L 137.218468 -42.640027 
L 140.509896 -42.667395 
L 143.143039 -42.689289 
L 145.776182 -42.711184 
L 148.409325 -42.733078 
L 151.700754 -42.760446 
L 154.333896 -42.78234 
L 156.967039 -42.804234 
L 159.600182 -42.826129 
L 162.891611 -42.853496 
L 165.524754 -42.875391 
L 168.157896 -42.897285 
L 171.449325 -42.349928 
L 171.449325 -138.903775 
L 171.449325 -138.903775 
L 168.157896 -138.274314 
L 165.524754 -137.491593 
L 162.891611 -137.204231 
L 159.600182 -136.358563 
L 156.967039 -135.931625 
L 154.333896 -134.935434 
L 151.700754 -134.880698 
L 148.409325 -134.689123 
L 145.776182 -133.033367 
L 143.143039 -133.18389 
L 140.509896 -132.33275 
L 137.218468 -133.01421 
L 134.585325 -131.125826 
L 131.952182 -131.678657 
L 129.319039 -129.680803 
L 126.027611 -129.757433 
L 123.394468 -129.511122 
L 120.761325 -128.041467 
L 117.469896 -127.600845 
L 114.836754 -126.954963 
L 112.203611 -125.192472 
L 109.570468 -124.951635 
L 106.279039 -123.796711 
L 103.645896 -122.597998 
L 101.012754 -122.113587 
L 98.379611 -120.619301 
L 95.088182 -119.98163 
L 92.455039 -118.131561 
L 89.821896 -118.033037 
L 87.188754 -117.17916 
L 83.897325 -115.953079 
L 81.264182 -114.896679 
L 78.631039 -113.533759 
L 75.339611 -111.486643 
L 72.706468 -110.249615 
L 70.073325 -108.749855 
L 67.440182 -107.239149 
L 64.148754 -105.317924 
L 61.515611 -103.205125 
L 58.882468 -100.799489 
L 56.249325 -99.056156 
L 52.957896 -96.209897 
L 50.324754 -94.786768 
L 47.691611 -92.652074 
L 45.058468 -91.529991 
L 41.767039 -89.450033 
L 39.133896 -87.145658 
L 36.500754 -83.141739 
L 33.867611 -76.817024 
z
" style="stroke: #81b2c6"/>
    </defs>
    <g clip-path="url(#p2fe5484759)">
     <use xlink:href="#mde3fc3f1f4" x="0" y="167.53355" style="fill: #81b2c6; stroke: #81b2c6"/>
    </g>
   </g>
   <g id="PolyCollection_2">
    <defs>
     <path id="m2c9ad52184" d="M 33.867611 -58.280765 
L 33.867611 -45.918698 
L 36.500754 -46.674051 
L 39.133896 -47.243303 
L 41.767039 -47.396563 
L 45.058468 -47.588138 
L 47.691611 -47.796134 
L 50.324754 -48.036971 
L 52.957896 -48.179284 
L 56.249325 -48.576118 
L 58.882468 -48.819692 
L 61.515611 -49.071477 
L 64.148754 -49.364313 
L 67.440182 -49.602413 
L 70.073325 -49.744726 
L 72.706468 -49.985564 
L 75.339611 -50.182612 
L 78.631039 -50.272926 
L 81.264182 -50.565762 
L 83.897325 -50.625972 
L 87.188754 -50.97628 
L 89.821896 -50.954386 
L 92.455039 -51.135014 
L 95.088182 -51.293748 
L 98.379611 -51.529111 
L 101.012754 -51.64132 
L 103.645896 -51.731634 
L 106.279039 -51.800053 
L 109.570468 -51.934156 
L 112.203611 -52.284465 
L 114.836754 -52.295412 
L 117.469896 -52.284465 
L 120.761325 -52.694983 
L 123.394468 -52.648457 
L 126.027611 -52.580038 
L 129.319039 -52.963188 
L 131.952182 -52.85919 
L 134.585325 -53.154763 
L 137.218468 -53.017924 
L 140.509896 -53.373706 
L 143.143039 -53.201288 
L 145.776182 -53.474967 
L 148.409325 -53.269708 
L 151.700754 -53.598122 
L 154.333896 -53.357285 
L 156.967039 -53.60907 
L 159.600182 -53.860854 
L 162.891611 -53.636438 
L 165.524754 -53.877275 
L 168.157896 -54.118112 
L 171.449325 -54.419159 
L 171.449325 -88.32795 
L 171.449325 -88.32795 
L 168.157896 -87.780593 
L 165.524754 -87.433021 
L 162.891611 -87.063555 
L 159.600182 -86.96503 
L 156.967039 -86.538092 
L 154.333896 -86.089259 
L 151.700754 -86.111153 
L 148.409325 -85.837474 
L 145.776182 -85.298327 
L 143.143039 -85.194329 
L 140.509896 -85.046543 
L 137.218468 -85.016438 
L 134.585325 -84.343188 
L 131.952182 -84.469081 
L 129.319039 -83.730148 
L 126.027611 -83.450996 
L 123.394468 -83.393523 
L 120.761325 -82.906375 
L 117.469896 -82.411017 
L 114.836754 -82.159232 
L 112.203611 -81.513351 
L 109.570468 -81.141148 
L 106.279039 -80.659473 
L 103.645896 -80.136747 
L 101.012754 -79.830227 
L 98.379611 -79.165187 
L 95.088182 -78.820352 
L 92.455039 -77.982895 
L 89.821896 -77.785847 
L 87.188754 -77.457432 
L 83.897325 -76.756815 
L 81.264182 -76.338086 
L 78.631039 -75.577259 
L 75.339611 -74.704224 
L 72.706468 -74.124025 
L 70.073325 -73.346778 
L 67.440182 -72.657108 
L 64.148754 -71.745758 
L 61.515611 -70.724936 
L 58.882468 -69.632958 
L 56.249325 -68.787291 
L 52.957896 -67.391529 
L 50.324754 -66.751121 
L 47.691611 -65.73851 
L 45.058468 -65.174732 
L 41.767039 -64.225067 
L 39.133896 -63.204245 
L 36.500754 -61.261126 
L 33.867611 -58.280765 
z
" style="stroke: #4e7a8c"/>
    </defs>
    <g clip-path="url(#p2fe5484759)">
     <use xlink:href="#m2c9ad52184" x="0" y="167.53355" style="fill: #4e7a8c; stroke: #4e7a8c"/>
    </g>
   </g>
   <g id="line2d_19">
    <path d="M 33.867611 117.030733 
L 36.500754 115.331189 
L 39.133896 114.280262 
L 41.767039 114.017531 
L 45.058468 113.442806 
L 47.691611 113.054182 
L 50.324754 112.523245 
L 52.957896 112.293355 
L 56.249325 111.486003 
L 58.882468 111.028959 
L 61.515611 110.459708 
L 64.148754 109.936981 
L 67.440182 109.392361 
L 70.073325 109.052999 
L 72.706468 108.680796 
L 75.339611 108.24291 
L 78.631039 107.818708 
L 81.264182 107.378086 
L 83.897325 107.213878 
L 87.188754 106.682942 
L 89.821896 106.693889 
L 92.455039 106.299791 
L 95.088182 106.206741 
L 98.379611 105.708645 
L 101.012754 105.462335 
L 103.645896 105.259812 
L 106.279039 105.101079 
L 109.570468 104.805506 
L 112.203611 104.411408 
L 114.836754 104.378567 
L 117.469896 104.039205 
L 120.761325 103.918787 
L 123.394468 103.636898 
L 126.027611 103.376903 
L 129.319039 102.982805 
L 131.952182 103.179854 
L 134.585325 102.999226 
L 137.218468 102.840493 
L 140.509896 102.56134 
L 143.143039 102.449132 
L 145.776182 102.358818 
L 148.409325 102.290398 
L 151.700754 102.112507 
L 154.333896 102.090613 
L 156.967039 101.576097 
L 159.600182 101.587044 
L 162.891611 101.49673 
L 165.524754 101.004108 
L 168.157896 101.072528 
L 171.449325 100.470435 
" clip-path="url(#p2fe5484759)" style="fill: none; stroke: #264653; stroke-width: 1.5; stroke-linecap: square"/>
   </g>
   <g id="line2d_20">
    <path d="M 183.545325 116.333537 
L 193.913325 116.333537 
L 193.913325 79.583276 
L 183.545325 79.583276 
L 183.545325 116.333537 
" clip-path="url(#p2fe5484759)" style="fill: none; stroke: #000000; stroke-linecap: square"/>
   </g>
   <g id="line2d_21">
    <path d="M 188.729325 116.333537 
L 188.729325 125.013941 
" clip-path="url(#p2fe5484759)" style="fill: none; stroke: #000000; stroke-linecap: square"/>
   </g>
   <g id="line2d_22">
    <path d="M 188.729325 79.583276 
L 188.729325 33.476624 
" clip-path="url(#p2fe5484759)" style="fill: none; stroke: #000000; stroke-linecap: square"/>
   </g>
   <g id="line2d_23">
    <path d="M 186.137325 125.013941 
L 191.321325 125.013941 
" clip-path="url(#p2fe5484759)" style="fill: none; stroke: #000000; stroke-linecap: square"/>
   </g>
   <g id="line2d_24">
    <path d="M 186.137325 33.476624 
L 191.321325 33.476624 
" clip-path="url(#p2fe5484759)" style="fill: none; stroke: #000000; stroke-linecap: square"/>
   </g>
   <g id="line2d_25">
    <path d="M 171.449325 130.571672 
L 171.449325 23.775398 
" clip-path="url(#p2fe5484759)" style="fill: none; stroke: #000000; stroke-width: 0.8; stroke-linecap: square"/>
   </g>
   <g id="line2d_26">
    <path d="M 183.545325 98.963834 
L 193.913325 98.963834 
" clip-path="url(#p2fe5484759)" style="fill: none; stroke: #000000; stroke-linecap: square"/>
   </g>
   <g id="patch_3">
    <path d="M 33.209325 130.571672 
L 33.209325 23.775398 
" style="fill: none; stroke: #000000; stroke-width: 0.8; stroke-linejoin: miter; stroke-linecap: square"/>
   </g>
   <g id="patch_4">
    <path d="M 206.009325 130.571672 
L 206.009325 23.775398 
" style="fill: none; stroke: #000000; stroke-width: 0.8; stroke-linejoin: miter; stroke-linecap: square"/>
   </g>
   <g id="patch_5">
    <path d="M 33.209325 130.571672 
L 206.009325 130.571672 
" style="fill: none; stroke: #000000; stroke-width: 0.8; stroke-linejoin: miter; stroke-linecap: square"/>
   </g>
   <g id="patch_6">
    <path d="M 33.209325 23.775398 
L 206.009325 23.775398 
" style="fill: none; stroke: #000000; stroke-width: 0.8; stroke-linejoin: miter; stroke-linecap: square"/>
   </g>
   <g id="legend_1">
    <g id="patch_7">
     <path d="M 37.374325 17.694498 
L 49.036325 17.694498 
L 49.036325 11.863498 
L 37.374325 11.863498 
z
" style="fill: #81b2c6; stroke: #81b2c6; stroke-linejoin: miter"/>
    </g>
    <g id="text_13">
     <!-- $Q_{1/3}\pm1.5\mathrm{IQR}$ -->
     <g transform="translate(53.201325 17.694498) scale(0.0833 -0.0833)">
      <defs>
       <path id="DejaVuSans-Oblique-51" d="M 2309 -84 
Q 2275 -88 2237 -89 
Q 2200 -91 2125 -91 
Q 1250 -91 756 411 
Q 263 913 263 1797 
Q 263 2319 452 2844 
Q 641 3369 978 3788 
Q 1369 4269 1858 4509 
Q 2347 4750 2938 4750 
Q 3794 4750 4287 4245 
Q 4781 3741 4781 2869 
Q 4781 1928 4265 1147 
Q 3750 366 2919 44 
L 3553 -825 
L 2847 -825 
L 2309 -84 
z
M 2919 4238 
Q 2400 4238 2003 3986 
Q 1606 3734 1313 3219 
Q 1125 2891 1026 2522 
Q 928 2153 928 1778 
Q 928 1128 1239 775 
Q 1550 422 2119 422 
Q 2631 422 3032 676 
Q 3434 931 3719 1434 
Q 3909 1772 4009 2142 
Q 4109 2513 4109 2881 
Q 4109 3528 3796 3883 
Q 3484 4238 2919 4238 
z
" transform="scale(0.015625)"/>
       <path id="DejaVuSans-2f" d="M 1625 4666 
L 2156 4666 
L 531 -594 
L 0 -594 
L 1625 4666 
z
" transform="scale(0.015625)"/>
       <path id="DejaVuSans-b1" d="M 2944 4013 
L 2944 2803 
L 4684 2803 
L 4684 2272 
L 2944 2272 
L 2944 1063 
L 2419 1063 
L 2419 2272 
L 678 2272 
L 678 2803 
L 2419 2803 
L 2419 4013 
L 2944 4013 
z
M 678 531 
L 4684 531 
L 4684 0 
L 678 0 
L 678 531 
z
" transform="scale(0.015625)"/>
       <path id="DejaVuSans-2e" d="M 684 794 
L 1344 794 
L 1344 0 
L 684 0 
L 684 794 
z
" transform="scale(0.015625)"/>
       <path id="DejaVuSans-35" d="M 691 4666 
L 3169 4666 
L 3169 4134 
L 1269 4134 
L 1269 2991 
Q 1406 3038 1543 3061 
Q 1681 3084 1819 3084 
Q 2600 3084 3056 2656 
Q 3513 2228 3513 1497 
Q 3513 744 3044 326 
Q 2575 -91 1722 -91 
Q 1428 -91 1123 -41 
Q 819 9 494 109 
L 494 744 
Q 775 591 1075 516 
Q 1375 441 1709 441 
Q 2250 441 2565 725 
Q 2881 1009 2881 1497 
Q 2881 1984 2565 2268 
Q 2250 2553 1709 2553 
Q 1456 2553 1204 2497 
Q 953 2441 691 2322 
L 691 4666 
z
" transform="scale(0.015625)"/>
       <path id="DejaVuSans-49" d="M 628 4666 
L 1259 4666 
L 1259 0 
L 628 0 
L 628 4666 
z
" transform="scale(0.015625)"/>
       <path id="DejaVuSans-51" d="M 2522 4238 
Q 1834 4238 1429 3725 
Q 1025 3213 1025 2328 
Q 1025 1447 1429 934 
Q 1834 422 2522 422 
Q 3209 422 3611 934 
Q 4013 1447 4013 2328 
Q 4013 3213 3611 3725 
Q 3209 4238 2522 4238 
z
M 3406 84 
L 4238 -825 
L 3475 -825 
L 2784 -78 
Q 2681 -84 2626 -87 
Q 2572 -91 2522 -91 
Q 1538 -91 948 567 
Q 359 1225 359 2328 
Q 359 3434 948 4092 
Q 1538 4750 2522 4750 
Q 3503 4750 4090 4092 
Q 4678 3434 4678 2328 
Q 4678 1516 4351 937 
Q 4025 359 3406 84 
z
" transform="scale(0.015625)"/>
       <path id="DejaVuSans-52" d="M 2841 2188 
Q 3044 2119 3236 1894 
Q 3428 1669 3622 1275 
L 4263 0 
L 3584 0 
L 2988 1197 
Q 2756 1666 2539 1819 
Q 2322 1972 1947 1972 
L 1259 1972 
L 1259 0 
L 628 0 
L 628 4666 
L 2053 4666 
Q 2853 4666 3247 4331 
Q 3641 3997 3641 3322 
Q 3641 2881 3436 2590 
Q 3231 2300 2841 2188 
z
M 1259 4147 
L 1259 2491 
L 2053 2491 
Q 2509 2491 2742 2702 
Q 2975 2913 2975 3322 
Q 2975 3731 2742 3939 
Q 2509 4147 2053 4147 
L 1259 4147 
z
" transform="scale(0.015625)"/>
      </defs>
      <use xlink:href="#DejaVuSans-Oblique-51" transform="translate(0 0.78125)"/>
      <use xlink:href="#DejaVuSans-31" transform="translate(78.710938 -15.625) scale(0.7)"/>
      <use xlink:href="#DejaVuSans-2f" transform="translate(123.24707 -15.625) scale(0.7)"/>
      <use xlink:href="#DejaVuSans-33" transform="translate(146.831055 -15.625) scale(0.7)"/>
      <use xlink:href="#DejaVuSans-b1" transform="translate(213.583984 0.78125)"/>
      <use xlink:href="#DejaVuSans-31" transform="translate(316.855469 0.78125)"/>
      <use xlink:href="#DejaVuSans-2e" transform="translate(380.478516 0.78125)"/>
      <use xlink:href="#DejaVuSans-35" transform="translate(412.265625 0.78125)"/>
      <use xlink:href="#DejaVuSans-49" transform="translate(475.888672 0.78125)"/>
      <use xlink:href="#DejaVuSans-51" transform="translate(505.380859 0.78125)"/>
      <use xlink:href="#DejaVuSans-52" transform="translate(584.091797 0.78125)"/>
     </g>
    </g>
    <g id="patch_8">
     <path d="M 126.28569 17.694498 
L 137.94769 17.694498 
L 137.94769 11.863498 
L 126.28569 11.863498 
z
" style="fill: #4e7a8c; stroke: #4e7a8c; stroke-linejoin: miter"/>
    </g>
    <g id="text_14">
     <!-- IQR -->
     <g transform="translate(142.11269 17.694498) scale(0.0833 -0.0833)">
      <use xlink:href="#DejaVuSans-49"/>
      <use xlink:href="#DejaVuSans-51" x="29.492188"/>
      <use xlink:href="#DejaVuSans-52" x="108.203125"/>
     </g>
    </g>
    <g id="line2d_27">
     <path d="M 175.521525 14.778998 
L 181.352525 14.778998 
L 187.183525 14.778998 
" style="fill: none; stroke: #264653; stroke-width: 1.5; stroke-linecap: square"/>
    </g>
    <g id="text_15">
     <!-- $Q_2$ -->
     <g transform="translate(191.348525 17.694498) scale(0.0833 -0.0833)">
      <use xlink:href="#DejaVuSans-Oblique-51" transform="translate(0 0.78125)"/>
      <use xlink:href="#DejaVuSans-32" transform="translate(78.710938 -15.625) scale(0.7)"/>
     </g>
    </g>
   </g>
  </g>
 </g>
 <defs>
  <clipPath id="p2fe5484759">
   <rect x="33.209325" y="23.775398" width="172.8" height="106.796273"/>
  </clipPath>
 </defs>
</svg>
