<?xml version="1.0" encoding="utf-8" standalone="no"?>
<!DOCTYPE svg PUBLIC "-//W3C//DTD SVG 1.1//EN"
  "http://www.w3.org/Graphics/SVG/1.1/DTD/svg11.dtd">
<svg xmlns:xlink="http://www.w3.org/1999/xlink" width="274.364166pt" height="160.28765pt" viewBox="0 0 274.364166 160.28765" xmlns="http://www.w3.org/2000/svg" version="1.1">
 <metadata>
  <rdf:RDF xmlns:dc="http://purl.org/dc/elements/1.1/" xmlns:cc="http://creativecommons.org/ns#" xmlns:rdf="http://www.w3.org/1999/02/22-rdf-syntax-ns#">
   <cc:Work>
    <dc:type rdf:resource="http://purl.org/dc/dcmitype/StillImage"/>
    <dc:date>2023-03-08T15:22:00.635381</dc:date>
    <dc:format>image/svg+xml</dc:format>
    <dc:creator>
     <cc:Agent>
      <dc:title>Matplotlib v3.6.3, https://matplotlib.org/</dc:title>
     </cc:Agent>
    </dc:creator>
   </cc:Work>
  </rdf:RDF>
 </metadata>
 <defs>
  <style type="text/css">*{stroke-linejoin: round; stroke-linecap: butt}</style>
 </defs>
 <g id="figure_1">
  <g id="patch_1">
   <path d="M -0 160.28765 
L 274.364166 160.28765 
L 274.364166 0 
L -0 0 
L -0 160.28765 
z
" style="fill: none"/>
  </g>
  <g id="axes_1">
   <g id="patch_2">
    <path d="M 46.4759 123.325772 
L 219.2759 123.325772 
L 219.2759 16.529498 
L 46.4759 16.529498 
L 46.4759 123.325772 
z
" style="fill: none"/>
   </g>
   <g id="matplotlib.axis_1">
    <g id="xtick_1">
     <g id="line2d_1">
      <path d="M 54.330445 123.325772 
L 54.330445 16.529498 
" clip-path="url(#pc813430551)" style="fill: none; stroke-dasharray: 2.96,1.28; stroke-dashoffset: 0; stroke: #dddfe5; stroke-width: 0.8"/>
     </g>
     <g id="line2d_2">
      <defs>
       <path id="mdc28ff048a" d="M 0 0 
L 0 3.5 
" style="stroke: #000000; stroke-width: 0.8"/>
      </defs>
      <g>
       <use xlink:href="#mdc28ff048a" x="54.330445" y="123.325772" style="stroke: #000000; stroke-width: 0.8"/>
      </g>
     </g>
     <g id="text_1">
      <!-- 0 -->
      <g transform="translate(51.680464 136.65527) scale(0.0833 -0.0833)">
       <defs>
        <path id="DejaVuSans-30" d="M 2034 4250 
Q 1547 4250 1301 3770 
Q 1056 3291 1056 2328 
Q 1056 1369 1301 889 
Q 1547 409 2034 409 
Q 2525 409 2770 889 
Q 3016 1369 3016 2328 
Q 3016 3291 2770 3770 
Q 2525 4250 2034 4250 
z
M 2034 4750 
Q 2819 4750 3233 4129 
Q 3647 3509 3647 2328 
Q 3647 1150 3233 529 
Q 2819 -91 2034 -91 
Q 1250 -91 836 529 
Q 422 1150 422 2328 
Q 422 3509 836 4129 
Q 1250 4750 2034 4750 
z
" transform="scale(0.015625)"/>
       </defs>
       <use xlink:href="#DejaVuSans-30"/>
      </g>
     </g>
    </g>
    <g id="xtick_2">
     <g id="line2d_3">
      <path d="M 85.798977 123.325772 
L 85.798977 16.529498 
" clip-path="url(#pc813430551)" style="fill: none; stroke-dasharray: 2.96,1.28; stroke-dashoffset: 0; stroke: #dddfe5; stroke-width: 0.8"/>
     </g>
     <g id="line2d_4">
      <g>
       <use xlink:href="#mdc28ff048a" x="85.798977" y="123.325772" style="stroke: #000000; stroke-width: 0.8"/>
      </g>
     </g>
     <g id="text_2">
      <!-- 5000 -->
      <g transform="translate(75.199052 136.65527) scale(0.0833 -0.0833)">
       <defs>
        <path id="DejaVuSans-35" d="M 691 4666 
L 3169 4666 
L 3169 4134 
L 1269 4134 
L 1269 2991 
Q 1406 3038 1543 3061 
Q 1681 3084 1819 3084 
Q 2600 3084 3056 2656 
Q 3513 2228 3513 1497 
Q 3513 744 3044 326 
Q 2575 -91 1722 -91 
Q 1428 -91 1123 -41 
Q 819 9 494 109 
L 494 744 
Q 775 591 1075 516 
Q 1375 441 1709 441 
Q 2250 441 2565 725 
Q 2881 1009 2881 1497 
Q 2881 1984 2565 2268 
Q 2250 2553 1709 2553 
Q 1456 2553 1204 2497 
Q 953 2441 691 2322 
L 691 4666 
z
" transform="scale(0.015625)"/>
       </defs>
       <use xlink:href="#DejaVuSans-35"/>
       <use xlink:href="#DejaVuSans-30" x="63.623047"/>
       <use xlink:href="#DejaVuSans-30" x="127.246094"/>
       <use xlink:href="#DejaVuSans-30" x="190.869141"/>
      </g>
     </g>
    </g>
    <g id="xtick_3">
     <g id="line2d_5">
      <path d="M 117.267508 123.325772 
L 117.267508 16.529498 
" clip-path="url(#pc813430551)" style="fill: none; stroke-dasharray: 2.96,1.28; stroke-dashoffset: 0; stroke: #dddfe5; stroke-width: 0.8"/>
     </g>
     <g id="line2d_6">
      <g>
       <use xlink:href="#mdc28ff048a" x="117.267508" y="123.325772" style="stroke: #000000; stroke-width: 0.8"/>
      </g>
     </g>
     <g id="text_3">
      <!-- 10000 -->
      <g transform="translate(104.017602 136.65527) scale(0.0833 -0.0833)">
       <defs>
        <path id="DejaVuSans-31" d="M 794 531 
L 1825 531 
L 1825 4091 
L 703 3866 
L 703 4441 
L 1819 4666 
L 2450 4666 
L 2450 531 
L 3481 531 
L 3481 0 
L 794 0 
L 794 531 
z
" transform="scale(0.015625)"/>
       </defs>
       <use xlink:href="#DejaVuSans-31"/>
       <use xlink:href="#DejaVuSans-30" x="63.623047"/>
       <use xlink:href="#DejaVuSans-30" x="127.246094"/>
       <use xlink:href="#DejaVuSans-30" x="190.869141"/>
       <use xlink:href="#DejaVuSans-30" x="254.492188"/>
      </g>
     </g>
    </g>
    <g id="xtick_4">
     <g id="line2d_7">
      <path d="M 148.73604 123.325772 
L 148.73604 16.529498 
" clip-path="url(#pc813430551)" style="fill: none; stroke-dasharray: 2.96,1.28; stroke-dashoffset: 0; stroke: #dddfe5; stroke-width: 0.8"/>
     </g>
     <g id="line2d_8">
      <g>
       <use xlink:href="#mdc28ff048a" x="148.73604" y="123.325772" style="stroke: #000000; stroke-width: 0.8"/>
      </g>
     </g>
     <g id="text_4">
      <!-- 15000 -->
      <g transform="translate(135.486134 136.65527) scale(0.0833 -0.0833)">
       <use xlink:href="#DejaVuSans-31"/>
       <use xlink:href="#DejaVuSans-35" x="63.623047"/>
       <use xlink:href="#DejaVuSans-30" x="127.246094"/>
       <use xlink:href="#DejaVuSans-30" x="190.869141"/>
       <use xlink:href="#DejaVuSans-30" x="254.492188"/>
      </g>
     </g>
    </g>
    <g id="xtick_5">
     <g id="line2d_9">
      <path d="M 180.204571 123.325772 
L 180.204571 16.529498 
" clip-path="url(#pc813430551)" style="fill: none; stroke-dasharray: 2.96,1.28; stroke-dashoffset: 0; stroke: #dddfe5; stroke-width: 0.8"/>
     </g>
     <g id="line2d_10">
      <g>
       <use xlink:href="#mdc28ff048a" x="180.204571" y="123.325772" style="stroke: #000000; stroke-width: 0.8"/>
      </g>
     </g>
     <g id="text_5">
      <!-- 20000 -->
      <g transform="translate(166.954665 136.65527) scale(0.0833 -0.0833)">
       <defs>
        <path id="DejaVuSans-32" d="M 1228 531 
L 3431 531 
L 3431 0 
L 469 0 
L 469 531 
Q 828 903 1448 1529 
Q 2069 2156 2228 2338 
Q 2531 2678 2651 2914 
Q 2772 3150 2772 3378 
Q 2772 3750 2511 3984 
Q 2250 4219 1831 4219 
Q 1534 4219 1204 4116 
Q 875 4013 500 3803 
L 500 4441 
Q 881 4594 1212 4672 
Q 1544 4750 1819 4750 
Q 2544 4750 2975 4387 
Q 3406 4025 3406 3419 
Q 3406 3131 3298 2873 
Q 3191 2616 2906 2266 
Q 2828 2175 2409 1742 
Q 1991 1309 1228 531 
z
" transform="scale(0.015625)"/>
       </defs>
       <use xlink:href="#DejaVuSans-32"/>
       <use xlink:href="#DejaVuSans-30" x="63.623047"/>
       <use xlink:href="#DejaVuSans-30" x="127.246094"/>
       <use xlink:href="#DejaVuSans-30" x="190.869141"/>
       <use xlink:href="#DejaVuSans-30" x="254.492188"/>
      </g>
     </g>
    </g>
    <g id="xtick_6">
     <g id="line2d_11">
      <path d="M 211.673103 123.325772 
L 211.673103 16.529498 
" clip-path="url(#pc813430551)" style="fill: none; stroke-dasharray: 2.96,1.28; stroke-dashoffset: 0; stroke: #dddfe5; stroke-width: 0.8"/>
     </g>
     <g id="line2d_12">
      <g>
       <use xlink:href="#mdc28ff048a" x="211.673103" y="123.325772" style="stroke: #000000; stroke-width: 0.8"/>
      </g>
     </g>
     <g id="text_6">
      <!-- 25000 -->
      <g transform="translate(198.423197 136.65527) scale(0.0833 -0.0833)">
       <use xlink:href="#DejaVuSans-32"/>
       <use xlink:href="#DejaVuSans-35" x="63.623047"/>
       <use xlink:href="#DejaVuSans-30" x="127.246094"/>
       <use xlink:href="#DejaVuSans-30" x="190.869141"/>
       <use xlink:href="#DejaVuSans-30" x="254.492188"/>
      </g>
     </g>
    </g>
    <g id="text_7">
     <!-- $\tau_\mathrm{lag}$ [ns] -->
     <g transform="translate(113.0759 149.98765) scale(0.1 -0.1)">
      <defs>
       <path id="DejaVuSans-Oblique-3c4" d="M 2103 638 
Q 2188 488 2525 488 
L 2800 488 
L 2706 0 
L 2363 0 
Q 1800 0 1600 300 
Q 1403 606 1534 1269 
L 1856 2925 
L 541 2925 
L 653 3500 
L 3881 3500 
L 3769 2925 
L 2444 2925 
L 2113 1234 
Q 2025 781 2103 638 
z
" transform="scale(0.015625)"/>
       <path id="DejaVuSans-6c" d="M 603 4863 
L 1178 4863 
L 1178 0 
L 603 0 
L 603 4863 
z
" transform="scale(0.015625)"/>
       <path id="DejaVuSans-61" d="M 2194 1759 
Q 1497 1759 1228 1600 
Q 959 1441 959 1056 
Q 959 750 1161 570 
Q 1363 391 1709 391 
Q 2188 391 2477 730 
Q 2766 1069 2766 1631 
L 2766 1759 
L 2194 1759 
z
M 3341 1997 
L 3341 0 
L 2766 0 
L 2766 531 
Q 2569 213 2275 61 
Q 1981 -91 1556 -91 
Q 1019 -91 701 211 
Q 384 513 384 1019 
Q 384 1609 779 1909 
Q 1175 2209 1959 2209 
L 2766 2209 
L 2766 2266 
Q 2766 2663 2505 2880 
Q 2244 3097 1772 3097 
Q 1472 3097 1187 3025 
Q 903 2953 641 2809 
L 641 3341 
Q 956 3463 1253 3523 
Q 1550 3584 1831 3584 
Q 2591 3584 2966 3190 
Q 3341 2797 3341 1997 
z
" transform="scale(0.015625)"/>
       <path id="DejaVuSans-67" d="M 2906 1791 
Q 2906 2416 2648 2759 
Q 2391 3103 1925 3103 
Q 1463 3103 1205 2759 
Q 947 2416 947 1791 
Q 947 1169 1205 825 
Q 1463 481 1925 481 
Q 2391 481 2648 825 
Q 2906 1169 2906 1791 
z
M 3481 434 
Q 3481 -459 3084 -895 
Q 2688 -1331 1869 -1331 
Q 1566 -1331 1297 -1286 
Q 1028 -1241 775 -1147 
L 775 -588 
Q 1028 -725 1275 -790 
Q 1522 -856 1778 -856 
Q 2344 -856 2625 -561 
Q 2906 -266 2906 331 
L 2906 616 
Q 2728 306 2450 153 
Q 2172 0 1784 0 
Q 1141 0 747 490 
Q 353 981 353 1791 
Q 353 2603 747 3093 
Q 1141 3584 1784 3584 
Q 2172 3584 2450 3431 
Q 2728 3278 2906 2969 
L 2906 3500 
L 3481 3500 
L 3481 434 
z
" transform="scale(0.015625)"/>
       <path id="DejaVuSans-20" transform="scale(0.015625)"/>
       <path id="DejaVuSans-5b" d="M 550 4863 
L 1875 4863 
L 1875 4416 
L 1125 4416 
L 1125 -397 
L 1875 -397 
L 1875 -844 
L 550 -844 
L 550 4863 
z
" transform="scale(0.015625)"/>
       <path id="DejaVuSans-6e" d="M 3513 2113 
L 3513 0 
L 2938 0 
L 2938 2094 
Q 2938 2591 2744 2837 
Q 2550 3084 2163 3084 
Q 1697 3084 1428 2787 
Q 1159 2491 1159 1978 
L 1159 0 
L 581 0 
L 581 3500 
L 1159 3500 
L 1159 2956 
Q 1366 3272 1645 3428 
Q 1925 3584 2291 3584 
Q 2894 3584 3203 3211 
Q 3513 2838 3513 2113 
z
" transform="scale(0.015625)"/>
       <path id="DejaVuSans-73" d="M 2834 3397 
L 2834 2853 
Q 2591 2978 2328 3040 
Q 2066 3103 1784 3103 
Q 1356 3103 1142 2972 
Q 928 2841 928 2578 
Q 928 2378 1081 2264 
Q 1234 2150 1697 2047 
L 1894 2003 
Q 2506 1872 2764 1633 
Q 3022 1394 3022 966 
Q 3022 478 2636 193 
Q 2250 -91 1575 -91 
Q 1294 -91 989 -36 
Q 684 19 347 128 
L 347 722 
Q 666 556 975 473 
Q 1284 391 1588 391 
Q 1994 391 2212 530 
Q 2431 669 2431 922 
Q 2431 1156 2273 1281 
Q 2116 1406 1581 1522 
L 1381 1569 
Q 847 1681 609 1914 
Q 372 2147 372 2553 
Q 372 3047 722 3315 
Q 1072 3584 1716 3584 
Q 2034 3584 2315 3537 
Q 2597 3491 2834 3397 
z
" transform="scale(0.015625)"/>
       <path id="DejaVuSans-5d" d="M 1947 4863 
L 1947 -844 
L 622 -844 
L 622 -397 
L 1369 -397 
L 1369 4416 
L 622 4416 
L 622 4863 
L 1947 4863 
z
" transform="scale(0.015625)"/>
      </defs>
      <use xlink:href="#DejaVuSans-Oblique-3c4" transform="translate(0 0.015625)"/>
      <use xlink:href="#DejaVuSans-6c" transform="translate(60.205078 -16.390625) scale(0.7)"/>
      <use xlink:href="#DejaVuSans-61" transform="translate(79.65332 -16.390625) scale(0.7)"/>
      <use xlink:href="#DejaVuSans-67" transform="translate(122.548828 -16.390625) scale(0.7)"/>
      <use xlink:href="#DejaVuSans-20" transform="translate(169.716797 0.015625)"/>
      <use xlink:href="#DejaVuSans-5b" transform="translate(201.503906 0.015625)"/>
      <use xlink:href="#DejaVuSans-6e" transform="translate(240.517578 0.015625)"/>
      <use xlink:href="#DejaVuSans-73" transform="translate(303.896484 0.015625)"/>
      <use xlink:href="#DejaVuSans-5d" transform="translate(355.996094 0.015625)"/>
     </g>
    </g>
   </g>
   <g id="matplotlib.axis_2">
    <g id="ytick_1">
     <g id="line2d_13">
      <path d="M 46.4759 123.325772 
L 219.2759 123.325772 
" clip-path="url(#pc813430551)" style="fill: none; stroke-dasharray: 2.96,1.28; stroke-dashoffset: 0; stroke: #dddfe5; stroke-width: 0.8"/>
     </g>
     <g id="line2d_14">
      <defs>
       <path id="m8676d8f089" d="M 0 0 
L -3.5 0 
" style="stroke: #000000; stroke-width: 0.8"/>
      </defs>
      <g>
       <use xlink:href="#m8676d8f089" x="46.4759" y="123.325772" style="stroke: #000000; stroke-width: 0.8"/>
      </g>
     </g>
     <g id="text_8">
      <!-- $\mathdefault{0.00}$ -->
      <g transform="translate(20.9 126.490521) scale(0.0833 -0.0833)">
       <defs>
        <path id="DejaVuSans-2e" d="M 684 794 
L 1344 794 
L 1344 0 
L 684 0 
L 684 794 
z
" transform="scale(0.015625)"/>
       </defs>
       <use xlink:href="#DejaVuSans-30" transform="translate(0 0.78125)"/>
       <use xlink:href="#DejaVuSans-2e" transform="translate(63.623047 0.78125)"/>
       <use xlink:href="#DejaVuSans-30" transform="translate(95.410156 0.78125)"/>
       <use xlink:href="#DejaVuSans-30" transform="translate(159.033203 0.78125)"/>
      </g>
     </g>
    </g>
    <g id="ytick_2">
     <g id="line2d_15">
      <path d="M 46.4759 104.596312 
L 219.2759 104.596312 
" clip-path="url(#pc813430551)" style="fill: none; stroke-dasharray: 2.96,1.28; stroke-dashoffset: 0; stroke: #dddfe5; stroke-width: 0.8"/>
     </g>
     <g id="line2d_16">
      <g>
       <use xlink:href="#m8676d8f089" x="46.4759" y="104.596312" style="stroke: #000000; stroke-width: 0.8"/>
      </g>
     </g>
     <g id="text_9">
      <!-- $\mathdefault{0.25}$ -->
      <g transform="translate(21.3165 107.761061) scale(0.0833 -0.0833)">
       <use xlink:href="#DejaVuSans-30" transform="translate(0 0.78125)"/>
       <use xlink:href="#DejaVuSans-2e" transform="translate(63.623047 0.78125)"/>
       <use xlink:href="#DejaVuSans-32" transform="translate(89.910156 0.78125)"/>
       <use xlink:href="#DejaVuSans-35" transform="translate(153.533203 0.78125)"/>
      </g>
     </g>
    </g>
    <g id="ytick_3">
     <g id="line2d_17">
      <path d="M 46.4759 85.866853 
L 219.2759 85.866853 
" clip-path="url(#pc813430551)" style="fill: none; stroke-dasharray: 2.96,1.28; stroke-dashoffset: 0; stroke: #dddfe5; stroke-width: 0.8"/>
     </g>
     <g id="line2d_18">
      <g>
       <use xlink:href="#m8676d8f089" x="46.4759" y="85.866853" style="stroke: #000000; stroke-width: 0.8"/>
      </g>
     </g>
     <g id="text_10">
      <!-- $\mathdefault{0.50}$ -->
      <g transform="translate(20.9 89.031602) scale(0.0833 -0.0833)">
       <use xlink:href="#DejaVuSans-30" transform="translate(0 0.78125)"/>
       <use xlink:href="#DejaVuSans-2e" transform="translate(63.623047 0.78125)"/>
       <use xlink:href="#DejaVuSans-35" transform="translate(95.410156 0.78125)"/>
       <use xlink:href="#DejaVuSans-30" transform="translate(159.033203 0.78125)"/>
      </g>
     </g>
    </g>
    <g id="ytick_4">
     <g id="line2d_19">
      <path d="M 46.4759 67.137393 
L 219.2759 67.137393 
" clip-path="url(#pc813430551)" style="fill: none; stroke-dasharray: 2.96,1.28; stroke-dashoffset: 0; stroke: #dddfe5; stroke-width: 0.8"/>
     </g>
     <g id="line2d_20">
      <g>
       <use xlink:href="#m8676d8f089" x="46.4759" y="67.137393" style="stroke: #000000; stroke-width: 0.8"/>
      </g>
     </g>
     <g id="text_11">
      <!-- $\mathdefault{0.75}$ -->
      <g transform="translate(21.5664 70.302142) scale(0.0833 -0.0833)">
       <defs>
        <path id="DejaVuSans-37" d="M 525 4666 
L 3525 4666 
L 3525 4397 
L 1831 0 
L 1172 0 
L 2766 4134 
L 525 4134 
L 525 4666 
z
" transform="scale(0.015625)"/>
       </defs>
       <use xlink:href="#DejaVuSans-30" transform="translate(0 0.78125)"/>
       <use xlink:href="#DejaVuSans-2e" transform="translate(63.623047 0.78125)"/>
       <use xlink:href="#DejaVuSans-37" transform="translate(87.660156 0.78125)"/>
       <use xlink:href="#DejaVuSans-35" transform="translate(151.283203 0.78125)"/>
      </g>
     </g>
    </g>
    <g id="ytick_5">
     <g id="line2d_21">
      <path d="M 46.4759 48.407933 
L 219.2759 48.407933 
" clip-path="url(#pc813430551)" style="fill: none; stroke-dasharray: 2.96,1.28; stroke-dashoffset: 0; stroke: #dddfe5; stroke-width: 0.8"/>
     </g>
     <g id="line2d_22">
      <g>
       <use xlink:href="#m8676d8f089" x="46.4759" y="48.407933" style="stroke: #000000; stroke-width: 0.8"/>
      </g>
     </g>
     <g id="text_12">
      <!-- $\mathdefault{1.00}$ -->
      <g transform="translate(20.9 51.572683) scale(0.0833 -0.0833)">
       <use xlink:href="#DejaVuSans-31" transform="translate(0 0.78125)"/>
       <use xlink:href="#DejaVuSans-2e" transform="translate(63.623047 0.78125)"/>
       <use xlink:href="#DejaVuSans-30" transform="translate(95.410156 0.78125)"/>
       <use xlink:href="#DejaVuSans-30" transform="translate(159.033203 0.78125)"/>
      </g>
     </g>
    </g>
    <g id="ytick_6">
     <g id="line2d_23">
      <path d="M 46.4759 29.678474 
L 219.2759 29.678474 
" clip-path="url(#pc813430551)" style="fill: none; stroke-dasharray: 2.96,1.28; stroke-dashoffset: 0; stroke: #dddfe5; stroke-width: 0.8"/>
     </g>
     <g id="line2d_24">
      <g>
       <use xlink:href="#m8676d8f089" x="46.4759" y="29.678474" style="stroke: #000000; stroke-width: 0.8"/>
      </g>
     </g>
     <g id="text_13">
      <!-- $\mathdefault{1.25}$ -->
      <g transform="translate(21.3165 32.843223) scale(0.0833 -0.0833)">
       <use xlink:href="#DejaVuSans-31" transform="translate(0 0.78125)"/>
       <use xlink:href="#DejaVuSans-2e" transform="translate(63.623047 0.78125)"/>
       <use xlink:href="#DejaVuSans-32" transform="translate(89.910156 0.78125)"/>
       <use xlink:href="#DejaVuSans-35" transform="translate(153.533203 0.78125)"/>
      </g>
     </g>
    </g>
    <g id="text_14">
     <!-- probability $P$ -->
     <g transform="translate(14.8 101.327635) rotate(-90) scale(0.1 -0.1)">
      <defs>
       <path id="DejaVuSans-70" d="M 1159 525 
L 1159 -1331 
L 581 -1331 
L 581 3500 
L 1159 3500 
L 1159 2969 
Q 1341 3281 1617 3432 
Q 1894 3584 2278 3584 
Q 2916 3584 3314 3078 
Q 3713 2572 3713 1747 
Q 3713 922 3314 415 
Q 2916 -91 2278 -91 
Q 1894 -91 1617 61 
Q 1341 213 1159 525 
z
M 3116 1747 
Q 3116 2381 2855 2742 
Q 2594 3103 2138 3103 
Q 1681 3103 1420 2742 
Q 1159 2381 1159 1747 
Q 1159 1113 1420 752 
Q 1681 391 2138 391 
Q 2594 391 2855 752 
Q 3116 1113 3116 1747 
z
" transform="scale(0.015625)"/>
       <path id="DejaVuSans-72" d="M 2631 2963 
Q 2534 3019 2420 3045 
Q 2306 3072 2169 3072 
Q 1681 3072 1420 2755 
Q 1159 2438 1159 1844 
L 1159 0 
L 581 0 
L 581 3500 
L 1159 3500 
L 1159 2956 
Q 1341 3275 1631 3429 
Q 1922 3584 2338 3584 
Q 2397 3584 2469 3576 
Q 2541 3569 2628 3553 
L 2631 2963 
z
" transform="scale(0.015625)"/>
       <path id="DejaVuSans-6f" d="M 1959 3097 
Q 1497 3097 1228 2736 
Q 959 2375 959 1747 
Q 959 1119 1226 758 
Q 1494 397 1959 397 
Q 2419 397 2687 759 
Q 2956 1122 2956 1747 
Q 2956 2369 2687 2733 
Q 2419 3097 1959 3097 
z
M 1959 3584 
Q 2709 3584 3137 3096 
Q 3566 2609 3566 1747 
Q 3566 888 3137 398 
Q 2709 -91 1959 -91 
Q 1206 -91 779 398 
Q 353 888 353 1747 
Q 353 2609 779 3096 
Q 1206 3584 1959 3584 
z
" transform="scale(0.015625)"/>
       <path id="DejaVuSans-62" d="M 3116 1747 
Q 3116 2381 2855 2742 
Q 2594 3103 2138 3103 
Q 1681 3103 1420 2742 
Q 1159 2381 1159 1747 
Q 1159 1113 1420 752 
Q 1681 391 2138 391 
Q 2594 391 2855 752 
Q 3116 1113 3116 1747 
z
M 1159 2969 
Q 1341 3281 1617 3432 
Q 1894 3584 2278 3584 
Q 2916 3584 3314 3078 
Q 3713 2572 3713 1747 
Q 3713 922 3314 415 
Q 2916 -91 2278 -91 
Q 1894 -91 1617 61 
Q 1341 213 1159 525 
L 1159 0 
L 581 0 
L 581 4863 
L 1159 4863 
L 1159 2969 
z
" transform="scale(0.015625)"/>
       <path id="DejaVuSans-69" d="M 603 3500 
L 1178 3500 
L 1178 0 
L 603 0 
L 603 3500 
z
M 603 4863 
L 1178 4863 
L 1178 4134 
L 603 4134 
L 603 4863 
z
" transform="scale(0.015625)"/>
       <path id="DejaVuSans-74" d="M 1172 4494 
L 1172 3500 
L 2356 3500 
L 2356 3053 
L 1172 3053 
L 1172 1153 
Q 1172 725 1289 603 
Q 1406 481 1766 481 
L 2356 481 
L 2356 0 
L 1766 0 
Q 1100 0 847 248 
Q 594 497 594 1153 
L 594 3053 
L 172 3053 
L 172 3500 
L 594 3500 
L 594 4494 
L 1172 4494 
z
" transform="scale(0.015625)"/>
       <path id="DejaVuSans-79" d="M 2059 -325 
Q 1816 -950 1584 -1140 
Q 1353 -1331 966 -1331 
L 506 -1331 
L 506 -850 
L 844 -850 
Q 1081 -850 1212 -737 
Q 1344 -625 1503 -206 
L 1606 56 
L 191 3500 
L 800 3500 
L 1894 763 
L 2988 3500 
L 3597 3500 
L 2059 -325 
z
" transform="scale(0.015625)"/>
       <path id="DejaVuSans-Oblique-50" d="M 1081 4666 
L 2541 4666 
Q 3178 4666 3512 4369 
Q 3847 4072 3847 3500 
Q 3847 2731 3353 2303 
Q 2859 1875 1966 1875 
L 1172 1875 
L 806 0 
L 172 0 
L 1081 4666 
z
M 1613 4147 
L 1275 2394 
L 2069 2394 
Q 2606 2394 2893 2669 
Q 3181 2944 3181 3456 
Q 3181 3784 2986 3965 
Q 2791 4147 2438 4147 
L 1613 4147 
z
" transform="scale(0.015625)"/>
      </defs>
      <use xlink:href="#DejaVuSans-70" transform="translate(0 0.015625)"/>
      <use xlink:href="#DejaVuSans-72" transform="translate(63.476562 0.015625)"/>
      <use xlink:href="#DejaVuSans-6f" transform="translate(104.589844 0.015625)"/>
      <use xlink:href="#DejaVuSans-62" transform="translate(165.771484 0.015625)"/>
      <use xlink:href="#DejaVuSans-61" transform="translate(229.248047 0.015625)"/>
      <use xlink:href="#DejaVuSans-62" transform="translate(290.527344 0.015625)"/>
      <use xlink:href="#DejaVuSans-69" transform="translate(354.003906 0.015625)"/>
      <use xlink:href="#DejaVuSans-6c" transform="translate(381.787109 0.015625)"/>
      <use xlink:href="#DejaVuSans-69" transform="translate(409.570312 0.015625)"/>
      <use xlink:href="#DejaVuSans-74" transform="translate(437.353516 0.015625)"/>
      <use xlink:href="#DejaVuSans-79" transform="translate(476.5625 0.015625)"/>
      <use xlink:href="#DejaVuSans-20" transform="translate(535.742188 0.015625)"/>
      <use xlink:href="#DejaVuSans-Oblique-50" transform="translate(567.529297 0.015625)"/>
     </g>
    </g>
    <g id="text_15">
     <!-- $\times\mathdefault{10^{−4}}\mathdefault{}$ -->
     <g transform="translate(19.9865 13.529498) scale(0.0833 -0.0833)">
      <defs>
       <path id="DejaVuSans-d7" d="M 4488 3438 
L 3059 2003 
L 4488 575 
L 4116 197 
L 2681 1631 
L 1247 197 
L 878 575 
L 2303 2003 
L 878 3438 
L 1247 3816 
L 2681 2381 
L 4116 3816 
L 4488 3438 
z
" transform="scale(0.015625)"/>
       <path id="DejaVuSans-2212" d="M 678 2272 
L 4684 2272 
L 4684 1741 
L 678 1741 
L 678 2272 
z
" transform="scale(0.015625)"/>
       <path id="DejaVuSans-34" d="M 2419 4116 
L 825 1625 
L 2419 1625 
L 2419 4116 
z
M 2253 4666 
L 3047 4666 
L 3047 1625 
L 3713 1625 
L 3713 1100 
L 3047 1100 
L 3047 0 
L 2419 0 
L 2419 1100 
L 313 1100 
L 313 1709 
L 2253 4666 
z
" transform="scale(0.015625)"/>
      </defs>
      <use xlink:href="#DejaVuSans-d7" transform="translate(0 0.684375)"/>
      <use xlink:href="#DejaVuSans-31" transform="translate(83.789062 0.684375)"/>
      <use xlink:href="#DejaVuSans-30" transform="translate(147.412109 0.684375)"/>
      <use xlink:href="#DejaVuSans-2212" transform="translate(211.992188 38.965625) scale(0.7)"/>
      <use xlink:href="#DejaVuSans-34" transform="translate(270.644531 38.965625) scale(0.7)"/>
     </g>
    </g>
   </g>
   <g id="patch_3">
    <path d="M 54.330445 123.325772 
L 54.330445 31.226886 
L 55.571564 31.226886 
L 55.571564 54.251608 
L 56.812683 54.251608 
L 56.812683 100.30105 
L 58.053802 100.30105 
L 58.053802 54.251608 
L 59.294921 54.251608 
L 59.294921 100.30105 
L 60.53604 100.30105 
L 60.53604 123.325772 
L 61.777159 123.325772 
L 61.777159 77.276329 
L 63.018278 77.276329 
L 63.018278 123.325772 
L 64.259397 123.325772 
L 64.259397 123.325772 
L 65.500515 123.325772 
L 65.500515 54.251608 
L 66.741634 54.251608 
L 66.741634 100.30105 
L 67.982753 100.30105 
L 67.982753 123.325772 
L 69.223872 123.325772 
L 69.223872 77.276329 
L 70.464991 77.276329 
L 70.464991 100.30105 
L 71.70611 100.30105 
L 71.70611 100.30105 
L 72.947229 100.30105 
L 72.947229 77.276329 
L 74.188348 77.276329 
L 74.188348 100.30105 
L 75.429466 100.30105 
L 75.429466 100.30105 
L 76.670585 100.30105 
L 76.670585 123.325772 
L 77.911704 123.325772 
L 77.911704 100.30105 
L 79.152823 100.30105 
L 79.152823 123.325772 
L 80.393942 123.325772 
L 80.393942 100.30105 
L 81.635061 100.30105 
L 81.635061 100.30105 
L 82.87618 100.30105 
L 82.87618 100.30105 
L 84.117299 100.30105 
L 84.117299 100.30105 
L 85.358417 100.30105 
L 85.358417 123.325772 
L 86.599536 123.325772 
L 86.599536 123.325772 
L 87.840655 123.325772 
L 87.840655 123.325772 
L 89.081774 123.325772 
L 89.081774 123.325772 
L 90.322893 123.325772 
L 90.322893 123.325772 
L 91.564012 123.325772 
L 91.564012 123.325772 
L 92.805131 123.325772 
L 92.805131 123.325772 
L 94.04625 123.325772 
L 94.04625 123.325772 
L 95.287369 123.325772 
L 95.287369 100.30105 
L 96.528487 100.30105 
L 96.528487 123.325772 
L 97.769606 123.325772 
L 97.769606 123.325772 
L 99.010725 123.325772 
L 99.010725 123.325772 
L 100.251844 123.325772 
L 100.251844 123.325772 
L 101.492963 123.325772 
L 101.492963 123.325772 
L 102.734082 123.325772 
L 102.734082 123.325772 
L 103.975201 123.325772 
L 103.975201 123.325772 
L 105.21632 123.325772 
L 105.21632 123.325772 
L 106.457438 123.325772 
L 106.457438 123.325772 
L 107.698557 123.325772 
L 107.698557 123.325772 
L 108.939676 123.325772 
L 108.939676 123.325772 
L 110.180795 123.325772 
L 110.180795 123.325772 
L 111.421914 123.325772 
L 111.421914 123.325772 
L 112.663033 123.325772 
L 112.663033 100.30105 
L 113.904152 100.30105 
L 113.904152 123.325772 
L 115.145271 123.325772 
L 115.145271 123.325772 
" clip-path="url(#pc813430551)"/>
   </g>
   <g id="patch_4">
    <path d="M 54.330445 123.325772 
L 54.393383 123.325772 
L 54.582194 90.529537 
L 54.645131 90.529537 
L 54.833942 63.034418 
L 54.896879 63.034418 
L 55.08569 44.162447 
L 55.148627 44.162447 
L 55.337438 31.227725 
L 55.400376 31.227725 
L 55.400376 34.903165 
L 55.589187 25.50252 
L 55.652124 25.50252 
L 55.652124 23.099348 
L 55.777998 25.643883 
L 55.840935 24.371615 
L 55.903872 24.371615 
L 56.029746 23.311392 
L 56.092683 24.512978 
L 56.15562 24.512978 
L 56.281494 21.615035 
L 56.344431 28.2591 
L 56.407369 28.2591 
L 56.470306 21.968443 
L 56.59618 23.6648 
L 56.659117 23.6648 
L 56.722054 30.238183 
L 56.847928 26.492062 
L 56.910865 26.492062 
L 57.099676 30.591591 
L 57.162613 30.591591 
L 57.22555 29.248642 
L 57.288487 35.044528 
L 57.351424 32.287948 
L 57.414362 32.287948 
L 57.414362 28.965915 
L 57.603173 38.013153 
L 57.66611 38.013153 
L 57.66611 39.497465 
L 57.729047 35.044528 
L 57.854921 36.599522 
L 57.917858 36.599522 
L 58.043732 43.455631 
L 58.106669 42.324727 
L 58.169606 42.324727 
L 58.169606 41.335185 
L 58.358417 48.756747 
L 58.421355 48.756747 
L 58.421355 42.254045 
L 58.610166 45.858804 
L 58.673103 45.858804 
L 58.73604 45.434714 
L 58.861914 51.018556 
L 58.924851 51.018556 
L 59.050725 50.099696 
L 59.113662 52.290824 
L 59.176599 52.290824 
L 59.176599 50.099696 
L 59.239536 55.612856 
L 59.36541 51.301282 
L 59.428348 51.301282 
L 59.617159 55.400812 
L 59.680096 55.400812 
L 59.680096 59.92443 
L 59.868907 58.793525 
L 59.931844 58.793525 
L 60.120655 65.366909 
L 60.183592 65.366909 
L 60.183592 55.966264 
L 60.372403 60.701927 
L 60.435341 60.701927 
L 60.435341 59.571022 
L 60.561215 66.215087 
L 60.624152 64.660093 
L 60.687089 64.660093 
L 60.812963 66.851221 
L 60.750026 62.893055 
L 60.8759 65.861679 
L 60.938837 65.861679 
L 60.938837 68.547578 
L 61.127648 66.285769 
L 61.190585 66.285769 
L 61.316459 72.223018 
L 61.379397 68.547578 
L 61.442334 68.547578 
L 61.505271 71.445521 
L 61.631145 71.092113 
L 61.757019 71.233477 
L 61.819956 76.675955 
L 61.94583 75.96914 
L 62.008767 75.96914 
L 62.071704 72.576426 
L 62.197578 74.696872 
L 62.323452 74.555509 
L 62.323452 78.442994 
L 62.512264 77.524134 
L 62.575201 77.524134 
L 62.575201 74.414146 
L 62.638138 78.230949 
L 62.764012 78.160267 
L 62.826949 78.160267 
L 63.01576 80.492758 
L 63.078697 80.492758 
L 63.078697 78.301631 
L 63.267508 84.168198 
L 63.330445 84.168198 
L 63.45632 79.64458 
L 63.393383 84.733651 
L 63.519257 83.532065 
L 63.645131 83.532065 
L 63.771005 84.592288 
L 63.708068 83.249338 
L 63.833942 83.673428 
L 63.896879 83.673428 
L 63.959816 88.550454 
L 64.022753 81.623663 
L 64.08569 83.178657 
L 64.148627 83.178657 
L 64.274501 88.267728 
L 64.337438 84.945695 
L 64.463313 85.016377 
L 64.652124 89.822722 
L 64.715061 89.822722 
L 64.715061 89.257269 
L 64.903872 91.377715 
L 64.966809 91.377715 
L 64.966809 87.348868 
L 65.092683 94.063614 
L 65.15562 87.985002 
L 65.218557 87.985002 
L 65.281494 91.58976 
L 65.407369 88.974543 
L 65.470306 88.974543 
L 65.59618 94.487703 
L 65.659117 92.720665 
L 65.722054 92.720665 
L 65.784991 95.335882 
L 65.910865 93.215436 
L 65.973802 93.215436 
L 66.162613 97.314965 
L 66.22555 97.314965 
L 66.351424 93.498162 
L 66.414362 94.629066 
L 66.477299 94.629066 
L 66.66611 98.304506 
L 66.729047 98.304506 
L 66.791984 96.113379 
L 66.917858 97.951099 
L 67.043732 98.092462 
L 67.043732 97.173602 
L 67.232543 99.788819 
L 67.29548 99.788819 
L 67.29548 98.304506 
L 67.484292 101.69722 
L 67.547229 101.69722 
L 67.610166 97.739054 
L 67.73604 99.788819 
L 67.798977 99.788819 
L 67.798977 99.435411 
L 67.861914 102.050628 
L 67.987788 101.20245 
L 68.050725 101.20245 
L 68.050725 103.322896 
L 68.239536 100.566316 
L 68.302473 100.566316 
L 68.491285 103.746985 
L 68.554222 103.746985 
L 68.554222 104.948571 
L 68.680096 100.849042 
L 68.743033 102.828125 
L 68.80597 102.828125 
L 68.80597 102.12131 
L 68.868907 104.241756 
L 68.994781 102.262673 
L 69.057718 102.262673 
L 69.246529 106.71561 
L 69.309466 106.71561 
L 69.309466 104.383119 
L 69.498278 104.948571 
L 69.561215 104.948571 
L 69.624152 105.79675 
L 69.750026 103.888348 
L 69.812963 103.888348 
L 69.812963 107.351744 
L 69.8759 103.676304 
L 70.001774 106.503565 
L 70.064711 106.503565 
L 70.127648 105.443342 
L 70.190585 107.846514 
L 70.253522 106.786291 
L 70.316459 106.786291 
L 70.316459 105.443342 
L 70.379397 107.917196 
L 70.505271 107.422425 
L 70.568208 107.422425 
L 70.568208 106.644928 
L 70.694082 108.129241 
L 70.757019 107.987877 
L 70.819956 107.987877 
L 70.94583 107.281062 
L 71.008767 110.532413 
L 71.071704 110.532413 
L 71.197578 107.493107 
L 71.260515 108.694693 
L 71.323452 108.694693 
L 71.449327 107.775833 
L 71.512264 108.765374 
L 71.638138 108.694693 
L 71.638138 110.179005 
L 71.826949 109.189464 
L 71.889886 109.189464 
L 72.01576 108.411967 
L 72.078697 110.461731 
L 72.141634 110.461731 
L 72.141634 110.108324 
L 72.204571 110.956502 
L 72.330445 110.956502 
L 72.45632 111.097865 
L 72.45632 110.108324 
L 72.645131 111.451273 
L 72.708068 111.451273 
L 72.708068 111.875362 
L 72.833942 110.320368 
L 72.896879 110.885821 
L 73.022753 110.744458 
L 73.08569 112.935585 
L 73.148627 109.966961 
L 73.211564 112.440814 
L 73.274501 112.440814 
L 73.274501 110.673776 
L 73.337438 112.794222 
L 73.463313 112.299451 
L 73.52625 112.299451 
L 73.652124 112.440814 
L 73.715061 111.027184 
L 73.777998 111.027184 
L 73.903872 114.490579 
L 73.966809 111.663318 
L 74.029746 111.663318 
L 74.15562 113.642401 
L 74.218557 112.016725 
L 74.281494 112.016725 
L 74.407369 113.006267 
L 74.344431 111.521954 
L 74.470306 111.663318 
L 74.533243 111.663318 
L 74.722054 114.98535 
L 74.784991 114.98535 
L 74.910865 113.783764 
L 74.973802 114.137171 
L 75.036739 114.137171 
L 75.036739 113.006267 
L 75.162613 114.843987 
L 75.22555 114.207853 
L 75.288487 114.207853 
L 75.288487 115.974892 
L 75.477299 113.783764 
L 75.540236 113.783764 
L 75.540236 113.501038 
L 75.603173 114.702624 
L 75.729047 114.490579 
L 75.791984 114.490579 
L 75.854921 116.045573 
L 75.980795 115.762847 
L 76.043732 115.762847 
L 76.106669 114.843987 
L 76.232543 115.692165 
L 76.29548 115.692165 
L 76.358417 114.06649 
L 76.484292 114.914668 
L 76.547229 114.914668 
L 76.73604 116.328299 
L 76.798977 116.328299 
L 76.798977 117.388522 
L 76.924851 115.90421 
L 76.987788 116.540344 
L 77.050725 116.540344 
L 77.050725 115.762847 
L 77.113662 117.317841 
L 77.239536 116.681707 
L 77.302473 116.681707 
L 77.302473 117.74193 
L 77.491285 115.974892 
L 77.554222 115.974892 
L 77.554222 117.883293 
L 77.617159 114.278535 
L 77.743033 116.469662 
L 77.80597 116.469662 
L 77.80597 117.953975 
L 77.994781 117.388522 
L 78.057718 117.388522 
L 78.183592 116.752388 
L 78.246529 117.035115 
L 78.309466 117.035115 
L 78.309466 118.024656 
L 78.498278 117.812612 
L 78.561215 117.812612 
L 78.687089 117.035115 
L 78.750026 117.317841 
L 78.812963 117.317841 
L 78.812963 118.872835 
L 79.001774 116.398981 
L 79.064711 116.398981 
L 79.253522 118.66079 
L 79.316459 118.66079 
L 79.316459 117.883293 
L 79.505271 118.166019 
L 79.568208 118.166019 
L 79.568208 116.964433 
L 79.757019 118.519427 
L 79.819956 118.519427 
L 79.94583 119.226242 
L 79.882893 118.166019 
L 80.008767 118.519427 
L 80.071704 118.519427 
L 80.197578 117.671248 
L 80.260515 120.003739 
L 80.323452 120.003739 
L 80.38639 118.590108 
L 80.512264 119.791695 
L 80.575201 119.791695 
L 80.638138 117.883293 
L 80.764012 118.166019 
L 80.889886 118.095338 
L 80.952823 119.650332 
L 81.078697 118.872835 
L 81.141634 118.872835 
L 81.141634 120.074421 
L 81.204571 118.590108 
L 81.330445 118.943516 
L 81.519257 119.084879 
L 81.645131 119.57965 
L 81.708068 119.508969 
L 81.771005 119.508969 
L 81.771005 120.215784 
L 81.959816 118.802153 
L 82.022753 118.802153 
L 82.08569 120.357147 
L 82.211564 119.791695 
L 82.274501 119.791695 
L 82.337438 119.226242 
L 82.463313 121.063962 
L 82.52625 121.063962 
L 82.52625 119.57965 
L 82.715061 120.003739 
L 82.840935 119.862376 
L 82.903872 119.650332 
L 83.029746 120.710555 
L 83.092683 120.710555 
L 83.218557 119.650332 
L 83.15562 120.781236 
L 83.281494 120.215784 
L 83.407369 120.215784 
L 83.407369 120.781236 
L 83.59618 119.791695 
L 83.659117 119.791695 
L 83.784991 120.851918 
L 83.847928 120.569192 
L 83.910865 120.569192 
L 83.973802 119.57965 
L 84.099676 120.710555 
L 84.162613 120.710555 
L 84.22555 119.933058 
L 84.351424 120.427829 
L 84.477299 120.357147 
L 84.603173 120.922599 
L 84.540236 120.074421 
L 84.66611 120.781236 
L 84.729047 120.781236 
L 84.854921 121.276007 
L 84.917858 121.134644 
L 84.980795 121.134644 
L 84.980795 120.49851 
L 85.169606 121.770778 
L 85.29548 121.700096 
L 85.358417 120.569192 
L 85.484292 121.346689 
L 85.610166 121.346689 
L 85.73604 120.710555 
L 85.798977 121.41737 
L 85.861914 121.41737 
L 85.924851 121.912141 
L 86.050725 120.49851 
L 86.113662 120.49851 
L 86.113662 121.41737 
L 86.302473 121.276007 
L 86.36541 121.276007 
L 86.36541 121.629415 
L 86.428348 120.922599 
L 86.554222 121.629415 
L 86.617159 121.629415 
L 86.617159 120.993281 
L 86.80597 121.841459 
L 86.868907 121.841459 
L 86.994781 120.851918 
L 87.057718 121.700096 
L 87.120655 121.700096 
L 87.120655 120.781236 
L 87.309466 121.982822 
L 87.498278 122.124186 
L 87.561215 120.851918 
L 87.687089 121.346689 
L 87.812963 121.276007 
L 87.812963 122.194867 
L 87.938837 120.781236 
L 88.001774 121.346689 
L 88.064711 121.346689 
L 88.253522 122.124186 
L 88.379397 121.982822 
L 88.442334 121.558733 
L 88.568208 122.194867 
L 88.631145 122.194867 
L 88.631145 121.41737 
L 88.694082 122.33623 
L 88.819956 121.629415 
L 88.882893 121.629415 
L 89.008767 122.406912 
L 89.071704 121.558733 
L 89.134641 121.558733 
L 89.134641 121.912141 
L 89.323452 121.629415 
L 89.449327 121.629415 
L 89.449327 122.265549 
L 89.638138 121.770778 
L 89.701075 121.770778 
L 89.889886 122.477593 
L 89.952823 122.477593 
L 89.952823 121.629415 
L 90.141634 122.124186 
L 90.204571 122.124186 
L 90.204571 122.831001 
L 90.267508 121.488052 
L 90.393383 122.689638 
L 90.45632 122.689638 
L 90.45632 121.629415 
L 90.645131 121.770778 
L 90.771005 121.700096 
L 90.959816 122.618956 
L 91.08569 122.618956 
L 91.148627 122.760319 
L 91.274501 121.982822 
L 91.52625 122.053504 
L 91.589187 121.912141 
L 91.715061 122.548275 
L 91.777998 122.548275 
L 91.840935 121.770778 
L 91.966809 122.477593 
L 92.029746 122.477593 
L 92.029746 122.053504 
L 92.218557 122.548275 
L 92.344431 122.406912 
L 92.407369 122.053504 
L 92.533243 122.053504 
L 92.59618 122.053504 
L 92.59618 121.700096 
L 92.659117 122.689638 
L 92.784991 121.912141 
L 92.847928 121.912141 
L 93.036739 122.618956 
L 93.162613 122.477593 
L 93.162613 122.33623 
L 93.288487 122.618956 
L 93.351424 122.477593 
L 93.477299 122.406912 
L 93.540236 122.124186 
L 93.66611 122.689638 
L 93.854921 122.689638 
L 93.854921 122.053504 
L 94.043732 122.548275 
L 94.232543 122.548275 
L 94.232543 122.901682 
L 94.358417 122.406912 
L 94.421355 122.831001 
L 94.484292 122.831001 
L 94.610166 121.770778 
L 94.673103 121.982822 
L 94.73604 121.982822 
L 94.798977 122.901682 
L 94.924851 122.689638 
L 95.050725 122.548275 
L 95.050725 123.113727 
L 95.239536 123.043046 
L 95.302473 123.043046 
L 95.428348 122.477593 
L 95.491285 123.043046 
L 95.554222 123.043046 
L 95.554222 122.406912 
L 95.743033 122.689638 
L 95.80597 122.689638 
L 95.80597 122.477593 
L 95.868907 122.901682 
L 95.994781 122.760319 
L 96.120655 122.831001 
L 96.120655 122.548275 
L 96.309466 122.972364 
L 96.435341 122.831001 
L 96.498278 122.477593 
L 96.561215 122.901682 
L 96.624152 122.689638 
L 96.750026 122.618956 
L 96.750026 122.477593 
L 96.8759 122.972364 
L 96.938837 122.901682 
L 97.127648 123.043046 
L 97.127648 122.548275 
L 97.316459 122.548275 
L 97.379397 122.548275 
L 97.379397 123.043046 
L 97.568208 123.043046 
L 97.631145 123.043046 
L 97.631145 122.760319 
L 97.757019 123.184409 
L 97.819956 123.113727 
L 98.008767 122.972364 
L 98.134641 122.548275 
L 98.197578 122.972364 
L 98.638138 122.972364 
L 98.638138 122.689638 
L 98.701075 123.043046 
L 98.826949 122.901682 
L 98.889886 122.901682 
L 98.889886 123.25509 
L 99.078697 122.831001 
L 99.204571 122.901682 
L 99.204571 123.043046 
L 99.393383 122.831001 
L 99.771005 122.972364 
L 99.771005 123.25509 
L 99.896879 122.901682 
L 99.959816 123.043046 
L 100.211564 123.113727 
L 100.274501 122.760319 
L 100.400376 122.972364 
L 100.652124 123.113727 
L 100.652124 123.184409 
L 100.715061 122.901682 
L 100.840935 123.043046 
L 101.092683 123.043046 
L 101.092683 122.760319 
L 101.281494 123.184409 
L 101.533243 123.043046 
L 101.659117 122.831001 
L 101.722054 123.184409 
L 101.847928 123.113727 
L 101.847928 122.831001 
L 102.036739 122.972364 
L 102.162613 122.972364 
L 102.351424 123.325772 
L 102.477299 123.25509 
L 102.477299 122.901682 
L 102.66611 123.043046 
L 102.917858 122.972364 
L 102.917858 123.325772 
L 103.106669 123.184409 
L 103.29548 123.043046 
L 103.29548 122.831001 
L 103.421355 123.25509 
L 103.484292 123.184409 
L 103.73604 123.25509 
L 103.73604 122.972364 
L 103.924851 123.043046 
L 104.428348 123.184409 
L 104.428348 123.25509 
L 104.554222 122.972364 
L 104.617159 123.043046 
L 104.680096 123.043046 
L 104.680096 123.25509 
L 104.80597 122.760319 
L 104.868907 122.972364 
L 104.931844 122.972364 
L 104.931844 123.184409 
L 105.120655 123.184409 
L 105.309466 123.043046 
L 105.309466 122.901682 
L 105.372403 123.184409 
L 105.498278 123.113727 
L 105.8759 123.25509 
L 105.8759 123.325772 
L 105.938837 123.184409 
L 106.064711 123.325772 
L 106.190585 123.25509 
L 106.190585 123.113727 
L 106.379397 123.184409 
L 106.505271 123.113727 
L 106.505271 122.972364 
L 106.631145 123.184409 
L 106.694082 123.184409 
L 106.94583 123.325772 
L 106.94583 122.972364 
L 107.134641 123.184409 
L 107.575201 123.113727 
L 107.575201 122.901682 
L 107.638138 123.325772 
L 107.764012 123.113727 
L 107.889886 123.25509 
L 107.889886 123.325772 
L 108.078697 122.972364 
L 108.141634 122.972364 
L 108.204571 123.25509 
L 108.330445 123.25509 
L 108.708068 123.25509 
L 108.708068 122.972364 
L 108.896879 123.113727 
L 109.211564 123.113727 
L 109.211564 123.325772 
L 109.400376 123.25509 
L 110.533243 123.25509 
L 110.533243 123.043046 
L 110.722054 123.184409 
L 143.638138 123.25509 
L 143.638138 123.325772 
" clip-path="url(#pc813430551)" style="fill: none; stroke: #264653; stroke-linejoin: miter"/>
   </g>
   <g id="patch_5">
    <path d="M 54.330445 123.325772 
L 54.45632 123.325772 
L 54.582194 107.272031 
L 54.708068 107.272031 
L 54.833942 88.778303 
L 54.959816 88.778303 
L 55.08569 75.55221 
L 55.211564 75.55221 
L 55.337438 67.320107 
L 55.463313 67.320107 
L 55.589187 54.96055 
L 55.715061 54.96055 
L 55.840935 50.445436 
L 55.966809 50.445436 
L 56.092683 47.412556 
L 56.218557 47.412556 
L 56.344431 43.581549 
L 56.470306 43.581549 
L 56.59618 47.868628 
L 56.722054 47.868628 
L 56.847928 43.877996 
L 56.973802 43.877996 
L 56.973802 47.435359 
L 57.099676 47.116109 
L 57.22555 47.116109 
L 57.22555 44.790141 
L 57.351424 48.757969 
L 57.477299 48.757969 
L 57.477299 45.725089 
L 57.603173 47.389752 
L 57.729047 47.389752 
L 57.854921 49.100023 
L 57.980795 49.100023 
L 58.106669 50.468239 
L 58.106669 50.240203 
L 58.232543 50.240203 
L 58.358417 55.028961 
L 58.484292 55.028961 
L 58.484292 52.224117 
L 58.610166 54.208031 
L 58.73604 54.208031 
L 58.861914 55.279801 
L 58.987788 55.279801 
L 58.987788 57.058483 
L 59.113662 56.716428 
L 59.239536 56.716428 
L 59.36541 58.791557 
L 59.491285 58.791557 
L 59.491285 57.788198 
L 59.617159 61.094721 
L 59.743033 61.094721 
L 59.868907 60.752667 
L 59.868907 61.071918 
L 59.994781 61.071918 
L 60.120655 63.375082 
L 60.246529 63.375082 
L 60.372403 65.63264 
L 60.498278 65.63264 
L 60.624152 67.730572 
L 60.750026 67.730572 
L 60.750026 69.075985 
L 60.8759 68.756734 
L 61.001774 68.756734 
L 61.127648 70.124951 
L 61.253522 70.124951 
L 61.253522 69.760093 
L 61.379397 69.874111 
L 61.505271 69.874111 
L 61.505271 73.135027 
L 61.631145 72.633348 
L 61.757019 72.633348 
L 61.757019 74.640065 
L 61.882893 73.431474 
L 62.008767 73.431474 
L 62.134641 76.646783 
L 62.260515 76.646783 
L 62.38639 74.776887 
L 62.512264 74.776887 
L 62.638138 79.063966 
L 62.764012 79.063966 
L 62.764012 77.832571 
L 62.889886 80.363771 
L 63.01576 80.363771 
L 63.141634 81.458345 
L 63.267508 81.458345 
L 63.267508 80.911058 
L 63.393383 81.982828 
L 63.519257 81.982828 
L 63.519257 83.214223 
L 63.645131 82.552918 
L 63.771005 82.552918 
L 63.896879 83.533473 
L 64.022753 83.533473 
L 64.148627 82.894972 
L 64.274501 82.894972 
L 64.400376 85.015708 
L 64.52625 85.015708 
L 64.52625 86.338317 
L 64.652124 84.924493 
L 64.777998 84.924493 
L 64.777998 84.263189 
L 64.903872 87.660926 
L 65.029746 87.660926 
L 65.15562 86.954015 
L 65.281494 86.954015 
L 65.281494 89.57643 
L 65.407369 88.139802 
L 65.533243 88.139802 
L 65.659117 90.944646 
L 65.784991 90.944646 
L 65.784991 92.10763 
L 65.910865 91.2867 
L 66.036739 91.2867 
L 66.036739 92.335666 
L 66.162613 91.400718 
L 66.288487 91.400718 
L 66.288487 89.918484 
L 66.414362 91.697165 
L 66.540236 91.697165 
L 66.66611 92.60931 
L 66.791984 92.60931 
L 66.917858 94.524813 
L 67.169606 94.616027 
L 67.169606 96.46312 
L 67.29548 95.14051 
L 67.421355 95.14051 
L 67.547229 96.645549 
L 67.673103 96.645549 
L 67.798977 95.847422 
L 67.798977 96.098262 
L 68.050725 95.96144 
L 68.176599 97.6033 
L 68.302473 97.6033 
L 68.428348 97.056014 
L 68.554222 97.056014 
L 68.680096 99.74684 
L 68.80597 99.74684 
L 68.80597 98.720677 
L 68.931844 99.81525 
L 69.057718 99.81525 
L 69.057718 99.24516 
L 69.183592 101.434307 
L 69.309466 101.434307 
L 69.435341 99.518803 
L 69.561215 99.518803 
L 69.687089 101.479914 
L 69.938837 101.45711 
L 69.938837 103.212988 
L 70.064711 101.434307 
L 70.190585 101.434307 
L 70.316459 103.053363 
L 70.442334 103.053363 
L 70.442334 102.392058 
L 70.568208 102.870934 
L 70.819956 103.053363 
L 70.94583 104.17074 
L 71.071704 104.17074 
L 71.197578 104.512794 
L 71.197578 104.125133 
L 71.323452 104.125133 
L 71.323452 104.672419 
L 71.449327 103.9199 
L 71.575201 103.9199 
L 71.701075 105.288117 
L 71.826949 105.288117 
L 71.952823 104.946062 
L 71.952823 106.245868 
L 72.078697 106.245868 
L 72.204571 105.516153 
L 72.330445 105.516153 
L 72.330445 107.294834 
L 72.45632 106.975584 
L 72.582194 106.975584 
L 72.582194 109.187534 
L 72.708068 106.861566 
L 72.833942 106.861566 
L 72.959816 108.184175 
L 73.08569 108.184175 
L 73.08569 107.45446 
L 73.211564 107.750906 
L 73.337438 107.750906 
L 73.337438 108.229782 
L 73.463313 108.229782 
L 73.589187 108.229782 
L 73.589187 110.031267 
L 73.715061 107.978943 
L 73.840935 107.978943 
L 73.966809 109.096319 
L 74.092683 109.096319 
L 74.092683 109.506784 
L 74.218557 109.233141 
L 74.344431 109.233141 
L 74.470306 110.008464 
L 74.847928 110.122482 
L 74.847928 110.829394 
L 74.973802 110.327714 
L 75.22555 110.282107 
L 75.351424 111.581913 
L 75.477299 111.581913 
L 75.477299 111.331073 
L 75.603173 111.923967 
L 75.729047 111.923967 
L 75.729047 112.653682 
L 75.854921 111.695931 
L 75.980795 111.695931 
L 75.980795 112.311628 
L 76.106669 111.331073 
L 76.232543 111.331073 
L 76.358417 113.155362 
L 76.484292 113.155362 
L 76.610166 112.608075 
L 76.861914 112.744897 
L 76.861914 113.178165 
L 76.987788 112.813308 
L 77.113662 112.813308 
L 77.239536 113.862274 
L 77.36541 113.862274 
L 77.36541 113.429005 
L 77.491285 114.637596 
L 77.617159 114.637596 
L 77.617159 113.474612 
L 77.743033 114.204328 
L 77.868907 114.204328 
L 77.994781 113.132558 
L 78.120655 113.132558 
L 78.120655 114.614793 
L 78.246529 114.546382 
L 78.372403 114.546382 
L 78.372403 114.272739 
L 78.498278 114.569186 
L 78.624152 114.569186 
L 78.624152 113.953488 
L 78.750026 114.728811 
L 79.127648 114.683204 
L 79.127648 116.028617 
L 79.253522 115.184883 
L 79.379397 115.184883 
L 79.379397 115.709366 
L 79.505271 115.276098 
L 79.631145 115.276098 
L 79.631145 115.526937 
L 79.757019 114.820025 
L 79.882893 114.820025 
L 79.882893 115.937402 
L 80.008767 115.891795 
L 80.134641 115.891795 
L 80.134641 115.23049 
L 80.260515 116.211046 
L 80.38639 116.211046 
L 80.38639 115.73217 
L 80.512264 116.142635 
L 80.638138 116.142635 
L 80.638138 116.5531 
L 80.764012 116.439082 
L 81.01576 116.279456 
L 81.01576 116.917957 
L 81.141634 116.895154 
L 81.267508 116.895154 
L 81.267508 117.168797 
L 81.393383 116.803939 
L 81.519257 116.803939 
L 81.645131 117.37403 
L 81.771005 117.37403 
L 81.771005 117.12319 
L 81.896879 117.510851 
L 82.022753 117.510851 
L 82.022753 117.031975 
L 82.148627 117.69328 
L 82.274501 117.69328 
L 82.400376 117.191601 
L 82.52625 117.191601 
L 82.52625 117.716084 
L 82.652124 116.507492 
L 82.777998 116.507492 
L 82.903872 118.331781 
L 83.029746 118.331781 
L 83.029746 118.856264 
L 83.15562 117.761691 
L 83.281494 117.761691 
L 83.281494 118.924675 
L 83.407369 118.491406 
L 83.659117 118.422996 
L 83.784991 117.488048 
L 83.910865 117.488048 
L 84.036739 118.810657 
L 84.162613 118.810657 
L 84.162613 119.517569 
L 84.288487 118.582621 
L 84.540236 118.628228 
L 84.540236 119.0843 
L 84.66611 119.01589 
L 84.791984 119.01589 
L 84.917858 118.673835 
L 85.043732 118.673835 
L 85.043732 118.924675 
L 85.169606 118.810657 
L 85.29548 118.810657 
L 85.29548 119.198318 
L 85.421355 118.924675 
L 85.547229 118.924675 
L 85.673103 119.289533 
L 85.924851 119.198318 
L 86.050725 119.540373 
L 86.050725 119.403551 
L 86.680096 119.494765 
L 86.680096 119.745605 
L 86.80597 119.699998 
L 87.057718 119.631587 
L 87.057718 120.361302 
L 87.183592 120.201677 
L 87.309466 120.201677 
L 87.309466 119.540373 
L 87.435341 120.087659 
L 87.561215 120.087659 
L 87.561215 119.768409 
L 87.687089 120.110463 
L 87.812963 120.110463 
L 87.938837 119.426354 
L 87.938837 119.791212 
L 88.064711 119.791212 
L 88.064711 120.292892 
L 88.190585 119.882427 
L 88.568208 120.064856 
L 88.568208 120.589339 
L 88.694082 120.361302 
L 88.94583 120.292892 
L 88.94583 119.791212 
L 89.071704 120.429713 
L 89.449327 120.429713 
L 89.449327 120.224481 
L 89.575201 120.817375 
L 89.701075 120.817375 
L 89.701075 120.612142 
L 89.826949 120.885785 
L 89.952823 120.885785 
L 89.952823 120.429713 
L 90.078697 121.136625 
L 90.204571 121.136625 
L 90.204571 120.589339 
L 90.330445 120.840178 
L 90.582194 120.657749 
L 90.582194 121.136625 
L 90.708068 121.136625 
L 90.833942 121.136625 
L 90.833942 120.862982 
L 90.959816 121.273447 
L 91.337438 121.455876 
L 91.337438 120.589339 
L 91.463313 121.182232 
L 91.840935 121.250643 
L 91.840935 120.977 
L 91.966809 121.319054 
L 93.351424 121.182232 
L 93.351424 121.911948 
L 93.477299 121.501483 
L 94.358417 121.638305 
L 94.358417 121.706715 
L 94.484292 121.364661 
L 94.610166 121.364661 
L 94.73604 121.911948 
L 94.861914 121.911948 
L 94.861914 121.706715 
L 94.987788 121.934752 
L 95.239536 122.025966 
L 95.239536 121.661108 
L 95.36541 121.843537 
L 95.491285 121.843537 
L 95.491285 122.11718 
L 95.617159 122.11718 
L 95.743033 122.11718 
L 95.743033 121.911948 
L 95.868907 122.11718 
L 95.994781 122.11718 
L 95.994781 121.843537 
L 96.120655 121.980359 
L 96.246529 121.980359 
L 96.246529 121.638305 
L 96.372403 121.911948 
L 96.624152 121.980359 
L 96.624152 122.11718 
L 96.750026 121.843537 
L 97.001774 121.980359 
L 97.001774 122.162788 
L 97.127648 121.843537 
L 97.253522 121.843537 
L 97.253522 122.254002 
L 97.379397 122.04877 
L 97.882893 122.139984 
L 97.882893 121.843537 
L 98.008767 122.504842 
L 98.134641 122.504842 
L 98.134641 122.025966 
L 98.260515 122.390824 
L 98.512264 122.254002 
L 98.512264 122.071573 
L 98.638138 122.390824 
L 99.896879 122.390824 
L 100.022753 122.04877 
L 100.022753 122.459235 
L 100.652124 122.482038 
L 100.652124 122.208395 
L 100.777998 122.459235 
L 102.288487 122.36802 
L 102.288487 122.664467 
L 102.414362 122.641663 
L 102.540236 122.641663 
L 102.540236 122.322413 
L 102.66611 122.687271 
L 102.791984 122.687271 
L 102.791984 122.413627 
L 102.917858 122.687271 
L 103.421355 122.8697 
L 103.421355 122.915307 
L 103.547229 122.641663 
L 104.176599 122.801289 
L 104.176599 122.8697 
L 104.302473 122.778485 
L 106.94583 122.892503 
L 106.94583 123.006521 
L 107.071704 122.846896 
L 108.959816 122.983718 
L 108.959816 123.097736 
L 109.08569 123.097736 
L 109.337438 123.029325 
L 109.337438 122.8697 
L 109.463313 122.8697 
L 109.966809 122.801289 
L 109.966809 123.097736 
L 110.092683 123.006521 
L 112.358417 123.120539 
L 112.358417 123.257361 
L 112.484292 123.143343 
L 112.610166 123.143343 
L 112.610166 122.93811 
L 112.73604 122.983718 
L 114.498278 123.029325 
L 114.498278 123.18895 
L 114.624152 123.143343 
L 180.330445 123.302968 
L 180.330445 123.325772 
" clip-path="url(#pc813430551)" style="fill: none; stroke: #2a9d8f; stroke-linejoin: miter"/>
   </g>
   <g id="patch_6">
    <path d="M 54.330445 123.325772 
L 54.582194 123.325772 
L 54.582194 115.527911 
L 54.833942 115.527911 
L 54.833942 104.179112 
L 55.08569 104.179112 
L 55.08569 92.986555 
L 55.337438 92.986555 
L 55.337438 84.052394 
L 55.589187 84.052394 
L 55.589187 78.562643 
L 55.840935 78.562643 
L 55.840935 71.155386 
L 56.092683 71.155386 
L 56.092683 68.314635 
L 56.344431 68.314635 
L 56.344431 64.600354 
L 56.59618 64.600354 
L 56.59618 62.817783 
L 56.847928 62.817783 
L 56.847928 60.303719 
L 57.099676 60.303719 
L 57.099676 60.80085 
L 57.351424 60.80085 
L 57.351424 59.302354 
L 57.603173 59.302354 
L 57.603173 60.00544 
L 57.854921 60.00544 
L 57.854921 60.609099 
L 58.106669 60.609099 
L 58.106669 60.339228 
L 58.358417 60.339228 
L 58.358417 61.021008 
L 58.610166 61.021008 
L 58.610166 61.773807 
L 58.861914 61.773807 
L 58.861914 62.611829 
L 59.113662 62.611829 
L 59.113662 63.009534 
L 59.36541 63.009534 
L 59.36541 64.529335 
L 59.617159 64.529335 
L 59.617159 65.005161 
L 59.868907 65.005161 
L 59.868907 67.490818 
L 60.120655 67.490818 
L 60.120655 67.199641 
L 60.372403 67.199641 
L 60.372403 69.280491 
L 60.624152 69.280491 
L 60.624152 69.507751 
L 61.127648 69.699501 
L 61.127648 72.902448 
L 61.379397 72.902448 
L 61.379397 73.314357 
L 61.631145 73.314357 
L 61.631145 75.054316 
L 61.882893 75.054316 
L 61.882893 76.751665 
L 62.38639 76.872397 
L 62.38639 77.98029 
L 62.638138 77.98029 
L 62.638138 78.200448 
L 62.889886 78.200448 
L 62.889886 79.180507 
L 63.141634 79.180507 
L 63.141634 79.741555 
L 63.393383 79.741555 
L 63.393383 81.176134 
L 63.645131 81.176134 
L 63.645131 82.007054 
L 63.896879 82.007054 
L 63.896879 82.90189 
L 64.148627 82.90189 
L 64.148627 84.41459 
L 64.400376 84.41459 
L 64.400376 85.756844 
L 64.652124 85.756844 
L 64.652124 85.494075 
L 64.903872 85.494075 
L 64.903872 86.552255 
L 65.15562 86.552255 
L 65.15562 87.02808 
L 65.407369 87.02808 
L 65.407369 88.512373 
L 65.910865 88.661512 
L 65.910865 89.350394 
L 66.162613 89.350394 
L 66.162613 91.005131 
L 66.414362 91.005131 
L 66.414362 90.756566 
L 66.66611 90.756566 
L 66.66611 92.013598 
L 66.917858 92.013598 
L 66.917858 92.418405 
L 67.169606 92.418405 
L 67.169606 92.972351 
L 67.421355 92.972351 
L 67.421355 93.668335 
L 67.673103 93.668335 
L 67.673103 95.372785 
L 68.176599 95.301767 
L 68.176599 95.969343 
L 68.428348 95.969343 
L 68.428348 95.592944 
L 68.680096 95.592944 
L 68.680096 97.148255 
L 68.931844 97.148255 
L 68.931844 96.416761 
L 69.183592 96.416761 
L 69.183592 97.85134 
L 69.435341 97.85134 
L 69.435341 98.11411 
L 69.687089 98.11411 
L 69.687089 99.562893 
L 69.938837 99.562893 
L 69.938837 99.108372 
L 70.190585 99.108372 
L 70.190585 99.328531 
L 70.442334 99.328531 
L 70.442334 100.329895 
L 70.94583 100.521646 
L 70.94583 101.885206 
L 71.449327 101.920716 
L 71.449327 102.92208 
L 71.701075 102.92208 
L 71.701075 101.792882 
L 71.952823 101.792882 
L 71.952823 103.319785 
L 72.45632 103.461823 
L 72.45632 104.619429 
L 72.708068 104.619429 
L 72.708068 104.392169 
L 72.959816 104.392169 
L 72.959816 104.825383 
L 73.211564 104.825383 
L 73.211564 105.485858 
L 73.463313 105.485858 
L 73.463313 106.302573 
L 73.715061 106.302573 
L 73.715061 105.855155 
L 73.966809 105.855155 
L 73.966809 106.771297 
L 74.218557 106.771297 
L 74.218557 107.062474 
L 74.470306 107.062474 
L 74.470306 107.886292 
L 74.973802 108.049635 
L 74.973802 108.241386 
L 75.22555 108.241386 
L 75.22555 108.603581 
L 75.477299 108.603581 
L 75.477299 108.965777 
L 75.980795 108.958675 
L 75.980795 109.264056 
L 76.232543 109.264056 
L 76.232543 109.47001 
L 76.73604 109.477112 
L 76.73604 109.73278 
L 76.987788 109.73278 
L 76.987788 110.322236 
L 77.491285 110.286726 
L 77.491285 110.734144 
L 77.743033 110.734144 
L 77.743033 111.075035 
L 77.994781 111.075035 
L 77.994781 111.621879 
L 78.246529 111.621879 
L 78.246529 112.00538 
L 78.498278 112.00538 
L 78.498278 112.26815 
L 78.750026 112.26815 
L 78.750026 112.758179 
L 79.253522 112.665855 
L 79.253522 113.205598 
L 79.505271 113.205598 
L 79.505271 112.886013 
L 80.260515 112.822096 
L 80.260515 113.965498 
L 81.01576 114.079128 
L 81.01576 114.597565 
L 81.267508 114.597565 
L 81.267508 114.306388 
L 81.519257 114.306388 
L 81.519257 114.533648 
L 81.771005 114.533648 
L 81.771005 115.03078 
L 82.022753 115.03078 
L 82.022753 114.569158 
L 82.274501 114.569158 
L 82.274501 115.336161 
L 82.52625 115.336161 
L 82.52625 115.556319 
L 83.533243 115.414281 
L 83.533243 115.811986 
L 83.784991 115.811986 
L 83.784991 116.088959 
L 84.036739 116.088959 
L 84.036739 116.763638 
L 84.288487 116.763638 
L 84.288487 116.238099 
L 84.540236 116.238099 
L 84.540236 116.458257 
L 85.043732 116.628702 
L 85.043732 117.18975 
L 85.29548 117.18975 
L 85.29548 116.713925 
L 85.547229 116.713925 
L 85.547229 116.976694 
L 85.798977 116.976694 
L 85.798977 117.402807 
L 86.80597 117.559048 
L 86.80597 117.722391 
L 87.561215 117.885734 
L 87.561215 118.063281 
L 88.064711 118.169809 
L 88.064711 118.283439 
L 88.316459 118.283439 
L 88.316459 118.638533 
L 89.323452 118.524903 
L 89.323452 118.872895 
L 90.330445 119.000729 
L 90.330445 119.206683 
L 91.08569 119.355823 
L 91.08569 119.909769 
L 91.337438 119.909769 
L 91.337438 119.448147 
L 91.589187 119.448147 
L 91.589187 119.938177 
L 91.840935 119.938177 
L 91.840935 119.53337 
L 92.344431 119.718018 
L 92.344431 119.867158 
L 92.847928 119.945278 
L 92.847928 120.115723 
L 93.603173 120.29327 
L 93.603173 120.378493 
L 93.854921 120.378493 
L 93.854921 119.98789 
L 94.106669 119.98789 
L 94.106669 120.477919 
L 95.617159 120.598651 
L 95.617159 120.719383 
L 95.868907 120.719383 
L 95.868907 120.960847 
L 96.120655 120.960847 
L 96.120655 120.712281 
L 96.372403 120.712281 
L 96.372403 121.074477 
L 97.631145 121.067375 
L 97.631145 121.323042 
L 99.645131 121.230718 
L 99.645131 121.528997 
L 100.400376 121.46508 
L 100.400376 121.848581 
L 103.421355 121.9196 
L 103.421355 122.054536 
L 104.680096 122.14686 
L 104.680096 122.288898 
L 104.931844 122.288898 
L 104.931844 122.011925 
L 105.183592 122.011925 
L 105.183592 122.423833 
L 105.687089 122.303101 
L 105.687089 122.18237 
L 106.190585 122.281796 
L 106.190585 122.388324 
L 109.211564 122.423833 
L 109.211564 122.63689 
L 109.715061 122.622686 
L 109.715061 122.430935 
L 109.966809 122.430935 
L 109.966809 122.693705 
L 116.764012 122.892557 
L 116.764012 122.956474 
L 124.819956 123.112715 
L 124.819956 123.162429 
L 211.421355 123.31867 
L 211.421355 123.325772 
" clip-path="url(#pc813430551)" style="fill: none; stroke: #e9c46a; stroke-linejoin: miter"/>
   </g>
   <g id="patch_7">
    <path d="M 46.4759 123.325772 
L 46.4759 16.529498 
" style="fill: none; stroke: #000000; stroke-width: 0.8; stroke-linejoin: miter; stroke-linecap: square"/>
   </g>
   <g id="patch_8">
    <path d="M 219.2759 123.325772 
L 219.2759 16.529498 
" style="fill: none; stroke: #000000; stroke-width: 0.8; stroke-linejoin: miter; stroke-linecap: square"/>
   </g>
   <g id="patch_9">
    <path d="M 46.4759 123.325772 
L 219.2759 123.325772 
" style="fill: none; stroke: #000000; stroke-width: 0.8; stroke-linejoin: miter; stroke-linecap: square"/>
   </g>
   <g id="patch_10">
    <path d="M 46.4759 16.529498 
L 219.2759 16.529498 
" style="fill: none; stroke: #000000; stroke-width: 0.8; stroke-linejoin: miter; stroke-linecap: square"/>
   </g>
   <g id="legend_1">
    <g id="text_16">
     <!-- $\tau_\mathrm{lag}$ [ns] -->
     <g transform="translate(229.318633 49.014129) scale(0.0833 -0.0833)">
      <use xlink:href="#DejaVuSans-Oblique-3c4" transform="translate(0 0.015625)"/>
      <use xlink:href="#DejaVuSans-6c" transform="translate(60.205078 -16.390625) scale(0.7)"/>
      <use xlink:href="#DejaVuSans-61" transform="translate(79.65332 -16.390625) scale(0.7)"/>
      <use xlink:href="#DejaVuSans-67" transform="translate(122.548828 -16.390625) scale(0.7)"/>
      <use xlink:href="#DejaVuSans-20" transform="translate(169.716797 0.015625)"/>
      <use xlink:href="#DejaVuSans-5b" transform="translate(201.503906 0.015625)"/>
      <use xlink:href="#DejaVuSans-6e" transform="translate(240.517578 0.015625)"/>
      <use xlink:href="#DejaVuSans-73" transform="translate(303.896484 0.015625)"/>
      <use xlink:href="#DejaVuSans-5d" transform="translate(355.996094 0.015625)"/>
     </g>
    </g>
    <g id="patch_11">
     <path d="M 228.6249 61.257927 
L 240.2869 61.257927 
L 240.2869 55.426927 
L 228.6249 55.426927 
z
"/>
    </g>
    <g id="text_17">
     <!-- MD -->
     <g transform="translate(244.4519 61.257927) scale(0.0833 -0.0833)">
      <defs>
       <path id="DejaVuSans-4d" d="M 628 4666 
L 1569 4666 
L 2759 1491 
L 3956 4666 
L 4897 4666 
L 4897 0 
L 4281 0 
L 4281 4097 
L 3078 897 
L 2444 897 
L 1241 4097 
L 1241 0 
L 628 0 
L 628 4666 
z
" transform="scale(0.015625)"/>
       <path id="DejaVuSans-44" d="M 1259 4147 
L 1259 519 
L 2022 519 
Q 2988 519 3436 956 
Q 3884 1394 3884 2338 
Q 3884 3275 3436 3711 
Q 2988 4147 2022 4147 
L 1259 4147 
z
M 628 4666 
L 1925 4666 
Q 3281 4666 3915 4102 
Q 4550 3538 4550 2338 
Q 4550 1131 3912 565 
Q 3275 0 1925 0 
L 628 0 
L 628 4666 
z
" transform="scale(0.015625)"/>
      </defs>
      <use xlink:href="#DejaVuSans-4d"/>
      <use xlink:href="#DejaVuSans-44" x="86.279297"/>
     </g>
    </g>
    <g id="line2d_25">
     <path d="M 228.6249 69.736305 
L 240.2869 69.736305 
" style="fill: none; stroke: #264653; stroke-linecap: square"/>
    </g>
    <g id="text_18">
     <!-- 10.0 -->
     <g transform="translate(244.4519 72.651805) scale(0.0833 -0.0833)">
      <use xlink:href="#DejaVuSans-31"/>
      <use xlink:href="#DejaVuSans-30" x="63.623047"/>
      <use xlink:href="#DejaVuSans-2e" x="127.246094"/>
      <use xlink:href="#DejaVuSans-30" x="159.033203"/>
     </g>
    </g>
    <g id="line2d_26">
     <path d="M 228.6249 81.130184 
L 240.2869 81.130184 
" style="fill: none; stroke: #2a9d8f; stroke-linecap: square"/>
    </g>
    <g id="text_19">
     <!-- 20.0 -->
     <g transform="translate(244.4519 84.045684) scale(0.0833 -0.0833)">
      <use xlink:href="#DejaVuSans-32"/>
      <use xlink:href="#DejaVuSans-30" x="63.623047"/>
      <use xlink:href="#DejaVuSans-2e" x="127.246094"/>
      <use xlink:href="#DejaVuSans-30" x="159.033203"/>
     </g>
    </g>
    <g id="line2d_27">
     <path d="M 228.6249 92.524062 
L 240.2869 92.524062 
" style="fill: none; stroke: #e9c46a; stroke-linecap: square"/>
    </g>
    <g id="text_20">
     <!-- 40.0 -->
     <g transform="translate(244.4519 95.439562) scale(0.0833 -0.0833)">
      <use xlink:href="#DejaVuSans-34"/>
      <use xlink:href="#DejaVuSans-30" x="63.623047"/>
      <use xlink:href="#DejaVuSans-2e" x="127.246094"/>
      <use xlink:href="#DejaVuSans-30" x="159.033203"/>
     </g>
    </g>
   </g>
  </g>
 </g>
 <defs>
  <clipPath id="pc813430551">
   <rect x="46.4759" y="16.529498" width="172.8" height="106.796273"/>
  </clipPath>
 </defs>
</svg>
