<?xml version="1.0" encoding="utf-8" standalone="no"?>
<!DOCTYPE svg PUBLIC "-//W3C//DTD SVG 1.1//EN"
  "http://www.w3.org/Graphics/SVG/1.1/DTD/svg11.dtd">
<svg xmlns:xlink="http://www.w3.org/1999/xlink" width="274.364166pt" height="160.28765pt" viewBox="0 0 274.364166 160.28765" xmlns="http://www.w3.org/2000/svg" version="1.1">
 <metadata>
  <rdf:RDF xmlns:dc="http://purl.org/dc/elements/1.1/" xmlns:cc="http://creativecommons.org/ns#" xmlns:rdf="http://www.w3.org/1999/02/22-rdf-syntax-ns#">
   <cc:Work>
    <dc:type rdf:resource="http://purl.org/dc/dcmitype/StillImage"/>
    <dc:date>2023-03-08T15:22:35.728364</dc:date>
    <dc:format>image/svg+xml</dc:format>
    <dc:creator>
     <cc:Agent>
      <dc:title>Matplotlib v3.6.3, https://matplotlib.org/</dc:title>
     </cc:Agent>
    </dc:creator>
   </cc:Work>
  </rdf:RDF>
 </metadata>
 <defs>
  <style type="text/css">*{stroke-linejoin: round; stroke-linecap: butt}</style>
 </defs>
 <g id="figure_1">
  <g id="patch_1">
   <path d="M -0 160.28765 
L 274.364166 160.28765 
L 274.364166 0 
L -0 0 
L -0 160.28765 
z
" style="fill: none"/>
  </g>
  <g id="axes_1">
   <g id="patch_2">
    <path d="M 46.4759 123.325772 
L 219.2759 123.325772 
L 219.2759 16.529498 
L 46.4759 16.529498 
L 46.4759 123.325772 
z
" style="fill: none"/>
   </g>
   <g id="matplotlib.axis_1">
    <g id="xtick_1">
     <g id="line2d_1">
      <path d="M 54.330445 123.325772 
L 54.330445 16.529498 
" clip-path="url(#pe842f3dc26)" style="fill: none; stroke-dasharray: 2.96,1.28; stroke-dashoffset: 0; stroke: #dddfe5; stroke-width: 0.8"/>
     </g>
     <g id="line2d_2">
      <defs>
       <path id="md224a66c85" d="M 0 0 
L 0 3.5 
" style="stroke: #000000; stroke-width: 0.8"/>
      </defs>
      <g>
       <use xlink:href="#md224a66c85" x="54.330445" y="123.325772" style="stroke: #000000; stroke-width: 0.8"/>
      </g>
     </g>
     <g id="text_1">
      <!-- 0 -->
      <g transform="translate(51.680464 136.65527) scale(0.0833 -0.0833)">
       <defs>
        <path id="DejaVuSans-30" d="M 2034 4250 
Q 1547 4250 1301 3770 
Q 1056 3291 1056 2328 
Q 1056 1369 1301 889 
Q 1547 409 2034 409 
Q 2525 409 2770 889 
Q 3016 1369 3016 2328 
Q 3016 3291 2770 3770 
Q 2525 4250 2034 4250 
z
M 2034 4750 
Q 2819 4750 3233 4129 
Q 3647 3509 3647 2328 
Q 3647 1150 3233 529 
Q 2819 -91 2034 -91 
Q 1250 -91 836 529 
Q 422 1150 422 2328 
Q 422 3509 836 4129 
Q 1250 4750 2034 4750 
z
" transform="scale(0.015625)"/>
       </defs>
       <use xlink:href="#DejaVuSans-30"/>
      </g>
     </g>
    </g>
    <g id="xtick_2">
     <g id="line2d_3">
      <path d="M 100.317246 123.325772 
L 100.317246 16.529498 
" clip-path="url(#pe842f3dc26)" style="fill: none; stroke-dasharray: 2.96,1.28; stroke-dashoffset: 0; stroke: #dddfe5; stroke-width: 0.8"/>
     </g>
     <g id="line2d_4">
      <g>
       <use xlink:href="#md224a66c85" x="100.317246" y="123.325772" style="stroke: #000000; stroke-width: 0.8"/>
      </g>
     </g>
     <g id="text_2">
      <!-- 10000 -->
      <g transform="translate(87.067339 136.65527) scale(0.0833 -0.0833)">
       <defs>
        <path id="DejaVuSans-31" d="M 794 531 
L 1825 531 
L 1825 4091 
L 703 3866 
L 703 4441 
L 1819 4666 
L 2450 4666 
L 2450 531 
L 3481 531 
L 3481 0 
L 794 0 
L 794 531 
z
" transform="scale(0.015625)"/>
       </defs>
       <use xlink:href="#DejaVuSans-31"/>
       <use xlink:href="#DejaVuSans-30" x="63.623047"/>
       <use xlink:href="#DejaVuSans-30" x="127.246094"/>
       <use xlink:href="#DejaVuSans-30" x="190.869141"/>
       <use xlink:href="#DejaVuSans-30" x="254.492188"/>
      </g>
     </g>
    </g>
    <g id="xtick_3">
     <g id="line2d_5">
      <path d="M 146.304046 123.325772 
L 146.304046 16.529498 
" clip-path="url(#pe842f3dc26)" style="fill: none; stroke-dasharray: 2.96,1.28; stroke-dashoffset: 0; stroke: #dddfe5; stroke-width: 0.8"/>
     </g>
     <g id="line2d_6">
      <g>
       <use xlink:href="#md224a66c85" x="146.304046" y="123.325772" style="stroke: #000000; stroke-width: 0.8"/>
      </g>
     </g>
     <g id="text_3">
      <!-- 20000 -->
      <g transform="translate(133.054139 136.65527) scale(0.0833 -0.0833)">
       <defs>
        <path id="DejaVuSans-32" d="M 1228 531 
L 3431 531 
L 3431 0 
L 469 0 
L 469 531 
Q 828 903 1448 1529 
Q 2069 2156 2228 2338 
Q 2531 2678 2651 2914 
Q 2772 3150 2772 3378 
Q 2772 3750 2511 3984 
Q 2250 4219 1831 4219 
Q 1534 4219 1204 4116 
Q 875 4013 500 3803 
L 500 4441 
Q 881 4594 1212 4672 
Q 1544 4750 1819 4750 
Q 2544 4750 2975 4387 
Q 3406 4025 3406 3419 
Q 3406 3131 3298 2873 
Q 3191 2616 2906 2266 
Q 2828 2175 2409 1742 
Q 1991 1309 1228 531 
z
" transform="scale(0.015625)"/>
       </defs>
       <use xlink:href="#DejaVuSans-32"/>
       <use xlink:href="#DejaVuSans-30" x="63.623047"/>
       <use xlink:href="#DejaVuSans-30" x="127.246094"/>
       <use xlink:href="#DejaVuSans-30" x="190.869141"/>
       <use xlink:href="#DejaVuSans-30" x="254.492188"/>
      </g>
     </g>
    </g>
    <g id="xtick_4">
     <g id="line2d_7">
      <path d="M 192.290846 123.325772 
L 192.290846 16.529498 
" clip-path="url(#pe842f3dc26)" style="fill: none; stroke-dasharray: 2.96,1.28; stroke-dashoffset: 0; stroke: #dddfe5; stroke-width: 0.8"/>
     </g>
     <g id="line2d_8">
      <g>
       <use xlink:href="#md224a66c85" x="192.290846" y="123.325772" style="stroke: #000000; stroke-width: 0.8"/>
      </g>
     </g>
     <g id="text_4">
      <!-- 30000 -->
      <g transform="translate(179.040939 136.65527) scale(0.0833 -0.0833)">
       <defs>
        <path id="DejaVuSans-33" d="M 2597 2516 
Q 3050 2419 3304 2112 
Q 3559 1806 3559 1356 
Q 3559 666 3084 287 
Q 2609 -91 1734 -91 
Q 1441 -91 1130 -33 
Q 819 25 488 141 
L 488 750 
Q 750 597 1062 519 
Q 1375 441 1716 441 
Q 2309 441 2620 675 
Q 2931 909 2931 1356 
Q 2931 1769 2642 2001 
Q 2353 2234 1838 2234 
L 1294 2234 
L 1294 2753 
L 1863 2753 
Q 2328 2753 2575 2939 
Q 2822 3125 2822 3475 
Q 2822 3834 2567 4026 
Q 2313 4219 1838 4219 
Q 1578 4219 1281 4162 
Q 984 4106 628 3988 
L 628 4550 
Q 988 4650 1302 4700 
Q 1616 4750 1894 4750 
Q 2613 4750 3031 4423 
Q 3450 4097 3450 3541 
Q 3450 3153 3228 2886 
Q 3006 2619 2597 2516 
z
" transform="scale(0.015625)"/>
       </defs>
       <use xlink:href="#DejaVuSans-33"/>
       <use xlink:href="#DejaVuSans-30" x="63.623047"/>
       <use xlink:href="#DejaVuSans-30" x="127.246094"/>
       <use xlink:href="#DejaVuSans-30" x="190.869141"/>
       <use xlink:href="#DejaVuSans-30" x="254.492188"/>
      </g>
     </g>
    </g>
    <g id="text_5">
     <!-- $\tau_\mathrm{lag}$ [ns] -->
     <g transform="translate(113.0759 149.98765) scale(0.1 -0.1)">
      <defs>
       <path id="DejaVuSans-Oblique-3c4" d="M 2103 638 
Q 2188 488 2525 488 
L 2800 488 
L 2706 0 
L 2363 0 
Q 1800 0 1600 300 
Q 1403 606 1534 1269 
L 1856 2925 
L 541 2925 
L 653 3500 
L 3881 3500 
L 3769 2925 
L 2444 2925 
L 2113 1234 
Q 2025 781 2103 638 
z
" transform="scale(0.015625)"/>
       <path id="DejaVuSans-6c" d="M 603 4863 
L 1178 4863 
L 1178 0 
L 603 0 
L 603 4863 
z
" transform="scale(0.015625)"/>
       <path id="DejaVuSans-61" d="M 2194 1759 
Q 1497 1759 1228 1600 
Q 959 1441 959 1056 
Q 959 750 1161 570 
Q 1363 391 1709 391 
Q 2188 391 2477 730 
Q 2766 1069 2766 1631 
L 2766 1759 
L 2194 1759 
z
M 3341 1997 
L 3341 0 
L 2766 0 
L 2766 531 
Q 2569 213 2275 61 
Q 1981 -91 1556 -91 
Q 1019 -91 701 211 
Q 384 513 384 1019 
Q 384 1609 779 1909 
Q 1175 2209 1959 2209 
L 2766 2209 
L 2766 2266 
Q 2766 2663 2505 2880 
Q 2244 3097 1772 3097 
Q 1472 3097 1187 3025 
Q 903 2953 641 2809 
L 641 3341 
Q 956 3463 1253 3523 
Q 1550 3584 1831 3584 
Q 2591 3584 2966 3190 
Q 3341 2797 3341 1997 
z
" transform="scale(0.015625)"/>
       <path id="DejaVuSans-67" d="M 2906 1791 
Q 2906 2416 2648 2759 
Q 2391 3103 1925 3103 
Q 1463 3103 1205 2759 
Q 947 2416 947 1791 
Q 947 1169 1205 825 
Q 1463 481 1925 481 
Q 2391 481 2648 825 
Q 2906 1169 2906 1791 
z
M 3481 434 
Q 3481 -459 3084 -895 
Q 2688 -1331 1869 -1331 
Q 1566 -1331 1297 -1286 
Q 1028 -1241 775 -1147 
L 775 -588 
Q 1028 -725 1275 -790 
Q 1522 -856 1778 -856 
Q 2344 -856 2625 -561 
Q 2906 -266 2906 331 
L 2906 616 
Q 2728 306 2450 153 
Q 2172 0 1784 0 
Q 1141 0 747 490 
Q 353 981 353 1791 
Q 353 2603 747 3093 
Q 1141 3584 1784 3584 
Q 2172 3584 2450 3431 
Q 2728 3278 2906 2969 
L 2906 3500 
L 3481 3500 
L 3481 434 
z
" transform="scale(0.015625)"/>
       <path id="DejaVuSans-20" transform="scale(0.015625)"/>
       <path id="DejaVuSans-5b" d="M 550 4863 
L 1875 4863 
L 1875 4416 
L 1125 4416 
L 1125 -397 
L 1875 -397 
L 1875 -844 
L 550 -844 
L 550 4863 
z
" transform="scale(0.015625)"/>
       <path id="DejaVuSans-6e" d="M 3513 2113 
L 3513 0 
L 2938 0 
L 2938 2094 
Q 2938 2591 2744 2837 
Q 2550 3084 2163 3084 
Q 1697 3084 1428 2787 
Q 1159 2491 1159 1978 
L 1159 0 
L 581 0 
L 581 3500 
L 1159 3500 
L 1159 2956 
Q 1366 3272 1645 3428 
Q 1925 3584 2291 3584 
Q 2894 3584 3203 3211 
Q 3513 2838 3513 2113 
z
" transform="scale(0.015625)"/>
       <path id="DejaVuSans-73" d="M 2834 3397 
L 2834 2853 
Q 2591 2978 2328 3040 
Q 2066 3103 1784 3103 
Q 1356 3103 1142 2972 
Q 928 2841 928 2578 
Q 928 2378 1081 2264 
Q 1234 2150 1697 2047 
L 1894 2003 
Q 2506 1872 2764 1633 
Q 3022 1394 3022 966 
Q 3022 478 2636 193 
Q 2250 -91 1575 -91 
Q 1294 -91 989 -36 
Q 684 19 347 128 
L 347 722 
Q 666 556 975 473 
Q 1284 391 1588 391 
Q 1994 391 2212 530 
Q 2431 669 2431 922 
Q 2431 1156 2273 1281 
Q 2116 1406 1581 1522 
L 1381 1569 
Q 847 1681 609 1914 
Q 372 2147 372 2553 
Q 372 3047 722 3315 
Q 1072 3584 1716 3584 
Q 2034 3584 2315 3537 
Q 2597 3491 2834 3397 
z
" transform="scale(0.015625)"/>
       <path id="DejaVuSans-5d" d="M 1947 4863 
L 1947 -844 
L 622 -844 
L 622 -397 
L 1369 -397 
L 1369 4416 
L 622 4416 
L 622 4863 
L 1947 4863 
z
" transform="scale(0.015625)"/>
      </defs>
      <use xlink:href="#DejaVuSans-Oblique-3c4" transform="translate(0 0.015625)"/>
      <use xlink:href="#DejaVuSans-6c" transform="translate(60.205078 -16.390625) scale(0.7)"/>
      <use xlink:href="#DejaVuSans-61" transform="translate(79.65332 -16.390625) scale(0.7)"/>
      <use xlink:href="#DejaVuSans-67" transform="translate(122.548828 -16.390625) scale(0.7)"/>
      <use xlink:href="#DejaVuSans-20" transform="translate(169.716797 0.015625)"/>
      <use xlink:href="#DejaVuSans-5b" transform="translate(201.503906 0.015625)"/>
      <use xlink:href="#DejaVuSans-6e" transform="translate(240.517578 0.015625)"/>
      <use xlink:href="#DejaVuSans-73" transform="translate(303.896484 0.015625)"/>
      <use xlink:href="#DejaVuSans-5d" transform="translate(355.996094 0.015625)"/>
     </g>
    </g>
   </g>
   <g id="matplotlib.axis_2">
    <g id="ytick_1">
     <g id="line2d_9">
      <path d="M 46.4759 123.325772 
L 219.2759 123.325772 
" clip-path="url(#pe842f3dc26)" style="fill: none; stroke-dasharray: 2.96,1.28; stroke-dashoffset: 0; stroke: #dddfe5; stroke-width: 0.8"/>
     </g>
     <g id="line2d_10">
      <defs>
       <path id="mf9540eb6c6" d="M 0 0 
L -3.5 0 
" style="stroke: #000000; stroke-width: 0.8"/>
      </defs>
      <g>
       <use xlink:href="#mf9540eb6c6" x="46.4759" y="123.325772" style="stroke: #000000; stroke-width: 0.8"/>
      </g>
     </g>
     <g id="text_6">
      <!-- $\mathdefault{0.00}$ -->
      <g transform="translate(20.9 126.490521) scale(0.0833 -0.0833)">
       <defs>
        <path id="DejaVuSans-2e" d="M 684 794 
L 1344 794 
L 1344 0 
L 684 0 
L 684 794 
z
" transform="scale(0.015625)"/>
       </defs>
       <use xlink:href="#DejaVuSans-30" transform="translate(0 0.78125)"/>
       <use xlink:href="#DejaVuSans-2e" transform="translate(63.623047 0.78125)"/>
       <use xlink:href="#DejaVuSans-30" transform="translate(95.410156 0.78125)"/>
       <use xlink:href="#DejaVuSans-30" transform="translate(159.033203 0.78125)"/>
      </g>
     </g>
    </g>
    <g id="ytick_2">
     <g id="line2d_11">
      <path d="M 46.4759 102.641622 
L 219.2759 102.641622 
" clip-path="url(#pe842f3dc26)" style="fill: none; stroke-dasharray: 2.96,1.28; stroke-dashoffset: 0; stroke: #dddfe5; stroke-width: 0.8"/>
     </g>
     <g id="line2d_12">
      <g>
       <use xlink:href="#mf9540eb6c6" x="46.4759" y="102.641622" style="stroke: #000000; stroke-width: 0.8"/>
      </g>
     </g>
     <g id="text_7">
      <!-- $\mathdefault{0.25}$ -->
      <g transform="translate(21.3165 105.806371) scale(0.0833 -0.0833)">
       <defs>
        <path id="DejaVuSans-35" d="M 691 4666 
L 3169 4666 
L 3169 4134 
L 1269 4134 
L 1269 2991 
Q 1406 3038 1543 3061 
Q 1681 3084 1819 3084 
Q 2600 3084 3056 2656 
Q 3513 2228 3513 1497 
Q 3513 744 3044 326 
Q 2575 -91 1722 -91 
Q 1428 -91 1123 -41 
Q 819 9 494 109 
L 494 744 
Q 775 591 1075 516 
Q 1375 441 1709 441 
Q 2250 441 2565 725 
Q 2881 1009 2881 1497 
Q 2881 1984 2565 2268 
Q 2250 2553 1709 2553 
Q 1456 2553 1204 2497 
Q 953 2441 691 2322 
L 691 4666 
z
" transform="scale(0.015625)"/>
       </defs>
       <use xlink:href="#DejaVuSans-30" transform="translate(0 0.78125)"/>
       <use xlink:href="#DejaVuSans-2e" transform="translate(63.623047 0.78125)"/>
       <use xlink:href="#DejaVuSans-32" transform="translate(89.910156 0.78125)"/>
       <use xlink:href="#DejaVuSans-35" transform="translate(153.533203 0.78125)"/>
      </g>
     </g>
    </g>
    <g id="ytick_3">
     <g id="line2d_13">
      <path d="M 46.4759 81.957472 
L 219.2759 81.957472 
" clip-path="url(#pe842f3dc26)" style="fill: none; stroke-dasharray: 2.96,1.28; stroke-dashoffset: 0; stroke: #dddfe5; stroke-width: 0.8"/>
     </g>
     <g id="line2d_14">
      <g>
       <use xlink:href="#mf9540eb6c6" x="46.4759" y="81.957472" style="stroke: #000000; stroke-width: 0.8"/>
      </g>
     </g>
     <g id="text_8">
      <!-- $\mathdefault{0.50}$ -->
      <g transform="translate(20.9 85.122222) scale(0.0833 -0.0833)">
       <use xlink:href="#DejaVuSans-30" transform="translate(0 0.78125)"/>
       <use xlink:href="#DejaVuSans-2e" transform="translate(63.623047 0.78125)"/>
       <use xlink:href="#DejaVuSans-35" transform="translate(95.410156 0.78125)"/>
       <use xlink:href="#DejaVuSans-30" transform="translate(159.033203 0.78125)"/>
      </g>
     </g>
    </g>
    <g id="ytick_4">
     <g id="line2d_15">
      <path d="M 46.4759 61.273323 
L 219.2759 61.273323 
" clip-path="url(#pe842f3dc26)" style="fill: none; stroke-dasharray: 2.96,1.28; stroke-dashoffset: 0; stroke: #dddfe5; stroke-width: 0.8"/>
     </g>
     <g id="line2d_16">
      <g>
       <use xlink:href="#mf9540eb6c6" x="46.4759" y="61.273323" style="stroke: #000000; stroke-width: 0.8"/>
      </g>
     </g>
     <g id="text_9">
      <!-- $\mathdefault{0.75}$ -->
      <g transform="translate(21.5664 64.438072) scale(0.0833 -0.0833)">
       <defs>
        <path id="DejaVuSans-37" d="M 525 4666 
L 3525 4666 
L 3525 4397 
L 1831 0 
L 1172 0 
L 2766 4134 
L 525 4134 
L 525 4666 
z
" transform="scale(0.015625)"/>
       </defs>
       <use xlink:href="#DejaVuSans-30" transform="translate(0 0.78125)"/>
       <use xlink:href="#DejaVuSans-2e" transform="translate(63.623047 0.78125)"/>
       <use xlink:href="#DejaVuSans-37" transform="translate(87.660156 0.78125)"/>
       <use xlink:href="#DejaVuSans-35" transform="translate(151.283203 0.78125)"/>
      </g>
     </g>
    </g>
    <g id="ytick_5">
     <g id="line2d_17">
      <path d="M 46.4759 40.589173 
L 219.2759 40.589173 
" clip-path="url(#pe842f3dc26)" style="fill: none; stroke-dasharray: 2.96,1.28; stroke-dashoffset: 0; stroke: #dddfe5; stroke-width: 0.8"/>
     </g>
     <g id="line2d_18">
      <g>
       <use xlink:href="#mf9540eb6c6" x="46.4759" y="40.589173" style="stroke: #000000; stroke-width: 0.8"/>
      </g>
     </g>
     <g id="text_10">
      <!-- $\mathdefault{1.00}$ -->
      <g transform="translate(20.9 43.753922) scale(0.0833 -0.0833)">
       <use xlink:href="#DejaVuSans-31" transform="translate(0 0.78125)"/>
       <use xlink:href="#DejaVuSans-2e" transform="translate(63.623047 0.78125)"/>
       <use xlink:href="#DejaVuSans-30" transform="translate(95.410156 0.78125)"/>
       <use xlink:href="#DejaVuSans-30" transform="translate(159.033203 0.78125)"/>
      </g>
     </g>
    </g>
    <g id="ytick_6">
     <g id="line2d_19">
      <path d="M 46.4759 19.905024 
L 219.2759 19.905024 
" clip-path="url(#pe842f3dc26)" style="fill: none; stroke-dasharray: 2.96,1.28; stroke-dashoffset: 0; stroke: #dddfe5; stroke-width: 0.8"/>
     </g>
     <g id="line2d_20">
      <g>
       <use xlink:href="#mf9540eb6c6" x="46.4759" y="19.905024" style="stroke: #000000; stroke-width: 0.8"/>
      </g>
     </g>
     <g id="text_11">
      <!-- $\mathdefault{1.25}$ -->
      <g transform="translate(21.3165 23.069773) scale(0.0833 -0.0833)">
       <use xlink:href="#DejaVuSans-31" transform="translate(0 0.78125)"/>
       <use xlink:href="#DejaVuSans-2e" transform="translate(63.623047 0.78125)"/>
       <use xlink:href="#DejaVuSans-32" transform="translate(89.910156 0.78125)"/>
       <use xlink:href="#DejaVuSans-35" transform="translate(153.533203 0.78125)"/>
      </g>
     </g>
    </g>
    <g id="text_12">
     <!-- probability $P$ -->
     <g transform="translate(14.8 101.327635) rotate(-90) scale(0.1 -0.1)">
      <defs>
       <path id="DejaVuSans-70" d="M 1159 525 
L 1159 -1331 
L 581 -1331 
L 581 3500 
L 1159 3500 
L 1159 2969 
Q 1341 3281 1617 3432 
Q 1894 3584 2278 3584 
Q 2916 3584 3314 3078 
Q 3713 2572 3713 1747 
Q 3713 922 3314 415 
Q 2916 -91 2278 -91 
Q 1894 -91 1617 61 
Q 1341 213 1159 525 
z
M 3116 1747 
Q 3116 2381 2855 2742 
Q 2594 3103 2138 3103 
Q 1681 3103 1420 2742 
Q 1159 2381 1159 1747 
Q 1159 1113 1420 752 
Q 1681 391 2138 391 
Q 2594 391 2855 752 
Q 3116 1113 3116 1747 
z
" transform="scale(0.015625)"/>
       <path id="DejaVuSans-72" d="M 2631 2963 
Q 2534 3019 2420 3045 
Q 2306 3072 2169 3072 
Q 1681 3072 1420 2755 
Q 1159 2438 1159 1844 
L 1159 0 
L 581 0 
L 581 3500 
L 1159 3500 
L 1159 2956 
Q 1341 3275 1631 3429 
Q 1922 3584 2338 3584 
Q 2397 3584 2469 3576 
Q 2541 3569 2628 3553 
L 2631 2963 
z
" transform="scale(0.015625)"/>
       <path id="DejaVuSans-6f" d="M 1959 3097 
Q 1497 3097 1228 2736 
Q 959 2375 959 1747 
Q 959 1119 1226 758 
Q 1494 397 1959 397 
Q 2419 397 2687 759 
Q 2956 1122 2956 1747 
Q 2956 2369 2687 2733 
Q 2419 3097 1959 3097 
z
M 1959 3584 
Q 2709 3584 3137 3096 
Q 3566 2609 3566 1747 
Q 3566 888 3137 398 
Q 2709 -91 1959 -91 
Q 1206 -91 779 398 
Q 353 888 353 1747 
Q 353 2609 779 3096 
Q 1206 3584 1959 3584 
z
" transform="scale(0.015625)"/>
       <path id="DejaVuSans-62" d="M 3116 1747 
Q 3116 2381 2855 2742 
Q 2594 3103 2138 3103 
Q 1681 3103 1420 2742 
Q 1159 2381 1159 1747 
Q 1159 1113 1420 752 
Q 1681 391 2138 391 
Q 2594 391 2855 752 
Q 3116 1113 3116 1747 
z
M 1159 2969 
Q 1341 3281 1617 3432 
Q 1894 3584 2278 3584 
Q 2916 3584 3314 3078 
Q 3713 2572 3713 1747 
Q 3713 922 3314 415 
Q 2916 -91 2278 -91 
Q 1894 -91 1617 61 
Q 1341 213 1159 525 
L 1159 0 
L 581 0 
L 581 4863 
L 1159 4863 
L 1159 2969 
z
" transform="scale(0.015625)"/>
       <path id="DejaVuSans-69" d="M 603 3500 
L 1178 3500 
L 1178 0 
L 603 0 
L 603 3500 
z
M 603 4863 
L 1178 4863 
L 1178 4134 
L 603 4134 
L 603 4863 
z
" transform="scale(0.015625)"/>
       <path id="DejaVuSans-74" d="M 1172 4494 
L 1172 3500 
L 2356 3500 
L 2356 3053 
L 1172 3053 
L 1172 1153 
Q 1172 725 1289 603 
Q 1406 481 1766 481 
L 2356 481 
L 2356 0 
L 1766 0 
Q 1100 0 847 248 
Q 594 497 594 1153 
L 594 3053 
L 172 3053 
L 172 3500 
L 594 3500 
L 594 4494 
L 1172 4494 
z
" transform="scale(0.015625)"/>
       <path id="DejaVuSans-79" d="M 2059 -325 
Q 1816 -950 1584 -1140 
Q 1353 -1331 966 -1331 
L 506 -1331 
L 506 -850 
L 844 -850 
Q 1081 -850 1212 -737 
Q 1344 -625 1503 -206 
L 1606 56 
L 191 3500 
L 800 3500 
L 1894 763 
L 2988 3500 
L 3597 3500 
L 2059 -325 
z
" transform="scale(0.015625)"/>
       <path id="DejaVuSans-Oblique-50" d="M 1081 4666 
L 2541 4666 
Q 3178 4666 3512 4369 
Q 3847 4072 3847 3500 
Q 3847 2731 3353 2303 
Q 2859 1875 1966 1875 
L 1172 1875 
L 806 0 
L 172 0 
L 1081 4666 
z
M 1613 4147 
L 1275 2394 
L 2069 2394 
Q 2606 2394 2893 2669 
Q 3181 2944 3181 3456 
Q 3181 3784 2986 3965 
Q 2791 4147 2438 4147 
L 1613 4147 
z
" transform="scale(0.015625)"/>
      </defs>
      <use xlink:href="#DejaVuSans-70" transform="translate(0 0.015625)"/>
      <use xlink:href="#DejaVuSans-72" transform="translate(63.476562 0.015625)"/>
      <use xlink:href="#DejaVuSans-6f" transform="translate(104.589844 0.015625)"/>
      <use xlink:href="#DejaVuSans-62" transform="translate(165.771484 0.015625)"/>
      <use xlink:href="#DejaVuSans-61" transform="translate(229.248047 0.015625)"/>
      <use xlink:href="#DejaVuSans-62" transform="translate(290.527344 0.015625)"/>
      <use xlink:href="#DejaVuSans-69" transform="translate(354.003906 0.015625)"/>
      <use xlink:href="#DejaVuSans-6c" transform="translate(381.787109 0.015625)"/>
      <use xlink:href="#DejaVuSans-69" transform="translate(409.570312 0.015625)"/>
      <use xlink:href="#DejaVuSans-74" transform="translate(437.353516 0.015625)"/>
      <use xlink:href="#DejaVuSans-79" transform="translate(476.5625 0.015625)"/>
      <use xlink:href="#DejaVuSans-20" transform="translate(535.742188 0.015625)"/>
      <use xlink:href="#DejaVuSans-Oblique-50" transform="translate(567.529297 0.015625)"/>
     </g>
    </g>
    <g id="text_13">
     <!-- $\times\mathdefault{10^{−4}}\mathdefault{}$ -->
     <g transform="translate(19.9865 13.529498) scale(0.0833 -0.0833)">
      <defs>
       <path id="DejaVuSans-d7" d="M 4488 3438 
L 3059 2003 
L 4488 575 
L 4116 197 
L 2681 1631 
L 1247 197 
L 878 575 
L 2303 2003 
L 878 3438 
L 1247 3816 
L 2681 2381 
L 4116 3816 
L 4488 3438 
z
" transform="scale(0.015625)"/>
       <path id="DejaVuSans-2212" d="M 678 2272 
L 4684 2272 
L 4684 1741 
L 678 1741 
L 678 2272 
z
" transform="scale(0.015625)"/>
       <path id="DejaVuSans-34" d="M 2419 4116 
L 825 1625 
L 2419 1625 
L 2419 4116 
z
M 2253 4666 
L 3047 4666 
L 3047 1625 
L 3713 1625 
L 3713 1100 
L 3047 1100 
L 3047 0 
L 2419 0 
L 2419 1100 
L 313 1100 
L 313 1709 
L 2253 4666 
z
" transform="scale(0.015625)"/>
      </defs>
      <use xlink:href="#DejaVuSans-d7" transform="translate(0 0.684375)"/>
      <use xlink:href="#DejaVuSans-31" transform="translate(83.789062 0.684375)"/>
      <use xlink:href="#DejaVuSans-30" transform="translate(147.412109 0.684375)"/>
      <use xlink:href="#DejaVuSans-2212" transform="translate(211.992188 38.965625) scale(0.7)"/>
      <use xlink:href="#DejaVuSans-34" transform="translate(270.644531 38.965625) scale(0.7)"/>
     </g>
    </g>
   </g>
   <g id="patch_3">
    <path d="M 54.330445 123.325772 
L 54.330445 21.615035 
L 55.237305 21.615035 
L 55.237305 47.042719 
L 56.144165 47.042719 
L 56.144165 97.898088 
L 57.051025 97.898088 
L 57.051025 47.042719 
L 57.957884 47.042719 
L 57.957884 97.898088 
L 58.864744 97.898088 
L 58.864744 123.325772 
L 59.771604 123.325772 
L 59.771604 72.470403 
L 60.678463 72.470403 
L 60.678463 123.325772 
L 61.585323 123.325772 
L 61.585323 123.325772 
L 62.492183 123.325772 
L 62.492183 47.042719 
L 63.399042 47.042719 
L 63.399042 97.898088 
L 64.305902 97.898088 
L 64.305902 123.325772 
L 65.212762 123.325772 
L 65.212762 72.470403 
L 66.119622 72.470403 
L 66.119622 97.898088 
L 67.026481 97.898088 
L 67.026481 97.898088 
L 67.933341 97.898088 
L 67.933341 72.470403 
L 68.840201 72.470403 
L 68.840201 97.898088 
L 69.74706 97.898088 
L 69.74706 97.898088 
L 70.65392 97.898088 
L 70.65392 123.325772 
L 71.56078 123.325772 
L 71.56078 97.898088 
L 72.467639 97.898088 
L 72.467639 123.325772 
L 73.374499 123.325772 
L 73.374499 97.898088 
L 74.281359 97.898088 
L 74.281359 97.898088 
L 75.188219 97.898088 
L 75.188219 97.898088 
L 76.095078 97.898088 
L 76.095078 97.898088 
L 77.001938 97.898088 
L 77.001938 123.325772 
L 77.908798 123.325772 
L 77.908798 123.325772 
L 78.815657 123.325772 
L 78.815657 123.325772 
L 79.722517 123.325772 
L 79.722517 123.325772 
L 80.629377 123.325772 
L 80.629377 123.325772 
L 81.536236 123.325772 
L 81.536236 123.325772 
L 82.443096 123.325772 
L 82.443096 123.325772 
L 83.349956 123.325772 
L 83.349956 123.325772 
L 84.256815 123.325772 
L 84.256815 97.898088 
L 85.163675 97.898088 
L 85.163675 123.325772 
L 86.070535 123.325772 
L 86.070535 123.325772 
L 86.977395 123.325772 
L 86.977395 123.325772 
L 87.884254 123.325772 
L 87.884254 123.325772 
L 88.791114 123.325772 
L 88.791114 123.325772 
L 89.697974 123.325772 
L 89.697974 123.325772 
L 90.604833 123.325772 
L 90.604833 123.325772 
L 91.511693 123.325772 
L 91.511693 123.325772 
L 92.418553 123.325772 
L 92.418553 123.325772 
L 93.325412 123.325772 
L 93.325412 123.325772 
L 94.232272 123.325772 
L 94.232272 123.325772 
L 95.139132 123.325772 
L 95.139132 123.325772 
L 96.045992 123.325772 
L 96.045992 123.325772 
L 96.952851 123.325772 
L 96.952851 97.898088 
L 97.859711 97.898088 
L 97.859711 123.325772 
L 98.766571 123.325772 
L 98.766571 123.325772 
" clip-path="url(#pe842f3dc26)"/>
   </g>
   <g id="patch_4">
    <path d="M 54.330445 123.325772 
L 54.422419 123.325772 
L 54.606366 85.277186 
L 54.652353 85.277186 
L 54.8363 61.986232 
L 54.882287 61.986232 
L 55.066234 50.641931 
L 55.112221 50.641931 
L 55.204195 42.610567 
L 55.296168 44.819192 
L 55.342155 44.819192 
L 55.526102 32.772147 
L 55.572089 32.772147 
L 55.618076 40.100766 
L 55.664063 31.165874 
L 55.756036 34.679595 
L 55.802023 34.679595 
L 55.939983 30.96509 
L 55.84801 37.892141 
L 55.98597 32.671754 
L 56.031957 32.671754 
L 56.169917 30.764306 
L 56.215904 41.30547 
L 56.261891 41.30547 
L 56.445838 34.980772 
L 56.491825 34.980772 
L 56.629785 45.622328 
L 56.675772 43.012135 
L 56.767746 43.012135 
L 56.813733 40.000374 
L 56.951693 46.124289 
L 56.99768 46.124289 
L 57.13564 42.208999 
L 57.089653 49.13605 
L 57.181627 43.815272 
L 57.227614 43.815272 
L 57.273601 39.297629 
L 57.411561 50.441147 
L 57.457548 50.441147 
L 57.457548 55.962709 
L 57.549521 46.927425 
L 57.641495 53.754084 
L 57.687482 53.754084 
L 57.779455 50.541539 
L 57.733469 54.858397 
L 57.871429 52.54938 
L 57.917416 52.54938 
L 57.917416 52.147811 
L 58.055376 54.657612 
L 58.101363 54.356436 
L 58.14735 54.356436 
L 58.28531 59.175255 
L 58.331297 51.947027 
L 58.377284 51.947027 
L 58.515244 61.685056 
L 58.561231 61.685056 
L 58.607218 61.685056 
L 58.607218 58.673294 
L 58.699191 62.688976 
L 58.791165 61.785448 
L 58.837152 61.785448 
L 59.021099 63.492112 
L 59.067086 63.492112 
L 59.067086 60.379959 
L 59.205046 71.824652 
L 59.251033 64.797209 
L 59.29702 64.797209 
L 59.43498 67.909362 
L 59.343007 60.781527 
L 59.480967 65.399561 
L 59.526954 65.399561 
L 59.664914 73.832493 
L 59.710901 66.102306 
L 59.756888 66.102306 
L 59.756888 63.893681 
L 59.802875 69.716419 
L 59.940835 69.314851 
L 59.986822 69.314851 
L 60.032809 72.627789 
L 60.032809 69.013675 
L 60.170769 72.125828 
L 60.216756 72.125828 
L 60.262743 75.840334 
L 60.400703 70.820732 
L 60.44669 70.820732 
L 60.538663 74.936806 
L 60.492677 70.318772 
L 60.630637 72.427005 
L 60.676624 72.427005 
L 60.860571 76.944647 
L 60.906558 76.944647 
L 60.906558 72.326612 
L 61.090505 79.253664 
L 61.136492 79.253664 
L 61.182479 75.840334 
L 61.274452 81.06072 
L 61.320439 77.848175 
L 61.366426 77.848175 
L 61.504386 83.771306 
L 61.550373 82.265425 
L 61.59636 82.265425 
L 61.642347 78.450527 
L 61.73432 83.570522 
L 61.780307 81.361897 
L 61.826294 81.361897 
L 61.872281 84.373658 
L 61.964254 80.55876 
L 62.010241 84.273266 
L 62.056228 84.273266 
L 62.056228 88.288948 
L 62.240175 83.269345 
L 62.286162 83.269345 
L 62.332149 86.883459 
L 62.470109 84.674834 
L 62.516096 84.674834 
L 62.654056 88.38934 
L 62.700043 88.288948 
L 62.74603 88.288948 
L 62.792017 90.497573 
L 62.88399 85.578363 
L 62.929977 90.196397 
L 62.975964 90.196397 
L 62.975964 93.30855 
L 63.067937 89.594044 
L 63.159911 91.200317 
L 63.205898 91.200317 
L 63.205898 89.192476 
L 63.389845 95.316391 
L 63.435832 95.316391 
L 63.527805 90.397181 
L 63.619779 93.30855 
L 63.665766 93.30855 
L 63.757739 88.790908 
L 63.849713 94.212078 
L 63.941687 94.212078 
L 63.941687 91.601885 
L 64.079647 96.822272 
L 64.125634 95.015215 
L 64.171621 95.015215 
L 64.171621 91.903061 
L 64.217607 95.918743 
L 64.355568 93.509334 
L 64.401555 93.509334 
L 64.585502 98.026976 
L 64.631489 98.026976 
L 64.631489 95.416783 
L 64.815436 96.822272 
L 64.861423 96.822272 
L 64.999383 99.432465 
L 64.907409 95.416783 
L 65.04537 97.324232 
L 65.091357 97.324232 
L 65.137343 98.930505 
L 65.275304 97.7258 
L 65.321291 97.7258 
L 65.321291 97.123448 
L 65.367277 100.536777 
L 65.505238 98.528936 
L 65.551225 98.528936 
L 65.643198 100.737561 
L 65.689185 97.424624 
L 65.735172 99.030897 
L 65.781159 99.030897 
L 65.781159 98.328152 
L 65.827145 101.540698 
L 65.965106 98.729721 
L 66.011093 98.729721 
L 66.057079 101.64109 
L 66.19504 100.235601 
L 66.241027 100.235601 
L 66.241027 103.247363 
L 66.287013 99.231681 
L 66.424974 102.444226 
L 66.470961 102.444226 
L 66.562934 100.637169 
L 66.516947 104.050499 
L 66.654908 101.339914 
L 66.700895 101.339914 
L 66.884842 104.351675 
L 66.930829 104.351675 
L 67.022802 101.841874 
L 67.114776 103.648931 
L 67.160763 103.648931 
L 67.160763 101.64109 
L 67.34471 105.154811 
L 67.390697 105.154811 
L 67.390697 103.046578 
L 67.574644 103.950107 
L 67.620631 103.950107 
L 67.804578 106.761084 
L 67.850565 106.761084 
L 67.850565 104.652851 
L 68.034512 107.463828 
L 68.080499 107.463828 
L 68.172472 104.351675 
L 68.264446 105.054419 
L 68.310433 105.054419 
L 68.356419 104.652851 
L 68.49438 108.568141 
L 68.540367 108.568141 
L 68.540367 105.656772 
L 68.678327 109.572061 
L 68.724314 108.768925 
L 68.770301 108.768925 
L 68.770301 106.961868 
L 68.908261 108.969709 
L 68.954248 107.162652 
L 69.046221 107.162652 
L 69.138195 110.877158 
L 69.230169 107.965789 
L 69.276155 107.965789 
L 69.460103 110.47559 
L 69.506089 110.47559 
L 69.64405 107.564221 
L 69.690037 112.583823 
L 69.736023 112.583823 
L 69.873984 109.772846 
L 69.919971 111.278726 
L 69.965957 111.278726 
L 69.965957 109.070101 
L 70.149905 112.182255 
L 70.195891 112.182255 
L 70.195891 109.672453 
L 70.241878 113.386959 
L 70.379839 110.375198 
L 70.425825 110.375198 
L 70.563786 111.680294 
L 70.471812 108.869317 
L 70.609773 111.680294 
L 70.655759 111.680294 
L 70.655759 113.688135 
L 70.79372 111.47951 
L 70.839707 111.47951 
L 70.885693 111.47951 
L 70.885693 113.186175 
L 70.93168 109.070101 
L 71.069641 112.583823 
L 71.115627 112.583823 
L 71.115627 111.278726 
L 71.299575 113.386959 
L 71.345561 113.386959 
L 71.437535 112.383039 
L 71.529509 114.190096 
L 71.575495 114.190096 
L 71.759443 111.47951 
L 71.805429 111.47951 
L 71.94339 114.290488 
L 71.989377 112.383039 
L 72.035363 112.383039 
L 72.173324 115.3948 
L 72.219311 115.194016 
L 72.265297 115.194016 
L 72.357271 115.89676 
L 72.449245 112.784607 
L 72.495231 112.784607 
L 72.495231 114.993232 
L 72.679179 114.491272 
L 72.725165 114.491272 
L 72.771152 113.587743 
L 72.863126 115.3948 
L 72.909113 114.993232 
L 72.955099 114.993232 
L 72.955099 116.097544 
L 73.09306 113.989311 
L 73.139047 114.491272 
L 73.185033 114.491272 
L 73.277007 115.595584 
L 73.23102 113.386959 
L 73.368981 115.294408 
L 73.414967 115.294408 
L 73.552928 113.386959 
L 73.506941 116.699897 
L 73.598915 115.89676 
L 73.690888 115.997152 
L 73.690888 116.298328 
L 73.782862 114.190096 
L 73.874835 115.495192 
L 73.920822 115.495192 
L 73.920822 113.888919 
L 73.966809 116.900681 
L 74.104769 115.695976 
L 74.150756 115.695976 
L 74.196743 115.093624 
L 74.334703 117.503033 
L 74.38069 117.503033 
L 74.518651 115.595584 
L 74.564637 116.800289 
L 74.610624 116.800289 
L 74.656611 117.904601 
L 74.702598 116.097544 
L 74.794571 117.804209 
L 74.840558 117.804209 
L 74.886545 116.900681 
L 75.024505 117.302249 
L 75.070492 117.302249 
L 75.116479 116.097544 
L 75.208453 117.904601 
L 75.254439 117.101465 
L 75.300426 117.101465 
L 75.300426 118.306169 
L 75.3924 116.197936 
L 75.484373 117.603425 
L 75.53036 117.603425 
L 75.53036 115.695976 
L 75.622334 118.306169 
L 75.714307 116.499113 
L 75.760294 116.499113 
L 75.944241 119.510874 
L 75.990228 119.510874 
L 76.036215 117.503033 
L 76.174175 118.908522 
L 76.220162 118.908522 
L 76.220162 119.711658 
L 76.404109 117.101465 
L 76.450096 117.101465 
L 76.450096 119.109306 
L 76.634043 118.607346 
L 76.726017 118.506954 
L 76.726017 117.904601 
L 76.817991 119.510874 
L 76.909964 118.707738 
L 76.955951 118.707738 
L 77.093911 119.008914 
L 77.139898 116.900681 
L 77.185885 116.900681 
L 77.231872 119.209698 
L 77.369832 118.406561 
L 77.415819 118.406561 
L 77.553779 119.611266 
L 77.599766 119.410482 
L 77.645753 119.410482 
L 77.69174 118.707738 
L 77.737727 119.81205 
L 77.8297 119.008914 
L 77.875687 119.008914 
L 77.875687 117.503033 
L 77.921674 120.012834 
L 78.059634 119.31009 
L 78.105621 119.31009 
L 78.105621 120.012834 
L 78.289568 118.707738 
L 78.335555 118.707738 
L 78.427529 120.012834 
L 78.519502 119.008914 
L 78.565489 119.008914 
L 78.565489 120.615186 
L 78.749436 120.012834 
L 78.795423 120.012834 
L 78.795423 118.406561 
L 78.97937 120.012834 
L 79.025357 120.012834 
L 79.071344 118.205777 
L 79.163318 120.615186 
L 79.209304 120.213618 
L 79.301278 120.213618 
L 79.439238 119.410482 
L 79.393252 120.31401 
L 79.485225 119.81205 
L 79.531212 119.81205 
L 79.531212 120.414402 
L 79.623186 119.410482 
L 79.715159 119.510874 
L 79.761146 119.510874 
L 79.899106 121.016755 
L 79.945093 120.514794 
L 79.99108 120.514794 
L 79.99108 120.31401 
L 80.083054 121.217539 
L 80.175027 120.916363 
L 80.221014 120.916363 
L 80.267001 121.016755 
L 80.404961 120.012834 
L 80.542922 119.912442 
L 80.542922 119.81205 
L 80.680882 121.117147 
L 80.726869 120.213618 
L 80.772856 120.213618 
L 80.864829 121.619107 
L 80.956803 120.514794 
L 81.048776 120.514794 
L 81.048776 120.916363 
L 81.14075 119.81205 
L 81.232724 120.213618 
L 81.27871 120.213618 
L 81.416671 121.217539 
L 81.370684 120.113226 
L 81.462658 120.916363 
L 81.508644 120.916363 
L 81.508644 120.414402 
L 81.646605 121.819891 
L 81.692592 121.217539 
L 81.738578 121.217539 
L 81.738578 120.113226 
L 81.830552 121.920283 
L 81.922526 120.514794 
L 81.968512 120.514794 
L 82.014499 120.414402 
L 82.15246 121.418323 
L 82.198446 121.418323 
L 82.198446 121.619107 
L 82.29042 120.715579 
L 82.382394 120.815971 
L 82.42838 120.815971 
L 82.474367 121.619107 
L 82.520354 120.113226 
L 82.612328 120.414402 
L 82.658314 120.414402 
L 82.704301 121.418323 
L 82.842262 120.615186 
L 82.888248 120.615186 
L 82.934235 121.518715 
L 83.026209 120.113226 
L 83.072196 121.518715 
L 83.118182 121.518715 
L 83.256143 121.117147 
L 83.30213 121.217539 
L 83.348116 121.217539 
L 83.348116 122.321851 
L 83.44009 121.117147 
L 83.532064 121.217539 
L 83.57805 121.217539 
L 83.670024 122.522635 
L 83.716011 120.916363 
L 83.761998 121.819891 
L 83.807984 121.819891 
L 83.899958 122.522635 
L 83.853971 120.815971 
L 83.991932 121.619107 
L 84.037918 121.619107 
L 84.037918 122.121067 
L 84.083905 120.715579 
L 84.221866 121.619107 
L 84.313839 121.518715 
L 84.313839 121.418323 
L 84.497786 122.422243 
L 84.543773 122.422243 
L 84.543773 121.217539 
L 84.72772 121.619107 
L 84.773707 121.619107 
L 84.773707 122.422243 
L 84.957654 121.719499 
L 85.003641 121.719499 
L 85.003641 121.117147 
L 85.187588 122.121067 
L 85.233575 122.121067 
L 85.233575 120.916363 
L 85.417522 122.121067 
L 85.509496 122.121067 
L 85.509496 121.619107 
L 85.693443 122.723419 
L 85.73943 122.723419 
L 85.87739 121.819891 
L 85.923377 122.422243 
L 86.061338 122.321851 
L 86.107324 122.522635 
L 86.245285 121.117147 
L 86.291272 121.117147 
L 86.291272 122.823811 
L 86.475219 122.221459 
L 86.521206 122.221459 
L 86.521206 122.020675 
L 86.705153 122.723419 
L 86.75114 122.723419 
L 86.935087 121.518715 
L 86.981074 121.518715 
L 87.165021 122.522635 
L 87.211008 122.522635 
L 87.348968 122.723419 
L 87.394955 121.418323 
L 87.440942 121.418323 
L 87.440942 122.422243 
L 87.624889 122.422243 
L 87.854823 122.422243 
L 87.854823 122.020675 
L 88.03877 122.723419 
L 88.084757 122.723419 
L 88.084757 121.920283 
L 88.268704 122.823811 
L 88.314691 122.823811 
L 88.452651 121.819891 
L 88.498638 122.723419 
L 88.544625 122.723419 
L 88.544625 121.719499 
L 88.728572 122.321851 
L 88.774559 122.321851 
L 88.774559 122.823811 
L 88.958506 122.823811 
L 89.004493 122.823811 
L 89.004493 122.121067 
L 89.18844 122.623027 
L 89.234427 122.623027 
L 89.234427 122.823811 
L 89.418374 122.121067 
L 89.464361 122.121067 
L 89.510348 122.823811 
L 89.648308 122.422243 
L 89.694295 122.422243 
L 89.786268 122.924204 
L 89.878242 122.823811 
L 89.924229 122.823811 
L 89.924229 122.422243 
L 90.108176 123.024596 
L 90.154163 123.024596 
L 90.154163 122.020675 
L 90.33811 122.020675 
L 90.384097 122.020675 
L 90.568044 122.924204 
L 90.614031 122.924204 
L 90.706004 122.422243 
L 90.751991 123.22538 
L 90.797978 122.723419 
L 90.843965 122.723419 
L 90.981925 122.221459 
L 90.889952 122.924204 
L 91.027912 122.823811 
L 91.073899 122.823811 
L 91.211859 123.124988 
L 91.257846 122.522635 
L 91.303833 122.522635 
L 91.34982 121.920283 
L 91.48778 123.024596 
L 91.62574 123.124988 
L 91.809688 122.522635 
L 91.855674 122.522635 
L 91.993635 123.124988 
L 92.039622 122.924204 
L 92.085608 122.924204 
L 92.085608 122.321851 
L 92.269556 122.924204 
L 92.315542 122.924204 
L 92.315542 122.723419 
L 92.407516 123.124988 
L 92.49949 122.823811 
L 92.591463 122.723419 
L 92.591463 123.124988 
L 92.77541 122.522635 
L 92.821397 122.522635 
L 93.005344 123.22538 
L 93.051331 123.22538 
L 93.189292 122.422243 
L 93.235278 122.924204 
L 93.327252 122.924204 
L 93.465212 122.422243 
L 93.511199 123.024596 
L 93.557186 123.024596 
L 93.695146 122.723419 
L 93.741133 123.124988 
L 93.78712 123.124988 
L 93.833107 123.22538 
L 93.971067 122.321851 
L 94.017054 122.321851 
L 94.109028 123.124988 
L 94.201001 123.024596 
L 94.292975 122.924204 
L 94.292975 123.22538 
L 94.338962 122.623027 
L 94.476922 123.124988 
L 94.752843 123.024596 
L 94.752843 122.623027 
L 94.890803 123.124988 
L 94.93679 122.924204 
L 94.982777 122.924204 
L 94.982777 123.124988 
L 95.07475 122.823811 
L 95.166724 123.124988 
L 95.212711 123.124988 
L 95.212711 123.325772 
L 95.396658 122.823811 
L 95.442645 122.823811 
L 95.488632 123.124988 
L 95.534618 122.723419 
L 95.626592 123.124988 
L 95.672579 123.124988 
L 95.856526 122.723419 
L 95.902513 122.723419 
L 96.040473 123.325772 
L 96.08646 123.024596 
L 96.408368 123.024596 
L 96.500341 123.325772 
L 96.546328 122.723419 
L 96.592315 123.124988 
L 96.776262 123.22538 
L 96.914222 122.623027 
L 96.960209 123.024596 
L 97.006196 123.024596 
L 97.006196 123.22538 
L 97.144156 122.924204 
L 97.190143 122.924204 
L 97.23613 122.924204 
L 97.23613 123.325772 
L 97.420077 123.124988 
L 97.695998 123.22538 
L 97.741985 122.823811 
L 97.879945 123.124988 
L 98.017906 123.22538 
L 98.017906 123.325772 
L 98.201853 122.823811 
L 98.24784 122.823811 
L 98.293826 123.325772 
L 98.431787 123.22538 
L 98.477774 123.22538 
L 98.615734 122.823811 
L 98.661721 123.024596 
L 98.707708 123.024596 
L 98.753694 123.325772 
L 98.891655 123.124988 
L 99.075602 123.024596 
L 99.075602 122.924204 
L 99.167576 123.325772 
L 99.259549 123.124988 
L 99.443496 123.22538 
L 99.443496 123.325772 
L 99.627444 123.22538 
L 99.949351 123.124988 
L 100.041325 122.823811 
L 100.087312 123.22538 
L 100.133298 123.22538 
L 100.179285 123.22538 
L 100.225272 122.924204 
L 100.363232 123.22538 
L 100.409219 123.22538 
L 100.501193 122.924204 
L 100.455206 123.325772 
L 100.593166 123.124988 
L 100.639153 123.124988 
L 100.639153 123.325772 
L 100.777114 123.024596 
L 100.8231 123.22538 
L 100.869087 123.22538 
L 100.869087 123.024596 
L 101.007048 123.325772 
L 101.053034 123.325772 
L 101.145008 123.22538 
L 101.145008 123.124988 
L 101.328955 123.22538 
L 101.604876 123.124988 
L 101.604876 123.024596 
L 101.742836 123.325772 
L 101.788823 123.22538 
L 101.926784 123.325772 
L 101.926784 122.924204 
L 102.110731 123.325772 
L 102.202704 123.325772 
L 102.202704 123.124988 
L 102.386652 123.22538 
L 102.524612 123.124988 
L 102.524612 123.024596 
L 102.616586 123.325772 
L 102.708559 123.024596 
L 102.754546 123.024596 
L 102.754546 123.22538 
L 102.892506 122.924204 
L 102.938493 123.124988 
L 102.98448 123.124988 
L 102.98448 123.325772 
L 103.168427 123.124988 
L 103.214414 123.124988 
L 103.214414 123.325772 
L 103.398361 123.325772 
L 103.812242 123.22538 
L 103.812242 123.024596 
L 103.904216 123.325772 
L 103.99619 123.22538 
L 104.731978 123.325772 
L 104.731978 122.823811 
L 104.915926 123.124988 
L 104.961912 123.124988 
L 104.961912 123.325772 
L 105.14586 123.325772 
L 105.28382 123.325772 
L 105.28382 123.024596 
L 105.467767 123.325772 
L 106.57145 123.22538 
L 106.57145 123.124988 
L 106.663424 123.325772 
L 106.755398 123.22538 
L 107.031318 123.22538 
L 107.031318 123.024596 
L 107.123292 123.325772 
L 107.215266 123.325772 
L 107.905068 123.325772 
L 107.905068 123.124988 
L 108.089015 123.22538 
L 108.916777 123.22538 
L 108.916777 123.024596 
L 108.962764 123.325772 
L 109.100724 123.22538 
L 110.940196 123.325772 
L 110.940196 123.024596 
L 111.124144 123.325772 
L 111.446051 123.325772 
L 111.446051 123.124988 
L 111.629998 123.325772 
L 112.04388 123.325772 
L 112.04388 123.124988 
L 112.227827 123.325772 
L 113.699404 123.325772 
L 113.699404 123.124988 
L 113.883352 123.325772 
L 114.61914 123.325772 
L 114.61914 123.024596 
L 114.803088 123.325772 
L 117.056441 123.22538 
L 117.056441 123.124988 
L 117.102428 123.325772 
L 117.240388 123.22538 
L 147.68365 123.22538 
L 147.68365 123.325772 
" clip-path="url(#pe842f3dc26)" style="fill: none; stroke: #264653; stroke-linejoin: miter"/>
   </g>
   <g id="patch_5">
    <path d="M 54.330445 123.325772 
L 54.514393 123.325772 
L 54.69834 96.927307 
L 54.790313 96.927307 
L 54.974261 77.842969 
L 55.066234 77.842969 
L 55.250181 66.718121 
L 55.342155 66.718121 
L 55.526102 59.035215 
L 55.710049 58.943021 
L 55.893997 54.056692 
L 56.077944 53.933766 
L 56.077944 54.456204 
L 56.169917 50.461093 
L 56.261891 51.905479 
L 56.353865 51.905479 
L 56.445838 51.813284 
L 56.537812 53.503523 
L 56.629785 53.503523 
L 56.721759 52.243527 
L 56.813733 52.704501 
L 56.905706 52.704501 
L 56.99768 54.456204 
L 57.089653 54.333277 
L 57.181627 54.333277 
L 57.365574 56.976197 
L 57.457548 56.976197 
L 57.641495 60.387407 
L 57.733469 60.387407 
L 57.825442 57.683024 
L 57.917416 62.292768 
L 58.009389 62.292768 
L 58.009389 59.373263 
L 58.193337 60.940576 
L 58.28531 60.940576 
L 58.377284 58.820094 
L 58.469257 61.77033 
L 58.561231 61.77033 
L 58.745178 65.949831 
L 58.837152 65.949831 
L 58.837152 65.243003 
L 58.929125 67.609338 
L 59.021099 67.302022 
L 59.113073 67.302022 
L 59.205046 66.472268 
L 59.29702 69.72982 
L 59.388993 69.72982 
L 59.480967 70.498111 
L 59.572941 68.900067 
L 59.664914 68.900067 
L 59.756888 72.895178 
L 59.848861 71.881034 
L 59.940835 71.881034 
L 60.124782 75.107855 
L 60.216756 75.107855 
L 60.216756 74.708343 
L 60.308729 76.15273 
L 60.400703 75.107855 
L 60.492677 75.107855 
L 60.492677 76.582972 
L 60.58465 73.6942 
L 60.676624 76.306388 
L 60.768597 76.306388 
L 60.952545 80.024914 
L 61.044518 80.024914 
L 61.044518 77.627848 
L 61.228465 79.901988 
L 61.412413 79.74833 
L 61.504386 83.036613 
L 61.59636 81.100521 
L 61.688333 81.100521 
L 61.780307 80.977595 
L 61.872281 82.852224 
L 61.964254 82.852224 
L 61.964254 82.452713 
L 62.056228 84.173683 
L 62.148201 83.774172 
L 62.240175 83.774172 
L 62.240175 85.003437 
L 62.424122 84.849779 
L 62.516096 84.849779 
L 62.516096 86.478555 
L 62.700043 86.447824 
L 62.792017 86.447824 
L 62.88399 88.568306 
L 62.975964 86.93953 
L 63.067937 86.93953 
L 63.159911 88.599037 
L 63.251885 87.216114 
L 63.435832 87.400504 
L 63.435832 89.797571 
L 63.619779 89.736107 
L 63.711753 89.736107 
L 63.803726 88.168794 
L 63.8957 92.44049 
L 63.987673 92.44049 
L 64.171621 89.889765 
L 64.263594 89.889765 
L 64.355568 94.069266 
L 64.447541 93.300976 
L 64.631489 93.485365 
L 64.631489 92.286832 
L 64.815436 93.854145 
L 64.907409 93.854145 
L 64.907409 93.147317 
L 64.999383 95.08341 
L 65.091357 94.499509 
L 65.18333 94.499509 
L 65.18333 94.007803 
L 65.275304 96.927307 
L 65.367277 95.667311 
L 65.459251 95.667311 
L 65.459251 98.463888 
L 65.643198 96.681454 
L 65.827145 96.804381 
L 66.011093 98.279499 
L 66.103066 98.279499 
L 66.103066 98.740473 
L 66.287013 98.740473 
L 66.378987 98.740473 
L 66.562934 100.738028 
L 66.654908 100.738028 
L 66.654908 100.031201 
L 66.838855 100.031201 
L 66.930829 100.031201 
L 66.930829 99.81608 
L 67.114776 101.475587 
L 67.206749 101.475587 
L 67.206749 100.492175 
L 67.298723 102.489731 
L 67.390697 101.444856 
L 67.48267 101.444856 
L 67.48267 100.338517 
L 67.666617 103.749728 
L 67.758591 103.749728 
L 67.758591 101.90583 
L 67.942538 102.151683 
L 68.034512 102.151683 
L 68.218459 105.347772 
L 68.310433 105.347772 
L 68.402406 103.903386 
L 68.49438 105.87021 
L 68.586353 105.87021 
L 68.586353 104.640945 
L 68.770301 105.593625 
L 68.862274 105.593625 
L 69.046221 104.610213 
L 69.138195 104.610213 
L 69.230169 104.518018 
L 69.322142 106.699963 
L 69.414116 106.699963 
L 69.414116 105.532162 
L 69.598063 107.837033 
L 69.78201 107.898497 
L 69.873984 106.6385 
L 69.965957 107.898497 
L 70.057931 107.898497 
L 70.057931 106.669232 
L 70.241878 109.28142 
L 70.333852 109.28142 
L 70.333852 108.052155 
L 70.517799 108.697519 
L 70.609773 108.697519 
L 70.609773 109.588736 
L 70.701746 108.605324 
L 70.79372 109.250688 
L 70.885693 109.250688 
L 70.977667 109.742394 
L 71.069641 109.435078 
L 71.161614 109.435078 
L 71.161614 108.943372 
L 71.345561 109.834589 
L 71.529509 109.926784 
L 71.529509 110.295563 
L 71.621482 109.127762 
L 71.713456 109.250688 
L 71.805429 109.250688 
L 71.805429 111.094586 
L 71.989377 110.295563 
L 72.08135 110.295563 
L 72.08135 111.862876 
L 72.265297 111.401902 
L 72.357271 111.401902 
L 72.357271 110.264832 
L 72.541218 110.60288 
L 72.725165 110.695074 
L 72.725165 112.784825 
L 72.909113 112.170192 
L 73.001086 112.170192 
L 73.09306 112.938483 
L 73.185033 111.401902 
L 73.277007 111.401902 
L 73.277007 113.061409 
L 73.460954 112.477509 
L 73.552928 112.477509 
L 73.644901 112.446777 
L 73.736875 113.399457 
L 73.828849 113.399457 
L 73.920822 113.460921 
L 74.012796 112.538972 
L 74.104769 112.538972 
L 74.196743 114.19848 
L 74.288717 112.969215 
L 74.38069 112.969215 
L 74.472664 114.167748 
L 74.564637 113.307262 
L 74.656611 113.307262 
L 74.840558 114.628722 
L 75.024505 114.751649 
L 75.116479 115.120428 
L 75.208453 114.751649 
L 75.300426 114.751649 
L 75.3924 114.044821 
L 75.484373 114.106285 
L 75.576347 114.106285 
L 75.576347 115.120428 
L 75.760294 114.813112 
L 75.852268 114.813112 
L 76.036215 115.704329 
L 76.220162 115.612134 
L 76.312136 115.980914 
L 76.404109 115.458476 
L 76.588057 115.304818 
L 76.772004 116.349693 
L 76.955951 116.257498 
L 76.955951 117.271642 
L 77.047925 115.980914 
L 77.139898 116.380425 
L 77.231872 116.380425 
L 77.415819 117.271642 
L 77.599766 117.148715 
L 77.599766 116.226767 
L 77.783713 117.333105 
L 77.875687 117.333105 
L 77.875687 116.872131 
L 78.059634 117.548226 
L 78.151608 117.548226 
L 78.151608 117.917006 
L 78.243581 116.872131 
L 78.335555 117.4253 
L 78.427529 117.4253 
L 78.519502 118.070664 
L 78.611476 117.4253 
L 78.795423 117.394568 
L 78.97937 117.947738 
L 79.071344 117.947738 
L 79.071344 118.685297 
L 79.163318 117.24091 
L 79.255291 118.070664 
L 79.347265 118.070664 
L 79.347265 118.992613 
L 79.531212 118.255054 
L 79.623186 118.255054 
L 79.623186 117.917006 
L 79.807133 118.623833 
L 80.083054 118.623833 
L 80.083054 118.408712 
L 80.267001 119.146271 
L 80.358974 119.146271 
L 80.358974 118.132127 
L 80.542922 118.193591 
L 80.634895 118.193591 
L 80.726869 119.054076 
L 80.818842 118.777491 
L 81.00279 118.93115 
L 81.00279 118.37798 
L 81.094763 119.730172 
L 81.186737 118.808223 
L 81.27871 118.808223 
L 81.462658 119.853098 
L 81.554631 119.853098 
L 81.554631 119.299929 
L 81.738578 119.299929 
L 81.922526 119.392124 
L 82.014499 119.115539 
L 82.106473 120.406267 
L 82.198446 120.406267 
L 82.29042 118.992613 
L 82.382394 119.637977 
L 82.474367 119.637977 
L 82.474367 120.006756 
L 82.566341 119.177003 
L 82.658314 119.88383 
L 82.750288 119.88383 
L 82.750288 119.668709 
L 82.842262 119.976025 
L 82.934235 119.945293 
L 83.118182 119.791635 
L 83.118182 119.607245 
L 83.210156 120.621389 
L 83.30213 119.730172 
L 83.486077 119.760903 
L 83.486077 120.098951 
L 83.670024 119.760903 
L 83.761998 119.760903 
L 83.945945 120.990168 
L 84.037918 120.990168 
L 84.129892 120.129683 
L 84.221866 120.314073 
L 84.313839 120.314073 
L 84.313839 120.682852 
L 84.405813 120.221878 
L 84.497786 120.221878 
L 84.58976 120.221878 
L 84.58976 120.559926 
L 84.681734 119.976025 
L 84.773707 120.037488 
L 84.865681 120.037488 
L 84.865681 121.051632 
L 85.049628 120.283341 
L 85.233575 120.406267 
L 85.325549 121.113095 
L 85.417522 120.713584 
L 85.60147 120.775047 
L 85.60147 121.20529 
L 85.693443 120.590657 
L 85.785417 120.713584 
L 86.061338 120.805779 
L 86.061338 121.297485 
L 86.153311 120.65212 
L 86.245285 121.051632 
L 86.521206 121.082363 
L 86.521206 121.266753 
L 86.705153 120.959437 
L 86.8891 121.0209 
L 86.981074 120.775047 
L 87.073047 121.328216 
L 87.624889 121.358948 
L 87.624889 120.744315 
L 87.808836 121.574069 
L 88.084757 121.451143 
L 88.084757 121.20529 
L 88.268704 121.574069 
L 88.452651 121.481874 
L 88.544625 121.635532 
L 88.636598 121.236021 
L 88.820546 121.389679 
L 88.912519 121.758459 
L 89.004493 121.727727 
L 89.18844 121.819922 
L 89.372387 121.389679 
L 89.464361 121.389679 
L 89.464361 121.850654 
L 89.648308 121.604801 
L 89.740282 121.604801 
L 89.740282 122.004312 
L 89.832255 121.512606 
L 89.924229 121.604801 
L 90.20015 121.635532 
L 90.292123 122.280896 
L 90.384097 121.912117 
L 90.47607 121.912117 
L 90.47607 121.543338 
L 90.568044 121.942849 
L 90.660018 121.881385 
L 90.935938 121.850654 
L 90.935938 122.096507 
L 91.027912 121.758459 
L 91.119886 122.035044 
L 91.395806 122.065775 
L 91.395806 121.758459 
L 91.579754 122.434555 
L 91.671727 122.434555 
L 91.763701 122.188702 
L 91.855674 122.280896 
L 92.039622 122.311628 
L 92.131595 121.97358 
L 92.223569 122.065775 
L 92.315542 122.065775 
L 92.315542 122.434555 
L 92.49949 122.004312 
L 92.683437 121.881385 
L 92.867384 122.34236 
L 93.143305 122.280896 
L 93.143305 122.004312 
L 93.235278 122.526749 
L 93.327252 122.434555 
L 93.511199 122.557481 
L 93.511199 122.004312 
L 93.695146 122.127238 
L 93.78712 122.127238 
L 93.78712 122.465286 
L 93.879094 122.096507 
L 93.971067 122.280896 
L 94.155014 122.465286 
L 94.246988 122.649676 
L 94.338962 122.250165 
L 94.890803 122.280896 
L 94.890803 122.588213 
L 94.982777 122.219433 
L 95.07475 122.311628 
L 95.350671 122.311628 
L 95.350671 122.618944 
L 95.534618 122.311628 
L 95.626592 122.311628 
L 95.626592 122.618944 
L 95.810539 122.618944 
L 95.994486 122.649676 
L 95.994486 122.403823 
L 96.178434 122.465286 
L 96.270407 122.465286 
L 96.270407 122.680408 
L 96.454354 122.618944 
L 96.638302 122.434555 
L 96.730275 122.219433 
L 96.822249 122.465286 
L 96.914222 122.465286 
L 97.09817 122.741871 
L 97.650011 122.834066 
L 97.650011 122.526749 
L 97.833958 122.895529 
L 97.925932 122.895529 
L 97.925932 122.434555 
L 98.109879 122.741871 
L 99.029615 122.834066 
L 99.029615 122.956992 
L 99.121589 122.741871 
L 99.213562 122.895529 
L 100.593166 122.803334 
L 100.593166 123.141382 
L 100.777114 122.987724 
L 100.869087 122.987724 
L 100.869087 122.772602 
L 101.053034 123.202845 
L 101.145008 123.202845 
L 101.236982 122.618944 
L 101.328955 122.987724 
L 102.340665 122.956992 
L 102.340665 122.711139 
L 102.432638 123.018455 
L 102.524612 122.864797 
L 102.616586 122.864797 
L 102.616586 123.079919 
L 102.800533 122.895529 
L 103.444348 122.926261 
L 103.444348 123.141382 
L 103.628295 123.141382 
L 103.812242 123.11065 
L 103.812242 122.926261 
L 103.99619 122.956992 
L 104.548031 123.079919 
L 104.548031 123.172114 
L 104.640005 122.864797 
L 104.731978 123.049187 
L 106.663424 123.11065 
L 106.663424 123.29504 
L 106.755398 123.049187 
L 106.847371 123.264308 
L 107.031318 123.11065 
L 107.031318 123.049187 
L 107.215266 123.172114 
L 173.25231 123.29504 
L 173.25231 123.325772 
" clip-path="url(#pe842f3dc26)" style="fill: none; stroke: #2a9d8f; stroke-linejoin: miter"/>
   </g>
   <g id="patch_6">
    <path d="M 54.330445 123.325772 
L 54.514393 123.325772 
L 54.69834 112.3628 
L 54.882287 112.3628 
L 55.066234 92.161897 
L 55.250181 92.161897 
L 55.434129 78.974281 
L 55.618076 78.974281 
L 55.802023 71.998701 
L 55.98597 71.998701 
L 56.169917 67.690809 
L 56.353865 67.690809 
L 56.537812 66.455943 
L 56.721759 66.455943 
L 56.905706 63.825961 
L 57.089653 63.825961 
L 57.089653 64.806313 
L 57.273601 63.759976 
L 57.457548 63.759976 
L 57.641495 66.455943 
L 57.825442 66.455943 
L 57.825442 65.522723 
L 58.009389 66.333399 
L 58.193337 66.333399 
L 58.377284 68.595749 
L 58.561231 68.595749 
L 58.561231 68.303529 
L 58.745178 69.500689 
L 58.929125 69.500689 
L 59.113073 72.828229 
L 59.29702 72.828229 
L 59.29702 73.902846 
L 59.480967 72.422892 
L 59.664914 72.422892 
L 59.848861 74.958609 
L 60.032809 74.958609 
L 60.032809 76.495122 
L 60.216756 75.920108 
L 60.400703 75.920108 
L 60.58465 77.409489 
L 60.768597 77.409489 
L 60.952545 80.699323 
L 61.320439 80.765308 
L 61.504386 82.876835 
L 61.688333 82.876835 
L 61.688333 84.262525 
L 61.872281 83.668658 
L 62.056228 83.668658 
L 62.056228 82.886261 
L 62.240175 84.026863 
L 62.424122 84.026863 
L 62.608069 85.516244 
L 62.792017 85.516244 
L 62.792017 88.051961 
L 62.975964 87.94827 
L 63.159911 87.94827 
L 63.159911 87.4958 
L 63.343858 89.484783 
L 63.527805 89.484783 
L 63.711753 90.191767 
L 64.079647 90.352017 
L 64.079647 91.256957 
L 64.263594 91.209825 
L 64.447541 91.209825 
L 64.631489 92.765191 
L 64.815436 92.765191 
L 64.999383 93.311925 
L 65.18333 93.311925 
L 65.367277 95.0841 
L 65.551225 95.0841 
L 65.551225 96.73373 
L 65.735172 96.026746 
L 65.919119 96.026746 
L 66.103066 96.903406 
L 66.287013 96.903406 
L 66.470961 98.307949 
L 66.654908 98.307949 
L 66.654908 97.704655 
L 66.838855 99.014933 
L 67.022802 99.014933 
L 67.206749 99.853888 
L 67.390697 99.853888 
L 67.390697 100.824813 
L 67.574644 100.108403 
L 67.942538 100.22152 
L 68.126485 101.814592 
L 68.310433 101.814592 
L 68.49438 102.361326 
L 68.862274 102.465017 
L 68.862274 103.41709 
L 69.046221 103.332252 
L 69.230169 103.332252 
L 69.414116 105.010161 
L 69.598063 105.010161 
L 69.598063 104.642529 
L 69.78201 105.019588 
L 69.965957 105.019588 
L 70.149905 105.67944 
L 70.333852 105.67944 
L 70.517799 106.018792 
L 70.701746 106.018792 
L 70.885693 106.952012 
L 71.621482 107.046277 
L 71.621482 108.092614 
L 71.805429 108.026628 
L 72.173324 108.177452 
L 72.173324 109.148377 
L 72.357271 108.827877 
L 72.541218 108.827877 
L 72.541218 109.836508 
L 72.725165 108.912715 
L 72.909113 108.912715 
L 73.09306 110.39267 
L 73.277007 110.39267 
L 73.277007 109.553715 
L 73.460954 110.119302 
L 73.828849 110.251273 
L 73.828849 111.457859 
L 74.012796 110.65661 
L 74.196743 110.65661 
L 74.196743 111.863197 
L 74.38069 111.693521 
L 74.748585 111.514418 
L 74.748585 112.400505 
L 74.932532 111.834918 
L 75.116479 111.834918 
L 75.116479 113.277166 
L 75.300426 112.400505 
L 75.484373 112.400505 
L 75.668321 113.060358 
L 76.036215 113.116916 
L 76.220162 113.748489 
L 76.220162 113.192328 
L 76.588057 113.201754 
L 76.588057 114.389488 
L 76.772004 114.163253 
L 76.955951 114.163253 
L 76.955951 114.823105 
L 77.139898 113.88046 
L 77.323845 113.88046 
L 77.323845 114.417768 
L 77.507793 114.370635 
L 77.875687 114.493179 
L 78.059634 114.955076 
L 78.427529 114.926796 
L 78.611476 116.001413 
L 78.795423 116.001413 
L 78.795423 115.492384 
L 78.97937 115.69034 
L 79.347265 115.596075 
L 79.531212 116.463309 
L 79.531212 116.208795 
L 79.899106 116.30306 
L 79.899106 116.463309 
L 80.083054 116.246501 
L 80.267001 116.246501 
L 80.450948 116.576427 
L 80.818842 116.604706 
L 80.818842 117.594484 
L 81.00279 117.255132 
L 81.370684 117.358823 
L 81.370684 117.754734 
L 81.554631 117.132588 
L 81.738578 117.132588 
L 81.738578 117.999822 
L 81.922526 117.208 
L 82.106473 117.208 
L 82.106473 117.707602 
L 82.29042 117.688749 
L 82.474367 117.688749 
L 82.474367 118.339175 
L 82.658314 117.688749 
L 82.842262 117.688749 
L 83.026209 118.263763 
L 83.57805 118.461719 
L 83.57805 117.990396 
L 83.761998 118.508851 
L 84.129892 118.348601 
L 84.129892 118.819924 
L 84.313839 118.640821 
L 84.681734 118.546557 
L 84.865681 119.60232 
L 85.049628 119.60232 
L 85.049628 118.942468 
L 85.233575 119.206409 
L 85.785417 119.234688 
L 85.785417 119.885114 
L 85.969364 119.649453 
L 86.8891 119.734291 
L 86.8891 120.007658 
L 87.073047 119.574041 
L 87.256994 119.574041 
L 87.440942 119.932246 
L 87.992783 119.951099 
L 88.17673 120.205614 
L 88.544625 120.224467 
L 88.544625 120.460128 
L 88.728572 120.384716 
L 89.280414 120.450702 
L 89.280414 120.799481 
L 89.464361 120.544966 
L 90.016202 120.460128 
L 90.016202 121.082274 
L 90.20015 120.752348 
L 90.751991 120.837186 
L 90.935938 121.129407 
L 91.671727 121.214245 
L 91.671727 121.346215 
L 91.855674 121.233098 
L 92.223569 121.035142 
L 92.223569 120.780628 
L 92.407516 121.129407 
L 92.959358 121.289656 
L 93.143305 121.60073 
L 94.982777 121.789259 
L 94.982777 121.864671 
L 95.166724 121.591303 
L 95.718566 121.742127 
L 95.902513 122.090906 
L 96.08646 122.090906 
L 96.270407 121.836391 
L 96.822249 121.987214 
L 96.822249 122.0532 
L 97.006196 121.987214 
L 97.190143 121.987214 
L 97.190143 122.34542 
L 97.37409 122.034347 
L 97.925932 122.147464 
L 97.925932 122.288861 
L 98.109879 122.128611 
L 99.581457 122.307714 
L 99.765404 122.383126 
L 101.788823 122.515096 
L 101.97277 122.722478 
L 101.97277 122.524523 
L 102.156718 122.524523 
L 102.156718 122.769611 
L 102.340665 122.524523 
L 103.628295 122.552802 
L 103.628295 122.750758 
L 103.812242 122.722478 
L 108.226975 122.863875 
L 108.226975 123.033551 
L 108.410922 122.826169 
L 110.066447 122.911007 
L 110.066447 123.071257 
L 110.250394 122.901581 
L 113.745391 123.071257 
L 113.745391 123.174948 
L 113.929338 123.061831 
L 123.862487 123.222081 
L 123.862487 123.278639 
L 124.046434 123.25036 
L 211.421355 123.316345 
L 211.421355 123.325772 
" clip-path="url(#pe842f3dc26)" style="fill: none; stroke: #e9c46a; stroke-linejoin: miter"/>
   </g>
   <g id="patch_7">
    <path d="M 46.4759 123.325772 
L 46.4759 16.529498 
" style="fill: none; stroke: #000000; stroke-width: 0.8; stroke-linejoin: miter; stroke-linecap: square"/>
   </g>
   <g id="patch_8">
    <path d="M 219.2759 123.325772 
L 219.2759 16.529498 
" style="fill: none; stroke: #000000; stroke-width: 0.8; stroke-linejoin: miter; stroke-linecap: square"/>
   </g>
   <g id="patch_9">
    <path d="M 46.4759 123.325772 
L 219.2759 123.325772 
" style="fill: none; stroke: #000000; stroke-width: 0.8; stroke-linejoin: miter; stroke-linecap: square"/>
   </g>
   <g id="patch_10">
    <path d="M 46.4759 16.529498 
L 219.2759 16.529498 
" style="fill: none; stroke: #000000; stroke-width: 0.8; stroke-linejoin: miter; stroke-linecap: square"/>
   </g>
   <g id="legend_1">
    <g id="text_14">
     <!-- $\tau_\mathrm{lag}$ [ns] -->
     <g transform="translate(229.318633 49.014129) scale(0.0833 -0.0833)">
      <use xlink:href="#DejaVuSans-Oblique-3c4" transform="translate(0 0.015625)"/>
      <use xlink:href="#DejaVuSans-6c" transform="translate(60.205078 -16.390625) scale(0.7)"/>
      <use xlink:href="#DejaVuSans-61" transform="translate(79.65332 -16.390625) scale(0.7)"/>
      <use xlink:href="#DejaVuSans-67" transform="translate(122.548828 -16.390625) scale(0.7)"/>
      <use xlink:href="#DejaVuSans-20" transform="translate(169.716797 0.015625)"/>
      <use xlink:href="#DejaVuSans-5b" transform="translate(201.503906 0.015625)"/>
      <use xlink:href="#DejaVuSans-6e" transform="translate(240.517578 0.015625)"/>
      <use xlink:href="#DejaVuSans-73" transform="translate(303.896484 0.015625)"/>
      <use xlink:href="#DejaVuSans-5d" transform="translate(355.996094 0.015625)"/>
     </g>
    </g>
    <g id="patch_11">
     <path d="M 228.6249 61.257927 
L 240.2869 61.257927 
L 240.2869 55.426927 
L 228.6249 55.426927 
z
"/>
    </g>
    <g id="text_15">
     <!-- MD -->
     <g transform="translate(244.4519 61.257927) scale(0.0833 -0.0833)">
      <defs>
       <path id="DejaVuSans-4d" d="M 628 4666 
L 1569 4666 
L 2759 1491 
L 3956 4666 
L 4897 4666 
L 4897 0 
L 4281 0 
L 4281 4097 
L 3078 897 
L 2444 897 
L 1241 4097 
L 1241 0 
L 628 0 
L 628 4666 
z
" transform="scale(0.015625)"/>
       <path id="DejaVuSans-44" d="M 1259 4147 
L 1259 519 
L 2022 519 
Q 2988 519 3436 956 
Q 3884 1394 3884 2338 
Q 3884 3275 3436 3711 
Q 2988 4147 2022 4147 
L 1259 4147 
z
M 628 4666 
L 1925 4666 
Q 3281 4666 3915 4102 
Q 4550 3538 4550 2338 
Q 4550 1131 3912 565 
Q 3275 0 1925 0 
L 628 0 
L 628 4666 
z
" transform="scale(0.015625)"/>
      </defs>
      <use xlink:href="#DejaVuSans-4d"/>
      <use xlink:href="#DejaVuSans-44" x="86.279297"/>
     </g>
    </g>
    <g id="line2d_21">
     <path d="M 228.6249 69.736305 
L 240.2869 69.736305 
" style="fill: none; stroke: #264653; stroke-linecap: square"/>
    </g>
    <g id="text_16">
     <!-- 10.0 -->
     <g transform="translate(244.4519 72.651805) scale(0.0833 -0.0833)">
      <use xlink:href="#DejaVuSans-31"/>
      <use xlink:href="#DejaVuSans-30" x="63.623047"/>
      <use xlink:href="#DejaVuSans-2e" x="127.246094"/>
      <use xlink:href="#DejaVuSans-30" x="159.033203"/>
     </g>
    </g>
    <g id="line2d_22">
     <path d="M 228.6249 81.130184 
L 240.2869 81.130184 
" style="fill: none; stroke: #2a9d8f; stroke-linecap: square"/>
    </g>
    <g id="text_17">
     <!-- 20.0 -->
     <g transform="translate(244.4519 84.045684) scale(0.0833 -0.0833)">
      <use xlink:href="#DejaVuSans-32"/>
      <use xlink:href="#DejaVuSans-30" x="63.623047"/>
      <use xlink:href="#DejaVuSans-2e" x="127.246094"/>
      <use xlink:href="#DejaVuSans-30" x="159.033203"/>
     </g>
    </g>
    <g id="line2d_23">
     <path d="M 228.6249 92.524062 
L 240.2869 92.524062 
" style="fill: none; stroke: #e9c46a; stroke-linecap: square"/>
    </g>
    <g id="text_18">
     <!-- 40.0 -->
     <g transform="translate(244.4519 95.439562) scale(0.0833 -0.0833)">
      <use xlink:href="#DejaVuSans-34"/>
      <use xlink:href="#DejaVuSans-30" x="63.623047"/>
      <use xlink:href="#DejaVuSans-2e" x="127.246094"/>
      <use xlink:href="#DejaVuSans-30" x="159.033203"/>
     </g>
    </g>
   </g>
  </g>
 </g>
 <defs>
  <clipPath id="pe842f3dc26">
   <rect x="46.4759" y="16.529498" width="172.8" height="106.796273"/>
  </clipPath>
 </defs>
</svg>
