<?xml version="1.0" encoding="utf-8" standalone="no"?>
<!DOCTYPE svg PUBLIC "-//W3C//DTD SVG 1.1//EN"
  "http://www.w3.org/Graphics/SVG/1.1/DTD/svg11.dtd">
<svg xmlns:xlink="http://www.w3.org/1999/xlink" width="144pt" height="144pt" viewBox="0 0 144 144" xmlns="http://www.w3.org/2000/svg" version="1.1">
 <metadata>
  <rdf:RDF xmlns:dc="http://purl.org/dc/elements/1.1/" xmlns:cc="http://creativecommons.org/ns#" xmlns:rdf="http://www.w3.org/1999/02/22-rdf-syntax-ns#">
   <cc:Work>
    <dc:type rdf:resource="http://purl.org/dc/dcmitype/StillImage"/>
    <dc:date>2023-03-09T16:29:26.434177</dc:date>
    <dc:format>image/svg+xml</dc:format>
    <dc:creator>
     <cc:Agent>
      <dc:title>Matplotlib v3.6.0, https://matplotlib.org/</dc:title>
     </cc:Agent>
    </dc:creator>
   </cc:Work>
  </rdf:RDF>
 </metadata>
 <defs>
  <style type="text/css">*{stroke-linejoin: round; stroke-linecap: butt}</style>
 </defs>
 <g id="figure_1">
  <g id="patch_1">
   <path d="M 0 144 
L 144 144 
L 144 0 
L 0 0 
L 0 144 
z
" style="fill: none"/>
  </g>
  <g id="axes_1">
   <g id="LineCollection_1">
    <path d="M 26.843513 64.752505 
L 27.054467 63.900764 
L 27.3264 63.075145 
L 27.653293 62.280533 
L 28.029124 61.521814 
L 28.447874 60.803874 
L 28.903523 60.131599 
L 29.390052 59.509875 
L 29.90144 58.943589 
L 30.431668 58.437625 
L 30.974714 57.99687 
L 31.524561 57.62621 
L 32.075187 57.330531 
L 32.620573 57.114719 
L 33.154699 56.98366 
L 33.671544 56.94224 
L 34.16509 56.995344 
L 34.629315 57.147859 
L 35.058201 57.40467 
L 35.445727 57.770665 
" clip-path="url(#p97ac36571a)" style="fill: none; stroke: #000000; stroke-width: 0.717374"/>
    <path d="M 26.843513 64.752505 
L 27.538821 63.815859 
L 28.324842 63.060818 
L 29.189597 62.481853 
L 30.121109 62.073434 
L 31.1074 61.830032 
L 32.136491 61.746119 
L 33.196404 61.816167 
L 34.275163 62.034645 
L 35.360787 62.396025 
L 36.441301 62.894778 
L 37.504725 63.525376 
L 38.539082 64.282288 
L 39.532393 65.159988 
L 40.472681 66.152944 
L 41.347968 67.25563 
L 42.146276 68.462515 
L 42.855627 69.768071 
L 43.464042 71.166768 
L 43.959544 72.653079 
" clip-path="url(#p97ac36571a)" style="fill: none; stroke: #000000; stroke-width: 1.111814"/>
    <path d="M 26.843513 64.752505 
L 27.898702 64.910216 
L 28.998468 65.424151 
L 30.13127 66.267657 
L 31.285568 67.414082 
L 32.449825 68.836774 
L 33.612499 70.509081 
L 34.762052 72.404351 
L 35.886944 74.495931 
L 36.975636 76.75717 
L 38.016588 79.161414 
L 38.998261 81.682013 
L 39.909116 84.292314 
L 40.737612 86.965665 
L 41.472212 89.675414 
L 42.101375 92.394908 
L 42.613561 95.097495 
L 42.997232 97.756524 
L 43.240848 100.345342 
L 43.332869 102.837297 
" clip-path="url(#p97ac36571a)" style="fill: none; stroke: #000000; stroke-width: 0.151474"/>
    <path d="M 15.691685 58.302749 
L 16.161174 57.737783 
L 16.687937 57.298886 
L 17.26417 56.981544 
L 17.882067 56.781245 
L 18.533826 56.693473 
L 19.211641 56.713716 
L 19.907709 56.837459 
L 20.614225 57.06019 
L 21.323386 57.377395 
L 22.027387 57.78456 
L 22.718423 58.277172 
L 23.388692 58.850716 
L 24.030388 59.500679 
L 24.635708 60.222549 
L 25.196847 61.01181 
L 25.706001 61.86395 
L 26.155366 62.774455 
L 26.537138 63.738811 
L 26.843513 64.752505 
" clip-path="url(#p97ac36571a)" style="fill: none; stroke: #000000; stroke-width: 2.060801"/>
    <path d="M 26.843513 64.752505 
L 27.853598 64.991659 
L 28.929351 64.909735 
L 30.058086 64.527733 
L 31.227115 63.866656 
L 32.423754 62.947503 
L 33.635316 61.791278 
L 34.849115 60.418981 
L 36.052465 58.851614 
L 37.232679 57.110178 
L 38.377072 55.215675 
L 39.472958 53.189105 
L 40.50765 51.051471 
L 41.468462 48.823774 
L 42.342708 46.527015 
L 43.117703 44.182196 
L 43.780759 41.810318 
L 44.319191 39.432383 
L 44.720313 37.069391 
L 44.971439 34.742345 
" clip-path="url(#p97ac36571a)" style="fill: none; stroke: #000000; stroke-width: 0.127564"/>
    <path d="M 26.843513 64.752505 
L 28.088696 69.712727 
L 29.689848 74.515331 
L 31.611719 79.132255 
L 33.819058 83.535436 
L 36.276614 87.696813 
L 38.949137 91.588323 
L 41.801377 95.181905 
L 44.798083 98.449497 
L 47.904005 101.363036 
L 51.083892 103.894461 
L 54.302493 106.01571 
L 57.524559 107.69872 
L 60.714838 108.91543 
L 63.838081 109.637778 
L 66.859036 109.837701 
L 69.742453 109.487139 
L 72.453083 108.558028 
L 74.955674 107.022307 
L 77.214975 104.851913 
" clip-path="url(#p97ac36571a)" style="fill: none; stroke: #000000; stroke-width: 0.113676"/>
    <path d="M 26.843513 64.752505 
L 27.922503 67.610444 
L 29.225052 70.258269 
L 30.726667 72.688321 
L 32.402858 74.892937 
L 34.229133 76.864455 
L 36.181 78.595216 
L 38.233969 80.077557 
L 40.363548 81.303817 
L 42.545245 82.266334 
L 44.75457 82.957448 
L 46.96703 83.369498 
L 49.158135 83.494821 
L 51.303394 83.325756 
L 53.378314 82.854643 
L 55.358404 82.07382 
L 57.219174 80.975625 
L 58.936131 79.552398 
L 60.484785 77.796476 
L 61.840644 75.700199 
" clip-path="url(#p97ac36571a)" style="fill: none; stroke: #000000; stroke-width: 0.123747"/>
    <path d="M 35.445727 57.770665 
L 35.930081 57.68576 
L 36.444168 57.756338 
L 36.982032 57.971984 
L 37.537712 58.322284 
L 38.105253 58.796823 
L 38.678694 59.385185 
L 39.252079 60.076956 
L 39.819449 60.861721 
L 40.374847 61.729064 
L 40.912313 62.668573 
L 41.425891 63.66983 
L 41.909621 64.722422 
L 42.357547 65.815933 
L 42.76371 66.939949 
L 43.122151 68.084055 
L 43.426913 69.237836 
L 43.672038 70.390876 
L 43.851568 71.532763 
L 43.959544 72.653079 
" clip-path="url(#p97ac36571a)" style="fill: none; stroke: #000000; stroke-width: 9.847218"/>
    <path d="M 35.445727 57.770665 
L 36.289962 58.780117 
L 37.117794 60.119671 
L 37.923704 61.757789 
L 38.702171 63.662933 
L 39.447677 65.803565 
L 40.154702 68.148147 
L 40.817726 70.66514 
L 41.43123 73.323007 
L 41.989695 76.090209 
L 42.4876 78.935209 
L 42.919427 81.826467 
L 43.279655 84.732447 
L 43.562766 87.62161 
L 43.76324 90.462418 
L 43.875557 93.223333 
L 43.894198 95.872816 
L 43.813643 98.37933 
L 43.628374 100.711336 
L 43.332869 102.837297 
" clip-path="url(#p97ac36571a)" style="fill: none; stroke: #000000; stroke-width: 0.324206"/>
    <path d="M 15.691685 58.302749 
L 16.372129 56.886043 
L 17.170825 55.621526 
L 18.07395 54.509572 
L 19.067678 53.550554 
L 20.138187 52.744842 
L 21.271652 52.09281 
L 22.454248 51.59483 
L 23.672153 51.251274 
L 24.911541 51.062515 
L 26.158588 51.028926 
L 27.399472 51.150877 
L 28.620366 51.428743 
L 29.807448 51.862894 
L 30.946894 52.453704 
L 32.024878 53.201545 
L 33.027578 54.106789 
L 33.941169 55.169809 
L 34.751826 56.390977 
L 35.445727 57.770665 
" clip-path="url(#p97ac36571a)" style="fill: none; stroke: #000000; stroke-width: 0.128262"/>
    <path d="M 35.445727 57.770665 
L 35.485898 56.295359 
L 35.615086 54.757987 
L 35.826626 53.174664 
L 36.113851 51.561505 
L 36.470096 49.934625 
L 36.888693 48.310141 
L 37.362976 46.704168 
L 37.88628 45.132821 
L 38.451938 43.612215 
L 39.053284 42.158466 
L 39.683652 40.78769 
L 40.336376 39.516002 
L 41.004789 38.359517 
L 41.682225 37.334351 
L 42.362019 36.456619 
L 43.037503 35.742437 
L 43.702012 35.207921 
L 44.348879 34.869185 
L 44.971439 34.742345 
" clip-path="url(#p97ac36571a)" style="fill: none; stroke: #000000; stroke-width: 0.782846"/>
    <path d="M 35.445727 57.770665 
L 36.137191 60.262609 
L 37.010854 62.653623 
L 38.048244 64.93116 
L 39.230889 67.082671 
L 40.540318 69.095611 
L 41.95806 70.957431 
L 43.465643 72.655584 
L 45.044596 74.177522 
L 46.676447 75.5107 
L 48.342725 76.642569 
L 50.024958 77.560582 
L 51.704675 78.252191 
L 53.363404 78.704851 
L 54.982675 78.906012 
L 56.544015 78.843129 
L 58.028954 78.503653 
L 59.419019 77.875038 
L 60.695739 76.944736 
L 61.840644 75.700199 
" clip-path="url(#p97ac36571a)" style="fill: none; stroke: #000000; stroke-width: 0.303563"/>
    <path d="M 43.332869 102.837297 
L 43.73635 101.831653 
L 44.101149 100.641532 
L 44.426829 99.288059 
L 44.71295 97.792357 
L 44.959074 96.175548 
L 45.164763 94.458756 
L 45.329578 92.663105 
L 45.45308 90.809717 
L 45.534831 88.919715 
L 45.574392 87.014224 
L 45.571325 85.114365 
L 45.525191 83.241263 
L 45.435552 81.416041 
L 45.301969 79.659821 
L 45.124003 77.993728 
L 44.901216 76.438883 
L 44.63317 75.016412 
L 44.319425 73.747436 
L 43.959544 72.653079 
" clip-path="url(#p97ac36571a)" style="fill: none; stroke: #000000; stroke-width: 1.13741"/>
    <path d="M 15.691685 58.302749 
L 16.493562 60.802754 
L 17.483749 63.165807 
L 18.642464 65.381868 
L 19.949926 67.440893 
L 21.386352 69.33284 
L 22.93196 71.047666 
L 24.566968 72.575328 
L 26.271593 73.905786 
L 28.026054 75.028995 
L 29.810568 75.934913 
L 31.605354 76.613498 
L 33.390628 77.054707 
L 35.14661 77.248498 
L 36.853516 77.184828 
L 38.491565 76.853655 
L 40.040974 76.244936 
L 41.481962 75.348628 
L 42.794746 74.15469 
L 43.959544 72.653079 
" clip-path="url(#p97ac36571a)" style="fill: none; stroke: #000000; stroke-width: 0.173465"/>
    <path d="M 43.959544 72.653079 
L 43.515361 71.262678 
L 43.130462 69.654728 
L 42.804139 67.855758 
L 42.535683 65.892299 
L 42.324387 63.790881 
L 42.169542 61.578035 
L 42.070441 59.280291 
L 42.026375 56.924179 
L 42.036636 54.536229 
L 42.100515 52.142973 
L 42.217306 49.770939 
L 42.386298 47.446659 
L 42.606786 45.196663 
L 42.87806 43.047481 
L 43.199412 41.025643 
L 43.570134 39.157681 
L 43.989518 37.470123 
L 44.456855 35.989501 
L 44.971439 34.742345 
" clip-path="url(#p97ac36571a)" style="fill: none; stroke: #000000; stroke-width: 0.888087"/>
    <path d="M 43.959544 72.653079 
L 45.780041 79.023361 
L 48.068999 85.118184 
L 50.778589 90.906717 
L 53.860979 96.358129 
L 57.268339 101.441588 
L 60.952837 106.126263 
L 64.866642 110.381324 
L 68.961925 114.175939 
L 73.190853 117.479276 
L 77.505596 120.260505 
L 81.858324 122.488794 
L 86.201205 124.133313 
L 90.486408 125.16323 
L 94.666102 125.547713 
L 98.692458 125.255933 
L 102.517643 124.257057 
L 106.093827 122.520254 
L 109.373179 120.014694 
L 112.307868 116.709544 
" clip-path="url(#p97ac36571a)" style="fill: none; stroke: #000000; stroke-width: 0.106281"/>
    <path d="M 43.959544 72.653079 
L 44.709225 76.126991 
L 45.701962 79.530897 
L 46.914482 82.842265 
L 48.323513 86.038561 
L 49.905783 89.097252 
L 51.638018 91.995806 
L 53.496946 94.711689 
L 55.459296 97.222368 
L 57.501793 99.505309 
L 59.601166 101.537981 
L 61.734143 103.29785 
L 63.877451 104.762382 
L 66.007816 105.909045 
L 68.101968 106.715305 
L 70.136633 107.15863 
L 72.088538 107.216487 
L 73.934412 106.866341 
L 75.650982 106.085661 
L 77.214975 104.851913 
" clip-path="url(#p97ac36571a)" style="fill: none; stroke: #000000; stroke-width: 0.222897"/>
    <path d="M 43.959544 72.653079 
L 45.703626 76.239146 
L 47.748144 79.43282 
L 50.057855 82.233669 
L 52.597515 84.641261 
L 55.331882 86.655164 
L 58.225711 88.274946 
L 61.243759 89.500175 
L 64.350783 90.330418 
L 67.51154 90.765244 
L 70.690786 90.80422 
L 73.853277 90.446915 
L 76.963771 89.692897 
L 79.987024 88.541733 
L 82.887793 86.992991 
L 85.630834 85.046239 
L 88.180904 82.701045 
L 90.50276 79.956978 
L 92.561157 76.813604 
L 94.320854 73.270493 
" clip-path="url(#p97ac36571a)" style="fill: none; stroke: #000000; stroke-width: 0.113566"/>
    <path d="M 43.959544 72.653079 
L 44.543032 74.024707 
L 45.237166 75.273835 
L 46.02943 76.398331 
L 46.907313 77.396062 
L 47.858301 78.264895 
L 48.869881 79.002699 
L 49.929538 79.607341 
L 51.02476 80.076688 
L 52.143033 80.408608 
L 53.271845 80.600969 
L 54.39868 80.651638 
L 55.511027 80.558483 
L 56.596372 80.319371 
L 57.642201 79.932171 
L 58.636001 79.394749 
L 59.565259 78.704973 
L 60.417461 77.860711 
L 61.180094 76.859831 
L 61.840644 75.700199 
" clip-path="url(#p97ac36571a)" style="fill: none; stroke: #000000; stroke-width: 0.701591"/>
    <path d="M 43.959544 72.653079 
L 44.457575 70.536184 
L 45.105819 68.475542 
L 45.88962 66.483914 
L 46.794319 64.574063 
L 47.805258 62.758749 
L 48.90778 61.050734 
L 50.087226 59.46278 
L 51.328938 58.007649 
L 52.618258 56.698102 
L 53.940529 55.5469 
L 55.281092 54.566805 
L 56.625289 53.77058 
L 57.958463 53.170984 
L 59.265956 52.780781 
L 60.533108 52.612731 
L 61.745264 52.679597 
L 62.887764 52.994139 
L 63.945951 53.569119 
L 64.905166 54.4173 
" clip-path="url(#p97ac36571a)" style="fill: none; stroke: #000000; stroke-width: 0.142994"/>
    <path d="M 43.332869 102.837297 
L 44.250933 100.584497 
L 45.08307 97.913754 
L 45.828134 94.872724 
L 46.484977 91.509059 
L 47.052454 87.870412 
L 47.529416 84.004439 
L 47.914718 79.958791 
L 48.207213 75.781123 
L 48.405755 71.519088 
L 48.509195 67.220339 
L 48.516389 62.932532 
L 48.426189 58.703317 
L 48.237448 54.580351 
L 47.94902 50.611285 
L 47.559759 46.843774 
L 47.068516 43.325471 
L 46.474147 40.104029 
L 45.775503 37.227103 
L 44.971439 34.742345 
" clip-path="url(#p97ac36571a)" style="fill: none; stroke: #000000; stroke-width: 0.122727"/>
    <path d="M 43.332869 102.837297 
L 45.907677 98.437791 
L 48.873285 94.663254 
L 52.181422 91.50398 
L 55.783821 88.95026 
L 59.63221 86.992386 
L 63.678322 85.62065 
L 67.873886 84.825344 
L 72.170633 84.596761 
L 76.520293 84.925192 
L 80.874597 85.800929 
L 85.185277 87.214265 
L 89.404061 89.155492 
L 93.482682 91.614901 
L 97.372868 94.582784 
L 101.026352 98.049435 
L 104.394863 102.005144 
L 107.430133 106.440204 
L 110.083891 111.344906 
L 112.307868 116.709544 
" clip-path="url(#p97ac36571a)" style="fill: none; stroke: #000000; stroke-width: 0.122097"/>
    <path d="M 43.332869 102.837297 
L 44.486031 105.305565 
L 45.843567 107.51935 
L 47.381767 109.477245 
L 49.07692 111.177839 
L 50.905313 112.619721 
L 52.843237 113.801483 
L 54.86698 114.721714 
L 56.952832 115.379005 
L 59.07708 115.771946 
L 61.216015 115.899126 
L 63.345924 115.759136 
L 65.443098 115.350566 
L 67.483824 114.672007 
L 69.444392 113.722048 
L 71.301092 112.499279 
L 73.03021 111.002291 
L 74.608038 109.229674 
L 76.010863 107.180018 
L 77.214975 104.851913 
" clip-path="url(#p97ac36571a)" style="fill: none; stroke: #000000; stroke-width: 0.2161"/>
    <path d="M 43.332869 102.837297 
L 45.480432 105.41772 
L 47.88975 107.421273 
L 50.52514 108.868649 
L 53.350922 109.780539 
L 56.331412 110.177633 
L 59.43093 110.080623 
L 62.613793 109.5102 
L 65.844319 108.487055 
L 69.086827 107.03188 
L 72.305634 105.165365 
L 75.465058 102.908202 
L 78.529419 100.281081 
L 81.463032 97.304694 
L 84.230218 93.999733 
L 86.795293 90.386888 
L 89.122576 86.48685 
L 91.176386 82.320311 
L 92.921039 77.907961 
L 94.320854 73.270493 
" clip-path="url(#p97ac36571a)" style="fill: none; stroke: #000000; stroke-width: 0.111783"/>
    <path d="M 43.332869 102.837297 
L 44.319838 103.203281 
L 45.378771 103.262289 
L 46.496715 103.033311 
L 47.66072 102.53534 
L 48.857832 101.787364 
L 50.0751 100.808376 
L 51.299572 99.617366 
L 52.518296 98.233325 
L 53.71832 96.675244 
L 54.886693 94.962113 
L 56.010461 93.112924 
L 57.076674 91.146667 
L 58.07238 89.082333 
L 58.984626 86.938913 
L 59.80046 84.735397 
L 60.506931 82.490778 
L 61.091086 80.224044 
L 61.539975 77.954188 
L 61.840644 75.700199 
" clip-path="url(#p97ac36571a)" style="fill: none; stroke: #000000; stroke-width: 0.361495"/>
    <path d="M 15.691685 58.302749 
L 17.008145 59.555597 
L 18.46567 60.438029 
L 20.04377 60.966532 
L 21.721953 61.157595 
L 23.479731 61.027704 
L 25.296613 60.593348 
L 27.152108 59.871015 
L 29.025726 58.877192 
L 30.896978 57.628367 
L 32.745371 56.141029 
L 34.550418 54.431664 
L 36.291626 52.516761 
L 37.948506 50.412808 
L 39.500568 48.136292 
L 40.927321 45.703701 
L 42.208274 43.131523 
L 43.322939 40.436246 
L 44.250824 37.634357 
L 44.971439 34.742345 
" clip-path="url(#p97ac36571a)" style="fill: none; stroke: #000000; stroke-width: 0.138487"/>
    <path d="M 15.691685 58.302749 
L 17.243243 64.276665 
L 19.226167 70.043625 
L 21.597403 75.571054 
L 24.313896 80.826375 
L 27.332591 85.777013 
L 30.610434 90.390393 
L 34.10437 94.633938 
L 37.771345 98.475074 
L 41.568303 101.881225 
L 45.452191 104.819815 
L 49.379953 107.258268 
L 53.308535 109.16401 
L 57.194882 110.504464 
L 60.99594 111.247054 
L 64.668653 111.359206 
L 68.169968 110.808343 
L 71.45683 109.561891 
L 74.486184 107.587273 
L 77.214975 104.851913 
" clip-path="url(#p97ac36571a)" style="fill: none; stroke: #000000; stroke-width: 0.108056"/>
    <path d="M 15.691685 58.302749 
L 17.517033 55.641506 
L 19.59245 53.446688 
L 21.88564 51.706119 
L 24.364307 50.407624 
L 26.996156 49.539029 
L 29.748891 49.088158 
L 32.590217 49.042838 
L 35.487839 49.390892 
L 38.40946 50.120146 
L 41.322785 51.218425 
L 44.19552 52.673554 
L 46.995367 54.473358 
L 49.690032 56.605663 
L 52.247219 59.058293 
L 54.634633 61.819073 
L 56.819978 64.875829 
L 58.770958 68.216385 
L 60.455279 71.828567 
L 61.840644 75.700199 
" clip-path="url(#p97ac36571a)" style="fill: none; stroke: #000000; stroke-width: 0.149476"/>
    <path d="M 44.971439 34.742345 
L 46.979615 34.898998 
L 49.081084 35.726268 
L 51.253281 37.175093 
L 53.473642 39.196408 
L 55.719603 41.741151 
L 57.968599 44.760258 
L 60.198066 48.204665 
L 62.38544 52.025309 
L 64.508156 56.173127 
L 66.54365 60.599056 
L 68.469357 65.254031 
L 70.262713 70.08899 
L 71.901154 75.054869 
L 73.362115 80.102604 
L 74.623033 85.183133 
L 75.661342 90.247392 
L 76.454478 95.246317 
L 76.979877 100.130846 
L 77.214975 104.851913 
" clip-path="url(#p97ac36571a)" style="fill: none; stroke: #000000; stroke-width: 0.140971"/>
    <path d="M 44.971439 34.742345 
L 46.076172 34.973114 
L 47.223704 35.580184 
L 48.402229 36.534892 
L 49.599943 37.808576 
L 50.805039 39.372571 
L 52.005712 41.198217 
L 53.190158 43.25685 
L 54.346572 45.519807 
L 55.463147 47.958425 
L 56.528078 50.544043 
L 57.529561 53.247997 
L 58.45579 56.041624 
L 59.29496 58.896262 
L 60.035266 61.783247 
L 60.664901 64.673918 
L 61.172062 67.539612 
L 61.544943 70.351665 
L 61.771739 73.081415 
L 61.840644 75.700199 
" clip-path="url(#p97ac36571a)" style="fill: none; stroke: #000000; stroke-width: 0.297404"/>
    <path d="M 44.971439 34.742345 
L 45.416071 36.837682 
L 46.00692 38.893284 
L 46.730036 40.895384 
L 47.57147 42.830212 
L 48.517271 44.683999 
L 49.553489 46.442978 
L 50.666176 48.093379 
L 51.84138 49.621433 
L 53.065153 51.013372 
L 54.323544 52.255427 
L 55.602603 53.333829 
L 56.888382 54.23481 
L 58.166929 54.944601 
L 59.424295 55.449432 
L 60.64653 55.735536 
L 61.819685 55.789143 
L 62.929809 55.596486 
L 63.962953 55.143794 
L 64.905166 54.4173 
" clip-path="url(#p97ac36571a)" style="fill: none; stroke: #000000; stroke-width: 0.142965"/>
    <path d="M 77.214975 104.851913 
L 78.585671 102.780512 
L 80.148454 101.055632 
L 81.878764 99.668974 
L 83.752043 98.612242 
L 85.743734 97.877136 
L 87.829277 97.455359 
L 89.984114 97.338613 
L 92.183688 97.518599 
L 94.403439 97.98702 
L 96.618809 98.735578 
L 98.805239 99.755973 
L 100.938173 101.039909 
L 102.99305 102.579087 
L 104.945313 104.365208 
L 106.770403 106.389976 
L 108.443762 108.645092 
L 109.940831 111.122257 
L 111.237053 113.813174 
L 112.307868 116.709544 
" clip-path="url(#p97ac36571a)" style="fill: none; stroke: #000000; stroke-width: 0.171198"/>
    <path d="M 94.320854 73.270493 
L 95.495847 73.508455 
L 96.716801 74.146268 
L 97.97113 75.153533 
L 99.246245 76.49985 
L 100.529559 78.154822 
L 101.808485 80.088047 
L 103.070435 82.269128 
L 104.302822 84.667665 
L 105.493058 87.25326 
L 106.628555 89.995512 
L 107.696727 92.864023 
L 108.684985 95.828395 
L 109.580743 98.858227 
L 110.371412 101.92312 
L 111.044405 104.992676 
L 111.587134 108.036496 
L 111.987013 111.02418 
L 112.231454 113.925329 
L 112.307868 116.709544 
" clip-path="url(#p97ac36571a)" style="fill: none; stroke: #000000; stroke-width: 0.268903"/>
    <path d="M 61.840644 75.700199 
L 64.114783 73.554681 
L 66.631502 72.050001 
L 69.355484 71.15746 
L 72.251412 70.84836 
L 75.283967 71.094001 
L 78.417833 71.865686 
L 81.617691 73.134714 
L 84.848225 74.872388 
L 88.074117 77.050008 
L 91.260049 79.638876 
L 94.370704 82.610293 
L 97.370764 85.935561 
L 100.224912 89.58598 
L 102.897831 93.532851 
L 105.354203 97.747477 
L 107.55871 102.201158 
L 109.476035 106.865195 
L 111.07086 111.71089 
L 112.307868 116.709544 
" clip-path="url(#p97ac36571a)" style="fill: none; stroke: #000000; stroke-width: 0.131353"/>
    <path d="M 77.214975 104.851913 
L 78.209376 104.964069 
L 79.261157 104.753836 
L 80.358348 104.243318 
L 81.488977 103.454614 
L 82.641074 102.409825 
L 83.802668 101.131053 
L 84.961788 99.640399 
L 86.106463 97.959964 
L 87.224722 96.111848 
L 88.304594 94.118153 
L 89.334109 92.000979 
L 90.301296 89.782428 
L 91.194183 87.484601 
L 92.0008 85.129599 
L 92.709177 82.739522 
L 93.307341 80.336472 
L 93.783323 77.94255 
L 94.12515 75.579856 
L 94.320854 73.270493 
" clip-path="url(#p97ac36571a)" style="fill: none; stroke: #000000; stroke-width: 0.320305"/>
    <path d="M 77.214975 104.851913 
L 78.01156 98.537426 
L 79.221043 92.163395 
L 80.807667 85.7841 
L 82.735678 79.453818 
L 84.969319 73.226828 
L 87.472834 67.157407 
L 90.210469 61.299835 
L 93.146467 55.70839 
L 96.245073 50.43735 
L 99.470531 45.540993 
L 102.787085 41.073598 
L 106.15898 37.089443 
L 109.550461 33.642806 
L 112.925771 30.787966 
L 116.249155 28.579201 
L 119.484857 27.070789 
L 122.597121 26.317009 
L 125.550192 26.372138 
L 128.308315 27.290456 
" clip-path="url(#p97ac36571a)" style="fill: none; stroke: #000000; stroke-width: 0.107354"/>
    <path d="M 61.840644 75.700199 
L 62.006837 77.802483 
L 62.30544 79.957261 
L 62.725696 82.144133 
L 63.256844 84.342698 
L 63.888125 86.532556 
L 64.608781 88.693306 
L 65.408052 90.804547 
L 66.275179 92.845879 
L 67.199404 94.796901 
L 68.169966 96.637212 
L 69.176107 98.346411 
L 70.207067 99.904098 
L 71.252088 101.289873 
L 72.300411 102.483334 
L 73.341275 103.464081 
L 74.363923 104.211713 
L 75.357595 104.705829 
L 76.311532 104.92603 
L 77.214975 104.851913 
" clip-path="url(#p97ac36571a)" style="fill: none; stroke: #000000; stroke-width: 0.607249"/>
    <path d="M 94.320854 73.270493 
L 96.084576 74.076655 
L 97.985866 74.342017 
L 100.00094 74.098755 
L 102.106013 73.379047 
L 104.277299 72.215071 
L 106.491015 70.639002 
L 108.723376 68.68302 
L 110.950596 66.3793 
L 113.148892 63.760021 
L 115.294477 60.857359 
L 117.363568 57.703492 
L 119.332379 54.330598 
L 121.177127 50.770853 
L 122.874025 47.056436 
L 124.39929 43.219522 
L 125.729136 39.29229 
L 126.839779 35.306917 
L 127.707433 31.295579 
L 128.308315 27.290456 
" clip-path="url(#p97ac36571a)" style="fill: none; stroke: #000000; stroke-width: 0.195162"/>
    <path d="M 61.840644 75.700199 
L 63.001238 77.914638 
L 64.351622 79.859184 
L 65.869069 81.535537 
L 67.530846 82.945399 
L 69.314224 84.090468 
L 71.196474 84.972446 
L 73.154865 85.593033 
L 75.166667 85.953929 
L 77.20915 86.056835 
L 79.259585 85.903451 
L 81.295241 85.495477 
L 83.293388 84.834613 
L 85.231296 83.922561 
L 87.086236 82.761019 
L 88.835477 81.35169 
L 90.456289 79.696272 
L 91.925943 77.796466 
L 93.221708 75.653973 
L 94.320854 73.270493 
" clip-path="url(#p97ac36571a)" style="fill: none; stroke: #000000; stroke-width: 0.468004"/>
    <path d="M 61.840644 75.700199 
L 64.764959 78.720801 
L 68.016634 80.930708 
L 71.549154 82.3638 
L 75.316004 83.053953 
L 79.27067 83.035046 
L 83.366635 82.340956 
L 87.557387 81.00556 
L 91.796409 79.062737 
L 96.037188 76.546363 
L 100.233208 73.490317 
L 104.337955 69.928477 
L 108.304914 65.894719 
L 112.087569 61.422921 
L 115.639407 56.546962 
L 118.913913 51.300719 
L 121.864571 45.718069 
L 124.444867 39.83289 
L 126.608287 33.67906 
L 128.308315 27.290456 
" clip-path="url(#p97ac36571a)" style="fill: none; stroke: #000000; stroke-width: 0.113717"/>
    <path d="M 61.840644 75.700199 
L 61.678124 74.742936 
L 61.563736 73.683174 
L 61.495335 72.535808 
L 61.470776 71.315732 
L 61.487915 70.03784 
L 61.544608 68.717026 
L 61.638709 67.368184 
L 61.768074 66.006208 
L 61.930558 64.645991 
L 62.124018 63.302429 
L 62.346308 61.990414 
L 62.595283 60.724841 
L 62.8688 59.520604 
L 63.164713 58.392597 
L 63.480878 57.355714 
L 63.81515 56.424849 
L 64.165386 55.614895 
L 64.529439 54.940747 
L 64.905166 54.4173 
" clip-path="url(#p97ac36571a)" style="fill: none; stroke: #000000; stroke-width: 6.862382"/>
   </g>
   <g id="PathCollection_1">
    <path d="M 26.843513 72.767111 
C 28.969011 72.767111 31.007741 71.922641 32.510695 70.419687 
C 34.013649 68.916733 34.858119 66.878003 34.858119 64.752505 
C 34.858119 62.627006 34.013649 60.588277 32.510695 59.085322 
C 31.007741 57.582368 28.969011 56.737899 26.843513 56.737899 
C 24.718014 56.737899 22.679285 57.582368 21.17633 59.085322 
C 19.673376 60.588277 18.828907 62.627006 18.828907 64.752505 
C 18.828907 66.878003 19.673376 68.916733 21.17633 70.419687 
C 22.679285 71.922641 24.718014 72.767111 26.843513 72.767111 
z
" clip-path="url(#p97ac36571a)" style="fill: #46039f; stroke: #000000; stroke-width: 0.55"/>
    <path d="M 35.445727 64.119053 
C 37.129339 64.119053 38.744221 63.450146 39.934715 62.259653 
C 41.125208 61.069159 41.794115 59.454277 41.794115 57.770665 
C 41.794115 56.087052 41.125208 54.47217 39.934715 53.281676 
C 38.744221 52.091183 37.129339 51.422277 35.445727 51.422277 
C 33.762115 51.422277 32.147232 52.091183 30.956739 53.281676 
C 29.766245 54.47217 29.097339 56.087052 29.097339 57.770665 
C 29.097339 59.454277 29.766245 61.069159 30.956739 62.259653 
C 32.147232 63.450146 33.762115 64.119053 35.445727 64.119053 
z
" clip-path="url(#p97ac36571a)" style="fill: #46039f; stroke: #000000; stroke-width: 0.55"/>
    <path d="M 43.959544 78.959475 
C 45.63202 78.959475 47.23622 78.294993 48.418839 77.112374 
C 49.601458 75.929755 50.26594 74.325555 50.26594 72.653079 
C 50.26594 70.980603 49.601458 69.376403 48.418839 68.193784 
C 47.23622 67.011165 45.63202 66.346683 43.959544 66.346683 
C 42.287068 66.346683 40.682868 67.011165 39.500249 68.193784 
C 38.31763 69.376403 37.653148 70.980603 37.653148 72.653079 
C 37.653148 74.325555 38.31763 75.929755 39.500249 77.112374 
C 40.682868 78.294993 42.287068 78.959475 43.959544 78.959475 
z
" clip-path="url(#p97ac36571a)" style="fill: #46039f; stroke: #000000; stroke-width: 0.55"/>
    <path d="M 43.332869 107.591887 
C 44.593801 107.591887 45.803258 107.090913 46.694872 106.1993 
C 47.586485 105.307686 48.087459 104.098229 48.087459 102.837297 
C 48.087459 101.576365 47.586485 100.366908 46.694872 99.475295 
C 45.803258 98.583681 44.593801 98.082707 43.332869 98.082707 
C 42.071937 98.082707 40.86248 98.583681 39.970866 99.475295 
C 39.079253 100.366908 38.578279 101.576365 38.578279 102.837297 
C 38.578279 104.098229 39.079253 105.307686 39.970866 106.1993 
C 40.86248 107.090913 42.071937 107.591887 43.332869 107.591887 
z
" clip-path="url(#p97ac36571a)" style="fill: #7201a8; stroke: #000000; stroke-width: 0.55"/>
    <path d="M 15.691685 63.057339 
C 16.952617 63.057339 18.162074 62.556365 19.053687 61.664752 
C 19.945301 60.773138 20.446275 59.563681 20.446275 58.302749 
C 20.446275 57.041817 19.945301 55.83236 19.053687 54.940747 
C 18.162074 54.049133 16.952617 53.548159 15.691685 53.548159 
C 14.430753 53.548159 13.221296 54.049133 12.329682 54.940747 
C 11.438069 55.83236 10.937095 57.041817 10.937095 58.302749 
C 10.937095 59.563681 11.438069 60.773138 12.329682 61.664752 
C 13.221296 62.556365 14.430753 63.057339 15.691685 63.057339 
z
" clip-path="url(#p97ac36571a)" style="fill: #7201a8; stroke: #000000; stroke-width: 0.55"/>
    <path d="M 44.971439 39.496935 
C 46.232371 39.496935 47.441828 38.995961 48.333441 38.104348 
C 49.225055 37.212734 49.726028 36.003277 49.726028 34.742345 
C 49.726028 33.481413 49.225055 32.271956 48.333441 31.380343 
C 47.441828 30.488729 46.232371 29.987756 44.971439 29.987756 
C 43.710507 29.987756 42.50105 30.488729 41.609436 31.380343 
C 40.717823 32.271956 40.216849 33.481413 40.216849 34.742345 
C 40.216849 36.003277 40.717823 37.212734 41.609436 38.104348 
C 42.50105 38.995961 43.710507 39.496935 44.971439 39.496935 
z
" clip-path="url(#p97ac36571a)" style="fill: #9c179e; stroke: #000000; stroke-width: 0.55"/>
    <path d="M 112.307868 121.464134 
C 113.5688 121.464134 114.778258 120.96316 115.669871 120.071547 
C 116.561485 119.179933 117.062458 117.970476 117.062458 116.709544 
C 117.062458 115.448612 116.561485 114.239155 115.669871 113.347542 
C 114.778258 112.455928 113.5688 111.954954 112.307868 111.954954 
C 111.046937 111.954954 109.837479 112.455928 108.945866 113.347542 
C 108.054252 114.239155 107.553279 115.448612 107.553279 116.709544 
C 107.553279 117.970476 108.054252 119.179933 108.945866 120.071547 
C 109.837479 120.96316 111.046937 121.464134 112.307868 121.464134 
z
" clip-path="url(#p97ac36571a)" style="fill: #bd3786; stroke: #000000; stroke-width: 0.55"/>
    <path d="M 77.214975 109.606503 
C 78.475907 109.606503 79.685364 109.10553 80.576978 108.213916 
C 81.468591 107.322303 81.969565 106.112845 81.969565 104.851913 
C 81.969565 103.590982 81.468591 102.381524 80.576978 101.489911 
C 79.685364 100.598297 78.475907 100.097324 77.214975 100.097324 
C 75.954043 100.097324 74.744586 100.598297 73.852972 101.489911 
C 72.961359 102.381524 72.460385 103.590982 72.460385 104.851913 
C 72.460385 106.112845 72.961359 107.322303 73.852972 108.213916 
C 74.744586 109.10553 75.954043 109.606503 77.214975 109.606503 
z
" clip-path="url(#p97ac36571a)" style="fill: #bd3786; stroke: #000000; stroke-width: 0.55"/>
    <path d="M 94.320854 78.025082 
C 95.581786 78.025082 96.791243 77.524109 97.682857 76.632495 
C 98.57447 75.740882 99.075444 74.531425 99.075444 73.270493 
C 99.075444 72.009561 98.57447 70.800104 97.682857 69.90849 
C 96.791243 69.016877 95.581786 68.515903 94.320854 68.515903 
C 93.059922 68.515903 91.850465 69.016877 90.958851 69.90849 
C 90.067238 70.800104 89.566264 72.009561 89.566264 73.270493 
C 89.566264 74.531425 90.067238 75.740882 90.958851 76.632495 
C 91.850465 77.524109 93.059922 78.025082 94.320854 78.025082 
z
" clip-path="url(#p97ac36571a)" style="fill: #bd3786; stroke: #000000; stroke-width: 0.55"/>
    <path d="M 128.308315 32.045046 
C 129.569247 32.045046 130.778704 31.544072 131.670318 30.652458 
C 132.561931 29.760845 133.062905 28.551388 133.062905 27.290456 
C 133.062905 26.029524 132.561931 24.820067 131.670318 23.928453 
C 130.778704 23.03684 129.569247 22.535866 128.308315 22.535866 
C 127.047383 22.535866 125.837926 23.03684 124.946313 23.928453 
C 124.054699 24.820067 123.553725 26.029524 123.553725 27.290456 
C 123.553725 28.551388 124.054699 29.760845 124.946313 30.652458 
C 125.837926 31.544072 127.047383 32.045046 128.308315 32.045046 
z
" clip-path="url(#p97ac36571a)" style="fill: #d8576b; stroke: #000000; stroke-width: 0.55"/>
    <path d="M 61.840644 82.720202 
C 63.70237 82.720202 65.488096 81.98053 66.804536 80.664091 
C 68.120975 79.347652 68.860647 77.561926 68.860647 75.700199 
C 68.860647 73.838473 68.120975 72.052747 66.804536 70.736307 
C 65.488096 69.419868 63.70237 68.680196 61.840644 68.680196 
C 59.978917 68.680196 58.193192 69.419868 56.876752 70.736307 
C 55.560313 72.052747 54.820641 73.838473 54.820641 75.700199 
C 54.820641 77.561926 55.560313 79.347652 56.876752 80.664091 
C 58.193192 81.98053 59.978917 82.720202 61.840644 82.720202 
z
" clip-path="url(#p97ac36571a)" style="fill: #ed7953; stroke: #000000; stroke-width: 0.55"/>
    <path d="M 64.905166 59.171889 
C 66.166098 59.171889 67.375555 58.670916 68.267169 57.779302 
C 69.158783 56.887689 69.659756 55.678231 69.659756 54.4173 
C 69.659756 53.156368 69.158783 51.94691 68.267169 51.055297 
C 67.375555 50.163683 66.166098 49.66271 64.905166 49.66271 
C 63.644234 49.66271 62.434777 50.163683 61.543164 51.055297 
C 60.65155 51.94691 60.150577 53.156368 60.150577 54.4173 
C 60.150577 55.678231 60.65155 56.887689 61.543164 57.779302 
C 62.434777 58.670916 63.644234 59.171889 64.905166 59.171889 
z
" clip-path="url(#p97ac36571a)" style="fill: #fdca26; stroke: #000000; stroke-width: 0.55"/>
   </g>
   <g id="text_1">
    <!-- 1 -->
    <g style="fill: #ffffff" transform="translate(24.352853 67.215429) scale(0.1 -0.1)">
     <defs>
      <path id="LMRoman17-Regular-31" d="M 2458 0 
L 2458 166 
L 2266 166 
C 1715 166 1702 236 1702 467 
L 1702 4085 
C 1702 4217 1696 4224 1606 4224 
C 1357 3927 979 3833 621 3820 
C 602 3820 570 3820 563 3808 
C 557 3795 557 3782 557 3648 
C 755 3648 1088 3686 1344 3839 
L 1344 467 
C 1344 243 1331 166 781 166 
L 589 166 
L 589 0 
L 1523 12 
L 2458 0 
z
" transform="scale(0.015625)"/>
     </defs>
     <use xlink:href="#LMRoman17-Regular-31" transform="scale(0.996264)"/>
    </g>
   </g>
   <g id="text_2">
    <!-- 2 -->
    <g style="fill: #ffffff" transform="translate(32.955067 60.233589) scale(0.1 -0.1)">
     <defs>
      <path id="LMRoman17-Regular-32" d="M 2669 990 
L 2554 990 
C 2490 537 2438 460 2413 422 
C 2381 371 1920 371 1830 371 
L 602 371 
L 1824 1596 
C 2214 1966 2669 2400 2669 3033 
C 2669 3788 2067 4224 1395 4224 
C 691 4224 262 3603 262 3027 
C 262 2777 448 2745 525 2745 
C 589 2745 781 2783 781 3007 
C 781 3206 614 3264 525 3264 
C 486 3264 448 3257 422 3244 
C 544 3788 915 4057 1306 4057 
C 1862 4057 2227 3616 2227 3033 
C 2227 2477 1901 1998 1536 1583 
L 262 147 
L 262 0 
L 2515 0 
L 2669 990 
z
" transform="scale(0.015625)"/>
     </defs>
     <use xlink:href="#LMRoman17-Regular-32" transform="scale(0.996264)"/>
    </g>
   </g>
   <g id="text_3">
    <!-- 3 -->
    <g style="fill: #ffffff" transform="translate(41.468884 75.116003) scale(0.1 -0.1)">
     <defs>
      <path id="LMRoman17-Regular-33" d="M 2720 1094 
C 2720 1715 2208 2163 1600 2233 
C 2086 2335 2554 2771 2554 3353 
C 2554 3856 2048 4224 1472 4224 
C 890 4224 378 3862 378 3347 
C 378 3123 544 3084 627 3084 
C 762 3084 877 3167 877 3334 
C 877 3500 762 3584 627 3584 
C 602 3596 570 3596 544 3584 
C 730 4006 1235 4083 1459 4083 
C 1683 4083 2106 3974 2106 3360 
C 2106 3180 2080 2860 1862 2579 
C 1670 2329 1453 2316 1242 2297 
C 1210 2297 1062 2284 1037 2284 
C 992 2278 966 2272 966 2227 
C 966 2182 973 2176 1101 2176 
L 1414 2176 
C 1984 2176 2234 1673 2234 1094 
C 2234 322 1824 25 1453 25 
C 1114 25 563 193 390 691 
C 422 678 454 678 486 678 
C 640 671 755 774 755 940 
C 755 1132 614 1216 486 1216 
C 378 1216 211 1164 211 926 
C 211 334 787 -128 1466 -128 
C 2176 -128 2720 431 2720 1087 
L 2720 1094 
z
" transform="scale(0.015625)"/>
     </defs>
     <use xlink:href="#LMRoman17-Regular-33" transform="scale(0.996264)"/>
    </g>
   </g>
   <g id="text_4">
    <!-- 4 -->
    <g style="fill: #ffffff" transform="translate(40.842209 105.300222) scale(0.1 -0.1)">
     <defs>
      <path id="LMRoman17-Regular-34" d="M 2803 1088 
L 2803 1254 
L 2150 1254 
L 2150 4146 
C 2150 4281 2144 4288 2029 4288 
L 128 1254 
L 128 1088 
L 1779 1088 
L 1779 460 
C 1779 230 1766 166 1318 166 
L 1197 166 
L 1197 0 
C 1402 12 1747 12 1965 12 
C 2182 12 2528 12 2733 0 
L 2733 166 
L 2611 166 
C 2163 166 2150 230 2150 460 
L 2150 1088 
L 2803 1088 
z
M 1798 1254 
L 256 1254 
L 1798 3723 
L 1798 1254 
z
" transform="scale(0.015625)"/>
     </defs>
     <use xlink:href="#LMRoman17-Regular-34" transform="scale(0.996264)"/>
    </g>
   </g>
   <g id="text_5">
    <!-- 5 -->
    <g style="fill: #ffffff" transform="translate(13.201025 60.765674) scale(0.1 -0.1)">
     <defs>
      <path id="LMRoman17-Regular-35" d="M 2669 1260 
C 2669 2028 2170 2624 1549 2624 
C 1222 2624 947 2502 730 2271 
L 730 3692 
C 794 3667 1056 3584 1325 3584 
C 1920 3584 2246 3904 2432 4119 
C 2432 4183 2432 4224 2394 4224 
C 2394 4224 2374 4224 2323 4191 
C 2099 4071 1837 3974 1517 3974 
C 1325 3993 1037 4019 723 4160 
C 653 4224 634 4224 634 4224 
C 602 4192 595 4185 595 4057 
L 595 2206 
C 595 2092 595 2061 659 2061 
C 691 2061 704 2074 736 2118 
C 941 2401 1222 2521 1542 2521 
C 1766 2521 2246 2382 2246 1304 
C 2246 1103 2246 735 2054 441 
C 1894 166 1645 25 1370 25 
C 947 25 518 334 403 832 
C 429 806 480 793 506 793 
C 589 793 749 838 749 1036 
C 749 1209 627 1280 506 1280 
C 358 1280 262 1190 262 1011 
C 262 454 704 -128 1382 -128 
C 2042 -128 2669 441 2669 1267 
L 2669 1260 
z
" transform="scale(0.015625)"/>
     </defs>
     <use xlink:href="#LMRoman17-Regular-35" transform="scale(0.996264)"/>
    </g>
   </g>
   <g id="text_6">
    <!-- 6 -->
    <g style="fill: #ffffff" transform="translate(42.480779 37.20527) scale(0.1 -0.1)">
     <defs>
      <path id="LMRoman17-Regular-36" d="M 2688 1305 
C 2688 2105 2170 2688 1517 2688 
C 1126 2688 838 2431 678 1983 
L 678 2201 
C 678 3712 1395 4076 1811 4076 
C 1946 4076 2272 4049 2400 3782 
C 2298 3782 2106 3782 2106 3558 
C 2106 3385 2246 3328 2336 3328 
C 2394 3328 2566 3353 2566 3571 
C 2566 3993 2246 4224 1805 4224 
C 1043 4224 243 3427 243 2006 
C 243 257 966 -128 1478 -128 
C 2099 -135 2688 422 2688 1280 
L 2688 1305 
z
M 2253 1286 
C 2253 937 2253 684 2118 431 
C 1978 171 1773 25 1478 25 
C 691 25 691 1191 691 1427 
C 691 1901 909 2585 1504 2585 
C 1613 2585 1926 2585 2138 2131 
C 2253 1862 2253 1600 2253 1280 
L 2253 1286 
z
" transform="scale(0.015625)"/>
     </defs>
     <use xlink:href="#LMRoman17-Regular-36" transform="scale(0.996264)"/>
    </g>
   </g>
   <g id="text_7">
    <!-- 7 -->
    <g style="fill: #ffffff" transform="translate(109.817208 119.172469) scale(0.1 -0.1)">
     <defs>
      <path id="LMRoman17-Regular-37" d="M 2886 4006 
L 2886 4147 
L 1382 4147 
C 634 4147 621 4230 595 4352 
L 480 4352 
L 294 3148 
L 410 3148 
C 429 3271 474 3601 550 3724 
C 589 3776 1062 3776 1171 3776 
L 2579 3776 
L 1869 2707 
C 1395 1989 1069 1018 1069 169 
C 1069 92 1069 -128 1299 -128 
C 1530 -128 1530 92 1530 176 
L 1530 474 
C 1530 1535 1709 2235 2003 2681 
L 2886 4006 
z
" transform="scale(0.015625)"/>
     </defs>
     <use xlink:href="#LMRoman17-Regular-37" transform="scale(0.996264)"/>
    </g>
   </g>
   <g id="text_8">
    <!-- 8 -->
    <g style="fill: #ffffff" transform="translate(74.724315 107.314838) scale(0.1 -0.1)">
     <defs>
      <path id="LMRoman17-Regular-38" d="M 2720 1022 
C 2720 1607 2330 1877 2074 2051 
C 1984 2115 1933 2147 1741 2289 
C 2144 2494 2554 2803 2554 3298 
C 2554 3884 1990 4224 1472 4224 
C 890 4224 378 3800 378 3215 
C 378 3054 416 2777 666 2533 
C 730 2469 998 2276 1171 2154 
C 883 2006 211 1652 211 945 
C 211 282 838 -128 1459 -128 
C 2144 -128 2720 366 2720 1022 
z
M 2336 3298 
C 2336 2700 1670 2359 1638 2359 
C 1638 2359 1626 2359 1574 2398 
L 902 2855 
C 851 2887 595 3086 595 3388 
C 595 3781 998 4076 1459 4076 
C 1965 4076 2336 3716 2336 3298 
z
M 2483 861 
C 2483 385 2010 25 1472 25 
C 890 25 448 443 448 951 
C 448 1459 838 1884 1280 2083 
L 2080 1536 
C 2176 1466 2483 1253 2483 861 
z
" transform="scale(0.015625)"/>
     </defs>
     <use xlink:href="#LMRoman17-Regular-38" transform="scale(0.996264)"/>
    </g>
   </g>
   <g id="text_9">
    <!-- 9 -->
    <g style="fill: #ffffff" transform="translate(91.830194 75.733417) scale(0.1 -0.1)">
     <defs>
      <path id="LMRoman17-Regular-39" d="M 2688 2112 
C 2688 3860 1971 4224 1485 4224 
C 851 4224 243 3669 243 2816 
C 243 2022 762 1433 1414 1433 
C 1952 1433 2189 1932 2253 2144 
L 2253 1894 
C 2253 479 1670 25 1190 25 
C 1043 25 685 46 538 313 
C 704 287 826 377 826 537 
C 826 710 685 768 595 768 
C 538 762 365 736 365 514 
C 365 71 742 -128 1203 -128 
C 1939 -128 2688 690 2688 2112 
z
M 2240 2668 
C 2240 2214 2035 1536 1427 1536 
C 1254 1536 1011 1568 813 1952 
C 678 2201 678 2495 678 2809 
C 678 3185 678 3446 858 3726 
C 947 3860 1114 4076 1485 4076 
C 2240 4076 2240 2924 2240 2668 
L 2240 2668 
z
" transform="scale(0.015625)"/>
     </defs>
     <use xlink:href="#LMRoman17-Regular-39" transform="scale(0.996264)"/>
    </g>
   </g>
   <g id="text_10">
    <!-- 10 -->
    <g style="fill: #ffffff" transform="translate(123.326995 29.75338) scale(0.1 -0.1)">
     <defs>
      <path id="LMRoman17-Regular-30" d="M 2688 2038 
C 2688 2430 2682 3099 2413 3613 
C 2176 4063 1798 4224 1466 4224 
C 1158 4224 768 4082 525 3620 
C 269 3137 243 2539 243 2038 
C 243 1671 250 1112 448 623 
C 723 -39 1216 -128 1466 -128 
C 1760 -128 2208 -7 2470 604 
C 2662 1048 2688 1568 2688 2038 
z
M 2278 2109 
C 2278 1691 2278 1176 2202 797 
C 2067 96 1690 -26 1466 -26 
C 1056 -26 813 328 723 816 
C 653 1196 653 1749 653 2109 
C 653 2604 653 3015 736 3407 
C 858 3954 1216 4121 1466 4121 
C 1728 4121 2067 3947 2189 3420 
C 2272 3054 2278 2623 2278 2109 
z
" transform="scale(0.015625)"/>
     </defs>
     <use xlink:href="#LMRoman17-Regular-31" transform="scale(0.996264)"/>
     <use xlink:href="#LMRoman17-Regular-30" transform="translate(45.690948 0) scale(0.996264)"/>
    </g>
   </g>
   <g id="text_11">
    <!-- 11 -->
    <g transform="translate(56.859324 78.163124) scale(0.1 -0.1)">
     <use xlink:href="#LMRoman17-Regular-31" transform="scale(0.996264)"/>
     <use xlink:href="#LMRoman17-Regular-31" transform="translate(45.690948 0) scale(0.996264)"/>
    </g>
   </g>
   <g id="text_12">
    <!-- 12 -->
    <g transform="translate(59.923846 56.880224) scale(0.1 -0.1)">
     <use xlink:href="#LMRoman17-Regular-31" transform="scale(0.996264)"/>
     <use xlink:href="#LMRoman17-Regular-32" transform="translate(45.690948 0) scale(0.996264)"/>
    </g>
   </g>
  </g>
 </g>
 <defs>
  <clipPath id="p97ac36571a">
   <rect x="7.2" y="7.2" width="129.6" height="129.6"/>
  </clipPath>
 </defs>
</svg>
