<?xml version="1.0" encoding="utf-8" standalone="no"?>
<!DOCTYPE svg PUBLIC "-//W3C//DTD SVG 1.1//EN"
  "http://www.w3.org/Graphics/SVG/1.1/DTD/svg11.dtd">
<svg xmlns:xlink="http://www.w3.org/1999/xlink" width="208.138925pt" height="158.45034pt" viewBox="0 0 208.138925 158.45034" xmlns="http://www.w3.org/2000/svg" version="1.1">
 <metadata>
  <rdf:RDF xmlns:dc="http://purl.org/dc/elements/1.1/" xmlns:cc="http://creativecommons.org/ns#" xmlns:rdf="http://www.w3.org/1999/02/22-rdf-syntax-ns#">
   <cc:Work>
    <dc:type rdf:resource="http://purl.org/dc/dcmitype/StillImage"/>
    <dc:date>2023-04-21T14:45:47.332973</dc:date>
    <dc:format>image/svg+xml</dc:format>
    <dc:creator>
     <cc:Agent>
      <dc:title>Matplotlib v3.7.1, https://matplotlib.org/</dc:title>
     </cc:Agent>
    </dc:creator>
   </cc:Work>
  </rdf:RDF>
 </metadata>
 <defs>
  <style type="text/css">*{stroke-linejoin: round; stroke-linecap: butt}</style>
 </defs>
 <g id="figure_1">
  <g id="patch_1">
   <path d="M 0 158.45034 
L 208.138925 158.45034 
L 208.138925 0 
L 0 0 
L 0 158.45034 
z
" style="fill: none"/>
  </g>
  <g id="axes_1">
   <g id="patch_2">
    <path d="M 42.538925 121.488462 
L 200.938925 121.488462 
L 200.938925 23.591878 
L 42.538925 23.591878 
L 42.538925 121.488462 
z
" style="fill: none"/>
   </g>
   <g id="PolyCollection_1">
    <path d="M 42.538925 55832.329093 
L 42.538925 55832.329093 
L 200.938925 109.611569 
L 200.938925 55832.329093 
L 200.938925 55832.329093 
L 42.538925 55832.329093 
z
" clip-path="url(#p1fb8c6ae62)" style="fill: #dddfe5; stroke: #dddfe5"/>
   </g>
   <g id="matplotlib.axis_1">
    <g id="xtick_1">
     <g id="line2d_1">
      <path d="M 42.538925 121.488462 
L 42.538925 23.591878 
" clip-path="url(#p1fb8c6ae62)" style="fill: none; stroke-dasharray: 2.96,1.28; stroke-dashoffset: 0; stroke: #dddfe5; stroke-width: 0.8"/>
     </g>
     <g id="line2d_2">
      <defs>
       <path id="mc832dba0e1" d="M 0 0 
L 0 3.5 
" style="stroke: #000000; stroke-width: 0.8"/>
      </defs>
      <g>
       <use xlink:href="#mc832dba0e1" x="42.538925" y="121.488462" style="stroke: #000000; stroke-width: 0.8"/>
      </g>
     </g>
     <g id="text_1">
      <!-- 0 -->
      <g transform="translate(39.888944 134.81796) scale(0.0833 -0.0833)">
       <defs>
        <path id="DejaVuSans-30" d="M 2034 4250 
Q 1547 4250 1301 3770 
Q 1056 3291 1056 2328 
Q 1056 1369 1301 889 
Q 1547 409 2034 409 
Q 2525 409 2770 889 
Q 3016 1369 3016 2328 
Q 3016 3291 2770 3770 
Q 2525 4250 2034 4250 
z
M 2034 4750 
Q 2819 4750 3233 4129 
Q 3647 3509 3647 2328 
Q 3647 1150 3233 529 
Q 2819 -91 2034 -91 
Q 1250 -91 836 529 
Q 422 1150 422 2328 
Q 422 3509 836 4129 
Q 1250 4750 2034 4750 
z
" transform="scale(0.015625)"/>
       </defs>
       <use xlink:href="#DejaVuSans-30"/>
      </g>
     </g>
    </g>
    <g id="xtick_2">
     <g id="line2d_3">
      <path d="M 80.253211 121.488462 
L 80.253211 23.591878 
" clip-path="url(#p1fb8c6ae62)" style="fill: none; stroke-dasharray: 2.96,1.28; stroke-dashoffset: 0; stroke: #dddfe5; stroke-width: 0.8"/>
     </g>
     <g id="line2d_4">
      <g>
       <use xlink:href="#mc832dba0e1" x="80.253211" y="121.488462" style="stroke: #000000; stroke-width: 0.8"/>
      </g>
     </g>
     <g id="text_2">
      <!-- 10 -->
      <g transform="translate(74.953248 134.81796) scale(0.0833 -0.0833)">
       <defs>
        <path id="DejaVuSans-31" d="M 794 531 
L 1825 531 
L 1825 4091 
L 703 3866 
L 703 4441 
L 1819 4666 
L 2450 4666 
L 2450 531 
L 3481 531 
L 3481 0 
L 794 0 
L 794 531 
z
" transform="scale(0.015625)"/>
       </defs>
       <use xlink:href="#DejaVuSans-31"/>
       <use xlink:href="#DejaVuSans-30" x="63.623047"/>
      </g>
     </g>
    </g>
    <g id="xtick_3">
     <g id="line2d_5">
      <path d="M 117.967496 121.488462 
L 117.967496 23.591878 
" clip-path="url(#p1fb8c6ae62)" style="fill: none; stroke-dasharray: 2.96,1.28; stroke-dashoffset: 0; stroke: #dddfe5; stroke-width: 0.8"/>
     </g>
     <g id="line2d_6">
      <g>
       <use xlink:href="#mc832dba0e1" x="117.967496" y="121.488462" style="stroke: #000000; stroke-width: 0.8"/>
      </g>
     </g>
     <g id="text_3">
      <!-- 20 -->
      <g transform="translate(112.667534 134.81796) scale(0.0833 -0.0833)">
       <defs>
        <path id="DejaVuSans-32" d="M 1228 531 
L 3431 531 
L 3431 0 
L 469 0 
L 469 531 
Q 828 903 1448 1529 
Q 2069 2156 2228 2338 
Q 2531 2678 2651 2914 
Q 2772 3150 2772 3378 
Q 2772 3750 2511 3984 
Q 2250 4219 1831 4219 
Q 1534 4219 1204 4116 
Q 875 4013 500 3803 
L 500 4441 
Q 881 4594 1212 4672 
Q 1544 4750 1819 4750 
Q 2544 4750 2975 4387 
Q 3406 4025 3406 3419 
Q 3406 3131 3298 2873 
Q 3191 2616 2906 2266 
Q 2828 2175 2409 1742 
Q 1991 1309 1228 531 
z
" transform="scale(0.015625)"/>
       </defs>
       <use xlink:href="#DejaVuSans-32"/>
       <use xlink:href="#DejaVuSans-30" x="63.623047"/>
      </g>
     </g>
    </g>
    <g id="xtick_4">
     <g id="line2d_7">
      <path d="M 155.681782 121.488462 
L 155.681782 23.591878 
" clip-path="url(#p1fb8c6ae62)" style="fill: none; stroke-dasharray: 2.96,1.28; stroke-dashoffset: 0; stroke: #dddfe5; stroke-width: 0.8"/>
     </g>
     <g id="line2d_8">
      <g>
       <use xlink:href="#mc832dba0e1" x="155.681782" y="121.488462" style="stroke: #000000; stroke-width: 0.8"/>
      </g>
     </g>
     <g id="text_4">
      <!-- 30 -->
      <g transform="translate(150.38182 134.81796) scale(0.0833 -0.0833)">
       <defs>
        <path id="DejaVuSans-33" d="M 2597 2516 
Q 3050 2419 3304 2112 
Q 3559 1806 3559 1356 
Q 3559 666 3084 287 
Q 2609 -91 1734 -91 
Q 1441 -91 1130 -33 
Q 819 25 488 141 
L 488 750 
Q 750 597 1062 519 
Q 1375 441 1716 441 
Q 2309 441 2620 675 
Q 2931 909 2931 1356 
Q 2931 1769 2642 2001 
Q 2353 2234 1838 2234 
L 1294 2234 
L 1294 2753 
L 1863 2753 
Q 2328 2753 2575 2939 
Q 2822 3125 2822 3475 
Q 2822 3834 2567 4026 
Q 2313 4219 1838 4219 
Q 1578 4219 1281 4162 
Q 984 4106 628 3988 
L 628 4550 
Q 988 4650 1302 4700 
Q 1616 4750 1894 4750 
Q 2613 4750 3031 4423 
Q 3450 4097 3450 3541 
Q 3450 3153 3228 2886 
Q 3006 2619 2597 2516 
z
" transform="scale(0.015625)"/>
       </defs>
       <use xlink:href="#DejaVuSans-33"/>
       <use xlink:href="#DejaVuSans-30" x="63.623047"/>
      </g>
     </g>
    </g>
    <g id="xtick_5">
     <g id="line2d_9">
      <path d="M 193.396068 121.488462 
L 193.396068 23.591878 
" clip-path="url(#p1fb8c6ae62)" style="fill: none; stroke-dasharray: 2.96,1.28; stroke-dashoffset: 0; stroke: #dddfe5; stroke-width: 0.8"/>
     </g>
     <g id="line2d_10">
      <g>
       <use xlink:href="#mc832dba0e1" x="193.396068" y="121.488462" style="stroke: #000000; stroke-width: 0.8"/>
      </g>
     </g>
     <g id="text_5">
      <!-- 40 -->
      <g transform="translate(188.096105 134.81796) scale(0.0833 -0.0833)">
       <defs>
        <path id="DejaVuSans-34" d="M 2419 4116 
L 825 1625 
L 2419 1625 
L 2419 4116 
z
M 2253 4666 
L 3047 4666 
L 3047 1625 
L 3713 1625 
L 3713 1100 
L 3047 1100 
L 3047 0 
L 2419 0 
L 2419 1100 
L 313 1100 
L 313 1709 
L 2253 4666 
z
" transform="scale(0.015625)"/>
       </defs>
       <use xlink:href="#DejaVuSans-34"/>
       <use xlink:href="#DejaVuSans-30" x="63.623047"/>
      </g>
     </g>
    </g>
    <g id="text_6">
     <!-- $\tau _\mathrm{lag}$ [ns] -->
     <g transform="translate(101.938925 148.15034) scale(0.1 -0.1)">
      <defs>
       <path id="DejaVuSans-Oblique-3c4" d="M 2103 638 
Q 2188 488 2525 488 
L 2800 488 
L 2706 0 
L 2363 0 
Q 1800 0 1600 300 
Q 1403 606 1534 1269 
L 1856 2925 
L 541 2925 
L 653 3500 
L 3881 3500 
L 3769 2925 
L 2444 2925 
L 2113 1234 
Q 2025 781 2103 638 
z
" transform="scale(0.015625)"/>
       <path id="DejaVuSans-6c" d="M 603 4863 
L 1178 4863 
L 1178 0 
L 603 0 
L 603 4863 
z
" transform="scale(0.015625)"/>
       <path id="DejaVuSans-61" d="M 2194 1759 
Q 1497 1759 1228 1600 
Q 959 1441 959 1056 
Q 959 750 1161 570 
Q 1363 391 1709 391 
Q 2188 391 2477 730 
Q 2766 1069 2766 1631 
L 2766 1759 
L 2194 1759 
z
M 3341 1997 
L 3341 0 
L 2766 0 
L 2766 531 
Q 2569 213 2275 61 
Q 1981 -91 1556 -91 
Q 1019 -91 701 211 
Q 384 513 384 1019 
Q 384 1609 779 1909 
Q 1175 2209 1959 2209 
L 2766 2209 
L 2766 2266 
Q 2766 2663 2505 2880 
Q 2244 3097 1772 3097 
Q 1472 3097 1187 3025 
Q 903 2953 641 2809 
L 641 3341 
Q 956 3463 1253 3523 
Q 1550 3584 1831 3584 
Q 2591 3584 2966 3190 
Q 3341 2797 3341 1997 
z
" transform="scale(0.015625)"/>
       <path id="DejaVuSans-67" d="M 2906 1791 
Q 2906 2416 2648 2759 
Q 2391 3103 1925 3103 
Q 1463 3103 1205 2759 
Q 947 2416 947 1791 
Q 947 1169 1205 825 
Q 1463 481 1925 481 
Q 2391 481 2648 825 
Q 2906 1169 2906 1791 
z
M 3481 434 
Q 3481 -459 3084 -895 
Q 2688 -1331 1869 -1331 
Q 1566 -1331 1297 -1286 
Q 1028 -1241 775 -1147 
L 775 -588 
Q 1028 -725 1275 -790 
Q 1522 -856 1778 -856 
Q 2344 -856 2625 -561 
Q 2906 -266 2906 331 
L 2906 616 
Q 2728 306 2450 153 
Q 2172 0 1784 0 
Q 1141 0 747 490 
Q 353 981 353 1791 
Q 353 2603 747 3093 
Q 1141 3584 1784 3584 
Q 2172 3584 2450 3431 
Q 2728 3278 2906 2969 
L 2906 3500 
L 3481 3500 
L 3481 434 
z
" transform="scale(0.015625)"/>
       <path id="DejaVuSans-20" transform="scale(0.015625)"/>
       <path id="DejaVuSans-5b" d="M 550 4863 
L 1875 4863 
L 1875 4416 
L 1125 4416 
L 1125 -397 
L 1875 -397 
L 1875 -844 
L 550 -844 
L 550 4863 
z
" transform="scale(0.015625)"/>
       <path id="DejaVuSans-6e" d="M 3513 2113 
L 3513 0 
L 2938 0 
L 2938 2094 
Q 2938 2591 2744 2837 
Q 2550 3084 2163 3084 
Q 1697 3084 1428 2787 
Q 1159 2491 1159 1978 
L 1159 0 
L 581 0 
L 581 3500 
L 1159 3500 
L 1159 2956 
Q 1366 3272 1645 3428 
Q 1925 3584 2291 3584 
Q 2894 3584 3203 3211 
Q 3513 2838 3513 2113 
z
" transform="scale(0.015625)"/>
       <path id="DejaVuSans-73" d="M 2834 3397 
L 2834 2853 
Q 2591 2978 2328 3040 
Q 2066 3103 1784 3103 
Q 1356 3103 1142 2972 
Q 928 2841 928 2578 
Q 928 2378 1081 2264 
Q 1234 2150 1697 2047 
L 1894 2003 
Q 2506 1872 2764 1633 
Q 3022 1394 3022 966 
Q 3022 478 2636 193 
Q 2250 -91 1575 -91 
Q 1294 -91 989 -36 
Q 684 19 347 128 
L 347 722 
Q 666 556 975 473 
Q 1284 391 1588 391 
Q 1994 391 2212 530 
Q 2431 669 2431 922 
Q 2431 1156 2273 1281 
Q 2116 1406 1581 1522 
L 1381 1569 
Q 847 1681 609 1914 
Q 372 2147 372 2553 
Q 372 3047 722 3315 
Q 1072 3584 1716 3584 
Q 2034 3584 2315 3537 
Q 2597 3491 2834 3397 
z
" transform="scale(0.015625)"/>
       <path id="DejaVuSans-5d" d="M 1947 4863 
L 1947 -844 
L 622 -844 
L 622 -397 
L 1369 -397 
L 1369 4416 
L 622 4416 
L 622 4863 
L 1947 4863 
z
" transform="scale(0.015625)"/>
      </defs>
      <use xlink:href="#DejaVuSans-Oblique-3c4" transform="translate(0 0.015625)"/>
      <use xlink:href="#DejaVuSans-6c" transform="translate(60.205078 -16.390625) scale(0.7)"/>
      <use xlink:href="#DejaVuSans-61" transform="translate(79.65332 -16.390625) scale(0.7)"/>
      <use xlink:href="#DejaVuSans-67" transform="translate(122.548828 -16.390625) scale(0.7)"/>
      <use xlink:href="#DejaVuSans-20" transform="translate(169.716797 0.015625)"/>
      <use xlink:href="#DejaVuSans-5b" transform="translate(201.503906 0.015625)"/>
      <use xlink:href="#DejaVuSans-6e" transform="translate(240.517578 0.015625)"/>
      <use xlink:href="#DejaVuSans-73" transform="translate(303.896484 0.015625)"/>
      <use xlink:href="#DejaVuSans-5d" transform="translate(355.996094 0.015625)"/>
     </g>
    </g>
   </g>
   <g id="matplotlib.axis_2">
    <g id="ytick_1">
     <g id="line2d_11">
      <path d="M 42.538925 88.652018 
L 200.938925 88.652018 
" clip-path="url(#p1fb8c6ae62)" style="fill: none; stroke-dasharray: 2.96,1.28; stroke-dashoffset: 0; stroke: #dddfe5; stroke-width: 0.8"/>
     </g>
     <g id="line2d_12">
      <defs>
       <path id="m6d2ce5199c" d="M 0 0 
L -3.5 0 
" style="stroke: #000000; stroke-width: 0.8"/>
      </defs>
      <g>
       <use xlink:href="#m6d2ce5199c" x="42.538925" y="88.652018" style="stroke: #000000; stroke-width: 0.8"/>
      </g>
     </g>
     <g id="text_7">
      <!-- $\mathdefault{10^{2}}$ -->
      <g transform="translate(20.878125 91.816767) scale(0.0833 -0.0833)">
       <use xlink:href="#DejaVuSans-31" transform="translate(0 0.765625)"/>
       <use xlink:href="#DejaVuSans-30" transform="translate(63.623047 0.765625)"/>
       <use xlink:href="#DejaVuSans-32" transform="translate(128.203125 39.046875) scale(0.7)"/>
      </g>
     </g>
    </g>
    <g id="ytick_2">
     <g id="line2d_13">
      <path d="M 42.538925 33.019606 
L 200.938925 33.019606 
" clip-path="url(#p1fb8c6ae62)" style="fill: none; stroke-dasharray: 2.96,1.28; stroke-dashoffset: 0; stroke: #dddfe5; stroke-width: 0.8"/>
     </g>
     <g id="line2d_14">
      <g>
       <use xlink:href="#m6d2ce5199c" x="42.538925" y="33.019606" style="stroke: #000000; stroke-width: 0.8"/>
      </g>
     </g>
     <g id="text_8">
      <!-- $\mathdefault{10^{3}}$ -->
      <g transform="translate(20.878125 36.184355) scale(0.0833 -0.0833)">
       <use xlink:href="#DejaVuSans-31" transform="translate(0 0.765625)"/>
       <use xlink:href="#DejaVuSans-30" transform="translate(63.623047 0.765625)"/>
       <use xlink:href="#DejaVuSans-33" transform="translate(128.203125 39.046875) scale(0.7)"/>
      </g>
     </g>
    </g>
    <g id="ytick_3">
     <g id="line2d_15">
      <path d="M 42.538925 117.741024 
L 200.938925 117.741024 
" clip-path="url(#p1fb8c6ae62)" style="fill: none; stroke-dasharray: 0.8,1.32; stroke-dashoffset: 0; stroke: #dddfe5; stroke-width: 0.8"/>
     </g>
     <g id="line2d_16">
      <defs>
       <path id="mcb5abc543a" d="M 0 0 
L -2 0 
" style="stroke: #000000; stroke-width: 0.6"/>
      </defs>
      <g>
       <use xlink:href="#mcb5abc543a" x="42.538925" y="117.741024" style="stroke: #000000; stroke-width: 0.6"/>
      </g>
     </g>
    </g>
    <g id="ytick_4">
     <g id="line2d_17">
      <path d="M 42.538925 110.79038 
L 200.938925 110.79038 
" clip-path="url(#p1fb8c6ae62)" style="fill: none; stroke-dasharray: 0.8,1.32; stroke-dashoffset: 0; stroke: #dddfe5; stroke-width: 0.8"/>
     </g>
     <g id="line2d_18">
      <g>
       <use xlink:href="#mcb5abc543a" x="42.538925" y="110.79038" style="stroke: #000000; stroke-width: 0.6"/>
      </g>
     </g>
    </g>
    <g id="ytick_5">
     <g id="line2d_19">
      <path d="M 42.538925 105.399043 
L 200.938925 105.399043 
" clip-path="url(#p1fb8c6ae62)" style="fill: none; stroke-dasharray: 0.8,1.32; stroke-dashoffset: 0; stroke: #dddfe5; stroke-width: 0.8"/>
     </g>
     <g id="line2d_20">
      <g>
       <use xlink:href="#mcb5abc543a" x="42.538925" y="105.399043" style="stroke: #000000; stroke-width: 0.6"/>
      </g>
     </g>
    </g>
    <g id="ytick_6">
     <g id="line2d_21">
      <path d="M 42.538925 100.993999 
L 200.938925 100.993999 
" clip-path="url(#p1fb8c6ae62)" style="fill: none; stroke-dasharray: 0.8,1.32; stroke-dashoffset: 0; stroke: #dddfe5; stroke-width: 0.8"/>
     </g>
     <g id="line2d_22">
      <g>
       <use xlink:href="#mcb5abc543a" x="42.538925" y="100.993999" style="stroke: #000000; stroke-width: 0.6"/>
      </g>
     </g>
    </g>
    <g id="ytick_7">
     <g id="line2d_23">
      <path d="M 42.538925 97.269588 
L 200.938925 97.269588 
" clip-path="url(#p1fb8c6ae62)" style="fill: none; stroke-dasharray: 0.8,1.32; stroke-dashoffset: 0; stroke: #dddfe5; stroke-width: 0.8"/>
     </g>
     <g id="line2d_24">
      <g>
       <use xlink:href="#mcb5abc543a" x="42.538925" y="97.269588" style="stroke: #000000; stroke-width: 0.6"/>
      </g>
     </g>
    </g>
    <g id="ytick_8">
     <g id="line2d_25">
      <path d="M 42.538925 94.043356 
L 200.938925 94.043356 
" clip-path="url(#p1fb8c6ae62)" style="fill: none; stroke-dasharray: 0.8,1.32; stroke-dashoffset: 0; stroke: #dddfe5; stroke-width: 0.8"/>
     </g>
     <g id="line2d_26">
      <g>
       <use xlink:href="#mcb5abc543a" x="42.538925" y="94.043356" style="stroke: #000000; stroke-width: 0.6"/>
      </g>
     </g>
    </g>
    <g id="ytick_9">
     <g id="line2d_27">
      <path d="M 42.538925 91.197617 
L 200.938925 91.197617 
" clip-path="url(#p1fb8c6ae62)" style="fill: none; stroke-dasharray: 0.8,1.32; stroke-dashoffset: 0; stroke: #dddfe5; stroke-width: 0.8"/>
     </g>
     <g id="line2d_28">
      <g>
       <use xlink:href="#mcb5abc543a" x="42.538925" y="91.197617" style="stroke: #000000; stroke-width: 0.6"/>
      </g>
     </g>
    </g>
    <g id="ytick_10">
     <g id="line2d_29">
      <path d="M 42.538925 71.904993 
L 200.938925 71.904993 
" clip-path="url(#p1fb8c6ae62)" style="fill: none; stroke-dasharray: 0.8,1.32; stroke-dashoffset: 0; stroke: #dddfe5; stroke-width: 0.8"/>
     </g>
     <g id="line2d_30">
      <g>
       <use xlink:href="#mcb5abc543a" x="42.538925" y="71.904993" style="stroke: #000000; stroke-width: 0.6"/>
      </g>
     </g>
    </g>
    <g id="ytick_11">
     <g id="line2d_31">
      <path d="M 42.538925 62.108612 
L 200.938925 62.108612 
" clip-path="url(#p1fb8c6ae62)" style="fill: none; stroke-dasharray: 0.8,1.32; stroke-dashoffset: 0; stroke: #dddfe5; stroke-width: 0.8"/>
     </g>
     <g id="line2d_32">
      <g>
       <use xlink:href="#mcb5abc543a" x="42.538925" y="62.108612" style="stroke: #000000; stroke-width: 0.6"/>
      </g>
     </g>
    </g>
    <g id="ytick_12">
     <g id="line2d_33">
      <path d="M 42.538925 55.157968 
L 200.938925 55.157968 
" clip-path="url(#p1fb8c6ae62)" style="fill: none; stroke-dasharray: 0.8,1.32; stroke-dashoffset: 0; stroke: #dddfe5; stroke-width: 0.8"/>
     </g>
     <g id="line2d_34">
      <g>
       <use xlink:href="#mcb5abc543a" x="42.538925" y="55.157968" style="stroke: #000000; stroke-width: 0.6"/>
      </g>
     </g>
    </g>
    <g id="ytick_13">
     <g id="line2d_35">
      <path d="M 42.538925 49.76663 
L 200.938925 49.76663 
" clip-path="url(#p1fb8c6ae62)" style="fill: none; stroke-dasharray: 0.8,1.32; stroke-dashoffset: 0; stroke: #dddfe5; stroke-width: 0.8"/>
     </g>
     <g id="line2d_36">
      <g>
       <use xlink:href="#mcb5abc543a" x="42.538925" y="49.76663" style="stroke: #000000; stroke-width: 0.6"/>
      </g>
     </g>
    </g>
    <g id="ytick_14">
     <g id="line2d_37">
      <path d="M 42.538925 45.361587 
L 200.938925 45.361587 
" clip-path="url(#p1fb8c6ae62)" style="fill: none; stroke-dasharray: 0.8,1.32; stroke-dashoffset: 0; stroke: #dddfe5; stroke-width: 0.8"/>
     </g>
     <g id="line2d_38">
      <g>
       <use xlink:href="#mcb5abc543a" x="42.538925" y="45.361587" style="stroke: #000000; stroke-width: 0.6"/>
      </g>
     </g>
    </g>
    <g id="ytick_15">
     <g id="line2d_39">
      <path d="M 42.538925 41.637175 
L 200.938925 41.637175 
" clip-path="url(#p1fb8c6ae62)" style="fill: none; stroke-dasharray: 0.8,1.32; stroke-dashoffset: 0; stroke: #dddfe5; stroke-width: 0.8"/>
     </g>
     <g id="line2d_40">
      <g>
       <use xlink:href="#mcb5abc543a" x="42.538925" y="41.637175" style="stroke: #000000; stroke-width: 0.6"/>
      </g>
     </g>
    </g>
    <g id="ytick_16">
     <g id="line2d_41">
      <path d="M 42.538925 38.410943 
L 200.938925 38.410943 
" clip-path="url(#p1fb8c6ae62)" style="fill: none; stroke-dasharray: 0.8,1.32; stroke-dashoffset: 0; stroke: #dddfe5; stroke-width: 0.8"/>
     </g>
     <g id="line2d_42">
      <g>
       <use xlink:href="#mcb5abc543a" x="42.538925" y="38.410943" style="stroke: #000000; stroke-width: 0.6"/>
      </g>
     </g>
    </g>
    <g id="ytick_17">
     <g id="line2d_43">
      <path d="M 42.538925 35.565205 
L 200.938925 35.565205 
" clip-path="url(#p1fb8c6ae62)" style="fill: none; stroke-dasharray: 0.8,1.32; stroke-dashoffset: 0; stroke: #dddfe5; stroke-width: 0.8"/>
     </g>
     <g id="line2d_44">
      <g>
       <use xlink:href="#mcb5abc543a" x="42.538925" y="35.565205" style="stroke: #000000; stroke-width: 0.6"/>
      </g>
     </g>
    </g>
    <g id="text_9">
     <!-- time scales [ns] -->
     <g transform="translate(14.798438 112.17767) rotate(-90) scale(0.1 -0.1)">
      <defs>
       <path id="DejaVuSans-74" d="M 1172 4494 
L 1172 3500 
L 2356 3500 
L 2356 3053 
L 1172 3053 
L 1172 1153 
Q 1172 725 1289 603 
Q 1406 481 1766 481 
L 2356 481 
L 2356 0 
L 1766 0 
Q 1100 0 847 248 
Q 594 497 594 1153 
L 594 3053 
L 172 3053 
L 172 3500 
L 594 3500 
L 594 4494 
L 1172 4494 
z
" transform="scale(0.015625)"/>
       <path id="DejaVuSans-69" d="M 603 3500 
L 1178 3500 
L 1178 0 
L 603 0 
L 603 3500 
z
M 603 4863 
L 1178 4863 
L 1178 4134 
L 603 4134 
L 603 4863 
z
" transform="scale(0.015625)"/>
       <path id="DejaVuSans-6d" d="M 3328 2828 
Q 3544 3216 3844 3400 
Q 4144 3584 4550 3584 
Q 5097 3584 5394 3201 
Q 5691 2819 5691 2113 
L 5691 0 
L 5113 0 
L 5113 2094 
Q 5113 2597 4934 2840 
Q 4756 3084 4391 3084 
Q 3944 3084 3684 2787 
Q 3425 2491 3425 1978 
L 3425 0 
L 2847 0 
L 2847 2094 
Q 2847 2600 2669 2842 
Q 2491 3084 2119 3084 
Q 1678 3084 1418 2786 
Q 1159 2488 1159 1978 
L 1159 0 
L 581 0 
L 581 3500 
L 1159 3500 
L 1159 2956 
Q 1356 3278 1631 3431 
Q 1906 3584 2284 3584 
Q 2666 3584 2933 3390 
Q 3200 3197 3328 2828 
z
" transform="scale(0.015625)"/>
       <path id="DejaVuSans-65" d="M 3597 1894 
L 3597 1613 
L 953 1613 
Q 991 1019 1311 708 
Q 1631 397 2203 397 
Q 2534 397 2845 478 
Q 3156 559 3463 722 
L 3463 178 
Q 3153 47 2828 -22 
Q 2503 -91 2169 -91 
Q 1331 -91 842 396 
Q 353 884 353 1716 
Q 353 2575 817 3079 
Q 1281 3584 2069 3584 
Q 2775 3584 3186 3129 
Q 3597 2675 3597 1894 
z
M 3022 2063 
Q 3016 2534 2758 2815 
Q 2500 3097 2075 3097 
Q 1594 3097 1305 2825 
Q 1016 2553 972 2059 
L 3022 2063 
z
" transform="scale(0.015625)"/>
       <path id="DejaVuSans-63" d="M 3122 3366 
L 3122 2828 
Q 2878 2963 2633 3030 
Q 2388 3097 2138 3097 
Q 1578 3097 1268 2742 
Q 959 2388 959 1747 
Q 959 1106 1268 751 
Q 1578 397 2138 397 
Q 2388 397 2633 464 
Q 2878 531 3122 666 
L 3122 134 
Q 2881 22 2623 -34 
Q 2366 -91 2075 -91 
Q 1284 -91 818 406 
Q 353 903 353 1747 
Q 353 2603 823 3093 
Q 1294 3584 2113 3584 
Q 2378 3584 2631 3529 
Q 2884 3475 3122 3366 
z
" transform="scale(0.015625)"/>
      </defs>
      <use xlink:href="#DejaVuSans-74"/>
      <use xlink:href="#DejaVuSans-69" x="39.208984"/>
      <use xlink:href="#DejaVuSans-6d" x="66.992188"/>
      <use xlink:href="#DejaVuSans-65" x="164.404297"/>
      <use xlink:href="#DejaVuSans-20" x="225.927734"/>
      <use xlink:href="#DejaVuSans-73" x="257.714844"/>
      <use xlink:href="#DejaVuSans-63" x="309.814453"/>
      <use xlink:href="#DejaVuSans-61" x="364.794922"/>
      <use xlink:href="#DejaVuSans-6c" x="426.074219"/>
      <use xlink:href="#DejaVuSans-65" x="453.857422"/>
      <use xlink:href="#DejaVuSans-73" x="515.380859"/>
      <use xlink:href="#DejaVuSans-20" x="567.480469"/>
      <use xlink:href="#DejaVuSans-5b" x="599.267578"/>
      <use xlink:href="#DejaVuSans-6e" x="638.28125"/>
      <use xlink:href="#DejaVuSans-73" x="701.660156"/>
      <use xlink:href="#DejaVuSans-5d" x="753.759766"/>
     </g>
    </g>
   </g>
   <g id="line2d_45">
    <path d="M 43.293211 54.923539 
L 46.310354 51.204889 
L 49.327496 48.913747 
L 52.344639 47.464166 
L 56.116068 46.167927 
L 59.133211 45.197648 
L 62.150354 44.039526 
L 65.167496 42.898274 
L 68.938925 41.555881 
L 71.956068 40.606279 
L 74.973211 39.72102 
L 77.990354 38.856157 
L 81.761782 37.851927 
L 84.778925 37.160562 
L 87.796068 36.528282 
L 90.813211 35.986575 
L 94.584639 35.474838 
L 97.601782 35.108449 
L 100.618925 34.729655 
L 104.390354 34.287885 
L 107.407496 33.870367 
L 110.424639 33.441811 
L 113.441782 33.086357 
L 117.213211 32.716496 
L 120.230354 32.457175 
L 123.247496 32.235914 
L 126.264639 32.012325 
L 130.036068 31.708429 
L 133.053211 31.478236 
L 136.070354 31.264007 
L 139.087496 31.056386 
L 142.858925 30.792112 
L 145.876068 30.605109 
L 148.893211 30.426371 
L 152.664639 30.214107 
L 155.681782 30.062814 
L 158.698925 29.912205 
L 161.716068 29.763373 
L 165.487496 29.583705 
L 168.504639 29.44753 
L 171.521782 29.322386 
L 174.538925 29.195634 
L 178.310354 29.027763 
L 181.327496 28.891922 
L 184.344639 28.747798 
L 187.361782 28.615513 
L 191.133211 28.459161 
L 194.150354 28.324394 
L 197.167496 28.193957 
L 200.938925 28.041723 
" clip-path="url(#p1fb8c6ae62)" style="fill: none; stroke: #264653; stroke-width: 1.5; stroke-linecap: square"/>
   </g>
   <g id="line2d_46">
    <path d="M 43.293211 108.680162 
L 46.310354 104.958128 
L 49.327496 102.564608 
L 52.344639 101.052922 
L 56.116068 99.64076 
L 59.133211 98.704773 
L 62.150354 97.864037 
L 65.167496 96.95236 
L 68.938925 95.720928 
L 71.956068 94.768971 
L 74.973211 93.772365 
L 77.990354 92.8819 
L 81.761782 91.808786 
L 84.778925 91.065698 
L 87.796068 90.335822 
L 90.813211 89.721649 
L 94.584639 89.054197 
L 97.601782 88.540062 
L 100.618925 88.023357 
L 104.390354 87.372228 
L 107.407496 86.920539 
L 110.424639 86.479281 
L 113.441782 86.052879 
L 117.213211 85.528099 
L 120.230354 85.10419 
L 123.247496 84.722964 
L 126.264639 84.347657 
L 130.036068 83.898956 
L 133.053211 83.524549 
L 136.070354 83.151517 
L 139.087496 82.803558 
L 142.858925 82.38885 
L 145.876068 82.070488 
L 148.893211 81.784522 
L 152.664639 81.459906 
L 155.681782 81.203048 
L 158.698925 80.928901 
L 161.716068 80.662805 
L 165.487496 80.346229 
L 168.504639 80.100453 
L 171.521782 79.839308 
L 174.538925 79.60874 
L 178.310354 79.340063 
L 181.327496 79.146291 
L 184.344639 78.932963 
L 187.361782 78.745346 
L 191.133211 78.52162 
L 194.150354 78.319684 
L 197.167496 78.147447 
L 200.938925 77.944024 
" clip-path="url(#p1fb8c6ae62)" style="fill: none; stroke: #2a9d8f; stroke-width: 1.5; stroke-linecap: square"/>
   </g>
   <g id="line2d_47">
    <path d="M 43.293211 117.038617 
L 46.310354 114.647606 
L 49.327496 114.073515 
L 52.344639 113.533102 
L 56.116068 111.975912 
L 59.133211 110.83501 
L 62.150354 109.808383 
L 65.167496 108.712767 
L 68.938925 107.270993 
L 71.956068 106.16794 
L 74.973211 105.058817 
L 77.990354 104.077408 
L 81.761782 102.867959 
L 84.778925 102.019025 
L 87.796068 101.219688 
L 90.813211 100.464255 
L 94.584639 99.561199 
L 97.601782 98.841184 
L 100.618925 98.191901 
L 104.390354 97.389045 
L 107.407496 96.830823 
L 110.424639 96.310993 
L 113.441782 95.818578 
L 117.213211 95.247748 
L 120.230354 94.797331 
L 123.247496 94.360959 
L 126.264639 93.914343 
L 130.036068 93.399512 
L 133.053211 92.974685 
L 136.070354 92.557008 
L 139.087496 92.134762 
L 142.858925 91.634271 
L 145.876068 91.205986 
L 148.893211 90.825906 
L 152.664639 90.377824 
L 155.681782 90.03535 
L 158.698925 89.691973 
L 161.716068 89.334529 
L 165.487496 88.930946 
L 168.504639 88.633763 
L 171.521782 88.319636 
L 174.538925 87.977721 
L 178.310354 87.550183 
L 181.327496 87.199611 
L 184.344639 86.825327 
L 187.361782 86.492128 
L 191.133211 86.037685 
L 194.150354 85.639794 
L 197.167496 85.263107 
L 200.938925 84.826238 
" clip-path="url(#p1fb8c6ae62)" style="fill: none; stroke: #e9c46a; stroke-width: 1.5; stroke-linecap: square"/>
   </g>
   <g id="patch_3">
    <path d="M 42.538925 121.488462 
L 42.538925 23.591878 
" style="fill: none; stroke: #000000; stroke-width: 0.8; stroke-linejoin: miter; stroke-linecap: square"/>
   </g>
   <g id="patch_4">
    <path d="M 200.938925 121.488462 
L 200.938925 23.591878 
" style="fill: none; stroke: #000000; stroke-width: 0.8; stroke-linejoin: miter; stroke-linecap: square"/>
   </g>
   <g id="patch_5">
    <path d="M 42.538925 121.488462 
L 200.938925 121.488462 
" style="fill: none; stroke: #000000; stroke-width: 0.8; stroke-linejoin: miter; stroke-linecap: square"/>
   </g>
   <g id="patch_6">
    <path d="M 42.538925 23.591878 
L 200.938925 23.591878 
" style="fill: none; stroke: #000000; stroke-width: 0.8; stroke-linejoin: miter; stroke-linecap: square"/>
   </g>
   <g id="legend_1">
    <g id="patch_7">
     <path d="M 42.538925 23.591878 
L 200.938925 23.591878 
L 200.938925 7.2 
L 42.538925 7.2 
z
" style="fill: #ffffff; stroke: #000000; stroke-width: 0.8; stroke-linejoin: miter"/>
    </g>
    <g id="text_10">
     <!-- Implied time scale: -->
     <g transform="translate(46.703925 17.694498) scale(0.0833 -0.0833)">
      <defs>
       <path id="DejaVuSans-49" d="M 628 4666 
L 1259 4666 
L 1259 0 
L 628 0 
L 628 4666 
z
" transform="scale(0.015625)"/>
       <path id="DejaVuSans-70" d="M 1159 525 
L 1159 -1331 
L 581 -1331 
L 581 3500 
L 1159 3500 
L 1159 2969 
Q 1341 3281 1617 3432 
Q 1894 3584 2278 3584 
Q 2916 3584 3314 3078 
Q 3713 2572 3713 1747 
Q 3713 922 3314 415 
Q 2916 -91 2278 -91 
Q 1894 -91 1617 61 
Q 1341 213 1159 525 
z
M 3116 1747 
Q 3116 2381 2855 2742 
Q 2594 3103 2138 3103 
Q 1681 3103 1420 2742 
Q 1159 2381 1159 1747 
Q 1159 1113 1420 752 
Q 1681 391 2138 391 
Q 2594 391 2855 752 
Q 3116 1113 3116 1747 
z
" transform="scale(0.015625)"/>
       <path id="DejaVuSans-64" d="M 2906 2969 
L 2906 4863 
L 3481 4863 
L 3481 0 
L 2906 0 
L 2906 525 
Q 2725 213 2448 61 
Q 2172 -91 1784 -91 
Q 1150 -91 751 415 
Q 353 922 353 1747 
Q 353 2572 751 3078 
Q 1150 3584 1784 3584 
Q 2172 3584 2448 3432 
Q 2725 3281 2906 2969 
z
M 947 1747 
Q 947 1113 1208 752 
Q 1469 391 1925 391 
Q 2381 391 2643 752 
Q 2906 1113 2906 1747 
Q 2906 2381 2643 2742 
Q 2381 3103 1925 3103 
Q 1469 3103 1208 2742 
Q 947 2381 947 1747 
z
" transform="scale(0.015625)"/>
       <path id="DejaVuSans-3a" d="M 750 794 
L 1409 794 
L 1409 0 
L 750 0 
L 750 794 
z
M 750 3309 
L 1409 3309 
L 1409 2516 
L 750 2516 
L 750 3309 
z
" transform="scale(0.015625)"/>
      </defs>
      <use xlink:href="#DejaVuSans-49"/>
      <use xlink:href="#DejaVuSans-6d" x="29.492188"/>
      <use xlink:href="#DejaVuSans-70" x="126.904297"/>
      <use xlink:href="#DejaVuSans-6c" x="190.380859"/>
      <use xlink:href="#DejaVuSans-69" x="218.164062"/>
      <use xlink:href="#DejaVuSans-65" x="245.947266"/>
      <use xlink:href="#DejaVuSans-64" x="307.470703"/>
      <use xlink:href="#DejaVuSans-20" x="370.947266"/>
      <use xlink:href="#DejaVuSans-74" x="402.734375"/>
      <use xlink:href="#DejaVuSans-69" x="441.943359"/>
      <use xlink:href="#DejaVuSans-6d" x="469.726562"/>
      <use xlink:href="#DejaVuSans-65" x="567.138672"/>
      <use xlink:href="#DejaVuSans-20" x="628.662109"/>
      <use xlink:href="#DejaVuSans-73" x="660.449219"/>
      <use xlink:href="#DejaVuSans-63" x="712.548828"/>
      <use xlink:href="#DejaVuSans-61" x="767.529297"/>
      <use xlink:href="#DejaVuSans-6c" x="828.808594"/>
      <use xlink:href="#DejaVuSans-65" x="856.591797"/>
      <use xlink:href="#DejaVuSans-3a" x="918.115234"/>
     </g>
    </g>
    <g id="line2d_48">
     <path d="M 128.457617 14.778998 
L 134.288617 14.778998 
L 140.119617 14.778998 
" style="fill: none; stroke: #264653; stroke-width: 1.5; stroke-linecap: square"/>
    </g>
    <g id="text_11">
     <!-- 1 -->
     <g transform="translate(144.284617 17.694498) scale(0.0833 -0.0833)">
      <use xlink:href="#DejaVuSans-31"/>
     </g>
    </g>
    <g id="line2d_49">
     <path d="M 152.05229 14.778998 
L 157.88329 14.778998 
L 163.71429 14.778998 
" style="fill: none; stroke: #2a9d8f; stroke-width: 1.5; stroke-linecap: square"/>
    </g>
    <g id="text_12">
     <!-- 2 -->
     <g transform="translate(167.87929 17.694498) scale(0.0833 -0.0833)">
      <use xlink:href="#DejaVuSans-32"/>
     </g>
    </g>
    <g id="line2d_50">
     <path d="M 175.646963 14.778998 
L 181.477962 14.778998 
L 187.308963 14.778998 
" style="fill: none; stroke: #e9c46a; stroke-width: 1.5; stroke-linecap: square"/>
    </g>
    <g id="text_13">
     <!-- 3 -->
     <g transform="translate(191.473962 17.694498) scale(0.0833 -0.0833)">
      <use xlink:href="#DejaVuSans-33"/>
     </g>
    </g>
   </g>
  </g>
 </g>
 <defs>
  <clipPath id="p1fb8c6ae62">
   <rect x="42.538925" y="23.591878" width="158.4" height="97.896584"/>
  </clipPath>
 </defs>
</svg>
