<?xml version="1.0" encoding="utf-8" standalone="no"?>
<!DOCTYPE svg PUBLIC "-//W3C//DTD SVG 1.1//EN"
  "http://www.w3.org/Graphics/SVG/1.1/DTD/svg11.dtd">
<svg xmlns:xlink="http://www.w3.org/1999/xlink" width="259.532166pt" height="151.38796pt" viewBox="0 0 259.532166 151.38796" xmlns="http://www.w3.org/2000/svg" version="1.1">
 <metadata>
  <rdf:RDF xmlns:dc="http://purl.org/dc/elements/1.1/" xmlns:cc="http://creativecommons.org/ns#" xmlns:rdf="http://www.w3.org/1999/02/22-rdf-syntax-ns#">
   <cc:Work>
    <dc:type rdf:resource="http://purl.org/dc/dcmitype/StillImage"/>
    <dc:date>2023-04-21T14:58:54.446173</dc:date>
    <dc:format>image/svg+xml</dc:format>
    <dc:creator>
     <cc:Agent>
      <dc:title>Matplotlib v3.7.1, https://matplotlib.org/</dc:title>
     </cc:Agent>
    </dc:creator>
   </cc:Work>
  </rdf:RDF>
 </metadata>
 <defs>
  <style type="text/css">*{stroke-linejoin: round; stroke-linecap: butt}</style>
 </defs>
 <g id="figure_1">
  <g id="patch_1">
   <path d="M 0 151.38796 
L 259.532166 151.38796 
L 259.532166 0 
L 0 0 
L 0 151.38796 
z
" style="fill: none"/>
  </g>
  <g id="axes_1">
   <g id="patch_2">
    <path d="M 46.4759 114.426082 
L 204.8759 114.426082 
L 204.8759 16.529498 
L 46.4759 16.529498 
L 46.4759 114.426082 
z
" style="fill: none"/>
   </g>
   <g id="matplotlib.axis_1">
    <g id="xtick_1">
     <g id="line2d_1">
      <path d="M 46.4759 114.426082 
L 46.4759 16.529498 
" clip-path="url(#p98cd22aeac)" style="fill: none; stroke-dasharray: 2.96,1.28; stroke-dashoffset: 0; stroke: #dddfe5; stroke-width: 0.8"/>
     </g>
     <g id="line2d_2">
      <defs>
       <path id="md017b56d79" d="M 0 0 
L 0 3.5 
" style="stroke: #000000; stroke-width: 0.8"/>
      </defs>
      <g>
       <use xlink:href="#md017b56d79" x="46.4759" y="114.426082" style="stroke: #000000; stroke-width: 0.8"/>
      </g>
     </g>
     <g id="text_1">
      <!-- 0 -->
      <g transform="translate(43.825919 127.755581) scale(0.0833 -0.0833)">
       <defs>
        <path id="DejaVuSans-30" d="M 2034 4250 
Q 1547 4250 1301 3770 
Q 1056 3291 1056 2328 
Q 1056 1369 1301 889 
Q 1547 409 2034 409 
Q 2525 409 2770 889 
Q 3016 1369 3016 2328 
Q 3016 3291 2770 3770 
Q 2525 4250 2034 4250 
z
M 2034 4750 
Q 2819 4750 3233 4129 
Q 3647 3509 3647 2328 
Q 3647 1150 3233 529 
Q 2819 -91 2034 -91 
Q 1250 -91 836 529 
Q 422 1150 422 2328 
Q 422 3509 836 4129 
Q 1250 4750 2034 4750 
z
" transform="scale(0.015625)"/>
       </defs>
       <use xlink:href="#DejaVuSans-30"/>
      </g>
     </g>
    </g>
    <g id="xtick_2">
     <g id="line2d_3">
      <path d="M 90.766743 114.426082 
L 90.766743 16.529498 
" clip-path="url(#p98cd22aeac)" style="fill: none; stroke-dasharray: 2.96,1.28; stroke-dashoffset: 0; stroke: #dddfe5; stroke-width: 0.8"/>
     </g>
     <g id="line2d_4">
      <g>
       <use xlink:href="#md017b56d79" x="90.766743" y="114.426082" style="stroke: #000000; stroke-width: 0.8"/>
      </g>
     </g>
     <g id="text_2">
      <!-- 10000 -->
      <g transform="translate(77.516837 127.755581) scale(0.0833 -0.0833)">
       <defs>
        <path id="DejaVuSans-31" d="M 794 531 
L 1825 531 
L 1825 4091 
L 703 3866 
L 703 4441 
L 1819 4666 
L 2450 4666 
L 2450 531 
L 3481 531 
L 3481 0 
L 794 0 
L 794 531 
z
" transform="scale(0.015625)"/>
       </defs>
       <use xlink:href="#DejaVuSans-31"/>
       <use xlink:href="#DejaVuSans-30" x="63.623047"/>
       <use xlink:href="#DejaVuSans-30" x="127.246094"/>
       <use xlink:href="#DejaVuSans-30" x="190.869141"/>
       <use xlink:href="#DejaVuSans-30" x="254.492188"/>
      </g>
     </g>
    </g>
    <g id="xtick_3">
     <g id="line2d_5">
      <path d="M 135.057586 114.426082 
L 135.057586 16.529498 
" clip-path="url(#p98cd22aeac)" style="fill: none; stroke-dasharray: 2.96,1.28; stroke-dashoffset: 0; stroke: #dddfe5; stroke-width: 0.8"/>
     </g>
     <g id="line2d_6">
      <g>
       <use xlink:href="#md017b56d79" x="135.057586" y="114.426082" style="stroke: #000000; stroke-width: 0.8"/>
      </g>
     </g>
     <g id="text_3">
      <!-- 20000 -->
      <g transform="translate(121.80768 127.755581) scale(0.0833 -0.0833)">
       <defs>
        <path id="DejaVuSans-32" d="M 1228 531 
L 3431 531 
L 3431 0 
L 469 0 
L 469 531 
Q 828 903 1448 1529 
Q 2069 2156 2228 2338 
Q 2531 2678 2651 2914 
Q 2772 3150 2772 3378 
Q 2772 3750 2511 3984 
Q 2250 4219 1831 4219 
Q 1534 4219 1204 4116 
Q 875 4013 500 3803 
L 500 4441 
Q 881 4594 1212 4672 
Q 1544 4750 1819 4750 
Q 2544 4750 2975 4387 
Q 3406 4025 3406 3419 
Q 3406 3131 3298 2873 
Q 3191 2616 2906 2266 
Q 2828 2175 2409 1742 
Q 1991 1309 1228 531 
z
" transform="scale(0.015625)"/>
       </defs>
       <use xlink:href="#DejaVuSans-32"/>
       <use xlink:href="#DejaVuSans-30" x="63.623047"/>
       <use xlink:href="#DejaVuSans-30" x="127.246094"/>
       <use xlink:href="#DejaVuSans-30" x="190.869141"/>
       <use xlink:href="#DejaVuSans-30" x="254.492188"/>
      </g>
     </g>
    </g>
    <g id="xtick_4">
     <g id="line2d_7">
      <path d="M 179.34843 114.426082 
L 179.34843 16.529498 
" clip-path="url(#p98cd22aeac)" style="fill: none; stroke-dasharray: 2.96,1.28; stroke-dashoffset: 0; stroke: #dddfe5; stroke-width: 0.8"/>
     </g>
     <g id="line2d_8">
      <g>
       <use xlink:href="#md017b56d79" x="179.34843" y="114.426082" style="stroke: #000000; stroke-width: 0.8"/>
      </g>
     </g>
     <g id="text_4">
      <!-- 30000 -->
      <g transform="translate(166.098523 127.755581) scale(0.0833 -0.0833)">
       <defs>
        <path id="DejaVuSans-33" d="M 2597 2516 
Q 3050 2419 3304 2112 
Q 3559 1806 3559 1356 
Q 3559 666 3084 287 
Q 2609 -91 1734 -91 
Q 1441 -91 1130 -33 
Q 819 25 488 141 
L 488 750 
Q 750 597 1062 519 
Q 1375 441 1716 441 
Q 2309 441 2620 675 
Q 2931 909 2931 1356 
Q 2931 1769 2642 2001 
Q 2353 2234 1838 2234 
L 1294 2234 
L 1294 2753 
L 1863 2753 
Q 2328 2753 2575 2939 
Q 2822 3125 2822 3475 
Q 2822 3834 2567 4026 
Q 2313 4219 1838 4219 
Q 1578 4219 1281 4162 
Q 984 4106 628 3988 
L 628 4550 
Q 988 4650 1302 4700 
Q 1616 4750 1894 4750 
Q 2613 4750 3031 4423 
Q 3450 4097 3450 3541 
Q 3450 3153 3228 2886 
Q 3006 2619 2597 2516 
z
" transform="scale(0.015625)"/>
       </defs>
       <use xlink:href="#DejaVuSans-33"/>
       <use xlink:href="#DejaVuSans-30" x="63.623047"/>
       <use xlink:href="#DejaVuSans-30" x="127.246094"/>
       <use xlink:href="#DejaVuSans-30" x="190.869141"/>
       <use xlink:href="#DejaVuSans-30" x="254.492188"/>
      </g>
     </g>
    </g>
    <g id="text_5">
     <!-- $\tau_\mathrm{lag}$ [ns] -->
     <g transform="translate(105.8759 141.08796) scale(0.1 -0.1)">
      <defs>
       <path id="DejaVuSans-Oblique-3c4" d="M 2103 638 
Q 2188 488 2525 488 
L 2800 488 
L 2706 0 
L 2363 0 
Q 1800 0 1600 300 
Q 1403 606 1534 1269 
L 1856 2925 
L 541 2925 
L 653 3500 
L 3881 3500 
L 3769 2925 
L 2444 2925 
L 2113 1234 
Q 2025 781 2103 638 
z
" transform="scale(0.015625)"/>
       <path id="DejaVuSans-6c" d="M 603 4863 
L 1178 4863 
L 1178 0 
L 603 0 
L 603 4863 
z
" transform="scale(0.015625)"/>
       <path id="DejaVuSans-61" d="M 2194 1759 
Q 1497 1759 1228 1600 
Q 959 1441 959 1056 
Q 959 750 1161 570 
Q 1363 391 1709 391 
Q 2188 391 2477 730 
Q 2766 1069 2766 1631 
L 2766 1759 
L 2194 1759 
z
M 3341 1997 
L 3341 0 
L 2766 0 
L 2766 531 
Q 2569 213 2275 61 
Q 1981 -91 1556 -91 
Q 1019 -91 701 211 
Q 384 513 384 1019 
Q 384 1609 779 1909 
Q 1175 2209 1959 2209 
L 2766 2209 
L 2766 2266 
Q 2766 2663 2505 2880 
Q 2244 3097 1772 3097 
Q 1472 3097 1187 3025 
Q 903 2953 641 2809 
L 641 3341 
Q 956 3463 1253 3523 
Q 1550 3584 1831 3584 
Q 2591 3584 2966 3190 
Q 3341 2797 3341 1997 
z
" transform="scale(0.015625)"/>
       <path id="DejaVuSans-67" d="M 2906 1791 
Q 2906 2416 2648 2759 
Q 2391 3103 1925 3103 
Q 1463 3103 1205 2759 
Q 947 2416 947 1791 
Q 947 1169 1205 825 
Q 1463 481 1925 481 
Q 2391 481 2648 825 
Q 2906 1169 2906 1791 
z
M 3481 434 
Q 3481 -459 3084 -895 
Q 2688 -1331 1869 -1331 
Q 1566 -1331 1297 -1286 
Q 1028 -1241 775 -1147 
L 775 -588 
Q 1028 -725 1275 -790 
Q 1522 -856 1778 -856 
Q 2344 -856 2625 -561 
Q 2906 -266 2906 331 
L 2906 616 
Q 2728 306 2450 153 
Q 2172 0 1784 0 
Q 1141 0 747 490 
Q 353 981 353 1791 
Q 353 2603 747 3093 
Q 1141 3584 1784 3584 
Q 2172 3584 2450 3431 
Q 2728 3278 2906 2969 
L 2906 3500 
L 3481 3500 
L 3481 434 
z
" transform="scale(0.015625)"/>
       <path id="DejaVuSans-20" transform="scale(0.015625)"/>
       <path id="DejaVuSans-5b" d="M 550 4863 
L 1875 4863 
L 1875 4416 
L 1125 4416 
L 1125 -397 
L 1875 -397 
L 1875 -844 
L 550 -844 
L 550 4863 
z
" transform="scale(0.015625)"/>
       <path id="DejaVuSans-6e" d="M 3513 2113 
L 3513 0 
L 2938 0 
L 2938 2094 
Q 2938 2591 2744 2837 
Q 2550 3084 2163 3084 
Q 1697 3084 1428 2787 
Q 1159 2491 1159 1978 
L 1159 0 
L 581 0 
L 581 3500 
L 1159 3500 
L 1159 2956 
Q 1366 3272 1645 3428 
Q 1925 3584 2291 3584 
Q 2894 3584 3203 3211 
Q 3513 2838 3513 2113 
z
" transform="scale(0.015625)"/>
       <path id="DejaVuSans-73" d="M 2834 3397 
L 2834 2853 
Q 2591 2978 2328 3040 
Q 2066 3103 1784 3103 
Q 1356 3103 1142 2972 
Q 928 2841 928 2578 
Q 928 2378 1081 2264 
Q 1234 2150 1697 2047 
L 1894 2003 
Q 2506 1872 2764 1633 
Q 3022 1394 3022 966 
Q 3022 478 2636 193 
Q 2250 -91 1575 -91 
Q 1294 -91 989 -36 
Q 684 19 347 128 
L 347 722 
Q 666 556 975 473 
Q 1284 391 1588 391 
Q 1994 391 2212 530 
Q 2431 669 2431 922 
Q 2431 1156 2273 1281 
Q 2116 1406 1581 1522 
L 1381 1569 
Q 847 1681 609 1914 
Q 372 2147 372 2553 
Q 372 3047 722 3315 
Q 1072 3584 1716 3584 
Q 2034 3584 2315 3537 
Q 2597 3491 2834 3397 
z
" transform="scale(0.015625)"/>
       <path id="DejaVuSans-5d" d="M 1947 4863 
L 1947 -844 
L 622 -844 
L 622 -397 
L 1369 -397 
L 1369 4416 
L 622 4416 
L 622 4863 
L 1947 4863 
z
" transform="scale(0.015625)"/>
      </defs>
      <use xlink:href="#DejaVuSans-Oblique-3c4" transform="translate(0 0.015625)"/>
      <use xlink:href="#DejaVuSans-6c" transform="translate(60.205078 -16.390625) scale(0.7)"/>
      <use xlink:href="#DejaVuSans-61" transform="translate(79.65332 -16.390625) scale(0.7)"/>
      <use xlink:href="#DejaVuSans-67" transform="translate(122.548828 -16.390625) scale(0.7)"/>
      <use xlink:href="#DejaVuSans-20" transform="translate(169.716797 0.015625)"/>
      <use xlink:href="#DejaVuSans-5b" transform="translate(201.503906 0.015625)"/>
      <use xlink:href="#DejaVuSans-6e" transform="translate(240.517578 0.015625)"/>
      <use xlink:href="#DejaVuSans-73" transform="translate(303.896484 0.015625)"/>
      <use xlink:href="#DejaVuSans-5d" transform="translate(355.996094 0.015625)"/>
     </g>
    </g>
   </g>
   <g id="matplotlib.axis_2">
    <g id="ytick_1">
     <g id="line2d_9">
      <path d="M 46.4759 114.426082 
L 204.8759 114.426082 
" clip-path="url(#p98cd22aeac)" style="fill: none; stroke-dasharray: 2.96,1.28; stroke-dashoffset: 0; stroke: #dddfe5; stroke-width: 0.8"/>
     </g>
     <g id="line2d_10">
      <defs>
       <path id="ma4a547598a" d="M 0 0 
L -3.5 0 
" style="stroke: #000000; stroke-width: 0.8"/>
      </defs>
      <g>
       <use xlink:href="#ma4a547598a" x="46.4759" y="114.426082" style="stroke: #000000; stroke-width: 0.8"/>
      </g>
     </g>
     <g id="text_6">
      <!-- $\mathdefault{0.00}$ -->
      <g transform="translate(20.9 117.590831) scale(0.0833 -0.0833)">
       <defs>
        <path id="DejaVuSans-2e" d="M 684 794 
L 1344 794 
L 1344 0 
L 684 0 
L 684 794 
z
" transform="scale(0.015625)"/>
       </defs>
       <use xlink:href="#DejaVuSans-30" transform="translate(0 0.78125)"/>
       <use xlink:href="#DejaVuSans-2e" transform="translate(63.623047 0.78125)"/>
       <use xlink:href="#DejaVuSans-30" transform="translate(95.410156 0.78125)"/>
       <use xlink:href="#DejaVuSans-30" transform="translate(159.033203 0.78125)"/>
      </g>
     </g>
    </g>
    <g id="ytick_2">
     <g id="line2d_11">
      <path d="M 46.4759 92.384832 
L 204.8759 92.384832 
" clip-path="url(#p98cd22aeac)" style="fill: none; stroke-dasharray: 2.96,1.28; stroke-dashoffset: 0; stroke: #dddfe5; stroke-width: 0.8"/>
     </g>
     <g id="line2d_12">
      <g>
       <use xlink:href="#ma4a547598a" x="46.4759" y="92.384832" style="stroke: #000000; stroke-width: 0.8"/>
      </g>
     </g>
     <g id="text_7">
      <!-- $\mathdefault{0.25}$ -->
      <g transform="translate(21.3165 95.549581) scale(0.0833 -0.0833)">
       <defs>
        <path id="DejaVuSans-35" d="M 691 4666 
L 3169 4666 
L 3169 4134 
L 1269 4134 
L 1269 2991 
Q 1406 3038 1543 3061 
Q 1681 3084 1819 3084 
Q 2600 3084 3056 2656 
Q 3513 2228 3513 1497 
Q 3513 744 3044 326 
Q 2575 -91 1722 -91 
Q 1428 -91 1123 -41 
Q 819 9 494 109 
L 494 744 
Q 775 591 1075 516 
Q 1375 441 1709 441 
Q 2250 441 2565 725 
Q 2881 1009 2881 1497 
Q 2881 1984 2565 2268 
Q 2250 2553 1709 2553 
Q 1456 2553 1204 2497 
Q 953 2441 691 2322 
L 691 4666 
z
" transform="scale(0.015625)"/>
       </defs>
       <use xlink:href="#DejaVuSans-30" transform="translate(0 0.78125)"/>
       <use xlink:href="#DejaVuSans-2e" transform="translate(63.623047 0.78125)"/>
       <use xlink:href="#DejaVuSans-32" transform="translate(89.910156 0.78125)"/>
       <use xlink:href="#DejaVuSans-35" transform="translate(153.533203 0.78125)"/>
      </g>
     </g>
    </g>
    <g id="ytick_3">
     <g id="line2d_13">
      <path d="M 46.4759 70.343582 
L 204.8759 70.343582 
" clip-path="url(#p98cd22aeac)" style="fill: none; stroke-dasharray: 2.96,1.28; stroke-dashoffset: 0; stroke: #dddfe5; stroke-width: 0.8"/>
     </g>
     <g id="line2d_14">
      <g>
       <use xlink:href="#ma4a547598a" x="46.4759" y="70.343582" style="stroke: #000000; stroke-width: 0.8"/>
      </g>
     </g>
     <g id="text_8">
      <!-- $\mathdefault{0.50}$ -->
      <g transform="translate(20.9 73.508332) scale(0.0833 -0.0833)">
       <use xlink:href="#DejaVuSans-30" transform="translate(0 0.78125)"/>
       <use xlink:href="#DejaVuSans-2e" transform="translate(63.623047 0.78125)"/>
       <use xlink:href="#DejaVuSans-35" transform="translate(95.410156 0.78125)"/>
       <use xlink:href="#DejaVuSans-30" transform="translate(159.033203 0.78125)"/>
      </g>
     </g>
    </g>
    <g id="ytick_4">
     <g id="line2d_15">
      <path d="M 46.4759 48.302332 
L 204.8759 48.302332 
" clip-path="url(#p98cd22aeac)" style="fill: none; stroke-dasharray: 2.96,1.28; stroke-dashoffset: 0; stroke: #dddfe5; stroke-width: 0.8"/>
     </g>
     <g id="line2d_16">
      <g>
       <use xlink:href="#ma4a547598a" x="46.4759" y="48.302332" style="stroke: #000000; stroke-width: 0.8"/>
      </g>
     </g>
     <g id="text_9">
      <!-- $\mathdefault{0.75}$ -->
      <g transform="translate(21.5664 51.467082) scale(0.0833 -0.0833)">
       <defs>
        <path id="DejaVuSans-37" d="M 525 4666 
L 3525 4666 
L 3525 4397 
L 1831 0 
L 1172 0 
L 2766 4134 
L 525 4134 
L 525 4666 
z
" transform="scale(0.015625)"/>
       </defs>
       <use xlink:href="#DejaVuSans-30" transform="translate(0 0.78125)"/>
       <use xlink:href="#DejaVuSans-2e" transform="translate(63.623047 0.78125)"/>
       <use xlink:href="#DejaVuSans-37" transform="translate(87.660156 0.78125)"/>
       <use xlink:href="#DejaVuSans-35" transform="translate(151.283203 0.78125)"/>
      </g>
     </g>
    </g>
    <g id="ytick_5">
     <g id="line2d_17">
      <path d="M 46.4759 26.261082 
L 204.8759 26.261082 
" clip-path="url(#p98cd22aeac)" style="fill: none; stroke-dasharray: 2.96,1.28; stroke-dashoffset: 0; stroke: #dddfe5; stroke-width: 0.8"/>
     </g>
     <g id="line2d_18">
      <g>
       <use xlink:href="#ma4a547598a" x="46.4759" y="26.261082" style="stroke: #000000; stroke-width: 0.8"/>
      </g>
     </g>
     <g id="text_10">
      <!-- $\mathdefault{1.00}$ -->
      <g transform="translate(20.9 29.425832) scale(0.0833 -0.0833)">
       <use xlink:href="#DejaVuSans-31" transform="translate(0 0.78125)"/>
       <use xlink:href="#DejaVuSans-2e" transform="translate(63.623047 0.78125)"/>
       <use xlink:href="#DejaVuSans-30" transform="translate(95.410156 0.78125)"/>
       <use xlink:href="#DejaVuSans-30" transform="translate(159.033203 0.78125)"/>
      </g>
     </g>
    </g>
    <g id="text_11">
     <!-- probability $P$ -->
     <g transform="translate(14.8 96.87779) rotate(-90) scale(0.1 -0.1)">
      <defs>
       <path id="DejaVuSans-70" d="M 1159 525 
L 1159 -1331 
L 581 -1331 
L 581 3500 
L 1159 3500 
L 1159 2969 
Q 1341 3281 1617 3432 
Q 1894 3584 2278 3584 
Q 2916 3584 3314 3078 
Q 3713 2572 3713 1747 
Q 3713 922 3314 415 
Q 2916 -91 2278 -91 
Q 1894 -91 1617 61 
Q 1341 213 1159 525 
z
M 3116 1747 
Q 3116 2381 2855 2742 
Q 2594 3103 2138 3103 
Q 1681 3103 1420 2742 
Q 1159 2381 1159 1747 
Q 1159 1113 1420 752 
Q 1681 391 2138 391 
Q 2594 391 2855 752 
Q 3116 1113 3116 1747 
z
" transform="scale(0.015625)"/>
       <path id="DejaVuSans-72" d="M 2631 2963 
Q 2534 3019 2420 3045 
Q 2306 3072 2169 3072 
Q 1681 3072 1420 2755 
Q 1159 2438 1159 1844 
L 1159 0 
L 581 0 
L 581 3500 
L 1159 3500 
L 1159 2956 
Q 1341 3275 1631 3429 
Q 1922 3584 2338 3584 
Q 2397 3584 2469 3576 
Q 2541 3569 2628 3553 
L 2631 2963 
z
" transform="scale(0.015625)"/>
       <path id="DejaVuSans-6f" d="M 1959 3097 
Q 1497 3097 1228 2736 
Q 959 2375 959 1747 
Q 959 1119 1226 758 
Q 1494 397 1959 397 
Q 2419 397 2687 759 
Q 2956 1122 2956 1747 
Q 2956 2369 2687 2733 
Q 2419 3097 1959 3097 
z
M 1959 3584 
Q 2709 3584 3137 3096 
Q 3566 2609 3566 1747 
Q 3566 888 3137 398 
Q 2709 -91 1959 -91 
Q 1206 -91 779 398 
Q 353 888 353 1747 
Q 353 2609 779 3096 
Q 1206 3584 1959 3584 
z
" transform="scale(0.015625)"/>
       <path id="DejaVuSans-62" d="M 3116 1747 
Q 3116 2381 2855 2742 
Q 2594 3103 2138 3103 
Q 1681 3103 1420 2742 
Q 1159 2381 1159 1747 
Q 1159 1113 1420 752 
Q 1681 391 2138 391 
Q 2594 391 2855 752 
Q 3116 1113 3116 1747 
z
M 1159 2969 
Q 1341 3281 1617 3432 
Q 1894 3584 2278 3584 
Q 2916 3584 3314 3078 
Q 3713 2572 3713 1747 
Q 3713 922 3314 415 
Q 2916 -91 2278 -91 
Q 1894 -91 1617 61 
Q 1341 213 1159 525 
L 1159 0 
L 581 0 
L 581 4863 
L 1159 4863 
L 1159 2969 
z
" transform="scale(0.015625)"/>
       <path id="DejaVuSans-69" d="M 603 3500 
L 1178 3500 
L 1178 0 
L 603 0 
L 603 3500 
z
M 603 4863 
L 1178 4863 
L 1178 4134 
L 603 4134 
L 603 4863 
z
" transform="scale(0.015625)"/>
       <path id="DejaVuSans-74" d="M 1172 4494 
L 1172 3500 
L 2356 3500 
L 2356 3053 
L 1172 3053 
L 1172 1153 
Q 1172 725 1289 603 
Q 1406 481 1766 481 
L 2356 481 
L 2356 0 
L 1766 0 
Q 1100 0 847 248 
Q 594 497 594 1153 
L 594 3053 
L 172 3053 
L 172 3500 
L 594 3500 
L 594 4494 
L 1172 4494 
z
" transform="scale(0.015625)"/>
       <path id="DejaVuSans-79" d="M 2059 -325 
Q 1816 -950 1584 -1140 
Q 1353 -1331 966 -1331 
L 506 -1331 
L 506 -850 
L 844 -850 
Q 1081 -850 1212 -737 
Q 1344 -625 1503 -206 
L 1606 56 
L 191 3500 
L 800 3500 
L 1894 763 
L 2988 3500 
L 3597 3500 
L 2059 -325 
z
" transform="scale(0.015625)"/>
       <path id="DejaVuSans-Oblique-50" d="M 1081 4666 
L 2541 4666 
Q 3178 4666 3512 4369 
Q 3847 4072 3847 3500 
Q 3847 2731 3353 2303 
Q 2859 1875 1966 1875 
L 1172 1875 
L 806 0 
L 172 0 
L 1081 4666 
z
M 1613 4147 
L 1275 2394 
L 2069 2394 
Q 2606 2394 2893 2669 
Q 3181 2944 3181 3456 
Q 3181 3784 2986 3965 
Q 2791 4147 2438 4147 
L 1613 4147 
z
" transform="scale(0.015625)"/>
      </defs>
      <use xlink:href="#DejaVuSans-70" transform="translate(0 0.015625)"/>
      <use xlink:href="#DejaVuSans-72" transform="translate(63.476562 0.015625)"/>
      <use xlink:href="#DejaVuSans-6f" transform="translate(104.589844 0.015625)"/>
      <use xlink:href="#DejaVuSans-62" transform="translate(165.771484 0.015625)"/>
      <use xlink:href="#DejaVuSans-61" transform="translate(229.248047 0.015625)"/>
      <use xlink:href="#DejaVuSans-62" transform="translate(290.527344 0.015625)"/>
      <use xlink:href="#DejaVuSans-69" transform="translate(354.003906 0.015625)"/>
      <use xlink:href="#DejaVuSans-6c" transform="translate(381.787109 0.015625)"/>
      <use xlink:href="#DejaVuSans-69" transform="translate(409.570312 0.015625)"/>
      <use xlink:href="#DejaVuSans-74" transform="translate(437.353516 0.015625)"/>
      <use xlink:href="#DejaVuSans-79" transform="translate(476.5625 0.015625)"/>
      <use xlink:href="#DejaVuSans-20" transform="translate(535.742188 0.015625)"/>
      <use xlink:href="#DejaVuSans-Oblique-50" transform="translate(567.529297 0.015625)"/>
     </g>
    </g>
    <g id="text_12">
     <!-- $\times\mathdefault{10^{−4}}\mathdefault{}$ -->
     <g transform="translate(19.9865 13.529498) scale(0.0833 -0.0833)">
      <defs>
       <path id="DejaVuSans-d7" d="M 4488 3438 
L 3059 2003 
L 4488 575 
L 4116 197 
L 2681 1631 
L 1247 197 
L 878 575 
L 2303 2003 
L 878 3438 
L 1247 3816 
L 2681 2381 
L 4116 3816 
L 4488 3438 
z
" transform="scale(0.015625)"/>
       <path id="DejaVuSans-2212" d="M 678 2272 
L 4684 2272 
L 4684 1741 
L 678 1741 
L 678 2272 
z
" transform="scale(0.015625)"/>
       <path id="DejaVuSans-34" d="M 2419 4116 
L 825 1625 
L 2419 1625 
L 2419 4116 
z
M 2253 4666 
L 3047 4666 
L 3047 1625 
L 3713 1625 
L 3713 1100 
L 3047 1100 
L 3047 0 
L 2419 0 
L 2419 1100 
L 313 1100 
L 313 1709 
L 2253 4666 
z
" transform="scale(0.015625)"/>
      </defs>
      <use xlink:href="#DejaVuSans-d7" transform="translate(0 0.684375)"/>
      <use xlink:href="#DejaVuSans-31" transform="translate(83.789062 0.684375)"/>
      <use xlink:href="#DejaVuSans-30" transform="translate(147.412109 0.684375)"/>
      <use xlink:href="#DejaVuSans-2212" transform="translate(211.992188 38.965625) scale(0.7)"/>
      <use xlink:href="#DejaVuSans-34" transform="translate(270.644531 38.965625) scale(0.7)"/>
     </g>
    </g>
   </g>
   <g id="patch_3">
    <path d="M 46.4759 114.426082 
L 46.4759 52.451133 
L 50.436387 52.451133 
L 50.436387 74.987478 
L 54.396874 74.987478 
L 54.396874 80.621564 
L 58.357362 80.621564 
L 58.357362 108.791996 
L 62.317849 108.791996 
L 62.317849 91.889737 
L 66.278336 91.889737 
L 66.278336 97.523823 
L 70.238823 97.523823 
L 70.238823 114.426082 
L 74.19931 114.426082 
L 74.19931 108.791996 
L 78.159798 108.791996 
L 78.159798 114.426082 
L 82.120285 114.426082 
L 82.120285 108.791996 
L 86.080772 108.791996 
L 86.080772 114.426082 
L 90.041259 114.426082 
L 90.041259 114.426082 
L 94.001746 114.426082 
L 94.001746 114.426082 
L 97.962234 114.426082 
L 97.962234 108.791996 
L 101.922721 108.791996 
L 101.922721 114.426082 
L 105.883208 114.426082 
L 105.883208 114.426082 
L 109.843695 114.426082 
L 109.843695 114.426082 
L 113.804182 114.426082 
L 113.804182 114.426082 
L 117.76467 114.426082 
L 117.76467 114.426082 
L 121.725157 114.426082 
L 121.725157 114.426082 
" clip-path="url(#p98cd22aeac)"/>
   </g>
   <g id="patch_4">
    <path d="M 46.4759 114.426082 
L 46.520191 114.426082 
L 46.697354 92.332518 
L 46.741645 92.332518 
L 46.918808 66.325236 
L 46.963099 66.325236 
L 47.140263 55.909699 
L 47.184553 55.909699 
L 47.361717 44.168547 
L 47.406008 44.168547 
L 47.406008 45.809784 
L 47.53888 40.507328 
L 47.583171 42.716685 
L 47.627462 42.716685 
L 47.760334 29.586795 
L 47.804625 34.005508 
L 47.848916 34.005508 
L 48.02608 26.051825 
L 48.07037 26.051825 
L 48.07037 30.849284 
L 48.203243 21.696236 
L 48.247534 27.945559 
L 48.291825 27.945559 
L 48.336115 29.586795 
L 48.468988 24.158091 
L 48.513279 24.158091 
L 48.513279 21.569987 
L 48.60186 25.862451 
L 48.690442 22.011859 
L 48.734733 22.011859 
L 48.823315 28.450555 
L 48.911896 26.809318 
L 48.956187 26.809318 
L 48.956187 21.191241 
L 49.133351 24.915584 
L 49.177641 24.915584 
L 49.310514 29.523671 
L 49.266223 22.769352 
L 49.354805 27.503687 
L 49.443386 27.503687 
L 49.531968 25.799327 
L 49.62055 30.78616 
L 49.664841 30.78616 
L 49.664841 29.586795 
L 49.797713 32.364272 
L 49.842004 30.659911 
L 49.930586 30.849284 
L 50.019167 34.447379 
L 50.107749 33.879259 
L 50.15204 33.879259 
L 50.15204 29.649919 
L 50.329203 38.045474 
L 50.373494 38.045474 
L 50.373494 34.88925 
L 50.550658 38.613594 
L 50.594948 38.613594 
L 50.594948 34.32113 
L 50.772112 38.676719 
L 50.816403 38.676719 
L 50.949275 37.729852 
L 50.993566 44.547294 
L 51.037857 44.547294 
L 51.170729 41.51732 
L 51.082148 46.251655 
L 51.21502 42.906058 
L 51.259311 42.906058 
L 51.259311 37.856101 
L 51.436474 47.514144 
L 51.480765 47.514144 
L 51.613638 49.597252 
L 51.657929 47.956016 
L 51.702219 47.956016 
L 51.702219 53.574093 
L 51.879383 51.238488 
L 51.923674 51.238488 
L 51.923674 48.271638 
L 52.012255 53.38472 
L 52.100837 51.680359 
L 52.145128 51.680359 
L 52.145128 54.836583 
L 52.322291 52.879724 
L 52.366582 52.879724 
L 52.455164 58.876549 
L 52.543746 56.35157 
L 52.588036 56.35157 
L 52.588036 58.497802 
L 52.632327 54.457836 
L 52.7652 57.677184 
L 52.809491 57.677184 
L 52.942363 63.484635 
L 52.898072 56.288446 
L 52.986654 57.677184 
L 53.030945 57.677184 
L 53.163817 63.610884 
L 53.208108 62.537768 
L 53.252399 62.537768 
L 53.29669 64.242129 
L 53.429562 63.737133 
L 53.473853 63.737133 
L 53.606726 67.65085 
L 53.651017 66.893357 
L 53.695307 66.893357 
L 53.872471 69.355211 
L 53.916762 69.355211 
L 53.916762 68.345219 
L 54.093925 70.870198 
L 54.138216 70.870198 
L 54.138216 66.640859 
L 54.315379 73.837048 
L 54.35967 73.837048 
L 54.35967 70.238953 
L 54.403961 75.41516 
L 54.536833 74.468293 
L 54.581124 74.468293 
L 54.625415 71.185821 
L 54.669706 77.308894 
L 54.758288 75.920156 
L 54.802579 75.920156 
L 54.802579 74.84704 
L 54.979742 75.541409 
L 55.068324 75.730782 
L 55.201196 79.139504 
L 55.245487 78.823881 
L 55.289778 78.823881 
L 55.42265 77.624516 
L 55.466941 79.328877 
L 55.511232 79.328877 
L 55.688395 80.970113 
L 55.732686 80.970113 
L 55.732686 79.455126 
L 55.776977 81.790731 
L 55.90985 81.790731 
L 55.998431 81.601358 
L 56.087013 83.810714 
L 56.175595 81.222611 
L 56.219886 81.222611 
L 56.352758 85.451951 
L 56.397049 85.451951 
L 56.44134 85.451951 
L 56.485631 82.61135 
L 56.618503 86.272569 
L 56.662794 86.272569 
L 56.662794 83.873839 
L 56.795666 87.28256 
L 56.839957 87.219436 
L 56.928539 87.156311 
L 56.928539 88.923797 
L 57.061412 85.5782 
L 57.105702 86.966938 
L 57.149993 86.966938 
L 57.238575 85.010079 
L 57.327157 88.481925 
L 57.371447 88.481925 
L 57.460029 91.259402 
L 57.548611 89.68129 
L 57.592902 89.68129 
L 57.681483 92.016896 
L 57.770065 87.28256 
L 57.814356 87.28256 
L 57.814356 93.090012 
L 57.991519 89.68129 
L 58.03581 89.68129 
L 58.03581 92.711265 
L 58.168683 88.923797 
L 58.212973 90.817531 
L 58.257264 90.817531 
L 58.257264 90.060037 
L 58.390137 93.342509 
L 58.434428 92.900638 
L 58.478719 92.900638 
L 58.5673 94.604999 
L 58.523009 91.953771 
L 58.655882 93.595007 
L 58.700173 93.595007 
L 58.833045 91.764398 
L 58.788754 95.299368 
L 58.877336 93.784381 
L 58.921627 93.784381 
L 59.09879 98.076845 
L 59.143081 98.076845 
L 59.320245 94.100003 
L 59.364535 94.100003 
L 59.497408 97.950596 
L 59.541699 94.352501 
L 59.58599 94.352501 
L 59.763153 98.01372 
L 59.807444 98.01372 
L 59.896025 95.109995 
L 59.984607 98.518716 
L 60.028898 98.518716 
L 60.028898 99.339334 
L 60.11748 97.256226 
L 60.206061 98.771214 
L 60.250352 98.771214 
L 60.250352 97.508724 
L 60.427516 99.149961 
L 60.516097 98.960587 
L 60.604679 98.771214 
L 60.64897 99.970579 
L 60.693261 99.907454 
L 60.737552 99.907454 
L 60.826133 101.233068 
L 60.914715 99.402458 
L 60.959006 99.402458 
L 61.091878 101.422441 
L 61.136169 100.917446 
L 61.18046 100.917446 
L 61.18046 102.306184 
L 61.357623 99.339334 
L 61.401914 99.339334 
L 61.490496 101.927437 
L 61.579078 101.611815 
L 61.623368 101.611815 
L 61.623368 103.568673 
L 61.800532 100.159952 
L 61.844823 100.159952 
L 61.844823 105.336159 
L 62.021986 102.874304 
L 62.066277 102.874304 
L 62.199149 102.179935 
L 62.110568 104.326167 
L 62.24344 103.884296 
L 62.287731 103.884296 
L 62.287731 102.684931 
L 62.464894 103.884296 
L 62.509185 103.884296 
L 62.509185 104.389292 
L 62.686349 103.000553 
L 62.730639 103.000553 
L 62.730639 105.967403 
L 62.907803 103.253051 
L 62.952094 103.253051 
L 63.129257 105.588656 
L 63.217839 105.714905 
L 63.26213 104.136794 
L 63.30642 106.472399 
L 63.395002 104.452416 
L 63.439293 104.452416 
L 63.439293 105.904279 
L 63.572165 104.326167 
L 63.616456 105.588656 
L 63.660747 105.588656 
L 63.660747 106.788021 
L 63.79362 105.273034 
L 63.837911 105.714905 
L 63.882201 105.714905 
L 63.882201 105.273034 
L 64.015074 106.598648 
L 64.059365 105.399283 
L 64.103656 105.399283 
L 64.280819 108.618631 
L 64.32511 108.618631 
L 64.502273 105.904279 
L 64.546564 105.904279 
L 64.546564 107.482391 
L 64.723727 106.91427 
L 64.768018 106.91427 
L 64.768018 108.050511 
L 64.945182 107.356142 
L 65.033763 107.545515 
L 65.033763 108.555507 
L 65.210927 107.040519 
L 65.255218 107.040519 
L 65.255218 108.74488 
L 65.38809 106.851146 
L 65.432381 107.734888 
L 65.565253 107.671764 
L 65.653835 108.492382 
L 65.609544 106.598648 
L 65.742417 107.356142 
L 65.786708 107.356142 
L 65.786708 106.788021 
L 65.91958 108.871129 
L 65.963871 108.366133 
L 66.008162 108.366133 
L 66.052453 109.628623 
L 66.185325 107.987386 
L 66.229616 107.987386 
L 66.362489 109.376125 
L 66.406779 107.229893 
L 66.45107 107.229893 
L 66.628234 109.691747 
L 66.672525 109.691747 
L 66.805397 109.754871 
L 66.849688 107.734888 
L 66.893979 107.734888 
L 67.071142 110.070494 
L 67.115433 110.070494 
L 67.204015 110.259867 
L 67.292596 108.934253 
L 67.336887 108.934253 
L 67.381178 109.628623 
L 67.46976 108.681756 
L 67.514051 109.502374 
L 67.558341 109.502374 
L 67.558341 108.934253 
L 67.691214 110.57549 
L 67.735505 110.007369 
L 67.779796 110.007369 
L 67.824086 108.808004 
L 67.956959 110.638614 
L 68.00125 110.638614 
L 68.089831 108.871129 
L 68.134122 111.14361 
L 68.178413 110.133618 
L 68.311286 110.196743 
L 68.311286 111.080485 
L 68.355577 109.944245 
L 68.488449 110.57549 
L 68.53274 110.57549 
L 68.577031 111.206734 
L 68.665612 109.754871 
L 68.709903 111.080485 
L 68.754194 111.080485 
L 68.842776 111.964228 
L 68.931358 110.512365 
L 69.019939 110.386116 
L 69.019939 110.259867 
L 69.152812 111.396108 
L 69.197103 110.764863 
L 69.241393 110.764863 
L 69.329975 111.522357 
L 69.418557 110.764863 
L 69.462848 110.764863 
L 69.551429 111.522357 
L 69.640011 111.269859 
L 69.684302 111.269859 
L 69.684302 110.449241 
L 69.728593 111.522357 
L 69.861465 110.638614 
L 69.905756 110.638614 
L 70.038629 111.964228 
L 69.950047 110.512365 
L 70.082919 111.901103 
L 70.12721 111.901103 
L 70.260083 111.14361 
L 70.171501 112.090477 
L 70.304374 111.332983 
L 70.348664 111.332983 
L 70.392955 112.027352 
L 70.525828 111.964228 
L 70.570119 111.964228 
L 70.6587 111.332983 
L 70.702991 112.595473 
L 70.747282 111.837979 
L 70.791573 111.837979 
L 70.791573 111.459232 
L 70.880155 112.216726 
L 70.968736 112.090477 
L 71.013027 112.090477 
L 71.013027 111.080485 
L 71.190191 112.153601 
L 71.234481 112.153601 
L 71.234481 111.332983 
L 71.323063 112.721722 
L 71.411645 112.153601 
L 71.455936 112.153601 
L 71.455936 112.406099 
L 71.588808 111.396108 
L 71.633099 111.71173 
L 71.765971 111.585481 
L 71.810262 112.721722 
L 71.943135 111.459232 
L 71.987426 111.459232 
L 71.987426 111.14361 
L 72.164589 112.532348 
L 72.20888 112.532348 
L 72.341752 112.911095 
L 72.253171 111.837979 
L 72.386043 112.532348 
L 72.430334 112.532348 
L 72.430334 112.27985 
L 72.607497 112.847971 
L 72.651788 112.847971 
L 72.696079 112.090477 
L 72.74037 113.163593 
L 72.828952 112.974219 
L 72.873243 112.974219 
L 72.873243 111.837979 
L 73.050406 112.27985 
L 73.094697 112.27985 
L 73.227569 113.163593 
L 73.138988 112.216726 
L 73.27186 112.406099 
L 73.316151 112.406099 
L 73.360442 111.964228 
L 73.493314 113.100468 
L 73.537605 113.100468 
L 73.670478 112.469224 
L 73.714769 112.847971 
L 73.759059 112.847971 
L 73.759059 113.100468 
L 73.936223 111.964228 
L 73.980514 111.964228 
L 74.157677 113.100468 
L 74.246259 113.100468 
L 74.246259 113.416091 
L 74.29055 112.658597 
L 74.423422 112.911095 
L 74.467713 112.911095 
L 74.467713 112.406099 
L 74.556295 113.289842 
L 74.644876 113.163593 
L 74.689167 113.163593 
L 74.689167 113.416091 
L 74.82204 112.911095 
L 74.86633 112.911095 
L 74.999203 113.100468 
L 75.087785 113.54234 
L 75.176366 113.289842 
L 75.264948 113.226717 
L 75.35353 112.847971 
L 75.397821 113.416091 
L 75.442111 113.416091 
L 75.530693 113.289842 
L 75.574984 112.847971 
L 75.619275 113.731713 
L 75.707857 113.226717 
L 76.106474 113.289842 
L 76.106474 113.731713 
L 76.283637 113.668589 
L 76.372219 113.668589 
L 76.372219 112.974219 
L 76.549383 113.416091 
L 76.637964 113.226717 
L 76.770837 112.721722 
L 76.726546 113.857962 
L 76.815128 113.479215 
L 76.992291 113.479215 
L 76.992291 113.794838 
L 77.169454 113.226717 
L 77.213745 113.226717 
L 77.213745 113.605464 
L 77.390909 113.605464 
L 77.523781 113.54234 
L 77.523781 113.163593 
L 77.612363 113.921086 
L 77.700944 113.731713 
L 77.745235 113.731713 
L 77.745235 114.047335 
L 77.922399 113.100468 
L 77.96669 113.100468 
L 78.01098 113.731713 
L 78.143853 113.731713 
L 78.49818 113.668589 
L 78.49818 113.352966 
L 78.586761 114.236709 
L 78.675343 113.479215 
L 78.719634 113.479215 
L 78.763925 113.857962 
L 78.896797 113.668589 
L 78.985379 113.605464 
L 78.985379 113.921086 
L 79.162542 113.605464 
L 79.206833 113.605464 
L 79.383997 114.11046 
L 79.428287 114.11046 
L 79.605451 113.416091 
L 79.649742 113.416091 
L 79.782614 114.047335 
L 79.826905 113.731713 
L 79.959777 113.857962 
L 80.004068 114.047335 
L 80.136941 113.668589 
L 80.269813 113.857962 
L 80.314104 114.299833 
L 80.358395 113.794838 
L 80.446977 113.921086 
L 80.978467 113.921086 
L 80.978467 114.173584 
L 81.022758 113.731713 
L 81.15563 113.921086 
L 81.244212 113.857962 
L 81.244212 113.605464 
L 81.288503 114.11046 
L 81.421375 114.047335 
L 81.64283 113.984211 
L 81.64283 113.794838 
L 81.775702 114.173584 
L 81.819993 114.047335 
L 81.997156 114.11046 
L 82.041447 113.605464 
L 82.17432 114.173584 
L 82.21861 114.173584 
L 82.21861 113.857962 
L 82.351483 114.236709 
L 82.395774 114.173584 
L 82.70581 114.047335 
L 82.70581 113.857962 
L 82.838682 114.173584 
L 82.882973 114.11046 
L 83.325882 113.921086 
L 83.325882 113.668589 
L 83.414463 114.173584 
L 83.503045 113.984211 
L 83.724499 113.921086 
L 83.724499 114.236709 
L 83.901663 114.047335 
L 84.034535 113.984211 
L 84.034535 113.794838 
L 84.211698 114.236709 
L 85.053224 114.236709 
L 85.053224 113.984211 
L 85.141806 114.299833 
L 85.230388 114.173584 
L 86.647695 114.173584 
L 86.647695 114.426082 
L 86.824858 114.173584 
L 87.44493 114.299833 
L 87.44493 114.426082 
L 87.489221 114.173584 
L 87.622093 114.236709 
L 88.020711 114.11046 
L 88.020711 113.984211 
L 88.197874 114.362958 
L 88.50791 114.299833 
L 88.50791 113.857962 
L 88.552201 114.362958 
L 88.685074 114.236709 
L 127.040944 114.362958 
L 127.040944 114.426082 
" clip-path="url(#p98cd22aeac)" style="fill: none; stroke: #2a9d8f; stroke-linejoin: miter"/>
   </g>
   <g id="patch_5">
    <path d="M 46.4759 114.426082 
L 46.564482 114.426082 
L 46.741645 97.842617 
L 46.830227 97.842617 
L 47.00739 79.824241 
L 47.095972 79.824241 
L 47.273135 69.90286 
L 47.361717 69.90286 
L 47.53888 58.669561 
L 47.627462 58.669561 
L 47.804625 53.70887 
L 47.893207 53.70887 
L 48.07037 47.374765 
L 48.158952 47.374765 
L 48.336115 46.698307 
L 48.424697 46.698307 
L 48.424697 40.917668 
L 48.60186 42.885545 
L 48.690442 42.885545 
L 48.867606 38.47832 
L 48.956187 38.47832 
L 49.044769 41.020162 
L 49.133351 40.589688 
L 49.221932 40.589688 
L 49.221932 37.699369 
L 49.399096 38.355328 
L 49.487677 38.355328 
L 49.487677 37.822361 
L 49.576259 39.667246 
L 49.664841 38.416824 
L 49.753422 38.416824 
L 49.930586 40.56919 
L 50.019167 40.56919 
L 50.019167 38.662809 
L 50.107749 41.307144 
L 50.196331 40.384701 
L 50.284913 40.384701 
L 50.373494 42.352578 
L 50.462076 42.065596 
L 50.550658 42.065596 
L 50.727821 44.607438 
L 50.816403 44.607438 
L 50.993566 46.554816 
L 51.082148 46.554816 
L 51.082148 48.912169 
L 51.259311 48.789177 
L 51.347893 48.789177 
L 51.347893 47.128781 
L 51.436474 50.34708 
L 51.525056 49.711619 
L 51.613638 49.711619 
L 51.790801 52.437949 
L 51.879383 52.437949 
L 52.056546 55.102783 
L 52.145128 55.102783 
L 52.145128 52.929919 
L 52.322291 55.943231 
L 52.499455 55.943231 
L 52.676618 59.673998 
L 52.7652 59.673998 
L 52.853781 58.321082 
L 52.942363 60.473448 
L 53.030945 60.473448 
L 53.030945 59.919983 
L 53.208108 61.969855 
L 53.29669 61.969855 
L 53.385272 64.019727 
L 53.473853 63.32277 
L 53.562435 63.32277 
L 53.739598 68.344957 
L 53.82818 68.344957 
L 53.82818 65.536632 
L 54.005343 66.992041 
L 54.182507 66.910046 
L 54.271088 70.763806 
L 54.35967 69.697873 
L 54.448252 69.697873 
L 54.536833 69.656875 
L 54.625415 70.415328 
L 54.713997 70.415328 
L 54.713997 72.383205 
L 54.89116 71.747745 
L 54.979742 71.747745 
L 55.068324 74.494573 
L 55.156905 74.105098 
L 55.245487 74.105098 
L 55.245487 73.182655 
L 55.42265 77.446389 
L 55.511232 77.446389 
L 55.511232 76.441952 
L 55.599814 77.569382 
L 55.688395 76.95442 
L 55.865559 77.036415 
L 56.042722 77.958857 
L 56.131304 77.958857 
L 56.131304 80.459701 
L 56.308467 79.906236 
L 56.397049 79.906236 
L 56.485631 81.935609 
L 56.574212 81.341146 
L 56.662794 81.341146 
L 56.751376 82.509573 
L 56.839957 81.054164 
L 56.928539 81.054164 
L 57.105702 85.030916 
L 57.194284 85.030916 
L 57.194284 84.559445 
L 57.371447 85.727873 
L 57.460029 85.727873 
L 57.460029 86.219842 
L 57.548611 85.584382 
L 57.637192 85.666376 
L 57.725774 85.666376 
L 57.902938 87.470264 
L 57.991519 87.470264 
L 58.168683 89.315149 
L 58.345846 89.417642 
L 58.345846 89.991607 
L 58.523009 88.864177 
L 58.700173 89.028167 
L 58.700173 90.319586 
L 58.877336 89.848116 
L 58.965918 89.848116 
L 59.143081 92.451453 
L 59.231663 92.451453 
L 59.231663 90.688563 
L 59.408826 92.594944 
L 59.497408 92.594944 
L 59.58599 93.886364 
L 59.674571 92.65644 
L 59.763153 92.65644 
L 59.851735 94.58332 
L 59.940316 93.496888 
L 60.028898 93.496888 
L 60.206061 94.972796 
L 60.294643 94.972796 
L 60.294643 94.009356 
L 60.471806 95.198282 
L 60.560388 95.198282 
L 60.560388 96.67419 
L 60.737552 96.059228 
L 60.826133 96.059228 
L 60.826133 96.981671 
L 60.914715 95.87474 
L 61.003297 96.858678 
L 61.091878 96.858678 
L 61.269042 97.740123 
L 61.357623 97.740123 
L 61.357623 96.920174 
L 61.446205 98.314087 
L 61.534787 97.965609 
L 61.623368 97.965609 
L 61.71195 99.216031 
L 61.800532 98.252591 
L 61.889113 98.252591 
L 62.066277 99.503013 
L 62.154858 99.503013 
L 62.154858 101.409394 
L 62.24344 99.421018 
L 62.332022 101.019919 
L 62.420604 101.019919 
L 62.420604 100.322962 
L 62.597767 100.507451 
L 62.686349 100.507451 
L 62.686349 100.99942 
L 62.77493 99.851491 
L 62.863512 100.83543 
L 62.952094 100.83543 
L 63.040675 101.450392 
L 63.129257 101.101913 
L 63.217839 101.101913 
L 63.395002 102.782809 
L 63.483584 102.782809 
L 63.572165 103.315775 
L 63.660747 102.188346 
L 63.749329 102.188346 
L 63.749329 101.921862 
L 63.926492 102.208844 
L 64.015074 102.208844 
L 64.192237 103.705251 
L 64.280819 103.705251 
L 64.457982 103.049292 
L 64.546564 103.049292 
L 64.635146 105.099164 
L 64.723727 104.340711 
L 64.812309 104.340711 
L 64.812309 104.853179 
L 64.900891 103.88974 
L 64.989472 104.033231 
L 65.078054 104.033231 
L 65.166636 104.586696 
L 65.255218 104.484202 
L 65.343799 104.484202 
L 65.432381 105.775622 
L 65.520963 105.386146 
L 65.698126 105.406645 
L 65.698126 105.796121 
L 65.875289 105.755123 
L 66.052453 105.878116 
L 66.052453 105.037668 
L 66.141034 106.472578 
L 66.229616 106.308589 
L 66.406779 106.431581 
L 66.495361 106.862054 
L 66.583943 106.841555 
L 66.672525 106.841555 
L 66.761106 107.046543 
L 66.761106 106.28809 
L 66.849688 106.698064 
L 66.93827 106.698064 
L 66.93827 106.103601 
L 67.115433 107.579509 
L 67.204015 107.579509 
L 67.381178 107.190034 
L 67.46976 107.190034 
L 67.646923 107.784497 
L 67.824086 107.804995 
L 67.824086 108.296965 
L 67.912668 107.641006 
L 68.00125 108.153474 
L 68.178413 107.968985 
L 68.178413 108.624944 
L 68.355577 107.641006 
L 68.444158 107.641006 
L 68.53274 108.604445 
L 68.621322 108.604445 
L 68.709903 108.604445 
L 68.798485 109.424394 
L 68.887067 108.727438 
L 68.975648 108.727438 
L 69.06423 109.64988 
L 69.152812 108.952924 
L 69.241393 108.952924 
L 69.241393 109.731875 
L 69.329975 108.85043 
L 69.418557 109.219407 
L 69.507138 109.219407 
L 69.59572 109.198908 
L 69.684302 109.854867 
L 69.772884 109.854867 
L 69.772884 109.424394 
L 69.861465 110.018857 
L 69.950047 109.526888 
L 70.038629 109.526888 
L 70.12721 109.280903 
L 70.215792 110.387834 
L 70.304374 110.387834 
L 70.304374 109.321901 
L 70.481537 110.428832 
L 70.570119 110.428832 
L 70.6587 109.752374 
L 70.747282 110.182847 
L 71.013027 110.346837 
L 71.013027 110.715814 
L 71.190191 110.654318 
L 71.278772 110.654318 
L 71.278772 110.346837 
L 71.367354 110.715814 
L 71.455936 110.387834 
L 71.544517 110.387834 
L 71.633099 110.695315 
L 71.721681 110.531325 
L 71.810262 110.531325 
L 71.810262 110.900302 
L 71.987426 110.859305 
L 72.164589 110.920801 
L 72.164589 111.125788 
L 72.341752 110.818307 
L 72.430334 110.818307 
L 72.430334 111.064292 
L 72.607497 110.9413 
L 72.696079 110.9413 
L 72.696079 111.330775 
L 72.873243 111.207783 
L 72.961824 111.207783 
L 72.961824 110.77731 
L 73.050406 111.74075 
L 73.138988 111.371773 
L 73.227569 111.371773 
L 73.227569 111.679254 
L 73.404733 111.371773 
L 73.493314 111.371773 
L 73.670478 111.699752 
L 73.847641 111.802246 
L 73.847641 111.24878 
L 73.936223 111.884241 
L 74.024804 111.761248 
L 74.201968 111.863742 
L 74.201968 111.556261 
L 74.379131 111.761248 
L 74.556295 111.802246 
L 74.644876 112.294215 
L 74.733458 112.109727 
L 74.82204 112.109727 
L 74.82204 111.822745 
L 74.910621 112.417208 
L 74.999203 112.273717 
L 75.087785 112.273717 
L 75.087785 111.90474 
L 75.176366 112.335213 
L 75.264948 112.253218 
L 75.442111 112.068729 
L 75.442111 111.90474 
L 75.619275 112.478704 
L 75.796438 112.5402 
L 75.88502 111.945737 
L 75.973602 112.519701 
L 76.150765 112.478704 
L 76.150765 111.925238 
L 76.327928 112.417208 
L 76.505092 112.5402 
L 76.505092 112.827182 
L 76.593673 112.068729 
L 76.682255 112.745187 
L 76.770837 112.745187 
L 76.859418 112.355711 
L 76.948 112.806683 
L 77.302327 112.724688 
L 77.302327 112.601696 
L 77.47949 112.868179 
L 78.01098 112.745187 
L 78.099562 113.073167 
L 78.188144 112.827182 
L 78.276725 112.827182 
L 78.365307 113.196159 
L 78.453889 113.032169 
L 78.808216 113.032169 
L 78.985379 113.380647 
L 79.073961 113.380647 
L 79.162542 113.052668 
L 79.251124 113.401146 
L 79.339706 113.401146 
L 79.339706 112.929676 
L 79.516869 113.483141 
L 79.694032 113.298653 
L 79.694032 113.237156 
L 79.871196 113.380647 
L 80.136941 113.483141 
L 80.136941 113.032169 
L 80.314104 113.626632 
L 80.402686 113.626632 
L 80.579849 113.17566 
L 80.668431 113.17566 
L 80.668431 113.462642 
L 80.845594 113.442144 
L 81.377084 113.483141 
L 81.377084 113.688128 
L 81.554248 113.33965 
L 81.64283 113.33965 
L 81.819993 113.708627 
L 81.997156 113.606133 
L 81.997156 113.462642 
L 82.17432 113.66763 
L 82.262901 113.66763 
L 82.262901 113.401146 
L 82.440065 113.893116 
L 82.528646 113.893116 
L 82.528646 113.585635 
L 82.70581 113.606133 
L 83.414463 113.565136 
L 83.591627 113.872617 
L 83.680208 113.872617 
L 83.680208 113.585635 
L 83.857372 113.831619 
L 84.83177 113.770123 
L 84.920352 114.118601 
L 85.008934 113.770123 
L 85.36326 113.749624 
L 85.36326 114.077604 
L 85.540424 113.97511 
L 85.983332 113.913614 
L 85.983332 113.688128 
L 86.071914 113.97511 
L 86.160496 113.913614 
L 87.754966 114.077604 
L 87.754966 114.241594 
L 87.932129 114.200596 
L 88.906528 114.180098 
L 88.906528 113.97511 
L 89.083691 114.1391 
L 91.12107 114.221095 
L 91.12107 114.364586 
L 91.209652 114.057105 
L 91.298233 114.344087 
L 91.918305 114.200596 
L 91.918305 114.1391 
L 92.006887 114.323589 
L 92.095468 114.180098 
L 94.752919 114.241594 
L 94.930082 114.405584 
L 144.1815 114.405584 
L 144.1815 114.426082 
" clip-path="url(#p98cd22aeac)" style="fill: none; stroke: #e9c46a; stroke-linejoin: miter"/>
   </g>
   <g id="patch_6">
    <path d="M 46.4759 114.426082 
L 46.653063 114.426082 
L 46.830227 104.140861 
L 47.00739 104.140861 
L 47.184553 90.858391 
L 47.361717 90.858391 
L 47.53888 79.425732 
L 47.716044 79.425732 
L 47.893207 71.810913 
L 48.07037 71.810913 
L 48.247534 64.244773 
L 48.424697 64.244773 
L 48.60186 59.94014 
L 48.956187 59.752377 
L 49.133351 56.170979 
L 49.310514 56.170979 
L 49.487677 53.243272 
L 49.664841 53.243272 
L 49.842004 54.94009 
L 49.842004 54.425481 
L 50.019167 54.425481 
L 50.196331 52.58958 
L 50.373494 52.58958 
L 50.550658 54.279444 
L 50.904984 54.425481 
L 50.904984 55.607691 
L 51.082148 54.77319 
L 51.259311 54.77319 
L 51.259311 55.864995 
L 51.436474 55.113944 
L 51.613638 55.113944 
L 51.790801 57.394913 
L 51.967965 57.394913 
L 52.145128 59.52289 
L 52.499455 59.481165 
L 52.676618 61.344883 
L 52.853781 61.344883 
L 53.030945 63.180785 
L 53.208108 63.180785 
L 53.385272 65.57302 
L 53.562435 65.57302 
L 53.739598 66.720458 
L 53.916762 66.720458 
L 54.093925 67.687088 
L 54.271088 67.687088 
L 54.271088 69.161373 
L 54.448252 69.070969 
L 54.625415 69.070969 
L 54.802579 71.45625 
L 54.979742 71.45625 
L 55.156905 73.208701 
L 55.334069 73.208701 
L 55.511232 74.495223 
L 55.688395 74.495223 
L 55.865559 75.364495 
L 56.042722 75.364495 
L 56.219886 76.970909 
L 56.397049 76.970909 
L 56.574212 79.064115 
L 56.751376 79.064115 
L 56.928539 80.40627 
L 57.105702 80.40627 
L 57.282866 81.004329 
L 57.460029 81.004329 
L 57.637192 82.791551 
L 57.814356 82.791551 
L 57.814356 83.994623 
L 57.991519 83.862494 
L 58.168683 83.862494 
L 58.345846 85.886158 
L 58.523009 85.886158 
L 58.523009 86.178233 
L 58.700173 86.025241 
L 58.877336 86.025241 
L 59.054499 87.527343 
L 59.231663 87.527343 
L 59.408826 89.050307 
L 59.763153 89.008581 
L 59.763153 90.350737 
L 59.940316 90.295103 
L 60.11748 90.295103 
L 60.294643 90.900116 
L 60.64897 90.927933 
L 60.826133 92.951597 
L 61.18046 92.798606 
L 61.357623 93.702648 
L 61.534787 93.702648 
L 61.71195 95.316016 
L 61.889113 95.316016 
L 61.889113 94.759682 
L 62.066277 95.399466 
L 62.24344 95.399466 
L 62.420604 96.192242 
L 62.597767 96.192242 
L 62.77493 96.602538 
L 62.952094 96.602538 
L 63.129257 97.882106 
L 63.483584 97.798656 
L 63.483584 98.285448 
L 63.660747 97.902968 
L 63.837911 97.902968 
L 63.837911 99.73887 
L 64.015074 99.245124 
L 64.192237 99.245124 
L 64.369401 100.197845 
L 64.723727 100.163074 
L 64.723727 100.642912 
L 64.900891 100.615096 
L 65.078054 100.615096 
L 65.255218 101.644313 
L 65.432381 101.644313 
L 65.609544 102.145013 
L 66.318198 102.325822 
L 66.318198 103.22291 
L 66.495361 103.007331 
L 66.672525 103.007331 
L 66.849688 103.980915 
L 67.026851 103.980915 
L 67.026851 103.619298 
L 67.204015 103.953098 
L 67.558341 104.147815 
L 67.558341 104.662424 
L 67.735505 104.412074 
L 67.912668 104.412074 
L 68.089831 105.420429 
L 68.621322 105.469108 
L 68.798485 106.178434 
L 68.975648 106.178434 
L 69.152812 105.761183 
L 69.152812 106.150617 
L 69.329975 106.150617 
L 69.329975 106.609592 
L 69.507138 106.324471 
L 70.038629 106.512234 
L 70.215792 107.617947 
L 70.392955 107.617947 
L 70.392955 107.277193 
L 70.570119 107.666627 
L 70.924445 107.680535 
L 71.101609 108.097785 
L 71.101609 107.88916 
L 71.455936 107.784847 
L 71.633099 108.250777 
L 71.810262 108.250777 
L 71.810262 108.640211 
L 71.987426 108.35509 
L 72.341752 108.375952 
L 72.518916 108.925332 
L 72.696079 108.925332 
L 72.696079 109.140911 
L 72.873243 109.043553 
L 73.050406 109.043553 
L 73.227569 109.453849 
L 73.404733 109.453849 
L 73.404733 109.182636 
L 73.581896 109.426032 
L 73.759059 109.426032 
L 73.936223 110.044954 
L 74.467713 110.024091 
L 74.467713 109.801557 
L 74.644876 110.170129 
L 74.82204 110.170129 
L 74.82204 110.580425 
L 74.999203 110.170129 
L 75.530693 110.364845 
L 75.707857 110.726462 
L 76.41651 110.656921 
L 76.41651 110.948996 
L 76.593673 110.816867 
L 76.770837 110.816867 
L 76.770837 111.25498 
L 76.948 111.25498 
L 77.833817 111.394063 
L 77.833817 111.574871 
L 78.01098 111.428834 
L 78.365307 111.602688 
L 78.365307 111.769588 
L 78.54247 111.665276 
L 79.073961 111.832176 
L 79.073961 112.08948 
L 79.251124 111.978214 
L 80.136941 112.026893 
L 80.136941 112.263335 
L 80.314104 112.186839 
L 80.668431 112.277243 
L 80.668431 112.409372 
L 80.845594 112.325922 
L 81.731411 112.318968 
L 81.908575 112.63886 
L 82.971555 112.812714 
L 82.971555 112.917027 
L 83.148718 112.729264 
L 83.325882 112.729264 
L 83.503045 113.035248 
L 84.566025 113.111744 
L 84.566025 113.236919 
L 84.743189 113.160423 
L 85.629005 113.118698 
L 85.629005 113.376002 
L 85.806169 113.35514 
L 87.577802 113.515086 
L 87.577802 113.563765 
L 87.754966 113.473361 
L 88.463619 113.556811 
L 88.463619 113.681986 
L 88.640783 113.52204 
L 89.880926 113.633307 
L 89.880926 113.786298 
L 90.05809 113.695894 
L 92.006887 113.786298 
L 92.18405 113.987969 
L 97.853278 114.134007 
L 97.853278 114.217457 
L 98.030441 114.085328 
L 102.459526 114.252228 
L 102.459526 114.300907 
L 102.636689 114.266136 
L 182.53737 114.419128 
L 182.53737 114.426082 
" clip-path="url(#p98cd22aeac)" style="fill: none; stroke: #f4a261; stroke-linejoin: miter"/>
   </g>
   <g id="patch_7">
    <path d="M 46.4759 114.426082 
L 46.4759 16.529498 
" style="fill: none; stroke: #000000; stroke-width: 0.8; stroke-linejoin: miter; stroke-linecap: square"/>
   </g>
   <g id="patch_8">
    <path d="M 204.8759 114.426082 
L 204.8759 16.529498 
" style="fill: none; stroke: #000000; stroke-width: 0.8; stroke-linejoin: miter; stroke-linecap: square"/>
   </g>
   <g id="patch_9">
    <path d="M 46.4759 114.426082 
L 204.8759 114.426082 
" style="fill: none; stroke: #000000; stroke-width: 0.8; stroke-linejoin: miter; stroke-linecap: square"/>
   </g>
   <g id="patch_10">
    <path d="M 46.4759 16.529498 
L 204.8759 16.529498 
" style="fill: none; stroke: #000000; stroke-width: 0.8; stroke-linejoin: miter; stroke-linecap: square"/>
   </g>
   <g id="legend_1">
    <g id="text_13">
     <!-- $\tau_\mathrm{lag}$ [ns] -->
     <g transform="translate(214.486633 44.564284) scale(0.0833 -0.0833)">
      <use xlink:href="#DejaVuSans-Oblique-3c4" transform="translate(0 0.015625)"/>
      <use xlink:href="#DejaVuSans-6c" transform="translate(60.205078 -16.390625) scale(0.7)"/>
      <use xlink:href="#DejaVuSans-61" transform="translate(79.65332 -16.390625) scale(0.7)"/>
      <use xlink:href="#DejaVuSans-67" transform="translate(122.548828 -16.390625) scale(0.7)"/>
      <use xlink:href="#DejaVuSans-20" transform="translate(169.716797 0.015625)"/>
      <use xlink:href="#DejaVuSans-5b" transform="translate(201.503906 0.015625)"/>
      <use xlink:href="#DejaVuSans-6e" transform="translate(240.517578 0.015625)"/>
      <use xlink:href="#DejaVuSans-73" transform="translate(303.896484 0.015625)"/>
      <use xlink:href="#DejaVuSans-5d" transform="translate(355.996094 0.015625)"/>
     </g>
    </g>
    <g id="patch_11">
     <path d="M 213.7929 56.808083 
L 225.4549 56.808083 
L 225.4549 50.977083 
L 213.7929 50.977083 
z
"/>
    </g>
    <g id="text_14">
     <!-- MD -->
     <g transform="translate(229.6199 56.808083) scale(0.0833 -0.0833)">
      <defs>
       <path id="DejaVuSans-4d" d="M 628 4666 
L 1569 4666 
L 2759 1491 
L 3956 4666 
L 4897 4666 
L 4897 0 
L 4281 0 
L 4281 4097 
L 3078 897 
L 2444 897 
L 1241 4097 
L 1241 0 
L 628 0 
L 628 4666 
z
" transform="scale(0.015625)"/>
       <path id="DejaVuSans-44" d="M 1259 4147 
L 1259 519 
L 2022 519 
Q 2988 519 3436 956 
Q 3884 1394 3884 2338 
Q 3884 3275 3436 3711 
Q 2988 4147 2022 4147 
L 1259 4147 
z
M 628 4666 
L 1925 4666 
Q 3281 4666 3915 4102 
Q 4550 3538 4550 2338 
Q 4550 1131 3912 565 
Q 3275 0 1925 0 
L 628 0 
L 628 4666 
z
" transform="scale(0.015625)"/>
      </defs>
      <use xlink:href="#DejaVuSans-4d"/>
      <use xlink:href="#DejaVuSans-44" x="86.279297"/>
     </g>
    </g>
    <g id="line2d_19">
     <path d="M 213.7929 65.286461 
L 225.4549 65.286461 
" style="fill: none; stroke: #2a9d8f; stroke-linecap: square"/>
    </g>
    <g id="text_15">
     <!-- 10.0 -->
     <g transform="translate(229.6199 68.201961) scale(0.0833 -0.0833)">
      <use xlink:href="#DejaVuSans-31"/>
      <use xlink:href="#DejaVuSans-30" x="63.623047"/>
      <use xlink:href="#DejaVuSans-2e" x="127.246094"/>
      <use xlink:href="#DejaVuSans-30" x="159.033203"/>
     </g>
    </g>
    <g id="line2d_20">
     <path d="M 213.7929 76.680339 
L 225.4549 76.680339 
" style="fill: none; stroke: #e9c46a; stroke-linecap: square"/>
    </g>
    <g id="text_16">
     <!-- 20.0 -->
     <g transform="translate(229.6199 79.595839) scale(0.0833 -0.0833)">
      <use xlink:href="#DejaVuSans-32"/>
      <use xlink:href="#DejaVuSans-30" x="63.623047"/>
      <use xlink:href="#DejaVuSans-2e" x="127.246094"/>
      <use xlink:href="#DejaVuSans-30" x="159.033203"/>
     </g>
    </g>
    <g id="line2d_21">
     <path d="M 213.7929 88.074217 
L 225.4549 88.074217 
" style="fill: none; stroke: #f4a261; stroke-linecap: square"/>
    </g>
    <g id="text_17">
     <!-- 40.0 -->
     <g transform="translate(229.6199 90.989717) scale(0.0833 -0.0833)">
      <use xlink:href="#DejaVuSans-34"/>
      <use xlink:href="#DejaVuSans-30" x="63.623047"/>
      <use xlink:href="#DejaVuSans-2e" x="127.246094"/>
      <use xlink:href="#DejaVuSans-30" x="159.033203"/>
     </g>
    </g>
   </g>
  </g>
 </g>
 <defs>
  <clipPath id="p98cd22aeac">
   <rect x="46.4759" y="16.529498" width="158.4" height="97.896584"/>
  </clipPath>
 </defs>
</svg>
