<?xml version="1.0" encoding="utf-8" standalone="no"?>
<!DOCTYPE svg PUBLIC "-//W3C//DTD SVG 1.1//EN"
  "http://www.w3.org/Graphics/SVG/1.1/DTD/svg11.dtd">
<svg xmlns:xlink="http://www.w3.org/1999/xlink" width="269.116266pt" height="160.28765pt" viewBox="0 0 269.116266 160.28765" xmlns="http://www.w3.org/2000/svg" version="1.1">
 <metadata>
  <rdf:RDF xmlns:dc="http://purl.org/dc/elements/1.1/" xmlns:cc="http://creativecommons.org/ns#" xmlns:rdf="http://www.w3.org/1999/02/22-rdf-syntax-ns#">
   <cc:Work>
    <dc:type rdf:resource="http://purl.org/dc/dcmitype/StillImage"/>
    <dc:date>2023-03-08T15:21:47.124380</dc:date>
    <dc:format>image/svg+xml</dc:format>
    <dc:creator>
     <cc:Agent>
      <dc:title>Matplotlib v3.6.3, https://matplotlib.org/</dc:title>
     </cc:Agent>
    </dc:creator>
   </cc:Work>
  </rdf:RDF>
 </metadata>
 <defs>
  <style type="text/css">*{stroke-linejoin: round; stroke-linecap: butt}</style>
 </defs>
 <g id="figure_1">
  <g id="patch_1">
   <path d="M 0 160.28765 
L 269.116266 160.28765 
L 269.116266 0 
L 0 0 
L 0 160.28765 
z
" style="fill: none"/>
  </g>
  <g id="axes_1">
   <g id="patch_2">
    <path d="M 41.228 123.325772 
L 214.028 123.325772 
L 214.028 16.529498 
L 41.228 16.529498 
L 41.228 123.325772 
z
" style="fill: none"/>
   </g>
   <g id="matplotlib.axis_1">
    <g id="xtick_1">
     <g id="line2d_1">
      <path d="M 49.082545 123.325772 
L 49.082545 16.529498 
" clip-path="url(#pb98d49dbce)" style="fill: none; stroke-dasharray: 2.96,1.28; stroke-dashoffset: 0; stroke: #dddfe5; stroke-width: 0.8"/>
     </g>
     <g id="line2d_2">
      <defs>
       <path id="mab3058ccf6" d="M 0 0 
L 0 3.5 
" style="stroke: #000000; stroke-width: 0.8"/>
      </defs>
      <g>
       <use xlink:href="#mab3058ccf6" x="49.082545" y="123.325772" style="stroke: #000000; stroke-width: 0.8"/>
      </g>
     </g>
     <g id="text_1">
      <!-- 0 -->
      <g transform="translate(46.432564 136.65527) scale(0.0833 -0.0833)">
       <defs>
        <path id="DejaVuSans-30" d="M 2034 4250 
Q 1547 4250 1301 3770 
Q 1056 3291 1056 2328 
Q 1056 1369 1301 889 
Q 1547 409 2034 409 
Q 2525 409 2770 889 
Q 3016 1369 3016 2328 
Q 3016 3291 2770 3770 
Q 2525 4250 2034 4250 
z
M 2034 4750 
Q 2819 4750 3233 4129 
Q 3647 3509 3647 2328 
Q 3647 1150 3233 529 
Q 2819 -91 2034 -91 
Q 1250 -91 836 529 
Q 422 1150 422 2328 
Q 422 3509 836 4129 
Q 1250 4750 2034 4750 
z
" transform="scale(0.015625)"/>
       </defs>
       <use xlink:href="#DejaVuSans-30"/>
      </g>
     </g>
    </g>
    <g id="xtick_2">
     <g id="line2d_3">
      <path d="M 80.054728 123.325772 
L 80.054728 16.529498 
" clip-path="url(#pb98d49dbce)" style="fill: none; stroke-dasharray: 2.96,1.28; stroke-dashoffset: 0; stroke: #dddfe5; stroke-width: 0.8"/>
     </g>
     <g id="line2d_4">
      <g>
       <use xlink:href="#mab3058ccf6" x="80.054728" y="123.325772" style="stroke: #000000; stroke-width: 0.8"/>
      </g>
     </g>
     <g id="text_2">
      <!-- 5000 -->
      <g transform="translate(69.454803 136.65527) scale(0.0833 -0.0833)">
       <defs>
        <path id="DejaVuSans-35" d="M 691 4666 
L 3169 4666 
L 3169 4134 
L 1269 4134 
L 1269 2991 
Q 1406 3038 1543 3061 
Q 1681 3084 1819 3084 
Q 2600 3084 3056 2656 
Q 3513 2228 3513 1497 
Q 3513 744 3044 326 
Q 2575 -91 1722 -91 
Q 1428 -91 1123 -41 
Q 819 9 494 109 
L 494 744 
Q 775 591 1075 516 
Q 1375 441 1709 441 
Q 2250 441 2565 725 
Q 2881 1009 2881 1497 
Q 2881 1984 2565 2268 
Q 2250 2553 1709 2553 
Q 1456 2553 1204 2497 
Q 953 2441 691 2322 
L 691 4666 
z
" transform="scale(0.015625)"/>
       </defs>
       <use xlink:href="#DejaVuSans-35"/>
       <use xlink:href="#DejaVuSans-30" x="63.623047"/>
       <use xlink:href="#DejaVuSans-30" x="127.246094"/>
       <use xlink:href="#DejaVuSans-30" x="190.869141"/>
      </g>
     </g>
    </g>
    <g id="xtick_3">
     <g id="line2d_5">
      <path d="M 111.02691 123.325772 
L 111.02691 16.529498 
" clip-path="url(#pb98d49dbce)" style="fill: none; stroke-dasharray: 2.96,1.28; stroke-dashoffset: 0; stroke: #dddfe5; stroke-width: 0.8"/>
     </g>
     <g id="line2d_6">
      <g>
       <use xlink:href="#mab3058ccf6" x="111.02691" y="123.325772" style="stroke: #000000; stroke-width: 0.8"/>
      </g>
     </g>
     <g id="text_3">
      <!-- 10000 -->
      <g transform="translate(97.777004 136.65527) scale(0.0833 -0.0833)">
       <defs>
        <path id="DejaVuSans-31" d="M 794 531 
L 1825 531 
L 1825 4091 
L 703 3866 
L 703 4441 
L 1819 4666 
L 2450 4666 
L 2450 531 
L 3481 531 
L 3481 0 
L 794 0 
L 794 531 
z
" transform="scale(0.015625)"/>
       </defs>
       <use xlink:href="#DejaVuSans-31"/>
       <use xlink:href="#DejaVuSans-30" x="63.623047"/>
       <use xlink:href="#DejaVuSans-30" x="127.246094"/>
       <use xlink:href="#DejaVuSans-30" x="190.869141"/>
       <use xlink:href="#DejaVuSans-30" x="254.492188"/>
      </g>
     </g>
    </g>
    <g id="xtick_4">
     <g id="line2d_7">
      <path d="M 141.999093 123.325772 
L 141.999093 16.529498 
" clip-path="url(#pb98d49dbce)" style="fill: none; stroke-dasharray: 2.96,1.28; stroke-dashoffset: 0; stroke: #dddfe5; stroke-width: 0.8"/>
     </g>
     <g id="line2d_8">
      <g>
       <use xlink:href="#mab3058ccf6" x="141.999093" y="123.325772" style="stroke: #000000; stroke-width: 0.8"/>
      </g>
     </g>
     <g id="text_4">
      <!-- 15000 -->
      <g transform="translate(128.749186 136.65527) scale(0.0833 -0.0833)">
       <use xlink:href="#DejaVuSans-31"/>
       <use xlink:href="#DejaVuSans-35" x="63.623047"/>
       <use xlink:href="#DejaVuSans-30" x="127.246094"/>
       <use xlink:href="#DejaVuSans-30" x="190.869141"/>
       <use xlink:href="#DejaVuSans-30" x="254.492188"/>
      </g>
     </g>
    </g>
    <g id="xtick_5">
     <g id="line2d_9">
      <path d="M 172.971275 123.325772 
L 172.971275 16.529498 
" clip-path="url(#pb98d49dbce)" style="fill: none; stroke-dasharray: 2.96,1.28; stroke-dashoffset: 0; stroke: #dddfe5; stroke-width: 0.8"/>
     </g>
     <g id="line2d_10">
      <g>
       <use xlink:href="#mab3058ccf6" x="172.971275" y="123.325772" style="stroke: #000000; stroke-width: 0.8"/>
      </g>
     </g>
     <g id="text_5">
      <!-- 20000 -->
      <g transform="translate(159.721369 136.65527) scale(0.0833 -0.0833)">
       <defs>
        <path id="DejaVuSans-32" d="M 1228 531 
L 3431 531 
L 3431 0 
L 469 0 
L 469 531 
Q 828 903 1448 1529 
Q 2069 2156 2228 2338 
Q 2531 2678 2651 2914 
Q 2772 3150 2772 3378 
Q 2772 3750 2511 3984 
Q 2250 4219 1831 4219 
Q 1534 4219 1204 4116 
Q 875 4013 500 3803 
L 500 4441 
Q 881 4594 1212 4672 
Q 1544 4750 1819 4750 
Q 2544 4750 2975 4387 
Q 3406 4025 3406 3419 
Q 3406 3131 3298 2873 
Q 3191 2616 2906 2266 
Q 2828 2175 2409 1742 
Q 1991 1309 1228 531 
z
" transform="scale(0.015625)"/>
       </defs>
       <use xlink:href="#DejaVuSans-32"/>
       <use xlink:href="#DejaVuSans-30" x="63.623047"/>
       <use xlink:href="#DejaVuSans-30" x="127.246094"/>
       <use xlink:href="#DejaVuSans-30" x="190.869141"/>
       <use xlink:href="#DejaVuSans-30" x="254.492188"/>
      </g>
     </g>
    </g>
    <g id="xtick_6">
     <g id="line2d_11">
      <path d="M 203.943457 123.325772 
L 203.943457 16.529498 
" clip-path="url(#pb98d49dbce)" style="fill: none; stroke-dasharray: 2.96,1.28; stroke-dashoffset: 0; stroke: #dddfe5; stroke-width: 0.8"/>
     </g>
     <g id="line2d_12">
      <g>
       <use xlink:href="#mab3058ccf6" x="203.943457" y="123.325772" style="stroke: #000000; stroke-width: 0.8"/>
      </g>
     </g>
     <g id="text_6">
      <!-- 25000 -->
      <g transform="translate(190.693551 136.65527) scale(0.0833 -0.0833)">
       <use xlink:href="#DejaVuSans-32"/>
       <use xlink:href="#DejaVuSans-35" x="63.623047"/>
       <use xlink:href="#DejaVuSans-30" x="127.246094"/>
       <use xlink:href="#DejaVuSans-30" x="190.869141"/>
       <use xlink:href="#DejaVuSans-30" x="254.492188"/>
      </g>
     </g>
    </g>
    <g id="text_7">
     <!-- $\tau_\mathrm{lag}$ [ns] -->
     <g transform="translate(107.828 149.98765) scale(0.1 -0.1)">
      <defs>
       <path id="DejaVuSans-Oblique-3c4" d="M 2103 638 
Q 2188 488 2525 488 
L 2800 488 
L 2706 0 
L 2363 0 
Q 1800 0 1600 300 
Q 1403 606 1534 1269 
L 1856 2925 
L 541 2925 
L 653 3500 
L 3881 3500 
L 3769 2925 
L 2444 2925 
L 2113 1234 
Q 2025 781 2103 638 
z
" transform="scale(0.015625)"/>
       <path id="DejaVuSans-6c" d="M 603 4863 
L 1178 4863 
L 1178 0 
L 603 0 
L 603 4863 
z
" transform="scale(0.015625)"/>
       <path id="DejaVuSans-61" d="M 2194 1759 
Q 1497 1759 1228 1600 
Q 959 1441 959 1056 
Q 959 750 1161 570 
Q 1363 391 1709 391 
Q 2188 391 2477 730 
Q 2766 1069 2766 1631 
L 2766 1759 
L 2194 1759 
z
M 3341 1997 
L 3341 0 
L 2766 0 
L 2766 531 
Q 2569 213 2275 61 
Q 1981 -91 1556 -91 
Q 1019 -91 701 211 
Q 384 513 384 1019 
Q 384 1609 779 1909 
Q 1175 2209 1959 2209 
L 2766 2209 
L 2766 2266 
Q 2766 2663 2505 2880 
Q 2244 3097 1772 3097 
Q 1472 3097 1187 3025 
Q 903 2953 641 2809 
L 641 3341 
Q 956 3463 1253 3523 
Q 1550 3584 1831 3584 
Q 2591 3584 2966 3190 
Q 3341 2797 3341 1997 
z
" transform="scale(0.015625)"/>
       <path id="DejaVuSans-67" d="M 2906 1791 
Q 2906 2416 2648 2759 
Q 2391 3103 1925 3103 
Q 1463 3103 1205 2759 
Q 947 2416 947 1791 
Q 947 1169 1205 825 
Q 1463 481 1925 481 
Q 2391 481 2648 825 
Q 2906 1169 2906 1791 
z
M 3481 434 
Q 3481 -459 3084 -895 
Q 2688 -1331 1869 -1331 
Q 1566 -1331 1297 -1286 
Q 1028 -1241 775 -1147 
L 775 -588 
Q 1028 -725 1275 -790 
Q 1522 -856 1778 -856 
Q 2344 -856 2625 -561 
Q 2906 -266 2906 331 
L 2906 616 
Q 2728 306 2450 153 
Q 2172 0 1784 0 
Q 1141 0 747 490 
Q 353 981 353 1791 
Q 353 2603 747 3093 
Q 1141 3584 1784 3584 
Q 2172 3584 2450 3431 
Q 2728 3278 2906 2969 
L 2906 3500 
L 3481 3500 
L 3481 434 
z
" transform="scale(0.015625)"/>
       <path id="DejaVuSans-20" transform="scale(0.015625)"/>
       <path id="DejaVuSans-5b" d="M 550 4863 
L 1875 4863 
L 1875 4416 
L 1125 4416 
L 1125 -397 
L 1875 -397 
L 1875 -844 
L 550 -844 
L 550 4863 
z
" transform="scale(0.015625)"/>
       <path id="DejaVuSans-6e" d="M 3513 2113 
L 3513 0 
L 2938 0 
L 2938 2094 
Q 2938 2591 2744 2837 
Q 2550 3084 2163 3084 
Q 1697 3084 1428 2787 
Q 1159 2491 1159 1978 
L 1159 0 
L 581 0 
L 581 3500 
L 1159 3500 
L 1159 2956 
Q 1366 3272 1645 3428 
Q 1925 3584 2291 3584 
Q 2894 3584 3203 3211 
Q 3513 2838 3513 2113 
z
" transform="scale(0.015625)"/>
       <path id="DejaVuSans-73" d="M 2834 3397 
L 2834 2853 
Q 2591 2978 2328 3040 
Q 2066 3103 1784 3103 
Q 1356 3103 1142 2972 
Q 928 2841 928 2578 
Q 928 2378 1081 2264 
Q 1234 2150 1697 2047 
L 1894 2003 
Q 2506 1872 2764 1633 
Q 3022 1394 3022 966 
Q 3022 478 2636 193 
Q 2250 -91 1575 -91 
Q 1294 -91 989 -36 
Q 684 19 347 128 
L 347 722 
Q 666 556 975 473 
Q 1284 391 1588 391 
Q 1994 391 2212 530 
Q 2431 669 2431 922 
Q 2431 1156 2273 1281 
Q 2116 1406 1581 1522 
L 1381 1569 
Q 847 1681 609 1914 
Q 372 2147 372 2553 
Q 372 3047 722 3315 
Q 1072 3584 1716 3584 
Q 2034 3584 2315 3537 
Q 2597 3491 2834 3397 
z
" transform="scale(0.015625)"/>
       <path id="DejaVuSans-5d" d="M 1947 4863 
L 1947 -844 
L 622 -844 
L 622 -397 
L 1369 -397 
L 1369 4416 
L 622 4416 
L 622 4863 
L 1947 4863 
z
" transform="scale(0.015625)"/>
      </defs>
      <use xlink:href="#DejaVuSans-Oblique-3c4" transform="translate(0 0.015625)"/>
      <use xlink:href="#DejaVuSans-6c" transform="translate(60.205078 -16.390625) scale(0.7)"/>
      <use xlink:href="#DejaVuSans-61" transform="translate(79.65332 -16.390625) scale(0.7)"/>
      <use xlink:href="#DejaVuSans-67" transform="translate(122.548828 -16.390625) scale(0.7)"/>
      <use xlink:href="#DejaVuSans-20" transform="translate(169.716797 0.015625)"/>
      <use xlink:href="#DejaVuSans-5b" transform="translate(201.503906 0.015625)"/>
      <use xlink:href="#DejaVuSans-6e" transform="translate(240.517578 0.015625)"/>
      <use xlink:href="#DejaVuSans-73" transform="translate(303.896484 0.015625)"/>
      <use xlink:href="#DejaVuSans-5d" transform="translate(355.996094 0.015625)"/>
     </g>
    </g>
   </g>
   <g id="matplotlib.axis_2">
    <g id="ytick_1">
     <g id="line2d_13">
      <path d="M 41.228 123.325772 
L 214.028 123.325772 
" clip-path="url(#pb98d49dbce)" style="fill: none; stroke-dasharray: 2.96,1.28; stroke-dashoffset: 0; stroke: #dddfe5; stroke-width: 0.8"/>
     </g>
     <g id="line2d_14">
      <defs>
       <path id="m6cb22f8bb3" d="M 0 0 
L -3.5 0 
" style="stroke: #000000; stroke-width: 0.8"/>
      </defs>
      <g>
       <use xlink:href="#m6cb22f8bb3" x="41.228" y="123.325772" style="stroke: #000000; stroke-width: 0.8"/>
      </g>
     </g>
     <g id="text_8">
      <!-- $\mathdefault{0.0}$ -->
      <g transform="translate(20.9 126.490521) scale(0.0833 -0.0833)">
       <defs>
        <path id="DejaVuSans-2e" d="M 684 794 
L 1344 794 
L 1344 0 
L 684 0 
L 684 794 
z
" transform="scale(0.015625)"/>
       </defs>
       <use xlink:href="#DejaVuSans-30" transform="translate(0 0.78125)"/>
       <use xlink:href="#DejaVuSans-2e" transform="translate(63.623047 0.78125)"/>
       <use xlink:href="#DejaVuSans-30" transform="translate(95.410156 0.78125)"/>
      </g>
     </g>
    </g>
    <g id="ytick_2">
     <g id="line2d_15">
      <path d="M 41.228 103.918466 
L 214.028 103.918466 
" clip-path="url(#pb98d49dbce)" style="fill: none; stroke-dasharray: 2.96,1.28; stroke-dashoffset: 0; stroke: #dddfe5; stroke-width: 0.8"/>
     </g>
     <g id="line2d_16">
      <g>
       <use xlink:href="#m6cb22f8bb3" x="41.228" y="103.918466" style="stroke: #000000; stroke-width: 0.8"/>
      </g>
     </g>
     <g id="text_9">
      <!-- $\mathdefault{0.2}$ -->
      <g transform="translate(21.3998 107.083215) scale(0.0833 -0.0833)">
       <use xlink:href="#DejaVuSans-30" transform="translate(0 0.78125)"/>
       <use xlink:href="#DejaVuSans-2e" transform="translate(63.623047 0.78125)"/>
       <use xlink:href="#DejaVuSans-32" transform="translate(89.910156 0.78125)"/>
      </g>
     </g>
    </g>
    <g id="ytick_3">
     <g id="line2d_17">
      <path d="M 41.228 84.51116 
L 214.028 84.51116 
" clip-path="url(#pb98d49dbce)" style="fill: none; stroke-dasharray: 2.96,1.28; stroke-dashoffset: 0; stroke: #dddfe5; stroke-width: 0.8"/>
     </g>
     <g id="line2d_18">
      <g>
       <use xlink:href="#m6cb22f8bb3" x="41.228" y="84.51116" style="stroke: #000000; stroke-width: 0.8"/>
      </g>
     </g>
     <g id="text_10">
      <!-- $\mathdefault{0.4}$ -->
      <g transform="translate(20.9 87.675909) scale(0.0833 -0.0833)">
       <defs>
        <path id="DejaVuSans-34" d="M 2419 4116 
L 825 1625 
L 2419 1625 
L 2419 4116 
z
M 2253 4666 
L 3047 4666 
L 3047 1625 
L 3713 1625 
L 3713 1100 
L 3047 1100 
L 3047 0 
L 2419 0 
L 2419 1100 
L 313 1100 
L 313 1709 
L 2253 4666 
z
" transform="scale(0.015625)"/>
       </defs>
       <use xlink:href="#DejaVuSans-30" transform="translate(0 0.78125)"/>
       <use xlink:href="#DejaVuSans-2e" transform="translate(63.623047 0.78125)"/>
       <use xlink:href="#DejaVuSans-34" transform="translate(95.410156 0.78125)"/>
      </g>
     </g>
    </g>
    <g id="ytick_4">
     <g id="line2d_19">
      <path d="M 41.228 65.103854 
L 214.028 65.103854 
" clip-path="url(#pb98d49dbce)" style="fill: none; stroke-dasharray: 2.96,1.28; stroke-dashoffset: 0; stroke: #dddfe5; stroke-width: 0.8"/>
     </g>
     <g id="line2d_20">
      <g>
       <use xlink:href="#m6cb22f8bb3" x="41.228" y="65.103854" style="stroke: #000000; stroke-width: 0.8"/>
      </g>
     </g>
     <g id="text_11">
      <!-- $\mathdefault{0.6}$ -->
      <g transform="translate(20.9 68.268603) scale(0.0833 -0.0833)">
       <defs>
        <path id="DejaVuSans-36" d="M 2113 2584 
Q 1688 2584 1439 2293 
Q 1191 2003 1191 1497 
Q 1191 994 1439 701 
Q 1688 409 2113 409 
Q 2538 409 2786 701 
Q 3034 994 3034 1497 
Q 3034 2003 2786 2293 
Q 2538 2584 2113 2584 
z
M 3366 4563 
L 3366 3988 
Q 3128 4100 2886 4159 
Q 2644 4219 2406 4219 
Q 1781 4219 1451 3797 
Q 1122 3375 1075 2522 
Q 1259 2794 1537 2939 
Q 1816 3084 2150 3084 
Q 2853 3084 3261 2657 
Q 3669 2231 3669 1497 
Q 3669 778 3244 343 
Q 2819 -91 2113 -91 
Q 1303 -91 875 529 
Q 447 1150 447 2328 
Q 447 3434 972 4092 
Q 1497 4750 2381 4750 
Q 2619 4750 2861 4703 
Q 3103 4656 3366 4563 
z
" transform="scale(0.015625)"/>
       </defs>
       <use xlink:href="#DejaVuSans-30" transform="translate(0 0.78125)"/>
       <use xlink:href="#DejaVuSans-2e" transform="translate(63.623047 0.78125)"/>
       <use xlink:href="#DejaVuSans-36" transform="translate(95.410156 0.78125)"/>
      </g>
     </g>
    </g>
    <g id="ytick_5">
     <g id="line2d_21">
      <path d="M 41.228 45.696548 
L 214.028 45.696548 
" clip-path="url(#pb98d49dbce)" style="fill: none; stroke-dasharray: 2.96,1.28; stroke-dashoffset: 0; stroke: #dddfe5; stroke-width: 0.8"/>
     </g>
     <g id="line2d_22">
      <g>
       <use xlink:href="#m6cb22f8bb3" x="41.228" y="45.696548" style="stroke: #000000; stroke-width: 0.8"/>
      </g>
     </g>
     <g id="text_12">
      <!-- $\mathdefault{0.8}$ -->
      <g transform="translate(21.1499 48.861297) scale(0.0833 -0.0833)">
       <defs>
        <path id="DejaVuSans-38" d="M 2034 2216 
Q 1584 2216 1326 1975 
Q 1069 1734 1069 1313 
Q 1069 891 1326 650 
Q 1584 409 2034 409 
Q 2484 409 2743 651 
Q 3003 894 3003 1313 
Q 3003 1734 2745 1975 
Q 2488 2216 2034 2216 
z
M 1403 2484 
Q 997 2584 770 2862 
Q 544 3141 544 3541 
Q 544 4100 942 4425 
Q 1341 4750 2034 4750 
Q 2731 4750 3128 4425 
Q 3525 4100 3525 3541 
Q 3525 3141 3298 2862 
Q 3072 2584 2669 2484 
Q 3125 2378 3379 2068 
Q 3634 1759 3634 1313 
Q 3634 634 3220 271 
Q 2806 -91 2034 -91 
Q 1263 -91 848 271 
Q 434 634 434 1313 
Q 434 1759 690 2068 
Q 947 2378 1403 2484 
z
M 1172 3481 
Q 1172 3119 1398 2916 
Q 1625 2713 2034 2713 
Q 2441 2713 2670 2916 
Q 2900 3119 2900 3481 
Q 2900 3844 2670 4047 
Q 2441 4250 2034 4250 
Q 1625 4250 1398 4047 
Q 1172 3844 1172 3481 
z
" transform="scale(0.015625)"/>
       </defs>
       <use xlink:href="#DejaVuSans-30" transform="translate(0 0.78125)"/>
       <use xlink:href="#DejaVuSans-2e" transform="translate(63.623047 0.78125)"/>
       <use xlink:href="#DejaVuSans-38" transform="translate(92.785156 0.78125)"/>
      </g>
     </g>
    </g>
    <g id="ytick_6">
     <g id="line2d_23">
      <path d="M 41.228 26.289242 
L 214.028 26.289242 
" clip-path="url(#pb98d49dbce)" style="fill: none; stroke-dasharray: 2.96,1.28; stroke-dashoffset: 0; stroke: #dddfe5; stroke-width: 0.8"/>
     </g>
     <g id="line2d_24">
      <g>
       <use xlink:href="#m6cb22f8bb3" x="41.228" y="26.289242" style="stroke: #000000; stroke-width: 0.8"/>
      </g>
     </g>
     <g id="text_13">
      <!-- $\mathdefault{1.0}$ -->
      <g transform="translate(20.9 29.453991) scale(0.0833 -0.0833)">
       <use xlink:href="#DejaVuSans-31" transform="translate(0 0.78125)"/>
       <use xlink:href="#DejaVuSans-2e" transform="translate(63.623047 0.78125)"/>
       <use xlink:href="#DejaVuSans-30" transform="translate(95.410156 0.78125)"/>
      </g>
     </g>
    </g>
    <g id="text_14">
     <!-- probability $P$ -->
     <g transform="translate(14.8 101.327635) rotate(-90) scale(0.1 -0.1)">
      <defs>
       <path id="DejaVuSans-70" d="M 1159 525 
L 1159 -1331 
L 581 -1331 
L 581 3500 
L 1159 3500 
L 1159 2969 
Q 1341 3281 1617 3432 
Q 1894 3584 2278 3584 
Q 2916 3584 3314 3078 
Q 3713 2572 3713 1747 
Q 3713 922 3314 415 
Q 2916 -91 2278 -91 
Q 1894 -91 1617 61 
Q 1341 213 1159 525 
z
M 3116 1747 
Q 3116 2381 2855 2742 
Q 2594 3103 2138 3103 
Q 1681 3103 1420 2742 
Q 1159 2381 1159 1747 
Q 1159 1113 1420 752 
Q 1681 391 2138 391 
Q 2594 391 2855 752 
Q 3116 1113 3116 1747 
z
" transform="scale(0.015625)"/>
       <path id="DejaVuSans-72" d="M 2631 2963 
Q 2534 3019 2420 3045 
Q 2306 3072 2169 3072 
Q 1681 3072 1420 2755 
Q 1159 2438 1159 1844 
L 1159 0 
L 581 0 
L 581 3500 
L 1159 3500 
L 1159 2956 
Q 1341 3275 1631 3429 
Q 1922 3584 2338 3584 
Q 2397 3584 2469 3576 
Q 2541 3569 2628 3553 
L 2631 2963 
z
" transform="scale(0.015625)"/>
       <path id="DejaVuSans-6f" d="M 1959 3097 
Q 1497 3097 1228 2736 
Q 959 2375 959 1747 
Q 959 1119 1226 758 
Q 1494 397 1959 397 
Q 2419 397 2687 759 
Q 2956 1122 2956 1747 
Q 2956 2369 2687 2733 
Q 2419 3097 1959 3097 
z
M 1959 3584 
Q 2709 3584 3137 3096 
Q 3566 2609 3566 1747 
Q 3566 888 3137 398 
Q 2709 -91 1959 -91 
Q 1206 -91 779 398 
Q 353 888 353 1747 
Q 353 2609 779 3096 
Q 1206 3584 1959 3584 
z
" transform="scale(0.015625)"/>
       <path id="DejaVuSans-62" d="M 3116 1747 
Q 3116 2381 2855 2742 
Q 2594 3103 2138 3103 
Q 1681 3103 1420 2742 
Q 1159 2381 1159 1747 
Q 1159 1113 1420 752 
Q 1681 391 2138 391 
Q 2594 391 2855 752 
Q 3116 1113 3116 1747 
z
M 1159 2969 
Q 1341 3281 1617 3432 
Q 1894 3584 2278 3584 
Q 2916 3584 3314 3078 
Q 3713 2572 3713 1747 
Q 3713 922 3314 415 
Q 2916 -91 2278 -91 
Q 1894 -91 1617 61 
Q 1341 213 1159 525 
L 1159 0 
L 581 0 
L 581 4863 
L 1159 4863 
L 1159 2969 
z
" transform="scale(0.015625)"/>
       <path id="DejaVuSans-69" d="M 603 3500 
L 1178 3500 
L 1178 0 
L 603 0 
L 603 3500 
z
M 603 4863 
L 1178 4863 
L 1178 4134 
L 603 4134 
L 603 4863 
z
" transform="scale(0.015625)"/>
       <path id="DejaVuSans-74" d="M 1172 4494 
L 1172 3500 
L 2356 3500 
L 2356 3053 
L 1172 3053 
L 1172 1153 
Q 1172 725 1289 603 
Q 1406 481 1766 481 
L 2356 481 
L 2356 0 
L 1766 0 
Q 1100 0 847 248 
Q 594 497 594 1153 
L 594 3053 
L 172 3053 
L 172 3500 
L 594 3500 
L 594 4494 
L 1172 4494 
z
" transform="scale(0.015625)"/>
       <path id="DejaVuSans-79" d="M 2059 -325 
Q 1816 -950 1584 -1140 
Q 1353 -1331 966 -1331 
L 506 -1331 
L 506 -850 
L 844 -850 
Q 1081 -850 1212 -737 
Q 1344 -625 1503 -206 
L 1606 56 
L 191 3500 
L 800 3500 
L 1894 763 
L 2988 3500 
L 3597 3500 
L 2059 -325 
z
" transform="scale(0.015625)"/>
       <path id="DejaVuSans-Oblique-50" d="M 1081 4666 
L 2541 4666 
Q 3178 4666 3512 4369 
Q 3847 4072 3847 3500 
Q 3847 2731 3353 2303 
Q 2859 1875 1966 1875 
L 1172 1875 
L 806 0 
L 172 0 
L 1081 4666 
z
M 1613 4147 
L 1275 2394 
L 2069 2394 
Q 2606 2394 2893 2669 
Q 3181 2944 3181 3456 
Q 3181 3784 2986 3965 
Q 2791 4147 2438 4147 
L 1613 4147 
z
" transform="scale(0.015625)"/>
      </defs>
      <use xlink:href="#DejaVuSans-70" transform="translate(0 0.015625)"/>
      <use xlink:href="#DejaVuSans-72" transform="translate(63.476562 0.015625)"/>
      <use xlink:href="#DejaVuSans-6f" transform="translate(104.589844 0.015625)"/>
      <use xlink:href="#DejaVuSans-62" transform="translate(165.771484 0.015625)"/>
      <use xlink:href="#DejaVuSans-61" transform="translate(229.248047 0.015625)"/>
      <use xlink:href="#DejaVuSans-62" transform="translate(290.527344 0.015625)"/>
      <use xlink:href="#DejaVuSans-69" transform="translate(354.003906 0.015625)"/>
      <use xlink:href="#DejaVuSans-6c" transform="translate(381.787109 0.015625)"/>
      <use xlink:href="#DejaVuSans-69" transform="translate(409.570312 0.015625)"/>
      <use xlink:href="#DejaVuSans-74" transform="translate(437.353516 0.015625)"/>
      <use xlink:href="#DejaVuSans-79" transform="translate(476.5625 0.015625)"/>
      <use xlink:href="#DejaVuSans-20" transform="translate(535.742188 0.015625)"/>
      <use xlink:href="#DejaVuSans-Oblique-50" transform="translate(567.529297 0.015625)"/>
     </g>
    </g>
    <g id="text_15">
     <!-- $\times\mathdefault{10^{−4}}\mathdefault{}$ -->
     <g transform="translate(14.7386 13.529498) scale(0.0833 -0.0833)">
      <defs>
       <path id="DejaVuSans-d7" d="M 4488 3438 
L 3059 2003 
L 4488 575 
L 4116 197 
L 2681 1631 
L 1247 197 
L 878 575 
L 2303 2003 
L 878 3438 
L 1247 3816 
L 2681 2381 
L 4116 3816 
L 4488 3438 
z
" transform="scale(0.015625)"/>
       <path id="DejaVuSans-2212" d="M 678 2272 
L 4684 2272 
L 4684 1741 
L 678 1741 
L 678 2272 
z
" transform="scale(0.015625)"/>
      </defs>
      <use xlink:href="#DejaVuSans-d7" transform="translate(0 0.684375)"/>
      <use xlink:href="#DejaVuSans-31" transform="translate(83.789062 0.684375)"/>
      <use xlink:href="#DejaVuSans-30" transform="translate(147.412109 0.684375)"/>
      <use xlink:href="#DejaVuSans-2212" transform="translate(211.992188 38.965625) scale(0.7)"/>
      <use xlink:href="#DejaVuSans-34" transform="translate(270.644531 38.965625) scale(0.7)"/>
     </g>
    </g>
   </g>
   <g id="patch_3">
    <path d="M 49.082545 123.325772 
L 49.082545 103.202896 
L 51.295198 103.202896 
L 51.295198 83.080021 
L 53.507851 83.080021 
L 53.507851 83.080021 
L 55.720504 83.080021 
L 55.720504 42.83427 
L 57.933156 42.83427 
L 57.933156 103.202896 
L 60.145809 103.202896 
L 60.145809 42.83427 
L 62.358462 42.83427 
L 62.358462 103.202896 
L 64.571114 103.202896 
L 64.571114 103.202896 
L 66.783767 103.202896 
L 66.783767 123.325772 
L 68.99642 123.325772 
L 68.99642 103.202896 
L 71.209073 103.202896 
L 71.209073 62.957145 
L 73.421725 62.957145 
L 73.421725 123.325772 
L 75.634378 123.325772 
L 75.634378 103.202896 
L 77.847031 103.202896 
L 77.847031 103.202896 
L 80.059683 103.202896 
L 80.059683 83.080021 
L 82.272336 83.080021 
L 82.272336 123.325772 
L 84.484989 123.325772 
L 84.484989 123.325772 
L 86.697642 123.325772 
L 86.697642 123.325772 
L 88.910294 123.325772 
L 88.910294 123.325772 
L 91.122947 123.325772 
L 91.122947 103.202896 
L 93.3356 103.202896 
L 93.3356 123.325772 
L 95.548252 123.325772 
L 95.548252 123.325772 
L 97.760905 123.325772 
L 97.760905 123.325772 
L 99.973558 123.325772 
L 99.973558 103.202896 
L 102.18621 103.202896 
L 102.18621 123.325772 
L 104.398863 123.325772 
L 104.398863 123.325772 
L 106.611516 123.325772 
L 106.611516 123.325772 
L 108.824169 123.325772 
L 108.824169 123.325772 
L 111.036821 123.325772 
L 111.036821 123.325772 
L 113.249474 123.325772 
L 113.249474 123.325772 
L 115.462127 123.325772 
L 115.462127 123.325772 
L 117.674779 123.325772 
L 117.674779 123.325772 
L 119.887432 123.325772 
L 119.887432 103.202896 
L 122.100085 103.202896 
L 122.100085 123.325772 
L 124.312738 123.325772 
L 124.312738 123.325772 
L 126.52539 123.325772 
L 126.52539 123.325772 
L 128.738043 123.325772 
L 128.738043 123.325772 
L 130.950696 123.325772 
L 130.950696 123.325772 
L 133.163348 123.325772 
L 133.163348 123.325772 
L 135.376001 123.325772 
L 135.376001 123.325772 
L 137.588654 123.325772 
L 137.588654 123.325772 
L 139.801307 123.325772 
L 139.801307 123.325772 
L 142.013959 123.325772 
L 142.013959 123.325772 
L 144.226612 123.325772 
L 144.226612 123.325772 
L 146.439265 123.325772 
L 146.439265 123.325772 
L 148.651917 123.325772 
L 148.651917 123.325772 
L 150.86457 123.325772 
L 150.86457 123.325772 
L 153.077223 123.325772 
L 153.077223 123.325772 
L 155.289876 123.325772 
L 155.289876 123.325772 
L 157.502528 123.325772 
L 157.502528 123.325772 
" clip-path="url(#pb98d49dbce)"/>
   </g>
   <g id="patch_4">
    <path d="M 49.082545 123.325772 
L 49.206434 123.325772 
L 49.392267 101.60184 
L 49.454212 101.60184 
L 49.640045 82.299592 
L 49.701989 82.299592 
L 49.887822 64.208187 
L 49.949767 64.208187 
L 50.1356 54.236546 
L 50.259488 54.236546 
L 50.445321 44.336131 
L 50.507266 44.336131 
L 50.693099 35.005524 
L 50.755043 35.005524 
L 50.755043 39.065407 
L 50.940876 34.506942 
L 51.002821 34.506942 
L 51.126709 29.7348 
L 51.188654 31.088094 
L 51.250598 31.088094 
L 51.312543 25.033884 
L 51.436431 25.247562 
L 51.498376 25.247562 
L 51.684209 30.162156 
L 51.746153 30.162156 
L 51.931986 21.615035 
L 51.993931 21.615035 
L 52.179764 28.025376 
L 52.241708 28.025376 
L 52.303652 24.036719 
L 52.427541 26.600856 
L 52.489486 26.600856 
L 52.55143 22.825877 
L 52.675319 25.176336 
L 52.737263 25.176336 
L 52.923096 32.22771 
L 52.98504 32.22771 
L 53.046985 24.677754 
L 53.170874 28.167828 
L 53.232818 28.167828 
L 53.294762 28.239054 
L 53.418651 25.247562 
L 53.480595 25.247562 
L 53.604484 32.58384 
L 53.666428 28.523958 
L 53.728373 28.523958 
L 53.728373 34.863072 
L 53.914206 30.589512 
L 53.97615 30.589512 
L 54.100039 34.649394 
L 54.038095 29.877252 
L 54.161983 31.942806 
L 54.223928 31.942806 
L 54.409761 36.14514 
L 54.471705 36.14514 
L 54.53365 32.726292 
L 54.657538 37.071079 
L 54.719483 37.071079 
L 54.843371 35.361654 
L 54.905316 39.350311 
L 54.96726 39.350311 
L 55.029204 38.922955 
L 55.029204 42.341803 
L 55.153093 38.922955 
L 55.215038 38.922955 
L 55.215038 45.760651 
L 55.400871 42.626707 
L 55.462815 42.626707 
L 55.648648 46.116781 
L 55.710592 46.116781 
L 55.710592 50.461568 
L 55.772537 45.262069 
L 55.896426 49.749308 
L 55.95837 49.749308 
L 55.95837 47.683753 
L 56.144203 49.250726 
L 56.206147 49.250726 
L 56.206147 44.905939 
L 56.39198 52.02854 
L 56.453925 52.02854 
L 56.515869 46.971493 
L 56.639758 54.806354 
L 56.701702 54.806354 
L 56.701702 52.954478 
L 56.763647 58.79501 
L 56.887535 54.52145 
L 56.94948 54.52145 
L 56.94948 59.15114 
L 57.135313 52.7408 
L 57.197257 52.7408 
L 57.38309 59.364818 
L 57.506979 59.50727 
L 57.506979 65.632707 
L 57.568923 59.079914 
L 57.692812 60.290756 
L 57.754757 60.290756 
L 57.816701 63.139797 
L 57.94059 59.222366 
L 58.002534 59.222366 
L 58.188367 65.703933 
L 58.312256 65.632707 
L 58.312256 63.139797 
L 58.3742 67.983165 
L 58.498089 64.279413 
L 58.560033 64.279413 
L 58.560033 69.051555 
L 58.745866 67.128453 
L 58.807811 67.128453 
L 58.931699 71.117109 
L 58.869755 65.062899 
L 58.993644 68.268069 
L 59.055588 68.268069 
L 59.055588 70.191171 
L 59.241421 69.478911 
L 59.303366 69.478911 
L 59.427254 75.39067 
L 59.489199 71.829369 
L 59.551143 71.829369 
L 59.551143 76.031704 
L 59.736976 73.467568 
L 59.860865 73.396342 
L 60.046698 79.593004 
L 60.108642 79.593004 
L 60.232531 75.818026 
L 60.294475 77.52745 
L 60.35642 77.52745 
L 60.35642 74.464732 
L 60.480309 83.296756 
L 60.542253 79.521778 
L 60.604197 79.521778 
L 60.604197 80.661394 
L 60.666142 77.456224 
L 60.79003 80.091586 
L 60.851975 80.091586 
L 60.913919 79.593004 
L 61.037808 82.51327 
L 61.099752 82.51327 
L 61.285585 79.094422 
L 61.34753 79.094422 
L 61.409474 85.647215 
L 61.533363 85.006181 
L 61.595307 85.006181 
L 61.657252 81.373654 
L 61.78114 87.071735 
L 61.843085 87.071735 
L 62.028918 84.934955 
L 62.090862 84.934955 
L 62.214751 89.350967 
L 62.276695 87.855221 
L 62.33864 87.855221 
L 62.33864 82.798174 
L 62.524473 88.781159 
L 62.648361 88.781159 
L 62.834194 89.849549 
L 62.896139 89.849549 
L 63.020028 91.986329 
L 62.958083 89.635871 
L 63.081972 91.843877 
L 63.143916 91.843877 
L 63.143916 88.638707 
L 63.205861 92.271233 
L 63.329749 92.271233 
L 63.391694 92.271233 
L 63.391694 93.054719 
L 63.577527 91.202843 
L 63.639471 91.202843 
L 63.825304 94.051883 
L 63.887249 94.051883 
L 64.011137 96.900924 
L 63.949193 91.345295 
L 64.073082 95.618855 
L 64.135026 95.618855 
L 64.135026 93.624527 
L 64.258915 96.616019 
L 64.320859 96.544793 
L 64.382804 96.544793 
L 64.382804 100.034868 
L 64.506692 93.980657 
L 64.568637 97.043376 
L 64.816414 97.185828 
L 64.878358 98.325444 
L 64.940303 95.761307 
L 65.002247 97.043376 
L 65.064192 97.043376 
L 65.126136 99.678738 
L 65.250025 97.541958 
L 65.373913 97.399506 
L 65.497802 95.832533 
L 65.559746 99.607512 
L 65.621691 99.607512 
L 65.74558 97.755636 
L 65.807524 98.824026 
L 65.869468 98.824026 
L 65.993357 101.886744 
L 66.055301 101.24571 
L 66.117246 101.24571 
L 66.117246 103.38249 
L 66.241134 100.106094 
L 66.303079 102.100422 
L 66.365023 102.100422 
L 66.488912 103.240038 
L 66.550856 100.462224 
L 66.612801 100.462224 
L 66.612801 102.883908 
L 66.674745 99.963642 
L 66.798634 100.390998 
L 66.860578 100.390998 
L 67.046411 104.878236 
L 67.108356 104.878236 
L 67.1703 102.029196 
L 67.294189 103.453716 
L 67.356133 103.453716 
L 67.356133 99.749964 
L 67.480022 104.878236 
L 67.541966 104.023524 
L 67.603911 104.023524 
L 67.603911 103.73862 
L 67.789744 105.376818 
L 67.851688 105.376818 
L 67.851688 102.67023 
L 68.037521 104.664558 
L 68.099465 104.664558 
L 68.285299 107.513598 
L 68.347243 107.513598 
L 68.347243 105.16314 
L 68.409187 107.798502 
L 68.533076 105.590496 
L 68.59502 105.590496 
L 68.59502 108.439536 
L 68.780853 105.732948 
L 68.842798 105.732948 
L 68.966687 105.590496 
L 69.028631 108.225858 
L 69.090575 108.225858 
L 69.090575 109.294249 
L 69.15252 105.732948 
L 69.276408 108.653214 
L 69.338353 108.653214 
L 69.338353 106.23153 
L 69.462241 109.935283 
L 69.524186 107.371146 
L 69.58613 107.371146 
L 69.710019 108.866892 
L 69.648075 107.29992 
L 69.771963 108.154632 
L 69.833908 108.154632 
L 69.895852 110.077735 
L 70.019741 107.584824 
L 70.081685 107.584824 
L 70.081685 109.507927 
L 70.267518 109.507927 
L 70.329463 109.507927 
L 70.391407 107.442372 
L 70.515296 110.077735 
L 70.57724 110.077735 
L 70.57724 109.151797 
L 70.701129 111.787159 
L 70.763073 109.294249 
L 70.825017 109.294249 
L 70.825017 110.576317 
L 71.010851 109.721605 
L 71.072795 109.721605 
L 71.072795 111.431029 
L 71.134739 108.938119 
L 71.258628 110.789995 
L 71.320572 110.789995 
L 71.444461 112.214515 
L 71.506406 111.288577 
L 71.56835 111.288577 
L 71.56835 111.003673 
L 71.692239 112.855549 
L 71.754183 112.143289 
L 71.816127 112.143289 
L 71.816127 112.855549 
L 71.940016 111.003673 
L 72.00196 111.217351 
L 72.063905 111.217351 
L 72.063905 113.425357 
L 72.249738 113.069227 
L 72.311682 113.069227 
L 72.311682 111.146125 
L 72.373627 113.282905 
L 72.497515 112.926775 
L 72.55946 112.926775 
L 72.55946 113.211679 
L 72.621404 110.861221 
L 72.745293 112.998001 
L 72.807237 112.998001 
L 72.931126 114.137617 
L 72.99307 111.573481 
L 73.055015 111.573481 
L 73.116959 113.354131 
L 73.240848 113.282905 
L 73.302792 113.282905 
L 73.302792 113.069227 
L 73.488625 115.348459 
L 73.55057 115.348459 
L 73.55057 113.211679 
L 73.736403 114.066391 
L 73.798347 114.066391 
L 73.798347 113.496583 
L 73.860291 114.849877 
L 73.98418 113.781487 
L 74.046124 113.781487 
L 74.046124 112.855549 
L 74.170013 114.208843 
L 74.231958 113.923939 
L 74.293902 113.923939 
L 74.293902 113.069227 
L 74.417791 115.918267 
L 74.479735 115.490911 
L 74.541679 115.490911 
L 74.541679 116.915431 
L 74.665568 115.134781 
L 74.727512 115.704589 
L 74.789457 115.704589 
L 74.913346 116.488075 
L 74.851401 115.348459 
L 74.97529 115.918267 
L 75.037234 115.918267 
L 75.099179 113.710261 
L 75.223067 114.422521 
L 75.285012 114.422521 
L 75.4089 115.704589 
L 75.470845 114.707425 
L 75.532789 114.707425 
L 75.594734 114.422521 
L 75.718622 116.559301 
L 75.780567 116.559301 
L 75.904455 115.134781 
L 75.9664 117.556465 
L 76.028344 117.556465 
L 76.090289 114.778651 
L 76.214177 116.416849 
L 76.276122 116.416849 
L 76.276122 117.342787 
L 76.461955 116.274397 
L 76.523899 116.274397 
L 76.647788 117.556465 
L 76.709732 116.488075 
L 76.771677 116.488075 
L 76.771677 116.274397 
L 76.833621 117.912595 
L 76.95751 117.414013 
L 77.019454 117.414013 
L 77.019454 116.915431 
L 77.205287 118.411177 
L 77.267231 118.411177 
L 77.453065 116.986657 
L 77.515009 116.986657 
L 77.700842 118.055047 
L 77.762786 118.055047 
L 77.886675 118.767307 
L 77.948619 117.556465 
L 78.010564 117.556465 
L 78.010564 118.696081 
L 78.134453 116.772979 
L 78.196397 118.411177 
L 78.258341 118.411177 
L 78.38223 117.983821 
L 78.444174 118.767307 
L 78.506119 118.767307 
L 78.506119 117.770143 
L 78.691952 117.983821 
L 78.753896 117.983821 
L 78.753896 117.271561 
L 78.939729 118.411177 
L 79.001674 118.411177 
L 79.001674 118.696081 
L 79.187507 118.197499 
L 79.249451 118.197499 
L 79.435284 119.479567 
L 79.497229 119.479567 
L 79.621117 119.764471 
L 79.683062 118.055047 
L 79.745006 118.055047 
L 79.930839 120.049375 
L 79.992783 120.049375 
L 80.054728 118.339951 
L 80.178617 119.622019 
L 80.240561 119.622019 
L 80.426394 118.553629 
L 80.550283 118.624855 
L 80.612227 119.693245 
L 80.736116 118.838533 
L 80.79806 118.838533 
L 80.860005 120.191827 
L 80.921949 118.624855 
L 80.983893 119.550793 
L 81.045838 119.550793 
L 81.045838 118.696081 
L 81.107782 120.049375 
L 81.231671 119.337115 
L 81.35556 119.479567 
L 81.35556 118.767307 
L 81.541393 120.619183 
L 81.603337 120.619183 
L 81.78917 119.693245 
L 81.851114 119.693245 
L 81.851114 120.049375 
L 81.975003 119.479567 
L 82.036948 119.550793 
L 82.098892 119.550793 
L 82.222781 121.545122 
L 82.284725 120.334279 
L 82.408614 120.405505 
L 82.408614 120.120601 
L 82.594447 121.331444 
L 82.656391 121.331444 
L 82.718336 120.049375 
L 82.842224 120.263053 
L 82.904169 120.263053 
L 82.966113 120.761635 
L 83.028057 120.049375 
L 83.090002 120.405505 
L 83.151946 120.405505 
L 83.21389 119.835697 
L 83.275835 120.690409 
L 83.337779 120.049375 
L 83.399724 120.049375 
L 83.399724 120.690409 
L 83.585557 120.547957 
L 83.709445 120.690409 
L 83.709445 120.191827 
L 83.833334 121.188992 
L 83.895278 121.117766 
L 84.019167 121.188992 
L 84.081112 121.331444 
L 84.205 119.550793 
L 84.266945 119.550793 
L 84.328889 121.545122 
L 84.452778 120.547957 
L 84.514722 120.547957 
L 84.514722 121.40267 
L 84.700555 120.690409 
L 84.7625 120.690409 
L 84.824444 120.334279 
L 84.948333 121.117766 
L 85.010277 121.117766 
L 85.010277 120.049375 
L 85.072221 121.40267 
L 85.19611 121.117766 
L 85.319999 121.117766 
L 85.443888 121.04654 
L 85.505832 121.545122 
L 85.629721 121.40267 
L 85.753609 120.476731 
L 85.815554 120.975313 
L 85.877498 120.975313 
L 85.877498 120.334279 
L 85.939443 121.40267 
L 86.063331 120.975313 
L 86.18722 120.904087 
L 86.311109 121.473896 
L 86.373053 121.117766 
L 86.434997 121.117766 
L 86.434997 121.473896 
L 86.620831 121.473896 
L 86.744719 121.545122 
L 86.868608 120.975313 
L 86.930552 121.7588 
L 87.054441 121.7588 
L 87.17833 121.260218 
L 87.116385 122.043704 
L 87.240274 121.616348 
L 87.426107 121.473896 
L 87.426107 121.188992 
L 87.549996 121.687574 
L 87.61194 121.616348 
L 87.673885 121.616348 
L 87.673885 120.832861 
L 87.735829 121.972478 
L 87.859718 121.687574 
L 88.045551 121.687574 
L 88.045551 121.40267 
L 88.16944 121.972478 
L 88.231384 121.473896 
L 88.293328 121.473896 
L 88.293328 121.188992 
L 88.355273 121.901252 
L 88.479161 121.331444 
L 88.541106 121.331444 
L 88.664995 121.901252 
L 88.726939 121.473896 
L 88.788883 121.473896 
L 88.912772 122.186156 
L 88.974716 121.901252 
L 89.036661 121.901252 
L 89.036661 121.331444 
L 89.098605 122.47106 
L 89.222494 121.473896 
L 89.284438 121.473896 
L 89.284438 122.043704 
L 89.408327 120.975313 
L 89.470271 122.043704 
L 89.718049 122.043704 
L 89.718049 122.613512 
L 89.903882 121.7588 
L 89.965826 121.7588 
L 90.151659 122.257382 
L 90.275548 122.186156 
L 90.399437 121.830026 
L 90.461381 122.043704 
L 90.523325 122.043704 
L 90.523325 122.328608 
L 90.58527 121.901252 
L 90.709159 122.11493 
L 90.771103 122.11493 
L 90.771103 122.328608 
L 90.894992 122.043704 
L 90.956936 122.043704 
L 91.01888 122.043704 
L 91.080825 122.47106 
L 91.204714 121.616348 
L 91.266658 121.616348 
L 91.328602 122.257382 
L 91.452491 122.043704 
L 91.638324 122.043704 
L 91.762213 122.684738 
L 91.700268 121.972478 
L 91.824157 122.186156 
L 91.886102 122.186156 
L 91.886102 122.684738 
L 92.071935 122.47106 
L 92.133879 122.47106 
L 92.195823 122.542286 
L 92.319712 122.043704 
L 92.381656 122.043704 
L 92.56749 122.898416 
L 92.629434 122.898416 
L 92.815267 122.257382 
L 92.877211 122.257382 
L 92.939156 122.755964 
L 93.0011 121.972478 
L 93.063044 122.613512 
L 93.124989 122.613512 
L 93.124989 122.898416 
L 93.310822 122.328608 
L 93.372766 122.328608 
L 93.372766 122.613512 
L 93.558599 122.47106 
L 93.620544 122.47106 
L 93.620544 122.684738 
L 93.682488 122.399834 
L 93.806377 122.399834 
L 93.930266 122.328608 
L 93.930266 122.613512 
L 94.054154 122.186156 
L 94.116099 122.47106 
L 94.301932 122.542286 
L 94.42582 122.898416 
L 94.487765 122.399834 
L 94.611654 122.257382 
L 94.611654 122.755964 
L 94.797487 122.755964 
L 94.859431 122.755964 
L 94.921375 122.47106 
L 95.045264 122.755964 
L 95.169153 122.684738 
L 95.169153 122.043704 
L 95.354986 122.613512 
L 95.41693 122.613512 
L 95.41693 122.399834 
L 95.540819 122.755964 
L 95.602763 122.755964 
L 95.97443 122.613512 
L 95.97443 122.542286 
L 96.160263 122.82719 
L 96.222207 122.82719 
L 96.222207 122.257382 
L 96.40804 122.82719 
L 96.531929 122.755964 
L 96.531929 123.112094 
L 96.593873 122.542286 
L 96.717762 122.898416 
L 96.841651 122.898416 
L 96.841651 122.542286 
L 96.965539 122.969642 
L 97.027484 122.969642 
L 97.151373 122.82719 
L 97.275261 122.898416 
L 97.337206 122.399834 
L 97.39915 122.399834 
L 97.584983 122.969642 
L 97.646927 122.969642 
L 97.646927 122.542286 
L 97.832761 122.898416 
L 97.894705 122.898416 
L 97.956649 122.542286 
L 98.080538 122.613512 
L 98.142482 122.613512 
L 98.204427 122.969642 
L 98.328315 122.969642 
L 98.638037 122.969642 
L 98.638037 122.755964 
L 98.82387 123.18332 
L 98.885815 123.18332 
L 99.009703 122.613512 
L 99.071648 122.898416 
L 99.257481 122.898416 
L 99.257481 122.542286 
L 99.38137 123.040868 
L 99.443314 122.82719 
L 99.691091 122.898416 
L 99.753036 122.684738 
L 99.876925 123.112094 
L 100.062758 123.040868 
L 100.124702 122.613512 
L 100.248591 122.969642 
L 100.372479 122.82719 
L 100.496368 123.040868 
L 100.558313 122.613512 
L 100.620257 122.613512 
L 100.620257 123.112094 
L 100.80609 123.040868 
L 101.177756 123.18332 
L 101.239701 122.755964 
L 101.363589 123.112094 
L 101.611367 122.969642 
L 101.611367 122.82719 
L 101.7972 123.112094 
L 102.106922 123.18332 
L 102.23081 122.82719 
L 102.292755 122.82719 
L 102.354699 122.82719 
L 102.478588 123.254546 
L 102.540532 123.18332 
L 102.850254 123.112094 
L 102.850254 122.898416 
L 103.036087 123.040868 
L 103.098032 123.040868 
L 103.098032 122.82719 
L 103.283865 123.18332 
L 103.469698 123.254546 
L 103.469698 122.542286 
L 103.655531 122.969642 
L 103.717475 122.969642 
L 103.717475 123.254546 
L 103.903308 123.254546 
L 104.027197 123.112094 
L 104.027197 123.040868 
L 104.21303 123.112094 
L 104.770529 122.969642 
L 104.770529 122.684738 
L 104.894418 123.254546 
L 104.956362 123.18332 
L 105.018307 123.18332 
L 105.080251 122.82719 
L 105.20414 122.898416 
L 105.266084 122.898416 
L 105.266084 123.18332 
L 105.451917 123.18332 
L 105.575806 123.18332 
L 105.575806 122.82719 
L 105.761639 122.969642 
L 105.823584 122.969642 
L 105.947472 123.325772 
L 106.009417 123.18332 
L 106.071361 123.18332 
L 106.071361 122.755964 
L 106.257194 123.040868 
L 106.319139 123.040868 
L 106.319139 123.254546 
L 106.504972 123.254546 
L 106.566916 123.254546 
L 106.566916 123.040868 
L 106.690805 123.325772 
L 106.752749 123.18332 
L 106.938582 123.254546 
L 106.938582 122.969642 
L 107.124415 123.112094 
L 107.310248 123.254546 
L 107.310248 123.325772 
L 107.496081 123.040868 
L 107.61997 123.040868 
L 107.61997 123.254546 
L 107.805803 122.969642 
L 107.867748 122.969642 
L 107.929692 123.254546 
L 108.053581 123.112094 
L 108.487191 123.254546 
L 108.487191 123.325772 
L 108.61108 123.112094 
L 108.673024 123.325772 
L 108.734969 123.325772 
L 108.734969 123.112094 
L 108.920802 123.18332 
L 111.522465 123.325772 
L 111.522465 122.969642 
L 111.708298 123.325772 
L 111.770243 123.325772 
L 111.770243 123.112094 
L 111.956076 123.254546 
L 112.513575 123.112094 
L 112.513575 123.040868 
L 112.575519 123.325772 
L 112.699408 123.254546 
L 118.150512 123.325772 
L 118.150512 123.040868 
L 118.336345 123.254546 
L 159.777125 123.254546 
L 159.777125 123.325772 
" clip-path="url(#pb98d49dbce)" style="fill: none; stroke: #264653; stroke-linejoin: miter"/>
   </g>
   <g id="patch_5">
    <path d="M 49.082545 123.325772 
L 49.330323 123.325772 
L 49.454212 107.354026 
L 49.5781 107.354026 
L 49.701989 94.534598 
L 49.825878 94.534598 
L 49.949767 85.474602 
L 50.073655 85.474602 
L 50.197544 75.550637 
L 50.321433 75.550637 
L 50.445321 68.498784 
L 50.56921 68.498784 
L 50.693099 60.372808 
L 50.940876 60.536261 
L 50.940876 56.846881 
L 51.064765 57.010335 
L 51.188654 57.010335 
L 51.312543 51.522966 
L 51.436431 51.522966 
L 51.56032 48.090442 
L 51.684209 48.090442 
L 51.808098 44.074155 
L 51.931986 44.074155 
L 51.931986 41.692403 
L 52.055875 44.77467 
L 52.179764 44.77467 
L 52.179764 43.233536 
L 52.303652 43.303588 
L 52.427541 43.303588 
L 52.427541 44.634567 
L 52.55143 43.467042 
L 52.675319 43.467042 
L 52.799207 40.735032 
L 52.923096 40.735032 
L 53.046985 43.957402 
L 53.170874 43.957402 
L 53.294762 40.431476 
L 53.418651 40.431476 
L 53.418651 42.346217 
L 53.54254 41.178692 
L 53.666428 41.178692 
L 53.666428 43.793949 
L 53.790317 41.669053 
L 53.914206 41.669053 
L 53.914206 44.844721 
L 54.038095 42.859928 
L 54.161983 42.859928 
L 54.161983 39.894414 
L 54.285872 44.354361 
L 54.409761 44.354361 
L 54.409761 46.058948 
L 54.53365 45.451835 
L 54.905316 45.591938 
L 55.029204 48.043741 
L 55.400871 47.99704 
L 55.524759 50.752399 
L 55.648648 50.752399 
L 55.648648 48.347297 
L 55.772537 48.720905 
L 55.896426 48.720905 
L 55.896426 52.013327 
L 56.020314 51.196059 
L 56.144203 51.196059 
L 56.144203 52.713842 
L 56.268092 52.64379 
L 56.39198 52.64379 
L 56.39198 52.270182 
L 56.515869 54.184924 
L 56.639758 54.184924 
L 56.763647 57.757551 
L 56.887535 57.757551 
L 56.887535 54.815387 
L 57.011424 57.127087 
L 57.135313 57.127087 
L 57.135313 56.519974 
L 57.259202 59.415437 
L 57.38309 59.415437 
L 57.38309 60.863168 
L 57.506979 58.271262 
L 57.754757 58.294613 
L 57.878645 61.773838 
L 58.002534 61.773838 
L 58.002534 63.174869 
L 58.126423 61.703787 
L 58.250311 61.703787 
L 58.3742 66.537341 
L 58.498089 66.537341 
L 58.498089 62.124096 
L 58.621978 62.684508 
L 58.745866 62.684508 
L 58.869755 66.303836 
L 58.993644 66.303836 
L 59.117533 67.634815 
L 59.241421 67.634815 
L 59.36531 70.203371 
L 59.489199 70.203371 
L 59.489199 70.64703 
L 59.613087 70.64703 
L 59.736976 70.64703 
L 59.736976 70.18002 
L 59.860865 72.818627 
L 59.984754 72.818627 
L 60.108642 74.289709 
L 60.232531 74.289709 
L 60.232531 75.667389 
L 60.35642 75.036926 
L 60.480309 75.036926 
L 60.604197 77.371976 
L 60.728086 77.371976 
L 60.728086 76.274502 
L 60.851975 77.698883 
L 60.975863 77.698883 
L 60.975863 75.153678 
L 61.099752 76.951667 
L 61.223641 76.951667 
L 61.223641 80.31414 
L 61.34753 79.84713 
L 61.471418 79.84713 
L 61.471418 81.108057 
L 61.595307 78.049141 
L 61.719196 78.049141 
L 61.843085 83.723314 
L 61.966973 83.723314 
L 61.966973 81.925325 
L 62.090862 82.765943 
L 62.214751 82.765943 
L 62.214751 84.00352 
L 62.33864 83.139551 
L 62.462528 83.139551 
L 62.586417 85.264447 
L 62.834194 85.217746 
L 62.834194 85.988313 
L 62.958083 84.190324 
L 63.081972 84.190324 
L 63.081972 87.365993 
L 63.205861 86.618776 
L 63.453638 86.712178 
L 63.453638 88.977178 
L 63.577527 87.6929 
L 63.701416 87.6929 
L 63.701416 87.272591 
L 63.825304 89.514239 
L 64.073082 89.630992 
L 64.073082 91.732537 
L 64.19697 91.008672 
L 64.320859 91.008672 
L 64.320859 90.751816 
L 64.444748 91.078723 
L 64.568637 91.078723 
L 64.568637 92.666557 
L 64.692525 91.195476 
L 64.816414 91.195476 
L 64.940303 91.40563 
L 64.940303 91.102074 
L 65.064192 91.102074 
L 65.18808 93.810732 
L 65.311969 93.810732 
L 65.311969 94.978258 
L 65.435858 93.997536 
L 65.559746 93.997536 
L 65.559746 93.553877 
L 65.683635 93.904134 
L 65.807524 93.904134 
L 65.807524 95.608721 
L 65.931413 94.768103 
L 66.055301 94.768103 
L 66.055301 96.566092 
L 66.17919 95.935628 
L 66.550856 95.865577 
L 66.674745 98.877792 
L 66.798634 98.877792 
L 66.798634 97.196556 
L 66.922523 98.761039 
L 67.046411 98.761039 
L 67.046411 97.616865 
L 67.1703 99.508256 
L 67.294189 99.508256 
L 67.294189 99.134648 
L 67.418077 99.578307 
L 67.665855 99.438204 
L 67.665855 100.18542 
L 67.789744 100.138719 
L 67.913632 100.138719 
L 67.913632 99.344802 
L 68.037521 100.348874 
L 68.16141 100.348874 
L 68.285299 101.633152 
L 68.409187 101.633152 
L 68.533076 102.800677 
L 68.656965 102.800677 
L 68.780853 101.749904 
L 68.904742 101.749904 
L 69.028631 103.38444 
L 69.15252 103.38444 
L 69.15252 102.987481 
L 69.276408 103.617945 
L 69.400297 103.617945 
L 69.400297 104.78547 
L 69.524186 104.78547 
L 69.648075 104.78547 
L 69.648075 104.061604 
L 69.771963 104.458563 
L 70.019741 104.295109 
L 70.019741 105.579387 
L 70.143629 104.528614 
L 70.267518 104.528614 
L 70.267518 105.882944 
L 70.391407 105.042326 
L 70.515296 105.042326 
L 70.639184 107.027119 
L 70.763073 107.027119 
L 70.763073 105.602738 
L 70.886962 106.490057 
L 71.134739 106.443356 
L 71.258628 108.194644 
L 71.506406 108.03119 
L 71.506406 106.980418 
L 71.630294 107.283974 
L 71.878072 107.237273 
L 72.00196 109.572324 
L 72.125849 109.572324 
L 72.125849 109.945932 
L 72.249738 108.895159 
L 72.373627 108.895159 
L 72.373627 108.404798 
L 72.497515 109.759128 
L 72.621404 109.759128 
L 72.621404 109.268767 
L 72.745293 109.899231 
L 72.869182 109.899231 
L 72.869182 110.272839 
L 72.99307 110.062684 
L 73.116959 110.062684 
L 73.116959 110.576395 
L 73.240848 110.31954 
L 73.364736 110.31954 
L 73.488625 111.206859 
L 73.612514 111.206859 
L 73.612514 110.436292 
L 73.736403 110.973354 
L 73.98418 111.090107 
L 74.108069 110.623096 
L 74.231958 110.623096 
L 74.231958 111.627168 
L 74.355846 111.136808 
L 74.479735 111.136808 
L 74.603624 111.510416 
L 74.727512 111.510416 
L 74.851401 112.514487 
L 74.97529 112.514487 
L 74.97529 112.16423 
L 75.099179 112.561188 
L 75.346956 112.607889 
L 75.346956 112.304333 
L 75.470845 113.004848 
L 75.594734 113.004848 
L 75.594734 113.285054 
L 75.718622 113.004848 
L 75.842511 113.004848 
L 75.842511 112.537838 
L 75.9664 113.308405 
L 76.090289 113.308405 
L 76.214177 113.682013 
L 76.461955 113.635312 
L 76.461955 114.826188 
L 76.585843 113.892167 
L 76.709732 113.892167 
L 76.833621 114.405878 
L 77.081398 114.545981 
L 77.081398 114.989641 
L 77.205287 113.985569 
L 77.329176 113.985569 
L 77.453065 115.199796 
L 77.576953 115.199796 
L 77.576953 114.686085 
L 77.700842 115.012992 
L 77.824731 115.012992 
L 77.948619 115.87696 
L 78.072508 115.87696 
L 78.072508 115.3866 
L 78.196397 115.596754 
L 78.320286 115.596754 
L 78.320286 115.85361 
L 78.444174 115.433301 
L 78.568063 115.433301 
L 78.568063 115.87696 
L 78.691952 115.433301 
L 78.815841 115.433301 
L 78.815841 116.647527 
L 78.939729 116.017063 
L 79.063618 116.017063 
L 79.187507 115.293198 
L 79.311395 115.293198 
L 79.435284 116.460723 
L 79.683062 116.297269 
L 79.683062 116.76428 
L 79.80695 116.530774 
L 79.930839 116.530774 
L 79.930839 116.740929 
L 80.054728 116.740929 
L 80.178617 116.740929 
L 80.178617 116.951084 
L 80.302505 116.647527 
L 80.426394 116.647527 
L 80.426394 116.437372 
L 80.550283 116.997785 
L 80.674171 116.997785 
L 80.674171 116.694228 
L 80.79806 117.348042 
L 80.921949 117.348042 
L 80.921949 117.908454 
L 81.045838 117.301341 
L 81.169726 117.301341 
L 81.169726 118.212011 
L 81.293615 117.558197 
L 81.541393 117.534846 
L 81.541393 117.978506 
L 81.665281 117.768351 
L 81.78917 117.768351 
L 81.78917 117.348042 
L 81.913059 117.885104 
L 82.160836 117.978506 
L 82.284725 118.585619 
L 82.408614 118.585619 
L 82.532502 117.324692 
L 82.532502 118.562268 
L 82.656391 118.562268 
L 82.656391 118.118609 
L 82.78028 118.562268 
L 83.028057 118.538918 
L 83.151946 118.865825 
L 83.523612 118.865825 
L 83.523612 119.332835 
L 83.647501 118.935877 
L 83.77139 118.935877 
L 83.77139 119.146031 
L 83.895278 118.912526 
L 84.019167 118.912526 
L 84.019167 118.655671 
L 84.143056 119.519639 
L 84.266945 119.519639 
L 84.266945 119.169382 
L 84.390833 119.356186 
L 84.514722 119.356186 
L 84.514722 118.445516 
L 84.638611 118.842475 
L 84.7625 118.842475 
L 84.7625 119.706443 
L 84.886388 119.706443 
L 85.010277 119.706443 
L 85.134166 118.982578 
L 85.258054 118.982578 
L 85.381943 119.683093 
L 85.505832 119.683093 
L 85.505832 119.402887 
L 85.629721 119.426237 
L 85.753609 119.426237 
L 85.877498 119.753144 
L 86.001387 119.753144 
L 86.125276 120.266855 
L 86.249164 120.266855 
L 86.249164 119.426237 
L 86.373053 120.336907 
L 86.496942 120.336907 
L 86.496942 119.986649 
L 86.620831 119.986649 
L 87.116385 120.103402 
L 87.116385 119.753144 
L 87.240274 120.103402 
L 87.61194 120.196804 
L 87.61194 120.710515 
L 87.735829 120.266855 
L 88.355273 120.196804 
L 88.355273 120.710515 
L 88.479161 120.617113 
L 89.098605 120.430309 
L 89.098605 120.873969 
L 89.222494 120.687165 
L 89.470271 120.827268 
L 89.470271 121.154175 
L 89.59416 120.663814 
L 89.718049 120.663814 
L 89.718049 120.94402 
L 89.841937 120.827268 
L 90.089715 120.990721 
L 90.089715 121.177525 
L 90.213604 120.990721 
L 90.461381 121.084123 
L 90.461381 121.38768 
L 90.58527 121.247577 
L 91.080825 121.130824 
L 91.080825 120.92067 
L 91.204714 121.784638 
L 91.328602 121.784638 
L 91.328602 121.014072 
L 91.452491 121.060773 
L 91.824157 121.224226 
L 91.824157 121.481082 
L 91.948046 121.154175 
L 92.071935 121.154175 
L 92.195823 121.434381 
L 92.443601 121.457731 
L 92.443601 122.018143 
L 92.56749 121.761288 
L 92.815267 121.737937 
L 92.815267 121.317628 
L 92.939156 121.85469 
L 93.063044 121.85469 
L 93.063044 122.111545 
L 93.186933 121.667886 
L 93.558599 121.481082 
L 93.558599 121.224226 
L 93.682488 121.831339 
L 93.930266 121.761288 
L 93.930266 121.574484 
L 94.054154 121.784638 
L 94.797487 121.714587 
L 94.921375 122.274999 
L 95.045264 122.274999 
L 95.045264 121.971442 
L 95.169153 122.041494 
L 95.41693 121.924741 
L 95.41693 121.831339 
L 95.540819 122.3217 
L 95.664708 122.3217 
L 95.788597 121.621185 
L 95.912485 121.621185 
L 96.036374 122.134896 
L 96.284151 122.181597 
L 96.284151 122.415102 
L 96.40804 122.34505 
L 96.655818 122.181597 
L 96.779706 121.994793 
L 96.903595 121.994793 
L 96.903595 122.251648 
L 97.027484 122.041494 
L 97.151373 122.041494 
L 97.151373 122.34505 
L 97.275261 122.34505 
L 97.646927 122.3217 
L 97.646927 122.111545 
L 97.770816 122.158246 
L 98.142482 122.3217 
L 98.142482 122.391751 
L 98.266371 122.368401 
L 99.753036 122.555205 
L 99.753036 122.695308 
L 99.876925 122.415102 
L 100.000813 122.415102 
L 100.000813 122.625257 
L 100.124702 122.438452 
L 100.248591 122.438452 
L 100.248591 122.228298 
L 100.372479 122.251648 
L 100.496368 122.251648 
L 100.496368 122.695308 
L 100.620257 122.648607 
L 101.735256 122.485153 
L 101.735256 122.438452 
L 101.859144 122.695308 
L 104.089141 122.695308 
L 104.089141 122.952164 
L 104.21303 122.928813 
L 104.336919 122.928813 
L 104.336919 122.648607 
L 104.460808 122.952164 
L 104.584696 122.952164 
L 104.584696 122.648607 
L 104.708585 122.78871 
L 106.19525 122.695308 
L 106.19525 122.998865 
L 106.319139 122.998865 
L 106.443027 122.998865 
L 106.443027 122.76536 
L 106.566916 122.858762 
L 107.929692 122.928813 
L 108.053581 123.092267 
L 108.301358 122.905463 
L 108.301358 122.882112 
L 108.425247 122.928813 
L 109.044691 122.998865 
L 109.044691 123.138968 
L 109.168579 122.975514 
L 115.115238 123.068916 
L 115.115238 123.209019 
L 115.239127 123.138968 
L 184.988482 123.302421 
L 184.988482 123.325772 
" clip-path="url(#pb98d49dbce)" style="fill: none; stroke: #2a9d8f; stroke-linejoin: miter"/>
   </g>
   <g id="patch_6">
    <path d="M 49.082545 123.325772 
L 49.330323 123.325772 
L 49.330323 121.778863 
L 49.5781 121.778863 
L 49.5781 114.53324 
L 49.825878 114.53324 
L 49.825878 106.125431 
L 50.073655 106.125431 
L 50.073655 98.222572 
L 50.321433 98.222572 
L 50.321433 92.21127 
L 50.56921 92.21127 
L 50.56921 86.440419 
L 50.816988 86.440419 
L 50.816988 82.480975 
L 51.064765 82.480975 
L 51.064765 77.615827 
L 51.312543 77.615827 
L 51.312543 72.8148 
L 51.56032 72.8148 
L 51.56032 70.722867 
L 51.808098 70.722867 
L 51.808098 68.518723 
L 52.055875 68.518723 
L 52.055875 65.344755 
L 52.303652 65.344755 
L 52.303652 63.365032 
L 52.55143 63.365032 
L 52.55143 62.066591 
L 52.799207 62.066591 
L 52.799207 61.200964 
L 53.046985 61.200964 
L 53.046985 59.758251 
L 53.294762 59.758251 
L 53.294762 58.644156 
L 53.54254 58.644156 
L 53.54254 57.065187 
L 53.790317 57.065187 
L 53.790317 58.195312 
L 54.038095 58.195312 
L 54.038095 57.554107 
L 54.285872 57.554107 
L 54.285872 56.24765 
L 54.53365 56.24765 
L 54.53365 58.531945 
L 54.781427 58.531945 
L 54.781427 57.297624 
L 55.029204 57.297624 
L 55.029204 57.506016 
L 55.276982 57.506016 
L 55.276982 58.660186 
L 55.772537 58.684232 
L 55.772537 59.333452 
L 56.268092 59.261317 
L 56.268092 60.110914 
L 56.515869 60.110914 
L 56.515869 60.712044 
L 57.011424 60.615863 
L 57.011424 63.172671 
L 57.259202 63.172671 
L 57.259202 63.517319 
L 57.506979 63.517319 
L 57.506979 63.733726 
L 57.754757 63.733726 
L 57.754757 66.026036 
L 58.002534 66.026036 
L 58.002534 66.250458 
L 58.250311 66.250458 
L 58.250311 67.444703 
L 58.498089 67.444703 
L 58.498089 66.362669 
L 58.745866 66.362669 
L 58.745866 67.861487 
L 58.993644 67.861487 
L 58.993644 69.520606 
L 59.241421 69.520606 
L 59.241421 71.307967 
L 59.489199 71.307967 
L 59.489199 70.225932 
L 59.736976 70.225932 
L 59.736976 72.317866 
L 59.984754 72.317866 
L 59.984754 72.598393 
L 60.232531 72.598393 
L 60.232531 73.247614 
L 60.480309 73.247614 
L 60.480309 74.55407 
L 60.728086 74.55407 
L 60.728086 75.235351 
L 60.975863 75.235351 
L 60.975863 77.527661 
L 61.223641 77.527661 
L 61.223641 77.776128 
L 61.719196 77.864294 
L 61.719196 79.355097 
L 61.966973 79.355097 
L 61.966973 79.571504 
L 62.214751 79.571504 
L 62.214751 80.397056 
L 62.462528 80.397056 
L 62.462528 82.168387 
L 62.958083 82.272583 
L 62.958083 82.953864 
L 63.205861 82.953864 
L 63.205861 84.284365 
L 63.453638 84.284365 
L 63.453638 83.442783 
L 63.701416 83.442783 
L 63.701416 86.240042 
L 63.949193 86.240042 
L 63.949193 86.648811 
L 64.444748 86.656826 
L 64.444748 88.596473 
L 64.692525 88.596473 
L 64.692525 89.125468 
L 64.940303 89.125468 
L 64.940303 88.604488 
L 65.18808 88.604488 
L 65.18808 89.678508 
L 65.683635 89.670492 
L 65.683635 91.345642 
L 66.17919 91.369687 
L 66.17919 92.507827 
L 66.426968 92.507827 
L 66.426968 93.213153 
L 66.674745 93.213153 
L 66.674745 94.391369 
L 67.1703 94.247097 
L 67.1703 94.744032 
L 67.418077 94.744032 
L 67.418077 95.353177 
L 67.665855 95.353177 
L 67.665855 95.890187 
L 67.913632 95.890187 
L 67.913632 96.27491 
L 68.16141 96.27491 
L 68.16141 96.515362 
L 68.409187 96.515362 
L 68.409187 97.228704 
L 68.656965 97.228704 
L 68.656965 98.262648 
L 68.904742 98.262648 
L 68.904742 98.559205 
L 69.400297 98.5031 
L 69.400297 99.609179 
L 69.648075 99.609179 
L 69.648075 98.935913 
L 69.895852 98.935913 
L 69.895852 100.394656 
L 70.143629 100.394656 
L 70.143629 100.995786 
L 70.639184 101.180133 
L 70.639184 102.069806 
L 71.134739 102.029731 
L 71.134739 103.440383 
L 71.382517 103.440383 
L 71.382517 102.975509 
L 71.630294 102.975509 
L 71.630294 102.751087 
L 71.878072 102.751087 
L 71.878072 104.338071 
L 72.125849 104.338071 
L 72.125849 104.7789 
L 72.373627 104.7789 
L 72.373627 104.979276 
L 72.621404 104.979276 
L 72.621404 104.722794 
L 72.869182 104.722794 
L 72.869182 105.372015 
L 73.612514 105.508271 
L 73.612514 106.542215 
L 73.860291 106.542215 
L 73.860291 106.814727 
L 74.108069 106.814727 
L 74.108069 107.16739 
L 74.603624 107.279601 
L 74.603624 107.992943 
L 74.851401 107.992943 
L 74.851401 107.496008 
L 75.099179 107.496008 
L 75.099179 108.553998 
L 75.594734 108.682239 
L 75.594734 109.523821 
L 75.842511 109.523821 
L 75.842511 109.131083 
L 76.090289 109.131083 
L 76.090289 109.716183 
L 76.338066 109.716183 
L 76.338066 110.044801 
L 76.585843 110.044801 
L 76.585843 110.51769 
L 77.081398 110.525705 
L 77.081398 111.054699 
L 77.576953 111.11882 
L 77.576953 111.271106 
L 77.824731 111.271106 
L 77.824731 111.976432 
L 78.320286 111.880252 
L 78.320286 112.369171 
L 78.568063 112.369171 
L 78.568063 111.952387 
L 78.815841 111.952387 
L 78.815841 112.409246 
L 79.063618 112.409246 
L 79.063618 112.970301 
L 79.80695 113.146633 
L 79.80695 113.579446 
L 80.054728 113.579446 
L 80.054728 113.266859 
L 80.302505 113.266859 
L 80.302505 113.579446 
L 80.550283 113.579446 
L 80.550283 113.99623 
L 80.79806 113.99623 
L 80.79806 114.316833 
L 81.045838 114.316833 
L 81.045838 114.052336 
L 81.293615 114.052336 
L 81.293615 114.284773 
L 81.541393 114.284773 
L 81.541393 114.621406 
L 82.284725 114.677511 
L 82.284725 115.294671 
L 82.78028 115.310702 
L 82.78028 115.903817 
L 83.77139 116.032058 
L 83.77139 115.631304 
L 84.019167 115.631304 
L 84.019167 116.128239 
L 84.266945 116.128239 
L 84.266945 115.903817 
L 84.7625 115.959922 
L 84.7625 116.721354 
L 85.258054 116.705324 
L 85.258054 117.178213 
L 85.753609 117.106077 
L 85.753609 116.817535 
L 86.001387 116.817535 
L 86.001387 117.715223 
L 86.249164 117.715223 
L 86.249164 117.514846 
L 86.992497 117.42668 
L 86.992497 117.266379 
L 87.240274 117.266379 
L 87.240274 117.851479 
L 88.231384 117.939645 
L 88.231384 118.460624 
L 88.974716 118.540775 
L 88.974716 118.853363 
L 89.222494 118.853363 
L 89.222494 119.14992 
L 89.470271 119.14992 
L 89.470271 118.773212 
L 89.965826 118.620926 
L 89.965826 119.157935 
L 90.709159 119.14992 
L 90.709159 119.582734 
L 90.956936 119.582734 
L 90.956936 119.246101 
L 91.452491 119.270146 
L 91.452491 119.791126 
L 91.948046 119.614794 
L 91.948046 119.518613 
L 92.195823 119.518613 
L 92.195823 119.831201 
L 92.939156 119.879292 
L 92.939156 120.143789 
L 93.930266 120.127759 
L 93.930266 120.392256 
L 95.664708 120.552557 
L 95.664708 120.752934 
L 96.160263 120.945296 
L 96.160263 120.528512 
L 96.655818 120.696829 
L 96.655818 120.985371 
L 97.894705 120.953311 
L 97.894705 121.330019 
L 98.142482 121.330019 
L 98.142482 121.089567 
L 98.39026 121.089567 
L 98.39026 121.418185 
L 99.876925 121.265899 
L 99.876925 121.666652 
L 100.124702 121.666652 
L 100.124702 121.386125 
L 100.372479 121.386125 
L 100.372479 121.706728 
L 100.620257 121.706728 
L 100.620257 121.466275 
L 100.868034 121.466275 
L 100.868034 121.706728 
L 101.611367 121.578486 
L 101.611367 121.498336 
L 102.106922 121.674667 
L 102.106922 121.722758 
L 103.345809 121.883059 
L 103.345809 122.0113 
L 103.593586 122.0113 
L 103.593586 121.786878 
L 104.336919 121.730773 
L 104.336919 122.051376 
L 104.832474 122.075421 
L 104.832474 122.363963 
L 105.080251 122.363963 
L 105.080251 122.059391 
L 105.575806 122.099466 
L 105.575806 122.259767 
L 109.044691 122.452129 
L 109.044691 122.51625 
L 111.522465 122.628461 
L 111.522465 122.724641 
L 116.973569 122.900973 
L 116.973569 122.941048 
L 123.911338 123.053259 
L 123.911338 123.141425 
L 206.173455 123.317757 
L 206.173455 123.325772 
" clip-path="url(#pb98d49dbce)" style="fill: none; stroke: #e9c46a; stroke-linejoin: miter"/>
   </g>
   <g id="patch_7">
    <path d="M 41.228 123.325772 
L 41.228 16.529498 
" style="fill: none; stroke: #000000; stroke-width: 0.8; stroke-linejoin: miter; stroke-linecap: square"/>
   </g>
   <g id="patch_8">
    <path d="M 214.028 123.325772 
L 214.028 16.529498 
" style="fill: none; stroke: #000000; stroke-width: 0.8; stroke-linejoin: miter; stroke-linecap: square"/>
   </g>
   <g id="patch_9">
    <path d="M 41.228 123.325772 
L 214.028 123.325772 
" style="fill: none; stroke: #000000; stroke-width: 0.8; stroke-linejoin: miter; stroke-linecap: square"/>
   </g>
   <g id="patch_10">
    <path d="M 41.228 16.529498 
L 214.028 16.529498 
" style="fill: none; stroke: #000000; stroke-width: 0.8; stroke-linejoin: miter; stroke-linecap: square"/>
   </g>
   <g id="legend_1">
    <g id="text_16">
     <!-- $\tau_\mathrm{lag}$ [ns] -->
     <g transform="translate(224.070733 49.014129) scale(0.0833 -0.0833)">
      <use xlink:href="#DejaVuSans-Oblique-3c4" transform="translate(0 0.015625)"/>
      <use xlink:href="#DejaVuSans-6c" transform="translate(60.205078 -16.390625) scale(0.7)"/>
      <use xlink:href="#DejaVuSans-61" transform="translate(79.65332 -16.390625) scale(0.7)"/>
      <use xlink:href="#DejaVuSans-67" transform="translate(122.548828 -16.390625) scale(0.7)"/>
      <use xlink:href="#DejaVuSans-20" transform="translate(169.716797 0.015625)"/>
      <use xlink:href="#DejaVuSans-5b" transform="translate(201.503906 0.015625)"/>
      <use xlink:href="#DejaVuSans-6e" transform="translate(240.517578 0.015625)"/>
      <use xlink:href="#DejaVuSans-73" transform="translate(303.896484 0.015625)"/>
      <use xlink:href="#DejaVuSans-5d" transform="translate(355.996094 0.015625)"/>
     </g>
    </g>
    <g id="patch_11">
     <path d="M 223.377 61.257927 
L 235.039 61.257927 
L 235.039 55.426927 
L 223.377 55.426927 
z
"/>
    </g>
    <g id="text_17">
     <!-- MD -->
     <g transform="translate(239.204 61.257927) scale(0.0833 -0.0833)">
      <defs>
       <path id="DejaVuSans-4d" d="M 628 4666 
L 1569 4666 
L 2759 1491 
L 3956 4666 
L 4897 4666 
L 4897 0 
L 4281 0 
L 4281 4097 
L 3078 897 
L 2444 897 
L 1241 4097 
L 1241 0 
L 628 0 
L 628 4666 
z
" transform="scale(0.015625)"/>
       <path id="DejaVuSans-44" d="M 1259 4147 
L 1259 519 
L 2022 519 
Q 2988 519 3436 956 
Q 3884 1394 3884 2338 
Q 3884 3275 3436 3711 
Q 2988 4147 2022 4147 
L 1259 4147 
z
M 628 4666 
L 1925 4666 
Q 3281 4666 3915 4102 
Q 4550 3538 4550 2338 
Q 4550 1131 3912 565 
Q 3275 0 1925 0 
L 628 0 
L 628 4666 
z
" transform="scale(0.015625)"/>
      </defs>
      <use xlink:href="#DejaVuSans-4d"/>
      <use xlink:href="#DejaVuSans-44" x="86.279297"/>
     </g>
    </g>
    <g id="line2d_25">
     <path d="M 223.377 69.736305 
L 235.039 69.736305 
" style="fill: none; stroke: #264653; stroke-linecap: square"/>
    </g>
    <g id="text_18">
     <!-- 10.0 -->
     <g transform="translate(239.204 72.651805) scale(0.0833 -0.0833)">
      <use xlink:href="#DejaVuSans-31"/>
      <use xlink:href="#DejaVuSans-30" x="63.623047"/>
      <use xlink:href="#DejaVuSans-2e" x="127.246094"/>
      <use xlink:href="#DejaVuSans-30" x="159.033203"/>
     </g>
    </g>
    <g id="line2d_26">
     <path d="M 223.377 81.130184 
L 235.039 81.130184 
" style="fill: none; stroke: #2a9d8f; stroke-linecap: square"/>
    </g>
    <g id="text_19">
     <!-- 20.0 -->
     <g transform="translate(239.204 84.045684) scale(0.0833 -0.0833)">
      <use xlink:href="#DejaVuSans-32"/>
      <use xlink:href="#DejaVuSans-30" x="63.623047"/>
      <use xlink:href="#DejaVuSans-2e" x="127.246094"/>
      <use xlink:href="#DejaVuSans-30" x="159.033203"/>
     </g>
    </g>
    <g id="line2d_27">
     <path d="M 223.377 92.524062 
L 235.039 92.524062 
" style="fill: none; stroke: #e9c46a; stroke-linecap: square"/>
    </g>
    <g id="text_20">
     <!-- 40.0 -->
     <g transform="translate(239.204 95.439562) scale(0.0833 -0.0833)">
      <use xlink:href="#DejaVuSans-34"/>
      <use xlink:href="#DejaVuSans-30" x="63.623047"/>
      <use xlink:href="#DejaVuSans-2e" x="127.246094"/>
      <use xlink:href="#DejaVuSans-30" x="159.033203"/>
     </g>
    </g>
   </g>
  </g>
 </g>
 <defs>
  <clipPath id="pb98d49dbce">
   <rect x="41.228" y="16.529498" width="172.8" height="106.796273"/>
  </clipPath>
 </defs>
</svg>
