<?xml version="1.0" encoding="utf-8" standalone="no"?>
<!DOCTYPE svg PUBLIC "-//W3C//DTD SVG 1.1//EN"
  "http://www.w3.org/Graphics/SVG/1.1/DTD/svg11.dtd">
<svg xmlns:xlink="http://www.w3.org/1999/xlink" width="261.577666pt" height="160.28765pt" viewBox="0 0 261.577666 160.28765" xmlns="http://www.w3.org/2000/svg" version="1.1">
 <metadata>
  <rdf:RDF xmlns:dc="http://purl.org/dc/elements/1.1/" xmlns:cc="http://creativecommons.org/ns#" xmlns:rdf="http://www.w3.org/1999/02/22-rdf-syntax-ns#">
   <cc:Work>
    <dc:type rdf:resource="http://purl.org/dc/dcmitype/StillImage"/>
    <dc:date>2023-03-08T15:22:17.278873</dc:date>
    <dc:format>image/svg+xml</dc:format>
    <dc:creator>
     <cc:Agent>
      <dc:title>Matplotlib v3.6.3, https://matplotlib.org/</dc:title>
     </cc:Agent>
    </dc:creator>
   </cc:Work>
  </rdf:RDF>
 </metadata>
 <defs>
  <style type="text/css">*{stroke-linejoin: round; stroke-linecap: butt}</style>
 </defs>
 <g id="figure_1">
  <g id="patch_1">
   <path d="M 0 160.28765 
L 261.577666 160.28765 
L 261.577666 0 
L 0 0 
L 0 160.28765 
z
" style="fill: none"/>
  </g>
  <g id="axes_1">
   <g id="patch_2">
    <path d="M 33.6894 123.325772 
L 206.4894 123.325772 
L 206.4894 16.529498 
L 33.6894 16.529498 
L 33.6894 123.325772 
z
" style="fill: none"/>
   </g>
   <g id="matplotlib.axis_1">
    <g id="xtick_1">
     <g id="line2d_1">
      <path d="M 41.543945 123.325772 
L 41.543945 16.529498 
" clip-path="url(#p0c6db11003)" style="fill: none; stroke-dasharray: 2.96,1.28; stroke-dashoffset: 0; stroke: #dddfe5; stroke-width: 0.8"/>
     </g>
     <g id="line2d_2">
      <defs>
       <path id="mb0ca3cbd39" d="M 0 0 
L 0 3.5 
" style="stroke: #000000; stroke-width: 0.8"/>
      </defs>
      <g>
       <use xlink:href="#mb0ca3cbd39" x="41.543945" y="123.325772" style="stroke: #000000; stroke-width: 0.8"/>
      </g>
     </g>
     <g id="text_1">
      <!-- 0 -->
      <g transform="translate(38.893964 136.65527) scale(0.0833 -0.0833)">
       <defs>
        <path id="DejaVuSans-30" d="M 2034 4250 
Q 1547 4250 1301 3770 
Q 1056 3291 1056 2328 
Q 1056 1369 1301 889 
Q 1547 409 2034 409 
Q 2525 409 2770 889 
Q 3016 1369 3016 2328 
Q 3016 3291 2770 3770 
Q 2525 4250 2034 4250 
z
M 2034 4750 
Q 2819 4750 3233 4129 
Q 3647 3509 3647 2328 
Q 3647 1150 3233 529 
Q 2819 -91 2034 -91 
Q 1250 -91 836 529 
Q 422 1150 422 2328 
Q 422 3509 836 4129 
Q 1250 4750 2034 4750 
z
" transform="scale(0.015625)"/>
       </defs>
       <use xlink:href="#DejaVuSans-30"/>
      </g>
     </g>
    </g>
    <g id="xtick_2">
     <g id="line2d_3">
      <path d="M 81.659091 123.325772 
L 81.659091 16.529498 
" clip-path="url(#p0c6db11003)" style="fill: none; stroke-dasharray: 2.96,1.28; stroke-dashoffset: 0; stroke: #dddfe5; stroke-width: 0.8"/>
     </g>
     <g id="line2d_4">
      <g>
       <use xlink:href="#mb0ca3cbd39" x="81.659091" y="123.325772" style="stroke: #000000; stroke-width: 0.8"/>
      </g>
     </g>
     <g id="text_2">
      <!-- 10000 -->
      <g transform="translate(68.409185 136.65527) scale(0.0833 -0.0833)">
       <defs>
        <path id="DejaVuSans-31" d="M 794 531 
L 1825 531 
L 1825 4091 
L 703 3866 
L 703 4441 
L 1819 4666 
L 2450 4666 
L 2450 531 
L 3481 531 
L 3481 0 
L 794 0 
L 794 531 
z
" transform="scale(0.015625)"/>
       </defs>
       <use xlink:href="#DejaVuSans-31"/>
       <use xlink:href="#DejaVuSans-30" x="63.623047"/>
       <use xlink:href="#DejaVuSans-30" x="127.246094"/>
       <use xlink:href="#DejaVuSans-30" x="190.869141"/>
       <use xlink:href="#DejaVuSans-30" x="254.492188"/>
      </g>
     </g>
    </g>
    <g id="xtick_3">
     <g id="line2d_5">
      <path d="M 121.774236 123.325772 
L 121.774236 16.529498 
" clip-path="url(#p0c6db11003)" style="fill: none; stroke-dasharray: 2.96,1.28; stroke-dashoffset: 0; stroke: #dddfe5; stroke-width: 0.8"/>
     </g>
     <g id="line2d_6">
      <g>
       <use xlink:href="#mb0ca3cbd39" x="121.774236" y="123.325772" style="stroke: #000000; stroke-width: 0.8"/>
      </g>
     </g>
     <g id="text_3">
      <!-- 20000 -->
      <g transform="translate(108.52433 136.65527) scale(0.0833 -0.0833)">
       <defs>
        <path id="DejaVuSans-32" d="M 1228 531 
L 3431 531 
L 3431 0 
L 469 0 
L 469 531 
Q 828 903 1448 1529 
Q 2069 2156 2228 2338 
Q 2531 2678 2651 2914 
Q 2772 3150 2772 3378 
Q 2772 3750 2511 3984 
Q 2250 4219 1831 4219 
Q 1534 4219 1204 4116 
Q 875 4013 500 3803 
L 500 4441 
Q 881 4594 1212 4672 
Q 1544 4750 1819 4750 
Q 2544 4750 2975 4387 
Q 3406 4025 3406 3419 
Q 3406 3131 3298 2873 
Q 3191 2616 2906 2266 
Q 2828 2175 2409 1742 
Q 1991 1309 1228 531 
z
" transform="scale(0.015625)"/>
       </defs>
       <use xlink:href="#DejaVuSans-32"/>
       <use xlink:href="#DejaVuSans-30" x="63.623047"/>
       <use xlink:href="#DejaVuSans-30" x="127.246094"/>
       <use xlink:href="#DejaVuSans-30" x="190.869141"/>
       <use xlink:href="#DejaVuSans-30" x="254.492188"/>
      </g>
     </g>
    </g>
    <g id="xtick_4">
     <g id="line2d_7">
      <path d="M 161.889381 123.325772 
L 161.889381 16.529498 
" clip-path="url(#p0c6db11003)" style="fill: none; stroke-dasharray: 2.96,1.28; stroke-dashoffset: 0; stroke: #dddfe5; stroke-width: 0.8"/>
     </g>
     <g id="line2d_8">
      <g>
       <use xlink:href="#mb0ca3cbd39" x="161.889381" y="123.325772" style="stroke: #000000; stroke-width: 0.8"/>
      </g>
     </g>
     <g id="text_4">
      <!-- 30000 -->
      <g transform="translate(148.639475 136.65527) scale(0.0833 -0.0833)">
       <defs>
        <path id="DejaVuSans-33" d="M 2597 2516 
Q 3050 2419 3304 2112 
Q 3559 1806 3559 1356 
Q 3559 666 3084 287 
Q 2609 -91 1734 -91 
Q 1441 -91 1130 -33 
Q 819 25 488 141 
L 488 750 
Q 750 597 1062 519 
Q 1375 441 1716 441 
Q 2309 441 2620 675 
Q 2931 909 2931 1356 
Q 2931 1769 2642 2001 
Q 2353 2234 1838 2234 
L 1294 2234 
L 1294 2753 
L 1863 2753 
Q 2328 2753 2575 2939 
Q 2822 3125 2822 3475 
Q 2822 3834 2567 4026 
Q 2313 4219 1838 4219 
Q 1578 4219 1281 4162 
Q 984 4106 628 3988 
L 628 4550 
Q 988 4650 1302 4700 
Q 1616 4750 1894 4750 
Q 2613 4750 3031 4423 
Q 3450 4097 3450 3541 
Q 3450 3153 3228 2886 
Q 3006 2619 2597 2516 
z
" transform="scale(0.015625)"/>
       </defs>
       <use xlink:href="#DejaVuSans-33"/>
       <use xlink:href="#DejaVuSans-30" x="63.623047"/>
       <use xlink:href="#DejaVuSans-30" x="127.246094"/>
       <use xlink:href="#DejaVuSans-30" x="190.869141"/>
       <use xlink:href="#DejaVuSans-30" x="254.492188"/>
      </g>
     </g>
    </g>
    <g id="xtick_5">
     <g id="line2d_9">
      <path d="M 202.004527 123.325772 
L 202.004527 16.529498 
" clip-path="url(#p0c6db11003)" style="fill: none; stroke-dasharray: 2.96,1.28; stroke-dashoffset: 0; stroke: #dddfe5; stroke-width: 0.8"/>
     </g>
     <g id="line2d_10">
      <g>
       <use xlink:href="#mb0ca3cbd39" x="202.004527" y="123.325772" style="stroke: #000000; stroke-width: 0.8"/>
      </g>
     </g>
     <g id="text_5">
      <!-- 40000 -->
      <g transform="translate(188.754621 136.65527) scale(0.0833 -0.0833)">
       <defs>
        <path id="DejaVuSans-34" d="M 2419 4116 
L 825 1625 
L 2419 1625 
L 2419 4116 
z
M 2253 4666 
L 3047 4666 
L 3047 1625 
L 3713 1625 
L 3713 1100 
L 3047 1100 
L 3047 0 
L 2419 0 
L 2419 1100 
L 313 1100 
L 313 1709 
L 2253 4666 
z
" transform="scale(0.015625)"/>
       </defs>
       <use xlink:href="#DejaVuSans-34"/>
       <use xlink:href="#DejaVuSans-30" x="63.623047"/>
       <use xlink:href="#DejaVuSans-30" x="127.246094"/>
       <use xlink:href="#DejaVuSans-30" x="190.869141"/>
       <use xlink:href="#DejaVuSans-30" x="254.492188"/>
      </g>
     </g>
    </g>
    <g id="text_6">
     <!-- $\tau_\mathrm{lag}$ [ns] -->
     <g transform="translate(100.2894 149.98765) scale(0.1 -0.1)">
      <defs>
       <path id="DejaVuSans-Oblique-3c4" d="M 2103 638 
Q 2188 488 2525 488 
L 2800 488 
L 2706 0 
L 2363 0 
Q 1800 0 1600 300 
Q 1403 606 1534 1269 
L 1856 2925 
L 541 2925 
L 653 3500 
L 3881 3500 
L 3769 2925 
L 2444 2925 
L 2113 1234 
Q 2025 781 2103 638 
z
" transform="scale(0.015625)"/>
       <path id="DejaVuSans-6c" d="M 603 4863 
L 1178 4863 
L 1178 0 
L 603 0 
L 603 4863 
z
" transform="scale(0.015625)"/>
       <path id="DejaVuSans-61" d="M 2194 1759 
Q 1497 1759 1228 1600 
Q 959 1441 959 1056 
Q 959 750 1161 570 
Q 1363 391 1709 391 
Q 2188 391 2477 730 
Q 2766 1069 2766 1631 
L 2766 1759 
L 2194 1759 
z
M 3341 1997 
L 3341 0 
L 2766 0 
L 2766 531 
Q 2569 213 2275 61 
Q 1981 -91 1556 -91 
Q 1019 -91 701 211 
Q 384 513 384 1019 
Q 384 1609 779 1909 
Q 1175 2209 1959 2209 
L 2766 2209 
L 2766 2266 
Q 2766 2663 2505 2880 
Q 2244 3097 1772 3097 
Q 1472 3097 1187 3025 
Q 903 2953 641 2809 
L 641 3341 
Q 956 3463 1253 3523 
Q 1550 3584 1831 3584 
Q 2591 3584 2966 3190 
Q 3341 2797 3341 1997 
z
" transform="scale(0.015625)"/>
       <path id="DejaVuSans-67" d="M 2906 1791 
Q 2906 2416 2648 2759 
Q 2391 3103 1925 3103 
Q 1463 3103 1205 2759 
Q 947 2416 947 1791 
Q 947 1169 1205 825 
Q 1463 481 1925 481 
Q 2391 481 2648 825 
Q 2906 1169 2906 1791 
z
M 3481 434 
Q 3481 -459 3084 -895 
Q 2688 -1331 1869 -1331 
Q 1566 -1331 1297 -1286 
Q 1028 -1241 775 -1147 
L 775 -588 
Q 1028 -725 1275 -790 
Q 1522 -856 1778 -856 
Q 2344 -856 2625 -561 
Q 2906 -266 2906 331 
L 2906 616 
Q 2728 306 2450 153 
Q 2172 0 1784 0 
Q 1141 0 747 490 
Q 353 981 353 1791 
Q 353 2603 747 3093 
Q 1141 3584 1784 3584 
Q 2172 3584 2450 3431 
Q 2728 3278 2906 2969 
L 2906 3500 
L 3481 3500 
L 3481 434 
z
" transform="scale(0.015625)"/>
       <path id="DejaVuSans-20" transform="scale(0.015625)"/>
       <path id="DejaVuSans-5b" d="M 550 4863 
L 1875 4863 
L 1875 4416 
L 1125 4416 
L 1125 -397 
L 1875 -397 
L 1875 -844 
L 550 -844 
L 550 4863 
z
" transform="scale(0.015625)"/>
       <path id="DejaVuSans-6e" d="M 3513 2113 
L 3513 0 
L 2938 0 
L 2938 2094 
Q 2938 2591 2744 2837 
Q 2550 3084 2163 3084 
Q 1697 3084 1428 2787 
Q 1159 2491 1159 1978 
L 1159 0 
L 581 0 
L 581 3500 
L 1159 3500 
L 1159 2956 
Q 1366 3272 1645 3428 
Q 1925 3584 2291 3584 
Q 2894 3584 3203 3211 
Q 3513 2838 3513 2113 
z
" transform="scale(0.015625)"/>
       <path id="DejaVuSans-73" d="M 2834 3397 
L 2834 2853 
Q 2591 2978 2328 3040 
Q 2066 3103 1784 3103 
Q 1356 3103 1142 2972 
Q 928 2841 928 2578 
Q 928 2378 1081 2264 
Q 1234 2150 1697 2047 
L 1894 2003 
Q 2506 1872 2764 1633 
Q 3022 1394 3022 966 
Q 3022 478 2636 193 
Q 2250 -91 1575 -91 
Q 1294 -91 989 -36 
Q 684 19 347 128 
L 347 722 
Q 666 556 975 473 
Q 1284 391 1588 391 
Q 1994 391 2212 530 
Q 2431 669 2431 922 
Q 2431 1156 2273 1281 
Q 2116 1406 1581 1522 
L 1381 1569 
Q 847 1681 609 1914 
Q 372 2147 372 2553 
Q 372 3047 722 3315 
Q 1072 3584 1716 3584 
Q 2034 3584 2315 3537 
Q 2597 3491 2834 3397 
z
" transform="scale(0.015625)"/>
       <path id="DejaVuSans-5d" d="M 1947 4863 
L 1947 -844 
L 622 -844 
L 622 -397 
L 1369 -397 
L 1369 4416 
L 622 4416 
L 622 4863 
L 1947 4863 
z
" transform="scale(0.015625)"/>
      </defs>
      <use xlink:href="#DejaVuSans-Oblique-3c4" transform="translate(0 0.015625)"/>
      <use xlink:href="#DejaVuSans-6c" transform="translate(60.205078 -16.390625) scale(0.7)"/>
      <use xlink:href="#DejaVuSans-61" transform="translate(79.65332 -16.390625) scale(0.7)"/>
      <use xlink:href="#DejaVuSans-67" transform="translate(122.548828 -16.390625) scale(0.7)"/>
      <use xlink:href="#DejaVuSans-20" transform="translate(169.716797 0.015625)"/>
      <use xlink:href="#DejaVuSans-5b" transform="translate(201.503906 0.015625)"/>
      <use xlink:href="#DejaVuSans-6e" transform="translate(240.517578 0.015625)"/>
      <use xlink:href="#DejaVuSans-73" transform="translate(303.896484 0.015625)"/>
      <use xlink:href="#DejaVuSans-5d" transform="translate(355.996094 0.015625)"/>
     </g>
    </g>
   </g>
   <g id="matplotlib.axis_2">
    <g id="ytick_1">
     <g id="line2d_11">
      <path d="M 33.6894 123.325772 
L 206.4894 123.325772 
" clip-path="url(#p0c6db11003)" style="fill: none; stroke-dasharray: 2.96,1.28; stroke-dashoffset: 0; stroke: #dddfe5; stroke-width: 0.8"/>
     </g>
     <g id="line2d_12">
      <defs>
       <path id="mee68a08038" d="M 0 0 
L -3.5 0 
" style="stroke: #000000; stroke-width: 0.8"/>
      </defs>
      <g>
       <use xlink:href="#mee68a08038" x="33.6894" y="123.325772" style="stroke: #000000; stroke-width: 0.8"/>
      </g>
     </g>
     <g id="text_7">
      <!-- $\mathdefault{0}$ -->
      <g transform="translate(21.3582 126.490521) scale(0.0833 -0.0833)">
       <use xlink:href="#DejaVuSans-30" transform="translate(0 0.78125)"/>
      </g>
     </g>
    </g>
    <g id="ytick_2">
     <g id="line2d_13">
      <path d="M 33.6894 101.198972 
L 206.4894 101.198972 
" clip-path="url(#p0c6db11003)" style="fill: none; stroke-dasharray: 2.96,1.28; stroke-dashoffset: 0; stroke: #dddfe5; stroke-width: 0.8"/>
     </g>
     <g id="line2d_14">
      <g>
       <use xlink:href="#mee68a08038" x="33.6894" y="101.198972" style="stroke: #000000; stroke-width: 0.8"/>
      </g>
     </g>
     <g id="text_8">
      <!-- $\mathdefault{2}$ -->
      <g transform="translate(21.3582 104.363721) scale(0.0833 -0.0833)">
       <use xlink:href="#DejaVuSans-32" transform="translate(0 0.78125)"/>
      </g>
     </g>
    </g>
    <g id="ytick_3">
     <g id="line2d_15">
      <path d="M 33.6894 79.072173 
L 206.4894 79.072173 
" clip-path="url(#p0c6db11003)" style="fill: none; stroke-dasharray: 2.96,1.28; stroke-dashoffset: 0; stroke: #dddfe5; stroke-width: 0.8"/>
     </g>
     <g id="line2d_16">
      <g>
       <use xlink:href="#mee68a08038" x="33.6894" y="79.072173" style="stroke: #000000; stroke-width: 0.8"/>
      </g>
     </g>
     <g id="text_9">
      <!-- $\mathdefault{4}$ -->
      <g transform="translate(21.3582 82.236922) scale(0.0833 -0.0833)">
       <use xlink:href="#DejaVuSans-34" transform="translate(0 0.09375)"/>
      </g>
     </g>
    </g>
    <g id="ytick_4">
     <g id="line2d_17">
      <path d="M 33.6894 56.945373 
L 206.4894 56.945373 
" clip-path="url(#p0c6db11003)" style="fill: none; stroke-dasharray: 2.96,1.28; stroke-dashoffset: 0; stroke: #dddfe5; stroke-width: 0.8"/>
     </g>
     <g id="line2d_18">
      <g>
       <use xlink:href="#mee68a08038" x="33.6894" y="56.945373" style="stroke: #000000; stroke-width: 0.8"/>
      </g>
     </g>
     <g id="text_10">
      <!-- $\mathdefault{6}$ -->
      <g transform="translate(21.3582 60.110122) scale(0.0833 -0.0833)">
       <defs>
        <path id="DejaVuSans-36" d="M 2113 2584 
Q 1688 2584 1439 2293 
Q 1191 2003 1191 1497 
Q 1191 994 1439 701 
Q 1688 409 2113 409 
Q 2538 409 2786 701 
Q 3034 994 3034 1497 
Q 3034 2003 2786 2293 
Q 2538 2584 2113 2584 
z
M 3366 4563 
L 3366 3988 
Q 3128 4100 2886 4159 
Q 2644 4219 2406 4219 
Q 1781 4219 1451 3797 
Q 1122 3375 1075 2522 
Q 1259 2794 1537 2939 
Q 1816 3084 2150 3084 
Q 2853 3084 3261 2657 
Q 3669 2231 3669 1497 
Q 3669 778 3244 343 
Q 2819 -91 2113 -91 
Q 1303 -91 875 529 
Q 447 1150 447 2328 
Q 447 3434 972 4092 
Q 1497 4750 2381 4750 
Q 2619 4750 2861 4703 
Q 3103 4656 3366 4563 
z
" transform="scale(0.015625)"/>
       </defs>
       <use xlink:href="#DejaVuSans-36" transform="translate(0 0.78125)"/>
      </g>
     </g>
    </g>
    <g id="ytick_5">
     <g id="line2d_19">
      <path d="M 33.6894 34.818573 
L 206.4894 34.818573 
" clip-path="url(#p0c6db11003)" style="fill: none; stroke-dasharray: 2.96,1.28; stroke-dashoffset: 0; stroke: #dddfe5; stroke-width: 0.8"/>
     </g>
     <g id="line2d_20">
      <g>
       <use xlink:href="#mee68a08038" x="33.6894" y="34.818573" style="stroke: #000000; stroke-width: 0.8"/>
      </g>
     </g>
     <g id="text_11">
      <!-- $\mathdefault{8}$ -->
      <g transform="translate(21.3582 37.983323) scale(0.0833 -0.0833)">
       <defs>
        <path id="DejaVuSans-38" d="M 2034 2216 
Q 1584 2216 1326 1975 
Q 1069 1734 1069 1313 
Q 1069 891 1326 650 
Q 1584 409 2034 409 
Q 2484 409 2743 651 
Q 3003 894 3003 1313 
Q 3003 1734 2745 1975 
Q 2488 2216 2034 2216 
z
M 1403 2484 
Q 997 2584 770 2862 
Q 544 3141 544 3541 
Q 544 4100 942 4425 
Q 1341 4750 2034 4750 
Q 2731 4750 3128 4425 
Q 3525 4100 3525 3541 
Q 3525 3141 3298 2862 
Q 3072 2584 2669 2484 
Q 3125 2378 3379 2068 
Q 3634 1759 3634 1313 
Q 3634 634 3220 271 
Q 2806 -91 2034 -91 
Q 1263 -91 848 271 
Q 434 634 434 1313 
Q 434 1759 690 2068 
Q 947 2378 1403 2484 
z
M 1172 3481 
Q 1172 3119 1398 2916 
Q 1625 2713 2034 2713 
Q 2441 2713 2670 2916 
Q 2900 3119 2900 3481 
Q 2900 3844 2670 4047 
Q 2441 4250 2034 4250 
Q 1625 4250 1398 4047 
Q 1172 3844 1172 3481 
z
" transform="scale(0.015625)"/>
       </defs>
       <use xlink:href="#DejaVuSans-38" transform="translate(0 0.78125)"/>
      </g>
     </g>
    </g>
    <g id="text_12">
     <!-- probability $P$ -->
     <g transform="translate(15.2582 101.327635) rotate(-90) scale(0.1 -0.1)">
      <defs>
       <path id="DejaVuSans-70" d="M 1159 525 
L 1159 -1331 
L 581 -1331 
L 581 3500 
L 1159 3500 
L 1159 2969 
Q 1341 3281 1617 3432 
Q 1894 3584 2278 3584 
Q 2916 3584 3314 3078 
Q 3713 2572 3713 1747 
Q 3713 922 3314 415 
Q 2916 -91 2278 -91 
Q 1894 -91 1617 61 
Q 1341 213 1159 525 
z
M 3116 1747 
Q 3116 2381 2855 2742 
Q 2594 3103 2138 3103 
Q 1681 3103 1420 2742 
Q 1159 2381 1159 1747 
Q 1159 1113 1420 752 
Q 1681 391 2138 391 
Q 2594 391 2855 752 
Q 3116 1113 3116 1747 
z
" transform="scale(0.015625)"/>
       <path id="DejaVuSans-72" d="M 2631 2963 
Q 2534 3019 2420 3045 
Q 2306 3072 2169 3072 
Q 1681 3072 1420 2755 
Q 1159 2438 1159 1844 
L 1159 0 
L 581 0 
L 581 3500 
L 1159 3500 
L 1159 2956 
Q 1341 3275 1631 3429 
Q 1922 3584 2338 3584 
Q 2397 3584 2469 3576 
Q 2541 3569 2628 3553 
L 2631 2963 
z
" transform="scale(0.015625)"/>
       <path id="DejaVuSans-6f" d="M 1959 3097 
Q 1497 3097 1228 2736 
Q 959 2375 959 1747 
Q 959 1119 1226 758 
Q 1494 397 1959 397 
Q 2419 397 2687 759 
Q 2956 1122 2956 1747 
Q 2956 2369 2687 2733 
Q 2419 3097 1959 3097 
z
M 1959 3584 
Q 2709 3584 3137 3096 
Q 3566 2609 3566 1747 
Q 3566 888 3137 398 
Q 2709 -91 1959 -91 
Q 1206 -91 779 398 
Q 353 888 353 1747 
Q 353 2609 779 3096 
Q 1206 3584 1959 3584 
z
" transform="scale(0.015625)"/>
       <path id="DejaVuSans-62" d="M 3116 1747 
Q 3116 2381 2855 2742 
Q 2594 3103 2138 3103 
Q 1681 3103 1420 2742 
Q 1159 2381 1159 1747 
Q 1159 1113 1420 752 
Q 1681 391 2138 391 
Q 2594 391 2855 752 
Q 3116 1113 3116 1747 
z
M 1159 2969 
Q 1341 3281 1617 3432 
Q 1894 3584 2278 3584 
Q 2916 3584 3314 3078 
Q 3713 2572 3713 1747 
Q 3713 922 3314 415 
Q 2916 -91 2278 -91 
Q 1894 -91 1617 61 
Q 1341 213 1159 525 
L 1159 0 
L 581 0 
L 581 4863 
L 1159 4863 
L 1159 2969 
z
" transform="scale(0.015625)"/>
       <path id="DejaVuSans-69" d="M 603 3500 
L 1178 3500 
L 1178 0 
L 603 0 
L 603 3500 
z
M 603 4863 
L 1178 4863 
L 1178 4134 
L 603 4134 
L 603 4863 
z
" transform="scale(0.015625)"/>
       <path id="DejaVuSans-74" d="M 1172 4494 
L 1172 3500 
L 2356 3500 
L 2356 3053 
L 1172 3053 
L 1172 1153 
Q 1172 725 1289 603 
Q 1406 481 1766 481 
L 2356 481 
L 2356 0 
L 1766 0 
Q 1100 0 847 248 
Q 594 497 594 1153 
L 594 3053 
L 172 3053 
L 172 3500 
L 594 3500 
L 594 4494 
L 1172 4494 
z
" transform="scale(0.015625)"/>
       <path id="DejaVuSans-79" d="M 2059 -325 
Q 1816 -950 1584 -1140 
Q 1353 -1331 966 -1331 
L 506 -1331 
L 506 -850 
L 844 -850 
Q 1081 -850 1212 -737 
Q 1344 -625 1503 -206 
L 1606 56 
L 191 3500 
L 800 3500 
L 1894 763 
L 2988 3500 
L 3597 3500 
L 2059 -325 
z
" transform="scale(0.015625)"/>
       <path id="DejaVuSans-Oblique-50" d="M 1081 4666 
L 2541 4666 
Q 3178 4666 3512 4369 
Q 3847 4072 3847 3500 
Q 3847 2731 3353 2303 
Q 2859 1875 1966 1875 
L 1172 1875 
L 806 0 
L 172 0 
L 1081 4666 
z
M 1613 4147 
L 1275 2394 
L 2069 2394 
Q 2606 2394 2893 2669 
Q 3181 2944 3181 3456 
Q 3181 3784 2986 3965 
Q 2791 4147 2438 4147 
L 1613 4147 
z
" transform="scale(0.015625)"/>
      </defs>
      <use xlink:href="#DejaVuSans-70" transform="translate(0 0.015625)"/>
      <use xlink:href="#DejaVuSans-72" transform="translate(63.476562 0.015625)"/>
      <use xlink:href="#DejaVuSans-6f" transform="translate(104.589844 0.015625)"/>
      <use xlink:href="#DejaVuSans-62" transform="translate(165.771484 0.015625)"/>
      <use xlink:href="#DejaVuSans-61" transform="translate(229.248047 0.015625)"/>
      <use xlink:href="#DejaVuSans-62" transform="translate(290.527344 0.015625)"/>
      <use xlink:href="#DejaVuSans-69" transform="translate(354.003906 0.015625)"/>
      <use xlink:href="#DejaVuSans-6c" transform="translate(381.787109 0.015625)"/>
      <use xlink:href="#DejaVuSans-69" transform="translate(409.570312 0.015625)"/>
      <use xlink:href="#DejaVuSans-74" transform="translate(437.353516 0.015625)"/>
      <use xlink:href="#DejaVuSans-79" transform="translate(476.5625 0.015625)"/>
      <use xlink:href="#DejaVuSans-20" transform="translate(535.742188 0.015625)"/>
      <use xlink:href="#DejaVuSans-Oblique-50" transform="translate(567.529297 0.015625)"/>
     </g>
    </g>
    <g id="text_13">
     <!-- $\times\mathdefault{10^{−5}}\mathdefault{}$ -->
     <g transform="translate(7.2 13.529498) scale(0.0833 -0.0833)">
      <defs>
       <path id="DejaVuSans-d7" d="M 4488 3438 
L 3059 2003 
L 4488 575 
L 4116 197 
L 2681 1631 
L 1247 197 
L 878 575 
L 2303 2003 
L 878 3438 
L 1247 3816 
L 2681 2381 
L 4116 3816 
L 4488 3438 
z
" transform="scale(0.015625)"/>
       <path id="DejaVuSans-2212" d="M 678 2272 
L 4684 2272 
L 4684 1741 
L 678 1741 
L 678 2272 
z
" transform="scale(0.015625)"/>
       <path id="DejaVuSans-35" d="M 691 4666 
L 3169 4666 
L 3169 4134 
L 1269 4134 
L 1269 2991 
Q 1406 3038 1543 3061 
Q 1681 3084 1819 3084 
Q 2600 3084 3056 2656 
Q 3513 2228 3513 1497 
Q 3513 744 3044 326 
Q 2575 -91 1722 -91 
Q 1428 -91 1123 -41 
Q 819 9 494 109 
L 494 744 
Q 775 591 1075 516 
Q 1375 441 1709 441 
Q 2250 441 2565 725 
Q 2881 1009 2881 1497 
Q 2881 1984 2565 2268 
Q 2250 2553 1709 2553 
Q 1456 2553 1204 2497 
Q 953 2441 691 2322 
L 691 4666 
z
" transform="scale(0.015625)"/>
      </defs>
      <use xlink:href="#DejaVuSans-d7" transform="translate(0 0.684375)"/>
      <use xlink:href="#DejaVuSans-31" transform="translate(83.789062 0.684375)"/>
      <use xlink:href="#DejaVuSans-30" transform="translate(147.412109 0.684375)"/>
      <use xlink:href="#DejaVuSans-2212" transform="translate(211.992188 38.965625) scale(0.7)"/>
      <use xlink:href="#DejaVuSans-35" transform="translate(270.644531 38.965625) scale(0.7)"/>
     </g>
    </g>
   </g>
   <g id="patch_3">
    <path d="M 41.543945 123.325772 
L 41.543945 100.383132 
L 42.976858 100.383132 
L 42.976858 77.440492 
L 44.409771 77.440492 
L 44.409771 77.440492 
L 45.842684 77.440492 
L 45.842684 31.555212 
L 47.275597 31.555212 
L 47.275597 100.383132 
L 48.70851 100.383132 
L 48.70851 31.555212 
L 50.141423 31.555212 
L 50.141423 100.383132 
L 51.574336 100.383132 
L 51.574336 100.383132 
L 53.007249 100.383132 
L 53.007249 123.325772 
L 54.440162 123.325772 
L 54.440162 100.383132 
L 55.873075 100.383132 
L 55.873075 54.497852 
L 57.305988 54.497852 
L 57.305988 123.325772 
L 58.738901 123.325772 
L 58.738901 100.383132 
L 60.171814 100.383132 
L 60.171814 100.383132 
L 61.604727 100.383132 
L 61.604727 77.440492 
L 63.03764 77.440492 
L 63.03764 123.325772 
L 64.470553 123.325772 
L 64.470553 123.325772 
L 65.903466 123.325772 
L 65.903466 123.325772 
L 67.336379 123.325772 
L 67.336379 123.325772 
L 68.769292 123.325772 
L 68.769292 100.383132 
L 70.202205 100.383132 
L 70.202205 123.325772 
L 71.635118 123.325772 
L 71.635118 123.325772 
L 73.068031 123.325772 
L 73.068031 123.325772 
L 74.500944 123.325772 
L 74.500944 100.383132 
L 75.933857 100.383132 
L 75.933857 123.325772 
L 77.36677 123.325772 
L 77.36677 123.325772 
L 78.799683 123.325772 
L 78.799683 123.325772 
L 80.232596 123.325772 
L 80.232596 123.325772 
L 81.665509 123.325772 
L 81.665509 123.325772 
L 83.098422 123.325772 
L 83.098422 123.325772 
L 84.531335 123.325772 
L 84.531335 123.325772 
L 85.964248 123.325772 
L 85.964248 123.325772 
L 87.397161 123.325772 
L 87.397161 100.383132 
L 88.830074 100.383132 
L 88.830074 123.325772 
L 90.262987 123.325772 
L 90.262987 123.325772 
L 91.6959 123.325772 
L 91.6959 123.325772 
L 93.128813 123.325772 
L 93.128813 123.325772 
L 94.561726 123.325772 
L 94.561726 123.325772 
L 95.994639 123.325772 
L 95.994639 123.325772 
L 97.427552 123.325772 
L 97.427552 123.325772 
L 98.860465 123.325772 
L 98.860465 123.325772 
L 100.293378 123.325772 
L 100.293378 123.325772 
L 101.726291 123.325772 
L 101.726291 123.325772 
L 103.159204 123.325772 
L 103.159204 123.325772 
L 104.592117 123.325772 
L 104.592117 123.325772 
L 106.02503 123.325772 
L 106.02503 123.325772 
L 107.457943 123.325772 
L 107.457943 123.325772 
L 108.890856 123.325772 
L 108.890856 123.325772 
L 110.323769 123.325772 
L 110.323769 123.325772 
L 111.756682 123.325772 
L 111.756682 123.325772 
" clip-path="url(#p0c6db11003)"/>
   </g>
   <g id="patch_4">
    <path d="M 41.543945 123.325772 
L 41.624176 123.325772 
L 41.784636 101.057741 
L 41.824751 101.057741 
L 41.985212 81.297371 
L 42.065442 81.397677 
L 42.225903 68.257533 
L 42.266018 68.257533 
L 42.386364 52.910646 
L 42.426479 57.825662 
L 42.466594 57.825662 
L 42.586939 48.29655 
L 42.627054 52.108195 
L 42.66717 52.108195 
L 42.82763 38.667131 
L 42.867745 38.667131 
L 42.988091 32.749051 
L 42.90786 40.974179 
L 43.028206 39.369276 
L 43.068321 39.369276 
L 43.068321 39.870808 
L 43.108436 32.046906 
L 43.228782 32.046906 
L 43.309012 31.946599 
L 43.309012 23.520858 
L 43.389242 34.153341 
L 43.469472 27.031583 
L 43.509588 27.031583 
L 43.509588 23.922084 
L 43.589818 30.542309 
L 43.670048 28.53618 
L 43.710163 28.53618 
L 43.710163 30.943535 
L 43.750278 23.420551 
L 43.870624 24.824842 
L 43.910739 24.824842 
L 43.910739 31.745986 
L 44.0712 25.025454 
L 44.111315 25.025454 
L 44.111315 32.849357 
L 44.271775 25.226067 
L 44.31189 25.226067 
L 44.432236 30.141083 
L 44.392121 21.615035 
L 44.472351 27.533116 
L 44.512466 27.533116 
L 44.512466 25.827906 
L 44.592696 29.840164 
L 44.672927 29.238325 
L 44.713042 29.238325 
L 44.713042 26.429745 
L 44.753157 34.053035 
L 44.873503 31.745986 
L 44.913618 31.745986 
L 44.953733 26.630358 
L 45.033963 32.648744 
L 45.074078 29.639551 
L 45.114193 29.639551 
L 45.274654 35.056099 
L 45.314769 35.056099 
L 45.314769 37.363147 
L 45.394999 30.642615 
L 45.47523 36.961922 
L 45.515345 36.961922 
L 45.55546 29.438938 
L 45.63569 37.964986 
L 45.675805 37.764373 
L 45.715921 37.764373 
L 45.836266 46.791953 
L 45.876381 34.153341 
L 45.916496 34.153341 
L 46.076957 46.791953 
L 46.117072 46.791953 
L 46.117072 38.667131 
L 46.277533 44.484905 
L 46.317648 44.484905 
L 46.317648 41.876937 
L 46.478108 45.788889 
L 46.518223 45.788889 
L 46.518223 44.685518 
L 46.678684 51.205437 
L 46.718799 51.205437 
L 46.758914 52.007888 
L 46.87926 46.89226 
L 46.919375 46.89226 
L 46.95949 46.691647 
L 47.079836 53.111259 
L 47.119951 53.111259 
L 47.119951 55.217695 
L 47.200181 51.807276 
L 47.280411 54.314937 
L 47.320526 54.314937 
L 47.360642 51.305743 
L 47.480987 59.530872 
L 47.521102 59.530872 
L 47.561217 54.51555 
L 47.681563 58.226888 
L 47.761793 58.226888 
L 47.801908 53.913711 
L 47.882138 61.737614 
L 47.922254 61.035469 
L 47.962369 61.035469 
L 47.962369 60.032404 
L 48.082714 62.439759 
L 48.122829 61.83792 
L 48.162944 61.83792 
L 48.323405 66.452017 
L 48.36352 66.452017 
L 48.36352 64.044662 
L 48.483866 68.05692 
L 48.523981 66.853242 
L 48.564096 66.853242 
L 48.724556 64.144968 
L 48.764672 64.144968 
L 48.844902 68.959678 
L 48.925132 63.24221 
L 48.965247 63.24221 
L 49.045478 72.370097 
L 49.125708 71.066113 
L 49.165823 71.066113 
L 49.165823 69.360904 
L 49.326284 75.579903 
L 49.366399 75.579903 
L 49.406514 70.363968 
L 49.526859 72.069178 
L 49.566975 72.069178 
L 49.727435 78.48879 
L 49.76755 78.48879 
L 49.807665 73.272855 
L 49.928011 76.582968 
L 49.968126 76.582968 
L 49.968126 79.491855 
L 50.128587 78.689403 
L 50.168702 78.689403 
L 50.168702 80.194 
L 50.329162 77.586032 
L 50.369277 77.586032 
L 50.489623 82.501048 
L 50.529738 81.798903 
L 50.569853 81.798903 
L 50.650083 80.194 
L 50.730314 81.297371 
L 50.770429 81.297371 
L 50.810544 78.890016 
L 50.930889 84.507177 
L 50.971005 84.507177 
L 50.971005 80.294306 
L 51.051235 86.814225 
L 51.131465 86.212387 
L 51.17158 86.212387 
L 51.291926 83.102887 
L 51.332041 89.121274 
L 51.372156 89.121274 
L 51.492501 90.324951 
L 51.412271 84.005645 
L 51.532617 89.321886 
L 51.572732 89.321886 
L 51.693077 83.805032 
L 51.652962 91.127402 
L 51.733192 88.920661 
L 51.773308 88.920661 
L 51.773308 92.33108 
L 51.893653 87.115145 
L 51.933768 88.118209 
L 51.973883 88.118209 
L 52.054114 92.832612 
L 52.134344 91.227709 
L 52.174459 91.227709 
L 52.174459 89.121274 
L 52.294804 94.337209 
L 52.33492 91.528628 
L 52.41515 91.628935 
L 52.535495 94.036289 
L 52.57561 93.534757 
L 52.615726 93.534757 
L 52.615726 91.227709 
L 52.695956 96.243031 
L 52.776186 94.337209 
L 52.816301 94.337209 
L 52.896532 96.243031 
L 52.856416 91.729241 
L 52.976762 94.939047 
L 53.016877 94.939047 
L 53.097107 99.95437 
L 53.177338 95.741499 
L 53.217453 95.741499 
L 53.217453 94.236902 
L 53.377913 97.647321 
L 53.498259 97.647321 
L 53.578489 100.756821 
L 53.538374 97.446709 
L 53.658719 98.650386 
L 53.698834 98.650386 
L 53.73895 96.744563 
L 53.81918 100.656515 
L 53.859295 96.945176 
L 53.89941 96.945176 
L 54.019756 101.960499 
L 54.059871 98.951305 
L 54.099986 98.951305 
L 54.099986 102.562337 
L 54.260447 100.455902 
L 54.300562 100.455902 
L 54.420907 102.161112 
L 54.380792 98.550079 
L 54.461022 99.151918 
L 54.501137 99.151918 
L 54.661598 103.264482 
L 54.701713 103.264482 
L 54.781943 103.465095 
L 54.862174 98.24916 
L 54.902289 98.24916 
L 54.942404 105.772144 
L 55.062749 104.46816 
L 55.102865 104.46816 
L 55.14298 103.264482 
L 55.263325 105.370918 
L 55.30344 105.370918 
L 55.30344 105.87245 
L 55.463901 103.06387 
L 55.504016 103.06387 
L 55.624361 106.474289 
L 55.664477 105.069998 
L 55.704592 105.069998 
L 55.784822 103.665708 
L 55.865052 106.975821 
L 55.905167 106.975821 
L 55.945283 107.778273 
L 56.065628 104.769079 
L 56.105743 104.769079 
L 56.105743 109.383176 
L 56.266204 107.27674 
L 56.306319 107.27674 
L 56.306319 104.668773 
L 56.386549 107.778273 
L 56.46678 105.270611 
L 56.506895 105.270611 
L 56.62724 108.98195 
L 56.667355 108.881643 
L 56.70747 108.881643 
L 56.787701 105.772144 
L 56.827816 109.483482 
L 56.867931 108.380111 
L 56.908046 108.380111 
L 56.908046 110.085321 
L 57.028392 107.076127 
L 57.068507 108.079192 
L 57.108622 108.079192 
L 57.108622 107.57766 
L 57.188852 110.285934 
L 57.269082 109.383176 
L 57.309198 109.383176 
L 57.389428 107.978885 
L 57.349313 112.592982 
L 57.469658 109.985014 
L 57.509773 109.985014 
L 57.630119 107.677966 
L 57.670234 110.687159 
L 57.710349 110.687159 
L 57.710349 107.377047 
L 57.750464 112.09145 
L 57.87081 111.389305 
L 57.991155 111.288998 
L 58.071385 112.793595 
L 58.151616 111.890837 
L 58.191731 111.890837 
L 58.231846 110.586853 
L 58.352191 112.492676 
L 58.392306 112.492676 
L 58.392306 110.285934 
L 58.512652 112.693288 
L 58.552767 110.38624 
L 58.592882 110.38624 
L 58.673113 113.696353 
L 58.753343 112.592982 
L 58.793458 112.592982 
L 58.793458 110.085321 
L 58.913803 114.097579 
L 58.953919 113.094514 
L 58.994034 113.094514 
L 58.994034 112.292063 
L 59.114379 113.997272 
L 59.154494 113.395434 
L 59.234725 113.49574 
L 59.234725 112.693288 
L 59.314955 113.896966 
L 59.395185 112.793595 
L 59.4353 112.793595 
L 59.555646 115.501869 
L 59.595761 112.292063 
L 59.635876 112.292063 
L 59.716106 116.204014 
L 59.796337 115.20095 
L 59.836452 115.20095 
L 59.836452 116.003401 
L 59.996912 114.097579 
L 60.037027 114.097579 
L 60.077143 112.492676 
L 60.197488 115.20095 
L 60.237603 115.20095 
L 60.277718 112.392369 
L 60.317833 115.301256 
L 60.398064 114.298192 
L 60.438179 114.298192 
L 60.558524 116.003401 
L 60.598639 114.599111 
L 60.638755 114.599111 
L 60.67887 115.602175 
L 60.799215 113.796659 
L 60.83933 113.796659 
L 60.999791 117.106772 
L 61.039906 117.106772 
L 61.120136 114.398498 
L 61.200367 115.602175 
L 61.240482 115.602175 
L 61.360827 117.207078 
L 61.400942 116.003401 
L 61.441058 116.003401 
L 61.521288 115.100643 
L 61.481173 116.906159 
L 61.601518 116.504933 
L 61.641633 116.504933 
L 61.681748 117.909224 
L 61.802094 116.103708 
L 61.842209 116.103708 
L 61.922439 115.100643 
L 62.00267 118.811982 
L 62.042785 118.811982 
L 62.042785 116.60524 
L 62.203245 117.507998 
L 62.24336 117.507998 
L 62.323591 116.204014 
L 62.363706 119.614433 
L 62.403821 117.808917 
L 62.443936 117.808917 
L 62.564282 116.805853 
L 62.604397 117.207078 
L 62.644512 117.207078 
L 62.764857 116.404627 
L 62.804972 118.410756 
L 62.845088 118.410756 
L 62.925318 117.407691 
L 63.005548 118.310449 
L 63.045663 118.310449 
L 63.125894 117.407691 
L 63.206124 117.808917 
L 63.246239 117.808917 
L 63.246239 118.310449 
L 63.4067 116.404627 
L 63.446815 116.404627 
L 63.56716 119.012595 
L 63.607275 118.00953 
L 63.647391 118.00953 
L 63.767736 118.611369 
L 63.807851 117.407691 
L 63.888081 117.507998 
L 63.968312 119.012595 
L 64.048542 117.608304 
L 64.088657 117.608304 
L 64.249118 119.313514 
L 64.329348 119.213207 
L 64.329348 119.71474 
L 64.369463 118.109836 
L 64.489809 119.313514 
L 64.529924 119.313514 
L 64.529924 119.915353 
L 64.570039 118.109836 
L 64.690384 119.41382 
L 64.730499 119.41382 
L 64.850845 120.316578 
L 64.89096 118.210143 
L 64.931075 118.210143 
L 65.011305 120.818111 
L 65.091536 119.012595 
L 65.131651 119.012595 
L 65.251996 120.316578 
L 65.171766 118.711675 
L 65.292111 119.012595 
L 65.332227 119.012595 
L 65.412457 120.617498 
L 65.452572 118.109836 
L 65.492687 119.012595 
L 65.532802 119.012595 
L 65.613033 118.811982 
L 65.693263 120.717804 
L 65.733378 120.717804 
L 65.733378 119.41382 
L 65.893839 120.015659 
L 65.933954 120.015659 
L 65.933954 119.012595 
L 66.014184 121.219336 
L 66.094414 119.815046 
L 66.13453 119.815046 
L 66.254875 120.316578 
L 66.29499 119.112901 
L 66.335105 119.112901 
L 66.455451 120.416885 
L 66.495566 120.216272 
L 66.535681 120.216272 
L 66.535681 120.015659 
L 66.696142 120.918417 
L 66.736257 120.918417 
L 66.736257 120.015659 
L 66.776372 121.419949 
L 66.896717 120.818111 
L 66.936832 120.818111 
L 66.976948 120.115965 
L 67.097293 120.717804 
L 67.137408 120.717804 
L 67.137408 121.319643 
L 67.217638 120.216272 
L 67.297869 121.11903 
L 67.337984 121.11903 
L 67.337984 120.216272 
L 67.418214 121.419949 
L 67.498444 120.918417 
L 67.53856 120.918417 
L 67.53856 121.319643 
L 67.69902 120.216272 
L 67.739135 120.216272 
L 67.819366 119.815046 
L 67.899596 122.222401 
L 67.939711 122.222401 
L 68.019941 120.617498 
L 68.100172 120.918417 
L 68.220517 121.018723 
L 68.260632 121.720869 
L 68.380978 120.416885 
L 68.421093 120.416885 
L 68.501323 121.520256 
L 68.581553 121.11903 
L 68.621669 121.11903 
L 68.661784 120.115965 
L 68.782129 122.222401 
L 68.822244 122.222401 
L 68.902475 120.617498 
L 68.982705 121.620562 
L 69.062935 121.620562 
L 69.062935 120.818111 
L 69.143165 121.720869 
L 69.223396 121.419949 
L 69.263511 121.419949 
L 69.263511 121.219336 
L 69.303626 122.122094 
L 69.423971 121.520256 
L 69.504202 121.620562 
L 69.504202 120.617498 
L 69.584432 121.821175 
L 69.664662 121.319643 
L 69.744893 121.319643 
L 69.825123 122.222401 
L 69.865238 121.018723 
L 69.905353 121.018723 
L 69.945468 121.018723 
L 70.025699 122.423014 
L 70.105929 121.319643 
L 70.186159 121.419949 
L 70.186159 121.720869 
L 70.306505 120.918417 
L 70.34662 121.219336 
L 70.386735 121.219336 
L 70.42685 122.322707 
L 70.547196 121.11903 
L 70.587311 121.11903 
L 70.587311 122.021788 
L 70.747771 121.821175 
L 70.828002 121.821175 
L 70.908232 120.818111 
L 70.868117 121.921481 
L 70.988462 121.921481 
L 71.028577 121.921481 
L 71.108808 120.918417 
L 71.068692 122.222401 
L 71.189038 121.720869 
L 71.269268 121.821175 
L 71.309383 122.52332 
L 71.349498 121.11903 
L 71.429729 121.921481 
L 71.509959 122.021788 
L 71.509959 121.620562 
L 71.590189 122.423014 
L 71.67042 122.122094 
L 71.710535 122.122094 
L 71.710535 121.821175 
L 71.75065 122.222401 
L 71.870995 122.222401 
L 71.91111 122.222401 
L 71.991341 121.319643 
L 72.071571 122.623627 
L 72.111686 122.623627 
L 72.111686 121.520256 
L 72.272147 122.52332 
L 72.312262 122.52332 
L 72.312262 121.921481 
L 72.392492 122.623627 
L 72.472722 122.423014 
L 72.552953 122.423014 
L 72.552953 121.921481 
L 72.713413 122.122094 
L 72.793644 122.122094 
L 72.873874 122.924546 
L 72.954104 122.122094 
L 72.994219 122.122094 
L 73.114565 122.723933 
L 73.034335 121.620562 
L 73.15468 122.021788 
L 73.194795 122.021788 
L 73.315141 122.723933 
L 73.355256 122.021788 
L 73.395371 122.021788 
L 73.475601 122.723933 
L 73.555831 122.423014 
L 73.595947 122.423014 
L 73.716292 122.021788 
L 73.756407 122.423014 
L 73.836637 122.52332 
L 73.836637 122.021788 
L 73.997098 122.623627 
L 74.077328 122.623627 
L 74.077328 122.122094 
L 74.117443 122.723933 
L 74.237789 122.623627 
L 74.277904 122.623627 
L 74.277904 122.222401 
L 74.318019 122.924546 
L 74.438365 122.423014 
L 74.55871 122.423014 
L 74.679055 123.125159 
L 74.63894 122.322707 
L 74.719171 122.52332 
L 74.799401 122.623627 
L 74.799401 122.322707 
L 74.879631 122.924546 
L 74.959862 122.623627 
L 74.999977 122.623627 
L 75.040092 122.222401 
L 75.120322 123.225465 
L 75.160437 122.423014 
L 75.200552 122.423014 
L 75.200552 122.924546 
L 75.280783 122.322707 
L 75.361013 122.924546 
L 75.481358 122.924546 
L 75.521474 122.322707 
L 75.641819 122.824239 
L 75.681934 122.824239 
L 75.762164 122.52332 
L 75.842395 123.325772 
L 75.88251 123.325772 
L 75.88251 122.423014 
L 76.04297 122.924546 
L 76.083086 122.924546 
L 76.083086 122.52332 
L 76.163316 123.024852 
L 76.243546 122.723933 
L 76.323776 122.723933 
L 76.323776 122.423014 
L 76.444122 123.125159 
L 76.484237 122.824239 
L 76.564467 122.924546 
L 76.684813 123.125159 
L 76.724928 122.52332 
L 76.765043 122.52332 
L 76.805158 123.125159 
L 76.925504 122.623627 
L 76.965619 122.623627 
L 76.965619 123.024852 
L 77.005734 122.322707 
L 77.126079 122.52332 
L 77.28654 122.623627 
L 77.447001 123.225465 
L 77.487116 123.225465 
L 77.527231 122.423014 
L 77.647576 122.723933 
L 77.687691 122.723933 
L 77.727807 123.125159 
L 77.848152 122.222401 
L 77.888267 122.222401 
L 77.888267 123.125159 
L 78.048728 123.125159 
L 78.088843 123.125159 
L 78.088843 122.723933 
L 78.249303 122.723933 
L 78.289419 122.723933 
L 78.449879 123.125159 
L 78.489994 123.125159 
L 78.489994 122.52332 
L 78.650455 122.924546 
L 78.69057 122.924546 
L 78.69057 122.423014 
L 78.7708 123.125159 
L 78.851031 122.723933 
L 78.891146 122.723933 
L 78.931261 123.125159 
L 79.051606 123.024852 
L 79.131837 122.924546 
L 79.171952 122.623627 
L 79.252182 123.125159 
L 79.292297 122.723933 
L 79.372527 122.723933 
L 79.452758 123.024852 
L 79.532988 122.924546 
L 79.653334 122.924546 
L 79.653334 123.125159 
L 79.813794 123.024852 
L 79.894024 122.924546 
L 79.894024 123.225465 
L 79.974255 122.723933 
L 80.054485 123.225465 
L 80.214946 123.225465 
L 80.335291 122.723933 
L 80.375406 123.125159 
L 80.455636 123.225465 
L 80.455636 122.723933 
L 80.616097 123.024852 
L 81.097479 122.924546 
L 81.097479 122.723933 
L 81.257939 123.125159 
L 81.4184 123.125159 
L 81.4184 122.924546 
L 81.538745 123.225465 
L 81.57886 122.924546 
L 81.618976 122.924546 
L 81.618976 123.325772 
L 81.699206 122.723933 
L 81.779436 123.125159 
L 81.859667 123.125159 
L 81.859667 123.325772 
L 82.020127 123.125159 
L 82.140473 123.125159 
L 82.140473 123.325772 
L 82.180588 122.924546 
L 82.300933 123.125159 
L 82.341048 123.125159 
L 82.341048 123.325772 
L 82.421279 123.024852 
L 82.501509 123.024852 
L 82.621854 123.125159 
L 82.621854 123.325772 
L 82.782315 122.924546 
L 82.82243 122.924546 
L 82.82243 123.225465 
L 82.982891 123.225465 
L 83.103236 123.125159 
L 83.103236 123.024852 
L 83.183466 123.225465 
L 83.263697 123.024852 
L 83.384042 123.024852 
L 83.384042 123.325772 
L 83.464272 122.924546 
L 83.544503 123.225465 
L 83.785193 123.125159 
L 83.785193 123.024852 
L 83.825309 123.325772 
L 83.945654 123.325772 
L 83.985769 123.325772 
L 84.025884 122.723933 
L 84.14623 123.225465 
L 84.507266 123.325772 
L 84.507266 123.024852 
L 84.667727 123.225465 
L 84.788072 123.225465 
L 84.788072 123.024852 
L 84.948533 123.225465 
L 85.068878 123.125159 
L 85.068878 122.924546 
L 85.108993 123.325772 
L 85.229339 123.325772 
L 85.269454 123.325772 
L 85.269454 122.924546 
L 85.429914 123.225465 
L 85.831066 123.125159 
L 85.831066 123.024852 
L 85.911296 123.225465 
L 85.991526 123.225465 
L 86.031642 123.225465 
L 86.071757 123.325772 
L 86.192102 122.824239 
L 86.232217 122.824239 
L 86.232217 123.325772 
L 86.392678 123.325772 
L 86.513023 123.225465 
L 86.513023 123.024852 
L 86.553139 123.325772 
L 86.673484 123.325772 
L 86.753714 123.225465 
L 86.753714 123.125159 
L 86.914175 123.325772 
L 87.235096 123.325772 
L 87.315326 123.024852 
L 87.395557 123.125159 
L 87.515902 123.125159 
L 87.515902 123.325772 
L 87.676363 123.024852 
L 87.716478 123.024852 
L 87.716478 123.225465 
L 87.876938 123.125159 
L 87.917053 123.125159 
L 87.917053 123.325772 
L 87.957169 123.024852 
L 88.077514 123.125159 
L 88.117629 123.125159 
L 88.117629 123.325772 
L 88.27809 123.225465 
L 88.879817 123.325772 
L 88.879817 123.024852 
L 89.040278 123.225465 
L 89.361199 123.225465 
L 89.361199 123.024852 
L 89.441429 123.325772 
L 89.521659 123.325772 
L 90.404192 123.325772 
L 90.404192 123.125159 
L 90.564653 123.225465 
L 122.696884 123.225465 
L 122.696884 123.325772 
" clip-path="url(#p0c6db11003)" style="fill: none; stroke: #264653; stroke-linejoin: miter"/>
   </g>
   <g id="patch_5">
    <path d="M 41.543945 123.325772 
L 41.624176 123.325772 
L 41.784636 112.047538 
L 41.864867 112.047538 
L 42.025327 97.321386 
L 42.105557 97.321386 
L 42.266018 81.918541 
L 42.346248 81.918541 
L 42.506709 70.736978 
L 42.586939 70.736978 
L 42.7474 63.712249 
L 42.82763 63.712249 
L 42.82763 64.324496 
L 42.988091 58.524261 
L 43.068321 58.524261 
L 43.228782 49.952803 
L 43.309012 49.952803 
L 43.309012 47.310474 
L 43.469472 50.887286 
L 43.549703 50.887286 
L 43.710163 43.927004 
L 43.790394 43.927004 
L 43.870624 45.215945 
L 43.950854 41.220228 
L 44.031084 41.220228 
L 44.031084 43.153639 
L 44.191545 42.412498 
L 44.352006 42.509169 
L 44.352006 39.834616 
L 44.432236 44.764816 
L 44.512466 44.44258 
L 44.592696 44.44258 
L 44.753157 38.964581 
L 44.833387 38.964581 
L 44.913618 43.024745 
L 44.993848 40.96244 
L 45.074078 40.96244 
L 45.154309 41.671357 
L 45.234539 41.671357 
L 45.314769 41.671357 
L 45.394999 43.25031 
L 45.47523 41.768028 
L 45.55546 41.768028 
L 45.63569 48.534968 
L 45.715921 44.99038 
L 45.796151 44.99038 
L 45.956611 48.148286 
L 46.036842 48.148286 
L 46.036842 47.793827 
L 46.117072 50.951733 
L 46.197302 48.857204 
L 46.277533 48.857204 
L 46.357763 47.246027 
L 46.437993 51.306191 
L 46.518223 51.306191 
L 46.518223 47.503815 
L 46.678684 51.531756 
L 46.758914 51.531756 
L 46.758914 53.980744 
L 46.839145 50.210592 
L 46.919375 52.176227 
L 47.079836 52.015109 
L 47.160066 55.140791 
L 47.240296 53.658509 
L 47.320526 53.658509 
L 47.480987 56.880861 
L 47.561217 56.880861 
L 47.641448 60.715461 
L 47.721678 58.33092 
L 47.801908 58.33092 
L 47.801908 61.61772 
L 47.962369 56.945309 
L 48.042599 56.945309 
L 48.20306 64.904519 
L 48.28329 64.904519 
L 48.36352 65.677884 
L 48.44375 64.098931 
L 48.523981 64.098931 
L 48.523981 63.615578 
L 48.684441 66.354578 
L 48.764672 66.354578 
L 48.764672 61.327708 
L 48.844902 67.611296 
L 48.925132 66.580143 
L 49.005362 66.580143 
L 49.005362 68.706895 
L 49.165823 67.707966 
L 49.246053 67.707966 
L 49.406514 71.478119 
L 49.486744 71.478119 
L 49.566975 72.638166 
L 49.647205 70.382519 
L 49.727435 70.382519 
L 49.807665 73.508201 
L 49.887896 72.477048 
L 49.968126 72.477048 
L 49.968126 77.439471 
L 50.128587 76.795 
L 50.208817 76.795 
L 50.208817 78.857306 
L 50.289047 75.05493 
L 50.369277 77.665036 
L 50.449508 77.665036 
L 50.449508 76.666106 
L 50.609968 81.274071 
L 50.690199 81.274071 
L 50.770429 76.988342 
L 50.850659 79.308435 
L 50.930889 79.308435 
L 51.09135 83.110811 
L 51.17158 83.110811 
L 51.17158 81.145176 
L 51.251811 84.754211 
L 51.332041 84.4642 
L 51.412271 84.4642 
L 51.412271 83.594164 
L 51.572732 85.366458 
L 51.652962 85.366458 
L 51.652962 86.010929 
L 51.733192 83.336376 
L 51.813423 85.688694 
L 51.893653 85.688694 
L 52.054114 87.009858 
L 52.134344 87.009858 
L 52.134344 86.107599 
L 52.294804 86.590952 
L 52.375035 86.590952 
L 52.535495 89.684411 
L 52.615726 89.684411 
L 52.776186 88.749928 
L 52.856416 88.749928 
L 52.936647 94.06681 
L 53.016877 91.102246 
L 53.177338 91.102246 
L 53.337798 93.228999 
L 53.418028 93.228999 
L 53.418028 93.003434 
L 53.498259 93.390116 
L 53.578489 93.196775 
L 53.658719 93.196775 
L 53.73895 96.354681 
L 53.81918 94.807951 
L 53.89941 94.807951 
L 53.979641 94.389046 
L 54.059871 95.967998 
L 54.140101 95.967998 
L 54.140101 95.742434 
L 54.220331 97.063598 
L 54.300562 96.934704 
L 54.380792 96.934704 
L 54.380792 97.933633 
L 54.541253 96.838033 
L 54.621483 96.838033 
L 54.621483 96.515798 
L 54.781943 98.835892 
L 54.862174 98.835892 
L 54.862174 97.836963 
L 55.022634 99.029233 
L 55.102865 99.029233 
L 55.102865 100.575962 
L 55.183095 97.611398 
L 55.263325 99.383692 
L 55.343555 99.383692 
L 55.423786 102.992727 
L 55.504016 101.059315 
L 55.584246 101.059315 
L 55.584246 101.317104 
L 55.664477 100.575962 
L 55.744707 101.091539 
L 55.824937 101.091539 
L 55.905167 100.575962 
L 55.985398 102.606045 
L 56.065628 102.606045 
L 56.065628 103.798315 
L 56.226089 101.574892 
L 56.306319 101.574892 
L 56.386549 104.66835 
L 56.46678 102.831609 
L 56.62724 102.702715 
L 56.70747 104.990586 
L 56.787701 103.894986 
L 56.867931 103.894986 
L 56.948161 105.312821 
L 57.028392 104.636127 
L 57.108622 104.636127 
L 57.108622 106.472868 
L 57.269082 105.699503 
L 57.349313 105.699503 
L 57.509773 106.601762 
L 57.590004 106.601762 
L 57.590004 105.731727 
L 57.670234 106.795103 
L 57.750464 106.795103 
L 57.991155 106.601762 
L 57.991155 105.892844 
L 58.071385 107.761809 
L 58.151616 107.600691 
L 58.231846 107.600691 
L 58.312076 109.437432 
L 58.392306 107.278456 
L 58.472537 107.278456 
L 58.552767 108.921856 
L 58.632997 107.504021 
L 58.713228 107.504021 
L 58.713228 110.178573 
L 58.873688 108.857409 
L 58.953919 108.857409 
L 58.953919 108.277385 
L 59.034149 110.14635 
L 59.114379 108.857409 
L 59.194609 108.857409 
L 59.35507 109.920785 
L 59.4353 109.920785 
L 59.595761 112.240879 
L 59.675991 112.240879 
L 59.836452 109.920785 
L 59.916682 109.920785 
L 60.077143 112.015314 
L 60.157373 112.015314 
L 60.237603 113.239808 
L 60.317833 111.33862 
L 60.478294 111.403067 
L 60.638755 112.788679 
L 60.718985 112.788679 
L 60.718985 112.176432 
L 60.879446 112.885349 
L 61.039906 112.820902 
L 61.039906 112.176432 
L 61.120136 113.046467 
L 61.200367 112.692008 
L 61.360827 112.820902 
L 61.521288 113.948726 
L 61.681748 114.013173 
L 61.681748 113.336479 
L 61.842209 114.109843 
L 61.922439 114.109843 
L 61.922439 113.562043 
L 62.0829 114.238737 
L 62.24336 114.303184 
L 62.323591 114.689867 
L 62.403821 114.593196 
L 62.564282 114.689867 
L 62.564282 115.656573 
L 62.644512 114.464302 
L 62.724742 115.237667 
L 62.885203 115.237667 
L 62.885203 114.915431 
L 63.045663 115.81769 
L 63.286354 115.785467 
L 63.446815 114.528749 
L 63.527045 114.528749 
L 63.687506 116.752172 
L 63.847966 116.591055 
L 63.847966 115.882137 
L 64.008427 116.558831 
L 64.088657 116.558831 
L 64.168887 117.557761 
L 64.249118 117.332196 
L 64.329348 117.332196 
L 64.409578 116.236596 
L 64.489809 116.784396 
L 64.570039 116.784396 
L 64.570039 117.396643 
L 64.650269 116.494384 
L 64.730499 116.977737 
L 64.81073 116.977737 
L 64.81073 116.752172 
L 64.89096 118.363349 
L 64.97119 117.557761 
L 65.051421 117.557761 
L 65.051421 117.171078 
L 65.131651 117.783325 
L 65.211881 117.525537 
L 65.292111 117.525537 
L 65.292111 118.105561 
L 65.452572 117.106631 
L 65.532802 117.106631 
L 65.613033 117.944443 
L 65.693263 117.783325 
L 65.773493 117.783325 
L 65.773493 118.65336 
L 65.933954 117.976666 
L 66.014184 117.976666 
L 66.014184 117.751102 
L 66.174645 118.298902 
L 66.254875 118.298902 
L 66.254875 118.846702 
L 66.415336 117.912219 
L 66.495566 117.912219 
L 66.575796 119.136713 
L 66.656026 118.588913 
L 66.816487 118.588913 
L 66.816487 117.976666 
L 66.976948 118.427796 
L 67.057178 118.427796 
L 67.137408 118.266678 
L 67.217638 119.587843 
L 67.297869 119.587843 
L 67.297869 119.136713 
L 67.458329 119.65229 
L 67.53856 119.65229 
L 67.69902 118.685584 
L 67.77925 118.685584 
L 67.939711 120.20009 
L 68.019941 120.20009 
L 68.019941 119.040043 
L 68.180402 119.555619 
L 68.260632 119.555619 
L 68.260632 119.136713 
L 68.421093 119.942301 
L 68.501323 119.942301 
L 68.581553 120.038972 
L 68.661784 119.620066 
L 68.902475 119.620066 
L 68.902475 120.006749 
L 69.062935 119.587843 
L 69.223396 119.491172 
L 69.303626 120.586772 
L 69.383856 119.65229 
L 69.464087 119.65229 
L 69.464087 120.554548 
L 69.624547 120.232313 
L 69.785008 120.20009 
L 69.865238 119.942301 
L 69.945468 120.393431 
L 70.105929 120.20009 
L 70.105929 120.941231 
L 70.26639 120.490101 
L 70.34662 120.490101 
L 70.34662 120.038972 
L 70.50708 120.618996 
L 70.667541 120.651219 
L 70.667541 120.941231 
L 70.828002 120.683443 
L 70.988462 120.554548 
L 70.988462 120.457878 
L 71.148923 121.102348 
L 71.229153 121.102348 
L 71.229153 120.84456 
L 71.389614 120.973454 
L 71.870995 121.134572 
L 71.870995 121.39236 
L 71.951226 121.102348 
L 72.031456 121.166795 
L 72.352377 121.166795 
L 72.352377 120.490101 
L 72.432607 121.489031 
L 72.512838 121.39236 
L 72.593068 121.39236 
L 72.753529 121.037901 
L 72.833759 121.037901 
L 72.913989 121.617925 
L 72.994219 121.005678 
L 73.07445 121.005678 
L 73.23491 121.650148 
L 73.315141 121.650148 
L 73.315141 121.327913 
L 73.475601 121.714595 
L 73.796522 121.650148 
L 73.796522 120.812337 
L 73.876753 122.036831 
L 73.956983 121.521254 
L 74.037213 121.521254 
L 74.117443 121.84349 
L 74.197674 121.327913 
L 74.277904 121.327913 
L 74.358134 121.779042 
L 74.438365 121.456807 
L 74.598825 121.650148 
L 74.679055 121.907937 
L 74.759286 121.714595 
L 74.839516 121.714595 
L 74.839516 122.069054 
L 74.999977 121.650148 
L 75.240668 121.714595 
L 75.401128 122.262395 
L 75.481358 122.262395 
L 75.481358 121.811266 
L 75.641819 122.004607 
L 76.123201 122.197948 
L 76.123201 122.359066 
L 76.203431 122.036831 
L 76.283661 122.359066 
L 76.684813 122.359066 
L 76.845273 121.972384 
L 76.925504 121.972384 
L 76.925504 122.294619 
L 77.085964 122.294619 
L 77.487116 122.230172 
L 77.487116 122.069054 
L 77.647576 122.520184 
L 78.128958 122.616854 
L 78.128958 122.165725 
L 78.289419 122.326842 
L 78.449879 122.262395 
L 78.449879 122.584631 
L 78.61034 122.326842 
L 78.69057 122.326842 
L 78.69057 122.552407 
L 78.851031 122.552407 
L 79.171952 122.552407 
L 79.171952 122.262395 
L 79.252182 122.713525 
L 79.332412 122.294619 
L 79.492873 122.423513 
L 79.573103 122.649078 
L 79.653334 122.359066 
L 79.733564 122.359066 
L 79.733564 122.616854 
L 79.894024 122.616854 
L 79.974255 122.616854 
L 79.974255 122.874642 
L 80.134715 122.649078 
L 80.776558 122.713525 
L 80.776558 122.423513 
L 80.937018 122.681301 
L 81.097479 122.649078 
L 81.097479 122.939089 
L 81.177709 122.584631 
L 81.257939 122.874642 
L 81.57886 122.745748 
L 81.57886 122.649078 
L 81.659091 123.067983 
L 81.739321 122.713525 
L 82.381163 122.810195 
L 82.381163 123.003536 
L 82.541624 122.552407 
L 82.702085 122.552407 
L 82.862545 122.971313 
L 83.023006 122.810195 
L 83.023006 122.681301 
L 83.103236 122.939089 
L 83.183466 122.939089 
L 83.825309 123.03576 
L 83.825309 122.681301 
L 83.985769 122.874642 
L 84.065999 122.874642 
L 84.065999 122.649078 
L 84.14623 123.03576 
L 84.22646 122.971313 
L 85.189224 122.906866 
L 85.189224 122.745748 
L 85.269454 123.132431 
L 85.349684 123.003536 
L 86.713599 122.939089 
L 86.713599 123.229101 
L 86.87406 123.132431 
L 143.837566 123.293548 
L 143.837566 123.325772 
" clip-path="url(#p0c6db11003)" style="fill: none; stroke: #2a9d8f; stroke-linejoin: miter"/>
   </g>
   <g id="patch_6">
    <path d="M 41.543945 123.325772 
L 41.704406 123.325772 
L 41.864867 115.361161 
L 42.025327 115.361161 
L 42.185788 100.649051 
L 42.346248 100.649051 
L 42.506709 88.680782 
L 42.66717 88.680782 
L 42.82763 80.951052 
L 42.988091 80.951052 
L 43.148551 72.185709 
L 43.309012 72.185709 
L 43.469472 68.021905 
L 43.629933 68.021905 
L 43.790394 64.00757 
L 43.950854 64.00757 
L 44.111315 60.484351 
L 44.271775 60.484351 
L 44.432236 57.868627 
L 44.592696 57.868627 
L 44.592696 55.882813 
L 44.753157 56.566104 
L 44.913618 56.566104 
L 45.074078 55.936195 
L 45.234539 55.936195 
L 45.394999 54.09985 
L 45.715921 54.195938 
L 45.876381 57.099925 
L 46.036842 57.099925 
L 46.036842 55.71199 
L 46.197302 57.238718 
L 46.357763 57.238718 
L 46.357763 56.811661 
L 46.518223 59.192504 
L 46.678684 59.192504 
L 46.678684 58.914917 
L 46.839145 59.096416 
L 46.999605 59.096416 
L 46.999605 60.911408 
L 47.160066 60.900731 
L 47.320526 60.900731 
L 47.320526 60.495027 
L 47.480987 61.648081 
L 47.641448 61.648081 
L 47.641448 63.44172 
L 47.801908 63.44172 
L 47.962369 63.44172 
L 47.962369 65.331446 
L 48.122829 63.55916 
L 48.28329 63.55916 
L 48.44375 66.623293 
L 48.604211 66.623293 
L 48.604211 68.192728 
L 48.764672 67.840406 
L 48.925132 67.840406 
L 49.085593 70.328012 
L 49.406514 70.263953 
L 49.566975 71.694594 
L 49.727435 71.694594 
L 49.887896 75.303225 
L 50.048356 75.303225 
L 50.048356 74.748051 
L 50.208817 75.281872 
L 50.369277 75.281872 
L 50.529738 77.043481 
L 50.690199 77.043481 
L 50.690199 77.545273 
L 50.850659 77.321068 
L 51.01112 77.321068 
L 51.17158 81.506226 
L 51.492501 81.335403 
L 51.492501 81.153904 
L 51.652962 82.093429 
L 51.813423 82.093429 
L 51.973883 84.153979 
L 52.134344 84.153979 
L 52.134344 83.887068 
L 52.294804 86.748349 
L 52.455265 86.748349 
L 52.615726 85.862206 
L 52.615726 86.759026 
L 52.776186 86.759026 
L 52.936647 88.808899 
L 53.257568 88.734164 
L 53.418028 89.502866 
L 53.578489 89.502866 
L 53.73895 91.734238 
L 54.059871 91.616798 
L 54.220331 93.773435 
L 54.380792 93.773435 
L 54.380792 93.39976 
L 54.541253 93.559907 
L 54.701713 93.559907 
L 54.862174 95.567074 
L 55.022634 95.567074 
L 55.022634 94.574167 
L 55.183095 95.140017 
L 55.343555 95.140017 
L 55.504016 97.125832 
L 55.664477 97.125832 
L 55.824937 98.140092 
L 55.985398 98.140092 
L 55.985398 98.577825 
L 56.145858 98.385649 
L 56.306319 98.385649 
L 56.46678 99.421262 
L 56.62724 99.421262 
L 56.787701 101.172196 
L 56.948161 101.172196 
L 56.948161 100.56364 
L 57.108622 100.915962 
L 57.269082 100.915962 
L 57.429543 102.29322 
L 57.590004 102.29322 
L 57.590004 102.666895 
L 57.750464 102.485396 
L 57.910925 102.485396 
L 58.071385 103.980095 
L 58.231846 103.980095 
L 58.392306 104.503239 
L 58.552767 104.503239 
L 58.552767 105.026384 
L 58.713228 104.279035 
L 58.873688 104.279035 
L 59.034149 106.222143 
L 59.194609 106.222143 
L 59.194609 106.467701 
L 59.35507 106.029968 
L 59.515531 106.029968 
L 59.675991 107.012199 
L 59.836452 107.012199 
L 59.996912 107.834283 
L 60.157373 107.834283 
L 60.157373 108.229311 
L 60.317833 108.175929 
L 60.478294 108.175929 
L 60.478294 108.496221 
L 60.638755 108.304046 
L 60.799215 108.304046 
L 60.959676 109.499805 
L 61.120136 109.499805 
L 61.280597 109.884156 
L 61.441058 109.884156 
L 61.441058 110.5888 
L 61.601518 109.969568 
L 61.761979 109.969568 
L 61.922439 111.208033 
L 62.0829 111.208033 
L 62.0829 110.652859 
L 62.24336 111.346826 
L 62.724742 111.464267 
L 62.885203 112.179587 
L 63.045663 112.179587 
L 63.206124 112.884231 
L 63.687506 112.926936 
L 63.687506 112.264998 
L 63.847966 113.033701 
L 64.008427 113.033701 
L 64.008427 113.802403 
L 64.168887 113.247229 
L 64.329348 113.247229 
L 64.489809 114.368253 
L 64.97119 114.176078 
L 64.97119 114.773958 
L 65.131651 114.250813 
L 65.292111 114.250813 
L 65.292111 114.902075 
L 65.452572 114.699223 
L 65.613033 114.699223 
L 65.613033 115.499954 
L 65.773493 114.97681 
L 65.933954 114.97681 
L 66.094414 115.724159 
L 66.736257 115.873629 
L 66.896717 116.268657 
L 67.057178 116.268657 
L 67.057178 116.663684 
L 67.217638 116.514214 
L 67.69902 116.322039 
L 67.859481 117.250887 
L 68.019941 117.250887 
L 68.019941 117.016006 
L 68.180402 117.186829 
L 68.822244 117.314946 
L 68.982705 117.912826 
L 69.143165 117.912826 
L 69.143165 117.603209 
L 69.303626 117.848767 
L 69.464087 117.848767 
L 69.624547 118.297177 
L 70.105929 118.147707 
L 70.26639 118.905733 
L 71.550074 118.969791 
L 71.710535 119.610377 
L 71.870995 119.610377 
L 71.870995 119.172643 
L 72.031456 119.322113 
L 72.191916 119.322113 
L 72.191916 119.952022 
L 72.352377 119.556995 
L 72.673298 119.706465 
L 72.673298 119.7812 
L 72.833759 119.642406 
L 73.315141 119.621053 
L 73.315141 120.058787 
L 73.475601 119.909317 
L 73.636062 119.909317 
L 73.636062 120.229609 
L 73.796522 119.738494 
L 73.956983 119.738494 
L 74.117443 120.507196 
L 74.277904 120.507196 
L 74.277904 120.112169 
L 74.438365 120.400432 
L 74.759286 120.368403 
L 74.759286 120.688695 
L 74.919746 120.507196 
L 75.240668 120.603284 
L 75.240668 120.752754 
L 75.401128 120.528549 
L 76.203431 120.453814 
L 76.203431 121.137105 
L 76.363892 121.137105 
L 76.524352 121.137105 
L 76.524352 120.9129 
L 76.684813 121.073047 
L 77.005734 120.94493 
L 77.005734 120.827489 
L 77.166195 121.115752 
L 78.128958 121.21184 
L 78.128958 121.478751 
L 78.289419 121.137105 
L 78.449879 121.137105 
L 78.449879 121.574838 
L 78.61034 121.564162 
L 79.894024 121.713632 
L 79.894024 121.92716 
L 80.054485 121.895131 
L 80.214946 121.895131 
L 80.214946 121.596191 
L 80.375406 121.991219 
L 80.535867 121.991219 
L 80.535867 121.788367 
L 80.696327 121.831073 
L 80.856788 121.831073 
L 80.856788 122.07663 
L 81.017248 121.92716 
L 81.49863 121.92716 
L 81.659091 122.194071 
L 82.621854 122.044601 
L 82.621854 121.905808 
L 82.782315 122.183395 
L 83.745078 122.290159 
L 83.905539 122.493011 
L 84.707842 122.396923 
L 84.707842 122.2261 
L 84.868302 122.503687 
L 86.633369 122.493011 
L 86.633369 122.738568 
L 86.793829 122.428952 
L 86.95429 122.428952 
L 86.95429 122.802627 
L 87.114751 122.642481 
L 89.200738 122.834656 
L 89.200738 122.877362 
L 89.361199 122.727892 
L 90.163502 122.813303 
L 90.163502 122.94142 
L 90.323962 122.802627 
L 91.928568 122.727892 
L 91.928568 123.016155 
L 92.089029 122.909391 
L 95.458701 123.026832 
L 95.458701 123.144273 
L 95.619161 123.101567 
L 109.579232 123.27239 
L 109.579232 123.304419 
L 109.739693 123.283066 
L 198.634855 123.315095 
L 198.634855 123.325772 
" clip-path="url(#p0c6db11003)" style="fill: none; stroke: #e9c46a; stroke-linejoin: miter"/>
   </g>
   <g id="patch_7">
    <path d="M 33.6894 123.325772 
L 33.6894 16.529498 
" style="fill: none; stroke: #000000; stroke-width: 0.8; stroke-linejoin: miter; stroke-linecap: square"/>
   </g>
   <g id="patch_8">
    <path d="M 206.4894 123.325772 
L 206.4894 16.529498 
" style="fill: none; stroke: #000000; stroke-width: 0.8; stroke-linejoin: miter; stroke-linecap: square"/>
   </g>
   <g id="patch_9">
    <path d="M 33.6894 123.325772 
L 206.4894 123.325772 
" style="fill: none; stroke: #000000; stroke-width: 0.8; stroke-linejoin: miter; stroke-linecap: square"/>
   </g>
   <g id="patch_10">
    <path d="M 33.6894 16.529498 
L 206.4894 16.529498 
" style="fill: none; stroke: #000000; stroke-width: 0.8; stroke-linejoin: miter; stroke-linecap: square"/>
   </g>
   <g id="legend_1">
    <g id="text_14">
     <!-- $\tau_\mathrm{lag}$ [ns] -->
     <g transform="translate(216.532133 49.014129) scale(0.0833 -0.0833)">
      <use xlink:href="#DejaVuSans-Oblique-3c4" transform="translate(0 0.015625)"/>
      <use xlink:href="#DejaVuSans-6c" transform="translate(60.205078 -16.390625) scale(0.7)"/>
      <use xlink:href="#DejaVuSans-61" transform="translate(79.65332 -16.390625) scale(0.7)"/>
      <use xlink:href="#DejaVuSans-67" transform="translate(122.548828 -16.390625) scale(0.7)"/>
      <use xlink:href="#DejaVuSans-20" transform="translate(169.716797 0.015625)"/>
      <use xlink:href="#DejaVuSans-5b" transform="translate(201.503906 0.015625)"/>
      <use xlink:href="#DejaVuSans-6e" transform="translate(240.517578 0.015625)"/>
      <use xlink:href="#DejaVuSans-73" transform="translate(303.896484 0.015625)"/>
      <use xlink:href="#DejaVuSans-5d" transform="translate(355.996094 0.015625)"/>
     </g>
    </g>
    <g id="patch_11">
     <path d="M 215.8384 61.257927 
L 227.5004 61.257927 
L 227.5004 55.426927 
L 215.8384 55.426927 
z
"/>
    </g>
    <g id="text_15">
     <!-- MD -->
     <g transform="translate(231.6654 61.257927) scale(0.0833 -0.0833)">
      <defs>
       <path id="DejaVuSans-4d" d="M 628 4666 
L 1569 4666 
L 2759 1491 
L 3956 4666 
L 4897 4666 
L 4897 0 
L 4281 0 
L 4281 4097 
L 3078 897 
L 2444 897 
L 1241 4097 
L 1241 0 
L 628 0 
L 628 4666 
z
" transform="scale(0.015625)"/>
       <path id="DejaVuSans-44" d="M 1259 4147 
L 1259 519 
L 2022 519 
Q 2988 519 3436 956 
Q 3884 1394 3884 2338 
Q 3884 3275 3436 3711 
Q 2988 4147 2022 4147 
L 1259 4147 
z
M 628 4666 
L 1925 4666 
Q 3281 4666 3915 4102 
Q 4550 3538 4550 2338 
Q 4550 1131 3912 565 
Q 3275 0 1925 0 
L 628 0 
L 628 4666 
z
" transform="scale(0.015625)"/>
      </defs>
      <use xlink:href="#DejaVuSans-4d"/>
      <use xlink:href="#DejaVuSans-44" x="86.279297"/>
     </g>
    </g>
    <g id="line2d_21">
     <path d="M 215.8384 69.736305 
L 227.5004 69.736305 
" style="fill: none; stroke: #264653; stroke-linecap: square"/>
    </g>
    <g id="text_16">
     <!-- 10.0 -->
     <g transform="translate(231.6654 72.651805) scale(0.0833 -0.0833)">
      <defs>
       <path id="DejaVuSans-2e" d="M 684 794 
L 1344 794 
L 1344 0 
L 684 0 
L 684 794 
z
" transform="scale(0.015625)"/>
      </defs>
      <use xlink:href="#DejaVuSans-31"/>
      <use xlink:href="#DejaVuSans-30" x="63.623047"/>
      <use xlink:href="#DejaVuSans-2e" x="127.246094"/>
      <use xlink:href="#DejaVuSans-30" x="159.033203"/>
     </g>
    </g>
    <g id="line2d_22">
     <path d="M 215.8384 81.130184 
L 227.5004 81.130184 
" style="fill: none; stroke: #2a9d8f; stroke-linecap: square"/>
    </g>
    <g id="text_17">
     <!-- 20.0 -->
     <g transform="translate(231.6654 84.045684) scale(0.0833 -0.0833)">
      <use xlink:href="#DejaVuSans-32"/>
      <use xlink:href="#DejaVuSans-30" x="63.623047"/>
      <use xlink:href="#DejaVuSans-2e" x="127.246094"/>
      <use xlink:href="#DejaVuSans-30" x="159.033203"/>
     </g>
    </g>
    <g id="line2d_23">
     <path d="M 215.8384 92.524062 
L 227.5004 92.524062 
" style="fill: none; stroke: #e9c46a; stroke-linecap: square"/>
    </g>
    <g id="text_18">
     <!-- 40.0 -->
     <g transform="translate(231.6654 95.439562) scale(0.0833 -0.0833)">
      <use xlink:href="#DejaVuSans-34"/>
      <use xlink:href="#DejaVuSans-30" x="63.623047"/>
      <use xlink:href="#DejaVuSans-2e" x="127.246094"/>
      <use xlink:href="#DejaVuSans-30" x="159.033203"/>
     </g>
    </g>
   </g>
  </g>
 </g>
 <defs>
  <clipPath id="p0c6db11003">
   <rect x="33.6894" y="16.529498" width="172.8" height="106.796273"/>
  </clipPath>
 </defs>
</svg>
